<?xml version="1.0" encoding="UTF-8" standalone="no"?>
<!DOCTYPE svg PUBLIC "-//W3C//DTD SVG 1.1//EN"
 "http://www.w3.org/Graphics/SVG/1.1/DTD/svg11.dtd">
<!-- Generated by graphviz version 2.26.3 (20100126.1600)
 -->
<!-- Title: stxxl::stream::runs_creator&lt; Input, CompareType, BlockSize, AllocStr &gt; Pages: 1 -->
<svg width="852pt" height="134pt"
 viewBox="0.00 0.00 852.00 134.00" xmlns="http://www.w3.org/2000/svg" xmlns:xlink="http://www.w3.org/1999/xlink">
<g id="graph1" class="graph" transform="scale(1 1) rotate(0) translate(4 130)">
<title>stxxl::stream::runs_creator&lt; Input, CompareType, BlockSize, AllocStr &gt;</title>
<!-- Node1 -->
<g id="node1" class="node"><title>Node1</title>
<polygon fill="#bfbfbf" stroke="black" points="680,-45.5 680,-92.5 844,-92.5 844,-45.5 680,-45.5"/>
<text text-anchor="start" x="688" y="-79.5" font-family="Helvetica,sans-Serif" font-size="10.00">stxxl::stream::runs</text>
<text text-anchor="start" x="688" y="-66.5" font-family="Helvetica,sans-Serif" font-size="10.00">_creator&lt; Input, CompareType,</text>
<text text-anchor="middle" x="762" y="-53.5" font-family="Helvetica,sans-Serif" font-size="10.00"> BlockSize, AllocStr &gt;</text>
</g>
<!-- Node2 -->
<g id="node2" class="node"><title>Node2</title>
<a xlink:href="classstxxl_1_1stream_1_1basic__runs__creator.html" target="_top" xlink:title="Forms sorted runs of data from a stream. ">
<polygon fill="none" stroke="black" points="502,-39 502,-99 642,-99 642,-39 502,-39"/>
<text text-anchor="start" x="510" y="-86" font-family="Helvetica,sans-Serif" font-size="10.00">stxxl::stream::basic</text>
<text text-anchor="start" x="510" y="-73" font-family="Helvetica,sans-Serif" font-size="10.00">_runs_creator&lt; Input,</text>
<text text-anchor="start" x="510" y="-60" font-family="Helvetica,sans-Serif" font-size="10.00"> CompareType, BlockSize,</text>
<text text-anchor="middle" x="572" y="-47" font-family="Helvetica,sans-Serif" font-size="10.00"> AllocStr &gt;</text>
</a>
</g>
<!-- Node2&#45;&gt;Node1 -->
<g id="edge2" class="edge"><title>Node2&#45;&gt;Node1</title>
<path fill="none" stroke="midnightblue" d="M652.383,-69C661.479,-69 670.758,-69 679.876,-69"/>
<polygon fill="midnightblue" stroke="midnightblue" points="652.209,-65.5001 642.209,-69 652.209,-72.5001 652.209,-65.5001"/>
</g>
<!-- Node3 -->
<g id="node4" class="node"><title>Node3</title>
<a xlink:href="classstxxl_1_1noncopyable.html" target="_top" xlink:title="stxxl::noncopyable">
<polygon fill="none" stroke="black" points="283,-104.5 283,-125.5 385,-125.5 385,-104.5 283,-104.5"/>
<text text-anchor="middle" x="334" y="-112.5" font-family="Helvetica,sans-Serif" font-size="10.00">stxxl::noncopyable</text>
</a>
</g>
<!-- Node3&#45;&gt;Node2 -->
<g id="edge4" class="edge"><title>Node3&#45;&gt;Node2</title>
<path fill="none" stroke="#8b1a1a" d="M394.9,-103.229C427.464,-96.9356 467.719,-89.1552 501.617,-82.6034"/>
<polygon fill="#8b1a1a" stroke="#8b1a1a" points="394.211,-99.7977 385.057,-105.132 395.539,-106.671 394.211,-99.7977"/>
</g>
<!-- Node4 -->
<g id="node6" class="node"><title>Node4</title>
<a xlink:href="classstxxl_1_1counting__ptr.html" target="_top" xlink:title="stxxl::counting_ptr\l\&lt; sorted_runs_data_type \&gt;">
<polygon fill="none" stroke="black" points="262,-52 262,-86 406,-86 406,-52 262,-52"/>
<text text-anchor="start" x="270" y="-73" font-family="Helvetica,sans-Serif" font-size="10.00">stxxl::counting_ptr</text>
<text text-anchor="middle" x="334" y="-60" font-family="Helvetica,sans-Serif" font-size="10.00">&lt; sorted_runs_data_type &gt;</text>
</a>
</g>
<!-- Node4&#45;&gt;Node2 -->
<g id="edge6" class="edge"><title>Node4&#45;&gt;Node2</title>
<path fill="none" stroke="#9a32cd" stroke-dasharray="5,2" d="M416.181,-69C444.073,-69 474.959,-69 501.827,-69"/>
<polygon fill="#9a32cd" stroke="#9a32cd" points="416.054,-65.5001 406.054,-69 416.054,-72.5001 416.054,-65.5001"/>
<text text-anchor="middle" x="454" y="-73" font-family="Helvetica,sans-Serif" font-size="10.00"> m_result</text>
</g>
<!-- Node5 -->
<g id="node8" class="node"><title>Node5</title>
<a xlink:href="classstxxl_1_1counting__ptr.html" target="_top" xlink:title="High&#45;performance smart pointer used as a wrapping reference counting pointer. ">
<polygon fill="none" stroke="black" points="12.5,-52 12.5,-86 113.5,-86 113.5,-52 12.5,-52"/>
<text text-anchor="start" x="20.5" y="-73" font-family="Helvetica,sans-Serif" font-size="10.00">stxxl::counting_ptr</text>
<text text-anchor="middle" x="63" y="-60" font-family="Helvetica,sans-Serif" font-size="10.00">&lt; Type &gt;</text>
</a>
</g>
<!-- Node5&#45;&gt;Node4 -->
<g id="edge8" class="edge"><title>Node5&#45;&gt;Node4</title>
<path fill="none" stroke="orange" stroke-dasharray="5,2" d="M123.754,-69C164.654,-69 218.778,-69 261.868,-69"/>
<polygon fill="orange" stroke="orange" points="123.655,-65.5001 113.655,-69 123.655,-72.5001 123.655,-65.5001"/>
<text text-anchor="start" x="146" y="-86" font-family="Helvetica,sans-Serif" font-size="10.00"> &lt; sorted_runs_data</text>
<text text-anchor="middle" x="194" y="-73" font-family="Helvetica,sans-Serif" font-size="10.00">_type &gt;</text>
</g>
<!-- Node6 -->
<g id="node10" class="node"><title>Node6</title>
<a xlink:href="structstxxl_1_1choose__int__types.html" target="_top" xlink:title="stxxl::choose_int_types\l\&lt; my_pointer_size \&gt;">
<polygon fill="none" stroke="black" points="271.5,-0 271.5,-34 396.5,-34 396.5,-0 271.5,-0"/>
<text text-anchor="start" x="279.5" y="-21" font-family="Helvetica,sans-Serif" font-size="10.00">stxxl::choose_int_types</text>
<text text-anchor="middle" x="334" y="-8" font-family="Helvetica,sans-Serif" font-size="10.00">&lt; my_pointer_size &gt;</text>
</a>
</g>
<!-- Node6&#45;&gt;Node2 -->
<g id="edge10" class="edge"><title>Node6&#45;&gt;Node2</title>
<path fill="none" stroke="#9a32cd" stroke-dasharray="5,2" d="M406.603,-32.8629C436.881,-39.4782 471.909,-47.1314 501.915,-53.6872"/>
<polygon fill="#9a32cd" stroke="#9a32cd" points="407.048,-29.3776 396.532,-30.6624 405.554,-36.2163 407.048,-29.3776"/>
<text text-anchor="middle" x="454" y="-53" font-family="Helvetica,sans-Serif" font-size="10.00"> m_memsize</text>
</g>
<!-- Node7 -->
<g id="node12" class="node"><title>Node7</title>
<a xlink:href="structstxxl_1_1choose__int__types.html" target="_top" xlink:title="stxxl::choose_int_types\l\&lt; PtrSize \&gt;">
<polygon fill="none" stroke="black" points="0.5,-0 0.5,-34 125.5,-34 125.5,-0 0.5,-0"/>
<text text-anchor="start" x="8.5" y="-21" font-family="Helvetica,sans-Serif" font-size="10.00">stxxl::choose_int_types</text>
<text text-anchor="middle" x="63" y="-8" font-family="Helvetica,sans-Serif" font-size="10.00">&lt; PtrSize &gt;</text>
</a>
</g>
<!-- Node7&#45;&gt;Node6 -->
<g id="edge12" class="edge"><title>Node7&#45;&gt;Node6</title>
<path fill="none" stroke="orange" stroke-dasharray="5,2" d="M135.754,-17C178.071,-17 230.867,-17 271.332,-17"/>
<polygon fill="orange" stroke="orange" points="135.513,-13.5001 125.513,-17 135.513,-20.5001 135.513,-13.5001"/>
<text text-anchor="middle" x="194" y="-21" font-family="Helvetica,sans-Serif" font-size="10.00"> &lt; my_pointer_size &gt;</text>
</g>
</g>
</svg>
