<?xml version="1.0" encoding="UTF-8" standalone="no"?>
<!DOCTYPE svg PUBLIC "-//W3C//DTD SVG 1.1//EN"
 "http://www.w3.org/Graphics/SVG/1.1/DTD/svg11.dtd">
<!-- Generated by graphviz version 2.26.3 (20100126.1600)
 -->
<!-- Title: stxxl::BIDArray&lt; BlockSize &gt; Pages: 1 -->
<svg width="221pt" height="336pt"
 viewBox="0.00 0.00 221.00 336.00" xmlns="http://www.w3.org/2000/svg" xmlns:xlink="http://www.w3.org/1999/xlink">
<g id="graph1" class="graph" transform="scale(1 1) rotate(0) translate(4 332)">
<title>stxxl::BIDArray&lt; BlockSize &gt;</title>
<!-- Node1 -->
<g id="node1" class="node"><title>Node1</title>
<polygon fill="#bfbfbf" stroke="black" points="-0.5,-86.5 -0.5,-107.5 148.5,-107.5 148.5,-86.5 -0.5,-86.5"/>
<text text-anchor="middle" x="74" y="-94.5" font-family="Helvetica,sans-Serif" font-size="10.00">stxxl::BIDArray&lt; BlockSize &gt;</text>
</g>
<!-- Node5 -->
<g id="node10" class="node"><title>Node5</title>
<a xlink:href="classstxxl_1_1BIDArray.html" target="_top" xlink:title="stxxl::BIDArray\&lt; block\l_type::raw_size \&gt;">
<polygon fill="none" stroke="black" points="15,-1 15,-35 133,-35 133,-1 15,-1"/>
<text text-anchor="start" x="23" y="-22" font-family="Helvetica,sans-Serif" font-size="10.00">stxxl::BIDArray&lt; block</text>
<text text-anchor="middle" x="74" y="-9" font-family="Helvetica,sans-Serif" font-size="10.00">_type::raw_size &gt;</text>
</a>
</g>
<!-- Node1&#45;&gt;Node5 -->
<g id="edge10" class="edge"><title>Node1&#45;&gt;Node5</title>
<path fill="none" stroke="orange" stroke-dasharray="5,2" d="M74,-76.1618C74,-63.3635 74,-47.1713 74,-35.1236"/>
<polygon fill="orange" stroke="orange" points="70.5001,-76.3457 74,-86.3457 77.5001,-76.3457 70.5001,-76.3457"/>
<text text-anchor="middle" x="133" y="-58.5" font-family="Helvetica,sans-Serif" font-size="10.00"> &lt; block_type::raw_size &gt;</text>
</g>
<!-- Node2 -->
<g id="node2" class="node"><title>Node2</title>
<a xlink:href="classstxxl_1_1simple__vector.html" target="_top" xlink:title="stxxl::simple_vector\l\&lt; BID\&lt; BlockSize \&gt; \&gt;">
<polygon fill="none" stroke="black" points="16,-147 16,-181 132,-181 132,-147 16,-147"/>
<text text-anchor="start" x="24" y="-168" font-family="Helvetica,sans-Serif" font-size="10.00">stxxl::simple_vector</text>
<text text-anchor="middle" x="74" y="-155" font-family="Helvetica,sans-Serif" font-size="10.00">&lt; BID&lt; BlockSize &gt; &gt;</text>
</a>
</g>
<!-- Node2&#45;&gt;Node1 -->
<g id="edge2" class="edge"><title>Node2&#45;&gt;Node1</title>
<path fill="none" stroke="midnightblue" d="M74,-136.534C74,-126.306 74,-115.301 74,-107.506"/>
<polygon fill="midnightblue" stroke="midnightblue" points="70.5001,-136.746 74,-146.746 77.5001,-136.746 70.5001,-136.746"/>
</g>
<!-- Node3 -->
<g id="node4" class="node"><title>Node3</title>
<a xlink:href="classstxxl_1_1noncopyable.html" target="_top" xlink:title="stxxl::noncopyable">
<polygon fill="none" stroke="black" points="33,-306.5 33,-327.5 135,-327.5 135,-306.5 33,-306.5"/>
<text text-anchor="middle" x="84" y="-314.5" font-family="Helvetica,sans-Serif" font-size="10.00">stxxl::noncopyable</text>
</a>
</g>
<!-- Node3&#45;&gt;Node2 -->
<g id="edge4" class="edge"><title>Node3&#45;&gt;Node2</title>
<path fill="none" stroke="#8b1a1a" d="M80.4901,-296.144C79.1679,-287.466 77.7934,-277.271 77,-268 74.3972,-237.585 73.9235,-202.003 73.9021,-181.332"/>
<polygon fill="#8b1a1a" stroke="#8b1a1a" points="77.0537,-296.82 82.0891,-306.142 83.9658,-295.715 77.0537,-296.82"/>
</g>
<!-- Node4 -->
<g id="node6" class="node"><title>Node4</title>
<a xlink:href="classstxxl_1_1simple__vector.html" target="_top" xlink:title="Simpler non&#45;growing vector without initialization. ">
<polygon fill="none" stroke="black" points="85.5,-233 85.5,-267 192.5,-267 192.5,-233 85.5,-233"/>
<text text-anchor="start" x="93.5" y="-254" font-family="Helvetica,sans-Serif" font-size="10.00">stxxl::simple_vector</text>
<text text-anchor="middle" x="139" y="-241" font-family="Helvetica,sans-Serif" font-size="10.00">&lt; ValueType &gt;</text>
</a>
</g>
<!-- Node3&#45;&gt;Node4 -->
<g id="edge8" class="edge"><title>Node3&#45;&gt;Node4</title>
<path fill="none" stroke="#8b1a1a" d="M99.371,-298.275C107.42,-288.471 117.202,-276.554 125.033,-267.014"/>
<polygon fill="#8b1a1a" stroke="#8b1a1a" points="96.4764,-296.285 92.8367,-306.235 101.887,-300.727 96.4764,-296.285"/>
</g>
<!-- Node4&#45;&gt;Node2 -->
<g id="edge6" class="edge"><title>Node4&#45;&gt;Node2</title>
<path fill="none" stroke="orange" stroke-dasharray="5,2" d="M119.605,-224.339C109.039,-210.36 96.254,-193.444 86.9123,-181.084"/>
<polygon fill="orange" stroke="orange" points="117.024,-226.729 125.846,-232.597 122.609,-222.509 117.024,-226.729"/>
<text text-anchor="middle" x="161.5" y="-204.5" font-family="Helvetica,sans-Serif" font-size="10.00"> &lt; BID&lt; BlockSize &gt; &gt;</text>
</g>
</g>
</svg>
