<?xml version="1.0" encoding="UTF-8" standalone="no"?>
<!DOCTYPE svg PUBLIC "-//W3C//DTD SVG 1.1//EN"
 "http://www.w3.org/Graphics/SVG/1.1/DTD/svg11.dtd">
<!-- Generated by graphviz version 2.26.3 (20100126.1600)
 -->
<!-- Title: stxxl::file Pages: 1 -->
<svg width="518pt" height="322pt"
 viewBox="0.00 0.00 518.00 322.00" xmlns="http://www.w3.org/2000/svg" xmlns:xlink="http://www.w3.org/1999/xlink">
<g id="graph1" class="graph" transform="scale(1 1) rotate(0) translate(4 318)">
<title>stxxl::file</title>
<!-- Node1 -->
<g id="node1" class="node"><title>Node1</title>
<polygon fill="#bfbfbf" stroke="black" points="138,-149.5 138,-170.5 194,-170.5 194,-149.5 138,-149.5"/>
<text text-anchor="middle" x="166" y="-157.5" font-family="Helvetica,sans-Serif" font-size="10.00">stxxl::file</text>
</g>
<!-- Node3 -->
<g id="node5" class="node"><title>Node3</title>
<a xlink:href="classstxxl_1_1disk__queued__file.html" target="_top" xlink:title="Implementation of some file methods based on serving_request. ">
<polygon fill="none" stroke="black" points="230.5,-149.5 230.5,-170.5 351.5,-170.5 351.5,-149.5 230.5,-149.5"/>
<text text-anchor="middle" x="291" y="-157.5" font-family="Helvetica,sans-Serif" font-size="10.00">stxxl::disk_queued_file</text>
</a>
</g>
<!-- Node1&#45;&gt;Node3 -->
<g id="edge4" class="edge"><title>Node1&#45;&gt;Node3</title>
<path fill="none" stroke="midnightblue" d="M204.141,-160C212.436,-160 221.409,-160 230.332,-160"/>
<polygon fill="midnightblue" stroke="midnightblue" points="204.052,-156.5 194.052,-160 204.052,-163.5 204.052,-156.5"/>
</g>
<!-- Node12 -->
<g id="node23" class="node"><title>Node12</title>
<a xlink:href="classstxxl_1_1ufs__file__base.html" target="_top" xlink:title="Base for UNIX file system implementations. ">
<polygon fill="none" stroke="black" points="239,-212.5 239,-233.5 343,-233.5 343,-212.5 239,-212.5"/>
<text text-anchor="middle" x="291" y="-220.5" font-family="Helvetica,sans-Serif" font-size="10.00">stxxl::ufs_file_base</text>
</a>
</g>
<!-- Node1&#45;&gt;Node12 -->
<g id="edge22" class="edge"><title>Node1&#45;&gt;Node12</title>
<path fill="none" stroke="midnightblue" d="M195.864,-175.052C218.733,-186.578 249.705,-202.188 270.01,-212.421"/>
<polygon fill="midnightblue" stroke="midnightblue" points="197.427,-171.92 186.922,-170.545 194.277,-178.171 197.427,-171.92"/>
</g>
<!-- Node13 -->
<g id="node29" class="node"><title>Node13</title>
<a xlink:href="classstxxl_1_1wfs__file__base.html" target="_top" xlink:title="Base for Windows file system implementations. ">
<polygon fill="none" stroke="black" points="238,-66.5 238,-87.5 344,-87.5 344,-66.5 238,-66.5"/>
<text text-anchor="middle" x="291" y="-74.5" font-family="Helvetica,sans-Serif" font-size="10.00">stxxl::wfs_file_base</text>
</a>
</g>
<!-- Node1&#45;&gt;Node13 -->
<g id="edge32" class="edge"><title>Node1&#45;&gt;Node13</title>
<path fill="none" stroke="midnightblue" d="M190.383,-143.81C215.356,-127.228 253.466,-101.923 274.902,-87.6888"/>
<polygon fill="midnightblue" stroke="midnightblue" points="188.226,-141.041 181.831,-149.488 192.098,-146.872 188.226,-141.041"/>
</g>
<!-- Node2 -->
<g id="node2" class="node"><title>Node2</title>
<a xlink:href="classstxxl_1_1noncopyable.html" target="_top" xlink:title="stxxl::noncopyable">
<polygon fill="none" stroke="black" points="0,-149.5 0,-170.5 102,-170.5 102,-149.5 0,-149.5"/>
<text text-anchor="middle" x="51" y="-157.5" font-family="Helvetica,sans-Serif" font-size="10.00">stxxl::noncopyable</text>
</a>
</g>
<!-- Node2&#45;&gt;Node1 -->
<g id="edge2" class="edge"><title>Node2&#45;&gt;Node1</title>
<path fill="none" stroke="#8b1a1a" d="M112.191,-160C121.115,-160 129.92,-160 137.741,-160"/>
<polygon fill="#8b1a1a" stroke="#8b1a1a" points="112.11,-156.5 102.11,-160 112.11,-163.5 112.11,-156.5"/>
</g>
<!-- Node4 -->
<g id="node7" class="node"><title>Node4</title>
<a xlink:href="classstxxl_1_1fileperblock__file.html" target="_top" xlink:title="Implementation of file based on other files, dynamically allocate one file per block. Allows for dynamic disk space consumption. ">
<polygon fill="none" stroke="black" points="388,-120 388,-154 510,-154 510,-120 388,-120"/>
<text text-anchor="start" x="396" y="-141" font-family="Helvetica,sans-Serif" font-size="10.00">stxxl::fileperblock</text>
<text text-anchor="middle" x="449" y="-128" font-family="Helvetica,sans-Serif" font-size="10.00">_file&lt; base_file_type &gt;</text>
</a>
</g>
<!-- Node3&#45;&gt;Node4 -->
<g id="edge6" class="edge"><title>Node3&#45;&gt;Node4</title>
<path fill="none" stroke="midnightblue" d="M361.734,-149.703C370.411,-148.44 379.222,-147.157 387.743,-145.917"/>
<polygon fill="midnightblue" stroke="midnightblue" points="361.027,-146.269 351.635,-151.173 362.035,-153.196 361.027,-146.269"/>
</g>
<!-- Node5 -->
<g id="node9" class="node"><title>Node5</title>
<a xlink:href="classstxxl_1_1linuxaio__file.html" target="_top" xlink:title="Implementation of file based on the Linux kernel interface for asynchronous I/O. ">
<polygon fill="none" stroke="black" points="400.5,-212.5 400.5,-233.5 497.5,-233.5 497.5,-212.5 400.5,-212.5"/>
<text text-anchor="middle" x="449" y="-220.5" font-family="Helvetica,sans-Serif" font-size="10.00">stxxl::linuxaio_file</text>
</a>
</g>
<!-- Node3&#45;&gt;Node5 -->
<g id="edge8" class="edge"><title>Node3&#45;&gt;Node5</title>
<path fill="none" stroke="midnightblue" d="M322.364,-174.864C341.197,-183.547 365.745,-194.444 388,-203 396.634,-206.32 406.082,-209.589 414.908,-212.492"/>
<polygon fill="midnightblue" stroke="midnightblue" points="323.623,-171.589 313.08,-170.549 320.673,-177.937 323.623,-171.589"/>
</g>
<!-- Node6 -->
<g id="node11" class="node"><title>Node6</title>
<a xlink:href="classstxxl_1_1mem__file.html" target="_top" xlink:title="Implementation of file based on new[] and memcpy. ">
<polygon fill="none" stroke="black" points="407,-80.5 407,-101.5 491,-101.5 491,-80.5 407,-80.5"/>
<text text-anchor="middle" x="449" y="-88.5" font-family="Helvetica,sans-Serif" font-size="10.00">stxxl::mem_file</text>
</a>
</g>
<!-- Node3&#45;&gt;Node6 -->
<g id="edge10" class="edge"><title>Node3&#45;&gt;Node6</title>
<path fill="none" stroke="midnightblue" d="M318.963,-144.457C338.063,-134.196 364.138,-120.873 388,-111 396.239,-107.591 405.285,-104.36 413.83,-101.528"/>
<polygon fill="midnightblue" stroke="midnightblue" points="317.042,-141.518 309.924,-149.365 320.382,-147.669 317.042,-141.518"/>
</g>
<!-- Node7 -->
<g id="node13" class="node"><title>Node7</title>
<a xlink:href="classstxxl_1_1mmap__file.html" target="_top" xlink:title="Implementation of memory mapped access file. ">
<polygon fill="none" stroke="black" points="404,-172.5 404,-193.5 494,-193.5 494,-172.5 404,-172.5"/>
<text text-anchor="middle" x="449" y="-180.5" font-family="Helvetica,sans-Serif" font-size="10.00">stxxl::mmap_file</text>
</a>
</g>
<!-- Node3&#45;&gt;Node7 -->
<g id="edge12" class="edge"><title>Node3&#45;&gt;Node7</title>
<path fill="none" stroke="midnightblue" d="M361.534,-170.268C375.955,-172.367 390.757,-174.522 403.988,-176.448"/>
<polygon fill="midnightblue" stroke="midnightblue" points="362.035,-166.804 351.635,-168.827 361.027,-173.731 362.035,-166.804"/>
</g>
<!-- Node8 -->
<g id="node15" class="node"><title>Node8</title>
<a xlink:href="classstxxl_1_1sim__disk__file.html" target="_top" xlink:title="Implementation of disk emulation. ">
<polygon fill="none" stroke="black" points="398,-292.5 398,-313.5 500,-313.5 500,-292.5 398,-292.5"/>
<text text-anchor="middle" x="449" y="-300.5" font-family="Helvetica,sans-Serif" font-size="10.00">stxxl::sim_disk_file</text>
</a>
</g>
<!-- Node3&#45;&gt;Node8 -->
<g id="edge14" class="edge"><title>Node3&#45;&gt;Node8</title>
<path fill="none" stroke="midnightblue" d="M319.875,-175.813C331.002,-182.985 343.151,-192.275 352,-203 376.813,-233.075 359.008,-256.93 388,-283 392.226,-286.801 397.19,-289.881 402.429,-292.376"/>
<polygon fill="midnightblue" stroke="midnightblue" points="321.607,-172.769 311.252,-170.527 317.949,-178.737 321.607,-172.769"/>
</g>
<!-- Node9 -->
<g id="node17" class="node"><title>Node9</title>
<a xlink:href="classstxxl_1_1syscall__file.html" target="_top" xlink:title="Implementation of file based on UNIX syscalls. ">
<polygon fill="none" stroke="black" points="402.5,-252.5 402.5,-273.5 495.5,-273.5 495.5,-252.5 402.5,-252.5"/>
<text text-anchor="middle" x="449" y="-260.5" font-family="Helvetica,sans-Serif" font-size="10.00">stxxl::syscall_file</text>
</a>
</g>
<!-- Node3&#45;&gt;Node9 -->
<g id="edge16" class="edge"><title>Node3&#45;&gt;Node9</title>
<path fill="none" stroke="midnightblue" d="M316.636,-176.196C327.921,-183.79 341.067,-193.294 352,-203 369.886,-218.878 367.96,-229.945 388,-243 393.79,-246.772 400.353,-249.89 406.975,-252.449"/>
<polygon fill="midnightblue" stroke="midnightblue" points="318.34,-173.127 308.064,-170.548 314.489,-178.973 318.34,-173.127"/>
</g>
<!-- Node10 -->
<g id="node19" class="node"><title>Node10</title>
<a xlink:href="classstxxl_1_1wbtl__file.html" target="_top" xlink:title="Implementation of file based on buffered writes and block remapping via a translation layer...">
<polygon fill="none" stroke="black" points="409,-40.5 409,-61.5 489,-61.5 489,-40.5 409,-40.5"/>
<text text-anchor="middle" x="449" y="-48.5" font-family="Helvetica,sans-Serif" font-size="10.00">stxxl::wbtl_file</text>
</a>
</g>
<!-- Node3&#45;&gt;Node10 -->
<g id="edge18" class="edge"><title>Node3&#45;&gt;Node10</title>
<path fill="none" stroke="midnightblue" d="M306.598,-141.615C324.427,-121.66 355.382,-90.0948 388,-71 394.444,-67.2276 401.693,-64.0598 408.885,-61.4387"/>
<polygon fill="midnightblue" stroke="midnightblue" points="303.748,-139.557 299.795,-149.387 309.015,-144.168 303.748,-139.557"/>
</g>
<!-- Node11 -->
<g id="node21" class="node"><title>Node11</title>
<a xlink:href="classstxxl_1_1wincall__file.html" target="_top" xlink:title="Implementation of file based on Windows native I/O calls. ">
<polygon fill="none" stroke="black" points="402.5,-0.5 402.5,-21.5 495.5,-21.5 495.5,-0.5 402.5,-0.5"/>
<text text-anchor="middle" x="449" y="-8.5" font-family="Helvetica,sans-Serif" font-size="10.00">stxxl::wincall_file</text>
</a>
</g>
<!-- Node3&#45;&gt;Node11 -->
<g id="edge20" class="edge"><title>Node3&#45;&gt;Node11</title>
<path fill="none" stroke="midnightblue" d="M310.609,-142.393C323.326,-130.369 339.747,-113.655 352,-97 371.801,-70.0863 362.318,-52.3752 388,-31 392.626,-27.15 398.014,-24.0343 403.638,-21.5144"/>
<polygon fill="midnightblue" stroke="midnightblue" points="308.189,-139.863 303.239,-149.231 312.95,-144.995 308.189,-139.863"/>
</g>
<!-- Node12&#45;&gt;Node5 -->
<g id="edge24" class="edge"><title>Node12&#45;&gt;Node5</title>
<path fill="none" stroke="midnightblue" d="M353.293,-223C368.935,-223 385.492,-223 400.359,-223"/>
<polygon fill="midnightblue" stroke="midnightblue" points="353.173,-219.5 343.173,-223 353.173,-226.5 353.173,-219.5"/>
</g>
<!-- Node12&#45;&gt;Node7 -->
<g id="edge26" class="edge"><title>Node12&#45;&gt;Node7</title>
<path fill="none" stroke="midnightblue" d="M342.285,-210.016C363.392,-204.673 387.522,-198.564 407.491,-193.509"/>
<polygon fill="midnightblue" stroke="midnightblue" points="341.348,-206.643 332.513,-212.49 343.066,-213.429 341.348,-206.643"/>
</g>
<!-- Node12&#45;&gt;Node8 -->
<g id="edge28" class="edge"><title>Node12&#45;&gt;Node8</title>
<path fill="none" stroke="midnightblue" d="M313.85,-239.298C332.974,-252.399 361.341,-270.599 388,-283 395.579,-286.525 403.953,-289.702 412.005,-292.431"/>
<polygon fill="midnightblue" stroke="midnightblue" points="315.713,-236.33 305.503,-233.501 311.72,-242.08 315.713,-236.33"/>
</g>
<!-- Node12&#45;&gt;Node9 -->
<g id="edge30" class="edge"><title>Node12&#45;&gt;Node9</title>
<path fill="none" stroke="midnightblue" d="M342.285,-235.984C363.392,-241.327 387.522,-247.436 407.491,-252.491"/>
<polygon fill="midnightblue" stroke="midnightblue" points="343.066,-232.571 332.513,-233.51 341.348,-239.357 343.066,-232.571"/>
</g>
<!-- Node13&#45;&gt;Node11 -->
<g id="edge34" class="edge"><title>Node13&#45;&gt;Node11</title>
<path fill="none" stroke="midnightblue" d="M320.522,-61.8084C339.524,-52.3296 364.9,-40.2217 388,-31 396.384,-27.653 405.569,-24.4218 414.21,-21.5682"/>
<polygon fill="midnightblue" stroke="midnightblue" points="318.837,-58.7382 311.479,-66.3611 321.985,-64.9906 318.837,-58.7382"/>
</g>
</g>
</svg>
