<?xml version="1.0" encoding="UTF-8" standalone="no"?>
<!DOCTYPE svg PUBLIC "-//W3C//DTD SVG 1.1//EN"
 "http://www.w3.org/Graphics/SVG/1.1/DTD/svg11.dtd">
<!-- Generated by graphviz version 2.26.3 (20100126.1600)
 -->
<!-- Title: stxxl::btree::iterator_map&lt; BTreeType &gt; Pages: 1 -->
<svg width="129pt" height="190pt"
 viewBox="0.00 0.00 129.00 190.00" xmlns="http://www.w3.org/2000/svg" xmlns:xlink="http://www.w3.org/1999/xlink">
<g id="graph1" class="graph" transform="scale(1 1) rotate(0) translate(4 186)">
<title>stxxl::btree::iterator_map&lt; BTreeType &gt;</title>
<!-- Node1 -->
<g id="node1" class="node"><title>Node1</title>
<polygon fill="#bfbfbf" stroke="black" points="0,-87 0,-121 114,-121 114,-87 0,-87"/>
<text text-anchor="start" x="8" y="-108" font-family="Helvetica,sans-Serif" font-size="10.00">stxxl::btree::iterator</text>
<text text-anchor="middle" x="57" y="-95" font-family="Helvetica,sans-Serif" font-size="10.00">_map&lt; BTreeType &gt;</text>
</g>
<!-- Node3 -->
<g id="node5" class="node"><title>Node3</title>
<a xlink:href="classstxxl_1_1btree_1_1iterator__map.html" target="_top" xlink:title="stxxl::btree::iterator\l_map\&lt; self_type \&gt;">
<polygon fill="none" stroke="black" points="5,-1 5,-35 109,-35 109,-1 5,-1"/>
<text text-anchor="start" x="13" y="-22" font-family="Helvetica,sans-Serif" font-size="10.00">stxxl::btree::iterator</text>
<text text-anchor="middle" x="57" y="-9" font-family="Helvetica,sans-Serif" font-size="10.00">_map&lt; self_type &gt;</text>
</a>
</g>
<!-- Node1&#45;&gt;Node3 -->
<g id="edge4" class="edge"><title>Node1&#45;&gt;Node3</title>
<path fill="none" stroke="orange" stroke-dasharray="5,2" d="M57,-76.342C57,-62.7741 57,-46.8607 57,-35.084"/>
<polygon fill="orange" stroke="orange" points="53.5001,-76.5966 57,-86.5966 60.5001,-76.5967 53.5001,-76.5966"/>
<text text-anchor="middle" x="89" y="-58.5" font-family="Helvetica,sans-Serif" font-size="10.00"> &lt; self_type &gt;</text>
</g>
<!-- Node2 -->
<g id="node2" class="node"><title>Node2</title>
<a xlink:href="classstxxl_1_1noncopyable.html" target="_top" xlink:title="stxxl::noncopyable">
<polygon fill="none" stroke="black" points="6,-160.5 6,-181.5 108,-181.5 108,-160.5 6,-160.5"/>
<text text-anchor="middle" x="57" y="-168.5" font-family="Helvetica,sans-Serif" font-size="10.00">stxxl::noncopyable</text>
</a>
</g>
<!-- Node2&#45;&gt;Node1 -->
<g id="edge2" class="edge"><title>Node2&#45;&gt;Node1</title>
<path fill="none" stroke="#8b1a1a" d="M57,-150.165C57,-140.797 57,-129.88 57,-121.014"/>
<polygon fill="#8b1a1a" stroke="#8b1a1a" points="53.5001,-150.235 57,-160.235 60.5001,-150.235 53.5001,-150.235"/>
</g>
</g>
</svg>
