<?xml version="1.0" encoding="UTF-8" standalone="no"?>
<!DOCTYPE svg PUBLIC "-//W3C//DTD SVG 1.1//EN"
 "http://www.w3.org/Graphics/SVG/1.1/DTD/svg11.dtd">
<!-- Generated by graphviz version 2.26.3 (20100126.1600)
 -->
<!-- Title: stxxl::atomic_counted_object Pages: 1 -->
<svg width="353pt" height="330pt"
 viewBox="0.00 0.00 353.00 330.00" xmlns="http://www.w3.org/2000/svg" xmlns:xlink="http://www.w3.org/1999/xlink">
<g id="graph1" class="graph" transform="scale(1 1) rotate(0) translate(4 326)">
<title>stxxl::atomic_counted_object</title>
<!-- Node1 -->
<g id="node1" class="node"><title>Node1</title>
<polygon fill="#bfbfbf" stroke="black" points="137,-287 137,-321 253,-321 253,-287 137,-287"/>
<text text-anchor="start" x="145" y="-308" font-family="Helvetica,sans-Serif" font-size="10.00">stxxl::atomic_counted</text>
<text text-anchor="middle" x="195" y="-295" font-family="Helvetica,sans-Serif" font-size="10.00">_object</text>
</g>
<!-- Node2 -->
<g id="node3" class="node"><title>Node2</title>
<a xlink:href="classstxxl_1_1request.html" target="_top" xlink:title="Request object encapsulating basic properties like file and offset. ">
<polygon fill="none" stroke="black" points="88.5,-215.5 88.5,-236.5 165.5,-236.5 165.5,-215.5 88.5,-215.5"/>
<text text-anchor="middle" x="127" y="-223.5" font-family="Helvetica,sans-Serif" font-size="10.00">stxxl::request</text>
</a>
</g>
<!-- Node1&#45;&gt;Node2 -->
<g id="edge2" class="edge"><title>Node1&#45;&gt;Node2</title>
<path fill="none" stroke="midnightblue" d="M173.309,-279.119C160.867,-264.847 145.882,-247.659 136.397,-236.779"/>
<polygon fill="midnightblue" stroke="midnightblue" points="170.699,-281.452 179.909,-286.689 175.975,-276.852 170.699,-281.452"/>
</g>
<!-- Node7 -->
<g id="node13" class="node"><title>Node7</title>
<a xlink:href="classstxxl_1_1swappable__block__matrix.html" target="_top" xlink:title="External container for a (sub)matrix. Not intended for direct use. ">
<polygon fill="none" stroke="black" points="183,-202.5 183,-249.5 345,-249.5 345,-202.5 183,-202.5"/>
<text text-anchor="start" x="191" y="-236.5" font-family="Helvetica,sans-Serif" font-size="10.00">stxxl::swappable_block</text>
<text text-anchor="start" x="191" y="-223.5" font-family="Helvetica,sans-Serif" font-size="10.00">_matrix&lt; ValueType, BlockSide</text>
<text text-anchor="middle" x="264" y="-210.5" font-family="Helvetica,sans-Serif" font-size="10.00">Length &gt;</text>
</a>
</g>
<!-- Node1&#45;&gt;Node7 -->
<g id="edge12" class="edge"><title>Node1&#45;&gt;Node7</title>
<path fill="none" stroke="midnightblue" d="M216.985,-279.147C225.304,-269.744 234.745,-259.071 242.973,-249.77"/>
<polygon fill="midnightblue" stroke="midnightblue" points="214.318,-276.88 210.313,-286.689 219.561,-281.518 214.318,-276.88"/>
</g>
<!-- Node3 -->
<g id="node5" class="node"><title>Node3</title>
<a xlink:href="classstxxl_1_1request__with__waiters.html" target="_top" xlink:title="Request that is aware of threads waiting for it to complete. ">
<polygon fill="none" stroke="black" points="76,-131 76,-165 178,-165 178,-131 76,-131"/>
<text text-anchor="start" x="84" y="-152" font-family="Helvetica,sans-Serif" font-size="10.00">stxxl::request_with</text>
<text text-anchor="middle" x="127" y="-139" font-family="Helvetica,sans-Serif" font-size="10.00">_waiters</text>
</a>
</g>
<!-- Node2&#45;&gt;Node3 -->
<g id="edge4" class="edge"><title>Node2&#45;&gt;Node3</title>
<path fill="none" stroke="midnightblue" d="M127,-205.116C127,-192.634 127,-176.969 127,-165.203"/>
<polygon fill="midnightblue" stroke="midnightblue" points="123.5,-205.481 127,-215.481 130.5,-205.481 123.5,-205.481"/>
</g>
<!-- Node4 -->
<g id="node7" class="node"><title>Node4</title>
<a xlink:href="classstxxl_1_1request__with__state.html" target="_top" xlink:title="Request with completion state. ">
<polygon fill="none" stroke="black" points="76,-59 76,-93 178,-93 178,-59 76,-59"/>
<text text-anchor="start" x="84" y="-80" font-family="Helvetica,sans-Serif" font-size="10.00">stxxl::request_with</text>
<text text-anchor="middle" x="127" y="-67" font-family="Helvetica,sans-Serif" font-size="10.00">_state</text>
</a>
</g>
<!-- Node3&#45;&gt;Node4 -->
<g id="edge6" class="edge"><title>Node3&#45;&gt;Node4</title>
<path fill="none" stroke="midnightblue" d="M127,-120.719C127,-111.572 127,-101.625 127,-93.4407"/>
<polygon fill="midnightblue" stroke="midnightblue" points="123.5,-120.937 127,-130.937 130.5,-120.937 123.5,-120.937"/>
</g>
<!-- Node5 -->
<g id="node9" class="node"><title>Node5</title>
<a xlink:href="classstxxl_1_1linuxaio__request.html" target="_top" xlink:title="Request for an linuxaio_file. ">
<polygon fill="none" stroke="black" points="-0.5,-0.5 -0.5,-21.5 118.5,-21.5 118.5,-0.5 -0.5,-0.5"/>
<text text-anchor="middle" x="59" y="-8.5" font-family="Helvetica,sans-Serif" font-size="10.00">stxxl::linuxaio_request</text>
</a>
</g>
<!-- Node4&#45;&gt;Node5 -->
<g id="edge8" class="edge"><title>Node4&#45;&gt;Node5</title>
<path fill="none" stroke="midnightblue" d="M101.902,-52.0092C91.0709,-41.656 78.9433,-30.0634 70.353,-21.8521"/>
<polygon fill="midnightblue" stroke="midnightblue" points="99.4866,-54.5422 109.134,-58.922 104.323,-49.4821 99.4866,-54.5422"/>
</g>
<!-- Node6 -->
<g id="node11" class="node"><title>Node6</title>
<a xlink:href="classstxxl_1_1serving__request.html" target="_top" xlink:title="Request which serves an I/O by calling the synchronous routine of the file. ">
<polygon fill="none" stroke="black" points="136,-0.5 136,-21.5 254,-21.5 254,-0.5 136,-0.5"/>
<text text-anchor="middle" x="195" y="-8.5" font-family="Helvetica,sans-Serif" font-size="10.00">stxxl::serving_request</text>
</a>
</g>
<!-- Node4&#45;&gt;Node6 -->
<g id="edge10" class="edge"><title>Node4&#45;&gt;Node6</title>
<path fill="none" stroke="midnightblue" d="M152.098,-52.0092C162.929,-41.656 175.057,-30.0634 183.647,-21.8521"/>
<polygon fill="midnightblue" stroke="midnightblue" points="149.677,-49.4821 144.866,-58.922 154.513,-54.5422 149.677,-49.4821"/>
</g>
</g>
</svg>
