<?xml version="1.0" encoding="UTF-8" standalone="no"?>
<!DOCTYPE svg PUBLIC "-//W3C//DTD SVG 1.1//EN"
 "http://www.w3.org/Graphics/SVG/1.1/DTD/svg11.dtd">
<!-- Generated by graphviz version 2.26.3 (20100126.1600)
 -->
<!-- Title: stxxl::simple_vector&lt; ValueType &gt; Pages: 1 -->
<svg width="978pt" height="322pt"
 viewBox="0.00 0.00 978.00 322.00" xmlns="http://www.w3.org/2000/svg" xmlns:xlink="http://www.w3.org/1999/xlink">
<g id="graph1" class="graph" transform="scale(1 1) rotate(0) translate(4 318)">
<title>stxxl::simple_vector&lt; ValueType &gt;</title>
<!-- Node1 -->
<g id="node1" class="node"><title>Node1</title>
<polygon fill="#bfbfbf" stroke="black" points="140.5,-150 140.5,-184 247.5,-184 247.5,-150 140.5,-150"/>
<text text-anchor="start" x="148.5" y="-171" font-family="Helvetica,sans-Serif" font-size="10.00">stxxl::simple_vector</text>
<text text-anchor="middle" x="194" y="-158" font-family="Helvetica,sans-Serif" font-size="10.00">&lt; ValueType &gt;</text>
</g>
<!-- Node3 -->
<g id="node5" class="node"><title>Node3</title>
<a xlink:href="classstxxl_1_1simple__vector.html" target="_top" xlink:title="stxxl::simple_vector\l\&lt; bid_type \&gt;">
<polygon fill="none" stroke="black" points="396.5,-280 396.5,-314 503.5,-314 503.5,-280 396.5,-280"/>
<text text-anchor="start" x="404.5" y="-301" font-family="Helvetica,sans-Serif" font-size="10.00">stxxl::simple_vector</text>
<text text-anchor="middle" x="450" y="-288" font-family="Helvetica,sans-Serif" font-size="10.00">&lt; bid_type &gt;</text>
</a>
</g>
<!-- Node1&#45;&gt;Node3 -->
<g id="edge4" class="edge"><title>Node1&#45;&gt;Node3</title>
<path fill="none" stroke="orange" stroke-dasharray="5,2" d="M211.056,-192.233C224.147,-209.746 243.718,-232.306 266,-246 305.962,-270.559 357.962,-283.55 396.484,-290.258"/>
<polygon fill="orange" stroke="orange" points="213.868,-190.147 205.167,-184.101 208.198,-194.253 213.868,-190.147"/>
<text text-anchor="middle" x="319" y="-289" font-family="Helvetica,sans-Serif" font-size="10.00"> &lt; bid_type &gt;</text>
</g>
<!-- Node4 -->
<g id="node7" class="node"><title>Node4</title>
<a xlink:href="classstxxl_1_1simple__vector.html" target="_top" xlink:title="stxxl::simple_vector\l\&lt; stxxl::typed_block \&gt;">
<polygon fill="none" stroke="black" points="392,-228 392,-262 508,-262 508,-228 392,-228"/>
<text text-anchor="start" x="400" y="-249" font-family="Helvetica,sans-Serif" font-size="10.00">stxxl::simple_vector</text>
<text text-anchor="middle" x="450" y="-236" font-family="Helvetica,sans-Serif" font-size="10.00">&lt; stxxl::typed_block &gt;</text>
</a>
</g>
<!-- Node1&#45;&gt;Node4 -->
<g id="edge6" class="edge"><title>Node1&#45;&gt;Node4</title>
<path fill="none" stroke="orange" stroke-dasharray="5,2" d="M235.535,-188.394C245.362,-192.954 255.919,-197.457 266,-201 307.213,-215.484 355.267,-226.794 391.93,-234.319"/>
<polygon fill="orange" stroke="orange" points="236.91,-185.172 226.376,-184.033 233.901,-191.492 236.91,-185.172"/>
<text text-anchor="middle" x="319" y="-233" font-family="Helvetica,sans-Serif" font-size="10.00"> &lt; stxxl::typed_block &gt;</text>
</g>
<!-- Node5 -->
<g id="node9" class="node"><title>Node5</title>
<a xlink:href="classstxxl_1_1simple__vector.html" target="_top" xlink:title="stxxl::simple_vector\l\&lt; list_type::iterator \&gt;">
<polygon fill="none" stroke="black" points="394,-176 394,-210 506,-210 506,-176 394,-176"/>
<text text-anchor="start" x="402" y="-197" font-family="Helvetica,sans-Serif" font-size="10.00">stxxl::simple_vector</text>
<text text-anchor="middle" x="450" y="-184" font-family="Helvetica,sans-Serif" font-size="10.00">&lt; list_type::iterator &gt;</text>
</a>
</g>
<!-- Node1&#45;&gt;Node5 -->
<g id="edge8" class="edge"><title>Node1&#45;&gt;Node5</title>
<path fill="none" stroke="orange" stroke-dasharray="5,2" d="M257.73,-173.473C299.492,-177.714 353.58,-183.207 393.745,-187.287"/>
<polygon fill="orange" stroke="orange" points="257.968,-169.979 247.666,-172.45 257.261,-176.943 257.968,-169.979"/>
<text text-anchor="middle" x="319" y="-188" font-family="Helvetica,sans-Serif" font-size="10.00"> &lt; list_type::iterator &gt;</text>
</g>
<!-- Node6 -->
<g id="node11" class="node"><title>Node6</title>
<a xlink:href="classstxxl_1_1simple__vector.html" target="_top" xlink:title="stxxl::simple_vector\l\&lt; int_type \&gt;">
<polygon fill="none" stroke="black" points="396.5,-124 396.5,-158 503.5,-158 503.5,-124 396.5,-124"/>
<text text-anchor="start" x="404.5" y="-145" font-family="Helvetica,sans-Serif" font-size="10.00">stxxl::simple_vector</text>
<text text-anchor="middle" x="450" y="-132" font-family="Helvetica,sans-Serif" font-size="10.00">&lt; int_type &gt;</text>
</a>
</g>
<!-- Node1&#45;&gt;Node6 -->
<g id="edge10" class="edge"><title>Node1&#45;&gt;Node6</title>
<path fill="none" stroke="orange" stroke-dasharray="5,2" d="M257.854,-157.956C260.605,-157.622 263.329,-157.301 266,-157 309.811,-152.056 359.641,-147.807 396.385,-144.933"/>
<polygon fill="orange" stroke="orange" points="257.31,-154.497 247.825,-159.217 258.184,-161.442 257.31,-154.497"/>
<text text-anchor="middle" x="319" y="-161" font-family="Helvetica,sans-Serif" font-size="10.00"> &lt; int_type &gt;</text>
</g>
<!-- Node7 -->
<g id="node13" class="node"><title>Node7</title>
<a xlink:href="classstxxl_1_1simple__vector.html" target="_top" xlink:title="stxxl::simple_vector\l\&lt; stxxl::counting_ptr \&gt;">
<polygon fill="none" stroke="black" points="390.5,-72 390.5,-106 509.5,-106 509.5,-72 390.5,-72"/>
<text text-anchor="start" x="398.5" y="-93" font-family="Helvetica,sans-Serif" font-size="10.00">stxxl::simple_vector</text>
<text text-anchor="middle" x="450" y="-80" font-family="Helvetica,sans-Serif" font-size="10.00">&lt; stxxl::counting_ptr &gt;</text>
</a>
</g>
<!-- Node1&#45;&gt;Node7 -->
<g id="edge12" class="edge"><title>Node1&#45;&gt;Node7</title>
<path fill="none" stroke="orange" stroke-dasharray="5,2" d="M233.041,-145.359C243.527,-140.138 255.01,-134.937 266,-131 306.408,-116.523 353.643,-105.864 390.136,-98.9067"/>
<polygon fill="orange" stroke="orange" points="231.431,-142.251 224.122,-149.92 234.619,-148.483 231.431,-142.251"/>
<text text-anchor="middle" x="319" y="-135" font-family="Helvetica,sans-Serif" font-size="10.00"> &lt; stxxl::counting_ptr &gt;</text>
</g>
<!-- Node8 -->
<g id="node15" class="node"><title>Node8</title>
<a xlink:href="classstxxl_1_1simple__vector.html" target="_top" xlink:title="stxxl::simple_vector\l\&lt; BID\&lt; BlockSize \&gt; \&gt;">
<polygon fill="none" stroke="black" points="392,-20 392,-54 508,-54 508,-20 392,-20"/>
<text text-anchor="start" x="400" y="-41" font-family="Helvetica,sans-Serif" font-size="10.00">stxxl::simple_vector</text>
<text text-anchor="middle" x="450" y="-28" font-family="Helvetica,sans-Serif" font-size="10.00">&lt; BID&lt; BlockSize &gt; &gt;</text>
</a>
</g>
<!-- Node1&#45;&gt;Node8 -->
<g id="edge14" class="edge"><title>Node1&#45;&gt;Node8</title>
<path fill="none" stroke="orange" stroke-dasharray="5,2" d="M210.73,-141.733C223.778,-123.933 243.435,-100.886 266,-87 304.342,-63.4051 353.875,-50.7685 391.888,-44.106"/>
<polygon fill="orange" stroke="orange" points="207.806,-139.806 204.872,-149.986 213.514,-143.857 207.806,-139.806"/>
<text text-anchor="middle" x="319" y="-91" font-family="Helvetica,sans-Serif" font-size="10.00"> &lt; BID&lt; BlockSize &gt; &gt;</text>
</g>
<!-- Node2 -->
<g id="node2" class="node"><title>Node2</title>
<a xlink:href="classstxxl_1_1noncopyable.html" target="_top" xlink:title="stxxl::noncopyable">
<polygon fill="none" stroke="black" points="0,-156.5 0,-177.5 102,-177.5 102,-156.5 0,-156.5"/>
<text text-anchor="middle" x="51" y="-164.5" font-family="Helvetica,sans-Serif" font-size="10.00">stxxl::noncopyable</text>
</a>
</g>
<!-- Node2&#45;&gt;Node1 -->
<g id="edge2" class="edge"><title>Node2&#45;&gt;Node1</title>
<path fill="none" stroke="#8b1a1a" d="M112.51,-167C121.737,-167 131.19,-167 140.239,-167"/>
<polygon fill="#8b1a1a" stroke="#8b1a1a" points="112.222,-163.5 102.222,-167 112.222,-170.5 112.222,-163.5"/>
</g>
<!-- Node9 -->
<g id="node17" class="node"><title>Node9</title>
<a xlink:href="classstxxl_1_1BIDArray.html" target="_top" xlink:title="stxxl::BIDArray\&lt; block\l_type::raw_size \&gt;">
<polygon fill="none" stroke="black" points="852,-16 852,-50 970,-50 970,-16 852,-16"/>
<text text-anchor="start" x="860" y="-37" font-family="Helvetica,sans-Serif" font-size="10.00">stxxl::BIDArray&lt; block</text>
<text text-anchor="middle" x="911" y="-24" font-family="Helvetica,sans-Serif" font-size="10.00">_type::raw_size &gt;</text>
</a>
</g>
<!-- Node8&#45;&gt;Node9 -->
<g id="edge16" class="edge"><title>Node8&#45;&gt;Node9</title>
<path fill="none" stroke="midnightblue" d="M518.256,-37.5701C595.044,-38.0374 723.486,-38.296 834,-36 839.751,-35.8805 845.743,-35.7165 851.732,-35.5264"/>
<polygon fill="midnightblue" stroke="midnightblue" points="518.254,-34.0701 508.232,-37.5061 518.21,-41.07 518.254,-34.0701"/>
</g>
<!-- Node10 -->
<g id="node19" class="node"><title>Node10</title>
<a xlink:href="classstxxl_1_1BIDArray.html" target="_top" xlink:title="stxxl::BIDArray\&lt; BlockSize \&gt;">
<polygon fill="none" stroke="black" points="548.5,-0.5 548.5,-21.5 697.5,-21.5 697.5,-0.5 548.5,-0.5"/>
<text text-anchor="middle" x="623" y="-8.5" font-family="Helvetica,sans-Serif" font-size="10.00">stxxl::BIDArray&lt; BlockSize &gt;</text>
</a>
</g>
<!-- Node8&#45;&gt;Node10 -->
<g id="edge18" class="edge"><title>Node8&#45;&gt;Node10</title>
<path fill="none" stroke="midnightblue" d="M518.056,-26.7719C529.558,-25.0432 541.517,-23.246 553.066,-21.5103"/>
<polygon fill="midnightblue" stroke="midnightblue" points="517.457,-23.3226 508.088,-28.27 518.497,-30.2449 517.457,-23.3226"/>
</g>
<!-- Node10&#45;&gt;Node9 -->
<g id="edge20" class="edge"><title>Node10&#45;&gt;Node9</title>
<path fill="none" stroke="orange" stroke-dasharray="5,2" d="M707.94,-14.4277C746.469,-16.3432 792.583,-19.138 834,-23 839.771,-23.5382 845.777,-24.1777 851.774,-24.8693"/>
<polygon fill="orange" stroke="orange" points="707.96,-10.9246 697.802,-13.9352 707.62,-17.9164 707.96,-10.9246"/>
<text text-anchor="middle" x="775" y="-27" font-family="Helvetica,sans-Serif" font-size="10.00"> &lt; block_type::raw_size &gt;</text>
</g>
</g>
</svg>
