<?xml version="1.0" encoding="UTF-8" standalone="no"?>
<!DOCTYPE svg PUBLIC "-//W3C//DTD SVG 1.1//EN"
 "http://www.w3.org/Graphics/SVG/1.1/DTD/svg11.dtd">
<!-- Generated by graphviz version 2.26.3 (20100126.1600)
 -->
<!-- Title: stxxl::wincall_file Pages: 1 -->
<svg width="252pt" height="204pt"
 viewBox="0.00 0.00 252.00 204.00" xmlns="http://www.w3.org/2000/svg" xmlns:xlink="http://www.w3.org/1999/xlink">
<g id="graph1" class="graph" transform="scale(1 1) rotate(0) translate(4 200)">
<title>stxxl::wincall_file</title>
<!-- Node1 -->
<g id="node1" class="node"><title>Node1</title>
<polygon fill="#bfbfbf" stroke="black" points="71.5,-0.5 71.5,-21.5 164.5,-21.5 164.5,-0.5 71.5,-0.5"/>
<text text-anchor="middle" x="118" y="-8.5" font-family="Helvetica,sans-Serif" font-size="10.00">stxxl::wincall_file</text>
</g>
<!-- Node2 -->
<g id="node2" class="node"><title>Node2</title>
<a xlink:href="classstxxl_1_1wfs__file__base.html" target="_top" xlink:title="Base for Windows file system implementations. ">
<polygon fill="none" stroke="black" points="0,-58.5 0,-79.5 106,-79.5 106,-58.5 0,-58.5"/>
<text text-anchor="middle" x="53" y="-66.5" font-family="Helvetica,sans-Serif" font-size="10.00">stxxl::wfs_file_base</text>
</a>
</g>
<!-- Node2&#45;&gt;Node1 -->
<g id="edge2" class="edge"><title>Node2&#45;&gt;Node1</title>
<path fill="none" stroke="midnightblue" d="M72.3983,-51.6908C83.3711,-41.8996 96.7372,-29.973 106.154,-21.5707"/>
<polygon fill="midnightblue" stroke="midnightblue" points="70.0532,-49.0925 64.922,-58.3619 74.7137,-54.3155 70.0532,-49.0925"/>
</g>
<!-- Node3 -->
<g id="node4" class="node"><title>Node3</title>
<a xlink:href="classstxxl_1_1file.html" target="_top" xlink:title="Defines interface of file. ">
<polygon fill="none" stroke="black" points="90,-116.5 90,-137.5 146,-137.5 146,-116.5 90,-116.5"/>
<text text-anchor="middle" x="118" y="-124.5" font-family="Helvetica,sans-Serif" font-size="10.00">stxxl::file</text>
</a>
</g>
<!-- Node3&#45;&gt;Node2 -->
<g id="edge4" class="edge"><title>Node3&#45;&gt;Node2</title>
<path fill="none" stroke="midnightblue" d="M98.6017,-109.691C87.6289,-99.8996 74.2628,-87.973 64.8464,-79.5707"/>
<polygon fill="midnightblue" stroke="midnightblue" points="96.2863,-112.315 106.078,-116.362 100.947,-107.092 96.2863,-112.315"/>
</g>
<!-- Node5 -->
<g id="node8" class="node"><title>Node5</title>
<a xlink:href="classstxxl_1_1disk__queued__file.html" target="_top" xlink:title="Implementation of some file methods based on serving_request. ">
<polygon fill="none" stroke="black" points="123.5,-58.5 123.5,-79.5 244.5,-79.5 244.5,-58.5 123.5,-58.5"/>
<text text-anchor="middle" x="184" y="-66.5" font-family="Helvetica,sans-Serif" font-size="10.00">stxxl::disk_queued_file</text>
</a>
</g>
<!-- Node3&#45;&gt;Node5 -->
<g id="edge10" class="edge"><title>Node3&#45;&gt;Node5</title>
<path fill="none" stroke="midnightblue" d="M137.697,-109.691C148.838,-99.8996 162.41,-87.973 171.971,-79.5707"/>
<polygon fill="midnightblue" stroke="midnightblue" points="135.307,-107.132 130.105,-116.362 139.928,-112.39 135.307,-107.132"/>
</g>
<!-- Node4 -->
<g id="node6" class="node"><title>Node4</title>
<a xlink:href="classstxxl_1_1noncopyable.html" target="_top" xlink:title="stxxl::noncopyable">
<polygon fill="none" stroke="black" points="67,-174.5 67,-195.5 169,-195.5 169,-174.5 67,-174.5"/>
<text text-anchor="middle" x="118" y="-182.5" font-family="Helvetica,sans-Serif" font-size="10.00">stxxl::noncopyable</text>
</a>
</g>
<!-- Node4&#45;&gt;Node3 -->
<g id="edge6" class="edge"><title>Node4&#45;&gt;Node3</title>
<path fill="none" stroke="#8b1a1a" d="M118,-164.191C118,-155.168 118,-144.994 118,-137.571"/>
<polygon fill="#8b1a1a" stroke="#8b1a1a" points="114.5,-164.362 118,-174.362 121.5,-164.362 114.5,-164.362"/>
</g>
<!-- Node5&#45;&gt;Node1 -->
<g id="edge8" class="edge"><title>Node5&#45;&gt;Node1</title>
<path fill="none" stroke="midnightblue" d="M164.303,-51.6908C153.162,-41.8996 139.59,-29.973 130.029,-21.5707"/>
<polygon fill="midnightblue" stroke="midnightblue" points="162.072,-54.3898 171.895,-58.3619 166.693,-49.1316 162.072,-54.3898"/>
</g>
</g>
</svg>
