<?xml version="1.0" encoding="UTF-8" standalone="no"?>
<!DOCTYPE svg PUBLIC "-//W3C//DTD SVG 1.1//EN"
 "http://www.w3.org/Graphics/SVG/1.1/DTD/svg11.dtd">
<!-- Generated by graphviz version 2.26.3 (20100126.1600)
 -->
<!-- Title: stxxl::typed_block&lt; RawSize, Type, NRef, MetaInfoType &gt; Pages: 1 -->
<svg width="3368pt" height="326pt"
 viewBox="0.00 0.00 3368.00 326.39" xmlns="http://www.w3.org/2000/svg" xmlns:xlink="http://www.w3.org/1999/xlink">
<g id="graph1" class="graph" transform="scale(1 1) rotate(0) translate(4 322.39)">
<title>stxxl::typed_block&lt; RawSize, Type, NRef, MetaInfoType &gt;</title>
<!-- Node1 -->
<g id="node1" class="node"><title>Node1</title>
<polygon fill="#bfbfbf" stroke="black" points="3232,-75.5 3232,-122.5 3360,-122.5 3360,-75.5 3232,-75.5"/>
<text text-anchor="start" x="3240" y="-109.5" font-family="Helvetica,sans-Serif" font-size="10.00">stxxl::typed_block</text>
<text text-anchor="start" x="3240" y="-96.5" font-family="Helvetica,sans-Serif" font-size="10.00">&lt; RawSize, Type, NRef,</text>
<text text-anchor="middle" x="3296" y="-83.5" font-family="Helvetica,sans-Serif" font-size="10.00"> MetaInfoType &gt;</text>
</g>
<!-- Node2 -->
<g id="node2" class="node"><title>Node2</title>
<a xlink:href="classstxxl_1_1mng__local_1_1expand__struct.html" target="_top" xlink:title="stxxl::mng_local::expand\l_struct\&lt; mng_local::block\l_w_info\&lt; Type, RawSize, NRef,\l MetaInfoType \&gt;, RawSize \&gt;">
<polygon fill="none" stroke="black" points="3030,-69 3030,-129 3194,-129 3194,-69 3030,-69"/>
<text text-anchor="start" x="3038" y="-116" font-family="Helvetica,sans-Serif" font-size="10.00">stxxl::mng_local::expand</text>
<text text-anchor="start" x="3038" y="-103" font-family="Helvetica,sans-Serif" font-size="10.00">_struct&lt; mng_local::block</text>
<text text-anchor="start" x="3038" y="-90" font-family="Helvetica,sans-Serif" font-size="10.00">_w_info&lt; Type, RawSize, NRef,</text>
<text text-anchor="middle" x="3112" y="-77" font-family="Helvetica,sans-Serif" font-size="10.00"> MetaInfoType &gt;, RawSize &gt;</text>
</a>
</g>
<!-- Node2&#45;&gt;Node1 -->
<g id="edge2" class="edge"><title>Node2&#45;&gt;Node1</title>
<path fill="none" stroke="midnightblue" d="M3204.16,-99C3213.5,-99 3222.84,-99 3231.78,-99"/>
<polygon fill="midnightblue" stroke="midnightblue" points="3204.04,-95.5001 3194.04,-99 3204.04,-102.5 3204.04,-95.5001"/>
</g>
<!-- Node3 -->
<g id="node4" class="node"><title>Node3</title>
<a xlink:href="classstxxl_1_1mng__local_1_1add__filler.html" target="_top" xlink:title="stxxl::mng_local::add\l_filler\&lt; mng_local::block\l_w_info\&lt; Type, RawSize,\l NRef, MetaInfoType \&gt;, RawSize\l&#45;sizeof(mng_local::block_w_info\l\&lt; Type, RawSize, NRef, MetaInfoType \&gt;)\&gt;">
<polygon fill="none" stroke="black" points="2482.5,-94 2482.5,-180 2697.5,-180 2697.5,-94 2482.5,-94"/>
<text text-anchor="start" x="2490.5" y="-167" font-family="Helvetica,sans-Serif" font-size="10.00">stxxl::mng_local::add</text>
<text text-anchor="start" x="2490.5" y="-154" font-family="Helvetica,sans-Serif" font-size="10.00">_filler&lt; mng_local::block</text>
<text text-anchor="start" x="2490.5" y="-141" font-family="Helvetica,sans-Serif" font-size="10.00">_w_info&lt; Type, RawSize,</text>
<text text-anchor="start" x="2490.5" y="-128" font-family="Helvetica,sans-Serif" font-size="10.00"> NRef, MetaInfoType &gt;, RawSize</text>
<text text-anchor="start" x="2490.5" y="-115" font-family="Helvetica,sans-Serif" font-size="10.00">&#45;sizeof(mng_local::block_w_info</text>
<text text-anchor="middle" x="2590" y="-102" font-family="Helvetica,sans-Serif" font-size="10.00">&lt; Type, RawSize, NRef, MetaInfoType &gt;)&gt;</text>
</a>
</g>
<!-- Node3&#45;&gt;Node2 -->
<g id="edge4" class="edge"><title>Node3&#45;&gt;Node2</title>
<path fill="none" stroke="midnightblue" d="M2707.69,-137.5C2792.58,-136.586 2909.74,-132.707 3012,-120 3017.81,-119.278 3023.78,-118.393 3029.78,-117.4"/>
<polygon fill="midnightblue" stroke="midnightblue" points="2707.47,-134.001 2697.5,-137.597 2707.54,-141.001 2707.47,-134.001"/>
</g>
<!-- Node4 -->
<g id="node6" class="node"><title>Node4</title>
<a xlink:href="classstxxl_1_1mng__local_1_1block__w__info.html" target="_top" xlink:title="stxxl::mng_local::block\l_w_info\&lt; Type, RawSize,\l NRef, MetaInfoType \&gt;">
<polygon fill="none" stroke="black" points="2157.5,-197.5 2157.5,-244.5 2292.5,-244.5 2292.5,-197.5 2157.5,-197.5"/>
<text text-anchor="start" x="2165.5" y="-231.5" font-family="Helvetica,sans-Serif" font-size="10.00">stxxl::mng_local::block</text>
<text text-anchor="start" x="2165.5" y="-218.5" font-family="Helvetica,sans-Serif" font-size="10.00">_w_info&lt; Type, RawSize,</text>
<text text-anchor="middle" x="2225" y="-205.5" font-family="Helvetica,sans-Serif" font-size="10.00"> NRef, MetaInfoType &gt;</text>
</a>
</g>
<!-- Node4&#45;&gt;Node3 -->
<g id="edge6" class="edge"><title>Node4&#45;&gt;Node3</title>
<path fill="none" stroke="midnightblue" d="M2302.69,-210.866C2349.76,-203.938 2410.79,-193.552 2464,-180 2470.05,-178.46 2476.22,-176.766 2482.43,-174.968"/>
<polygon fill="midnightblue" stroke="midnightblue" points="2301.96,-207.435 2292.56,-212.335 2302.96,-214.363 2301.96,-207.435"/>
</g>
<!-- Node5 -->
<g id="node8" class="node"><title>Node5</title>
<a xlink:href="classstxxl_1_1mng__local_1_1block__w__bids.html" target="_top" xlink:title="stxxl::mng_local::block\l_w_bids\&lt; Type,((RawSize\l&#45;sizeof(BID\&lt; RawSize \&gt;)*NBids\l&#45;sizeof(MetaInfoType))/sizeof\l(Type)), RawSize, NBids \&gt;">
<polygon fill="none" stroke="black" points="1608,-193.5 1608,-266.5 1772,-266.5 1772,-193.5 1608,-193.5"/>
<text text-anchor="start" x="1616" y="-253.5" font-family="Helvetica,sans-Serif" font-size="10.00">stxxl::mng_local::block</text>
<text text-anchor="start" x="1616" y="-240.5" font-family="Helvetica,sans-Serif" font-size="10.00">_w_bids&lt; Type,((RawSize</text>
<text text-anchor="start" x="1616" y="-227.5" font-family="Helvetica,sans-Serif" font-size="10.00">&#45;sizeof(BID&lt; RawSize &gt;)*NBids</text>
<text text-anchor="start" x="1616" y="-214.5" font-family="Helvetica,sans-Serif" font-size="10.00">&#45;sizeof(MetaInfoType))/sizeof</text>
<text text-anchor="middle" x="1690" y="-201.5" font-family="Helvetica,sans-Serif" font-size="10.00">(Type)), RawSize, NBids &gt;</text>
</a>
</g>
<!-- Node5&#45;&gt;Node4 -->
<g id="edge8" class="edge"><title>Node5&#45;&gt;Node4</title>
<path fill="none" stroke="midnightblue" d="M1782.31,-240.003C1872.34,-247.993 2013.01,-255.779 2134,-242 2141.57,-241.138 2149.43,-239.884 2157.22,-238.412"/>
<polygon fill="midnightblue" stroke="midnightblue" points="1782.41,-236.498 1772.13,-239.08 1781.77,-243.469 1782.41,-236.498"/>
</g>
<!-- Node16 -->
<g id="node34" class="node"><title>Node16</title>
<a xlink:href="classstxxl_1_1mng__local_1_1block__w__info.html" target="_top" xlink:title="Contains per block information for stxxl::typed_block , not intended for direct use. ">
<polygon fill="none" stroke="black" points="1864.5,-180.5 1864.5,-227.5 1999.5,-227.5 1999.5,-180.5 1864.5,-180.5"/>
<text text-anchor="start" x="1872.5" y="-214.5" font-family="Helvetica,sans-Serif" font-size="10.00">stxxl::mng_local::block</text>
<text text-anchor="start" x="1872.5" y="-201.5" font-family="Helvetica,sans-Serif" font-size="10.00">_w_info&lt; Type, RawSize,</text>
<text text-anchor="middle" x="1932" y="-188.5" font-family="Helvetica,sans-Serif" font-size="10.00"> NBids, MetaInfoType &gt;</text>
</a>
</g>
<!-- Node5&#45;&gt;Node16 -->
<g id="edge40" class="edge"><title>Node5&#45;&gt;Node16</title>
<path fill="none" stroke="midnightblue" d="M1782.23,-220.091C1809.56,-217.155 1838.96,-213.996 1864.42,-211.26"/>
<polygon fill="midnightblue" stroke="midnightblue" points="1781.84,-216.613 1772.27,-221.161 1782.58,-223.573 1781.84,-216.613"/>
</g>
<!-- Node6 -->
<g id="node10" class="node"><title>Node6</title>
<a xlink:href="classstxxl_1_1mng__local_1_1element__block.html" target="_top" xlink:title="Contains data elements for stxxl::typed_block , not intended for direct use. ">
<polygon fill="none" stroke="black" points="1108,-273 1108,-307 1240,-307 1240,-273 1108,-273"/>
<text text-anchor="start" x="1116" y="-294" font-family="Helvetica,sans-Serif" font-size="10.00">stxxl::mng_local::element</text>
<text text-anchor="middle" x="1174" y="-281" font-family="Helvetica,sans-Serif" font-size="10.00">_block&lt; Type, Size &gt;</text>
</a>
</g>
<!-- Node6&#45;&gt;Node5 -->
<g id="edge10" class="edge"><title>Node6&#45;&gt;Node5</title>
<path fill="none" stroke="midnightblue" d="M1250.25,-304.602C1335.15,-317.794 1475.49,-330.38 1590,-296 1610.12,-289.958 1629.93,-278.411 1646.54,-266.642"/>
<polygon fill="midnightblue" stroke="midnightblue" points="1250.6,-301.115 1240.18,-302.994 1249.5,-308.027 1250.6,-301.115"/>
</g>
<!-- Node15 -->
<g id="node30" class="node"><title>Node15</title>
<a xlink:href="classstxxl_1_1mng__local_1_1block__w__bids.html" target="_top" xlink:title="Contains BID references for stxxl::typed_block , not intended for direct use. ">
<polygon fill="none" stroke="black" points="1292,-228.5 1292,-275.5 1454,-275.5 1454,-228.5 1292,-228.5"/>
<text text-anchor="start" x="1300" y="-262.5" font-family="Helvetica,sans-Serif" font-size="10.00">stxxl::mng_local::block</text>
<text text-anchor="start" x="1300" y="-249.5" font-family="Helvetica,sans-Serif" font-size="10.00">_w_bids&lt; Type, Size, RawSize,</text>
<text text-anchor="middle" x="1373" y="-236.5" font-family="Helvetica,sans-Serif" font-size="10.00"> NBids &gt;</text>
</a>
</g>
<!-- Node6&#45;&gt;Node15 -->
<g id="edge34" class="edge"><title>Node6&#45;&gt;Node15</title>
<path fill="none" stroke="midnightblue" d="M1250.48,-275.397C1264.01,-272.813 1278.14,-270.114 1291.79,-267.507"/>
<polygon fill="midnightblue" stroke="midnightblue" points="1249.43,-272.033 1240.26,-277.347 1250.74,-278.909 1249.43,-272.033"/>
</g>
<!-- Node7 -->
<g id="node12" class="node"><title>Node7</title>
<a xlink:href="structstxxl_1_1BID.html" target="_top" xlink:title="stxxl::BID\&lt; raw_size \&gt;">
<polygon fill="none" stroke="black" points="1114.5,-216.5 1114.5,-237.5 1233.5,-237.5 1233.5,-216.5 1114.5,-216.5"/>
<text text-anchor="middle" x="1174" y="-224.5" font-family="Helvetica,sans-Serif" font-size="10.00">stxxl::BID&lt; raw_size &gt;</text>
</a>
</g>
<!-- Node7&#45;&gt;Node5 -->
<g id="edge12" class="edge"><title>Node7&#45;&gt;Node5</title>
<path fill="none" stroke="#9a32cd" stroke-dasharray="5,2" d="M1231.98,-214.585C1251.01,-211.074 1272.32,-207.737 1292,-206 1401.12,-196.366 1527.42,-207.814 1607.96,-217.961"/>
<polygon fill="#9a32cd" stroke="#9a32cd" points="1231.14,-211.183 1221.97,-216.487 1232.45,-218.06 1231.14,-211.183"/>
<text text-anchor="middle" x="1373" y="-210" font-family="Helvetica,sans-Serif" font-size="10.00"> ref</text>
</g>
<!-- Node7&#45;&gt;Node15 -->
<g id="edge36" class="edge"><title>Node7&#45;&gt;Node15</title>
<path fill="none" stroke="#9a32cd" stroke-dasharray="5,2" d="M1243.77,-235.765C1259.35,-237.722 1276,-239.814 1291.99,-241.823"/>
<polygon fill="#9a32cd" stroke="#9a32cd" points="1244.06,-232.275 1233.71,-234.501 1243.19,-239.22 1244.06,-232.275"/>
<text text-anchor="middle" x="1266" y="-243" font-family="Helvetica,sans-Serif" font-size="10.00"> ref</text>
</g>
<!-- Node8 -->
<g id="node14" class="node"><title>Node8</title>
<a xlink:href="classstxxl_1_1file.html" target="_top" xlink:title="Defines interface of file. ">
<polygon fill="none" stroke="black" points="778,-212.5 778,-233.5 834,-233.5 834,-212.5 778,-212.5"/>
<text text-anchor="middle" x="806" y="-220.5" font-family="Helvetica,sans-Serif" font-size="10.00">stxxl::file</text>
</a>
</g>
<!-- Node8&#45;&gt;Node7 -->
<g id="edge14" class="edge"><title>Node8&#45;&gt;Node7</title>
<path fill="none" stroke="#9a32cd" stroke-dasharray="5,2" d="M844.252,-227.476C846.872,-227.684 849.473,-227.863 852,-228 957.623,-233.724 984.224,-228.63 1090,-228 1097.88,-227.953 1106.17,-227.882 1114.35,-227.798"/>
<polygon fill="#9a32cd" stroke="#9a32cd" points="844.458,-223.98 834.18,-226.551 843.818,-230.951 844.458,-223.98"/>
<text text-anchor="middle" x="959" y="-234" font-family="Helvetica,sans-Serif" font-size="10.00"> storage</text>
</g>
<!-- Node14 -->
<g id="node27" class="node"><title>Node14</title>
<a xlink:href="structstxxl_1_1BID.html" target="_top" xlink:title="Block identifier class. ">
<polygon fill="none" stroke="black" points="910,-184.5 910,-205.5 1008,-205.5 1008,-184.5 910,-184.5"/>
<text text-anchor="middle" x="959" y="-192.5" font-family="Helvetica,sans-Serif" font-size="10.00">stxxl::BID&lt; Size &gt;</text>
</a>
</g>
<!-- Node8&#45;&gt;Node14 -->
<g id="edge30" class="edge"><title>Node8&#45;&gt;Node14</title>
<path fill="none" stroke="#9a32cd" stroke-dasharray="5,2" d="M843.987,-216.048C863.862,-212.411 888.431,-207.915 909.751,-204.013"/>
<polygon fill="#9a32cd" stroke="#9a32cd" points="843.269,-212.621 834.063,-217.864 844.529,-219.507 843.269,-212.621"/>
<text text-anchor="middle" x="872" y="-217" font-family="Helvetica,sans-Serif" font-size="10.00"> storage</text>
</g>
<!-- Node9 -->
<g id="node16" class="node"><title>Node9</title>
<a xlink:href="classstxxl_1_1noncopyable.html" target="_top" xlink:title="stxxl::noncopyable">
<polygon fill="none" stroke="black" points="12,-214.5 12,-235.5 114,-235.5 114,-214.5 12,-214.5"/>
<text text-anchor="middle" x="63" y="-222.5" font-family="Helvetica,sans-Serif" font-size="10.00">stxxl::noncopyable</text>
</a>
</g>
<!-- Node9&#45;&gt;Node8 -->
<g id="edge16" class="edge"><title>Node9&#45;&gt;Node8</title>
<path fill="none" stroke="#8b1a1a" d="M124.365,-225.33C245.758,-225.891 525.149,-226.721 760,-224 765.751,-223.933 771.906,-223.825 777.782,-223.704"/>
<polygon fill="#8b1a1a" stroke="#8b1a1a" points="124.174,-221.829 114.158,-225.282 124.141,-228.829 124.174,-221.829"/>
</g>
<!-- Node11 -->
<g id="node20" class="node"><title>Node11</title>
<a xlink:href="classstxxl_1_1mutex.html" target="_top" xlink:title="stxxl::mutex">
<polygon fill="none" stroke="black" points="290,-188.5 290,-209.5 360,-209.5 360,-188.5 290,-188.5"/>
<text text-anchor="middle" x="325" y="-196.5" font-family="Helvetica,sans-Serif" font-size="10.00">stxxl::mutex</text>
</a>
</g>
<!-- Node9&#45;&gt;Node11 -->
<g id="edge22" class="edge"><title>Node9&#45;&gt;Node11</title>
<path fill="none" stroke="#8b1a1a" d="M124.156,-218.931C175.679,-213.818 247.573,-206.684 289.908,-202.482"/>
<polygon fill="#8b1a1a" stroke="#8b1a1a" points="123.744,-215.455 114.138,-219.925 124.435,-222.421 123.744,-215.455"/>
</g>
<!-- Node10 -->
<g id="node18" class="node"><title>Node10</title>
<a xlink:href="classstxxl_1_1atomic__counted__object.html" target="_top" xlink:title="Provides reference counting abilities for use with counting_ptr with mutex locking. ">
<polygon fill="none" stroke="black" points="554,-176 554,-210 670,-210 670,-176 554,-176"/>
<text text-anchor="start" x="562" y="-197" font-family="Helvetica,sans-Serif" font-size="10.00">stxxl::atomic_counted</text>
<text text-anchor="middle" x="612" y="-184" font-family="Helvetica,sans-Serif" font-size="10.00">_object</text>
</a>
</g>
<!-- Node10&#45;&gt;Node8 -->
<g id="edge18" class="edge"><title>Node10&#45;&gt;Node8</title>
<path fill="none" stroke="#9a32cd" stroke-dasharray="5,2" d="M680.441,-199.386C705.575,-202.239 734.188,-206.087 760,-211 765.838,-212.111 772.03,-213.547 777.916,-215.036"/>
<polygon fill="#9a32cd" stroke="#9a32cd" points="680.591,-195.881 670.267,-198.262 679.823,-202.839 680.591,-195.881"/>
<text text-anchor="middle" x="724" y="-215" font-family="Helvetica,sans-Serif" font-size="10.00"> m_request_ref</text>
</g>
<!-- Node11&#45;&gt;Node10 -->
<g id="edge20" class="edge"><title>Node11&#45;&gt;Node10</title>
<path fill="none" stroke="#9a32cd" stroke-dasharray="5,2" d="M370.306,-198.053C419.938,-197.015 499.686,-195.348 553.889,-194.215"/>
<polygon fill="#9a32cd" stroke="#9a32cd" points="370.116,-194.556 360.192,-198.264 370.263,-201.554 370.116,-194.556"/>
<text text-anchor="middle" x="471" y="-201" font-family="Helvetica,sans-Serif" font-size="10.00"> m_reference_count_mutex</text>
</g>
<!-- Node12 -->
<g id="node23" class="node"><title>Node12</title>
<a xlink:href="structstxxl_1_1choose__int__types.html" target="_top" xlink:title="stxxl::choose_int_types\l\&lt; my_pointer_size \&gt;">
<polygon fill="none" stroke="black" points="262.5,-136 262.5,-170 387.5,-170 387.5,-136 262.5,-136"/>
<text text-anchor="start" x="270.5" y="-157" font-family="Helvetica,sans-Serif" font-size="10.00">stxxl::choose_int_types</text>
<text text-anchor="middle" x="325" y="-144" font-family="Helvetica,sans-Serif" font-size="10.00">&lt; my_pointer_size &gt;</text>
</a>
</g>
<!-- Node12&#45;&gt;Node10 -->
<g id="edge24" class="edge"><title>Node12&#45;&gt;Node10</title>
<path fill="none" stroke="#9a32cd" stroke-dasharray="5,2" d="M397.655,-159.558C438.446,-163.667 490.202,-169.591 536,-177 541.724,-177.926 547.669,-178.992 553.599,-180.125"/>
<polygon fill="#9a32cd" stroke="#9a32cd" points="397.828,-156.058 387.531,-158.553 397.137,-163.024 397.828,-156.058"/>
<text text-anchor="middle" x="471" y="-181" font-family="Helvetica,sans-Serif" font-size="10.00"> m_reference_count</text>
</g>
<!-- Node13 -->
<g id="node25" class="node"><title>Node13</title>
<a xlink:href="structstxxl_1_1choose__int__types.html" target="_top" xlink:title="stxxl::choose_int_types\l\&lt; PtrSize \&gt;">
<polygon fill="none" stroke="black" points="0.5,-136 0.5,-170 125.5,-170 125.5,-136 0.5,-136"/>
<text text-anchor="start" x="8.5" y="-157" font-family="Helvetica,sans-Serif" font-size="10.00">stxxl::choose_int_types</text>
<text text-anchor="middle" x="63" y="-144" font-family="Helvetica,sans-Serif" font-size="10.00">&lt; PtrSize &gt;</text>
</a>
</g>
<!-- Node13&#45;&gt;Node12 -->
<g id="edge26" class="edge"><title>Node13&#45;&gt;Node12</title>
<path fill="none" stroke="orange" stroke-dasharray="5,2" d="M135.913,-153C175.636,-153 224.295,-153 262.303,-153"/>
<polygon fill="orange" stroke="orange" points="135.756,-149.5 125.756,-153 135.755,-156.5 135.756,-149.5"/>
<text text-anchor="middle" x="194" y="-157" font-family="Helvetica,sans-Serif" font-size="10.00"> &lt; my_pointer_size &gt;</text>
</g>
<!-- Node14&#45;&gt;Node7 -->
<g id="edge28" class="edge"><title>Node14&#45;&gt;Node7</title>
<path fill="none" stroke="orange" stroke-dasharray="5,2" d="M1017.97,-203.776C1047.97,-208.241 1084.35,-213.656 1114.43,-218.134"/>
<polygon fill="orange" stroke="orange" points="1018.46,-200.312 1008.06,-202.301 1017.43,-207.235 1018.46,-200.312"/>
<text text-anchor="middle" x="1058" y="-217" font-family="Helvetica,sans-Serif" font-size="10.00"> &lt; raw_size &gt;</text>
</g>
<!-- Node15&#45;&gt;Node5 -->
<g id="edge32" class="edge"><title>Node15&#45;&gt;Node5</title>
<path fill="none" stroke="orange" stroke-dasharray="5,2" d="M1464.24,-231.931C1466.85,-231.586 1469.44,-231.275 1472,-231 1516.78,-226.199 1567.04,-225.645 1608,-226.428"/>
<polygon fill="orange" stroke="orange" points="1463.49,-228.503 1454.1,-233.407 1464.49,-235.43 1463.49,-228.503"/>
<text text-anchor="start" x="1472" y="-287" font-family="Helvetica,sans-Serif" font-size="10.00"> &lt; Type,((RawSize&#45;sizeof</text>
<text text-anchor="start" x="1472" y="-274" font-family="Helvetica,sans-Serif" font-size="10.00">(BID&lt; RawSize &gt;)*NBids</text>
<text text-anchor="start" x="1472" y="-261" font-family="Helvetica,sans-Serif" font-size="10.00">&#45;sizeof(MetaInfoType))</text>
<text text-anchor="start" x="1472" y="-248" font-family="Helvetica,sans-Serif" font-size="10.00">/sizeof(Type)), RawSize,</text>
<text text-anchor="middle" x="1531" y="-235" font-family="Helvetica,sans-Serif" font-size="10.00"> NBids &gt;</text>
</g>
<!-- Node16&#45;&gt;Node4 -->
<g id="edge38" class="edge"><title>Node16&#45;&gt;Node4</title>
<path fill="none" stroke="orange" stroke-dasharray="5,2" d="M2009.81,-208.515C2055.79,-211.182 2113.44,-214.527 2157.5,-217.084"/>
<polygon fill="orange" stroke="orange" points="2009.77,-205.007 1999.59,-207.921 2009.37,-211.995 2009.77,-205.007"/>
<text text-anchor="start" x="2018.5" y="-232" font-family="Helvetica,sans-Serif" font-size="10.00"> &lt; Type, RawSize, NRef,</text>
<text text-anchor="middle" x="2076" y="-219" font-family="Helvetica,sans-Serif" font-size="10.00"> MetaInfoType &gt;</text>
</g>
<!-- Node17 -->
<g id="node37" class="node"><title>Node17</title>
<a xlink:href="classstxxl_1_1mng__local_1_1filler__struct.html" target="_top" xlink:title="stxxl::mng_local::filler\l_struct\&lt; FillSize \&gt;">
<polygon fill="none" stroke="black" points="1875,-39 1875,-73 1989,-73 1989,-39 1875,-39"/>
<text text-anchor="start" x="1883" y="-60" font-family="Helvetica,sans-Serif" font-size="10.00">stxxl::mng_local::filler</text>
<text text-anchor="middle" x="1932" y="-47" font-family="Helvetica,sans-Serif" font-size="10.00">_struct&lt; FillSize &gt;</text>
</a>
</g>
<!-- Node17&#45;&gt;Node3 -->
<g id="edge42" class="edge"><title>Node17&#45;&gt;Node3</title>
<path fill="none" stroke="#9a32cd" stroke-dasharray="5,2" d="M1992.86,-76.1439C2067.85,-99.8139 2199.65,-137.677 2316,-152 2381.28,-160.037 2398.34,-155.895 2464,-152 2469.94,-151.648 2476.02,-151.203 2482.16,-150.689"/>
<polygon fill="#9a32cd" stroke="#9a32cd" points="1993.69,-72.7382 1983.1,-73.045 1991.57,-79.4094 1993.69,-72.7382"/>
<text text-anchor="middle" x="2225" y="-152" font-family="Helvetica,sans-Serif" font-size="10.00"> filler</text>
</g>
<!-- Node19 -->
<g id="node41" class="node"><title>Node19</title>
<a xlink:href="classstxxl_1_1mng__local_1_1add__filler.html" target="_top" xlink:title="Contains per block filler for stxxl::typed_block , not intended for direct use. ">
<polygon fill="none" stroke="black" points="2152,-39 2152,-73 2298,-73 2298,-39 2152,-39"/>
<text text-anchor="start" x="2160" y="-60" font-family="Helvetica,sans-Serif" font-size="10.00">stxxl::mng_local::add</text>
<text text-anchor="middle" x="2225" y="-47" font-family="Helvetica,sans-Serif" font-size="10.00">_filler&lt; BaseType, FillSize &gt;</text>
</a>
</g>
<!-- Node17&#45;&gt;Node19 -->
<g id="edge48" class="edge"><title>Node17&#45;&gt;Node19</title>
<path fill="none" stroke="#9a32cd" stroke-dasharray="5,2" d="M1999.27,-56C2044.84,-56 2105.04,-56 2151.81,-56"/>
<polygon fill="#9a32cd" stroke="#9a32cd" points="1999.19,-52.5001 1989.19,-56 1999.19,-59.5001 1999.19,-52.5001"/>
<text text-anchor="middle" x="2076" y="-60" font-family="Helvetica,sans-Serif" font-size="10.00"> filler</text>
</g>
<!-- Node21 -->
<g id="node46" class="node"><title>Node21</title>
<a xlink:href="classstxxl_1_1mng__local_1_1add__filler.html" target="_top" xlink:title="stxxl::mng_local::add\l_filler\&lt; Type, RawSize\l&#45;sizeof(Type)\&gt;">
<polygon fill="none" stroke="black" points="2529,-0.5 2529,-47.5 2651,-47.5 2651,-0.5 2529,-0.5"/>
<text text-anchor="start" x="2537" y="-34.5" font-family="Helvetica,sans-Serif" font-size="10.00">stxxl::mng_local::add</text>
<text text-anchor="start" x="2537" y="-21.5" font-family="Helvetica,sans-Serif" font-size="10.00">_filler&lt; Type, RawSize</text>
<text text-anchor="middle" x="2590" y="-8.5" font-family="Helvetica,sans-Serif" font-size="10.00">&#45;sizeof(Type)&gt;</text>
</a>
</g>
<!-- Node17&#45;&gt;Node21 -->
<g id="edge54" class="edge"><title>Node17&#45;&gt;Node21</title>
<path fill="none" stroke="#9a32cd" stroke-dasharray="5,2" d="M1998.99,-41.5214C2042.39,-32.7865 2100.27,-22.3448 2152,-17 2289.95,-2.74568 2325.47,-5.41831 2464,-12 2485.18,-13.0063 2508.3,-14.9591 2528.88,-17.0018"/>
<polygon fill="#9a32cd" stroke="#9a32cd" points="1998.22,-38.1058 1989.12,-43.5283 1999.62,-44.9654 1998.22,-38.1058"/>
<text text-anchor="middle" x="2225" y="-21" font-family="Helvetica,sans-Serif" font-size="10.00"> filler</text>
</g>
<!-- Node18 -->
<g id="node39" class="node"><title>Node18</title>
<a xlink:href="classstxxl_1_1mng__local_1_1filler__struct.html" target="_top" xlink:title="stxxl::mng_local::filler\l_struct\&lt; Bytes \&gt;">
<polygon fill="none" stroke="black" points="1633,-39 1633,-73 1747,-73 1747,-39 1633,-39"/>
<text text-anchor="start" x="1641" y="-60" font-family="Helvetica,sans-Serif" font-size="10.00">stxxl::mng_local::filler</text>
<text text-anchor="middle" x="1690" y="-47" font-family="Helvetica,sans-Serif" font-size="10.00">_struct&lt; Bytes &gt;</text>
</a>
</g>
<!-- Node18&#45;&gt;Node17 -->
<g id="edge44" class="edge"><title>Node18&#45;&gt;Node17</title>
<path fill="none" stroke="orange" stroke-dasharray="5,2" d="M1757.24,-56C1794.24,-56 1839.66,-56 1874.92,-56"/>
<polygon fill="orange" stroke="orange" points="1757.04,-52.5001 1747.04,-56 1757.04,-59.5001 1757.04,-52.5001"/>
<text text-anchor="middle" x="1818" y="-60" font-family="Helvetica,sans-Serif" font-size="10.00"> &lt; FillSize &gt;</text>
</g>
<!-- Node19&#45;&gt;Node3 -->
<g id="edge46" class="edge"><title>Node19&#45;&gt;Node3</title>
<path fill="none" stroke="orange" stroke-dasharray="5,2" d="M2308.2,-54.4152C2354.77,-55.4664 2413.46,-60.0448 2464,-74 2481.33,-78.7845 2499.09,-86.0149 2515.61,-93.8922"/>
<polygon fill="orange" stroke="orange" points="2308.21,-50.9149 2298.15,-54.2384 2308.09,-57.9138 2308.21,-50.9149"/>
<text text-anchor="start" x="2316" y="-143" font-family="Helvetica,sans-Serif" font-size="10.00"> &lt; mng_local::block</text>
<text text-anchor="start" x="2316" y="-130" font-family="Helvetica,sans-Serif" font-size="10.00">_w_info&lt; Type, RawSize,</text>
<text text-anchor="start" x="2316" y="-117" font-family="Helvetica,sans-Serif" font-size="10.00"> NRef, MetaInfoType &gt;,</text>
<text text-anchor="start" x="2316" y="-104" font-family="Helvetica,sans-Serif" font-size="10.00"> RawSize&#45;sizeof(mng_local</text>
<text text-anchor="start" x="2316" y="-91" font-family="Helvetica,sans-Serif" font-size="10.00">::block_w_info&lt; Type, RawSize,</text>
<text text-anchor="middle" x="2390" y="-78" font-family="Helvetica,sans-Serif" font-size="10.00"> NRef, MetaInfoType &gt;)&gt;</text>
</g>
<!-- Node19&#45;&gt;Node21 -->
<g id="edge56" class="edge"><title>Node19&#45;&gt;Node21</title>
<path fill="none" stroke="orange" stroke-dasharray="5,2" d="M2275.61,-35.5231C2288.56,-31.1847 2302.62,-27.2415 2316,-25 2388.37,-12.8761 2473,-14.9994 2528.85,-18.6025"/>
<polygon fill="orange" stroke="orange" points="2274.23,-32.2959 2265.94,-38.896 2276.54,-38.9048 2274.23,-32.2959"/>
<text text-anchor="start" x="2333" y="-42" font-family="Helvetica,sans-Serif" font-size="10.00"> &lt; Type, RawSize&#45;sizeof</text>
<text text-anchor="middle" x="2390" y="-29" font-family="Helvetica,sans-Serif" font-size="10.00">(Type)&gt;</text>
</g>
<!-- Node20 -->
<g id="node44" class="node"><title>Node20</title>
<a xlink:href="classstxxl_1_1mng__local_1_1expand__struct.html" target="_top" xlink:title="Helper to compute the size of the filler , not intended for direct use. ">
<polygon fill="none" stroke="black" points="2736.5,-41 2736.5,-75 2873.5,-75 2873.5,-41 2736.5,-41"/>
<text text-anchor="start" x="2744.5" y="-62" font-family="Helvetica,sans-Serif" font-size="10.00">stxxl::mng_local::expand</text>
<text text-anchor="middle" x="2805" y="-49" font-family="Helvetica,sans-Serif" font-size="10.00">_struct&lt; Type, RawSize &gt;</text>
</a>
</g>
<!-- Node20&#45;&gt;Node2 -->
<g id="edge50" class="edge"><title>Node20&#45;&gt;Node2</title>
<path fill="none" stroke="orange" stroke-dasharray="5,2" d="M2883.74,-57.1531C2922.61,-57.9122 2970.04,-60.6055 3012,-68 3017.82,-69.0252 3023.77,-70.2898 3029.73,-71.7164"/>
<polygon fill="orange" stroke="orange" points="2883.59,-53.6504 2873.54,-56.994 2883.48,-60.6496 2883.59,-53.6504"/>
<text text-anchor="start" x="2892.5" y="-111" font-family="Helvetica,sans-Serif" font-size="10.00"> &lt; mng_local::block</text>
<text text-anchor="start" x="2892.5" y="-98" font-family="Helvetica,sans-Serif" font-size="10.00">_w_info&lt; Type, RawSize,</text>
<text text-anchor="start" x="2892.5" y="-85" font-family="Helvetica,sans-Serif" font-size="10.00"> NRef, MetaInfoType &gt;,</text>
<text text-anchor="middle" x="2952" y="-72" font-family="Helvetica,sans-Serif" font-size="10.00"> RawSize &gt;</text>
</g>
<!-- Node21&#45;&gt;Node20 -->
<g id="edge52" class="edge"><title>Node21&#45;&gt;Node20</title>
<path fill="none" stroke="midnightblue" d="M2661.2,-35.2597C2685.36,-39.0796 2712.28,-43.3376 2736.24,-47.1268"/>
<polygon fill="midnightblue" stroke="midnightblue" points="2661.46,-31.7571 2651.04,-33.6521 2660.37,-38.6712 2661.46,-31.7571"/>
</g>
</g>
</svg>
