<?xml version="1.0" encoding="UTF-8" standalone="no"?>
<!DOCTYPE svg PUBLIC "-//W3C//DTD SVG 1.1//EN"
 "http://www.w3.org/Graphics/SVG/1.1/DTD/svg11.dtd">
<!-- Generated by graphviz version 2.26.3 (20100126.1600)
 -->
<!-- Title: stxxl::completion_handler Pages: 1 -->
<svg width="164pt" height="226pt"
 viewBox="0.00 0.00 164.00 226.00" xmlns="http://www.w3.org/2000/svg" xmlns:xlink="http://www.w3.org/1999/xlink">
<g id="graph1" class="graph" transform="scale(1 1) rotate(0) translate(4 222)">
<title>stxxl::completion_handler</title>
<!-- Node1 -->
<g id="node1" class="node"><title>Node1</title>
<polygon fill="#bfbfbf" stroke="black" points="-0.5,-0.5 -0.5,-21.5 134.5,-21.5 134.5,-0.5 -0.5,-0.5"/>
<text text-anchor="middle" x="67" y="-8.5" font-family="Helvetica,sans-Serif" font-size="10.00">stxxl::completion_handler</text>
</g>
<!-- Node2 -->
<g id="node2" class="node"><title>Node2</title>
<a xlink:href="structstxxl_1_1compat__unique__ptr.html" target="_top" xlink:title="stxxl::compat_unique\l_ptr\&lt; stxxl::completion\l_handler_impl \&gt;">
<polygon fill="none" stroke="black" points="6.5,-72.5 6.5,-119.5 127.5,-119.5 127.5,-72.5 6.5,-72.5"/>
<text text-anchor="start" x="14.5" y="-106.5" font-family="Helvetica,sans-Serif" font-size="10.00">stxxl::compat_unique</text>
<text text-anchor="start" x="14.5" y="-93.5" font-family="Helvetica,sans-Serif" font-size="10.00">_ptr&lt; stxxl::completion</text>
<text text-anchor="middle" x="67" y="-80.5" font-family="Helvetica,sans-Serif" font-size="10.00">_handler_impl &gt;</text>
</a>
</g>
<!-- Node2&#45;&gt;Node1 -->
<g id="edge2" class="edge"><title>Node2&#45;&gt;Node1</title>
<path fill="none" stroke="#9a32cd" stroke-dasharray="5,2" d="M67,-62.2079C67,-47.8439 67,-32.0932 67,-21.9057"/>
<polygon fill="#9a32cd" stroke="#9a32cd" points="63.5001,-62.3227 67,-72.3228 70.5001,-62.3228 63.5001,-62.3227"/>
<text text-anchor="middle" x="82.5" y="-44.5" font-family="Helvetica,sans-Serif" font-size="10.00"> m_ptr</text>
</g>
<!-- Node3 -->
<g id="node4" class="node"><title>Node3</title>
<a xlink:href="structstxxl_1_1compat__unique__ptr.html" target="_top" xlink:title="stxxl::compat_unique\l_ptr\&lt; Type \&gt;">
<polygon fill="none" stroke="black" points="10.5,-183 10.5,-217 123.5,-217 123.5,-183 10.5,-183"/>
<text text-anchor="start" x="18.5" y="-204" font-family="Helvetica,sans-Serif" font-size="10.00">stxxl::compat_unique</text>
<text text-anchor="middle" x="67" y="-191" font-family="Helvetica,sans-Serif" font-size="10.00">_ptr&lt; Type &gt;</text>
</a>
</g>
<!-- Node3&#45;&gt;Node2 -->
<g id="edge4" class="edge"><title>Node3&#45;&gt;Node2</title>
<path fill="none" stroke="orange" stroke-dasharray="5,2" d="M67,-172.745C67,-156.315 67,-135.586 67,-119.815"/>
<polygon fill="orange" stroke="orange" points="63.5001,-172.826 67,-182.827 70.5001,-172.827 63.5001,-172.826"/>
<text text-anchor="start" x="67" y="-155" font-family="Helvetica,sans-Serif" font-size="10.00"> &lt; stxxl::completion</text>
<text text-anchor="middle" x="111.5" y="-142" font-family="Helvetica,sans-Serif" font-size="10.00">_handler_impl &gt;</text>
</g>
</g>
</svg>
