<?xml version="1.0" encoding="UTF-8" standalone="no"?>
<!DOCTYPE svg PUBLIC "-//W3C//DTD SVG 1.1//EN"
 "http://www.w3.org/Graphics/SVG/1.1/DTD/svg11.dtd">
<!-- Generated by graphviz version 2.26.3 (20100126.1600)
 -->
<!-- Title: stxxl::linuxaio_queue Pages: 1 -->
<svg width="1050pt" height="277pt"
 viewBox="0.00 0.00 1050.00 277.33" xmlns="http://www.w3.org/2000/svg" xmlns:xlink="http://www.w3.org/1999/xlink">
<g id="graph1" class="graph" transform="scale(1 1) rotate(0) translate(4 273.333)">
<title>stxxl::linuxaio_queue</title>
<!-- Node1 -->
<g id="node1" class="node"><title>Node1</title>
<polygon fill="#bfbfbf" stroke="black" points="930,-158.833 930,-179.833 1042,-179.833 1042,-158.833 930,-158.833"/>
<text text-anchor="middle" x="986" y="-166.833" font-family="Helvetica,sans-Serif" font-size="10.00">stxxl::linuxaio_queue</text>
</g>
<!-- Node2 -->
<g id="node2" class="node"><title>Node2</title>
<a xlink:href="classstxxl_1_1request__queue__impl__worker.html" target="_top" xlink:title="Implementation of request queue worker threads. Worker threads can be started by start_thread and sto...">
<polygon fill="none" stroke="black" points="568,-235.333 568,-269.333 680,-269.333 680,-235.333 568,-235.333"/>
<text text-anchor="start" x="576" y="-256.333" font-family="Helvetica,sans-Serif" font-size="10.00">stxxl::request_queue</text>
<text text-anchor="middle" x="624" y="-243.333" font-family="Helvetica,sans-Serif" font-size="10.00">_impl_worker</text>
</a>
</g>
<!-- Node2&#45;&gt;Node1 -->
<g id="edge2" class="edge"><title>Node2&#45;&gt;Node1</title>
<path fill="none" stroke="midnightblue" d="M690.178,-252.691C749.852,-251.073 839.159,-243.772 912,-217.333 935.751,-208.712 959.626,-191.264 973.599,-179.949"/>
<polygon fill="midnightblue" stroke="midnightblue" points="690.047,-249.193 680.128,-252.917 690.205,-256.191 690.047,-249.193"/>
</g>
<!-- Node3 -->
<g id="node4" class="node"><title>Node3</title>
<a xlink:href="classstxxl_1_1request__queue.html" target="_top" xlink:title="Interface of a request_queue to which requests can be added and canceled. ">
<polygon fill="none" stroke="black" points="286,-244.833 286,-265.833 398,-265.833 398,-244.833 286,-244.833"/>
<text text-anchor="middle" x="342" y="-252.833" font-family="Helvetica,sans-Serif" font-size="10.00">stxxl::request_queue</text>
</a>
</g>
<!-- Node3&#45;&gt;Node2 -->
<g id="edge4" class="edge"><title>Node3&#45;&gt;Node2</title>
<path fill="none" stroke="midnightblue" d="M408.121,-254.63C456.55,-254.114 521.581,-253.422 567.573,-252.933"/>
<polygon fill="midnightblue" stroke="midnightblue" points="408.013,-251.13 398.051,-254.737 408.088,-258.13 408.013,-251.13"/>
</g>
<!-- Node4 -->
<g id="node6" class="node"><title>Node4</title>
<a xlink:href="classstxxl_1_1noncopyable.html" target="_top" xlink:title="stxxl::noncopyable">
<polygon fill="none" stroke="black" points="0,-94.8329 0,-115.833 102,-115.833 102,-94.8329 0,-94.8329"/>
<text text-anchor="middle" x="51" y="-102.833" font-family="Helvetica,sans-Serif" font-size="10.00">stxxl::noncopyable</text>
</a>
</g>
<!-- Node4&#45;&gt;Node3 -->
<g id="edge6" class="edge"><title>Node4&#45;&gt;Node3</title>
<path fill="none" stroke="#8b1a1a" d="M55.1655,-125.686C62.5046,-155.782 80.8309,-211.389 120,-237.333 168.84,-269.683 237.623,-270.048 285.64,-264.955"/>
<polygon fill="#8b1a1a" stroke="#8b1a1a" points="58.5615,-124.834 52.9405,-115.854 51.7341,-126.379 58.5615,-124.834"/>
</g>
<!-- Node5 -->
<g id="node8" class="node"><title>Node5</title>
<a xlink:href="classstxxl_1_1mutex.html" target="_top" xlink:title="stxxl::mutex">
<polygon fill="none" stroke="black" points="169,-126.833 169,-147.833 239,-147.833 239,-126.833 169,-126.833"/>
<text text-anchor="middle" x="204" y="-134.833" font-family="Helvetica,sans-Serif" font-size="10.00">stxxl::mutex</text>
</a>
</g>
<!-- Node4&#45;&gt;Node5 -->
<g id="edge10" class="edge"><title>Node4&#45;&gt;Node5</title>
<path fill="none" stroke="#8b1a1a" d="M111.476,-117.981C130.812,-122.026 151.579,-126.369 168.529,-129.914"/>
<polygon fill="#8b1a1a" stroke="#8b1a1a" points="112.027,-114.521 101.522,-115.9 110.594,-121.373 112.027,-114.521"/>
</g>
<!-- Node6 -->
<g id="node11" class="node"><title>Node6</title>
<a xlink:href="classstxxl_1_1state.html" target="_top" xlink:title="stxxl::state\&lt; thread\l_state \&gt;">
<polygon fill="none" stroke="black" points="699.5,-29.3329 699.5,-63.3329 804.5,-63.3329 804.5,-29.3329 699.5,-29.3329"/>
<text text-anchor="start" x="707.5" y="-50.3329" font-family="Helvetica,sans-Serif" font-size="10.00">stxxl::state&lt; thread</text>
<text text-anchor="middle" x="752" y="-37.3329" font-family="Helvetica,sans-Serif" font-size="10.00">_state &gt;</text>
</a>
</g>
<!-- Node4&#45;&gt;Node6 -->
<g id="edge14" class="edge"><title>Node4&#45;&gt;Node6</title>
<path fill="none" stroke="#8b1a1a" d="M61.0554,-85.6287C74.9566,-60.8354 102.625,-19.4327 140,-2.33293 149.404,1.96944 351.427,-0.458907 550,-5.33293 607.803,-6.75171 623.992,4.03064 680,-10.3329 695.568,-14.3254 711.678,-21.9956 724.703,-29.2336"/>
<polygon fill="#8b1a1a" stroke="#8b1a1a" points="57.9221,-84.0652 56.2568,-94.5284 64.0835,-87.3874 57.9221,-84.0652"/>
</g>
<!-- Node7 -->
<g id="node15" class="node"><title>Node7</title>
<a xlink:href="classstxxl_1_1condition__variable.html" target="_top" xlink:title="stxxl::condition_variable">
<polygon fill="none" stroke="black" points="140,-35.8329 140,-56.8329 268,-56.8329 268,-35.8329 140,-35.8329"/>
<text text-anchor="middle" x="204" y="-43.8329" font-family="Helvetica,sans-Serif" font-size="10.00">stxxl::condition_variable</text>
</a>
</g>
<!-- Node4&#45;&gt;Node7 -->
<g id="edge20" class="edge"><title>Node4&#45;&gt;Node7</title>
<path fill="none" stroke="#8b1a1a" d="M87.9614,-91.0799C115.286,-80.5427 151.893,-66.4265 176.626,-56.8889"/>
<polygon fill="#8b1a1a" stroke="#8b1a1a" points="86.4243,-87.9213 78.3533,-94.7849 88.943,-94.4525 86.4243,-87.9213"/>
</g>
<!-- Node8 -->
<g id="node18" class="node"><title>Node8</title>
<a xlink:href="classstxxl_1_1state.html" target="_top" xlink:title="stxxl::state\&lt; ValueType \&gt;">
<polygon fill="none" stroke="black" points="416,-35.8329 416,-56.8329 550,-56.8329 550,-35.8329 416,-35.8329"/>
<text text-anchor="middle" x="483" y="-43.8329" font-family="Helvetica,sans-Serif" font-size="10.00">stxxl::state&lt; ValueType &gt;</text>
</a>
</g>
<!-- Node4&#45;&gt;Node8 -->
<g id="edge24" class="edge"><title>Node4&#45;&gt;Node8</title>
<path fill="none" stroke="#8b1a1a" d="M64.9781,-86.6829C80.7418,-67.3654 108.344,-38.3558 140,-26.3329 247.225,14.391 283.93,-20.3482 398,-32.3329 406.627,-33.2393 415.708,-34.4536 424.594,-35.7898"/>
<polygon fill="#8b1a1a" stroke="#8b1a1a" points="62.0372,-84.7601 58.5964,-94.7806 67.5351,-89.0929 62.0372,-84.7601"/>
</g>
<!-- Node9 -->
<g id="node23" class="node"><title>Node9</title>
<a xlink:href="classstxxl_1_1semaphore.html" target="_top" xlink:title="stxxl::semaphore">
<polygon fill="none" stroke="black" points="435.5,-149.833 435.5,-170.833 530.5,-170.833 530.5,-149.833 435.5,-149.833"/>
<text text-anchor="middle" x="483" y="-157.833" font-family="Helvetica,sans-Serif" font-size="10.00">stxxl::semaphore</text>
</a>
</g>
<!-- Node4&#45;&gt;Node9 -->
<g id="edge32" class="edge"><title>Node4&#45;&gt;Node9</title>
<path fill="none" stroke="#8b1a1a" d="M73.1641,-121.912C90.4351,-133.9 115.518,-149.34 140,-157.333 240.908,-190.278 367.586,-178.799 435.226,-168.787"/>
<polygon fill="#8b1a1a" stroke="#8b1a1a" points="75.0642,-118.969 64.8891,-116.016 71.002,-124.669 75.0642,-118.969"/>
</g>
<!-- Node5&#45;&gt;Node1 -->
<g id="edge8" class="edge"><title>Node5&#45;&gt;Node1</title>
<path fill="none" stroke="#9a32cd" stroke-dasharray="5,2" d="M232.564,-152.385C247.96,-159.755 267.539,-167.963 286,-172.333 398.508,-198.966 690.56,-195.727 806,-189.333 847.597,-187.029 894.355,-181.752 929.787,-177.197"/>
<polygon fill="#9a32cd" stroke="#9a32cd" points="234.083,-149.232 223.566,-147.947 230.986,-155.51 234.083,-149.232"/>
<text text-anchor="middle" x="624" y="-210.333" font-family="Helvetica,sans-Serif" font-size="10.00"> posted_mtx</text>
<text text-anchor="middle" x="624" y="-197.333" font-family="Helvetica,sans-Serif" font-size="10.00">waiting_mtx</text>
</g>
<!-- Node5&#45;&gt;Node6 -->
<g id="edge16" class="edge"><title>Node5&#45;&gt;Node6</title>
<path fill="none" stroke="#9a32cd" stroke-dasharray="5,2" d="M249.294,-135.828C288.731,-134.097 347.36,-130.513 398,-123.333 524.87,-105.345 554.971,-91.3907 680,-63.3329 686.266,-61.9268 692.831,-60.4214 699.339,-58.9092"/>
<polygon fill="#9a32cd" stroke="#9a32cd" points="249.046,-132.335 239.201,-136.248 249.338,-139.329 249.046,-132.335"/>
<text text-anchor="middle" x="483" y="-124.333" font-family="Helvetica,sans-Serif" font-size="10.00"> m_mutex</text>
</g>
<!-- Node5&#45;&gt;Node8 -->
<g id="edge26" class="edge"><title>Node5&#45;&gt;Node8</title>
<path fill="none" stroke="#9a32cd" stroke-dasharray="5,2" d="M221.279,-119.704C236.789,-105.027 260.916,-84.8834 286,-74.3329 308.847,-64.7231 367.981,-57.0888 415.541,-52.2349"/>
<polygon fill="#9a32cd" stroke="#9a32cd" points="218.715,-117.316 213.995,-126.802 223.6,-122.33 218.715,-117.316"/>
<text text-anchor="middle" x="342" y="-78.3329" font-family="Helvetica,sans-Serif" font-size="10.00"> m_mutex</text>
</g>
<!-- Node5&#45;&gt;Node9 -->
<g id="edge34" class="edge"><title>Node5&#45;&gt;Node9</title>
<path fill="none" stroke="#9a32cd" stroke-dasharray="5,2" d="M249.246,-144C261.179,-145.595 274.058,-147.17 286,-148.333 336.814,-153.282 395.213,-156.535 435.154,-158.39"/>
<polygon fill="#9a32cd" stroke="#9a32cd" points="249.433,-140.493 239.05,-142.604 248.483,-147.428 249.433,-140.493"/>
<text text-anchor="middle" x="342" y="-159.333" font-family="Helvetica,sans-Serif" font-size="10.00"> m_mutex</text>
</g>
<!-- Node6&#45;&gt;Node1 -->
<g id="edge12" class="edge"><title>Node6&#45;&gt;Node1</title>
<path fill="none" stroke="#9a32cd" stroke-dasharray="5,2" d="M814.48,-58.5384C845.303,-66.3344 882.169,-78.4214 912,-96.3329 940.158,-113.24 965.681,-143.004 978.084,-158.798"/>
<polygon fill="#9a32cd" stroke="#9a32cd" points="815.246,-55.1226 804.701,-56.156 813.589,-61.9237 815.246,-55.1226"/>
<text text-anchor="middle" x="868" y="-113.333" font-family="Helvetica,sans-Serif" font-size="10.00"> wait_thread_state</text>
<text text-anchor="middle" x="868" y="-100.333" font-family="Helvetica,sans-Serif" font-size="10.00">post_thread_state</text>
</g>
<!-- Node7&#45;&gt;Node6 -->
<g id="edge18" class="edge"><title>Node7&#45;&gt;Node6</title>
<path fill="none" stroke="#9a32cd" stroke-dasharray="5,2" d="M274.875,-34.1234C278.636,-33.5095 282.363,-32.9092 286,-32.3329 402.188,-13.9265 432.749,-3.81852 550,-13.3329 601.002,-17.4715 658.541,-27.3956 699.125,-35.287"/>
<polygon fill="#9a32cd" stroke="#9a32cd" points="274.17,-30.6923 264.873,-35.7731 275.309,-37.599 274.17,-30.6923"/>
<text text-anchor="middle" x="483" y="-17.3329" font-family="Helvetica,sans-Serif" font-size="10.00"> m_cond</text>
</g>
<!-- Node7&#45;&gt;Node8 -->
<g id="edge28" class="edge"><title>Node7&#45;&gt;Node8</title>
<path fill="none" stroke="#9a32cd" stroke-dasharray="5,2" d="M278.393,-38.7568C280.958,-38.597 283.5,-38.4546 286,-38.3329 335.719,-35.9134 348.277,-35.9982 398,-38.3329 403.774,-38.6041 409.762,-38.9782 415.764,-39.4178"/>
<polygon fill="#9a32cd" stroke="#9a32cd" points="278.147,-35.2653 268.415,-39.4518 278.634,-42.2484 278.147,-35.2653"/>
<text text-anchor="middle" x="342" y="-42.3329" font-family="Helvetica,sans-Serif" font-size="10.00"> m_cond</text>
</g>
<!-- Node7&#45;&gt;Node9 -->
<g id="edge36" class="edge"><title>Node7&#45;&gt;Node9</title>
<path fill="none" stroke="#9a32cd" stroke-dasharray="5,2" d="M232.71,-61.6487C248.284,-69.7113 267.982,-79.5178 286,-87.3329 343.22,-112.152 411.895,-136.386 451.192,-149.742"/>
<polygon fill="#9a32cd" stroke="#9a32cd" points="234.082,-58.4167 223.598,-56.8873 230.84,-64.6207 234.082,-58.4167"/>
<text text-anchor="middle" x="342" y="-134.333" font-family="Helvetica,sans-Serif" font-size="10.00"> m_cond</text>
</g>
<!-- Node8&#45;&gt;Node6 -->
<g id="edge22" class="edge"><title>Node8&#45;&gt;Node6</title>
<path fill="none" stroke="orange" stroke-dasharray="5,2" d="M560.383,-46.3329C604.865,-46.3329 659.585,-46.3329 699.145,-46.3329"/>
<polygon fill="orange" stroke="orange" points="560.186,-42.833 550.186,-46.3329 560.186,-49.833 560.186,-42.833"/>
<text text-anchor="middle" x="624" y="-50.3329" font-family="Helvetica,sans-Serif" font-size="10.00"> &lt; thread_state &gt;</text>
</g>
<!-- Node9&#45;&gt;Node1 -->
<g id="edge30" class="edge"><title>Node9&#45;&gt;Node1</title>
<path fill="none" stroke="#9a32cd" stroke-dasharray="5,2" d="M540.633,-155.649C605.266,-151.071 713.2,-145.449 806,-150.333 847.579,-152.521 894.337,-157.534 929.774,-161.862"/>
<polygon fill="#9a32cd" stroke="#9a32cd" points="540.361,-152.16 530.64,-156.373 540.867,-159.141 540.361,-152.16"/>
<text text-anchor="middle" x="752" y="-180.333" font-family="Helvetica,sans-Serif" font-size="10.00"> num_posted_requests</text>
<text text-anchor="middle" x="752" y="-167.333" font-family="Helvetica,sans-Serif" font-size="10.00">num_waiting_requests</text>
<text text-anchor="middle" x="752" y="-154.333" font-family="Helvetica,sans-Serif" font-size="10.00">num_free_events</text>
</g>
</g>
</svg>
