<?xml version="1.0" encoding="UTF-8" standalone="no"?>
<!DOCTYPE svg PUBLIC "-//W3C//DTD SVG 1.1//EN"
 "http://www.w3.org/Graphics/SVG/1.1/DTD/svg11.dtd">
<!-- Generated by graphviz version 2.26.3 (20100126.1600)
 -->
<!-- Title: stxxl::state&lt; ValueType &gt; Pages: 1 -->
<svg width="257pt" height="176pt"
 viewBox="0.00 0.00 257.00 176.00" xmlns="http://www.w3.org/2000/svg" xmlns:xlink="http://www.w3.org/1999/xlink">
<g id="graph1" class="graph" transform="scale(1 1) rotate(0) translate(4 172)">
<title>stxxl::state&lt; ValueType &gt;</title>
<!-- Node1 -->
<g id="node1" class="node"><title>Node1</title>
<polygon fill="#bfbfbf" stroke="black" points="47,-86.5 47,-107.5 181,-107.5 181,-86.5 47,-86.5"/>
<text text-anchor="middle" x="114" y="-94.5" font-family="Helvetica,sans-Serif" font-size="10.00">stxxl::state&lt; ValueType &gt;</text>
</g>
<!-- Node3 -->
<g id="node5" class="node"><title>Node3</title>
<a xlink:href="classstxxl_1_1state.html" target="_top" xlink:title="stxxl::state\&lt; thread\l_state \&gt;">
<polygon fill="none" stroke="black" points="-0.5,-1 -0.5,-35 104.5,-35 104.5,-1 -0.5,-1"/>
<text text-anchor="start" x="7.5" y="-22" font-family="Helvetica,sans-Serif" font-size="10.00">stxxl::state&lt; thread</text>
<text text-anchor="middle" x="52" y="-9" font-family="Helvetica,sans-Serif" font-size="10.00">_state &gt;</text>
</a>
</g>
<!-- Node1&#45;&gt;Node3 -->
<g id="edge4" class="edge"><title>Node1&#45;&gt;Node3</title>
<path fill="none" stroke="orange" stroke-dasharray="5,2" d="M86.398,-80.7248C81.5059,-76.9838 76.7761,-72.7041 73,-68 65.2202,-58.3083 59.8801,-45.3177 56.5321,-35.0069"/>
<polygon fill="orange" stroke="orange" points="84.4439,-83.6292 94.6447,-86.4919 88.4556,-77.8927 84.4439,-83.6292"/>
<text text-anchor="middle" x="114" y="-58.5" font-family="Helvetica,sans-Serif" font-size="10.00"> &lt; thread_state &gt;</text>
</g>
<!-- Node4 -->
<g id="node7" class="node"><title>Node4</title>
<a xlink:href="classstxxl_1_1state.html" target="_top" xlink:title="stxxl::state\&lt; request\l_state \&gt;">
<polygon fill="none" stroke="black" points="122,-1 122,-35 232,-35 232,-1 122,-1"/>
<text text-anchor="start" x="130" y="-22" font-family="Helvetica,sans-Serif" font-size="10.00">stxxl::state&lt; request</text>
<text text-anchor="middle" x="177" y="-9" font-family="Helvetica,sans-Serif" font-size="10.00">_state &gt;</text>
</a>
</g>
<!-- Node1&#45;&gt;Node4 -->
<g id="edge6" class="edge"><title>Node1&#45;&gt;Node4</title>
<path fill="none" stroke="orange" stroke-dasharray="5,2" d="M141.539,-80.6736C146.436,-76.937 151.184,-72.6721 155,-68 162.919,-58.3042 168.52,-45.3137 172.089,-35.0041"/>
<polygon fill="orange" stroke="orange" points="139.481,-77.8416 133.293,-86.4418 143.494,-83.5774 139.481,-77.8416"/>
<text text-anchor="middle" x="206" y="-58.5" font-family="Helvetica,sans-Serif" font-size="10.00"> &lt; request_state &gt;</text>
</g>
<!-- Node2 -->
<g id="node2" class="node"><title>Node2</title>
<a xlink:href="classstxxl_1_1noncopyable.html" target="_top" xlink:title="stxxl::noncopyable">
<polygon fill="none" stroke="black" points="63,-146.5 63,-167.5 165,-167.5 165,-146.5 63,-146.5"/>
<text text-anchor="middle" x="114" y="-154.5" font-family="Helvetica,sans-Serif" font-size="10.00">stxxl::noncopyable</text>
</a>
</g>
<!-- Node2&#45;&gt;Node1 -->
<g id="edge2" class="edge"><title>Node2&#45;&gt;Node1</title>
<path fill="none" stroke="#8b1a1a" d="M114,-136.231C114,-126.592 114,-115.544 114,-107.634"/>
<polygon fill="#8b1a1a" stroke="#8b1a1a" points="110.5,-136.273 114,-146.273 117.5,-136.273 110.5,-136.273"/>
</g>
</g>
</svg>
