<?xml version="1.0" encoding="UTF-8" standalone="no"?>
<!DOCTYPE svg PUBLIC "-//W3C//DTD SVG 1.1//EN"
 "http://www.w3.org/Graphics/SVG/1.1/DTD/svg11.dtd">
<!-- Generated by graphviz version 2.26.3 (20100126.1600)
 -->
<!-- Title: stxxl::stream::runs_merger&lt; RunsType, CompareType, AllocStr &gt; Pages: 1 -->
<svg width="1376pt" height="379pt"
 viewBox="0.00 0.00 1376.00 379.00" xmlns="http://www.w3.org/2000/svg" xmlns:xlink="http://www.w3.org/1999/xlink">
<g id="graph1" class="graph" transform="scale(1 1) rotate(0) translate(4 375)">
<title>stxxl::stream::runs_merger&lt; RunsType, CompareType, AllocStr &gt;</title>
<!-- Node1 -->
<g id="node1" class="node"><title>Node1</title>
<polygon fill="#bfbfbf" stroke="black" points="1206,-262.5 1206,-309.5 1368,-309.5 1368,-262.5 1206,-262.5"/>
<text text-anchor="start" x="1214" y="-296.5" font-family="Helvetica,sans-Serif" font-size="10.00">stxxl::stream::runs</text>
<text text-anchor="start" x="1214" y="-283.5" font-family="Helvetica,sans-Serif" font-size="10.00">_merger&lt; RunsType, Compare</text>
<text text-anchor="middle" x="1287" y="-270.5" font-family="Helvetica,sans-Serif" font-size="10.00">Type, AllocStr &gt;</text>
</g>
<!-- Node2 -->
<g id="node2" class="node"><title>Node2</title>
<a xlink:href="classstxxl_1_1stream_1_1basic__runs__merger.html" target="_top" xlink:title="Merges sorted runs. ">
<polygon fill="none" stroke="black" points="1026,-262.5 1026,-309.5 1168,-309.5 1168,-262.5 1026,-262.5"/>
<text text-anchor="start" x="1034" y="-296.5" font-family="Helvetica,sans-Serif" font-size="10.00">stxxl::stream::basic</text>
<text text-anchor="start" x="1034" y="-283.5" font-family="Helvetica,sans-Serif" font-size="10.00">_runs_merger&lt; RunsType,</text>
<text text-anchor="middle" x="1097" y="-270.5" font-family="Helvetica,sans-Serif" font-size="10.00"> CompareType, AllocStr &gt;</text>
</a>
</g>
<!-- Node2&#45;&gt;Node1 -->
<g id="edge2" class="edge"><title>Node2&#45;&gt;Node1</title>
<path fill="none" stroke="midnightblue" d="M1178.25,-286C1187.39,-286 1196.7,-286 1205.84,-286"/>
<polygon fill="midnightblue" stroke="midnightblue" points="1178.02,-282.5 1168.02,-286 1178.02,-289.5 1178.02,-282.5"/>
</g>
<!-- Node3 -->
<g id="node4" class="node"><title>Node3</title>
<a xlink:href="classstxxl_1_1noncopyable.html" target="_top" xlink:title="stxxl::noncopyable">
<polygon fill="none" stroke="black" points="6,-170.5 6,-191.5 108,-191.5 108,-170.5 6,-170.5"/>
<text text-anchor="middle" x="57" y="-178.5" font-family="Helvetica,sans-Serif" font-size="10.00">stxxl::noncopyable</text>
</a>
</g>
<!-- Node3&#45;&gt;Node2 -->
<g id="edge4" class="edge"><title>Node3&#45;&gt;Node2</title>
<path fill="none" stroke="#8b1a1a" d="M69.1514,-200.396C101.142,-248.791 192.923,-371 304,-371 304,-371 304,-371 836,-371 915.584,-371 1002.4,-334.828 1053.15,-309.677"/>
<polygon fill="#8b1a1a" stroke="#8b1a1a" points="71.9338,-198.254 63.5625,-191.76 66.057,-202.057 71.9338,-198.254"/>
</g>
<!-- Node4 -->
<g id="node6" class="node"><title>Node4</title>
<a xlink:href="classstxxl_1_1block__prefetcher.html" target="_top" xlink:title="Encapsulates asynchronous prefetching engine. ">
<polygon fill="none" stroke="black" points="754.5,-146 754.5,-180 917.5,-180 917.5,-146 754.5,-146"/>
<text text-anchor="start" x="762.5" y="-167" font-family="Helvetica,sans-Serif" font-size="10.00">stxxl::block_prefetcher</text>
<text text-anchor="middle" x="836" y="-154" font-family="Helvetica,sans-Serif" font-size="10.00">&lt; BlockType, BidIteratorType &gt;</text>
</a>
</g>
<!-- Node3&#45;&gt;Node4 -->
<g id="edge8" class="edge"><title>Node3&#45;&gt;Node4</title>
<path fill="none" stroke="#8b1a1a" d="M118.516,-180.713C149.547,-180.547 187.771,-180.308 222,-180 407.784,-178.326 454.333,-181.79 640,-175 677.476,-173.629 718.933,-171.221 754.032,-168.92"/>
<polygon fill="#8b1a1a" stroke="#8b1a1a" points="118.265,-177.214 108.284,-180.767 118.302,-184.214 118.265,-177.214"/>
</g>
<!-- Node7 -->
<g id="node13" class="node"><title>Node7</title>
<a xlink:href="classstxxl_1_1onoff__switch.html" target="_top" xlink:title="stxxl::onoff_switch">
<polygon fill="none" stroke="black" points="521.5,-92.5 521.5,-113.5 622.5,-113.5 622.5,-92.5 521.5,-92.5"/>
<text text-anchor="middle" x="572" y="-100.5" font-family="Helvetica,sans-Serif" font-size="10.00">stxxl::onoff_switch</text>
</a>
</g>
<!-- Node3&#45;&gt;Node7 -->
<g id="edge16" class="edge"><title>Node3&#45;&gt;Node7</title>
<path fill="none" stroke="#8b1a1a" d="M79.3244,-164.299C93.7992,-154.014 113.367,-141.102 132,-132 177.59,-109.73 189.951,-103.335 240,-95 338.531,-78.5901 455.755,-88.0553 521.244,-95.8889"/>
<polygon fill="#8b1a1a" stroke="#8b1a1a" points="77.0733,-161.607 71.0238,-170.305 81.177,-167.278 77.0733,-161.607"/>
</g>
<!-- Node8 -->
<g id="node16" class="node"><title>Node8</title>
<a xlink:href="classstxxl_1_1mutex.html" target="_top" xlink:title="stxxl::mutex">
<polygon fill="none" stroke="black" points="269,-144.5 269,-165.5 339,-165.5 339,-144.5 269,-144.5"/>
<text text-anchor="middle" x="304" y="-152.5" font-family="Helvetica,sans-Serif" font-size="10.00">stxxl::mutex</text>
</a>
</g>
<!-- Node3&#45;&gt;Node8 -->
<g id="edge20" class="edge"><title>Node3&#45;&gt;Node8</title>
<path fill="none" stroke="#8b1a1a" d="M118.331,-174.544C165.739,-169.554 229.682,-162.823 268.816,-158.704"/>
<polygon fill="#8b1a1a" stroke="#8b1a1a" points="117.757,-171.085 108.179,-175.613 118.49,-178.047 117.757,-171.085"/>
</g>
<!-- Node9 -->
<g id="node19" class="node"><title>Node9</title>
<a xlink:href="classstxxl_1_1condition__variable.html" target="_top" xlink:title="stxxl::condition_variable">
<polygon fill="none" stroke="black" points="240,-104.5 240,-125.5 368,-125.5 368,-104.5 240,-104.5"/>
<text text-anchor="middle" x="304" y="-112.5" font-family="Helvetica,sans-Serif" font-size="10.00">stxxl::condition_variable</text>
</a>
</g>
<!-- Node3&#45;&gt;Node9 -->
<g id="edge24" class="edge"><title>Node3&#45;&gt;Node9</title>
<path fill="none" stroke="#8b1a1a" d="M104.163,-167.662C113.386,-165.091 122.99,-162.44 132,-160 176.69,-147.898 228.06,-134.529 262.939,-125.532"/>
<polygon fill="#8b1a1a" stroke="#8b1a1a" points="103.039,-164.342 94.3512,-170.406 104.924,-171.083 103.039,-164.342"/>
</g>
<!-- Node14 -->
<g id="node31" class="node"><title>Node14</title>
<a xlink:href="classstxxl_1_1loser__tree.html" target="_top" xlink:title="stxxl::loser_tree\&lt;\l RunCursorType, RunCursorCmp\lType \&gt;">
<polygon fill="none" stroke="black" points="750.5,-295.5 750.5,-342.5 921.5,-342.5 921.5,-295.5 750.5,-295.5"/>
<text text-anchor="start" x="758.5" y="-329.5" font-family="Helvetica,sans-Serif" font-size="10.00">stxxl::loser_tree&lt;</text>
<text text-anchor="start" x="758.5" y="-316.5" font-family="Helvetica,sans-Serif" font-size="10.00"> RunCursorType, RunCursorCmp</text>
<text text-anchor="middle" x="836" y="-303.5" font-family="Helvetica,sans-Serif" font-size="10.00">Type &gt;</text>
</a>
</g>
<!-- Node3&#45;&gt;Node14 -->
<g id="edge38" class="edge"><title>Node3&#45;&gt;Node14</title>
<path fill="none" stroke="#8b1a1a" d="M77.525,-197.891C109.778,-223.295 175.34,-270.444 240,-290 415.263,-343.007 632.622,-336.643 750.401,-327.623"/>
<polygon fill="#8b1a1a" stroke="#8b1a1a" points="79.6974,-195.147 69.701,-191.636 75.3266,-200.614 79.6974,-195.147"/>
</g>
<!-- Node4&#45;&gt;Node2 -->
<g id="edge6" class="edge"><title>Node4&#45;&gt;Node2</title>
<path fill="none" stroke="#9a32cd" stroke-dasharray="5,2" d="M888.315,-183.96C922.71,-198.117 968.493,-217.682 1008,-237 1024,-244.825 1041.23,-254.103 1056.23,-262.469"/>
<polygon fill="#9a32cd" stroke="#9a32cd" points="889.511,-180.667 878.931,-180.115 886.857,-187.145 889.511,-180.667"/>
<text text-anchor="middle" x="974" y="-241" font-family="Helvetica,sans-Serif" font-size="10.00"> m_prefetcher</text>
</g>
<!-- Node5 -->
<g id="node9" class="node"><title>Node5</title>
<a xlink:href="structstxxl_1_1choose__int__types.html" target="_top" xlink:title="stxxl::choose_int_types\l\&lt; my_pointer_size \&gt;">
<polygon fill="none" stroke="black" points="509.5,-247 509.5,-281 634.5,-281 634.5,-247 509.5,-247"/>
<text text-anchor="start" x="517.5" y="-268" font-family="Helvetica,sans-Serif" font-size="10.00">stxxl::choose_int_types</text>
<text text-anchor="middle" x="572" y="-255" font-family="Helvetica,sans-Serif" font-size="10.00">&lt; my_pointer_size &gt;</text>
</a>
</g>
<!-- Node5&#45;&gt;Node2 -->
<g id="edge34" class="edge"><title>Node5&#45;&gt;Node2</title>
<path fill="none" stroke="#9a32cd" stroke-dasharray="5,2" d="M644.781,-264.845C715.602,-265.91 826.238,-268.215 922,-273 956.231,-274.711 994.172,-277.428 1025.95,-279.938"/>
<polygon fill="#9a32cd" stroke="#9a32cd" points="644.677,-261.343 634.627,-264.697 644.575,-268.342 644.677,-261.343"/>
<text text-anchor="middle" x="836" y="-277" font-family="Helvetica,sans-Serif" font-size="10.00"> m_memory_to_use</text>
</g>
<!-- Node5&#45;&gt;Node4 -->
<g id="edge10" class="edge"><title>Node5&#45;&gt;Node4</title>
<path fill="none" stroke="#9a32cd" stroke-dasharray="5,2" d="M603.756,-241.366C619.487,-230.965 639.118,-219.158 658,-211 677.318,-202.653 723.757,-190.216 764.357,-180.093"/>
<polygon fill="#9a32cd" stroke="#9a32cd" points="601.783,-238.475 595.448,-246.967 605.696,-244.279 601.783,-238.475"/>
<text text-anchor="middle" x="695" y="-241" font-family="Helvetica,sans-Serif" font-size="10.00"> seq_length</text>
<text text-anchor="middle" x="695" y="-228" font-family="Helvetica,sans-Serif" font-size="10.00">nextconsume</text>
<text text-anchor="middle" x="695" y="-215" font-family="Helvetica,sans-Serif" font-size="10.00">nextread</text>
</g>
<!-- Node5&#45;&gt;Node14 -->
<g id="edge40" class="edge"><title>Node5&#45;&gt;Node14</title>
<path fill="none" stroke="#9a32cd" stroke-dasharray="5,2" d="M644.522,-279.109C677.285,-285.934 716.23,-294.048 750.415,-301.17"/>
<polygon fill="#9a32cd" stroke="#9a32cd" points="645.068,-275.647 634.564,-277.034 643.64,-282.5 645.068,-275.647"/>
<text text-anchor="middle" x="695" y="-300" font-family="Helvetica,sans-Serif" font-size="10.00"> k</text>
</g>
<!-- Node6 -->
<g id="node11" class="node"><title>Node6</title>
<a xlink:href="structstxxl_1_1choose__int__types.html" target="_top" xlink:title="stxxl::choose_int_types\l\&lt; PtrSize \&gt;">
<polygon fill="none" stroke="black" points="241.5,-247 241.5,-281 366.5,-281 366.5,-247 241.5,-247"/>
<text text-anchor="start" x="249.5" y="-268" font-family="Helvetica,sans-Serif" font-size="10.00">stxxl::choose_int_types</text>
<text text-anchor="middle" x="304" y="-255" font-family="Helvetica,sans-Serif" font-size="10.00">&lt; PtrSize &gt;</text>
</a>
</g>
<!-- Node6&#45;&gt;Node5 -->
<g id="edge12" class="edge"><title>Node6&#45;&gt;Node5</title>
<path fill="none" stroke="orange" stroke-dasharray="5,2" d="M376.853,-264C418.223,-264 469.491,-264 509.096,-264"/>
<polygon fill="orange" stroke="orange" points="376.834,-260.5 366.834,-264 376.834,-267.5 376.834,-260.5"/>
<text text-anchor="middle" x="436" y="-268" font-family="Helvetica,sans-Serif" font-size="10.00"> &lt; my_pointer_size &gt;</text>
</g>
<!-- Node7&#45;&gt;Node4 -->
<g id="edge14" class="edge"><title>Node7&#45;&gt;Node4</title>
<path fill="none" stroke="#9a32cd" stroke-dasharray="5,2" d="M632.737,-111.2C662.804,-115.778 699.527,-122.149 732,-130 750.228,-134.407 769.911,-140.341 787.198,-145.961"/>
<polygon fill="#9a32cd" stroke="#9a32cd" points="633.219,-107.733 622.811,-109.717 632.184,-114.656 633.219,-107.733"/>
<text text-anchor="middle" x="695" y="-134" font-family="Helvetica,sans-Serif" font-size="10.00"> completed</text>
</g>
<!-- Node8&#45;&gt;Node7 -->
<g id="edge18" class="edge"><title>Node8&#45;&gt;Node7</title>
<path fill="none" stroke="#9a32cd" stroke-dasharray="5,2" d="M349.126,-150.033C386.144,-145.546 439.789,-138.096 486,-128 488.639,-127.423 513.767,-120.103 536.183,-113.531"/>
<polygon fill="#9a32cd" stroke="#9a32cd" points="348.663,-146.563 339.146,-151.22 349.49,-153.514 348.663,-146.563"/>
<text text-anchor="middle" x="436" y="-149" font-family="Helvetica,sans-Serif" font-size="10.00"> m_mutex</text>
</g>
<!-- Node9&#45;&gt;Node7 -->
<g id="edge22" class="edge"><title>Node9&#45;&gt;Node7</title>
<path fill="none" stroke="#9a32cd" stroke-dasharray="5,2" d="M378.313,-111.673C423.844,-109.634 480.93,-107.078 521.3,-105.27"/>
<polygon fill="#9a32cd" stroke="#9a32cd" points="378.026,-108.182 368.193,-112.126 378.339,-115.175 378.026,-108.182"/>
<text text-anchor="middle" x="436" y="-115" font-family="Helvetica,sans-Serif" font-size="10.00"> m_cond</text>
</g>
<!-- Node10 -->
<g id="node22" class="node"><title>Node10</title>
<a xlink:href="classstxxl_1_1counting__ptr.html" target="_top" xlink:title="High&#45;performance smart pointer used as a wrapping reference counting pointer. ">
<polygon fill="none" stroke="black" points="521.5,-132 521.5,-166 622.5,-166 622.5,-132 521.5,-132"/>
<text text-anchor="start" x="529.5" y="-153" font-family="Helvetica,sans-Serif" font-size="10.00">stxxl::counting_ptr</text>
<text text-anchor="middle" x="572" y="-140" font-family="Helvetica,sans-Serif" font-size="10.00">&lt; Type &gt;</text>
</a>
</g>
<!-- Node10&#45;&gt;Node4 -->
<g id="edge26" class="edge"><title>Node10&#45;&gt;Node4</title>
<path fill="none" stroke="#9a32cd" stroke-dasharray="5,2" d="M633.123,-147.692C662.971,-147.484 699.394,-147.868 732,-150 739.263,-150.475 746.795,-151.119 754.335,-151.867"/>
<polygon fill="#9a32cd" stroke="#9a32cd" points="632.823,-144.194 622.856,-147.788 632.889,-151.194 632.823,-144.194"/>
<text text-anchor="middle" x="695" y="-154" font-family="Helvetica,sans-Serif" font-size="10.00"> read_reqs</text>
</g>
<!-- Node11 -->
<g id="node24" class="node"><title>Node11</title>
<a xlink:href="classstxxl_1_1completion__handler.html" target="_top" xlink:title="Completion handler class (Loki&#45;style). ">
<polygon fill="none" stroke="black" points="504.5,-38.5 504.5,-59.5 639.5,-59.5 639.5,-38.5 504.5,-38.5"/>
<text text-anchor="middle" x="572" y="-46.5" font-family="Helvetica,sans-Serif" font-size="10.00">stxxl::completion_handler</text>
</a>
</g>
<!-- Node11&#45;&gt;Node4 -->
<g id="edge28" class="edge"><title>Node11&#45;&gt;Node4</title>
<path fill="none" stroke="#9a32cd" stroke-dasharray="5,2" d="M627.53,-62.1685C658.929,-70.5537 698.49,-82.7169 732,-98 761.252,-111.341 792.179,-131.558 812.628,-145.899"/>
<polygon fill="#9a32cd" stroke="#9a32cd" points="628.201,-58.7262 617.64,-59.5796 626.428,-65.498 628.201,-58.7262"/>
<text text-anchor="middle" x="695" y="-102" font-family="Helvetica,sans-Serif" font-size="10.00"> do_after_fetch</text>
</g>
<!-- Node12 -->
<g id="node26" class="node"><title>Node12</title>
<a xlink:href="structstxxl_1_1compat__unique__ptr.html" target="_top" xlink:title="stxxl::compat_unique\l_ptr\&lt; stxxl::completion\l_handler_impl \&gt;">
<polygon fill="none" stroke="black" points="243.5,-0.5 243.5,-47.5 364.5,-47.5 364.5,-0.5 243.5,-0.5"/>
<text text-anchor="start" x="251.5" y="-34.5" font-family="Helvetica,sans-Serif" font-size="10.00">stxxl::compat_unique</text>
<text text-anchor="start" x="251.5" y="-21.5" font-family="Helvetica,sans-Serif" font-size="10.00">_ptr&lt; stxxl::completion</text>
<text text-anchor="middle" x="304" y="-8.5" font-family="Helvetica,sans-Serif" font-size="10.00">_handler_impl &gt;</text>
</a>
</g>
<!-- Node12&#45;&gt;Node11 -->
<g id="edge30" class="edge"><title>Node12&#45;&gt;Node11</title>
<path fill="none" stroke="#9a32cd" stroke-dasharray="5,2" d="M374.786,-30.6031C414.889,-34.3441 464.791,-38.9992 504.364,-42.6907"/>
<polygon fill="#9a32cd" stroke="#9a32cd" points="375.095,-27.1169 364.813,-29.6729 374.445,-34.0867 375.095,-27.1169"/>
<text text-anchor="middle" x="436" y="-44" font-family="Helvetica,sans-Serif" font-size="10.00"> m_ptr</text>
</g>
<!-- Node13 -->
<g id="node28" class="node"><title>Node13</title>
<a xlink:href="structstxxl_1_1compat__unique__ptr.html" target="_top" xlink:title="stxxl::compat_unique\l_ptr\&lt; Type \&gt;">
<polygon fill="none" stroke="black" points="0.5,-7 0.5,-41 113.5,-41 113.5,-7 0.5,-7"/>
<text text-anchor="start" x="8.5" y="-28" font-family="Helvetica,sans-Serif" font-size="10.00">stxxl::compat_unique</text>
<text text-anchor="middle" x="57" y="-15" font-family="Helvetica,sans-Serif" font-size="10.00">_ptr&lt; Type &gt;</text>
</a>
</g>
<!-- Node13&#45;&gt;Node12 -->
<g id="edge32" class="edge"><title>Node13&#45;&gt;Node12</title>
<path fill="none" stroke="orange" stroke-dasharray="5,2" d="M123.917,-24C161.137,-24 207.104,-24 243.28,-24"/>
<polygon fill="orange" stroke="orange" points="123.667,-20.5001 113.667,-24 123.667,-27.5001 123.667,-20.5001"/>
<text text-anchor="start" x="132.5" y="-41" font-family="Helvetica,sans-Serif" font-size="10.00"> &lt; stxxl::completion</text>
<text text-anchor="middle" x="177" y="-28" font-family="Helvetica,sans-Serif" font-size="10.00">_handler_impl &gt;</text>
</g>
<!-- Node14&#45;&gt;Node2 -->
<g id="edge36" class="edge"><title>Node14&#45;&gt;Node2</title>
<path fill="none" stroke="#9a32cd" stroke-dasharray="5,2" d="M931.823,-306.884C962.963,-302.947 996.943,-298.651 1025.94,-294.984"/>
<polygon fill="#9a32cd" stroke="#9a32cd" points="931.305,-303.422 921.823,-308.149 932.183,-310.367 931.305,-303.422"/>
<text text-anchor="middle" x="974" y="-309" font-family="Helvetica,sans-Serif" font-size="10.00"> m_losers</text>
</g>
</g>
</svg>
