<?xml version="1.0" encoding="UTF-8" standalone="no"?>
<!DOCTYPE svg PUBLIC "-//W3C//DTD SVG 1.1//EN"
 "http://www.w3.org/Graphics/SVG/1.1/DTD/svg11.dtd">
<!-- Generated by graphviz version 2.26.3 (20100126.1600)
 -->
<!-- Title: stxxl::vector_bufreader&lt; VectorIteratorType &gt; Pages: 1 -->
<svg width="1378pt" height="378pt"
 viewBox="0.00 0.00 1378.00 378.00" xmlns="http://www.w3.org/2000/svg" xmlns:xlink="http://www.w3.org/1999/xlink">
<g id="graph1" class="graph" transform="scale(1 1) rotate(0) translate(4 374)">
<title>stxxl::vector_bufreader&lt; VectorIteratorType &gt;</title>
<!-- Node1 -->
<g id="node1" class="node"><title>Node1</title>
<polygon fill="#bfbfbf" stroke="black" points="1246,-131 1246,-165 1370,-165 1370,-131 1246,-131"/>
<text text-anchor="start" x="1254" y="-152" font-family="Helvetica,sans-Serif" font-size="10.00">stxxl::vector_bufreader</text>
<text text-anchor="middle" x="1308" y="-139" font-family="Helvetica,sans-Serif" font-size="10.00">&lt; VectorIteratorType &gt;</text>
</g>
<!-- Node2 -->
<g id="node2" class="node"><title>Node2</title>
<a xlink:href="classstxxl_1_1noncopyable.html" target="_top" xlink:title="stxxl::noncopyable">
<polygon fill="none" stroke="black" points="6,-266.5 6,-287.5 108,-287.5 108,-266.5 6,-266.5"/>
<text text-anchor="middle" x="57" y="-274.5" font-family="Helvetica,sans-Serif" font-size="10.00">stxxl::noncopyable</text>
</a>
</g>
<!-- Node2&#45;&gt;Node1 -->
<g id="edge2" class="edge"><title>Node2&#45;&gt;Node1</title>
<path fill="none" stroke="midnightblue" d="M77.9556,-293.831C92.3981,-304.689 112.445,-318.349 132,-327 204.061,-358.878 225.203,-370 304,-370 304,-370 304,-370 1088,-370 1203.31,-370 1278.77,-217.035 1301.09,-165.051"/>
<polygon fill="midnightblue" stroke="midnightblue" points="79.7994,-290.833 69.7418,-287.502 75.5271,-296.378 79.7994,-290.833"/>
</g>
<!-- Node3 -->
<g id="node4" class="node"><title>Node3</title>
<a xlink:href="classstxxl_1_1buf__istream.html" target="_top" xlink:title="Buffered input stream. ">
<polygon fill="none" stroke="black" points="1006.5,-131 1006.5,-165 1169.5,-165 1169.5,-131 1006.5,-131"/>
<text text-anchor="start" x="1014.5" y="-152" font-family="Helvetica,sans-Serif" font-size="10.00">stxxl::buf_istream</text>
<text text-anchor="middle" x="1088" y="-139" font-family="Helvetica,sans-Serif" font-size="10.00">&lt; BlockType, BidIteratorType &gt;</text>
</a>
</g>
<!-- Node2&#45;&gt;Node3 -->
<g id="edge6" class="edge"><title>Node2&#45;&gt;Node3</title>
<path fill="none" stroke="#8b1a1a" d="M95.105,-290.941C143.129,-307.235 228.533,-332 304,-332 304,-332 304,-332 832,-332 945.572,-332 1043.22,-211.115 1076.15,-165.31"/>
<polygon fill="#8b1a1a" stroke="#8b1a1a" points="96.0363,-287.56 85.4415,-287.605 93.7517,-294.177 96.0363,-287.56"/>
</g>
<!-- Node4 -->
<g id="node7" class="node"><title>Node4</title>
<a xlink:href="classstxxl_1_1block__prefetcher.html" target="_top" xlink:title="Encapsulates asynchronous prefetching engine. ">
<polygon fill="none" stroke="black" points="750.5,-131 750.5,-165 913.5,-165 913.5,-131 750.5,-131"/>
<text text-anchor="start" x="758.5" y="-152" font-family="Helvetica,sans-Serif" font-size="10.00">stxxl::block_prefetcher</text>
<text text-anchor="middle" x="832" y="-139" font-family="Helvetica,sans-Serif" font-size="10.00">&lt; BlockType, BidIteratorType &gt;</text>
</a>
</g>
<!-- Node2&#45;&gt;Node4 -->
<g id="edge10" class="edge"><title>Node2&#45;&gt;Node4</title>
<path fill="none" stroke="#8b1a1a" d="M78.3756,-260.413C92.7323,-250.181 112.521,-237.761 132,-231 160.903,-220.968 571.891,-175.952 750.315,-156.737"/>
<polygon fill="#8b1a1a" stroke="#8b1a1a" points="76.1739,-257.688 70.1899,-266.431 80.3201,-263.328 76.1739,-257.688"/>
</g>
<!-- Node7 -->
<g id="node14" class="node"><title>Node7</title>
<a xlink:href="classstxxl_1_1onoff__switch.html" target="_top" xlink:title="stxxl::onoff_switch">
<polygon fill="none" stroke="black" points="521.5,-222.5 521.5,-243.5 622.5,-243.5 622.5,-222.5 521.5,-222.5"/>
<text text-anchor="middle" x="572" y="-230.5" font-family="Helvetica,sans-Serif" font-size="10.00">stxxl::onoff_switch</text>
</a>
</g>
<!-- Node2&#45;&gt;Node7 -->
<g id="edge18" class="edge"><title>Node2&#45;&gt;Node7</title>
<path fill="none" stroke="#8b1a1a" d="M105.29,-263.803C114.158,-261.471 123.345,-259.115 132,-257 179.766,-245.329 191.123,-238.365 240,-233 339.263,-222.104 456.228,-225.956 521.473,-229.584"/>
<polygon fill="#8b1a1a" stroke="#8b1a1a" points="104.228,-260.464 95.4607,-266.412 106.024,-267.23 104.228,-260.464"/>
</g>
<!-- Node8 -->
<g id="node17" class="node"><title>Node8</title>
<a xlink:href="classstxxl_1_1mutex.html" target="_top" xlink:title="stxxl::mutex">
<polygon fill="none" stroke="black" points="269,-282.5 269,-303.5 339,-303.5 339,-282.5 269,-282.5"/>
<text text-anchor="middle" x="304" y="-290.5" font-family="Helvetica,sans-Serif" font-size="10.00">stxxl::mutex</text>
</a>
</g>
<!-- Node2&#45;&gt;Node8 -->
<g id="edge22" class="edge"><title>Node2&#45;&gt;Node8</title>
<path fill="none" stroke="#8b1a1a" d="M118.331,-280.973C165.739,-284.044 229.682,-288.186 268.816,-290.721"/>
<polygon fill="#8b1a1a" stroke="#8b1a1a" points="118.384,-277.469 108.179,-280.315 117.931,-284.454 118.384,-277.469"/>
</g>
<!-- Node9 -->
<g id="node20" class="node"><title>Node9</title>
<a xlink:href="classstxxl_1_1condition__variable.html" target="_top" xlink:title="stxxl::condition_variable">
<polygon fill="none" stroke="black" points="240,-242.5 240,-263.5 368,-263.5 368,-242.5 240,-242.5"/>
<text text-anchor="middle" x="304" y="-250.5" font-family="Helvetica,sans-Serif" font-size="10.00">stxxl::condition_variable</text>
</a>
</g>
<!-- Node2&#45;&gt;Node9 -->
<g id="edge26" class="edge"><title>Node2&#45;&gt;Node9</title>
<path fill="none" stroke="#8b1a1a" d="M118.313,-271.042C155.248,-267.454 202.222,-262.889 239.683,-259.249"/>
<polygon fill="#8b1a1a" stroke="#8b1a1a" points="117.793,-267.576 108.179,-272.027 118.47,-274.544 117.793,-267.576"/>
</g>
<!-- Node3&#45;&gt;Node1 -->
<g id="edge4" class="edge"><title>Node3&#45;&gt;Node1</title>
<path fill="none" stroke="#9a32cd" stroke-dasharray="5,2" d="M1179.74,-148C1201.99,-148 1225.26,-148 1245.78,-148"/>
<polygon fill="#9a32cd" stroke="#9a32cd" points="1179.61,-144.5 1169.61,-148 1179.61,-151.5 1179.61,-144.5"/>
<text text-anchor="middle" x="1208" y="-152" font-family="Helvetica,sans-Serif" font-size="10.00"> m_bufin</text>
</g>
<!-- Node4&#45;&gt;Node3 -->
<g id="edge8" class="edge"><title>Node4&#45;&gt;Node3</title>
<path fill="none" stroke="#9a32cd" stroke-dasharray="5,2" d="M923.885,-148C950.773,-148 979.977,-148 1006.19,-148"/>
<polygon fill="#9a32cd" stroke="#9a32cd" points="923.704,-144.5 913.704,-148 923.704,-151.5 923.704,-144.5"/>
<text text-anchor="middle" x="960" y="-152" font-family="Helvetica,sans-Serif" font-size="10.00"> prefetcher</text>
</g>
<!-- Node5 -->
<g id="node10" class="node"><title>Node5</title>
<a xlink:href="structstxxl_1_1choose__int__types.html" target="_top" xlink:title="stxxl::choose_int_types\l\&lt; my_pointer_size \&gt;">
<polygon fill="none" stroke="black" points="509.5,-0 509.5,-34 634.5,-34 634.5,-0 509.5,-0"/>
<text text-anchor="start" x="517.5" y="-21" font-family="Helvetica,sans-Serif" font-size="10.00">stxxl::choose_int_types</text>
<text text-anchor="middle" x="572" y="-8" font-family="Helvetica,sans-Serif" font-size="10.00">&lt; my_pointer_size &gt;</text>
</a>
</g>
<!-- Node5&#45;&gt;Node1 -->
<g id="edge38" class="edge"><title>Node5&#45;&gt;Node1</title>
<path fill="none" stroke="#9a32cd" stroke-dasharray="5,2" d="M644.97,-15.8211C672.282,-15.69 703.572,-15.9082 732,-17 813.068,-20.1134 834.223,-16.259 914,-31 1042.93,-54.8237 1189.76,-104.726 1262.37,-130.995"/>
<polygon fill="#9a32cd" stroke="#9a32cd" points="644.688,-12.3228 634.711,-15.8874 644.734,-19.3226 644.688,-12.3228"/>
<text text-anchor="middle" x="960" y="-50" font-family="Helvetica,sans-Serif" font-size="10.00"> m_nbuffers</text>
</g>
<!-- Node5&#45;&gt;Node3 -->
<g id="edge36" class="edge"><title>Node5&#45;&gt;Node3</title>
<path fill="none" stroke="#9a32cd" stroke-dasharray="5,2" d="M645.104,-19.8461C672.556,-21.8418 703.904,-25.2344 732,-31 848.944,-54.9986 981.15,-104.707 1046.65,-130.938"/>
<polygon fill="#9a32cd" stroke="#9a32cd" points="645.002,-16.3313 634.789,-19.1476 644.529,-23.3153 645.002,-16.3313"/>
<text text-anchor="middle" x="832" y="-85" font-family="Helvetica,sans-Serif" font-size="10.00"> current_elem</text>
</g>
<!-- Node5&#45;&gt;Node4 -->
<g id="edge12" class="edge"><title>Node5&#45;&gt;Node4</title>
<path fill="none" stroke="#9a32cd" stroke-dasharray="5,2" d="M644.426,-28.4685C672.854,-34.8656 705.055,-44.559 732,-59 766.824,-77.6636 799.495,-110.787 817.516,-130.935"/>
<polygon fill="#9a32cd" stroke="#9a32cd" points="645.056,-25.024 634.543,-26.3409 643.583,-31.8672 645.056,-25.024"/>
<text text-anchor="middle" x="695" y="-89" font-family="Helvetica,sans-Serif" font-size="10.00"> seq_length</text>
<text text-anchor="middle" x="695" y="-76" font-family="Helvetica,sans-Serif" font-size="10.00">nextconsume</text>
<text text-anchor="middle" x="695" y="-63" font-family="Helvetica,sans-Serif" font-size="10.00">nextread</text>
</g>
<!-- Node6 -->
<g id="node12" class="node"><title>Node6</title>
<a xlink:href="structstxxl_1_1choose__int__types.html" target="_top" xlink:title="stxxl::choose_int_types\l\&lt; PtrSize \&gt;">
<polygon fill="none" stroke="black" points="241.5,-0 241.5,-34 366.5,-34 366.5,-0 241.5,-0"/>
<text text-anchor="start" x="249.5" y="-21" font-family="Helvetica,sans-Serif" font-size="10.00">stxxl::choose_int_types</text>
<text text-anchor="middle" x="304" y="-8" font-family="Helvetica,sans-Serif" font-size="10.00">&lt; PtrSize &gt;</text>
</a>
</g>
<!-- Node6&#45;&gt;Node5 -->
<g id="edge14" class="edge"><title>Node6&#45;&gt;Node5</title>
<path fill="none" stroke="orange" stroke-dasharray="5,2" d="M376.853,-17C418.223,-17 469.491,-17 509.096,-17"/>
<polygon fill="orange" stroke="orange" points="376.834,-13.5001 366.834,-17 376.834,-20.5001 376.834,-13.5001"/>
<text text-anchor="middle" x="436" y="-21" font-family="Helvetica,sans-Serif" font-size="10.00"> &lt; my_pointer_size &gt;</text>
</g>
<!-- Node7&#45;&gt;Node4 -->
<g id="edge16" class="edge"><title>Node7&#45;&gt;Node4</title>
<path fill="none" stroke="#9a32cd" stroke-dasharray="5,2" d="M627.442,-220.061C658.496,-212.326 697.748,-201.735 732,-190 753.02,-182.798 775.909,-173.312 794.477,-165.178"/>
<polygon fill="#9a32cd" stroke="#9a32cd" points="626.537,-216.679 617.664,-222.47 628.211,-223.476 626.537,-216.679"/>
<text text-anchor="middle" x="695" y="-216" font-family="Helvetica,sans-Serif" font-size="10.00"> completed</text>
</g>
<!-- Node8&#45;&gt;Node7 -->
<g id="edge20" class="edge"><title>Node8&#45;&gt;Node7</title>
<path fill="none" stroke="#9a32cd" stroke-dasharray="5,2" d="M349.264,-287.743C386.363,-282.91 440.048,-274.709 486,-263 506.38,-257.807 528.796,-249.912 545.632,-243.525"/>
<polygon fill="#9a32cd" stroke="#9a32cd" points="348.739,-284.282 339.261,-289.017 349.623,-291.226 348.739,-284.282"/>
<text text-anchor="middle" x="436" y="-286" font-family="Helvetica,sans-Serif" font-size="10.00"> m_mutex</text>
</g>
<!-- Node9&#45;&gt;Node7 -->
<g id="edge24" class="edge"><title>Node9&#45;&gt;Node7</title>
<path fill="none" stroke="#9a32cd" stroke-dasharray="5,2" d="M378.313,-247.454C423.844,-244.056 480.93,-239.796 521.3,-236.784"/>
<polygon fill="#9a32cd" stroke="#9a32cd" points="377.904,-243.975 368.193,-248.21 378.425,-250.956 377.904,-243.975"/>
<text text-anchor="middle" x="436" y="-250" font-family="Helvetica,sans-Serif" font-size="10.00"> m_cond</text>
</g>
<!-- Node10 -->
<g id="node23" class="node"><title>Node10</title>
<a xlink:href="classstxxl_1_1counting__ptr.html" target="_top" xlink:title="High&#45;performance smart pointer used as a wrapping reference counting pointer. ">
<polygon fill="none" stroke="black" points="521.5,-114 521.5,-148 622.5,-148 622.5,-114 521.5,-114"/>
<text text-anchor="start" x="529.5" y="-135" font-family="Helvetica,sans-Serif" font-size="10.00">stxxl::counting_ptr</text>
<text text-anchor="middle" x="572" y="-122" font-family="Helvetica,sans-Serif" font-size="10.00">&lt; Type &gt;</text>
</a>
</g>
<!-- Node10&#45;&gt;Node4 -->
<g id="edge28" class="edge"><title>Node10&#45;&gt;Node4</title>
<path fill="none" stroke="#9a32cd" stroke-dasharray="5,2" d="M632.834,-134.978C667.878,-137.269 712.382,-140.179 750.429,-142.667"/>
<polygon fill="#9a32cd" stroke="#9a32cd" points="632.955,-131.478 622.748,-134.318 632.498,-138.463 632.955,-131.478"/>
<text text-anchor="middle" x="695" y="-145" font-family="Helvetica,sans-Serif" font-size="10.00"> read_reqs</text>
</g>
<!-- Node11 -->
<g id="node25" class="node"><title>Node11</title>
<a xlink:href="classstxxl_1_1completion__handler.html" target="_top" xlink:title="Completion handler class (Loki&#45;style). ">
<polygon fill="none" stroke="black" points="504.5,-74.5 504.5,-95.5 639.5,-95.5 639.5,-74.5 504.5,-74.5"/>
<text text-anchor="middle" x="572" y="-82.5" font-family="Helvetica,sans-Serif" font-size="10.00">stxxl::completion_handler</text>
</a>
</g>
<!-- Node11&#45;&gt;Node4 -->
<g id="edge30" class="edge"><title>Node11&#45;&gt;Node4</title>
<path fill="none" stroke="#9a32cd" stroke-dasharray="5,2" d="M636.394,-97.5685C665.68,-103.57 700.708,-111.149 732,-119 746.289,-122.585 761.616,-126.827 775.87,-130.944"/>
<polygon fill="#9a32cd" stroke="#9a32cd" points="636.787,-94.0769 626.29,-95.5135 635.392,-100.936 636.787,-94.0769"/>
<text text-anchor="middle" x="695" y="-123" font-family="Helvetica,sans-Serif" font-size="10.00"> do_after_fetch</text>
</g>
<!-- Node12 -->
<g id="node27" class="node"><title>Node12</title>
<a xlink:href="structstxxl_1_1compat__unique__ptr.html" target="_top" xlink:title="stxxl::compat_unique\l_ptr\&lt; stxxl::completion\l_handler_impl \&gt;">
<polygon fill="none" stroke="black" points="243.5,-61.5 243.5,-108.5 364.5,-108.5 364.5,-61.5 243.5,-61.5"/>
<text text-anchor="start" x="251.5" y="-95.5" font-family="Helvetica,sans-Serif" font-size="10.00">stxxl::compat_unique</text>
<text text-anchor="start" x="251.5" y="-82.5" font-family="Helvetica,sans-Serif" font-size="10.00">_ptr&lt; stxxl::completion</text>
<text text-anchor="middle" x="304" y="-69.5" font-family="Helvetica,sans-Serif" font-size="10.00">_handler_impl &gt;</text>
</a>
</g>
<!-- Node12&#45;&gt;Node11 -->
<g id="edge32" class="edge"><title>Node12&#45;&gt;Node11</title>
<path fill="none" stroke="#9a32cd" stroke-dasharray="5,2" d="M375.041,-85C415.1,-85 464.875,-85 504.364,-85"/>
<polygon fill="#9a32cd" stroke="#9a32cd" points="374.813,-81.5001 364.813,-85 374.813,-88.5001 374.813,-81.5001"/>
<text text-anchor="middle" x="436" y="-89" font-family="Helvetica,sans-Serif" font-size="10.00"> m_ptr</text>
</g>
<!-- Node13 -->
<g id="node29" class="node"><title>Node13</title>
<a xlink:href="structstxxl_1_1compat__unique__ptr.html" target="_top" xlink:title="stxxl::compat_unique\l_ptr\&lt; Type \&gt;">
<polygon fill="none" stroke="black" points="0.5,-68 0.5,-102 113.5,-102 113.5,-68 0.5,-68"/>
<text text-anchor="start" x="8.5" y="-89" font-family="Helvetica,sans-Serif" font-size="10.00">stxxl::compat_unique</text>
<text text-anchor="middle" x="57" y="-76" font-family="Helvetica,sans-Serif" font-size="10.00">_ptr&lt; Type &gt;</text>
</a>
</g>
<!-- Node13&#45;&gt;Node12 -->
<g id="edge34" class="edge"><title>Node13&#45;&gt;Node12</title>
<path fill="none" stroke="orange" stroke-dasharray="5,2" d="M123.917,-85C161.137,-85 207.104,-85 243.28,-85"/>
<polygon fill="orange" stroke="orange" points="123.667,-81.5001 113.667,-85 123.667,-88.5001 123.667,-81.5001"/>
<text text-anchor="start" x="132.5" y="-102" font-family="Helvetica,sans-Serif" font-size="10.00"> &lt; stxxl::completion</text>
<text text-anchor="middle" x="177" y="-89" font-family="Helvetica,sans-Serif" font-size="10.00">_handler_impl &gt;</text>
</g>
</g>
</svg>
