<?xml version="1.0" encoding="UTF-8" standalone="no"?>
<!DOCTYPE svg PUBLIC "-//W3C//DTD SVG 1.1//EN"
 "http://www.w3.org/Graphics/SVG/1.1/DTD/svg11.dtd">
<!-- Generated by graphviz version 2.26.3 (20100126.1600)
 -->
<!-- Title: stxxl::config Pages: 1 -->
<svg width="233pt" height="236pt"
 viewBox="0.00 0.00 233.00 236.00" xmlns="http://www.w3.org/2000/svg" xmlns:xlink="http://www.w3.org/1999/xlink">
<g id="graph1" class="graph" transform="scale(1 1) rotate(0) translate(4 232)">
<title>stxxl::config</title>
<!-- Node1 -->
<g id="node1" class="node"><title>Node1</title>
<polygon fill="#bfbfbf" stroke="black" points="29.5,-0.5 29.5,-21.5 100.5,-21.5 100.5,-0.5 29.5,-0.5"/>
<text text-anchor="middle" x="65" y="-8.5" font-family="Helvetica,sans-Serif" font-size="10.00">stxxl::config</text>
</g>
<!-- Node2 -->
<g id="node2" class="node"><title>Node2</title>
<a xlink:href="classstxxl_1_1singleton.html" target="_top" xlink:title="stxxl::singleton\&lt; config \&gt;">
<polygon fill="none" stroke="black" points="-0.5,-60.5 -0.5,-81.5 130.5,-81.5 130.5,-60.5 -0.5,-60.5"/>
<text text-anchor="middle" x="65" y="-68.5" font-family="Helvetica,sans-Serif" font-size="10.00">stxxl::singleton&lt; config &gt;</text>
</a>
</g>
<!-- Node2&#45;&gt;Node1 -->
<g id="edge2" class="edge"><title>Node2&#45;&gt;Node1</title>
<path fill="none" stroke="midnightblue" d="M65,-50.2312C65,-40.5922 65,-29.5444 65,-21.6339"/>
<polygon fill="midnightblue" stroke="midnightblue" points="61.5001,-50.2732 65,-60.2732 68.5001,-50.2732 61.5001,-50.2732"/>
</g>
<!-- Node3 -->
<g id="node4" class="node"><title>Node3</title>
<a xlink:href="classstxxl_1_1noncopyable.html" target="_top" xlink:title="stxxl::noncopyable">
<polygon fill="none" stroke="black" points="29,-206.5 29,-227.5 131,-227.5 131,-206.5 29,-206.5"/>
<text text-anchor="middle" x="80" y="-214.5" font-family="Helvetica,sans-Serif" font-size="10.00">stxxl::noncopyable</text>
</a>
</g>
<!-- Node3&#45;&gt;Node2 -->
<g id="edge4" class="edge"><title>Node3&#45;&gt;Node2</title>
<path fill="none" stroke="#8b1a1a" d="M73.9805,-196.558C71.6781,-187.838 69.2958,-177.501 68,-168 63.7425,-136.783 64.1042,-99.4142 64.6085,-81.5381"/>
<polygon fill="#8b1a1a" stroke="#8b1a1a" points="70.6184,-197.531 76.671,-206.227 77.3622,-195.655 70.6184,-197.531"/>
</g>
<!-- Node4 -->
<g id="node6" class="node"><title>Node4</title>
<a xlink:href="classstxxl_1_1singleton.html" target="_top" xlink:title="stxxl::singleton\&lt; INSTANCE,\l destroy_on_exit \&gt;">
<polygon fill="none" stroke="black" points="76.5,-133 76.5,-167 225.5,-167 225.5,-133 76.5,-133"/>
<text text-anchor="start" x="84.5" y="-154" font-family="Helvetica,sans-Serif" font-size="10.00">stxxl::singleton&lt; INSTANCE,</text>
<text text-anchor="middle" x="151" y="-141" font-family="Helvetica,sans-Serif" font-size="10.00"> destroy_on_exit &gt;</text>
</a>
</g>
<!-- Node3&#45;&gt;Node4 -->
<g id="edge8" class="edge"><title>Node3&#45;&gt;Node4</title>
<path fill="none" stroke="#8b1a1a" d="M98.9042,-199.161C109.465,-189.195 122.554,-176.843 132.97,-167.014"/>
<polygon fill="#8b1a1a" stroke="#8b1a1a" points="96.2782,-196.826 91.4074,-206.235 101.083,-201.918 96.2782,-196.826"/>
</g>
<!-- Node4&#45;&gt;Node2 -->
<g id="edge6" class="edge"><title>Node4&#45;&gt;Node2</title>
<path fill="none" stroke="orange" stroke-dasharray="5,2" d="M124.771,-125.906C108.642,-111.09 88.7801,-92.8445 76.5035,-81.5672"/>
<polygon fill="orange" stroke="orange" points="122.607,-128.671 132.339,-132.858 127.343,-123.516 122.607,-128.671"/>
<text text-anchor="middle" x="135" y="-104.5" font-family="Helvetica,sans-Serif" font-size="10.00"> &lt; config &gt;</text>
</g>
</g>
</svg>
