<?xml version="1.0" encoding="UTF-8" standalone="no"?>
<!DOCTYPE svg PUBLIC "-//W3C//DTD SVG 1.1//EN"
 "http://www.w3.org/Graphics/SVG/1.1/DTD/svg11.dtd">
<!-- Generated by graphviz version 2.26.3 (20100126.1600)
 -->
<!-- Title: stxxl::vector_bufreader_reverse&lt; VectorIteratorType &gt; Pages: 1 -->
<svg width="1600pt" height="442pt"
 viewBox="0.00 0.00 1600.00 442.00" xmlns="http://www.w3.org/2000/svg" xmlns:xlink="http://www.w3.org/1999/xlink">
<g id="graph1" class="graph" transform="scale(1 1) rotate(0) translate(4 438)">
<title>stxxl::vector_bufreader_reverse&lt; VectorIteratorType &gt;</title>
<!-- Node1 -->
<g id="node1" class="node"><title>Node1</title>
<polygon fill="#bfbfbf" stroke="black" points="1426,-379 1426,-413 1592,-413 1592,-379 1426,-379"/>
<text text-anchor="start" x="1434" y="-400" font-family="Helvetica,sans-Serif" font-size="10.00">stxxl::vector_bufreader</text>
<text text-anchor="middle" x="1509" y="-387" font-family="Helvetica,sans-Serif" font-size="10.00">_reverse&lt; VectorIteratorType &gt;</text>
</g>
<!-- Node2 -->
<g id="node2" class="node"><title>Node2</title>
<a xlink:href="classstxxl_1_1noncopyable.html" target="_top" xlink:title="stxxl::noncopyable">
<polygon fill="none" stroke="black" points="0,-133.5 0,-154.5 102,-154.5 102,-133.5 0,-133.5"/>
<text text-anchor="middle" x="51" y="-141.5" font-family="Helvetica,sans-Serif" font-size="10.00">stxxl::noncopyable</text>
</a>
</g>
<!-- Node2&#45;&gt;Node1 -->
<g id="edge2" class="edge"><title>Node2&#45;&gt;Node1</title>
<path fill="none" stroke="midnightblue" d="M52.1587,-164.751C57.0867,-231.136 82.1169,-434 204,-434 204,-434 204,-434 1290,-434 1342.67,-434 1401.44,-423.196 1444.82,-413.11"/>
<polygon fill="midnightblue" stroke="midnightblue" points="55.6441,-164.412 51.4905,-154.665 48.6594,-164.875 55.6441,-164.412"/>
</g>
<!-- Node5 -->
<g id="node8" class="node"><title>Node5</title>
<a xlink:href="classstxxl_1_1buf__istream__reverse.html" target="_top" xlink:title="Buffered input stream, reading the items in the blocks in reverse order. ">
<polygon fill="none" stroke="black" points="1230.5,-216.5 1230.5,-263.5 1349.5,-263.5 1349.5,-216.5 1230.5,-216.5"/>
<text text-anchor="start" x="1238.5" y="-250.5" font-family="Helvetica,sans-Serif" font-size="10.00">stxxl::buf_istream</text>
<text text-anchor="start" x="1238.5" y="-237.5" font-family="Helvetica,sans-Serif" font-size="10.00">_reverse&lt; BlockType,</text>
<text text-anchor="middle" x="1290" y="-224.5" font-family="Helvetica,sans-Serif" font-size="10.00"> BidIteratorType &gt;</text>
</a>
</g>
<!-- Node2&#45;&gt;Node5 -->
<g id="edge10" class="edge"><title>Node2&#45;&gt;Node5</title>
<path fill="none" stroke="#8b1a1a" d="M60.3806,-124.195C80.6115,-84.72 132.374,-0 204,-0 204,-0 204,-0 1056,-0 1175.88,-0 1254.35,-155.405 1280.43,-216.11"/>
<polygon fill="#8b1a1a" stroke="#8b1a1a" points="57.2334,-122.663 55.9237,-133.177 63.5039,-125.775 57.2334,-122.663"/>
</g>
<!-- Node6 -->
<g id="node11" class="node"><title>Node6</title>
<a xlink:href="classstxxl_1_1block__prefetcher.html" target="_top" xlink:title="Encapsulates asynchronous prefetching engine. ">
<polygon fill="none" stroke="black" points="974.5,-223 974.5,-257 1137.5,-257 1137.5,-223 974.5,-223"/>
<text text-anchor="start" x="982.5" y="-244" font-family="Helvetica,sans-Serif" font-size="10.00">stxxl::block_prefetcher</text>
<text text-anchor="middle" x="1056" y="-231" font-family="Helvetica,sans-Serif" font-size="10.00">&lt; BlockType, BidIteratorType &gt;</text>
</a>
</g>
<!-- Node2&#45;&gt;Node6 -->
<g id="edge14" class="edge"><title>Node2&#45;&gt;Node6</title>
<path fill="none" stroke="#8b1a1a" d="M66.1195,-162.423C82.485,-181.225 110.259,-209.989 140,-227 165.756,-241.732 174.329,-246 204,-246 204,-246 204,-246 602,-246 732.261,-246 883.526,-243.5 974.401,-241.727"/>
<polygon fill="#8b1a1a" stroke="#8b1a1a" points="68.5811,-159.915 59.437,-154.564 63.2482,-164.449 68.5811,-159.915"/>
</g>
<!-- Node7 -->
<g id="node15" class="node"><title>Node7</title>
<a xlink:href="classstxxl_1_1onoff__switch.html" target="_top" xlink:title="stxxl::onoff_switch">
<polygon fill="none" stroke="black" points="420.5,-176.5 420.5,-197.5 521.5,-197.5 521.5,-176.5 420.5,-176.5"/>
<text text-anchor="middle" x="471" y="-184.5" font-family="Helvetica,sans-Serif" font-size="10.00">stxxl::onoff_switch</text>
</a>
</g>
<!-- Node2&#45;&gt;Node7 -->
<g id="edge20" class="edge"><title>Node2&#45;&gt;Node7</title>
<path fill="none" stroke="#8b1a1a" d="M112.526,-142.682C156.026,-142.28 215.673,-142.797 268,-147 322.633,-151.388 336.348,-153.797 390,-165 405.12,-168.157 421.606,-172.472 435.735,-176.444"/>
<polygon fill="#8b1a1a" stroke="#8b1a1a" points="112.348,-139.184 102.388,-142.795 112.427,-146.184 112.348,-139.184"/>
</g>
<!-- Node8 -->
<g id="node18" class="node"><title>Node8</title>
<a xlink:href="classstxxl_1_1mutex.html" target="_top" xlink:title="stxxl::mutex">
<polygon fill="none" stroke="black" points="169,-196.5 169,-217.5 239,-217.5 239,-196.5 169,-196.5"/>
<text text-anchor="middle" x="204" y="-204.5" font-family="Helvetica,sans-Serif" font-size="10.00">stxxl::mutex</text>
</a>
</g>
<!-- Node2&#45;&gt;Node8 -->
<g id="edge24" class="edge"><title>Node2&#45;&gt;Node8</title>
<path fill="none" stroke="#8b1a1a" d="M79.7415,-159.22C96.9428,-167.991 119.399,-178.856 140,-187 149.202,-190.638 159.349,-194.065 168.799,-197.02"/>
<polygon fill="#8b1a1a" stroke="#8b1a1a" points="81.263,-156.067 70.771,-154.594 78.0543,-162.288 81.263,-156.067"/>
</g>
<!-- Node9 -->
<g id="node21" class="node"><title>Node9</title>
<a xlink:href="classstxxl_1_1condition__variable.html" target="_top" xlink:title="stxxl::condition_variable">
<polygon fill="none" stroke="black" points="140,-156.5 140,-177.5 268,-177.5 268,-156.5 140,-156.5"/>
<text text-anchor="middle" x="204" y="-164.5" font-family="Helvetica,sans-Serif" font-size="10.00">stxxl::condition_variable</text>
</a>
</g>
<!-- Node2&#45;&gt;Node9 -->
<g id="edge28" class="edge"><title>Node2&#45;&gt;Node9</title>
<path fill="none" stroke="#8b1a1a" d="M112.453,-153.238C121.517,-154.601 130.875,-156.007 139.989,-157.378"/>
<polygon fill="#8b1a1a" stroke="#8b1a1a" points="112.782,-149.748 102.372,-151.723 111.741,-156.67 112.782,-149.748"/>
</g>
<!-- Node15 -->
<g id="node35" class="node"><title>Node15</title>
<a xlink:href="classstxxl_1_1simple__vector.html" target="_top" xlink:title="stxxl::simple_vector\l\&lt; BID\&lt; BlockSize \&gt; \&gt;">
<polygon fill="none" stroke="black" points="413,-55 413,-89 529,-89 529,-55 413,-55"/>
<text text-anchor="start" x="421" y="-76" font-family="Helvetica,sans-Serif" font-size="10.00">stxxl::simple_vector</text>
<text text-anchor="middle" x="471" y="-63" font-family="Helvetica,sans-Serif" font-size="10.00">&lt; BID&lt; BlockSize &gt; &gt;</text>
</a>
</g>
<!-- Node2&#45;&gt;Node15 -->
<g id="edge44" class="edge"><title>Node2&#45;&gt;Node15</title>
<path fill="none" stroke="#8b1a1a" d="M63.4032,-125.084C78.5601,-103.887 106.384,-70.7008 140,-57 229.759,-20.4165 344.759,-38.4902 412.885,-55.1192"/>
<polygon fill="#8b1a1a" stroke="#8b1a1a" points="60.503,-123.124 57.7029,-133.342 66.264,-127.1 60.503,-123.124"/>
</g>
<!-- Node16 -->
<g id="node38" class="node"><title>Node16</title>
<a xlink:href="classstxxl_1_1simple__vector.html" target="_top" xlink:title="Simpler non&#45;growing vector without initialization. ">
<polygon fill="none" stroke="black" points="150.5,-66 150.5,-100 257.5,-100 257.5,-66 150.5,-66"/>
<text text-anchor="start" x="158.5" y="-87" font-family="Helvetica,sans-Serif" font-size="10.00">stxxl::simple_vector</text>
<text text-anchor="middle" x="204" y="-74" font-family="Helvetica,sans-Serif" font-size="10.00">&lt; ValueType &gt;</text>
</a>
</g>
<!-- Node2&#45;&gt;Node16 -->
<g id="edge48" class="edge"><title>Node2&#45;&gt;Node16</title>
<path fill="none" stroke="#8b1a1a" d="M83.6791,-129.341C95.1097,-124.334 108.068,-118.791 120,-114 131.684,-109.308 144.384,-104.482 156.287,-100.076"/>
<polygon fill="#8b1a1a" stroke="#8b1a1a" points="82.2297,-126.155 74.4927,-133.393 85.0548,-132.559 82.2297,-126.155"/>
</g>
<!-- Node3 -->
<g id="node4" class="node"><title>Node3</title>
<a xlink:href="structstxxl_1_1choose__int__types.html" target="_top" xlink:title="stxxl::choose_int_types\l\&lt; my_pointer_size \&gt;">
<polygon fill="none" stroke="black" points="682.5,-346 682.5,-380 807.5,-380 807.5,-346 682.5,-346"/>
<text text-anchor="start" x="690.5" y="-367" font-family="Helvetica,sans-Serif" font-size="10.00">stxxl::choose_int_types</text>
<text text-anchor="middle" x="745" y="-354" font-family="Helvetica,sans-Serif" font-size="10.00">&lt; my_pointer_size &gt;</text>
</a>
</g>
<!-- Node3&#45;&gt;Node1 -->
<g id="edge4" class="edge"><title>Node3&#45;&gt;Node1</title>
<path fill="none" stroke="#9a32cd" stroke-dasharray="5,2" d="M817.598,-367.854C824.493,-368.264 831.378,-368.653 838,-369 1049.61,-380.082 1298.96,-389.038 1425.81,-393.3"/>
<polygon fill="#9a32cd" stroke="#9a32cd" points="817.713,-364.355 807.52,-367.242 817.289,-371.342 817.713,-364.355"/>
<text text-anchor="middle" x="1184" y="-389" font-family="Helvetica,sans-Serif" font-size="10.00"> m_nbuffers</text>
</g>
<!-- Node3&#45;&gt;Node5 -->
<g id="edge38" class="edge"><title>Node3&#45;&gt;Node5</title>
<path fill="none" stroke="#9a32cd" stroke-dasharray="5,2" d="M817.996,-362.619C858.893,-361.294 910.641,-357.763 956,-349 1055.71,-329.735 1167.01,-289.422 1232.64,-263.589"/>
<polygon fill="#9a32cd" stroke="#9a32cd" points="817.739,-359.125 807.843,-362.91 817.939,-366.122 817.739,-359.125"/>
<text text-anchor="middle" x="1056" y="-348" font-family="Helvetica,sans-Serif" font-size="10.00"> current_elem</text>
</g>
<!-- Node3&#45;&gt;Node6 -->
<g id="edge16" class="edge"><title>Node3&#45;&gt;Node6</title>
<path fill="none" stroke="#9a32cd" stroke-dasharray="5,2" d="M778.488,-340.377C795.634,-329.729 817.228,-317.706 838,-310 888.095,-291.416 905.213,-303.601 956,-287 979.886,-279.192 1005.51,-267.068 1024.84,-257.089"/>
<polygon fill="#9a32cd" stroke="#9a32cd" points="776.525,-337.478 769.955,-345.79 780.274,-343.389 776.525,-337.478"/>
<text text-anchor="middle" x="897" y="-340" font-family="Helvetica,sans-Serif" font-size="10.00"> seq_length</text>
<text text-anchor="middle" x="897" y="-327" font-family="Helvetica,sans-Serif" font-size="10.00">nextconsume</text>
<text text-anchor="middle" x="897" y="-314" font-family="Helvetica,sans-Serif" font-size="10.00">nextread</text>
</g>
<!-- Node4 -->
<g id="node6" class="node"><title>Node4</title>
<a xlink:href="structstxxl_1_1choose__int__types.html" target="_top" xlink:title="stxxl::choose_int_types\l\&lt; PtrSize \&gt;">
<polygon fill="none" stroke="black" points="408.5,-346 408.5,-380 533.5,-380 533.5,-346 408.5,-346"/>
<text text-anchor="start" x="416.5" y="-367" font-family="Helvetica,sans-Serif" font-size="10.00">stxxl::choose_int_types</text>
<text text-anchor="middle" x="471" y="-354" font-family="Helvetica,sans-Serif" font-size="10.00">&lt; PtrSize &gt;</text>
</a>
</g>
<!-- Node4&#45;&gt;Node3 -->
<g id="edge6" class="edge"><title>Node4&#45;&gt;Node3</title>
<path fill="none" stroke="orange" stroke-dasharray="5,2" d="M543.672,-363C586.827,-363 640.999,-363 682.277,-363"/>
<polygon fill="orange" stroke="orange" points="543.518,-359.5 533.518,-363 543.518,-366.5 543.518,-359.5"/>
<text text-anchor="middle" x="602" y="-367" font-family="Helvetica,sans-Serif" font-size="10.00"> &lt; my_pointer_size &gt;</text>
</g>
<!-- Node5&#45;&gt;Node1 -->
<g id="edge8" class="edge"><title>Node5&#45;&gt;Node1</title>
<path fill="none" stroke="#9a32cd" stroke-dasharray="5,2" d="M1331.42,-269.501C1376.77,-301.807 1447.95,-352.516 1484.92,-378.845"/>
<polygon fill="#9a32cd" stroke="#9a32cd" points="1333.44,-266.644 1323.26,-263.693 1329.38,-272.346 1333.44,-266.644"/>
<text text-anchor="middle" x="1388" y="-326" font-family="Helvetica,sans-Serif" font-size="10.00"> m_bufin</text>
</g>
<!-- Node6&#45;&gt;Node5 -->
<g id="edge12" class="edge"><title>Node6&#45;&gt;Node5</title>
<path fill="none" stroke="#9a32cd" stroke-dasharray="5,2" d="M1147.63,-240C1175.35,-240 1205.08,-240 1230.16,-240"/>
<polygon fill="#9a32cd" stroke="#9a32cd" points="1147.51,-236.5 1137.51,-240 1147.51,-243.5 1147.51,-236.5"/>
<text text-anchor="middle" x="1184" y="-244" font-family="Helvetica,sans-Serif" font-size="10.00"> prefetcher</text>
</g>
<!-- Node7&#45;&gt;Node6 -->
<g id="edge18" class="edge"><title>Node7&#45;&gt;Node6</title>
<path fill="none" stroke="#9a32cd" stroke-dasharray="5,2" d="M531.956,-190.746C623.978,-196.662 803.8,-209.241 956,-226 962.012,-226.662 968.219,-227.4 974.461,-228.181"/>
<polygon fill="#9a32cd" stroke="#9a32cd" points="531.918,-187.236 521.715,-190.092 531.471,-194.222 531.918,-187.236"/>
<text text-anchor="middle" x="745" y="-216" font-family="Helvetica,sans-Serif" font-size="10.00"> completed</text>
</g>
<!-- Node8&#45;&gt;Node7 -->
<g id="edge22" class="edge"><title>Node8&#45;&gt;Node7</title>
<path fill="none" stroke="#9a32cd" stroke-dasharray="5,2" d="M249.152,-203.618C296.523,-200.069 370.826,-194.504 420.211,-190.804"/>
<polygon fill="#9a32cd" stroke="#9a32cd" points="248.891,-200.127 239.18,-204.365 249.414,-207.108 248.891,-200.127"/>
<text text-anchor="middle" x="338" y="-204" font-family="Helvetica,sans-Serif" font-size="10.00"> m_mutex</text>
</g>
<!-- Node9&#45;&gt;Node7 -->
<g id="edge26" class="edge"><title>Node9&#45;&gt;Node7</title>
<path fill="none" stroke="#9a32cd" stroke-dasharray="5,2" d="M278.559,-169.131C312.591,-170.483 353.385,-172.634 390,-176 399.751,-176.896 410.13,-178.109 420.09,-179.401"/>
<polygon fill="#9a32cd" stroke="#9a32cd" points="278.353,-165.621 268.227,-168.737 278.086,-172.615 278.353,-165.621"/>
<text text-anchor="middle" x="338" y="-180" font-family="Helvetica,sans-Serif" font-size="10.00"> m_cond</text>
</g>
<!-- Node10 -->
<g id="node24" class="node"><title>Node10</title>
<a xlink:href="classstxxl_1_1counting__ptr.html" target="_top" xlink:title="High&#45;performance smart pointer used as a wrapping reference counting pointer. ">
<polygon fill="none" stroke="black" points="694.5,-135 694.5,-169 795.5,-169 795.5,-135 694.5,-135"/>
<text text-anchor="start" x="702.5" y="-156" font-family="Helvetica,sans-Serif" font-size="10.00">stxxl::counting_ptr</text>
<text text-anchor="middle" x="745" y="-143" font-family="Helvetica,sans-Serif" font-size="10.00">&lt; Type &gt;</text>
</a>
</g>
<!-- Node10&#45;&gt;Node6 -->
<g id="edge30" class="edge"><title>Node10&#45;&gt;Node6</title>
<path fill="none" stroke="#9a32cd" stroke-dasharray="5,2" d="M805.879,-152.608C848.903,-154.679 907.337,-160.852 956,-178 985.284,-188.319 1015.05,-208.242 1034.4,-222.726"/>
<polygon fill="#9a32cd" stroke="#9a32cd" points="805.98,-149.109 795.842,-152.186 805.686,-156.103 805.98,-149.109"/>
<text text-anchor="middle" x="897" y="-182" font-family="Helvetica,sans-Serif" font-size="10.00"> read_reqs</text>
</g>
<!-- Node11 -->
<g id="node26" class="node"><title>Node11</title>
<a xlink:href="classstxxl_1_1completion__handler.html" target="_top" xlink:title="Completion handler class (Loki&#45;style). ">
<polygon fill="none" stroke="black" points="677.5,-278.5 677.5,-299.5 812.5,-299.5 812.5,-278.5 677.5,-278.5"/>
<text text-anchor="middle" x="745" y="-286.5" font-family="Helvetica,sans-Serif" font-size="10.00">stxxl::completion_handler</text>
</a>
</g>
<!-- Node11&#45;&gt;Node6 -->
<g id="edge32" class="edge"><title>Node11&#45;&gt;Node6</title>
<path fill="none" stroke="#9a32cd" stroke-dasharray="5,2" d="M820.18,-276.84C826.208,-275.875 832.205,-274.919 838,-274 883.114,-266.844 933.502,-258.977 974.461,-252.614"/>
<polygon fill="#9a32cd" stroke="#9a32cd" points="819.354,-273.428 810.034,-278.467 820.462,-280.339 819.354,-273.428"/>
<text text-anchor="middle" x="897" y="-278" font-family="Helvetica,sans-Serif" font-size="10.00"> do_after_fetch</text>
</g>
<!-- Node12 -->
<g id="node28" class="node"><title>Node12</title>
<a xlink:href="structstxxl_1_1compat__unique__ptr.html" target="_top" xlink:title="stxxl::compat_unique\l_ptr\&lt; stxxl::completion\l_handler_impl \&gt;">
<polygon fill="none" stroke="black" points="410.5,-274.5 410.5,-321.5 531.5,-321.5 531.5,-274.5 410.5,-274.5"/>
<text text-anchor="start" x="418.5" y="-308.5" font-family="Helvetica,sans-Serif" font-size="10.00">stxxl::compat_unique</text>
<text text-anchor="start" x="418.5" y="-295.5" font-family="Helvetica,sans-Serif" font-size="10.00">_ptr&lt; stxxl::completion</text>
<text text-anchor="middle" x="471" y="-282.5" font-family="Helvetica,sans-Serif" font-size="10.00">_handler_impl &gt;</text>
</a>
</g>
<!-- Node12&#45;&gt;Node11 -->
<g id="edge34" class="edge"><title>Node12&#45;&gt;Node11</title>
<path fill="none" stroke="#9a32cd" stroke-dasharray="5,2" d="M541.889,-295.672C583.573,-294.302 635.997,-292.58 677.143,-291.229"/>
<polygon fill="#9a32cd" stroke="#9a32cd" points="541.689,-292.176 531.809,-296.003 541.919,-299.172 541.689,-292.176"/>
<text text-anchor="middle" x="602" y="-299" font-family="Helvetica,sans-Serif" font-size="10.00"> m_ptr</text>
</g>
<!-- Node13 -->
<g id="node30" class="node"><title>Node13</title>
<a xlink:href="structstxxl_1_1compat__unique__ptr.html" target="_top" xlink:title="stxxl::compat_unique\l_ptr\&lt; Type \&gt;">
<polygon fill="none" stroke="black" points="147.5,-281 147.5,-315 260.5,-315 260.5,-281 147.5,-281"/>
<text text-anchor="start" x="155.5" y="-302" font-family="Helvetica,sans-Serif" font-size="10.00">stxxl::compat_unique</text>
<text text-anchor="middle" x="204" y="-289" font-family="Helvetica,sans-Serif" font-size="10.00">_ptr&lt; Type &gt;</text>
</a>
</g>
<!-- Node13&#45;&gt;Node12 -->
<g id="edge36" class="edge"><title>Node13&#45;&gt;Node12</title>
<path fill="none" stroke="orange" stroke-dasharray="5,2" d="M270.671,-298C313.492,-298 368.675,-298 410.278,-298"/>
<polygon fill="orange" stroke="orange" points="270.624,-294.5 260.624,-298 270.624,-301.5 270.624,-294.5"/>
<text text-anchor="start" x="293.5" y="-315" font-family="Helvetica,sans-Serif" font-size="10.00"> &lt; stxxl::completion</text>
<text text-anchor="middle" x="338" y="-302" font-family="Helvetica,sans-Serif" font-size="10.00">_handler_impl &gt;</text>
</g>
<!-- Node14 -->
<g id="node33" class="node"><title>Node14</title>
<a xlink:href="classstxxl_1_1BIDArray.html" target="_top" xlink:title="stxxl::BIDArray\&lt; block\l_type::raw_size \&gt;">
<polygon fill="none" stroke="black" points="997,-89 997,-123 1115,-123 1115,-89 997,-89"/>
<text text-anchor="start" x="1005" y="-110" font-family="Helvetica,sans-Serif" font-size="10.00">stxxl::BIDArray&lt; block</text>
<text text-anchor="middle" x="1056" y="-97" font-family="Helvetica,sans-Serif" font-size="10.00">_type::raw_size &gt;</text>
</a>
</g>
<!-- Node14&#45;&gt;Node5 -->
<g id="edge40" class="edge"><title>Node14&#45;&gt;Node5</title>
<path fill="none" stroke="#9a32cd" stroke-dasharray="5,2" d="M1095.04,-128.355C1137.52,-152.684 1205.17,-191.424 1248.57,-216.277"/>
<polygon fill="#9a32cd" stroke="#9a32cd" points="1096.53,-125.176 1086.11,-123.244 1093.05,-131.251 1096.53,-125.176"/>
<text text-anchor="middle" x="1184" y="-196" font-family="Helvetica,sans-Serif" font-size="10.00"> bids_</text>
</g>
<!-- Node15&#45;&gt;Node14 -->
<g id="edge42" class="edge"><title>Node15&#45;&gt;Node14</title>
<path fill="none" stroke="midnightblue" d="M539.155,-73.838C609.535,-75.9462 722.513,-79.9169 820,-86 880.328,-89.7644 949.188,-95.8002 996.891,-100.258"/>
<polygon fill="midnightblue" stroke="midnightblue" points="539.186,-70.3375 529.087,-73.5404 538.979,-77.3344 539.186,-70.3375"/>
</g>
<!-- Node17 -->
<g id="node41" class="node"><title>Node17</title>
<a xlink:href="classstxxl_1_1BIDArray.html" target="_top" xlink:title="stxxl::BIDArray\&lt; BlockSize \&gt;">
<polygon fill="none" stroke="black" points="670.5,-95.5 670.5,-116.5 819.5,-116.5 819.5,-95.5 670.5,-95.5"/>
<text text-anchor="middle" x="745" y="-103.5" font-family="Helvetica,sans-Serif" font-size="10.00">stxxl::BIDArray&lt; BlockSize &gt;</text>
</a>
</g>
<!-- Node15&#45;&gt;Node17 -->
<g id="edge52" class="edge"><title>Node15&#45;&gt;Node17</title>
<path fill="none" stroke="midnightblue" d="M539.26,-80.4702C579.094,-85.4132 629.394,-91.6547 670.287,-96.729"/>
<polygon fill="midnightblue" stroke="midnightblue" points="539.463,-76.9687 529.108,-79.2105 538.601,-83.9154 539.463,-76.9687"/>
</g>
<!-- Node16&#45;&gt;Node15 -->
<g id="edge46" class="edge"><title>Node16&#45;&gt;Node15</title>
<path fill="none" stroke="orange" stroke-dasharray="5,2" d="M267.734,-80.3743C311.785,-78.5594 369.931,-76.1639 412.745,-74.4"/>
<polygon fill="orange" stroke="orange" points="267.558,-76.8785 257.71,-80.7872 267.846,-83.8725 267.558,-76.8785"/>
<text text-anchor="middle" x="338" y="-83" font-family="Helvetica,sans-Serif" font-size="10.00"> &lt; BID&lt; BlockSize &gt; &gt;</text>
</g>
<!-- Node17&#45;&gt;Node14 -->
<g id="edge50" class="edge"><title>Node17&#45;&gt;Node14</title>
<path fill="none" stroke="orange" stroke-dasharray="5,2" d="M829.938,-106C882.853,-106 949.604,-106 996.816,-106"/>
<polygon fill="orange" stroke="orange" points="829.888,-102.5 819.888,-106 829.888,-109.5 829.888,-102.5"/>
<text text-anchor="middle" x="897" y="-110" font-family="Helvetica,sans-Serif" font-size="10.00"> &lt; block_type::raw_size &gt;</text>
</g>
</g>
</svg>
