<?xml version="1.0" encoding="UTF-8" standalone="no"?>
<!DOCTYPE svg PUBLIC "-//W3C//DTD SVG 1.1//EN"
 "http://www.w3.org/Graphics/SVG/1.1/DTD/svg11.dtd">
<!-- Generated by graphviz version 2.26.3 (20100126.1600)
 -->
<!-- Title: stxxl::stream::make_tuple&lt; Input1, Input2, Input3, Stopper, Stopper, Stopper &gt; Pages: 1 -->
<svg width="632pt" height="144pt"
 viewBox="0.00 0.00 632.00 144.00" xmlns="http://www.w3.org/2000/svg" xmlns:xlink="http://www.w3.org/1999/xlink">
<g id="graph1" class="graph" transform="scale(1 1) rotate(0) translate(4 140)">
<title>stxxl::stream::make_tuple&lt; Input1, Input2, Input3, Stopper, Stopper, Stopper &gt;</title>
<!-- Node1 -->
<g id="node1" class="node"><title>Node1</title>
<polygon fill="#bfbfbf" stroke="black" points="486.5,-31 486.5,-91 623.5,-91 623.5,-31 486.5,-31"/>
<text text-anchor="start" x="494.5" y="-78" font-family="Helvetica,sans-Serif" font-size="10.00">stxxl::stream::make</text>
<text text-anchor="start" x="494.5" y="-65" font-family="Helvetica,sans-Serif" font-size="10.00">_tuple&lt; Input1, Input2,</text>
<text text-anchor="start" x="494.5" y="-52" font-family="Helvetica,sans-Serif" font-size="10.00"> Input3, Stopper, Stopper,</text>
<text text-anchor="middle" x="555" y="-39" font-family="Helvetica,sans-Serif" font-size="10.00"> Stopper &gt;</text>
</g>
<!-- Node2 -->
<g id="node2" class="node"><title>Node2</title>
<a xlink:href="structstxxl_1_1tuple.html" target="_top" xlink:title="stxxl::tuple\&lt; typename\l Input1::value_type, typename\l Input2::value_type, typename\l Input3::value_type \&gt;">
<polygon fill="none" stroke="black" points="256,-31 256,-91 412,-91 412,-31 256,-31"/>
<text text-anchor="start" x="264" y="-78" font-family="Helvetica,sans-Serif" font-size="10.00">stxxl::tuple&lt; typename</text>
<text text-anchor="start" x="264" y="-65" font-family="Helvetica,sans-Serif" font-size="10.00"> Input1::value_type, typename</text>
<text text-anchor="start" x="264" y="-52" font-family="Helvetica,sans-Serif" font-size="10.00"> Input2::value_type, typename</text>
<text text-anchor="middle" x="334" y="-39" font-family="Helvetica,sans-Serif" font-size="10.00"> Input3::value_type &gt;</text>
</a>
</g>
<!-- Node2&#45;&gt;Node1 -->
<g id="edge2" class="edge"><title>Node2&#45;&gt;Node1</title>
<path fill="none" stroke="#9a32cd" stroke-dasharray="5,2" d="M422.272,-61C443.625,-61 466.134,-61 486.427,-61"/>
<polygon fill="#9a32cd" stroke="#9a32cd" points="422.227,-57.5001 412.227,-61 422.227,-64.5001 422.227,-57.5001"/>
<text text-anchor="middle" x="449" y="-65" font-family="Helvetica,sans-Serif" font-size="10.00"> current</text>
</g>
<!-- Node3 -->
<g id="node4" class="node"><title>Node3</title>
<a xlink:href="structstxxl_1_1Plug.html" target="_top" xlink:title="stxxl::Plug">
<polygon fill="none" stroke="black" points="23,-94.5 23,-115.5 85,-115.5 85,-94.5 23,-94.5"/>
<text text-anchor="middle" x="54" y="-102.5" font-family="Helvetica,sans-Serif" font-size="10.00">stxxl::Plug</text>
</a>
</g>
<!-- Node3&#45;&gt;Node2 -->
<g id="edge4" class="edge"><title>Node3&#45;&gt;Node2</title>
<path fill="none" stroke="#9a32cd" stroke-dasharray="5,2" d="M95.0927,-101.349C132.503,-97.7256 189.181,-91.4876 238,-83 243.812,-81.9896 249.801,-80.8519 255.813,-79.6397"/>
<polygon fill="#9a32cd" stroke="#9a32cd" points="94.6986,-97.8702 85.0747,-102.301 95.361,-104.839 94.6986,-97.8702"/>
<text text-anchor="middle" x="182" y="-127" font-family="Helvetica,sans-Serif" font-size="10.00"> fifth</text>
<text text-anchor="middle" x="182" y="-114" font-family="Helvetica,sans-Serif" font-size="10.00">fourth</text>
<text text-anchor="middle" x="182" y="-101" font-family="Helvetica,sans-Serif" font-size="10.00">sixth</text>
</g>
<!-- Node4 -->
<g id="node6" class="node"><title>Node4</title>
<a xlink:href="structstxxl_1_1tuple.html" target="_top" xlink:title="k&#45;Tuple data type ">
<polygon fill="none" stroke="black" points="0.5,-0 0.5,-34 107.5,-34 107.5,-0 0.5,-0"/>
<text text-anchor="start" x="8.5" y="-21" font-family="Helvetica,sans-Serif" font-size="10.00">stxxl::tuple&lt; T1, T2,</text>
<text text-anchor="middle" x="54" y="-8" font-family="Helvetica,sans-Serif" font-size="10.00"> T3, T4, T5, T6 &gt;</text>
</a>
</g>
<!-- Node4&#45;&gt;Node2 -->
<g id="edge6" class="edge"><title>Node4&#45;&gt;Node2</title>
<path fill="none" stroke="orange" stroke-dasharray="5,2" d="M118.157,-8.40888C153.882,-5.49641 198.907,-4.94395 238,-14 253.366,-17.5597 269.112,-23.9371 283.291,-30.8685"/>
<polygon fill="orange" stroke="orange" points="117.51,-4.95276 107.864,-9.33339 118.137,-11.9247 117.51,-4.95276"/>
<text text-anchor="start" x="126" y="-70" font-family="Helvetica,sans-Serif" font-size="10.00"> &lt; typename Input1::</text>
<text text-anchor="start" x="126" y="-57" font-family="Helvetica,sans-Serif" font-size="10.00">value_type, typename</text>
<text text-anchor="start" x="126" y="-44" font-family="Helvetica,sans-Serif" font-size="10.00"> Input2::value_type,</text>
<text text-anchor="start" x="126" y="-31" font-family="Helvetica,sans-Serif" font-size="10.00"> typename Input3::value</text>
<text text-anchor="middle" x="182" y="-18" font-family="Helvetica,sans-Serif" font-size="10.00">_type &gt;</text>
</g>
</g>
</svg>
