<?xml version="1.0" encoding="UTF-8" standalone="no"?>
<!DOCTYPE svg PUBLIC "-//W3C//DTD SVG 1.1//EN"
 "http://www.w3.org/Graphics/SVG/1.1/DTD/svg11.dtd">
<!-- Generated by graphviz version 2.26.3 (20100126.1600)
 -->
<!-- Title: stxxl::column_vector&lt; ValueType &gt; Pages: 1 -->
<svg width="184pt" height="202pt"
 viewBox="0.00 0.00 184.00 202.00" xmlns="http://www.w3.org/2000/svg" xmlns:xlink="http://www.w3.org/1999/xlink">
<g id="graph1" class="graph" transform="scale(1 1) rotate(0) translate(4 198)">
<title>stxxl::column_vector&lt; ValueType &gt;</title>
<!-- Node1 -->
<g id="node1" class="node"><title>Node1</title>
<polygon fill="#bfbfbf" stroke="black" points="33,-1 33,-35 143,-35 143,-1 33,-1"/>
<text text-anchor="start" x="41" y="-22" font-family="Helvetica,sans-Serif" font-size="10.00">stxxl::column_vector</text>
<text text-anchor="middle" x="88" y="-9" font-family="Helvetica,sans-Serif" font-size="10.00">&lt; ValueType &gt;</text>
</g>
<!-- Node2 -->
<g id="node2" class="node"><title>Node2</title>
<a xlink:href="classstxxl_1_1vector.html" target="_top" xlink:title="stxxl::vector\&lt; ValueType \&gt;">
<polygon fill="none" stroke="black" points="18,-74.5 18,-95.5 158,-95.5 158,-74.5 18,-74.5"/>
<text text-anchor="middle" x="88" y="-82.5" font-family="Helvetica,sans-Serif" font-size="10.00">stxxl::vector&lt; ValueType &gt;</text>
</a>
</g>
<!-- Node2&#45;&gt;Node1 -->
<g id="edge2" class="edge"><title>Node2&#45;&gt;Node1</title>
<path fill="none" stroke="midnightblue" d="M88,-64.1655C88,-54.7973 88,-43.8796 88,-35.0139"/>
<polygon fill="midnightblue" stroke="midnightblue" points="84.5001,-64.2353 88,-74.2353 91.5001,-64.2353 84.5001,-64.2353"/>
</g>
<!-- Node3 -->
<g id="node4" class="node"><title>Node3</title>
<a xlink:href="classstxxl_1_1vector.html" target="_top" xlink:title="External vector container. &#160;Introduction to vector container: see STXXL Vector tutorial. &#160;Design and Internals of vector container: see Vector. ">
<polygon fill="none" stroke="black" points="0,-146.5 0,-193.5 176,-193.5 176,-146.5 0,-146.5"/>
<text text-anchor="start" x="8" y="-180.5" font-family="Helvetica,sans-Serif" font-size="10.00">stxxl::vector&lt; ValueType,</text>
<text text-anchor="start" x="8" y="-167.5" font-family="Helvetica,sans-Serif" font-size="10.00"> PageSize, PagerType, BlockSize,</text>
<text text-anchor="middle" x="88" y="-154.5" font-family="Helvetica,sans-Serif" font-size="10.00"> AllocStr, SizeType &gt;</text>
</a>
</g>
<!-- Node3&#45;&gt;Node2 -->
<g id="edge4" class="edge"><title>Node3&#45;&gt;Node2</title>
<path fill="none" stroke="orange" stroke-dasharray="5,2" d="M88,-136.208C88,-121.844 88,-106.093 88,-95.9057"/>
<polygon fill="orange" stroke="orange" points="84.5001,-136.323 88,-146.323 91.5001,-136.323 84.5001,-136.323"/>
<text text-anchor="middle" x="124" y="-118.5" font-family="Helvetica,sans-Serif" font-size="10.00"> &lt; ValueType &gt;</text>
</g>
</g>
</svg>
