<?xml version="1.0" encoding="UTF-8" standalone="no"?>
<!DOCTYPE svg PUBLIC "-//W3C//DTD SVG 1.1//EN"
 "http://www.w3.org/Graphics/SVG/1.1/DTD/svg11.dtd">
<!-- Generated by graphviz version 2.26.3 (20100126.1600)
 -->
<!-- Title: stxxl::block_manager Pages: 1 -->
<svg width="227pt" height="250pt"
 viewBox="0.00 0.00 227.00 250.00" xmlns="http://www.w3.org/2000/svg" xmlns:xlink="http://www.w3.org/1999/xlink">
<g id="graph1" class="graph" transform="scale(1 1) rotate(0) translate(4 246)">
<title>stxxl::block_manager</title>
<!-- Node1 -->
<g id="node1" class="node"><title>Node1</title>
<polygon fill="#bfbfbf" stroke="black" points="2,-0.5 2,-21.5 116,-21.5 116,-0.5 2,-0.5"/>
<text text-anchor="middle" x="59" y="-8.5" font-family="Helvetica,sans-Serif" font-size="10.00">stxxl::block_manager</text>
</g>
<!-- Node2 -->
<g id="node2" class="node"><title>Node2</title>
<a xlink:href="classstxxl_1_1singleton.html" target="_top" xlink:title="stxxl::singleton\&lt; block\l_manager \&gt;">
<polygon fill="none" stroke="black" points="0,-61 0,-95 118,-95 118,-61 0,-61"/>
<text text-anchor="start" x="8" y="-82" font-family="Helvetica,sans-Serif" font-size="10.00">stxxl::singleton&lt; block</text>
<text text-anchor="middle" x="59" y="-69" font-family="Helvetica,sans-Serif" font-size="10.00">_manager &gt;</text>
</a>
</g>
<!-- Node2&#45;&gt;Node1 -->
<g id="edge2" class="edge"><title>Node2&#45;&gt;Node1</title>
<path fill="none" stroke="midnightblue" d="M59,-50.5344C59,-40.3057 59,-29.3007 59,-21.5056"/>
<polygon fill="midnightblue" stroke="midnightblue" points="55.5001,-50.7458 59,-60.7458 62.5001,-50.7459 55.5001,-50.7458"/>
</g>
<!-- Node3 -->
<g id="node4" class="node"><title>Node3</title>
<a xlink:href="classstxxl_1_1noncopyable.html" target="_top" xlink:title="stxxl::noncopyable">
<polygon fill="none" stroke="black" points="23,-220.5 23,-241.5 125,-241.5 125,-220.5 23,-220.5"/>
<text text-anchor="middle" x="74" y="-228.5" font-family="Helvetica,sans-Serif" font-size="10.00">stxxl::noncopyable</text>
</a>
</g>
<!-- Node3&#45;&gt;Node2 -->
<g id="edge4" class="edge"><title>Node3&#45;&gt;Node2</title>
<path fill="none" stroke="#8b1a1a" d="M67.9708,-210.559C65.6667,-201.839 63.2859,-191.502 62,-182 57.8822,-151.57 57.9104,-115.693 58.3941,-95.0224"/>
<polygon fill="#8b1a1a" stroke="#8b1a1a" points="64.6091,-211.534 70.6644,-220.228 71.3523,-209.655 64.6091,-211.534"/>
</g>
<!-- Node4 -->
<g id="node6" class="node"><title>Node4</title>
<a xlink:href="classstxxl_1_1singleton.html" target="_top" xlink:title="stxxl::singleton\&lt; INSTANCE,\l destroy_on_exit \&gt;">
<polygon fill="none" stroke="black" points="70.5,-147 70.5,-181 219.5,-181 219.5,-147 70.5,-147"/>
<text text-anchor="start" x="78.5" y="-168" font-family="Helvetica,sans-Serif" font-size="10.00">stxxl::singleton&lt; INSTANCE,</text>
<text text-anchor="middle" x="145" y="-155" font-family="Helvetica,sans-Serif" font-size="10.00"> destroy_on_exit &gt;</text>
</a>
</g>
<!-- Node3&#45;&gt;Node4 -->
<g id="edge8" class="edge"><title>Node3&#45;&gt;Node4</title>
<path fill="none" stroke="#8b1a1a" d="M92.9042,-213.161C103.465,-203.195 116.554,-190.843 126.97,-181.014"/>
<polygon fill="#8b1a1a" stroke="#8b1a1a" points="90.2782,-210.826 85.4074,-220.235 95.0825,-215.918 90.2782,-210.826"/>
</g>
<!-- Node4&#45;&gt;Node2 -->
<g id="edge6" class="edge"><title>Node4&#45;&gt;Node2</title>
<path fill="none" stroke="orange" stroke-dasharray="5,2" d="M120.519,-139.519C106.321,-125.321 88.7935,-107.794 76.084,-95.084"/>
<polygon fill="orange" stroke="orange" points="118.051,-142 127.597,-146.597 123,-137.051 118.051,-142"/>
<text text-anchor="middle" x="154" y="-118.5" font-family="Helvetica,sans-Serif" font-size="10.00"> &lt; block_manager &gt;</text>
</g>
</g>
</svg>
