<?xml version="1.0" encoding="UTF-8" standalone="no"?>
<!DOCTYPE svg PUBLIC "-//W3C//DTD SVG 1.1//EN"
 "http://www.w3.org/Graphics/SVG/1.1/DTD/svg11.dtd">
<!-- Generated by graphviz version 2.26.3 (20100126.1600)
 -->
<!-- Title: stxxl::disk_queued_file Pages: 1 -->
<svg width="518pt" height="322pt"
 viewBox="0.00 0.00 518.00 322.00" xmlns="http://www.w3.org/2000/svg" xmlns:xlink="http://www.w3.org/1999/xlink">
<g id="graph1" class="graph" transform="scale(1 1) rotate(0) translate(4 318)">
<title>stxxl::disk_queued_file</title>
<!-- Node1 -->
<g id="node1" class="node"><title>Node1</title>
<polygon fill="#bfbfbf" stroke="black" points="230.5,-140.5 230.5,-161.5 351.5,-161.5 351.5,-140.5 230.5,-140.5"/>
<text text-anchor="middle" x="291" y="-148.5" font-family="Helvetica,sans-Serif" font-size="10.00">stxxl::disk_queued_file</text>
</g>
<!-- Node4 -->
<g id="node7" class="node"><title>Node4</title>
<a xlink:href="classstxxl_1_1fileperblock__file.html" target="_top" xlink:title="Implementation of file based on other files, dynamically allocate one file per block. Allows for dynamic disk space consumption. ">
<polygon fill="none" stroke="black" points="388,-280 388,-314 510,-314 510,-280 388,-280"/>
<text text-anchor="start" x="396" y="-301" font-family="Helvetica,sans-Serif" font-size="10.00">stxxl::fileperblock</text>
<text text-anchor="middle" x="449" y="-288" font-family="Helvetica,sans-Serif" font-size="10.00">_file&lt; base_file_type &gt;</text>
</a>
</g>
<!-- Node1&#45;&gt;Node4 -->
<g id="edge6" class="edge"><title>Node1&#45;&gt;Node4</title>
<path fill="none" stroke="midnightblue" d="M302.381,-170.354C318.516,-196.34 350.306,-242.526 388,-271 392.409,-274.331 397.309,-277.327 402.362,-279.996"/>
<polygon fill="midnightblue" stroke="midnightblue" points="305.347,-168.494 297.164,-161.765 299.364,-172.128 305.347,-168.494"/>
</g>
<!-- Node5 -->
<g id="node9" class="node"><title>Node5</title>
<a xlink:href="classstxxl_1_1linuxaio__file.html" target="_top" xlink:title="Implementation of file based on the Linux kernel interface for asynchronous I/O. ">
<polygon fill="none" stroke="black" points="400.5,-240.5 400.5,-261.5 497.5,-261.5 497.5,-240.5 400.5,-240.5"/>
<text text-anchor="middle" x="449" y="-248.5" font-family="Helvetica,sans-Serif" font-size="10.00">stxxl::linuxaio_file</text>
</a>
</g>
<!-- Node1&#45;&gt;Node5 -->
<g id="edge8" class="edge"><title>Node1&#45;&gt;Node5</title>
<path fill="none" stroke="midnightblue" d="M308.636,-169.063C327,-186.972 357.322,-214.111 388,-231 394.639,-234.655 402.055,-237.779 409.367,-240.397"/>
<polygon fill="midnightblue" stroke="midnightblue" points="310.641,-166.121 301.081,-161.553 305.706,-171.085 310.641,-166.121"/>
</g>
<!-- Node6 -->
<g id="node11" class="node"><title>Node6</title>
<a xlink:href="classstxxl_1_1mem__file.html" target="_top" xlink:title="Implementation of file based on new[] and memcpy. ">
<polygon fill="none" stroke="black" points="407,-200.5 407,-221.5 491,-221.5 491,-200.5 407,-200.5"/>
<text text-anchor="middle" x="449" y="-208.5" font-family="Helvetica,sans-Serif" font-size="10.00">stxxl::mem_file</text>
</a>
</g>
<!-- Node1&#45;&gt;Node6 -->
<g id="edge10" class="edge"><title>Node1&#45;&gt;Node6</title>
<path fill="none" stroke="midnightblue" d="M324.346,-165.469C342.947,-173.358 366.611,-183.096 388,-191 396.781,-194.245 406.368,-197.514 415.285,-200.441"/>
<polygon fill="midnightblue" stroke="midnightblue" points="325.691,-162.237 315.12,-161.531 322.944,-168.676 325.691,-162.237"/>
</g>
<!-- Node7 -->
<g id="node13" class="node"><title>Node7</title>
<a xlink:href="classstxxl_1_1mmap__file.html" target="_top" xlink:title="Implementation of memory mapped access file. ">
<polygon fill="none" stroke="black" points="404,-160.5 404,-181.5 494,-181.5 494,-160.5 404,-160.5"/>
<text text-anchor="middle" x="449" y="-168.5" font-family="Helvetica,sans-Serif" font-size="10.00">stxxl::mmap_file</text>
</a>
</g>
<!-- Node1&#45;&gt;Node7 -->
<g id="edge12" class="edge"><title>Node1&#45;&gt;Node7</title>
<path fill="none" stroke="midnightblue" d="M361.95,-159.981C376.24,-161.79 390.885,-163.644 403.988,-165.302"/>
<polygon fill="midnightblue" stroke="midnightblue" points="361.995,-156.459 351.635,-158.675 361.116,-163.404 361.995,-156.459"/>
</g>
<!-- Node8 -->
<g id="node15" class="node"><title>Node8</title>
<a xlink:href="classstxxl_1_1sim__disk__file.html" target="_top" xlink:title="Implementation of disk emulation. ">
<polygon fill="none" stroke="black" points="398,-120.5 398,-141.5 500,-141.5 500,-120.5 398,-120.5"/>
<text text-anchor="middle" x="449" y="-128.5" font-family="Helvetica,sans-Serif" font-size="10.00">stxxl::sim_disk_file</text>
</a>
</g>
<!-- Node1&#45;&gt;Node8 -->
<g id="edge14" class="edge"><title>Node1&#45;&gt;Node8</title>
<path fill="none" stroke="midnightblue" d="M361.742,-142.045C373.878,-140.509 386.278,-138.94 397.777,-137.484"/>
<polygon fill="midnightblue" stroke="midnightblue" points="361.116,-138.596 351.635,-143.325 361.995,-145.541 361.116,-138.596"/>
</g>
<!-- Node9 -->
<g id="node17" class="node"><title>Node9</title>
<a xlink:href="classstxxl_1_1syscall__file.html" target="_top" xlink:title="Implementation of file based on UNIX syscalls. ">
<polygon fill="none" stroke="black" points="402.5,-80.5 402.5,-101.5 495.5,-101.5 495.5,-80.5 402.5,-80.5"/>
<text text-anchor="middle" x="449" y="-88.5" font-family="Helvetica,sans-Serif" font-size="10.00">stxxl::syscall_file</text>
</a>
</g>
<!-- Node1&#45;&gt;Node9 -->
<g id="edge16" class="edge"><title>Node1&#45;&gt;Node9</title>
<path fill="none" stroke="midnightblue" d="M324.346,-136.531C342.947,-128.642 366.611,-118.904 388,-111 396.781,-107.755 406.368,-104.486 415.285,-101.559"/>
<polygon fill="midnightblue" stroke="midnightblue" points="322.944,-133.324 315.12,-140.469 325.691,-139.763 322.944,-133.324"/>
</g>
<!-- Node10 -->
<g id="node19" class="node"><title>Node10</title>
<a xlink:href="classstxxl_1_1wbtl__file.html" target="_top" xlink:title="Implementation of file based on buffered writes and block remapping via a translation layer...">
<polygon fill="none" stroke="black" points="409,-40.5 409,-61.5 489,-61.5 489,-40.5 409,-40.5"/>
<text text-anchor="middle" x="449" y="-48.5" font-family="Helvetica,sans-Serif" font-size="10.00">stxxl::wbtl_file</text>
</a>
</g>
<!-- Node1&#45;&gt;Node10 -->
<g id="edge18" class="edge"><title>Node1&#45;&gt;Node10</title>
<path fill="none" stroke="midnightblue" d="M308.636,-132.937C327,-115.028 357.322,-87.8888 388,-71 394.639,-67.3451 402.055,-64.2208 409.367,-61.603"/>
<polygon fill="midnightblue" stroke="midnightblue" points="305.706,-130.915 301.081,-140.447 310.641,-135.879 305.706,-130.915"/>
</g>
<!-- Node11 -->
<g id="node21" class="node"><title>Node11</title>
<a xlink:href="classstxxl_1_1wincall__file.html" target="_top" xlink:title="Implementation of file based on Windows native I/O calls. ">
<polygon fill="none" stroke="black" points="402.5,-0.5 402.5,-21.5 495.5,-21.5 495.5,-0.5 402.5,-0.5"/>
<text text-anchor="middle" x="449" y="-8.5" font-family="Helvetica,sans-Serif" font-size="10.00">stxxl::wincall_file</text>
</a>
</g>
<!-- Node1&#45;&gt;Node11 -->
<g id="edge20" class="edge"><title>Node1&#45;&gt;Node11</title>
<path fill="none" stroke="midnightblue" d="M301.798,-131.568C317.459,-105.108 348.919,-57.9613 388,-31 393.504,-27.2027 399.779,-24.0867 406.161,-21.5414"/>
<polygon fill="midnightblue" stroke="midnightblue" points="298.724,-129.893 296.759,-140.304 304.787,-133.391 298.724,-129.893"/>
</g>
<!-- Node2 -->
<g id="node2" class="node"><title>Node2</title>
<a xlink:href="classstxxl_1_1file.html" target="_top" xlink:title="Defines interface of file. ">
<polygon fill="none" stroke="black" points="138,-140.5 138,-161.5 194,-161.5 194,-140.5 138,-140.5"/>
<text text-anchor="middle" x="166" y="-148.5" font-family="Helvetica,sans-Serif" font-size="10.00">stxxl::file</text>
</a>
</g>
<!-- Node2&#45;&gt;Node1 -->
<g id="edge2" class="edge"><title>Node2&#45;&gt;Node1</title>
<path fill="none" stroke="midnightblue" d="M204.141,-151C212.436,-151 221.409,-151 230.332,-151"/>
<polygon fill="midnightblue" stroke="midnightblue" points="204.052,-147.5 194.052,-151 204.052,-154.5 204.052,-147.5"/>
</g>
<!-- Node3 -->
<g id="node4" class="node"><title>Node3</title>
<a xlink:href="classstxxl_1_1noncopyable.html" target="_top" xlink:title="stxxl::noncopyable">
<polygon fill="none" stroke="black" points="0,-140.5 0,-161.5 102,-161.5 102,-140.5 0,-140.5"/>
<text text-anchor="middle" x="51" y="-148.5" font-family="Helvetica,sans-Serif" font-size="10.00">stxxl::noncopyable</text>
</a>
</g>
<!-- Node3&#45;&gt;Node2 -->
<g id="edge4" class="edge"><title>Node3&#45;&gt;Node2</title>
<path fill="none" stroke="#8b1a1a" d="M112.191,-151C121.115,-151 129.92,-151 137.741,-151"/>
<polygon fill="#8b1a1a" stroke="#8b1a1a" points="112.11,-147.5 102.11,-151 112.11,-154.5 112.11,-147.5"/>
</g>
</g>
</svg>
