<?xml version="1.0" encoding="UTF-8" standalone="no"?>
<!DOCTYPE svg PUBLIC "-//W3C//DTD SVG 1.1//EN"
 "http://www.w3.org/Graphics/SVG/1.1/DTD/svg11.dtd">
<!-- Generated by graphviz version 2.26.3 (20100126.1600)
 -->
<!-- Title: stxxl::stream::make_tuple&lt; Input1, Input2, Input3, Input4, Stopper, Stopper &gt; Pages: 1 -->
<svg width="626pt" height="146pt"
 viewBox="0.00 0.00 626.00 146.00" xmlns="http://www.w3.org/2000/svg" xmlns:xlink="http://www.w3.org/1999/xlink">
<g id="graph1" class="graph" transform="scale(1 1) rotate(0) translate(4 142)">
<title>stxxl::stream::make_tuple&lt; Input1, Input2, Input3, Input4, Stopper, Stopper &gt;</title>
<!-- Node1 -->
<g id="node1" class="node"><title>Node1</title>
<polygon fill="#bfbfbf" stroke="black" points="490,-37 490,-97 618,-97 618,-37 490,-37"/>
<text text-anchor="start" x="498" y="-84" font-family="Helvetica,sans-Serif" font-size="10.00">stxxl::stream::make</text>
<text text-anchor="start" x="498" y="-71" font-family="Helvetica,sans-Serif" font-size="10.00">_tuple&lt; Input1, Input2,</text>
<text text-anchor="start" x="498" y="-58" font-family="Helvetica,sans-Serif" font-size="10.00"> Input3, Input4, Stopper,</text>
<text text-anchor="middle" x="554" y="-45" font-family="Helvetica,sans-Serif" font-size="10.00"> Stopper &gt;</text>
</g>
<!-- Node2 -->
<g id="node2" class="node"><title>Node2</title>
<a xlink:href="structstxxl_1_1tuple.html" target="_top" xlink:title="stxxl::tuple\&lt; typename\l Input1::value_type, typename\l Input2::value_type, typename\l Input3::value_type, typename\l Input4::value_type \&gt;">
<polygon fill="none" stroke="black" points="260,-30.5 260,-103.5 416,-103.5 416,-30.5 260,-30.5"/>
<text text-anchor="start" x="268" y="-90.5" font-family="Helvetica,sans-Serif" font-size="10.00">stxxl::tuple&lt; typename</text>
<text text-anchor="start" x="268" y="-77.5" font-family="Helvetica,sans-Serif" font-size="10.00"> Input1::value_type, typename</text>
<text text-anchor="start" x="268" y="-64.5" font-family="Helvetica,sans-Serif" font-size="10.00"> Input2::value_type, typename</text>
<text text-anchor="start" x="268" y="-51.5" font-family="Helvetica,sans-Serif" font-size="10.00"> Input3::value_type, typename</text>
<text text-anchor="middle" x="338" y="-38.5" font-family="Helvetica,sans-Serif" font-size="10.00"> Input4::value_type &gt;</text>
</a>
</g>
<!-- Node2&#45;&gt;Node1 -->
<g id="edge2" class="edge"><title>Node2&#45;&gt;Node1</title>
<path fill="none" stroke="#9a32cd" stroke-dasharray="5,2" d="M426.297,-67C447.563,-67 469.884,-67 489.81,-67"/>
<polygon fill="#9a32cd" stroke="#9a32cd" points="426.286,-63.5001 416.286,-67 426.286,-70.5001 426.286,-63.5001"/>
<text text-anchor="middle" x="453" y="-71" font-family="Helvetica,sans-Serif" font-size="10.00"> current</text>
</g>
<!-- Node3 -->
<g id="node4" class="node"><title>Node3</title>
<a xlink:href="structstxxl_1_1Plug.html" target="_top" xlink:title="stxxl::Plug">
<polygon fill="none" stroke="black" points="23,-107.5 23,-128.5 85,-128.5 85,-107.5 23,-107.5"/>
<text text-anchor="middle" x="54" y="-115.5" font-family="Helvetica,sans-Serif" font-size="10.00">stxxl::Plug</text>
</a>
</g>
<!-- Node3&#45;&gt;Node2 -->
<g id="edge4" class="edge"><title>Node3&#45;&gt;Node2</title>
<path fill="none" stroke="#9a32cd" stroke-dasharray="5,2" d="M95.4608,-115.265C133.78,-112.239 192.152,-106.361 242,-96 247.881,-94.7777 253.92,-93.3581 259.969,-91.8167"/>
<polygon fill="#9a32cd" stroke="#9a32cd" points="94.9141,-111.797 85.2082,-116.044 95.4447,-118.776 94.9141,-111.797"/>
<text text-anchor="middle" x="184" y="-129" font-family="Helvetica,sans-Serif" font-size="10.00"> fifth</text>
<text text-anchor="middle" x="184" y="-116" font-family="Helvetica,sans-Serif" font-size="10.00">sixth</text>
</g>
<!-- Node4 -->
<g id="node6" class="node"><title>Node4</title>
<a xlink:href="structstxxl_1_1tuple.html" target="_top" xlink:title="k&#45;Tuple data type ">
<polygon fill="none" stroke="black" points="0.5,-0 0.5,-34 107.5,-34 107.5,-0 0.5,-0"/>
<text text-anchor="start" x="8.5" y="-21" font-family="Helvetica,sans-Serif" font-size="10.00">stxxl::tuple&lt; T1, T2,</text>
<text text-anchor="middle" x="54" y="-8" font-family="Helvetica,sans-Serif" font-size="10.00"> T3, T4, T5, T6 &gt;</text>
</a>
</g>
<!-- Node4&#45;&gt;Node2 -->
<g id="edge6" class="edge"><title>Node4&#45;&gt;Node2</title>
<path fill="none" stroke="orange" stroke-dasharray="5,2" d="M117.976,-10.0682C154.764,-7.87672 201.56,-8.16234 242,-18 253.636,-20.8308 265.455,-25.3087 276.636,-30.4332"/>
<polygon fill="orange" stroke="orange" points="117.622,-6.58401 107.879,-10.7461 118.091,-13.5683 117.622,-6.58401"/>
<text text-anchor="start" x="126.5" y="-87" font-family="Helvetica,sans-Serif" font-size="10.00"> &lt; typename Input1::</text>
<text text-anchor="start" x="126.5" y="-74" font-family="Helvetica,sans-Serif" font-size="10.00">value_type, typename</text>
<text text-anchor="start" x="126.5" y="-61" font-family="Helvetica,sans-Serif" font-size="10.00"> Input2::value_type,</text>
<text text-anchor="start" x="126.5" y="-48" font-family="Helvetica,sans-Serif" font-size="10.00"> typename Input3::value</text>
<text text-anchor="start" x="126.5" y="-35" font-family="Helvetica,sans-Serif" font-size="10.00">_type, typename Input4::</text>
<text text-anchor="middle" x="184" y="-22" font-family="Helvetica,sans-Serif" font-size="10.00">value_type &gt;</text>
</g>
</g>
</svg>
