<?xml version="1.0" encoding="UTF-8" standalone="no"?>
<!DOCTYPE svg PUBLIC "-//W3C//DTD SVG 1.1//EN"
 "http://www.w3.org/Graphics/SVG/1.1/DTD/svg11.dtd">
<!-- Generated by graphviz version 2.26.3 (20100126.1600)
 -->
<!-- Title: stxxl::btree::normal_node&lt; KeyType, KeyCmp, RawSize, BTreeType &gt; Pages: 1 -->
<svg width="3270pt" height="315pt"
 viewBox="0.00 0.00 3270.00 315.25" xmlns="http://www.w3.org/2000/svg" xmlns:xlink="http://www.w3.org/1999/xlink">
<g id="graph1" class="graph" transform="scale(1 1) rotate(0) translate(4 311.251)">
<title>stxxl::btree::normal_node&lt; KeyType, KeyCmp, RawSize, BTreeType &gt;</title>
<!-- Node1 -->
<g id="node1" class="node"><title>Node1</title>
<polygon fill="#bfbfbf" stroke="black" points="3116.5,-227.751 3116.5,-274.751 3261.5,-274.751 3261.5,-227.751 3116.5,-227.751"/>
<text text-anchor="start" x="3124.5" y="-261.751" font-family="Helvetica,sans-Serif" font-size="10.00">stxxl::btree::normal</text>
<text text-anchor="start" x="3124.5" y="-248.751" font-family="Helvetica,sans-Serif" font-size="10.00">_node&lt; KeyType, KeyCmp,</text>
<text text-anchor="middle" x="3189" y="-235.751" font-family="Helvetica,sans-Serif" font-size="10.00"> RawSize, BTreeType &gt;</text>
</g>
<!-- Node2 -->
<g id="node2" class="node"><title>Node2</title>
<a xlink:href="classstxxl_1_1noncopyable.html" target="_top" xlink:title="stxxl::noncopyable">
<polygon fill="none" stroke="black" points="12,-243.751 12,-264.751 114,-264.751 114,-243.751 12,-243.751"/>
<text text-anchor="middle" x="63" y="-251.751" font-family="Helvetica,sans-Serif" font-size="10.00">stxxl::noncopyable</text>
</a>
</g>
<!-- Node2&#45;&gt;Node1 -->
<g id="edge2" class="edge"><title>Node2&#45;&gt;Node1</title>
<path fill="none" stroke="#8b1a1a" d="M104.141,-267.874C155.303,-283.578 245.6,-307.251 325,-307.251 325,-307.251 325,-307.251 2963,-307.251 3020.2,-307.251 3083.21,-290.143 3128.14,-274.838"/>
<polygon fill="#8b1a1a" stroke="#8b1a1a" points="105.034,-264.487 94.4456,-264.849 102.949,-271.169 105.034,-264.487"/>
</g>
<!-- Node10 -->
<g id="node18" class="node"><title>Node10</title>
<a xlink:href="classstxxl_1_1file.html" target="_top" xlink:title="Defines interface of file. ">
<polygon fill="none" stroke="black" points="778,-169.751 778,-190.751 834,-190.751 834,-169.751 778,-169.751"/>
<text text-anchor="middle" x="806" y="-177.751" font-family="Helvetica,sans-Serif" font-size="10.00">stxxl::file</text>
</a>
</g>
<!-- Node2&#45;&gt;Node10 -->
<g id="edge20" class="edge"><title>Node2&#45;&gt;Node10</title>
<path fill="none" stroke="#8b1a1a" d="M124.384,-251.198C189.757,-247.821 296.236,-241.962 388,-235.251 453.855,-230.435 470.295,-228.803 536,-222.251 635.679,-212.313 662.523,-220.34 760,-197.251 766.794,-195.642 773.955,-193.32 780.551,-190.906"/>
<polygon fill="#8b1a1a" stroke="#8b1a1a" points="124.061,-247.71 114.254,-251.719 124.42,-254.701 124.061,-247.71"/>
</g>
<!-- Node12 -->
<g id="node23" class="node"><title>Node12</title>
<a xlink:href="classstxxl_1_1mutex.html" target="_top" xlink:title="stxxl::mutex">
<polygon fill="none" stroke="black" points="290,-204.751 290,-225.751 360,-225.751 360,-204.751 290,-204.751"/>
<text text-anchor="middle" x="325" y="-212.751" font-family="Helvetica,sans-Serif" font-size="10.00">stxxl::mutex</text>
</a>
</g>
<!-- Node2&#45;&gt;Node12 -->
<g id="edge26" class="edge"><title>Node2&#45;&gt;Node12</title>
<path fill="none" stroke="#8b1a1a" d="M124.604,-243.38C131.147,-242.292 137.707,-241.23 144,-240.251 194.623,-232.383 253.409,-224.493 289.912,-219.74"/>
<polygon fill="#8b1a1a" stroke="#8b1a1a" points="123.657,-239.99 114.376,-245.102 124.819,-246.893 123.657,-239.99"/>
</g>
<!-- Node3 -->
<g id="node4" class="node"><title>Node3</title>
<a xlink:href="classstxxl_1_1typed__block.html" target="_top" xlink:title="Block containing elements of fixed length. ">
<polygon fill="none" stroke="black" points="2899,-227.751 2899,-274.751 3027,-274.751 3027,-227.751 2899,-227.751"/>
<text text-anchor="start" x="2907" y="-261.751" font-family="Helvetica,sans-Serif" font-size="10.00">stxxl::typed_block</text>
<text text-anchor="start" x="2907" y="-248.751" font-family="Helvetica,sans-Serif" font-size="10.00">&lt; RawSize, Type, NRef,</text>
<text text-anchor="middle" x="2963" y="-235.751" font-family="Helvetica,sans-Serif" font-size="10.00"> MetaInfoType &gt;</text>
</a>
</g>
<!-- Node3&#45;&gt;Node1 -->
<g id="edge4" class="edge"><title>Node3&#45;&gt;Node1</title>
<path fill="none" stroke="#9a32cd" stroke-dasharray="5,2" d="M3037.45,-251.251C3062.81,-251.251 3091.11,-251.251 3116.32,-251.251"/>
<polygon fill="#9a32cd" stroke="#9a32cd" points="3037.16,-247.752 3027.16,-251.251 3037.16,-254.752 3037.16,-247.752"/>
<text text-anchor="middle" x="3076" y="-255.251" font-family="Helvetica,sans-Serif" font-size="10.00"> m_block</text>
</g>
<!-- Node4 -->
<g id="node6" class="node"><title>Node4</title>
<a xlink:href="classstxxl_1_1mng__local_1_1expand__struct.html" target="_top" xlink:title="stxxl::mng_local::expand\l_struct\&lt; mng_local::block\l_w_info\&lt; Type, RawSize, NRef,\l MetaInfoType \&gt;, RawSize \&gt;">
<polygon fill="none" stroke="black" points="2688,-210.251 2688,-270.251 2852,-270.251 2852,-210.251 2688,-210.251"/>
<text text-anchor="start" x="2696" y="-257.251" font-family="Helvetica,sans-Serif" font-size="10.00">stxxl::mng_local::expand</text>
<text text-anchor="start" x="2696" y="-244.251" font-family="Helvetica,sans-Serif" font-size="10.00">_struct&lt; mng_local::block</text>
<text text-anchor="start" x="2696" y="-231.251" font-family="Helvetica,sans-Serif" font-size="10.00">_w_info&lt; Type, RawSize, NRef,</text>
<text text-anchor="middle" x="2770" y="-218.251" font-family="Helvetica,sans-Serif" font-size="10.00"> MetaInfoType &gt;, RawSize &gt;</text>
</a>
</g>
<!-- Node4&#45;&gt;Node3 -->
<g id="edge6" class="edge"><title>Node4&#45;&gt;Node3</title>
<path fill="none" stroke="midnightblue" d="M2862.42,-245.519C2874.71,-246.22 2887.1,-246.925 2898.77,-247.591"/>
<polygon fill="midnightblue" stroke="midnightblue" points="2862.31,-242.007 2852.13,-244.932 2861.91,-248.996 2862.31,-242.007"/>
</g>
<!-- Node5 -->
<g id="node8" class="node"><title>Node5</title>
<a xlink:href="classstxxl_1_1mng__local_1_1add__filler.html" target="_top" xlink:title="stxxl::mng_local::add\l_filler\&lt; mng_local::block\l_w_info\&lt; Type, RawSize,\l NRef, MetaInfoType \&gt;, RawSize\l&#45;sizeof(mng_local::block_w_info\l\&lt; Type, RawSize, NRef, MetaInfoType \&gt;)\&gt;">
<polygon fill="none" stroke="black" points="2316.5,-69.2514 2316.5,-155.251 2531.5,-155.251 2531.5,-69.2514 2316.5,-69.2514"/>
<text text-anchor="start" x="2324.5" y="-142.251" font-family="Helvetica,sans-Serif" font-size="10.00">stxxl::mng_local::add</text>
<text text-anchor="start" x="2324.5" y="-129.251" font-family="Helvetica,sans-Serif" font-size="10.00">_filler&lt; mng_local::block</text>
<text text-anchor="start" x="2324.5" y="-116.251" font-family="Helvetica,sans-Serif" font-size="10.00">_w_info&lt; Type, RawSize,</text>
<text text-anchor="start" x="2324.5" y="-103.251" font-family="Helvetica,sans-Serif" font-size="10.00"> NRef, MetaInfoType &gt;, RawSize</text>
<text text-anchor="start" x="2324.5" y="-90.2514" font-family="Helvetica,sans-Serif" font-size="10.00">&#45;sizeof(mng_local::block_w_info</text>
<text text-anchor="middle" x="2424" y="-77.2514" font-family="Helvetica,sans-Serif" font-size="10.00">&lt; Type, RawSize, NRef, MetaInfoType &gt;)&gt;</text>
</a>
</g>
<!-- Node5&#45;&gt;Node4 -->
<g id="edge8" class="edge"><title>Node5&#45;&gt;Node4</title>
<path fill="none" stroke="midnightblue" d="M2541.2,-155.609C2589.77,-173.575 2644.9,-193.972 2688.88,-210.241"/>
<polygon fill="midnightblue" stroke="midnightblue" points="2542.17,-152.237 2531.58,-152.05 2539.74,-158.802 2542.17,-152.237"/>
</g>
<!-- Node6 -->
<g id="node10" class="node"><title>Node6</title>
<a xlink:href="classstxxl_1_1mng__local_1_1block__w__info.html" target="_top" xlink:title="stxxl::mng_local::block\l_w_info\&lt; Type, RawSize,\l NRef, MetaInfoType \&gt;">
<polygon fill="none" stroke="black" points="2136.5,-13.7514 2136.5,-60.7514 2271.5,-60.7514 2271.5,-13.7514 2136.5,-13.7514"/>
<text text-anchor="start" x="2144.5" y="-47.7514" font-family="Helvetica,sans-Serif" font-size="10.00">stxxl::mng_local::block</text>
<text text-anchor="start" x="2144.5" y="-34.7514" font-family="Helvetica,sans-Serif" font-size="10.00">_w_info&lt; Type, RawSize,</text>
<text text-anchor="middle" x="2204" y="-21.7514" font-family="Helvetica,sans-Serif" font-size="10.00"> NRef, MetaInfoType &gt;</text>
</a>
</g>
<!-- Node6&#45;&gt;Node5 -->
<g id="edge10" class="edge"><title>Node6&#45;&gt;Node5</title>
<path fill="none" stroke="midnightblue" d="M2281.27,-63.5951C2292.56,-67.4418 2304.35,-71.4608 2316.1,-75.4689"/>
<polygon fill="midnightblue" stroke="midnightblue" points="2282.1,-60.1776 2271.5,-60.2636 2279.84,-66.8032 2282.1,-60.1776"/>
</g>
<!-- Node7 -->
<g id="node12" class="node"><title>Node7</title>
<a xlink:href="classstxxl_1_1mng__local_1_1block__w__bids.html" target="_top" xlink:title="stxxl::mng_local::block\l_w_bids\&lt; Type,((RawSize\l&#45;sizeof(BID\&lt; RawSize \&gt;)*NBids\l&#45;sizeof(MetaInfoType))/sizeof\l(Type)), RawSize, NBids \&gt;">
<polygon fill="none" stroke="black" points="1608,-0.751405 1608,-73.7514 1772,-73.7514 1772,-0.751405 1608,-0.751405"/>
<text text-anchor="start" x="1616" y="-60.7514" font-family="Helvetica,sans-Serif" font-size="10.00">stxxl::mng_local::block</text>
<text text-anchor="start" x="1616" y="-47.7514" font-family="Helvetica,sans-Serif" font-size="10.00">_w_bids&lt; Type,((RawSize</text>
<text text-anchor="start" x="1616" y="-34.7514" font-family="Helvetica,sans-Serif" font-size="10.00">&#45;sizeof(BID&lt; RawSize &gt;)*NBids</text>
<text text-anchor="start" x="1616" y="-21.7514" font-family="Helvetica,sans-Serif" font-size="10.00">&#45;sizeof(MetaInfoType))/sizeof</text>
<text text-anchor="middle" x="1690" y="-8.7514" font-family="Helvetica,sans-Serif" font-size="10.00">(Type)), RawSize, NBids &gt;</text>
</a>
</g>
<!-- Node7&#45;&gt;Node6 -->
<g id="edge12" class="edge"><title>Node7&#45;&gt;Node6</title>
<path fill="none" stroke="midnightblue" d="M1782.2,-12.6175C1798.67,-9.13741 1815.76,-6.11387 1832,-4.2514 1938.12,7.9177 2061.72,-9.24353 2136.35,-23.0237"/>
<polygon fill="midnightblue" stroke="midnightblue" points="1781.06,-9.28383 1772.04,-14.8371 1782.56,-16.1226 1781.06,-9.28383"/>
</g>
<!-- Node17 -->
<g id="node37" class="node"><title>Node17</title>
<a xlink:href="classstxxl_1_1mng__local_1_1block__w__info.html" target="_top" xlink:title="Contains per block information for stxxl::typed_block , not intended for direct use. ">
<polygon fill="none" stroke="black" points="1837.5,-13.7514 1837.5,-60.7514 1972.5,-60.7514 1972.5,-13.7514 1837.5,-13.7514"/>
<text text-anchor="start" x="1845.5" y="-47.7514" font-family="Helvetica,sans-Serif" font-size="10.00">stxxl::mng_local::block</text>
<text text-anchor="start" x="1845.5" y="-34.7514" font-family="Helvetica,sans-Serif" font-size="10.00">_w_info&lt; Type, RawSize,</text>
<text text-anchor="middle" x="1905" y="-21.7514" font-family="Helvetica,sans-Serif" font-size="10.00"> NBids, MetaInfoType &gt;</text>
</a>
</g>
<!-- Node7&#45;&gt;Node17 -->
<g id="edge44" class="edge"><title>Node7&#45;&gt;Node17</title>
<path fill="none" stroke="midnightblue" d="M1782.35,-37.2514C1800.75,-37.2514 1819.76,-37.2514 1837.16,-37.2514"/>
<polygon fill="midnightblue" stroke="midnightblue" points="1782.2,-33.7515 1772.2,-37.2514 1782.2,-40.7515 1782.2,-33.7515"/>
</g>
<!-- Node8 -->
<g id="node14" class="node"><title>Node8</title>
<a xlink:href="classstxxl_1_1mng__local_1_1element__block.html" target="_top" xlink:title="Contains data elements for stxxl::typed_block , not intended for direct use. ">
<polygon fill="none" stroke="black" points="1108,-16.2514 1108,-50.2514 1240,-50.2514 1240,-16.2514 1108,-16.2514"/>
<text text-anchor="start" x="1116" y="-37.2514" font-family="Helvetica,sans-Serif" font-size="10.00">stxxl::mng_local::element</text>
<text text-anchor="middle" x="1174" y="-24.2514" font-family="Helvetica,sans-Serif" font-size="10.00">_block&lt; Type, Size &gt;</text>
</a>
</g>
<!-- Node8&#45;&gt;Node7 -->
<g id="edge14" class="edge"><title>Node8&#45;&gt;Node7</title>
<path fill="none" stroke="midnightblue" d="M1250.32,-33.843C1345.94,-34.5843 1509.18,-35.8497 1607.59,-36.6125"/>
<polygon fill="midnightblue" stroke="midnightblue" points="1250.17,-30.3418 1240.14,-33.7641 1250.11,-37.3416 1250.17,-30.3418"/>
</g>
<!-- Node16 -->
<g id="node33" class="node"><title>Node16</title>
<a xlink:href="classstxxl_1_1mng__local_1_1block__w__bids.html" target="_top" xlink:title="Contains BID references for stxxl::typed_block , not intended for direct use. ">
<polygon fill="none" stroke="black" points="1292,-48.7514 1292,-95.7514 1454,-95.7514 1454,-48.7514 1292,-48.7514"/>
<text text-anchor="start" x="1300" y="-82.7514" font-family="Helvetica,sans-Serif" font-size="10.00">stxxl::mng_local::block</text>
<text text-anchor="start" x="1300" y="-69.7514" font-family="Helvetica,sans-Serif" font-size="10.00">_w_bids&lt; Type, Size, RawSize,</text>
<text text-anchor="middle" x="1373" y="-56.7514" font-family="Helvetica,sans-Serif" font-size="10.00"> NBids &gt;</text>
</a>
</g>
<!-- Node8&#45;&gt;Node16 -->
<g id="edge38" class="edge"><title>Node8&#45;&gt;Node16</title>
<path fill="none" stroke="midnightblue" d="M1250.08,-48.1612C1263.73,-50.8367 1278,-53.6343 1291.79,-56.3368"/>
<polygon fill="midnightblue" stroke="midnightblue" points="1250.75,-44.7265 1240.26,-46.2378 1249.4,-51.5958 1250.75,-44.7265"/>
</g>
<!-- Node9 -->
<g id="node16" class="node"><title>Node9</title>
<a xlink:href="structstxxl_1_1BID.html" target="_top" xlink:title="stxxl::BID\&lt; raw_size \&gt;">
<polygon fill="none" stroke="black" points="1114.5,-122.751 1114.5,-143.751 1233.5,-143.751 1233.5,-122.751 1114.5,-122.751"/>
<text text-anchor="middle" x="1174" y="-130.751" font-family="Helvetica,sans-Serif" font-size="10.00">stxxl::BID&lt; raw_size &gt;</text>
</a>
</g>
<!-- Node9&#45;&gt;Node7 -->
<g id="edge16" class="edge"><title>Node9&#45;&gt;Node7</title>
<path fill="none" stroke="#9a32cd" stroke-dasharray="5,2" d="M1243.97,-136.271C1345.63,-139.749 1528.71,-142.338 1590,-119.251 1615.21,-109.755 1638.76,-91.1435 1656.67,-74.0495"/>
<polygon fill="#9a32cd" stroke="#9a32cd" points="1243.91,-132.766 1233.8,-135.91 1243.67,-139.762 1243.91,-132.766"/>
<text text-anchor="middle" x="1373" y="-143.251" font-family="Helvetica,sans-Serif" font-size="10.00"> ref</text>
</g>
<!-- Node9&#45;&gt;Node16 -->
<g id="edge40" class="edge"><title>Node9&#45;&gt;Node16</title>
<path fill="none" stroke="#9a32cd" stroke-dasharray="5,2" d="M1216.14,-119.492C1229.5,-115.186 1244.35,-110.461 1258,-106.251 1269.14,-102.815 1280.91,-99.2543 1292.5,-95.7892"/>
<polygon fill="#9a32cd" stroke="#9a32cd" points="1214.69,-116.282 1206.25,-122.688 1216.85,-122.942 1214.69,-116.282"/>
<text text-anchor="middle" x="1266" y="-110.251" font-family="Helvetica,sans-Serif" font-size="10.00"> ref</text>
</g>
<!-- Node10&#45;&gt;Node9 -->
<g id="edge18" class="edge"><title>Node10&#45;&gt;Node9</title>
<path fill="none" stroke="#9a32cd" stroke-dasharray="5,2" d="M844.62,-177.336C899.398,-172.936 1002.71,-163.664 1090,-150.251 1101.62,-148.466 1114.06,-146.164 1125.72,-143.834"/>
<polygon fill="#9a32cd" stroke="#9a32cd" points="844.023,-173.872 834.331,-178.15 844.576,-180.85 844.023,-173.872"/>
<text text-anchor="middle" x="959" y="-176.251" font-family="Helvetica,sans-Serif" font-size="10.00"> storage</text>
</g>
<!-- Node15 -->
<g id="node30" class="node"><title>Node15</title>
<a xlink:href="structstxxl_1_1BID.html" target="_top" xlink:title="Block identifier class. ">
<polygon fill="none" stroke="black" points="910,-122.751 910,-143.751 1008,-143.751 1008,-122.751 910,-122.751"/>
<text text-anchor="middle" x="959" y="-130.751" font-family="Helvetica,sans-Serif" font-size="10.00">stxxl::BID&lt; Size &gt;</text>
</a>
</g>
<!-- Node10&#45;&gt;Node15 -->
<g id="edge34" class="edge"><title>Node10&#45;&gt;Node15</title>
<path fill="none" stroke="#9a32cd" stroke-dasharray="5,2" d="M829.896,-164.123C836.791,-160.06 844.486,-156.061 852,-153.251 870.321,-146.402 891.318,-141.822 909.831,-138.795"/>
<polygon fill="#9a32cd" stroke="#9a32cd" points="827.732,-161.347 821.084,-169.596 831.426,-167.293 827.732,-161.347"/>
<text text-anchor="middle" x="872" y="-157.251" font-family="Helvetica,sans-Serif" font-size="10.00"> storage</text>
</g>
<!-- Node11 -->
<g id="node21" class="node"><title>Node11</title>
<a xlink:href="classstxxl_1_1atomic__counted__object.html" target="_top" xlink:title="Provides reference counting abilities for use with counting_ptr with mutex locking. ">
<polygon fill="none" stroke="black" points="554,-163.251 554,-197.251 670,-197.251 670,-163.251 554,-163.251"/>
<text text-anchor="start" x="562" y="-184.251" font-family="Helvetica,sans-Serif" font-size="10.00">stxxl::atomic_counted</text>
<text text-anchor="middle" x="612" y="-171.251" font-family="Helvetica,sans-Serif" font-size="10.00">_object</text>
</a>
</g>
<!-- Node11&#45;&gt;Node10 -->
<g id="edge22" class="edge"><title>Node11&#45;&gt;Node10</title>
<path fill="none" stroke="#9a32cd" stroke-dasharray="5,2" d="M680.42,-180.251C713.911,-180.251 752.394,-180.251 777.838,-180.251"/>
<polygon fill="#9a32cd" stroke="#9a32cd" points="680.206,-176.752 670.206,-180.251 680.206,-183.752 680.206,-176.752"/>
<text text-anchor="middle" x="724" y="-184.251" font-family="Helvetica,sans-Serif" font-size="10.00"> m_request_ref</text>
</g>
<!-- Node12&#45;&gt;Node11 -->
<g id="edge24" class="edge"><title>Node12&#45;&gt;Node11</title>
<path fill="none" stroke="#9a32cd" stroke-dasharray="5,2" d="M370.306,-209.726C419.938,-203.674 499.686,-193.948 553.889,-187.338"/>
<polygon fill="#9a32cd" stroke="#9a32cd" points="369.695,-206.275 360.192,-210.96 370.542,-213.223 369.695,-206.275"/>
<text text-anchor="middle" x="471" y="-209.251" font-family="Helvetica,sans-Serif" font-size="10.00"> m_reference_count_mutex</text>
</g>
<!-- Node13 -->
<g id="node26" class="node"><title>Node13</title>
<a xlink:href="structstxxl_1_1choose__int__types.html" target="_top" xlink:title="stxxl::choose_int_types\l\&lt; my_pointer_size \&gt;">
<polygon fill="none" stroke="black" points="262.5,-152.251 262.5,-186.251 387.5,-186.251 387.5,-152.251 262.5,-152.251"/>
<text text-anchor="start" x="270.5" y="-173.251" font-family="Helvetica,sans-Serif" font-size="10.00">stxxl::choose_int_types</text>
<text text-anchor="middle" x="325" y="-160.251" font-family="Helvetica,sans-Serif" font-size="10.00">&lt; my_pointer_size &gt;</text>
</a>
</g>
<!-- Node13&#45;&gt;Node11 -->
<g id="edge28" class="edge"><title>Node13&#45;&gt;Node11</title>
<path fill="none" stroke="#9a32cd" stroke-dasharray="5,2" d="M397.897,-170.655C438.555,-171.606 490.105,-173.09 536,-175.251 541.812,-175.525 547.871,-175.852 553.92,-176.207"/>
<polygon fill="#9a32cd" stroke="#9a32cd" points="397.883,-167.154 387.805,-170.425 397.723,-174.152 397.883,-167.154"/>
<text text-anchor="middle" x="471" y="-179.251" font-family="Helvetica,sans-Serif" font-size="10.00"> m_reference_count</text>
</g>
<!-- Node14 -->
<g id="node28" class="node"><title>Node14</title>
<a xlink:href="structstxxl_1_1choose__int__types.html" target="_top" xlink:title="stxxl::choose_int_types\l\&lt; PtrSize \&gt;">
<polygon fill="none" stroke="black" points="0.5,-152.251 0.5,-186.251 125.5,-186.251 125.5,-152.251 0.5,-152.251"/>
<text text-anchor="start" x="8.5" y="-173.251" font-family="Helvetica,sans-Serif" font-size="10.00">stxxl::choose_int_types</text>
<text text-anchor="middle" x="63" y="-160.251" font-family="Helvetica,sans-Serif" font-size="10.00">&lt; PtrSize &gt;</text>
</a>
</g>
<!-- Node14&#45;&gt;Node13 -->
<g id="edge30" class="edge"><title>Node14&#45;&gt;Node13</title>
<path fill="none" stroke="orange" stroke-dasharray="5,2" d="M135.913,-169.251C175.636,-169.251 224.295,-169.251 262.303,-169.251"/>
<polygon fill="orange" stroke="orange" points="135.756,-165.752 125.756,-169.251 135.755,-172.752 135.756,-165.752"/>
<text text-anchor="middle" x="194" y="-173.251" font-family="Helvetica,sans-Serif" font-size="10.00"> &lt; my_pointer_size &gt;</text>
</g>
<!-- Node15&#45;&gt;Node9 -->
<g id="edge32" class="edge"><title>Node15&#45;&gt;Node9</title>
<path fill="none" stroke="orange" stroke-dasharray="5,2" d="M1018.36,-133.251C1048.28,-133.251 1084.48,-133.251 1114.43,-133.251"/>
<polygon fill="orange" stroke="orange" points="1018.06,-129.752 1008.06,-133.251 1018.06,-136.752 1018.06,-129.752"/>
<text text-anchor="middle" x="1058" y="-137.251" font-family="Helvetica,sans-Serif" font-size="10.00"> &lt; raw_size &gt;</text>
</g>
<!-- Node16&#45;&gt;Node7 -->
<g id="edge36" class="edge"><title>Node16&#45;&gt;Node7</title>
<path fill="none" stroke="orange" stroke-dasharray="5,2" d="M1464.29,-55.2988C1466.89,-54.9307 1469.46,-54.5804 1472,-54.2514 1516.71,-48.4594 1566.84,-44.3829 1607.76,-41.6767"/>
<polygon fill="orange" stroke="orange" points="1463.58,-51.8661 1454.21,-56.7994 1464.61,-58.7899 1463.58,-51.8661"/>
<text text-anchor="start" x="1472" y="-110.251" font-family="Helvetica,sans-Serif" font-size="10.00"> &lt; Type,((RawSize&#45;sizeof</text>
<text text-anchor="start" x="1472" y="-97.2514" font-family="Helvetica,sans-Serif" font-size="10.00">(BID&lt; RawSize &gt;)*NBids</text>
<text text-anchor="start" x="1472" y="-84.2514" font-family="Helvetica,sans-Serif" font-size="10.00">&#45;sizeof(MetaInfoType))</text>
<text text-anchor="start" x="1472" y="-71.2514" font-family="Helvetica,sans-Serif" font-size="10.00">/sizeof(Type)), RawSize,</text>
<text text-anchor="middle" x="1531" y="-58.2514" font-family="Helvetica,sans-Serif" font-size="10.00"> NBids &gt;</text>
</g>
<!-- Node17&#45;&gt;Node6 -->
<g id="edge42" class="edge"><title>Node17&#45;&gt;Node6</title>
<path fill="none" stroke="orange" stroke-dasharray="5,2" d="M1983.11,-37.2514C2030.69,-37.2514 2090.89,-37.2514 2136.42,-37.2514"/>
<polygon fill="orange" stroke="orange" points="1982.85,-33.7515 1972.85,-37.2514 1982.85,-40.7515 1982.85,-33.7515"/>
<text text-anchor="start" x="1996.5" y="-54.2514" font-family="Helvetica,sans-Serif" font-size="10.00"> &lt; Type, RawSize, NRef,</text>
<text text-anchor="middle" x="2054" y="-41.2514" font-family="Helvetica,sans-Serif" font-size="10.00"> MetaInfoType &gt;</text>
</g>
<!-- Node18 -->
<g id="node40" class="node"><title>Node18</title>
<a xlink:href="classstxxl_1_1mng__local_1_1filler__struct.html" target="_top" xlink:title="stxxl::mng_local::filler\l_struct\&lt; FillSize \&gt;">
<polygon fill="none" stroke="black" points="1633,-166.251 1633,-200.251 1747,-200.251 1747,-166.251 1633,-166.251"/>
<text text-anchor="start" x="1641" y="-187.251" font-family="Helvetica,sans-Serif" font-size="10.00">stxxl::mng_local::filler</text>
<text text-anchor="middle" x="1690" y="-174.251" font-family="Helvetica,sans-Serif" font-size="10.00">_struct&lt; FillSize &gt;</text>
</a>
</g>
<!-- Node18&#45;&gt;Node5 -->
<g id="edge46" class="edge"><title>Node18&#45;&gt;Node5</title>
<path fill="none" stroke="#9a32cd" stroke-dasharray="5,2" d="M1757.22,-170.688C1780.85,-166.34 1807.59,-161.496 1832,-157.251 1904.78,-144.599 1922.56,-138.19 1996,-130.251 2055.29,-123.842 2070.42,-125.922 2130,-123.251 2191.74,-120.484 2260.8,-117.875 2316.46,-115.893"/>
<polygon fill="#9a32cd" stroke="#9a32cd" points="1756.5,-167.261 1747.3,-172.518 1757.77,-174.145 1756.5,-167.261"/>
<text text-anchor="middle" x="2054" y="-134.251" font-family="Helvetica,sans-Serif" font-size="10.00"> filler</text>
</g>
<!-- Node20 -->
<g id="node44" class="node"><title>Node20</title>
<a xlink:href="classstxxl_1_1mng__local_1_1add__filler.html" target="_top" xlink:title="Contains per block filler for stxxl::typed_block , not intended for direct use. ">
<polygon fill="none" stroke="black" points="1832,-166.251 1832,-200.251 1978,-200.251 1978,-166.251 1832,-166.251"/>
<text text-anchor="start" x="1840" y="-187.251" font-family="Helvetica,sans-Serif" font-size="10.00">stxxl::mng_local::add</text>
<text text-anchor="middle" x="1905" y="-174.251" font-family="Helvetica,sans-Serif" font-size="10.00">_filler&lt; BaseType, FillSize &gt;</text>
</a>
</g>
<!-- Node18&#45;&gt;Node20 -->
<g id="edge52" class="edge"><title>Node18&#45;&gt;Node20</title>
<path fill="none" stroke="#9a32cd" stroke-dasharray="5,2" d="M1757.34,-183.251C1781.01,-183.251 1807.71,-183.251 1831.84,-183.251"/>
<polygon fill="#9a32cd" stroke="#9a32cd" points="1757.05,-179.752 1747.05,-183.251 1757.05,-186.752 1757.05,-179.752"/>
<text text-anchor="middle" x="1802" y="-187.251" font-family="Helvetica,sans-Serif" font-size="10.00"> filler</text>
</g>
<!-- Node22 -->
<g id="node49" class="node"><title>Node22</title>
<a xlink:href="classstxxl_1_1mng__local_1_1add__filler.html" target="_top" xlink:title="stxxl::mng_local::add\l_filler\&lt; Type, RawSize\l&#45;sizeof(Type)\&gt;">
<polygon fill="none" stroke="black" points="2143,-231.751 2143,-278.751 2265,-278.751 2265,-231.751 2143,-231.751"/>
<text text-anchor="start" x="2151" y="-265.751" font-family="Helvetica,sans-Serif" font-size="10.00">stxxl::mng_local::add</text>
<text text-anchor="start" x="2151" y="-252.751" font-family="Helvetica,sans-Serif" font-size="10.00">_filler&lt; Type, RawSize</text>
<text text-anchor="middle" x="2204" y="-239.751" font-family="Helvetica,sans-Serif" font-size="10.00">&#45;sizeof(Type)&gt;</text>
</a>
</g>
<!-- Node18&#45;&gt;Node22 -->
<g id="edge58" class="edge"><title>Node18&#45;&gt;Node22</title>
<path fill="none" stroke="#9a32cd" stroke-dasharray="5,2" d="M1757.25,-195.652C1780.88,-199.985 1807.61,-204.862 1832,-209.251 1904.85,-222.362 1922.59,-228.782 1996,-238.251 2045.23,-244.602 2101.34,-249.024 2142.86,-251.763"/>
<polygon fill="#9a32cd" stroke="#9a32cd" points="1757.8,-192.194 1747.33,-193.831 1756.54,-199.079 1757.8,-192.194"/>
<text text-anchor="middle" x="1905" y="-240.251" font-family="Helvetica,sans-Serif" font-size="10.00"> filler</text>
</g>
<!-- Node19 -->
<g id="node42" class="node"><title>Node19</title>
<a xlink:href="classstxxl_1_1mng__local_1_1filler__struct.html" target="_top" xlink:title="stxxl::mng_local::filler\l_struct\&lt; Bytes \&gt;">
<polygon fill="none" stroke="black" points="1316,-166.251 1316,-200.251 1430,-200.251 1430,-166.251 1316,-166.251"/>
<text text-anchor="start" x="1324" y="-187.251" font-family="Helvetica,sans-Serif" font-size="10.00">stxxl::mng_local::filler</text>
<text text-anchor="middle" x="1373" y="-174.251" font-family="Helvetica,sans-Serif" font-size="10.00">_struct&lt; Bytes &gt;</text>
</a>
</g>
<!-- Node19&#45;&gt;Node18 -->
<g id="edge48" class="edge"><title>Node19&#45;&gt;Node18</title>
<path fill="none" stroke="orange" stroke-dasharray="5,2" d="M1440.08,-183.251C1497.31,-183.251 1578.71,-183.251 1632.88,-183.251"/>
<polygon fill="orange" stroke="orange" points="1440.04,-179.752 1430.04,-183.251 1440.04,-186.752 1440.04,-179.752"/>
<text text-anchor="middle" x="1531" y="-187.251" font-family="Helvetica,sans-Serif" font-size="10.00"> &lt; FillSize &gt;</text>
</g>
<!-- Node20&#45;&gt;Node5 -->
<g id="edge50" class="edge"><title>Node20&#45;&gt;Node5</title>
<path fill="none" stroke="orange" stroke-dasharray="5,2" d="M1988.02,-167.57C2030.4,-159.893 2082.84,-150.898 2130,-144.251 2191.52,-135.581 2260.56,-127.958 2316.28,-122.329"/>
<polygon fill="orange" stroke="orange" points="1987.24,-164.155 1978.03,-169.389 1988.49,-171.042 1987.24,-164.155"/>
<text text-anchor="start" x="2130" y="-213.251" font-family="Helvetica,sans-Serif" font-size="10.00"> &lt; mng_local::block</text>
<text text-anchor="start" x="2130" y="-200.251" font-family="Helvetica,sans-Serif" font-size="10.00">_w_info&lt; Type, RawSize,</text>
<text text-anchor="start" x="2130" y="-187.251" font-family="Helvetica,sans-Serif" font-size="10.00"> NRef, MetaInfoType &gt;,</text>
<text text-anchor="start" x="2130" y="-174.251" font-family="Helvetica,sans-Serif" font-size="10.00"> RawSize&#45;sizeof(mng_local</text>
<text text-anchor="start" x="2130" y="-161.251" font-family="Helvetica,sans-Serif" font-size="10.00">::block_w_info&lt; Type, RawSize,</text>
<text text-anchor="middle" x="2204" y="-148.251" font-family="Helvetica,sans-Serif" font-size="10.00"> NRef, MetaInfoType &gt;)&gt;</text>
</g>
<!-- Node20&#45;&gt;Node22 -->
<g id="edge60" class="edge"><title>Node20&#45;&gt;Node22</title>
<path fill="none" stroke="orange" stroke-dasharray="5,2" d="M1988.51,-189.236C2026.72,-193.421 2072.24,-200.463 2112,-212.251 2128.4,-217.112 2145.58,-224.463 2160.59,-231.719"/>
<polygon fill="orange" stroke="orange" points="1988.77,-185.743 1978.46,-188.181 1988.04,-192.705 1988.77,-185.743"/>
<text text-anchor="start" x="1997" y="-229.251" font-family="Helvetica,sans-Serif" font-size="10.00"> &lt; Type, RawSize&#45;sizeof</text>
<text text-anchor="middle" x="2054" y="-216.251" font-family="Helvetica,sans-Serif" font-size="10.00">(Type)&gt;</text>
</g>
<!-- Node21 -->
<g id="node47" class="node"><title>Node21</title>
<a xlink:href="classstxxl_1_1mng__local_1_1expand__struct.html" target="_top" xlink:title="Helper to compute the size of the filler , not intended for direct use. ">
<polygon fill="none" stroke="black" points="2355.5,-227.251 2355.5,-261.251 2492.5,-261.251 2492.5,-227.251 2355.5,-227.251"/>
<text text-anchor="start" x="2363.5" y="-248.251" font-family="Helvetica,sans-Serif" font-size="10.00">stxxl::mng_local::expand</text>
<text text-anchor="middle" x="2424" y="-235.251" font-family="Helvetica,sans-Serif" font-size="10.00">_struct&lt; Type, RawSize &gt;</text>
</a>
</g>
<!-- Node21&#45;&gt;Node4 -->
<g id="edge54" class="edge"><title>Node21&#45;&gt;Node4</title>
<path fill="none" stroke="orange" stroke-dasharray="5,2" d="M2502.82,-242.141C2518.45,-241.789 2534.74,-241.468 2550,-241.251 2595.64,-240.604 2646.61,-240.344 2687.98,-240.249"/>
<polygon fill="orange" stroke="orange" points="2502.57,-238.646 2492.66,-242.377 2502.74,-245.644 2502.57,-238.646"/>
<text text-anchor="start" x="2550.5" y="-284.251" font-family="Helvetica,sans-Serif" font-size="10.00"> &lt; mng_local::block</text>
<text text-anchor="start" x="2550.5" y="-271.251" font-family="Helvetica,sans-Serif" font-size="10.00">_w_info&lt; Type, RawSize,</text>
<text text-anchor="start" x="2550.5" y="-258.251" font-family="Helvetica,sans-Serif" font-size="10.00"> NRef, MetaInfoType &gt;,</text>
<text text-anchor="middle" x="2610" y="-245.251" font-family="Helvetica,sans-Serif" font-size="10.00"> RawSize &gt;</text>
</g>
<!-- Node22&#45;&gt;Node21 -->
<g id="edge56" class="edge"><title>Node22&#45;&gt;Node21</title>
<path fill="none" stroke="midnightblue" d="M2275.32,-251.686C2300.98,-250.402 2329.87,-248.958 2355.3,-247.686"/>
<polygon fill="midnightblue" stroke="midnightblue" points="2275.09,-248.192 2265.28,-252.187 2275.44,-255.183 2275.09,-248.192"/>
</g>
<!-- Node23 -->
<g id="node53" class="node"><title>Node23</title>
<a xlink:href="structstxxl_1_1btree_1_1normal__node_1_1value__compare.html" target="_top" xlink:title="stxxl::btree::normal\l_node\&lt; KeyType, KeyCmp,\l RawSize, BTreeType \&gt;::\lvalue_compare">
<polygon fill="none" stroke="black" points="2890.5,-149.251 2890.5,-209.251 3035.5,-209.251 3035.5,-149.251 2890.5,-149.251"/>
<text text-anchor="start" x="2898.5" y="-196.251" font-family="Helvetica,sans-Serif" font-size="10.00">stxxl::btree::normal</text>
<text text-anchor="start" x="2898.5" y="-183.251" font-family="Helvetica,sans-Serif" font-size="10.00">_node&lt; KeyType, KeyCmp,</text>
<text text-anchor="start" x="2898.5" y="-170.251" font-family="Helvetica,sans-Serif" font-size="10.00"> RawSize, BTreeType &gt;::</text>
<text text-anchor="middle" x="2963" y="-157.251" font-family="Helvetica,sans-Serif" font-size="10.00">value_compare</text>
</a>
</g>
<!-- Node23&#45;&gt;Node1 -->
<g id="edge62" class="edge"><title>Node23&#45;&gt;Node1</title>
<path fill="none" stroke="#9a32cd" stroke-dasharray="5,2" d="M3045.57,-205.556C3068.77,-212.947 3093.81,-220.926 3116.38,-228.117"/>
<polygon fill="#9a32cd" stroke="#9a32cd" points="3046.34,-202.13 3035.75,-202.429 3044.22,-208.799 3046.34,-202.13"/>
<text text-anchor="middle" x="3076" y="-226.251" font-family="Helvetica,sans-Serif" font-size="10.00"> m_vcmp</text>
</g>
</g>
</svg>
