<?xml version="1.0" encoding="UTF-8" standalone="no"?>
<!DOCTYPE svg PUBLIC "-//W3C//DTD SVG 1.1//EN"
 "http://www.w3.org/Graphics/SVG/1.1/DTD/svg11.dtd">
<!-- Generated by graphviz version 2.26.3 (20100126.1600)
 -->
<!-- Title: stxxl::sim_disk_file Pages: 1 -->
<svg width="396pt" height="204pt"
 viewBox="0.00 0.00 396.00 204.00" xmlns="http://www.w3.org/2000/svg" xmlns:xlink="http://www.w3.org/1999/xlink">
<g id="graph1" class="graph" transform="scale(1 1) rotate(0) translate(4 200)">
<title>stxxl::sim_disk_file</title>
<!-- Node1 -->
<g id="node1" class="node"><title>Node1</title>
<polygon fill="#bfbfbf" stroke="black" points="131,-0.5 131,-21.5 233,-21.5 233,-0.5 131,-0.5"/>
<text text-anchor="middle" x="182" y="-8.5" font-family="Helvetica,sans-Serif" font-size="10.00">stxxl::sim_disk_file</text>
</g>
<!-- Node2 -->
<g id="node2" class="node"><title>Node2</title>
<a xlink:href="classstxxl_1_1ufs__file__base.html" target="_top" xlink:title="Base for UNIX file system implementations. ">
<polygon fill="none" stroke="black" points="0,-58.5 0,-79.5 104,-79.5 104,-58.5 0,-58.5"/>
<text text-anchor="middle" x="52" y="-66.5" font-family="Helvetica,sans-Serif" font-size="10.00">stxxl::ufs_file_base</text>
</a>
</g>
<!-- Node2&#45;&gt;Node1 -->
<g id="edge2" class="edge"><title>Node2&#45;&gt;Node1</title>
<path fill="none" stroke="midnightblue" d="M84.8517,-54.3431C107.698,-44.1502 137.626,-30.7977 158.194,-21.6212"/>
<polygon fill="midnightblue" stroke="midnightblue" points="83.2483,-51.2259 75.542,-58.4966 86.1004,-57.6185 83.2483,-51.2259"/>
</g>
<!-- Node3 -->
<g id="node4" class="node"><title>Node3</title>
<a xlink:href="classstxxl_1_1file.html" target="_top" xlink:title="Defines interface of file. ">
<polygon fill="none" stroke="black" points="154,-116.5 154,-137.5 210,-137.5 210,-116.5 154,-116.5"/>
<text text-anchor="middle" x="182" y="-124.5" font-family="Helvetica,sans-Serif" font-size="10.00">stxxl::file</text>
</a>
</g>
<!-- Node3&#45;&gt;Node2 -->
<g id="edge4" class="edge"><title>Node3&#45;&gt;Node2</title>
<path fill="none" stroke="midnightblue" d="M149.148,-112.343C126.302,-102.15 96.3741,-88.7977 75.8062,-79.6212"/>
<polygon fill="midnightblue" stroke="midnightblue" points="147.9,-115.618 158.458,-116.497 150.752,-109.226 147.9,-115.618"/>
</g>
<!-- Node5 -->
<g id="node8" class="node"><title>Node5</title>
<a xlink:href="classstxxl_1_1disk__queued__file.html" target="_top" xlink:title="Implementation of some file methods based on serving_request. ">
<polygon fill="none" stroke="black" points="121.5,-58.5 121.5,-79.5 242.5,-79.5 242.5,-58.5 121.5,-58.5"/>
<text text-anchor="middle" x="182" y="-66.5" font-family="Helvetica,sans-Serif" font-size="10.00">stxxl::disk_queued_file</text>
</a>
</g>
<!-- Node3&#45;&gt;Node5 -->
<g id="edge10" class="edge"><title>Node3&#45;&gt;Node5</title>
<path fill="none" stroke="midnightblue" d="M182,-106.191C182,-97.1684 182,-86.9941 182,-79.5707"/>
<polygon fill="midnightblue" stroke="midnightblue" points="178.5,-106.362 182,-116.362 185.5,-106.362 178.5,-106.362"/>
</g>
<!-- Node4 -->
<g id="node6" class="node"><title>Node4</title>
<a xlink:href="classstxxl_1_1noncopyable.html" target="_top" xlink:title="stxxl::noncopyable">
<polygon fill="none" stroke="black" points="193,-174.5 193,-195.5 295,-195.5 295,-174.5 193,-174.5"/>
<text text-anchor="middle" x="244" y="-182.5" font-family="Helvetica,sans-Serif" font-size="10.00">stxxl::noncopyable</text>
</a>
</g>
<!-- Node4&#45;&gt;Node3 -->
<g id="edge6" class="edge"><title>Node4&#45;&gt;Node3</title>
<path fill="none" stroke="#8b1a1a" d="M225.192,-167.405C214.783,-157.668 202.194,-145.891 193.3,-137.571"/>
<polygon fill="#8b1a1a" stroke="#8b1a1a" points="222.934,-170.086 232.628,-174.362 227.717,-164.974 222.934,-170.086"/>
</g>
<!-- Node7 -->
<g id="node13" class="node"><title>Node7</title>
<a xlink:href="classstxxl_1_1simdisk__geometry.html" target="_top" xlink:title="stxxl::simdisk_geometry">
<polygon fill="none" stroke="black" points="243.5,-116.5 243.5,-137.5 370.5,-137.5 370.5,-116.5 243.5,-116.5"/>
<text text-anchor="middle" x="307" y="-124.5" font-family="Helvetica,sans-Serif" font-size="10.00">stxxl::simdisk_geometry</text>
</a>
</g>
<!-- Node4&#45;&gt;Node7 -->
<g id="edge16" class="edge"><title>Node4&#45;&gt;Node7</title>
<path fill="none" stroke="#8b1a1a" d="M263.112,-167.405C273.688,-157.668 286.48,-145.891 295.518,-137.571"/>
<polygon fill="#8b1a1a" stroke="#8b1a1a" points="260.542,-165.014 255.555,-174.362 265.283,-170.164 260.542,-165.014"/>
</g>
<!-- Node5&#45;&gt;Node1 -->
<g id="edge8" class="edge"><title>Node5&#45;&gt;Node1</title>
<path fill="none" stroke="midnightblue" d="M182,-48.1906C182,-39.1684 182,-28.9941 182,-21.5707"/>
<polygon fill="midnightblue" stroke="midnightblue" points="178.5,-48.3619 182,-58.3619 185.5,-48.3619 178.5,-48.3619"/>
</g>
<!-- Node6 -->
<g id="node11" class="node"><title>Node6</title>
<a xlink:href="classstxxl_1_1IC35L080AVVA07.html" target="_top" xlink:title="stxxl::IC35L080AVVA07">
<polygon fill="none" stroke="black" points="260,-58.5 260,-79.5 388,-79.5 388,-58.5 260,-58.5"/>
<text text-anchor="middle" x="324" y="-66.5" font-family="Helvetica,sans-Serif" font-size="10.00">stxxl::IC35L080AVVA07</text>
</a>
</g>
<!-- Node6&#45;&gt;Node1 -->
<g id="edge12" class="edge"><title>Node6&#45;&gt;Node1</title>
<path fill="none" stroke="midnightblue" d="M288.782,-54.6153C263.745,-44.3889 230.671,-30.8796 208.004,-21.6212"/>
<polygon fill="midnightblue" stroke="midnightblue" points="287.704,-57.9555 298.285,-58.4966 290.351,-51.4752 287.704,-57.9555"/>
</g>
<!-- Node7&#45;&gt;Node6 -->
<g id="edge14" class="edge"><title>Node7&#45;&gt;Node6</title>
<path fill="none" stroke="midnightblue" d="M313.012,-106.488C315.678,-97.3924 318.702,-87.0756 320.902,-79.5707"/>
<polygon fill="midnightblue" stroke="midnightblue" points="309.572,-105.781 310.118,-116.362 316.29,-107.75 309.572,-105.781"/>
</g>
</g>
</svg>
