<?xml version="1.0" encoding="UTF-8" standalone="no"?>
<!DOCTYPE svg PUBLIC "-//W3C//DTD SVG 1.1//EN"
 "http://www.w3.org/Graphics/SVG/1.1/DTD/svg11.dtd">
<!-- Generated by graphviz version 2.26.3 (20100126.1600)
 -->
<!-- Title: stxxl::block_scheduler_algorithm_offline_lfd&lt; SwappableBlockType &gt; Pages: 1 -->
<svg width="192pt" height="186pt"
 viewBox="0.00 0.00 192.00 186.00" xmlns="http://www.w3.org/2000/svg" xmlns:xlink="http://www.w3.org/1999/xlink">
<g id="graph1" class="graph" transform="scale(1 1) rotate(0) translate(4 182)">
<title>stxxl::block_scheduler_algorithm_offline_lfd&lt; SwappableBlockType &gt;</title>
<!-- Node1 -->
<g id="node1" class="node"><title>Node1</title>
<polygon fill="#bfbfbf" stroke="black" points="24,-0.5 24,-47.5 160,-47.5 160,-0.5 24,-0.5"/>
<text text-anchor="start" x="32" y="-34.5" font-family="Helvetica,sans-Serif" font-size="10.00">stxxl::block_scheduler</text>
<text text-anchor="start" x="32" y="-21.5" font-family="Helvetica,sans-Serif" font-size="10.00">_algorithm_offline_lfd</text>
<text text-anchor="middle" x="92" y="-8.5" font-family="Helvetica,sans-Serif" font-size="10.00">&lt; SwappableBlockType &gt;</text>
</g>
<!-- Node2 -->
<g id="node2" class="node"><title>Node2</title>
<a xlink:href="classstxxl_1_1block__scheduler__algorithm.html" target="_top" xlink:title="Interface of a block scheduling algorithm. ">
<polygon fill="none" stroke="black" points="-0.5,-85 -0.5,-119 184.5,-119 184.5,-85 -0.5,-85"/>
<text text-anchor="start" x="7.5" y="-106" font-family="Helvetica,sans-Serif" font-size="10.00">stxxl::block_scheduler</text>
<text text-anchor="middle" x="92" y="-93" font-family="Helvetica,sans-Serif" font-size="10.00">_algorithm&lt; SwappableBlockType &gt;</text>
</a>
</g>
<!-- Node2&#45;&gt;Node1 -->
<g id="edge2" class="edge"><title>Node2&#45;&gt;Node1</title>
<path fill="none" stroke="midnightblue" d="M92,-74.5793C92,-65.8339 92,-56.2342 92,-47.77"/>
<polygon fill="midnightblue" stroke="midnightblue" points="88.5001,-74.6892 92,-84.6893 95.5001,-74.6893 88.5001,-74.6892"/>
</g>
<!-- Node3 -->
<g id="node4" class="node"><title>Node3</title>
<a xlink:href="classstxxl_1_1noncopyable.html" target="_top" xlink:title="stxxl::noncopyable">
<polygon fill="none" stroke="black" points="41,-156.5 41,-177.5 143,-177.5 143,-156.5 41,-156.5"/>
<text text-anchor="middle" x="92" y="-164.5" font-family="Helvetica,sans-Serif" font-size="10.00">stxxl::noncopyable</text>
</a>
</g>
<!-- Node3&#45;&gt;Node2 -->
<g id="edge4" class="edge"><title>Node3&#45;&gt;Node2</title>
<path fill="none" stroke="#8b1a1a" d="M92,-146.131C92,-137.405 92,-127.391 92,-119.11"/>
<polygon fill="#8b1a1a" stroke="#8b1a1a" points="88.5001,-146.267 92,-156.267 95.5001,-146.267 88.5001,-146.267"/>
</g>
</g>
</svg>
