<?xml version="1.0" encoding="UTF-8" standalone="no"?>
<!DOCTYPE svg PUBLIC "-//W3C//DTD SVG 1.1//EN"
 "http://www.w3.org/Graphics/SVG/1.1/DTD/svg11.dtd">
<!-- Generated by graphviz version 2.26.3 (20100126.1600)
 -->
<!-- Title: stxxl::fileperblock_file&lt; base_file_type &gt; Pages: 1 -->
<svg width="130pt" height="218pt"
 viewBox="0.00 0.00 130.00 218.00" xmlns="http://www.w3.org/2000/svg" xmlns:xlink="http://www.w3.org/1999/xlink">
<g id="graph1" class="graph" transform="scale(1 1) rotate(0) translate(4 214)">
<title>stxxl::fileperblock_file&lt; base_file_type &gt;</title>
<!-- Node1 -->
<g id="node1" class="node"><title>Node1</title>
<polygon fill="#bfbfbf" stroke="black" points="0,-1 0,-35 122,-35 122,-1 0,-1"/>
<text text-anchor="start" x="8" y="-22" font-family="Helvetica,sans-Serif" font-size="10.00">stxxl::fileperblock</text>
<text text-anchor="middle" x="61" y="-9" font-family="Helvetica,sans-Serif" font-size="10.00">_file&lt; base_file_type &gt;</text>
</g>
<!-- Node2 -->
<g id="node2" class="node"><title>Node2</title>
<a xlink:href="classstxxl_1_1disk__queued__file.html" target="_top" xlink:title="Implementation of some file methods based on serving_request. ">
<polygon fill="none" stroke="black" points="0.5,-72.5 0.5,-93.5 121.5,-93.5 121.5,-72.5 0.5,-72.5"/>
<text text-anchor="middle" x="61" y="-80.5" font-family="Helvetica,sans-Serif" font-size="10.00">stxxl::disk_queued_file</text>
</a>
</g>
<!-- Node2&#45;&gt;Node1 -->
<g id="edge2" class="edge"><title>Node2&#45;&gt;Node1</title>
<path fill="none" stroke="midnightblue" d="M61,-62.1306C61,-53.4049 61,-43.3908 61,-35.1099"/>
<polygon fill="midnightblue" stroke="midnightblue" points="57.5001,-62.2665 61,-72.2666 64.5001,-62.2666 57.5001,-62.2665"/>
</g>
<!-- Node3 -->
<g id="node4" class="node"><title>Node3</title>
<a xlink:href="classstxxl_1_1file.html" target="_top" xlink:title="Defines interface of file. ">
<polygon fill="none" stroke="black" points="33,-130.5 33,-151.5 89,-151.5 89,-130.5 33,-130.5"/>
<text text-anchor="middle" x="61" y="-138.5" font-family="Helvetica,sans-Serif" font-size="10.00">stxxl::file</text>
</a>
</g>
<!-- Node3&#45;&gt;Node2 -->
<g id="edge4" class="edge"><title>Node3&#45;&gt;Node2</title>
<path fill="none" stroke="midnightblue" d="M61,-120.191C61,-111.168 61,-100.994 61,-93.5707"/>
<polygon fill="midnightblue" stroke="midnightblue" points="57.5001,-120.362 61,-130.362 64.5001,-120.362 57.5001,-120.362"/>
</g>
<!-- Node4 -->
<g id="node6" class="node"><title>Node4</title>
<a xlink:href="classstxxl_1_1noncopyable.html" target="_top" xlink:title="stxxl::noncopyable">
<polygon fill="none" stroke="black" points="10,-188.5 10,-209.5 112,-209.5 112,-188.5 10,-188.5"/>
<text text-anchor="middle" x="61" y="-196.5" font-family="Helvetica,sans-Serif" font-size="10.00">stxxl::noncopyable</text>
</a>
</g>
<!-- Node4&#45;&gt;Node3 -->
<g id="edge6" class="edge"><title>Node4&#45;&gt;Node3</title>
<path fill="none" stroke="#8b1a1a" d="M61,-178.191C61,-169.168 61,-158.994 61,-151.571"/>
<polygon fill="#8b1a1a" stroke="#8b1a1a" points="57.5001,-178.362 61,-188.362 64.5001,-178.362 57.5001,-178.362"/>
</g>
</g>
</svg>
