<?xml version="1.0" encoding="UTF-8" standalone="no"?>
<!DOCTYPE svg PUBLIC "-//W3C//DTD SVG 1.1//EN"
 "http://www.w3.org/Graphics/SVG/1.1/DTD/svg11.dtd">
<!-- Generated by graphviz version 2.26.3 (20100126.1600)
 -->
<!-- Title: stxxl::logger Pages: 1 -->
<svg width="234pt" height="236pt"
 viewBox="0.00 0.00 234.00 236.00" xmlns="http://www.w3.org/2000/svg" xmlns:xlink="http://www.w3.org/1999/xlink">
<g id="graph1" class="graph" transform="scale(1 1) rotate(0) translate(4 232)">
<title>stxxl::logger</title>
<!-- Node1 -->
<g id="node1" class="node"><title>Node1</title>
<polygon fill="#bfbfbf" stroke="black" points="30,-0.5 30,-21.5 102,-21.5 102,-0.5 30,-0.5"/>
<text text-anchor="middle" x="66" y="-8.5" font-family="Helvetica,sans-Serif" font-size="10.00">stxxl::logger</text>
</g>
<!-- Node2 -->
<g id="node2" class="node"><title>Node2</title>
<a xlink:href="classstxxl_1_1singleton.html" target="_top" xlink:title="stxxl::singleton\&lt; logger \&gt;">
<polygon fill="none" stroke="black" points="-0.5,-60.5 -0.5,-81.5 132.5,-81.5 132.5,-60.5 -0.5,-60.5"/>
<text text-anchor="middle" x="66" y="-68.5" font-family="Helvetica,sans-Serif" font-size="10.00">stxxl::singleton&lt; logger &gt;</text>
</a>
</g>
<!-- Node2&#45;&gt;Node1 -->
<g id="edge2" class="edge"><title>Node2&#45;&gt;Node1</title>
<path fill="none" stroke="midnightblue" d="M66,-50.2312C66,-40.5922 66,-29.5444 66,-21.6339"/>
<polygon fill="midnightblue" stroke="midnightblue" points="62.5001,-50.2732 66,-60.2732 69.5001,-50.2732 62.5001,-50.2732"/>
</g>
<!-- Node3 -->
<g id="node4" class="node"><title>Node3</title>
<a xlink:href="classstxxl_1_1noncopyable.html" target="_top" xlink:title="stxxl::noncopyable">
<polygon fill="none" stroke="black" points="30,-206.5 30,-227.5 132,-227.5 132,-206.5 30,-206.5"/>
<text text-anchor="middle" x="81" y="-214.5" font-family="Helvetica,sans-Serif" font-size="10.00">stxxl::noncopyable</text>
</a>
</g>
<!-- Node3&#45;&gt;Node2 -->
<g id="edge4" class="edge"><title>Node3&#45;&gt;Node2</title>
<path fill="none" stroke="#8b1a1a" d="M74.9805,-196.558C72.6781,-187.838 70.2958,-177.501 69,-168 64.7425,-136.783 65.1042,-99.4142 65.6085,-81.5381"/>
<polygon fill="#8b1a1a" stroke="#8b1a1a" points="71.6184,-197.531 77.671,-206.227 78.3622,-195.655 71.6184,-197.531"/>
</g>
<!-- Node4 -->
<g id="node6" class="node"><title>Node4</title>
<a xlink:href="classstxxl_1_1singleton.html" target="_top" xlink:title="stxxl::singleton\&lt; INSTANCE,\l destroy_on_exit \&gt;">
<polygon fill="none" stroke="black" points="77.5,-133 77.5,-167 226.5,-167 226.5,-133 77.5,-133"/>
<text text-anchor="start" x="85.5" y="-154" font-family="Helvetica,sans-Serif" font-size="10.00">stxxl::singleton&lt; INSTANCE,</text>
<text text-anchor="middle" x="152" y="-141" font-family="Helvetica,sans-Serif" font-size="10.00"> destroy_on_exit &gt;</text>
</a>
</g>
<!-- Node3&#45;&gt;Node4 -->
<g id="edge8" class="edge"><title>Node3&#45;&gt;Node4</title>
<path fill="none" stroke="#8b1a1a" d="M99.9042,-199.161C110.465,-189.195 123.554,-176.843 133.97,-167.014"/>
<polygon fill="#8b1a1a" stroke="#8b1a1a" points="97.2782,-196.826 92.4074,-206.235 102.083,-201.918 97.2782,-196.826"/>
</g>
<!-- Node4&#45;&gt;Node2 -->
<g id="edge6" class="edge"><title>Node4&#45;&gt;Node2</title>
<path fill="none" stroke="orange" stroke-dasharray="5,2" d="M125.771,-125.906C109.642,-111.09 89.7801,-92.8445 77.5035,-81.5672"/>
<polygon fill="orange" stroke="orange" points="123.607,-128.671 133.339,-132.858 128.343,-123.516 123.607,-128.671"/>
<text text-anchor="middle" x="137" y="-104.5" font-family="Helvetica,sans-Serif" font-size="10.00"> &lt; logger &gt;</text>
</g>
</g>
</svg>
