<?xml version="1.0" encoding="UTF-8" standalone="no"?>
<!DOCTYPE svg PUBLIC "-//W3C//DTD SVG 1.1//EN"
 "http://www.w3.org/Graphics/SVG/1.1/DTD/svg11.dtd">
<!-- Generated by graphviz version 2.26.3 (20100126.1600)
 -->
<!-- Title: stxxl::stream::runs_merger&lt; RunsType, CompareType, AllocStr &gt; Pages: 1 -->
<svg width="848pt" height="148pt"
 viewBox="0.00 0.00 848.00 148.00" xmlns="http://www.w3.org/2000/svg" xmlns:xlink="http://www.w3.org/1999/xlink">
<g id="graph1" class="graph" transform="scale(1 1) rotate(0) translate(4 144)">
<title>stxxl::stream::runs_merger&lt; RunsType, CompareType, AllocStr &gt;</title>
<!-- Node1 -->
<g id="node1" class="node"><title>Node1</title>
<polygon fill="#bfbfbf" stroke="black" points="320,-52.5 320,-99.5 482,-99.5 482,-52.5 320,-52.5"/>
<text text-anchor="start" x="328" y="-86.5" font-family="Helvetica,sans-Serif" font-size="10.00">stxxl::stream::runs</text>
<text text-anchor="start" x="328" y="-73.5" font-family="Helvetica,sans-Serif" font-size="10.00">_merger&lt; RunsType, Compare</text>
<text text-anchor="middle" x="401" y="-60.5" font-family="Helvetica,sans-Serif" font-size="10.00">Type, AllocStr &gt;</text>
</g>
<!-- Node4 -->
<g id="node7" class="node"><title>Node4</title>
<a xlink:href="classstxxl_1_1stream_1_1runs__merger.html" target="_top" xlink:title="stxxl::stream::runs\l_merger\&lt; sorted_runs\l_type, CompareType, AllocStr \&gt;">
<polygon fill="none" stroke="black" points="674,-92.5 674,-139.5 840,-139.5 840,-92.5 674,-92.5"/>
<text text-anchor="start" x="682" y="-126.5" font-family="Helvetica,sans-Serif" font-size="10.00">stxxl::stream::runs</text>
<text text-anchor="start" x="682" y="-113.5" font-family="Helvetica,sans-Serif" font-size="10.00">_merger&lt; sorted_runs</text>
<text text-anchor="middle" x="757" y="-100.5" font-family="Helvetica,sans-Serif" font-size="10.00">_type, CompareType, AllocStr &gt;</text>
</a>
</g>
<!-- Node1&#45;&gt;Node4 -->
<g id="edge6" class="edge"><title>Node1&#45;&gt;Node4</title>
<path fill="none" stroke="orange" stroke-dasharray="5,2" d="M492.297,-92.927C494.89,-93.3026 497.462,-93.6614 500,-94 557.815,-101.713 623.328,-107.272 673.738,-110.873"/>
<polygon fill="orange" stroke="orange" points="492.623,-89.4366 482.212,-91.4022 491.576,-96.3579 492.623,-89.4366"/>
<text text-anchor="start" x="517.5" y="-126" font-family="Helvetica,sans-Serif" font-size="10.00"> &lt; sorted_runs_type,</text>
<text text-anchor="middle" x="578" y="-113" font-family="Helvetica,sans-Serif" font-size="10.00"> CompareType, AllocStr &gt;</text>
</g>
<!-- Node5 -->
<g id="node9" class="node"><title>Node5</title>
<a xlink:href="classstxxl_1_1stream_1_1runs__merger.html" target="_top" xlink:title="stxxl::stream::runs\l_merger\&lt; typename runs\l_creator_type::sorted\l_runs_type, cmp_type, alloc\l_strategy_type \&gt;">
<polygon fill="none" stroke="black" points="683.5,-0.5 683.5,-73.5 830.5,-73.5 830.5,-0.5 683.5,-0.5"/>
<text text-anchor="start" x="691.5" y="-60.5" font-family="Helvetica,sans-Serif" font-size="10.00">stxxl::stream::runs</text>
<text text-anchor="start" x="691.5" y="-47.5" font-family="Helvetica,sans-Serif" font-size="10.00">_merger&lt; typename runs</text>
<text text-anchor="start" x="691.5" y="-34.5" font-family="Helvetica,sans-Serif" font-size="10.00">_creator_type::sorted</text>
<text text-anchor="start" x="691.5" y="-21.5" font-family="Helvetica,sans-Serif" font-size="10.00">_runs_type, cmp_type, alloc</text>
<text text-anchor="middle" x="757" y="-8.5" font-family="Helvetica,sans-Serif" font-size="10.00">_strategy_type &gt;</text>
</a>
</g>
<!-- Node1&#45;&gt;Node5 -->
<g id="edge8" class="edge"><title>Node1&#45;&gt;Node5</title>
<path fill="none" stroke="orange" stroke-dasharray="5,2" d="M492.264,-56.1531C494.867,-55.7438 497.45,-55.358 500,-55 561.457,-46.3724 631.79,-41.8094 683.325,-39.4394"/>
<polygon fill="orange" stroke="orange" points="491.437,-52.7427 482.149,-57.8391 492.588,-59.6474 491.437,-52.7427"/>
<text text-anchor="start" x="500" y="-85" font-family="Helvetica,sans-Serif" font-size="10.00"> &lt; typename runs_creator</text>
<text text-anchor="start" x="500" y="-72" font-family="Helvetica,sans-Serif" font-size="10.00">_type::sorted_runs_type,</text>
<text text-anchor="middle" x="578" y="-59" font-family="Helvetica,sans-Serif" font-size="10.00"> cmp_type, alloc_strategy_type &gt;</text>
</g>
<!-- Node2 -->
<g id="node2" class="node"><title>Node2</title>
<a xlink:href="classstxxl_1_1stream_1_1basic__runs__merger.html" target="_top" xlink:title="Merges sorted runs. ">
<polygon fill="none" stroke="black" points="140,-52.5 140,-99.5 282,-99.5 282,-52.5 140,-52.5"/>
<text text-anchor="start" x="148" y="-86.5" font-family="Helvetica,sans-Serif" font-size="10.00">stxxl::stream::basic</text>
<text text-anchor="start" x="148" y="-73.5" font-family="Helvetica,sans-Serif" font-size="10.00">_runs_merger&lt; RunsType,</text>
<text text-anchor="middle" x="211" y="-60.5" font-family="Helvetica,sans-Serif" font-size="10.00"> CompareType, AllocStr &gt;</text>
</a>
</g>
<!-- Node2&#45;&gt;Node1 -->
<g id="edge2" class="edge"><title>Node2&#45;&gt;Node1</title>
<path fill="none" stroke="midnightblue" d="M292.246,-76C301.386,-76 310.7,-76 319.839,-76"/>
<polygon fill="midnightblue" stroke="midnightblue" points="292.019,-72.5001 282.019,-76 292.019,-79.5001 292.019,-72.5001"/>
</g>
<!-- Node3 -->
<g id="node4" class="node"><title>Node3</title>
<a xlink:href="classstxxl_1_1noncopyable.html" target="_top" xlink:title="stxxl::noncopyable">
<polygon fill="none" stroke="black" points="0,-65.5 0,-86.5 102,-86.5 102,-65.5 0,-65.5"/>
<text text-anchor="middle" x="51" y="-73.5" font-family="Helvetica,sans-Serif" font-size="10.00">stxxl::noncopyable</text>
</a>
</g>
<!-- Node3&#45;&gt;Node2 -->
<g id="edge4" class="edge"><title>Node3&#45;&gt;Node2</title>
<path fill="none" stroke="#8b1a1a" d="M112.091,-76C121.123,-76 130.496,-76 139.712,-76"/>
<polygon fill="#8b1a1a" stroke="#8b1a1a" points="112.065,-72.5001 102.065,-76 112.065,-79.5001 112.065,-72.5001"/>
</g>
</g>
</svg>
