<?xml version="1.0" encoding="UTF-8" standalone="no"?>
<!DOCTYPE svg PUBLIC "-//W3C//DTD SVG 1.1//EN"
 "http://www.w3.org/Graphics/SVG/1.1/DTD/svg11.dtd">
<!-- Generated by graphviz version 2.26.3 (20100126.1600)
 -->
<!-- Title: stxxl::disk_allocator Pages: 1 -->
<svg width="427pt" height="360pt"
 viewBox="0.00 0.00 427.00 360.00" xmlns="http://www.w3.org/2000/svg" xmlns:xlink="http://www.w3.org/1999/xlink">
<g id="graph1" class="graph" transform="scale(1 1) rotate(0) translate(4 356)">
<title>stxxl::disk_allocator</title>
<!-- Node1 -->
<g id="node1" class="node"><title>Node1</title>
<polygon fill="#bfbfbf" stroke="black" points="-0.5,-0.5 -0.5,-21.5 106.5,-21.5 106.5,-0.5 -0.5,-0.5"/>
<text text-anchor="middle" x="53" y="-8.5" font-family="Helvetica,sans-Serif" font-size="10.00">stxxl::disk_allocator</text>
</g>
<!-- Node2 -->
<g id="node2" class="node"><title>Node2</title>
<a xlink:href="classstxxl_1_1noncopyable.html" target="_top" xlink:title="stxxl::noncopyable">
<polygon fill="none" stroke="black" points="31,-323.5 31,-344.5 133,-344.5 133,-323.5 31,-323.5"/>
<text text-anchor="middle" x="82" y="-331.5" font-family="Helvetica,sans-Serif" font-size="10.00">stxxl::noncopyable</text>
</a>
</g>
<!-- Node2&#45;&gt;Node1 -->
<g id="edge2" class="edge"><title>Node2&#45;&gt;Node1</title>
<path fill="none" stroke="#8b1a1a" d="M57.6486,-317.064C38.4868,-301.552 15,-276.687 15,-248 15,-248 15,-248 15,-83 15,-58.972 31.7572,-35.1057 43.0159,-21.7822"/>
<polygon fill="#8b1a1a" stroke="#8b1a1a" points="55.7205,-319.997 65.7812,-323.318 59.9878,-314.448 55.7205,-319.997"/>
</g>
<!-- Node3 -->
<g id="node4" class="node"><title>Node3</title>
<a xlink:href="classstxxl_1_1file.html" target="_top" xlink:title="Defines interface of file. ">
<polygon fill="none" stroke="black" points="113,-72.5 113,-93.5 169,-93.5 169,-72.5 113,-72.5"/>
<text text-anchor="middle" x="141" y="-80.5" font-family="Helvetica,sans-Serif" font-size="10.00">stxxl::file</text>
</a>
</g>
<!-- Node2&#45;&gt;Node3 -->
<g id="edge6" class="edge"><title>Node2&#45;&gt;Node3</title>
<path fill="none" stroke="#8b1a1a" d="M110.141,-318.354C142.653,-298.472 194.437,-260.793 216,-212 233.965,-171.348 241.129,-148.659 216,-112 210.396,-103.825 187.933,-95.7961 169.038,-90.2669"/>
<polygon fill="#8b1a1a" stroke="#8b1a1a" points="108.325,-315.361 101.523,-323.484 111.906,-321.376 108.325,-315.361"/>
</g>
<!-- Node5 -->
<g id="node9" class="node"><title>Node5</title>
<a xlink:href="classstxxl_1_1mutex.html" target="_top" xlink:title="stxxl::mutex">
<polygon fill="none" stroke="black" points="47,-237.5 47,-258.5 117,-258.5 117,-237.5 47,-237.5"/>
<text text-anchor="middle" x="82" y="-245.5" font-family="Helvetica,sans-Serif" font-size="10.00">stxxl::mutex</text>
</a>
</g>
<!-- Node2&#45;&gt;Node5 -->
<g id="edge12" class="edge"><title>Node2&#45;&gt;Node5</title>
<path fill="none" stroke="#8b1a1a" d="M82,-313.256C82,-296.026 82,-272.215 82,-258.632"/>
<polygon fill="#8b1a1a" stroke="#8b1a1a" points="78.5001,-313.455 82,-323.455 85.5001,-313.455 78.5001,-313.455"/>
</g>
<!-- Node3&#45;&gt;Node1 -->
<g id="edge4" class="edge"><title>Node3&#45;&gt;Node1</title>
<path fill="none" stroke="#9a32cd" stroke-dasharray="5,2" d="M119.889,-65.7275C103.129,-52.0146 80.228,-33.2774 66.038,-21.6674"/>
<polygon fill="#9a32cd" stroke="#9a32cd" points="118.059,-68.7526 128.015,-72.3762 122.492,-63.3349 118.059,-68.7526"/>
<text text-anchor="middle" x="125" y="-44.5" font-family="Helvetica,sans-Serif" font-size="10.00"> storage</text>
</g>
<!-- Node4 -->
<g id="node7" class="node"><title>Node4</title>
<a xlink:href="classstxxl_1_1atomic__counted__object.html" target="_top" xlink:title="Provides reference counting abilities for use with counting_ptr with mutex locking. ">
<polygon fill="none" stroke="black" points="83,-145 83,-179 199,-179 199,-145 83,-145"/>
<text text-anchor="start" x="91" y="-166" font-family="Helvetica,sans-Serif" font-size="10.00">stxxl::atomic_counted</text>
<text text-anchor="middle" x="141" y="-153" font-family="Helvetica,sans-Serif" font-size="10.00">_object</text>
</a>
</g>
<!-- Node4&#45;&gt;Node3 -->
<g id="edge8" class="edge"><title>Node4&#45;&gt;Node3</title>
<path fill="none" stroke="#9a32cd" stroke-dasharray="5,2" d="M141,-134.623C141,-120.473 141,-104.024 141,-93.5672"/>
<polygon fill="#9a32cd" stroke="#9a32cd" points="137.5,-134.858 141,-144.858 144.5,-134.858 137.5,-134.858"/>
<text text-anchor="middle" x="177" y="-116.5" font-family="Helvetica,sans-Serif" font-size="10.00"> m_request_ref</text>
</g>
<!-- Node5&#45;&gt;Node1 -->
<g id="edge18" class="edge"><title>Node5&#45;&gt;Node1</title>
<path fill="none" stroke="#9a32cd" stroke-dasharray="5,2" d="M79.4514,-227.172C73.4793,-178.365 58.7495,-57.9875 54.296,-21.5918"/>
<polygon fill="#9a32cd" stroke="#9a32cd" points="75.9898,-227.7 80.6786,-237.201 82.938,-226.85 75.9898,-227.7"/>
<text text-anchor="middle" x="82.5" y="-116.5" font-family="Helvetica,sans-Serif" font-size="10.00"> mutex</text>
</g>
<!-- Node5&#45;&gt;Node4 -->
<g id="edge10" class="edge"><title>Node5&#45;&gt;Node4</title>
<path fill="none" stroke="#9a32cd" stroke-dasharray="5,2" d="M80.1757,-227.03C80.2975,-217.562 81.8314,-206.599 87,-198 91.5278,-190.468 98.3095,-184.183 105.551,-179.086"/>
<polygon fill="#9a32cd" stroke="#9a32cd" points="76.6854,-227.361 80.5483,-237.227 83.6807,-227.105 76.6854,-227.361"/>
<text text-anchor="middle" x="151.5" y="-202.5" font-family="Helvetica,sans-Serif" font-size="10.00"> m_reference_count_mutex</text>
</g>
<!-- Node6 -->
<g id="node12" class="node"><title>Node6</title>
<a xlink:href="structstxxl_1_1choose__int__types.html" target="_top" xlink:title="stxxl::choose_int_types\l\&lt; my_pointer_size \&gt;">
<polygon fill="none" stroke="black" points="257.5,-231 257.5,-265 382.5,-265 382.5,-231 257.5,-231"/>
<text text-anchor="start" x="265.5" y="-252" font-family="Helvetica,sans-Serif" font-size="10.00">stxxl::choose_int_types</text>
<text text-anchor="middle" x="320" y="-239" font-family="Helvetica,sans-Serif" font-size="10.00">&lt; my_pointer_size &gt;</text>
</a>
</g>
<!-- Node6&#45;&gt;Node4 -->
<g id="edge14" class="edge"><title>Node6&#45;&gt;Node4</title>
<path fill="none" stroke="#9a32cd" stroke-dasharray="5,2" d="M277.416,-226.285C259.727,-217.374 238.942,-207.048 220,-198 206.808,-191.699 192.271,-185.004 179.302,-179.119"/>
<polygon fill="#9a32cd" stroke="#9a32cd" points="275.855,-229.417 286.359,-230.801 279.01,-223.169 275.855,-229.417"/>
<text text-anchor="middle" x="294.5" y="-202.5" font-family="Helvetica,sans-Serif" font-size="10.00"> m_reference_count</text>
</g>
<!-- Node7 -->
<g id="node14" class="node"><title>Node7</title>
<a xlink:href="structstxxl_1_1choose__int__types.html" target="_top" xlink:title="stxxl::choose_int_types\l\&lt; PtrSize \&gt;">
<polygon fill="none" stroke="black" points="257.5,-317 257.5,-351 382.5,-351 382.5,-317 257.5,-317"/>
<text text-anchor="start" x="265.5" y="-338" font-family="Helvetica,sans-Serif" font-size="10.00">stxxl::choose_int_types</text>
<text text-anchor="middle" x="320" y="-325" font-family="Helvetica,sans-Serif" font-size="10.00">&lt; PtrSize &gt;</text>
</a>
</g>
<!-- Node7&#45;&gt;Node6 -->
<g id="edge16" class="edge"><title>Node7&#45;&gt;Node6</title>
<path fill="none" stroke="orange" stroke-dasharray="5,2" d="M320,-306.342C320,-292.774 320,-276.861 320,-265.084"/>
<polygon fill="orange" stroke="orange" points="316.5,-306.597 320,-316.597 323.5,-306.597 316.5,-306.597"/>
<text text-anchor="middle" x="369.5" y="-288.5" font-family="Helvetica,sans-Serif" font-size="10.00"> &lt; my_pointer_size &gt;</text>
</g>
</g>
</svg>
