<?xml version="1.0" encoding="UTF-8" standalone="no"?>
<!DOCTYPE svg PUBLIC "-//W3C//DTD SVG 1.1//EN"
 "http://www.w3.org/Graphics/SVG/1.1/DTD/svg11.dtd">
<!-- Generated by graphviz version 2.26.3 (20100126.1600)
 -->
<!-- Title: stxxl::vector&lt; ValueType, PageSize, PagerType, BlockSize, AllocStr, SizeType &gt; Pages: 1 -->
<svg width="1588pt" height="382pt"
 viewBox="0.00 0.00 1588.00 381.64" xmlns="http://www.w3.org/2000/svg" xmlns:xlink="http://www.w3.org/1999/xlink">
<g id="graph1" class="graph" transform="scale(1 1) rotate(0) translate(4 377.64)">
<title>stxxl::vector&lt; ValueType, PageSize, PagerType, BlockSize, AllocStr, SizeType &gt;</title>
<!-- Node1 -->
<g id="node1" class="node"><title>Node1</title>
<polygon fill="#bfbfbf" stroke="black" points="1404,-167.5 1404,-214.5 1580,-214.5 1580,-167.5 1404,-167.5"/>
<text text-anchor="start" x="1412" y="-201.5" font-family="Helvetica,sans-Serif" font-size="10.00">stxxl::vector&lt; ValueType,</text>
<text text-anchor="start" x="1412" y="-188.5" font-family="Helvetica,sans-Serif" font-size="10.00"> PageSize, PagerType, BlockSize,</text>
<text text-anchor="middle" x="1492" y="-175.5" font-family="Helvetica,sans-Serif" font-size="10.00"> AllocStr, SizeType &gt;</text>
</g>
<!-- Node2 -->
<g id="node2" class="node"><title>Node2</title>
<a xlink:href="classstxxl_1_1file.html" target="_top" xlink:title="Defines interface of file. ">
<polygon fill="none" stroke="black" points="804,-40.5 804,-61.5 860,-61.5 860,-40.5 804,-40.5"/>
<text text-anchor="middle" x="832" y="-48.5" font-family="Helvetica,sans-Serif" font-size="10.00">stxxl::file</text>
</a>
</g>
<!-- Node2&#45;&gt;Node1 -->
<g id="edge2" class="edge"><title>Node2&#45;&gt;Node1</title>
<path fill="none" stroke="#9a32cd" stroke-dasharray="5,2" d="M870.287,-50.4633C955.263,-50.3536 1165.14,-56.0846 1330,-110 1374.08,-124.417 1421.15,-149.11 1453.12,-167.452"/>
<polygon fill="#9a32cd" stroke="#9a32cd" points="870.068,-46.9641 860.083,-50.5061 870.097,-53.964 870.068,-46.9641"/>
<text text-anchor="middle" x="1099" y="-72" font-family="Helvetica,sans-Serif" font-size="10.00"> m_from</text>
</g>
<!-- Node8 -->
<g id="node15" class="node"><title>Node8</title>
<a xlink:href="classstxxl_1_1block__manager.html" target="_top" xlink:title="Block manager class. ">
<polygon fill="none" stroke="black" points="1185,-119.5 1185,-140.5 1299,-140.5 1299,-119.5 1185,-119.5"/>
<text text-anchor="middle" x="1242" y="-127.5" font-family="Helvetica,sans-Serif" font-size="10.00">stxxl::block_manager</text>
</a>
</g>
<!-- Node2&#45;&gt;Node8 -->
<g id="edge26" class="edge"><title>Node2&#45;&gt;Node8</title>
<path fill="none" stroke="#9a32cd" stroke-dasharray="5,2" d="M870.234,-56.9164C885.158,-59.3063 902.4,-62.1664 918,-65 1015.51,-82.7123 1128.96,-106.118 1192.43,-119.468"/>
<polygon fill="#9a32cd" stroke="#9a32cd" points="870.745,-53.4539 860.32,-55.3431 869.648,-60.3674 870.745,-53.4539"/>
<text text-anchor="middle" x="990" y="-93" font-family="Helvetica,sans-Serif" font-size="10.00"> disk_files</text>
</g>
<!-- Node11 -->
<g id="node24" class="node"><title>Node11</title>
<a xlink:href="classstxxl_1_1disk__allocator.html" target="_top" xlink:title="stxxl::disk_allocator">
<polygon fill="none" stroke="black" points="936.5,-113.5 936.5,-134.5 1043.5,-134.5 1043.5,-113.5 936.5,-113.5"/>
<text text-anchor="middle" x="990" y="-121.5" font-family="Helvetica,sans-Serif" font-size="10.00">stxxl::disk_allocator</text>
</a>
</g>
<!-- Node2&#45;&gt;Node11 -->
<g id="edge32" class="edge"><title>Node2&#45;&gt;Node11</title>
<path fill="none" stroke="#9a32cd" stroke-dasharray="5,2" d="M869.818,-64.8247C884.971,-70.6547 902.484,-77.7623 918,-85 936.81,-93.7739 957.583,-105.225 971.962,-113.446"/>
<polygon fill="#9a32cd" stroke="#9a32cd" points="870.837,-61.4677 860.246,-61.1895 868.352,-68.0118 870.837,-61.4677"/>
<text text-anchor="middle" x="898" y="-89" font-family="Helvetica,sans-Serif" font-size="10.00"> storage</text>
</g>
<!-- Node3 -->
<g id="node4" class="node"><title>Node3</title>
<a xlink:href="classstxxl_1_1noncopyable.html" target="_top" xlink:title="stxxl::noncopyable">
<polygon fill="none" stroke="black" points="12,-205.5 12,-226.5 114,-226.5 114,-205.5 12,-205.5"/>
<text text-anchor="middle" x="63" y="-213.5" font-family="Helvetica,sans-Serif" font-size="10.00">stxxl::noncopyable</text>
</a>
</g>
<!-- Node3&#45;&gt;Node2 -->
<g id="edge4" class="edge"><title>Node3&#45;&gt;Node2</title>
<path fill="none" stroke="#8b1a1a" d="M75.0202,-196.789C88.9148,-176.422 113.792,-145.149 144,-130 203.916,-99.9535 681.504,-62.3081 803.637,-53.1019"/>
<polygon fill="#8b1a1a" stroke="#8b1a1a" points="72.0044,-195.005 69.4293,-205.282 77.8513,-198.854 72.0044,-195.005"/>
</g>
<!-- Node5 -->
<g id="node8" class="node"><title>Node5</title>
<a xlink:href="classstxxl_1_1mutex.html" target="_top" xlink:title="stxxl::mutex">
<polygon fill="none" stroke="black" points="302,-56.5 302,-77.5 372,-77.5 372,-56.5 302,-56.5"/>
<text text-anchor="middle" x="337" y="-64.5" font-family="Helvetica,sans-Serif" font-size="10.00">stxxl::mutex</text>
</a>
</g>
<!-- Node3&#45;&gt;Node5 -->
<g id="edge10" class="edge"><title>Node3&#45;&gt;Node5</title>
<path fill="none" stroke="#8b1a1a" d="M69.9734,-195.79C80.9149,-167.41 104.989,-116.484 144,-92 192.22,-61.7356 260.577,-60.4807 301.671,-63.1584"/>
<polygon fill="#8b1a1a" stroke="#8b1a1a" points="66.5836,-194.868 66.4192,-205.461 73.154,-197.283 66.5836,-194.868"/>
</g>
<!-- Node9 -->
<g id="node17" class="node"><title>Node9</title>
<a xlink:href="classstxxl_1_1singleton.html" target="_top" xlink:title="stxxl::singleton\&lt; block\l_manager \&gt;">
<polygon fill="none" stroke="black" points="578,-172 578,-206 696,-206 696,-172 578,-172"/>
<text text-anchor="start" x="586" y="-193" font-family="Helvetica,sans-Serif" font-size="10.00">stxxl::singleton&lt; block</text>
<text text-anchor="middle" x="637" y="-180" font-family="Helvetica,sans-Serif" font-size="10.00">_manager &gt;</text>
</a>
</g>
<!-- Node3&#45;&gt;Node9 -->
<g id="edge20" class="edge"><title>Node3&#45;&gt;Node9</title>
<path fill="none" stroke="#8b1a1a" d="M124.317,-219.42C218.522,-223.629 404.299,-227.785 560,-206 565.83,-205.184 571.874,-204.163 577.895,-203.028"/>
<polygon fill="#8b1a1a" stroke="#8b1a1a" points="124.266,-215.914 114.115,-218.948 123.942,-222.907 124.266,-215.914"/>
</g>
<!-- Node10 -->
<g id="node20" class="node"><title>Node10</title>
<a xlink:href="classstxxl_1_1singleton.html" target="_top" xlink:title="stxxl::singleton\&lt; INSTANCE,\l destroy_on_exit \&gt;">
<polygon fill="none" stroke="black" points="262.5,-172 262.5,-206 411.5,-206 411.5,-172 262.5,-172"/>
<text text-anchor="start" x="270.5" y="-193" font-family="Helvetica,sans-Serif" font-size="10.00">stxxl::singleton&lt; INSTANCE,</text>
<text text-anchor="middle" x="337" y="-180" font-family="Helvetica,sans-Serif" font-size="10.00"> destroy_on_exit &gt;</text>
</a>
</g>
<!-- Node3&#45;&gt;Node10 -->
<g id="edge24" class="edge"><title>Node3&#45;&gt;Node10</title>
<path fill="none" stroke="#8b1a1a" d="M124.291,-209.96C165.085,-205.941 218.933,-200.634 262.242,-196.367"/>
<polygon fill="#8b1a1a" stroke="#8b1a1a" points="123.824,-206.489 114.216,-210.953 124.511,-213.456 123.824,-206.489"/>
</g>
<!-- Node3&#45;&gt;Node11 -->
<g id="edge30" class="edge"><title>Node3&#45;&gt;Node11</title>
<path fill="none" stroke="#8b1a1a" d="M96.1136,-201.386C146.899,-180.341 247.546,-144 337,-144 337,-144 337,-144 832,-144 866.977,-144 905.966,-139.117 936.462,-134.176"/>
<polygon fill="#8b1a1a" stroke="#8b1a1a" points="94.4972,-198.269 86.6395,-205.376 97.2141,-204.721 94.4972,-198.269"/>
</g>
<!-- Node13 -->
<g id="node31" class="node"><title>Node13</title>
<a xlink:href="classstxxl_1_1simple__vector.html" target="_top" xlink:title="stxxl::simple_vector\l\&lt; stxxl::typed_block \&gt;">
<polygon fill="none" stroke="black" points="579,-255 579,-289 695,-289 695,-255 579,-255"/>
<text text-anchor="start" x="587" y="-276" font-family="Helvetica,sans-Serif" font-size="10.00">stxxl::simple_vector</text>
<text text-anchor="middle" x="637" y="-263" font-family="Helvetica,sans-Serif" font-size="10.00">&lt; stxxl::typed_block &gt;</text>
</a>
</g>
<!-- Node3&#45;&gt;Node13 -->
<g id="edge40" class="edge"><title>Node3&#45;&gt;Node13</title>
<path fill="none" stroke="#8b1a1a" d="M112.128,-228.813C122.59,-231.178 133.614,-233.402 144,-235 300.092,-259.015 486.487,-267.623 578.986,-270.565"/>
<polygon fill="#8b1a1a" stroke="#8b1a1a" points="112.845,-225.386 102.31,-226.517 111.251,-232.202 112.845,-225.386"/>
</g>
<!-- Node14 -->
<g id="node34" class="node"><title>Node14</title>
<a xlink:href="classstxxl_1_1simple__vector.html" target="_top" xlink:title="Simpler non&#45;growing vector without initialization. ">
<polygon fill="none" stroke="black" points="283.5,-300 283.5,-334 390.5,-334 390.5,-300 283.5,-300"/>
<text text-anchor="start" x="291.5" y="-321" font-family="Helvetica,sans-Serif" font-size="10.00">stxxl::simple_vector</text>
<text text-anchor="middle" x="337" y="-308" font-family="Helvetica,sans-Serif" font-size="10.00">&lt; ValueType &gt;</text>
</a>
</g>
<!-- Node3&#45;&gt;Node14 -->
<g id="edge44" class="edge"><title>Node3&#45;&gt;Node14</title>
<path fill="none" stroke="#8b1a1a" d="M78.6859,-234.414C93.7055,-250.744 117.889,-273.836 144,-286 187.99,-306.493 243.056,-313.765 283.098,-316.191"/>
<polygon fill="#8b1a1a" stroke="#8b1a1a" points="80.9727,-231.72 71.7053,-226.585 75.7479,-236.378 80.9727,-231.72"/>
</g>
<!-- Node15 -->
<g id="node37" class="node"><title>Node15</title>
<a xlink:href="classstxxl_1_1simple__vector.html" target="_top" xlink:title="stxxl::simple_vector\l\&lt; int_type \&gt;">
<polygon fill="none" stroke="black" points="583.5,-324 583.5,-358 690.5,-358 690.5,-324 583.5,-324"/>
<text text-anchor="start" x="591.5" y="-345" font-family="Helvetica,sans-Serif" font-size="10.00">stxxl::simple_vector</text>
<text text-anchor="middle" x="637" y="-332" font-family="Helvetica,sans-Serif" font-size="10.00">&lt; int_type &gt;</text>
</a>
</g>
<!-- Node3&#45;&gt;Node15 -->
<g id="edge48" class="edge"><title>Node3&#45;&gt;Node15</title>
<path fill="none" stroke="#8b1a1a" d="M74.0478,-235.495C87.6373,-257.671 112.788,-293.345 144,-313 282.012,-399.912 487.173,-373.108 583.455,-353.607"/>
<polygon fill="#8b1a1a" stroke="#8b1a1a" points="76.9035,-233.449 68.7922,-226.633 70.8826,-237.019 76.9035,-233.449"/>
</g>
<!-- Node4 -->
<g id="node6" class="node"><title>Node4</title>
<a xlink:href="classstxxl_1_1atomic__counted__object.html" target="_top" xlink:title="Provides reference counting abilities for use with counting_ptr with mutex locking. ">
<polygon fill="none" stroke="black" points="579,-6 579,-40 695,-40 695,-6 579,-6"/>
<text text-anchor="start" x="587" y="-27" font-family="Helvetica,sans-Serif" font-size="10.00">stxxl::atomic_counted</text>
<text text-anchor="middle" x="637" y="-14" font-family="Helvetica,sans-Serif" font-size="10.00">_object</text>
</a>
</g>
<!-- Node4&#45;&gt;Node2 -->
<g id="edge6" class="edge"><title>Node4&#45;&gt;Node2</title>
<path fill="none" stroke="#9a32cd" stroke-dasharray="5,2" d="M705.471,-29.9084C730.842,-32.8263 759.805,-36.5805 786,-41 791.802,-41.9789 797.979,-43.1982 803.862,-44.4453"/>
<polygon fill="#9a32cd" stroke="#9a32cd" points="705.535,-26.3934 695.205,-28.7504 704.75,-33.3493 705.535,-26.3934"/>
<text text-anchor="middle" x="750" y="-45" font-family="Helvetica,sans-Serif" font-size="10.00"> m_request_ref</text>
</g>
<!-- Node5&#45;&gt;Node4 -->
<g id="edge8" class="edge"><title>Node5&#45;&gt;Node4</title>
<path fill="none" stroke="#9a32cd" stroke-dasharray="5,2" d="M382.017,-60.3975C434.483,-52.7024 521.319,-39.9666 578.848,-31.529"/>
<polygon fill="#9a32cd" stroke="#9a32cd" points="381.387,-56.9523 372.001,-61.8665 382.403,-63.8783 381.387,-56.9523"/>
<text text-anchor="middle" x="495" y="-57" font-family="Helvetica,sans-Serif" font-size="10.00"> m_reference_count_mutex</text>
</g>
<!-- Node5&#45;&gt;Node11 -->
<g id="edge34" class="edge"><title>Node5&#45;&gt;Node11</title>
<path fill="none" stroke="#9a32cd" stroke-dasharray="5,2" d="M382.138,-70.9401C498.909,-81.133 810.572,-108.338 936.302,-119.313"/>
<polygon fill="#9a32cd" stroke="#9a32cd" points="382.375,-67.4475 372.108,-70.0646 381.766,-74.421 382.375,-67.4475"/>
<text text-anchor="middle" x="750" y="-110" font-family="Helvetica,sans-Serif" font-size="10.00"> mutex</text>
</g>
<!-- Node6 -->
<g id="node11" class="node"><title>Node6</title>
<a xlink:href="structstxxl_1_1choose__int__types.html" target="_top" xlink:title="stxxl::choose_int_types\l\&lt; my_pointer_size \&gt;">
<polygon fill="none" stroke="black" points="274.5,-0 274.5,-34 399.5,-34 399.5,-0 274.5,-0"/>
<text text-anchor="start" x="282.5" y="-21" font-family="Helvetica,sans-Serif" font-size="10.00">stxxl::choose_int_types</text>
<text text-anchor="middle" x="337" y="-8" font-family="Helvetica,sans-Serif" font-size="10.00">&lt; my_pointer_size &gt;</text>
</a>
</g>
<!-- Node6&#45;&gt;Node4 -->
<g id="edge12" class="edge"><title>Node6&#45;&gt;Node4</title>
<path fill="none" stroke="#9a32cd" stroke-dasharray="5,2" d="M410.193,-16.2168C453.725,-16.0282 510.03,-16.2671 560,-18 566.159,-18.2136 572.59,-18.5118 578.997,-18.8574"/>
<polygon fill="#9a32cd" stroke="#9a32cd" points="409.961,-12.7179 399.979,-16.2699 409.998,-19.7178 409.961,-12.7179"/>
<text text-anchor="middle" x="495" y="-22" font-family="Helvetica,sans-Serif" font-size="10.00"> m_reference_count</text>
</g>
<!-- Node7 -->
<g id="node13" class="node"><title>Node7</title>
<a xlink:href="structstxxl_1_1choose__int__types.html" target="_top" xlink:title="stxxl::choose_int_types\l\&lt; PtrSize \&gt;">
<polygon fill="none" stroke="black" points="0.5,-0 0.5,-34 125.5,-34 125.5,-0 0.5,-0"/>
<text text-anchor="start" x="8.5" y="-21" font-family="Helvetica,sans-Serif" font-size="10.00">stxxl::choose_int_types</text>
<text text-anchor="middle" x="63" y="-8" font-family="Helvetica,sans-Serif" font-size="10.00">&lt; PtrSize &gt;</text>
</a>
</g>
<!-- Node7&#45;&gt;Node6 -->
<g id="edge14" class="edge"><title>Node7&#45;&gt;Node6</title>
<path fill="none" stroke="orange" stroke-dasharray="5,2" d="M135.672,-17C178.827,-17 232.999,-17 274.277,-17"/>
<polygon fill="orange" stroke="orange" points="135.518,-13.5001 125.518,-17 135.518,-20.5001 135.518,-13.5001"/>
<text text-anchor="middle" x="194" y="-21" font-family="Helvetica,sans-Serif" font-size="10.00"> &lt; my_pointer_size &gt;</text>
</g>
<!-- Node8&#45;&gt;Node1 -->
<g id="edge16" class="edge"><title>Node8&#45;&gt;Node1</title>
<path fill="none" stroke="#9a32cd" stroke-dasharray="5,2" d="M1295.16,-142.971C1326.7,-150.668 1367.49,-160.619 1403.74,-169.466"/>
<polygon fill="#9a32cd" stroke="#9a32cd" points="1295.81,-139.526 1285.26,-140.556 1294.15,-146.327 1295.81,-139.526"/>
<text text-anchor="middle" x="1367" y="-168" font-family="Helvetica,sans-Serif" font-size="10.00"> m_bm</text>
</g>
<!-- Node9&#45;&gt;Node8 -->
<g id="edge18" class="edge"><title>Node9&#45;&gt;Node8</title>
<path fill="none" stroke="midnightblue" d="M706.435,-183.651C802.916,-176.011 982.938,-161.002 1136,-144 1151.87,-142.238 1169.03,-140.079 1184.84,-137.99"/>
<polygon fill="midnightblue" stroke="midnightblue" points="705.92,-180.181 696.226,-184.457 706.471,-187.159 705.92,-180.181"/>
</g>
<!-- Node10&#45;&gt;Node9 -->
<g id="edge22" class="edge"><title>Node10&#45;&gt;Node9</title>
<path fill="none" stroke="orange" stroke-dasharray="5,2" d="M421.664,-189C471.506,-189 533.309,-189 577.903,-189"/>
<polygon fill="orange" stroke="orange" points="421.543,-185.5 411.543,-189 421.543,-192.5 421.543,-185.5"/>
<text text-anchor="middle" x="495" y="-193" font-family="Helvetica,sans-Serif" font-size="10.00"> &lt; block_manager &gt;</text>
</g>
<!-- Node11&#45;&gt;Node8 -->
<g id="edge28" class="edge"><title>Node11&#45;&gt;Node8</title>
<path fill="none" stroke="#9a32cd" stroke-dasharray="5,2" d="M1053.75,-125.518C1094.09,-126.478 1145.81,-127.71 1184.83,-128.639"/>
<polygon fill="#9a32cd" stroke="#9a32cd" points="1053.83,-122.019 1043.75,-125.28 1053.67,-129.017 1053.83,-122.019"/>
<text text-anchor="middle" x="1099" y="-131" font-family="Helvetica,sans-Serif" font-size="10.00"> disk_allocators</text>
</g>
<!-- Node12 -->
<g id="node29" class="node"><title>Node12</title>
<a xlink:href="classstxxl_1_1vector_1_1bid__vector.html" target="_top" xlink:title="stxxl::vector\&lt; ValueType,\l PageSize, PagerType, BlockSize,\l AllocStr, SizeType \&gt;::bid_vector">
<polygon fill="none" stroke="black" points="1154,-167.5 1154,-214.5 1330,-214.5 1330,-167.5 1154,-167.5"/>
<text text-anchor="start" x="1162" y="-201.5" font-family="Helvetica,sans-Serif" font-size="10.00">stxxl::vector&lt; ValueType,</text>
<text text-anchor="start" x="1162" y="-188.5" font-family="Helvetica,sans-Serif" font-size="10.00"> PageSize, PagerType, BlockSize,</text>
<text text-anchor="middle" x="1242" y="-175.5" font-family="Helvetica,sans-Serif" font-size="10.00"> AllocStr, SizeType &gt;::bid_vector</text>
</a>
</g>
<!-- Node12&#45;&gt;Node1 -->
<g id="edge36" class="edge"><title>Node12&#45;&gt;Node1</title>
<path fill="none" stroke="#9a32cd" stroke-dasharray="5,2" d="M1340.33,-191C1361.28,-191 1383.27,-191 1403.81,-191"/>
<polygon fill="#9a32cd" stroke="#9a32cd" points="1340.14,-187.5 1330.14,-191 1340.14,-194.5 1340.14,-187.5"/>
<text text-anchor="middle" x="1367" y="-195" font-family="Helvetica,sans-Serif" font-size="10.00"> m_bids</text>
</g>
<!-- Node13&#45;&gt;Node1 -->
<g id="edge38" class="edge"><title>Node13&#45;&gt;Node1</title>
<path fill="none" stroke="#9a32cd" stroke-dasharray="5,2" d="M705.558,-262.039C742.863,-257.447 789.871,-253 832,-253 832,-253 832,-253 1242,-253 1308.52,-253 1382.14,-232.067 1432.15,-214.528"/>
<polygon fill="#9a32cd" stroke="#9a32cd" points="704.788,-258.608 695.305,-263.334 705.665,-265.553 704.788,-258.608"/>
<text text-anchor="middle" x="990" y="-257" font-family="Helvetica,sans-Serif" font-size="10.00"> m_cache</text>
</g>
<!-- Node14&#45;&gt;Node13 -->
<g id="edge42" class="edge"><title>Node14&#45;&gt;Node13</title>
<path fill="none" stroke="orange" stroke-dasharray="5,2" d="M400.556,-307.467C453.332,-299.55 527.782,-288.383 578.967,-280.705"/>
<polygon fill="orange" stroke="orange" points="400.004,-304.01 390.634,-308.955 401.043,-310.933 400.004,-304.01"/>
<text text-anchor="middle" x="495" y="-306" font-family="Helvetica,sans-Serif" font-size="10.00"> &lt; stxxl::typed_block &gt;</text>
</g>
<!-- Node14&#45;&gt;Node15 -->
<g id="edge50" class="edge"><title>Node14&#45;&gt;Node15</title>
<path fill="none" stroke="orange" stroke-dasharray="5,2" d="M400.832,-322.107C455.112,-326.449 532.171,-332.614 583.325,-336.706"/>
<polygon fill="orange" stroke="orange" points="400.881,-318.599 390.634,-321.291 400.323,-325.577 400.881,-318.599"/>
<text text-anchor="middle" x="495" y="-338" font-family="Helvetica,sans-Serif" font-size="10.00"> &lt; int_type &gt;</text>
</g>
<!-- Node15&#45;&gt;Node1 -->
<g id="edge46" class="edge"><title>Node15&#45;&gt;Node1</title>
<path fill="none" stroke="#9a32cd" stroke-dasharray="5,2" d="M701.08,-332.093C739.06,-327.562 788.182,-323 832,-323 832,-323 832,-323 1242,-323 1333.78,-323 1424.87,-252.567 1467.31,-214.599"/>
<polygon fill="#9a32cd" stroke="#9a32cd" points="700.177,-328.677 690.677,-333.366 701.028,-335.626 700.177,-328.677"/>
<text text-anchor="middle" x="990" y="-327" font-family="Helvetica,sans-Serif" font-size="10.00"> m_slot_to_page</text>
</g>
</g>
</svg>
