<?xml version="1.0" encoding="UTF-8" standalone="no"?>
<!DOCTYPE svg PUBLIC "-//W3C//DTD SVG 1.1//EN"
 "http://www.w3.org/Graphics/SVG/1.1/DTD/svg11.dtd">
<!-- Generated by graphviz version 2.26.3 (20100126.1600)
 -->
<!-- Title: stxxl::matrix_iterator&lt; ValueType, BlockSideLength &gt; Pages: 1 -->
<svg width="340pt" height="122pt"
 viewBox="0.00 0.00 340.00 122.00" xmlns="http://www.w3.org/2000/svg" xmlns:xlink="http://www.w3.org/1999/xlink">
<g id="graph1" class="graph" transform="scale(1 1) rotate(0) translate(4 118)">
<title>stxxl::matrix_iterator&lt; ValueType, BlockSideLength &gt;</title>
<!-- Node1 -->
<g id="node1" class="node"><title>Node1</title>
<polygon fill="#bfbfbf" stroke="black" points="0,-40 0,-74 170,-74 170,-40 0,-40"/>
<text text-anchor="start" x="8" y="-61" font-family="Helvetica,sans-Serif" font-size="10.00">stxxl::matrix_iterator</text>
<text text-anchor="middle" x="85" y="-48" font-family="Helvetica,sans-Serif" font-size="10.00">&lt; ValueType, BlockSideLength &gt;</text>
</g>
<!-- Node2 -->
<g id="node3" class="node"><title>Node2</title>
<a xlink:href="classstxxl_1_1matrix__col__major__iterator.html" target="_top" xlink:title="column&#45;major iterator that points to single elements inside a matrix ">
<polygon fill="none" stroke="black" points="208,-66.5 208,-113.5 330,-113.5 330,-66.5 208,-66.5"/>
<text text-anchor="start" x="216" y="-100.5" font-family="Helvetica,sans-Serif" font-size="10.00">stxxl::matrix_col_major</text>
<text text-anchor="start" x="216" y="-87.5" font-family="Helvetica,sans-Serif" font-size="10.00">_iterator&lt; ValueType,</text>
<text text-anchor="middle" x="269" y="-74.5" font-family="Helvetica,sans-Serif" font-size="10.00"> BlockSideLength &gt;</text>
</a>
</g>
<!-- Node1&#45;&gt;Node2 -->
<g id="edge2" class="edge"><title>Node1&#45;&gt;Node2</title>
<path fill="none" stroke="midnightblue" d="M180.398,-74.1095C189.735,-75.7839 199.024,-77.45 207.882,-79.0386"/>
<polygon fill="midnightblue" stroke="midnightblue" points="180.728,-70.6128 170.267,-72.2925 179.492,-77.5029 180.728,-70.6128"/>
</g>
<!-- Node3 -->
<g id="node5" class="node"><title>Node3</title>
<a xlink:href="classstxxl_1_1matrix__row__major__iterator.html" target="_top" xlink:title="row&#45;major iterator that points to single elements inside a matrix ">
<polygon fill="none" stroke="black" points="206,-0.5 206,-47.5 332,-47.5 332,-0.5 206,-0.5"/>
<text text-anchor="start" x="214" y="-34.5" font-family="Helvetica,sans-Serif" font-size="10.00">stxxl::matrix_row_major</text>
<text text-anchor="start" x="214" y="-21.5" font-family="Helvetica,sans-Serif" font-size="10.00">_iterator&lt; ValueType,</text>
<text text-anchor="middle" x="269" y="-8.5" font-family="Helvetica,sans-Serif" font-size="10.00"> BlockSideLength &gt;</text>
</a>
</g>
<!-- Node1&#45;&gt;Node3 -->
<g id="edge4" class="edge"><title>Node1&#45;&gt;Node3</title>
<path fill="none" stroke="midnightblue" d="M180.155,-39.9341C188.914,-38.3632 197.635,-36.7992 205.999,-35.299"/>
<polygon fill="midnightblue" stroke="midnightblue" points="179.492,-36.4971 170.267,-41.7075 180.728,-43.3872 179.492,-36.4971"/>
</g>
</g>
</svg>
