<?xml version="1.0" encoding="UTF-8" standalone="no"?>
<!DOCTYPE svg PUBLIC "-//W3C//DTD SVG 1.1//EN"
 "http://www.w3.org/Graphics/SVG/1.1/DTD/svg11.dtd">
<!-- Generated by graphviz version 2.26.3 (20100126.1600)
 -->
<!-- Title: stxxl::wfs_file_base Pages: 1 -->
<svg width="359pt" height="348pt"
 viewBox="0.00 0.00 359.00 348.00" xmlns="http://www.w3.org/2000/svg" xmlns:xlink="http://www.w3.org/1999/xlink">
<g id="graph1" class="graph" transform="scale(1 1) rotate(0) translate(4 344)">
<title>stxxl::wfs_file_base</title>
<!-- Node1 -->
<g id="node1" class="node"><title>Node1</title>
<polygon fill="#bfbfbf" stroke="black" points="34,-0.5 34,-21.5 140,-21.5 140,-0.5 34,-0.5"/>
<text text-anchor="middle" x="87" y="-8.5" font-family="Helvetica,sans-Serif" font-size="10.00">stxxl::wfs_file_base</text>
</g>
<!-- Node2 -->
<g id="node2" class="node"><title>Node2</title>
<a xlink:href="classstxxl_1_1file.html" target="_top" xlink:title="Defines interface of file. ">
<polygon fill="none" stroke="black" points="95,-60.5 95,-81.5 151,-81.5 151,-60.5 95,-60.5"/>
<text text-anchor="middle" x="123" y="-68.5" font-family="Helvetica,sans-Serif" font-size="10.00">stxxl::file</text>
</a>
</g>
<!-- Node2&#45;&gt;Node1 -->
<g id="edge2" class="edge"><title>Node2&#45;&gt;Node1</title>
<path fill="none" stroke="midnightblue" d="M111.28,-51.4668C105.329,-41.5483 98.3308,-29.8846 93.3804,-21.6339"/>
<polygon fill="midnightblue" stroke="midnightblue" points="108.418,-53.499 116.564,-60.2732 114.42,-49.8975 108.418,-53.499"/>
</g>
<!-- Node3 -->
<g id="node4" class="node"><title>Node3</title>
<a xlink:href="classstxxl_1_1noncopyable.html" target="_top" xlink:title="stxxl::noncopyable">
<polygon fill="none" stroke="black" points="0,-311.5 0,-332.5 102,-332.5 102,-311.5 0,-311.5"/>
<text text-anchor="middle" x="51" y="-319.5" font-family="Helvetica,sans-Serif" font-size="10.00">stxxl::noncopyable</text>
</a>
</g>
<!-- Node3&#45;&gt;Node2 -->
<g id="edge4" class="edge"><title>Node3&#45;&gt;Node2</title>
<path fill="none" stroke="#8b1a1a" d="M47.8388,-301.053C42.6365,-258.754 36.8407,-161.909 81,-100 86.3514,-92.4976 94.2865,-86.3048 101.823,-81.5957"/>
<polygon fill="#8b1a1a" stroke="#8b1a1a" points="44.3781,-301.58 49.1832,-311.022 51.3153,-300.644 44.3781,-301.58"/>
</g>
<!-- Node5 -->
<g id="node8" class="node"><title>Node5</title>
<a xlink:href="classstxxl_1_1mutex.html" target="_top" xlink:title="stxxl::mutex">
<polygon fill="none" stroke="black" points="57,-225.5 57,-246.5 127,-246.5 127,-225.5 57,-225.5"/>
<text text-anchor="middle" x="92" y="-233.5" font-family="Helvetica,sans-Serif" font-size="10.00">stxxl::mutex</text>
</a>
</g>
<!-- Node3&#45;&gt;Node5 -->
<g id="edge10" class="edge"><title>Node3&#45;&gt;Node5</title>
<path fill="none" stroke="#8b1a1a" d="M60.4235,-302.234C68.6694,-284.937 80.3324,-260.474 86.9315,-246.632"/>
<polygon fill="#8b1a1a" stroke="#8b1a1a" points="57.1715,-300.922 56.0274,-311.455 63.4902,-303.934 57.1715,-300.922"/>
</g>
<!-- Node4 -->
<g id="node6" class="node"><title>Node4</title>
<a xlink:href="classstxxl_1_1atomic__counted__object.html" target="_top" xlink:title="Provides reference counting abilities for use with counting_ptr with mutex locking. ">
<polygon fill="none" stroke="black" points="95,-133 95,-167 211,-167 211,-133 95,-133"/>
<text text-anchor="start" x="103" y="-154" font-family="Helvetica,sans-Serif" font-size="10.00">stxxl::atomic_counted</text>
<text text-anchor="middle" x="153" y="-141" font-family="Helvetica,sans-Serif" font-size="10.00">_object</text>
</a>
</g>
<!-- Node4&#45;&gt;Node2 -->
<g id="edge6" class="edge"><title>Node4&#45;&gt;Node2</title>
<path fill="none" stroke="#9a32cd" stroke-dasharray="5,2" d="M142.919,-123.452C137.476,-109.12 131.062,-92.2294 127.013,-81.5672"/>
<polygon fill="#9a32cd" stroke="#9a32cd" points="139.668,-124.752 146.49,-132.858 146.212,-122.267 139.668,-124.752"/>
<text text-anchor="middle" x="175" y="-104.5" font-family="Helvetica,sans-Serif" font-size="10.00"> m_request_ref</text>
</g>
<!-- Node5&#45;&gt;Node1 -->
<g id="edge16" class="edge"><title>Node5&#45;&gt;Node1</title>
<path fill="none" stroke="#9a32cd" stroke-dasharray="5,2" d="M89.798,-215.307C88.4587,-201.846 86.8478,-183.903 86,-168 83.0688,-113.018 85.386,-47.0532 86.494,-21.6707"/>
<polygon fill="#9a32cd" stroke="#9a32cd" points="86.3328,-215.826 90.8365,-225.416 93.2962,-215.11 86.3328,-215.826"/>
<text text-anchor="middle" x="108" y="-104.5" font-family="Helvetica,sans-Serif" font-size="10.00"> fd_mutex</text>
</g>
<!-- Node5&#45;&gt;Node4 -->
<g id="edge8" class="edge"><title>Node5&#45;&gt;Node4</title>
<path fill="none" stroke="#9a32cd" stroke-dasharray="5,2" d="M92.1889,-214.968C93.1387,-205.487 95.5122,-194.53 101,-186 105.753,-178.613 112.613,-172.327 119.8,-167.175"/>
<polygon fill="#9a32cd" stroke="#9a32cd" points="88.6814,-215.009 91.6266,-225.187 95.6708,-215.394 88.6814,-215.009"/>
<text text-anchor="middle" x="165.5" y="-190.5" font-family="Helvetica,sans-Serif" font-size="10.00"> m_reference_count_mutex</text>
</g>
<!-- Node6 -->
<g id="node11" class="node"><title>Node6</title>
<a xlink:href="structstxxl_1_1choose__int__types.html" target="_top" xlink:title="stxxl::choose_int_types\l\&lt; my_pointer_size \&gt;">
<polygon fill="none" stroke="black" points="189.5,-219 189.5,-253 314.5,-253 314.5,-219 189.5,-219"/>
<text text-anchor="start" x="197.5" y="-240" font-family="Helvetica,sans-Serif" font-size="10.00">stxxl::choose_int_types</text>
<text text-anchor="middle" x="252" y="-227" font-family="Helvetica,sans-Serif" font-size="10.00">&lt; my_pointer_size &gt;</text>
</a>
</g>
<!-- Node6&#45;&gt;Node4 -->
<g id="edge12" class="edge"><title>Node6&#45;&gt;Node4</title>
<path fill="none" stroke="#9a32cd" stroke-dasharray="5,2" d="M244.451,-209.531C241.079,-201.226 236.385,-192.532 230,-186 222.47,-178.296 212.973,-172.059 203.244,-167.078"/>
<polygon fill="#9a32cd" stroke="#9a32cd" points="241.158,-210.715 247.825,-218.949 247.748,-208.354 241.158,-210.715"/>
<text text-anchor="middle" x="286.5" y="-190.5" font-family="Helvetica,sans-Serif" font-size="10.00"> m_reference_count</text>
</g>
<!-- Node7 -->
<g id="node13" class="node"><title>Node7</title>
<a xlink:href="structstxxl_1_1choose__int__types.html" target="_top" xlink:title="stxxl::choose_int_types\l\&lt; PtrSize \&gt;">
<polygon fill="none" stroke="black" points="189.5,-305 189.5,-339 314.5,-339 314.5,-305 189.5,-305"/>
<text text-anchor="start" x="197.5" y="-326" font-family="Helvetica,sans-Serif" font-size="10.00">stxxl::choose_int_types</text>
<text text-anchor="middle" x="252" y="-313" font-family="Helvetica,sans-Serif" font-size="10.00">&lt; PtrSize &gt;</text>
</a>
</g>
<!-- Node7&#45;&gt;Node6 -->
<g id="edge14" class="edge"><title>Node7&#45;&gt;Node6</title>
<path fill="none" stroke="orange" stroke-dasharray="5,2" d="M252,-294.342C252,-280.774 252,-264.861 252,-253.084"/>
<polygon fill="orange" stroke="orange" points="248.5,-294.597 252,-304.597 255.5,-294.597 248.5,-294.597"/>
<text text-anchor="middle" x="301.5" y="-276.5" font-family="Helvetica,sans-Serif" font-size="10.00"> &lt; my_pointer_size &gt;</text>
</g>
</g>
</svg>
