<?xml version="1.0" encoding="UTF-8" standalone="no"?>
<!DOCTYPE svg PUBLIC "-//W3C//DTD SVG 1.1//EN"
 "http://www.w3.org/Graphics/SVG/1.1/DTD/svg11.dtd">
<!-- Generated by graphviz version 2.26.3 (20100126.1600)
 -->
<!-- Title: stxxl::btree::normal_leaf&lt; KeyType, DataType, KeyCmp, LogNElem, BTreeType &gt; Pages: 1 -->
<svg width="3332pt" height="315pt"
 viewBox="0.00 0.00 3332.00 315.25" xmlns="http://www.w3.org/2000/svg" xmlns:xlink="http://www.w3.org/1999/xlink">
<g id="graph1" class="graph" transform="scale(1 1) rotate(0) translate(4 311.251)">
<title>stxxl::btree::normal_leaf&lt; KeyType, DataType, KeyCmp, LogNElem, BTreeType &gt;</title>
<!-- Node1 -->
<g id="node1" class="node"><title>Node1</title>
<polygon fill="#bfbfbf" stroke="black" points="3142.5,-225.751 3142.5,-272.751 3323.5,-272.751 3323.5,-225.751 3142.5,-225.751"/>
<text text-anchor="start" x="3150.5" y="-259.751" font-family="Helvetica,sans-Serif" font-size="10.00">stxxl::btree::normal</text>
<text text-anchor="start" x="3150.5" y="-246.751" font-family="Helvetica,sans-Serif" font-size="10.00">_leaf&lt; KeyType, DataType,</text>
<text text-anchor="middle" x="3233" y="-233.751" font-family="Helvetica,sans-Serif" font-size="10.00"> KeyCmp, LogNElem, BTreeType &gt;</text>
</g>
<!-- Node2 -->
<g id="node2" class="node"><title>Node2</title>
<a xlink:href="classstxxl_1_1noncopyable.html" target="_top" xlink:title="stxxl::noncopyable">
<polygon fill="none" stroke="black" points="12,-219.751 12,-240.751 114,-240.751 114,-219.751 12,-219.751"/>
<text text-anchor="middle" x="63" y="-227.751" font-family="Helvetica,sans-Serif" font-size="10.00">stxxl::noncopyable</text>
</a>
</g>
<!-- Node2&#45;&gt;Node1 -->
<g id="edge2" class="edge"><title>Node2&#45;&gt;Node1</title>
<path fill="none" stroke="#8b1a1a" d="M92.9438,-245.158C140.756,-267.544 237.844,-307.251 325,-307.251 325,-307.251 325,-307.251 2976,-307.251 3041.98,-307.251 3115.2,-288.836 3166.56,-272.759"/>
<polygon fill="#8b1a1a" stroke="#8b1a1a" points="94.3166,-241.935 83.7831,-240.796 91.3074,-248.255 94.3166,-241.935"/>
</g>
<!-- Node11 -->
<g id="node20" class="node"><title>Node11</title>
<a xlink:href="classstxxl_1_1file.html" target="_top" xlink:title="Defines interface of file. ">
<polygon fill="none" stroke="black" points="778,-156.751 778,-177.751 834,-177.751 834,-156.751 778,-156.751"/>
<text text-anchor="middle" x="806" y="-164.751" font-family="Helvetica,sans-Serif" font-size="10.00">stxxl::file</text>
</a>
</g>
<!-- Node2&#45;&gt;Node11 -->
<g id="edge22" class="edge"><title>Node2&#45;&gt;Node11</title>
<path fill="none" stroke="#8b1a1a" d="M124.422,-227.355C234.074,-221.994 470.713,-209.571 670,-193.251 710.065,-189.971 720.83,-193.292 760,-184.251 766.969,-182.643 774.317,-180.26 781.045,-177.783"/>
<polygon fill="#8b1a1a" stroke="#8b1a1a" points="124.031,-223.869 114.213,-227.851 124.371,-230.861 124.031,-223.869"/>
</g>
<!-- Node13 -->
<g id="node25" class="node"><title>Node13</title>
<a xlink:href="classstxxl_1_1mutex.html" target="_top" xlink:title="stxxl::mutex">
<polygon fill="none" stroke="black" points="290,-180.751 290,-201.751 360,-201.751 360,-180.751 290,-180.751"/>
<text text-anchor="middle" x="325" y="-188.751" font-family="Helvetica,sans-Serif" font-size="10.00">stxxl::mutex</text>
</a>
</g>
<!-- Node2&#45;&gt;Node13 -->
<g id="edge28" class="edge"><title>Node2&#45;&gt;Node13</title>
<path fill="none" stroke="#8b1a1a" d="M124.604,-219.38C131.147,-218.292 137.707,-217.23 144,-216.251 194.623,-208.383 253.409,-200.493 289.912,-195.74"/>
<polygon fill="#8b1a1a" stroke="#8b1a1a" points="123.657,-215.99 114.376,-221.102 124.819,-222.893 123.657,-215.99"/>
</g>
<!-- Node3 -->
<g id="node4" class="node"><title>Node3</title>
<a xlink:href="structstxxl_1_1btree_1_1normal__leaf_1_1value__compare.html" target="_top" xlink:title="stxxl::btree::normal\l_leaf\&lt; KeyType, DataType,\l KeyCmp, LogNElem, BTreeType\l \&gt;::value_compare">
<polygon fill="none" stroke="black" points="2890,-219.251 2890,-279.251 3062,-279.251 3062,-219.251 2890,-219.251"/>
<text text-anchor="start" x="2898" y="-266.251" font-family="Helvetica,sans-Serif" font-size="10.00">stxxl::btree::normal</text>
<text text-anchor="start" x="2898" y="-253.251" font-family="Helvetica,sans-Serif" font-size="10.00">_leaf&lt; KeyType, DataType,</text>
<text text-anchor="start" x="2898" y="-240.251" font-family="Helvetica,sans-Serif" font-size="10.00"> KeyCmp, LogNElem, BTreeType</text>
<text text-anchor="middle" x="2976" y="-227.251" font-family="Helvetica,sans-Serif" font-size="10.00"> &gt;::value_compare</text>
</a>
</g>
<!-- Node3&#45;&gt;Node1 -->
<g id="edge4" class="edge"><title>Node3&#45;&gt;Node1</title>
<path fill="none" stroke="#9a32cd" stroke-dasharray="5,2" d="M3072.33,-249.251C3095.19,-249.251 3119.49,-249.251 3142.1,-249.251"/>
<polygon fill="#9a32cd" stroke="#9a32cd" points="3072.29,-245.752 3062.29,-249.251 3072.29,-252.752 3072.29,-245.752"/>
<text text-anchor="middle" x="3102" y="-253.251" font-family="Helvetica,sans-Serif" font-size="10.00"> m_vcmp</text>
</g>
<!-- Node4 -->
<g id="node6" class="node"><title>Node4</title>
<a xlink:href="classstxxl_1_1typed__block.html" target="_top" xlink:title="Block containing elements of fixed length. ">
<polygon fill="none" stroke="black" points="2912,-153.751 2912,-200.751 3040,-200.751 3040,-153.751 2912,-153.751"/>
<text text-anchor="start" x="2920" y="-187.751" font-family="Helvetica,sans-Serif" font-size="10.00">stxxl::typed_block</text>
<text text-anchor="start" x="2920" y="-174.751" font-family="Helvetica,sans-Serif" font-size="10.00">&lt; RawSize, Type, NRef,</text>
<text text-anchor="middle" x="2976" y="-161.751" font-family="Helvetica,sans-Serif" font-size="10.00"> MetaInfoType &gt;</text>
</a>
</g>
<!-- Node4&#45;&gt;Node1 -->
<g id="edge6" class="edge"><title>Node4&#45;&gt;Node1</title>
<path fill="none" stroke="#9a32cd" stroke-dasharray="5,2" d="M3050.02,-197.988C3080.89,-206.637 3116.91,-216.729 3148.79,-225.659"/>
<polygon fill="#9a32cd" stroke="#9a32cd" points="3050.76,-194.562 3040.19,-195.234 3048.87,-201.302 3050.76,-194.562"/>
<text text-anchor="middle" x="3102" y="-222.251" font-family="Helvetica,sans-Serif" font-size="10.00"> m_block</text>
</g>
<!-- Node5 -->
<g id="node8" class="node"><title>Node5</title>
<a xlink:href="classstxxl_1_1mng__local_1_1expand__struct.html" target="_top" xlink:title="stxxl::mng_local::expand\l_struct\&lt; mng_local::block\l_w_info\&lt; Type, RawSize, NRef,\l MetaInfoType \&gt;, RawSize \&gt;">
<polygon fill="none" stroke="black" points="2688,-147.251 2688,-207.251 2852,-207.251 2852,-147.251 2688,-147.251"/>
<text text-anchor="start" x="2696" y="-194.251" font-family="Helvetica,sans-Serif" font-size="10.00">stxxl::mng_local::expand</text>
<text text-anchor="start" x="2696" y="-181.251" font-family="Helvetica,sans-Serif" font-size="10.00">_struct&lt; mng_local::block</text>
<text text-anchor="start" x="2696" y="-168.251" font-family="Helvetica,sans-Serif" font-size="10.00">_w_info&lt; Type, RawSize, NRef,</text>
<text text-anchor="middle" x="2770" y="-155.251" font-family="Helvetica,sans-Serif" font-size="10.00"> MetaInfoType &gt;, RawSize &gt;</text>
</a>
</g>
<!-- Node5&#45;&gt;Node4 -->
<g id="edge8" class="edge"><title>Node5&#45;&gt;Node4</title>
<path fill="none" stroke="midnightblue" d="M2862.33,-177.251C2879.01,-177.251 2896.06,-177.251 2911.72,-177.251"/>
<polygon fill="midnightblue" stroke="midnightblue" points="2862.01,-173.752 2852.01,-177.251 2862.01,-180.752 2862.01,-173.752"/>
</g>
<!-- Node6 -->
<g id="node10" class="node"><title>Node6</title>
<a xlink:href="classstxxl_1_1mng__local_1_1add__filler.html" target="_top" xlink:title="stxxl::mng_local::add\l_filler\&lt; mng_local::block\l_w_info\&lt; Type, RawSize,\l NRef, MetaInfoType \&gt;, RawSize\l&#45;sizeof(mng_local::block_w_info\l\&lt; Type, RawSize, NRef, MetaInfoType \&gt;)\&gt;">
<polygon fill="none" stroke="black" points="2316.5,-69.2514 2316.5,-155.251 2531.5,-155.251 2531.5,-69.2514 2316.5,-69.2514"/>
<text text-anchor="start" x="2324.5" y="-142.251" font-family="Helvetica,sans-Serif" font-size="10.00">stxxl::mng_local::add</text>
<text text-anchor="start" x="2324.5" y="-129.251" font-family="Helvetica,sans-Serif" font-size="10.00">_filler&lt; mng_local::block</text>
<text text-anchor="start" x="2324.5" y="-116.251" font-family="Helvetica,sans-Serif" font-size="10.00">_w_info&lt; Type, RawSize,</text>
<text text-anchor="start" x="2324.5" y="-103.251" font-family="Helvetica,sans-Serif" font-size="10.00"> NRef, MetaInfoType &gt;, RawSize</text>
<text text-anchor="start" x="2324.5" y="-90.2514" font-family="Helvetica,sans-Serif" font-size="10.00">&#45;sizeof(mng_local::block_w_info</text>
<text text-anchor="middle" x="2424" y="-77.2514" font-family="Helvetica,sans-Serif" font-size="10.00">&lt; Type, RawSize, NRef, MetaInfoType &gt;)&gt;</text>
</a>
</g>
<!-- Node6&#45;&gt;Node5 -->
<g id="edge10" class="edge"><title>Node6&#45;&gt;Node5</title>
<path fill="none" stroke="midnightblue" d="M2541.43,-134.311C2589.53,-143.348 2644.05,-153.59 2687.78,-161.805"/>
<polygon fill="midnightblue" stroke="midnightblue" points="2542.05,-130.868 2531.58,-132.462 2540.76,-137.748 2542.05,-130.868"/>
</g>
<!-- Node7 -->
<g id="node12" class="node"><title>Node7</title>
<a xlink:href="classstxxl_1_1mng__local_1_1block__w__info.html" target="_top" xlink:title="stxxl::mng_local::block\l_w_info\&lt; Type, RawSize,\l NRef, MetaInfoType \&gt;">
<polygon fill="none" stroke="black" points="2136.5,-13.7514 2136.5,-60.7514 2271.5,-60.7514 2271.5,-13.7514 2136.5,-13.7514"/>
<text text-anchor="start" x="2144.5" y="-47.7514" font-family="Helvetica,sans-Serif" font-size="10.00">stxxl::mng_local::block</text>
<text text-anchor="start" x="2144.5" y="-34.7514" font-family="Helvetica,sans-Serif" font-size="10.00">_w_info&lt; Type, RawSize,</text>
<text text-anchor="middle" x="2204" y="-21.7514" font-family="Helvetica,sans-Serif" font-size="10.00"> NRef, MetaInfoType &gt;</text>
</a>
</g>
<!-- Node7&#45;&gt;Node6 -->
<g id="edge12" class="edge"><title>Node7&#45;&gt;Node6</title>
<path fill="none" stroke="midnightblue" d="M2281.27,-63.5951C2292.56,-67.4418 2304.35,-71.4608 2316.1,-75.4689"/>
<polygon fill="midnightblue" stroke="midnightblue" points="2282.1,-60.1776 2271.5,-60.2636 2279.84,-66.8032 2282.1,-60.1776"/>
</g>
<!-- Node8 -->
<g id="node14" class="node"><title>Node8</title>
<a xlink:href="classstxxl_1_1mng__local_1_1block__w__bids.html" target="_top" xlink:title="stxxl::mng_local::block\l_w_bids\&lt; Type,((RawSize\l&#45;sizeof(BID\&lt; RawSize \&gt;)*NBids\l&#45;sizeof(MetaInfoType))/sizeof\l(Type)), RawSize, NBids \&gt;">
<polygon fill="none" stroke="black" points="1608,-0.751405 1608,-73.7514 1772,-73.7514 1772,-0.751405 1608,-0.751405"/>
<text text-anchor="start" x="1616" y="-60.7514" font-family="Helvetica,sans-Serif" font-size="10.00">stxxl::mng_local::block</text>
<text text-anchor="start" x="1616" y="-47.7514" font-family="Helvetica,sans-Serif" font-size="10.00">_w_bids&lt; Type,((RawSize</text>
<text text-anchor="start" x="1616" y="-34.7514" font-family="Helvetica,sans-Serif" font-size="10.00">&#45;sizeof(BID&lt; RawSize &gt;)*NBids</text>
<text text-anchor="start" x="1616" y="-21.7514" font-family="Helvetica,sans-Serif" font-size="10.00">&#45;sizeof(MetaInfoType))/sizeof</text>
<text text-anchor="middle" x="1690" y="-8.7514" font-family="Helvetica,sans-Serif" font-size="10.00">(Type)), RawSize, NBids &gt;</text>
</a>
</g>
<!-- Node8&#45;&gt;Node7 -->
<g id="edge14" class="edge"><title>Node8&#45;&gt;Node7</title>
<path fill="none" stroke="midnightblue" d="M1782.2,-12.6175C1798.67,-9.13741 1815.76,-6.11387 1832,-4.2514 1938.12,7.9177 2061.72,-9.24353 2136.35,-23.0237"/>
<polygon fill="midnightblue" stroke="midnightblue" points="1781.06,-9.28383 1772.04,-14.8371 1782.56,-16.1226 1781.06,-9.28383"/>
</g>
<!-- Node18 -->
<g id="node39" class="node"><title>Node18</title>
<a xlink:href="classstxxl_1_1mng__local_1_1block__w__info.html" target="_top" xlink:title="Contains per block information for stxxl::typed_block , not intended for direct use. ">
<polygon fill="none" stroke="black" points="1837.5,-13.7514 1837.5,-60.7514 1972.5,-60.7514 1972.5,-13.7514 1837.5,-13.7514"/>
<text text-anchor="start" x="1845.5" y="-47.7514" font-family="Helvetica,sans-Serif" font-size="10.00">stxxl::mng_local::block</text>
<text text-anchor="start" x="1845.5" y="-34.7514" font-family="Helvetica,sans-Serif" font-size="10.00">_w_info&lt; Type, RawSize,</text>
<text text-anchor="middle" x="1905" y="-21.7514" font-family="Helvetica,sans-Serif" font-size="10.00"> NBids, MetaInfoType &gt;</text>
</a>
</g>
<!-- Node8&#45;&gt;Node18 -->
<g id="edge46" class="edge"><title>Node8&#45;&gt;Node18</title>
<path fill="none" stroke="midnightblue" d="M1782.35,-37.2514C1800.75,-37.2514 1819.76,-37.2514 1837.16,-37.2514"/>
<polygon fill="midnightblue" stroke="midnightblue" points="1782.2,-33.7515 1772.2,-37.2514 1782.2,-40.7515 1782.2,-33.7515"/>
</g>
<!-- Node9 -->
<g id="node16" class="node"><title>Node9</title>
<a xlink:href="classstxxl_1_1mng__local_1_1element__block.html" target="_top" xlink:title="Contains data elements for stxxl::typed_block , not intended for direct use. ">
<polygon fill="none" stroke="black" points="1108,-6.2514 1108,-40.2514 1240,-40.2514 1240,-6.2514 1108,-6.2514"/>
<text text-anchor="start" x="1116" y="-27.2514" font-family="Helvetica,sans-Serif" font-size="10.00">stxxl::mng_local::element</text>
<text text-anchor="middle" x="1174" y="-14.2514" font-family="Helvetica,sans-Serif" font-size="10.00">_block&lt; Type, Size &gt;</text>
</a>
</g>
<!-- Node9&#45;&gt;Node8 -->
<g id="edge16" class="edge"><title>Node9&#45;&gt;Node8</title>
<path fill="none" stroke="midnightblue" d="M1250.45,-23.3829C1306.74,-23.6471 1385.15,-24.3643 1454,-26.2514 1514.48,-27.9091 1529.56,-29.4074 1590,-32.2514 1595.82,-32.5251 1601.82,-32.8128 1607.87,-33.1062"/>
<polygon fill="midnightblue" stroke="midnightblue" points="1250.22,-19.882 1240.2,-23.3386 1250.19,-26.8819 1250.22,-19.882"/>
</g>
<!-- Node17 -->
<g id="node35" class="node"><title>Node17</title>
<a xlink:href="classstxxl_1_1mng__local_1_1block__w__bids.html" target="_top" xlink:title="Contains BID references for stxxl::typed_block , not intended for direct use. ">
<polygon fill="none" stroke="black" points="1292,-35.7514 1292,-82.7514 1454,-82.7514 1454,-35.7514 1292,-35.7514"/>
<text text-anchor="start" x="1300" y="-69.7514" font-family="Helvetica,sans-Serif" font-size="10.00">stxxl::mng_local::block</text>
<text text-anchor="start" x="1300" y="-56.7514" font-family="Helvetica,sans-Serif" font-size="10.00">_w_bids&lt; Type, Size, RawSize,</text>
<text text-anchor="middle" x="1373" y="-43.7514" font-family="Helvetica,sans-Serif" font-size="10.00"> NBids &gt;</text>
</a>
</g>
<!-- Node9&#45;&gt;Node17 -->
<g id="edge40" class="edge"><title>Node9&#45;&gt;Node17</title>
<path fill="none" stroke="midnightblue" d="M1250.48,-37.0863C1264.01,-39.5341 1278.14,-42.0906 1291.79,-44.561"/>
<polygon fill="midnightblue" stroke="midnightblue" points="1250.73,-33.575 1240.26,-35.2389 1249.48,-40.4632 1250.73,-33.575"/>
</g>
<!-- Node10 -->
<g id="node18" class="node"><title>Node10</title>
<a xlink:href="structstxxl_1_1BID.html" target="_top" xlink:title="stxxl::BID\&lt; raw_size \&gt;">
<polygon fill="none" stroke="black" points="1114.5,-109.751 1114.5,-130.751 1233.5,-130.751 1233.5,-109.751 1114.5,-109.751"/>
<text text-anchor="middle" x="1174" y="-117.751" font-family="Helvetica,sans-Serif" font-size="10.00">stxxl::BID&lt; raw_size &gt;</text>
</a>
</g>
<!-- Node10&#45;&gt;Node8 -->
<g id="edge18" class="edge"><title>Node10&#45;&gt;Node8</title>
<path fill="none" stroke="#9a32cd" stroke-dasharray="5,2" d="M1243.74,-122.617C1345.1,-125.256 1527.8,-126.781 1590,-106.251 1610.83,-99.3756 1631.24,-86.6987 1648.13,-74.0689"/>
<polygon fill="#9a32cd" stroke="#9a32cd" points="1243.69,-119.114 1233.6,-122.342 1243.5,-126.111 1243.69,-119.114"/>
<text text-anchor="middle" x="1373" y="-128.251" font-family="Helvetica,sans-Serif" font-size="10.00"> ref</text>
</g>
<!-- Node10&#45;&gt;Node17 -->
<g id="edge42" class="edge"><title>Node10&#45;&gt;Node17</title>
<path fill="none" stroke="#9a32cd" stroke-dasharray="5,2" d="M1216.14,-106.492C1229.5,-102.186 1244.35,-97.4615 1258,-93.2514 1269.14,-89.8145 1280.91,-86.2543 1292.5,-82.7892"/>
<polygon fill="#9a32cd" stroke="#9a32cd" points="1214.69,-103.282 1206.25,-109.688 1216.85,-109.942 1214.69,-103.282"/>
<text text-anchor="middle" x="1266" y="-97.2514" font-family="Helvetica,sans-Serif" font-size="10.00"> ref</text>
</g>
<!-- Node11&#45;&gt;Node10 -->
<g id="edge20" class="edge"><title>Node11&#45;&gt;Node10</title>
<path fill="none" stroke="#9a32cd" stroke-dasharray="5,2" d="M844.62,-164.336C899.398,-159.936 1002.71,-150.664 1090,-137.251 1101.62,-135.466 1114.06,-133.164 1125.72,-130.834"/>
<polygon fill="#9a32cd" stroke="#9a32cd" points="844.023,-160.872 834.331,-165.15 844.576,-167.85 844.023,-160.872"/>
<text text-anchor="middle" x="959" y="-163.251" font-family="Helvetica,sans-Serif" font-size="10.00"> storage</text>
</g>
<!-- Node16 -->
<g id="node32" class="node"><title>Node16</title>
<a xlink:href="structstxxl_1_1BID.html" target="_top" xlink:title="Block identifier class. ">
<polygon fill="none" stroke="black" points="910,-109.751 910,-130.751 1008,-130.751 1008,-109.751 910,-109.751"/>
<text text-anchor="middle" x="959" y="-117.751" font-family="Helvetica,sans-Serif" font-size="10.00">stxxl::BID&lt; Size &gt;</text>
</a>
</g>
<!-- Node11&#45;&gt;Node16 -->
<g id="edge36" class="edge"><title>Node11&#45;&gt;Node16</title>
<path fill="none" stroke="#9a32cd" stroke-dasharray="5,2" d="M829.896,-151.123C836.791,-147.06 844.486,-143.061 852,-140.251 870.321,-133.402 891.318,-128.822 909.831,-125.795"/>
<polygon fill="#9a32cd" stroke="#9a32cd" points="827.732,-148.347 821.084,-156.596 831.426,-154.293 827.732,-148.347"/>
<text text-anchor="middle" x="872" y="-144.251" font-family="Helvetica,sans-Serif" font-size="10.00"> storage</text>
</g>
<!-- Node12 -->
<g id="node23" class="node"><title>Node12</title>
<a xlink:href="classstxxl_1_1atomic__counted__object.html" target="_top" xlink:title="Provides reference counting abilities for use with counting_ptr with mutex locking. ">
<polygon fill="none" stroke="black" points="554,-150.251 554,-184.251 670,-184.251 670,-150.251 554,-150.251"/>
<text text-anchor="start" x="562" y="-171.251" font-family="Helvetica,sans-Serif" font-size="10.00">stxxl::atomic_counted</text>
<text text-anchor="middle" x="612" y="-158.251" font-family="Helvetica,sans-Serif" font-size="10.00">_object</text>
</a>
</g>
<!-- Node12&#45;&gt;Node11 -->
<g id="edge24" class="edge"><title>Node12&#45;&gt;Node11</title>
<path fill="none" stroke="#9a32cd" stroke-dasharray="5,2" d="M680.42,-167.251C713.911,-167.251 752.394,-167.251 777.838,-167.251"/>
<polygon fill="#9a32cd" stroke="#9a32cd" points="680.206,-163.752 670.206,-167.251 680.206,-170.752 680.206,-163.752"/>
<text text-anchor="middle" x="724" y="-171.251" font-family="Helvetica,sans-Serif" font-size="10.00"> m_request_ref</text>
</g>
<!-- Node13&#45;&gt;Node12 -->
<g id="edge26" class="edge"><title>Node13&#45;&gt;Node12</title>
<path fill="none" stroke="#9a32cd" stroke-dasharray="5,2" d="M370.306,-187.463C419.938,-183.312 499.686,-176.644 553.889,-172.111"/>
<polygon fill="#9a32cd" stroke="#9a32cd" points="369.865,-183.987 360.192,-188.309 370.449,-190.963 369.865,-183.987"/>
<text text-anchor="middle" x="471" y="-188.251" font-family="Helvetica,sans-Serif" font-size="10.00"> m_reference_count_mutex</text>
</g>
<!-- Node14 -->
<g id="node28" class="node"><title>Node14</title>
<a xlink:href="structstxxl_1_1choose__int__types.html" target="_top" xlink:title="stxxl::choose_int_types\l\&lt; my_pointer_size \&gt;">
<polygon fill="none" stroke="black" points="262.5,-128.251 262.5,-162.251 387.5,-162.251 387.5,-128.251 262.5,-128.251"/>
<text text-anchor="start" x="270.5" y="-149.251" font-family="Helvetica,sans-Serif" font-size="10.00">stxxl::choose_int_types</text>
<text text-anchor="middle" x="325" y="-136.251" font-family="Helvetica,sans-Serif" font-size="10.00">&lt; my_pointer_size &gt;</text>
</a>
</g>
<!-- Node14&#45;&gt;Node12 -->
<g id="edge30" class="edge"><title>Node14&#45;&gt;Node12</title>
<path fill="none" stroke="#9a32cd" stroke-dasharray="5,2" d="M397.658,-144.118C438.45,-144.283 490.206,-145.824 536,-151.251 541.758,-151.934 547.725,-152.838 553.67,-153.871"/>
<polygon fill="#9a32cd" stroke="#9a32cd" points="397.539,-140.618 387.534,-144.105 397.529,-147.618 397.539,-140.618"/>
<text text-anchor="middle" x="471" y="-155.251" font-family="Helvetica,sans-Serif" font-size="10.00"> m_reference_count</text>
</g>
<!-- Node15 -->
<g id="node30" class="node"><title>Node15</title>
<a xlink:href="structstxxl_1_1choose__int__types.html" target="_top" xlink:title="stxxl::choose_int_types\l\&lt; PtrSize \&gt;">
<polygon fill="none" stroke="black" points="0.5,-128.251 0.5,-162.251 125.5,-162.251 125.5,-128.251 0.5,-128.251"/>
<text text-anchor="start" x="8.5" y="-149.251" font-family="Helvetica,sans-Serif" font-size="10.00">stxxl::choose_int_types</text>
<text text-anchor="middle" x="63" y="-136.251" font-family="Helvetica,sans-Serif" font-size="10.00">&lt; PtrSize &gt;</text>
</a>
</g>
<!-- Node15&#45;&gt;Node14 -->
<g id="edge32" class="edge"><title>Node15&#45;&gt;Node14</title>
<path fill="none" stroke="orange" stroke-dasharray="5,2" d="M135.913,-145.251C175.636,-145.251 224.295,-145.251 262.303,-145.251"/>
<polygon fill="orange" stroke="orange" points="135.756,-141.752 125.756,-145.251 135.755,-148.752 135.756,-141.752"/>
<text text-anchor="middle" x="194" y="-149.251" font-family="Helvetica,sans-Serif" font-size="10.00"> &lt; my_pointer_size &gt;</text>
</g>
<!-- Node16&#45;&gt;Node10 -->
<g id="edge34" class="edge"><title>Node16&#45;&gt;Node10</title>
<path fill="none" stroke="orange" stroke-dasharray="5,2" d="M1018.36,-120.251C1048.28,-120.251 1084.48,-120.251 1114.43,-120.251"/>
<polygon fill="orange" stroke="orange" points="1018.06,-116.752 1008.06,-120.251 1018.06,-123.752 1018.06,-116.752"/>
<text text-anchor="middle" x="1058" y="-124.251" font-family="Helvetica,sans-Serif" font-size="10.00"> &lt; raw_size &gt;</text>
</g>
<!-- Node17&#45;&gt;Node8 -->
<g id="edge38" class="edge"><title>Node17&#45;&gt;Node8</title>
<path fill="none" stroke="orange" stroke-dasharray="5,2" d="M1464.27,-42.0971C1466.87,-41.788 1469.45,-41.5047 1472,-41.2514 1516.73,-36.804 1566.87,-35.622 1607.78,-35.6328"/>
<polygon fill="orange" stroke="orange" points="1463.63,-38.651 1454.16,-43.4076 1464.53,-45.5929 1463.63,-38.651"/>
<text text-anchor="start" x="1472" y="-97.2514" font-family="Helvetica,sans-Serif" font-size="10.00"> &lt; Type,((RawSize&#45;sizeof</text>
<text text-anchor="start" x="1472" y="-84.2514" font-family="Helvetica,sans-Serif" font-size="10.00">(BID&lt; RawSize &gt;)*NBids</text>
<text text-anchor="start" x="1472" y="-71.2514" font-family="Helvetica,sans-Serif" font-size="10.00">&#45;sizeof(MetaInfoType))</text>
<text text-anchor="start" x="1472" y="-58.2514" font-family="Helvetica,sans-Serif" font-size="10.00">/sizeof(Type)), RawSize,</text>
<text text-anchor="middle" x="1531" y="-45.2514" font-family="Helvetica,sans-Serif" font-size="10.00"> NBids &gt;</text>
</g>
<!-- Node18&#45;&gt;Node7 -->
<g id="edge44" class="edge"><title>Node18&#45;&gt;Node7</title>
<path fill="none" stroke="orange" stroke-dasharray="5,2" d="M1983.11,-37.2514C2030.69,-37.2514 2090.89,-37.2514 2136.42,-37.2514"/>
<polygon fill="orange" stroke="orange" points="1982.85,-33.7515 1972.85,-37.2514 1982.85,-40.7515 1982.85,-33.7515"/>
<text text-anchor="start" x="1996.5" y="-54.2514" font-family="Helvetica,sans-Serif" font-size="10.00"> &lt; Type, RawSize, NRef,</text>
<text text-anchor="middle" x="2054" y="-41.2514" font-family="Helvetica,sans-Serif" font-size="10.00"> MetaInfoType &gt;</text>
</g>
<!-- Node19 -->
<g id="node42" class="node"><title>Node19</title>
<a xlink:href="classstxxl_1_1mng__local_1_1filler__struct.html" target="_top" xlink:title="stxxl::mng_local::filler\l_struct\&lt; FillSize \&gt;">
<polygon fill="none" stroke="black" points="1633,-154.251 1633,-188.251 1747,-188.251 1747,-154.251 1633,-154.251"/>
<text text-anchor="start" x="1641" y="-175.251" font-family="Helvetica,sans-Serif" font-size="10.00">stxxl::mng_local::filler</text>
<text text-anchor="middle" x="1690" y="-162.251" font-family="Helvetica,sans-Serif" font-size="10.00">_struct&lt; FillSize &gt;</text>
</a>
</g>
<!-- Node19&#45;&gt;Node6 -->
<g id="edge48" class="edge"><title>Node19&#45;&gt;Node6</title>
<path fill="none" stroke="#9a32cd" stroke-dasharray="5,2" d="M1757.07,-157.692C1780.68,-153.259 1807.45,-148.615 1832,-145.251 2000.15,-122.215 2197.26,-115.164 2316.29,-113.062"/>
<polygon fill="#9a32cd" stroke="#9a32cd" points="1756.33,-154.27 1747.16,-159.575 1757.64,-161.147 1756.33,-154.27"/>
<text text-anchor="middle" x="2054" y="-132.251" font-family="Helvetica,sans-Serif" font-size="10.00"> filler</text>
</g>
<!-- Node21 -->
<g id="node46" class="node"><title>Node21</title>
<a xlink:href="classstxxl_1_1mng__local_1_1add__filler.html" target="_top" xlink:title="Contains per block filler for stxxl::typed_block , not intended for direct use. ">
<polygon fill="none" stroke="black" points="1832,-154.251 1832,-188.251 1978,-188.251 1978,-154.251 1832,-154.251"/>
<text text-anchor="start" x="1840" y="-175.251" font-family="Helvetica,sans-Serif" font-size="10.00">stxxl::mng_local::add</text>
<text text-anchor="middle" x="1905" y="-162.251" font-family="Helvetica,sans-Serif" font-size="10.00">_filler&lt; BaseType, FillSize &gt;</text>
</a>
</g>
<!-- Node19&#45;&gt;Node21 -->
<g id="edge54" class="edge"><title>Node19&#45;&gt;Node21</title>
<path fill="none" stroke="#9a32cd" stroke-dasharray="5,2" d="M1757.34,-171.251C1781.01,-171.251 1807.71,-171.251 1831.84,-171.251"/>
<polygon fill="#9a32cd" stroke="#9a32cd" points="1757.05,-167.752 1747.05,-171.251 1757.05,-174.752 1757.05,-167.752"/>
<text text-anchor="middle" x="1802" y="-175.251" font-family="Helvetica,sans-Serif" font-size="10.00"> filler</text>
</g>
<!-- Node23 -->
<g id="node51" class="node"><title>Node23</title>
<a xlink:href="classstxxl_1_1mng__local_1_1add__filler.html" target="_top" xlink:title="stxxl::mng_local::add\l_filler\&lt; Type, RawSize\l&#45;sizeof(Type)\&gt;">
<polygon fill="none" stroke="black" points="2143,-231.751 2143,-278.751 2265,-278.751 2265,-231.751 2143,-231.751"/>
<text text-anchor="start" x="2151" y="-265.751" font-family="Helvetica,sans-Serif" font-size="10.00">stxxl::mng_local::add</text>
<text text-anchor="start" x="2151" y="-252.751" font-family="Helvetica,sans-Serif" font-size="10.00">_filler&lt; Type, RawSize</text>
<text text-anchor="middle" x="2204" y="-239.751" font-family="Helvetica,sans-Serif" font-size="10.00">&#45;sizeof(Type)&gt;</text>
</a>
</g>
<!-- Node19&#45;&gt;Node23 -->
<g id="edge60" class="edge"><title>Node19&#45;&gt;Node23</title>
<path fill="none" stroke="#9a32cd" stroke-dasharray="5,2" d="M1757.25,-183.652C1780.88,-187.985 1807.61,-192.862 1832,-197.251 1904.85,-210.362 1922.89,-214.694 1996,-226.251 2045.34,-234.05 2101.44,-241.807 2142.93,-247.334"/>
<polygon fill="#9a32cd" stroke="#9a32cd" points="1757.8,-180.194 1747.33,-181.831 1756.54,-187.079 1757.8,-180.194"/>
<text text-anchor="middle" x="1905" y="-228.251" font-family="Helvetica,sans-Serif" font-size="10.00"> filler</text>
</g>
<!-- Node20 -->
<g id="node44" class="node"><title>Node20</title>
<a xlink:href="classstxxl_1_1mng__local_1_1filler__struct.html" target="_top" xlink:title="stxxl::mng_local::filler\l_struct\&lt; Bytes \&gt;">
<polygon fill="none" stroke="black" points="1316,-154.251 1316,-188.251 1430,-188.251 1430,-154.251 1316,-154.251"/>
<text text-anchor="start" x="1324" y="-175.251" font-family="Helvetica,sans-Serif" font-size="10.00">stxxl::mng_local::filler</text>
<text text-anchor="middle" x="1373" y="-162.251" font-family="Helvetica,sans-Serif" font-size="10.00">_struct&lt; Bytes &gt;</text>
</a>
</g>
<!-- Node20&#45;&gt;Node19 -->
<g id="edge50" class="edge"><title>Node20&#45;&gt;Node19</title>
<path fill="none" stroke="orange" stroke-dasharray="5,2" d="M1440.08,-171.251C1497.31,-171.251 1578.71,-171.251 1632.88,-171.251"/>
<polygon fill="orange" stroke="orange" points="1440.04,-167.752 1430.04,-171.251 1440.04,-174.752 1440.04,-167.752"/>
<text text-anchor="middle" x="1531" y="-175.251" font-family="Helvetica,sans-Serif" font-size="10.00"> &lt; FillSize &gt;</text>
</g>
<!-- Node21&#45;&gt;Node6 -->
<g id="edge52" class="edge"><title>Node21&#45;&gt;Node6</title>
<path fill="none" stroke="orange" stroke-dasharray="5,2" d="M1988.19,-161.047C2030.62,-155.899 2083.05,-149.624 2130,-144.251 2191.72,-137.189 2260.78,-129.654 2316.45,-123.671"/>
<polygon fill="orange" stroke="orange" points="1987.69,-157.582 1978.19,-162.262 1988.54,-164.53 1987.69,-157.582"/>
<text text-anchor="start" x="2130" y="-213.251" font-family="Helvetica,sans-Serif" font-size="10.00"> &lt; mng_local::block</text>
<text text-anchor="start" x="2130" y="-200.251" font-family="Helvetica,sans-Serif" font-size="10.00">_w_info&lt; Type, RawSize,</text>
<text text-anchor="start" x="2130" y="-187.251" font-family="Helvetica,sans-Serif" font-size="10.00"> NRef, MetaInfoType &gt;,</text>
<text text-anchor="start" x="2130" y="-174.251" font-family="Helvetica,sans-Serif" font-size="10.00"> RawSize&#45;sizeof(mng_local</text>
<text text-anchor="start" x="2130" y="-161.251" font-family="Helvetica,sans-Serif" font-size="10.00">::block_w_info&lt; Type, RawSize,</text>
<text text-anchor="middle" x="2204" y="-148.251" font-family="Helvetica,sans-Serif" font-size="10.00"> NRef, MetaInfoType &gt;)&gt;</text>
</g>
<!-- Node21&#45;&gt;Node23 -->
<g id="edge62" class="edge"><title>Node21&#45;&gt;Node23</title>
<path fill="none" stroke="orange" stroke-dasharray="5,2" d="M1988.13,-171.362C2027.34,-174.244 2073.79,-181.887 2112,-200.251 2121.92,-205.018 2121.02,-210.897 2130,-217.251 2137.19,-222.339 2145.16,-227.159 2153.12,-231.551"/>
<polygon fill="orange" stroke="orange" points="1988.27,-167.864 1978.07,-170.714 1987.82,-174.85 1988.27,-167.864"/>
<text text-anchor="start" x="1997" y="-217.251" font-family="Helvetica,sans-Serif" font-size="10.00"> &lt; Type, RawSize&#45;sizeof</text>
<text text-anchor="middle" x="2054" y="-204.251" font-family="Helvetica,sans-Serif" font-size="10.00">(Type)&gt;</text>
</g>
<!-- Node22 -->
<g id="node49" class="node"><title>Node22</title>
<a xlink:href="classstxxl_1_1mng__local_1_1expand__struct.html" target="_top" xlink:title="Helper to compute the size of the filler , not intended for direct use. ">
<polygon fill="none" stroke="black" points="2355.5,-214.251 2355.5,-248.251 2492.5,-248.251 2492.5,-214.251 2355.5,-214.251"/>
<text text-anchor="start" x="2363.5" y="-235.251" font-family="Helvetica,sans-Serif" font-size="10.00">stxxl::mng_local::expand</text>
<text text-anchor="middle" x="2424" y="-222.251" font-family="Helvetica,sans-Serif" font-size="10.00">_struct&lt; Type, RawSize &gt;</text>
</a>
</g>
<!-- Node22&#45;&gt;Node5 -->
<g id="edge56" class="edge"><title>Node22&#45;&gt;Node5</title>
<path fill="none" stroke="orange" stroke-dasharray="5,2" d="M2502.88,-218.941C2558.19,-210.308 2631.96,-198.795 2687.96,-190.055"/>
<polygon fill="orange" stroke="orange" points="2502.11,-215.518 2492.77,-220.518 2503.19,-222.434 2502.11,-215.518"/>
<text text-anchor="start" x="2550.5" y="-254.251" font-family="Helvetica,sans-Serif" font-size="10.00"> &lt; mng_local::block</text>
<text text-anchor="start" x="2550.5" y="-241.251" font-family="Helvetica,sans-Serif" font-size="10.00">_w_info&lt; Type, RawSize,</text>
<text text-anchor="start" x="2550.5" y="-228.251" font-family="Helvetica,sans-Serif" font-size="10.00"> NRef, MetaInfoType &gt;,</text>
<text text-anchor="middle" x="2610" y="-215.251" font-family="Helvetica,sans-Serif" font-size="10.00"> RawSize &gt;</text>
</g>
<!-- Node23&#45;&gt;Node22 -->
<g id="edge58" class="edge"><title>Node23&#45;&gt;Node22</title>
<path fill="none" stroke="midnightblue" d="M2275.32,-247.471C2300.98,-244.671 2329.87,-241.52 2355.3,-238.745"/>
<polygon fill="midnightblue" stroke="midnightblue" points="2274.84,-244.002 2265.28,-248.566 2275.6,-250.961 2274.84,-244.002"/>
</g>
</g>
</svg>
