<?xml version="1.0" encoding="UTF-8" standalone="no"?>
<!DOCTYPE svg PUBLIC "-//W3C//DTD SVG 1.1//EN"
 "http://www.w3.org/Graphics/SVG/1.1/DTD/svg11.dtd">
<!-- Generated by graphviz version 2.26.3 (20100126.1600)
 -->
<!-- Title: stxxl::swappable_block&lt; ValueType, BlockSize &gt; Pages: 1 -->
<svg width="3264pt" height="392pt"
 viewBox="0.00 0.00 3264.00 392.00" xmlns="http://www.w3.org/2000/svg" xmlns:xlink="http://www.w3.org/1999/xlink">
<g id="graph1" class="graph" transform="scale(1 1) rotate(0) translate(4 388)">
<title>stxxl::swappable_block&lt; ValueType, BlockSize &gt;</title>
<!-- Node1 -->
<g id="node1" class="node"><title>Node1</title>
<polygon fill="#bfbfbf" stroke="black" points="3120,-35 3120,-69 3256,-69 3256,-35 3120,-35"/>
<text text-anchor="start" x="3128" y="-56" font-family="Helvetica,sans-Serif" font-size="10.00">stxxl::swappable_block</text>
<text text-anchor="middle" x="3188" y="-43" font-family="Helvetica,sans-Serif" font-size="10.00">&lt; ValueType, BlockSize &gt;</text>
</g>
<!-- Node2 -->
<g id="node2" class="node"><title>Node2</title>
<a xlink:href="structstxxl_1_1choose__int__types.html" target="_top" xlink:title="stxxl::choose_int_types\l\&lt; my_pointer_size \&gt;">
<polygon fill="none" stroke="black" points="262.5,-0 262.5,-34 387.5,-34 387.5,-0 262.5,-0"/>
<text text-anchor="start" x="270.5" y="-21" font-family="Helvetica,sans-Serif" font-size="10.00">stxxl::choose_int_types</text>
<text text-anchor="middle" x="325" y="-8" font-family="Helvetica,sans-Serif" font-size="10.00">&lt; my_pointer_size &gt;</text>
</a>
</g>
<!-- Node2&#45;&gt;Node1 -->
<g id="edge2" class="edge"><title>Node2&#45;&gt;Node1</title>
<path fill="none" stroke="#9a32cd" stroke-dasharray="5,2" d="M397.844,-12.6664C455.838,-9.58864 539.09,-6 612,-6 612,-6 612,-6 2954,-6 3016.1,-6 3085.77,-21.7928 3132.81,-34.8713"/>
<polygon fill="#9a32cd" stroke="#9a32cd" points="397.476,-9.18112 387.679,-13.2144 397.852,-16.171 397.476,-9.18112"/>
<text text-anchor="middle" x="1690" y="-10" font-family="Helvetica,sans-Serif" font-size="10.00"> reference_count</text>
</g>
<!-- Node7 -->
<g id="node12" class="node"><title>Node7</title>
<a xlink:href="classstxxl_1_1atomic__counted__object.html" target="_top" xlink:title="Provides reference counting abilities for use with counting_ptr with mutex locking. ">
<polygon fill="none" stroke="black" points="554,-52 554,-86 670,-86 670,-52 554,-52"/>
<text text-anchor="start" x="562" y="-73" font-family="Helvetica,sans-Serif" font-size="10.00">stxxl::atomic_counted</text>
<text text-anchor="middle" x="612" y="-60" font-family="Helvetica,sans-Serif" font-size="10.00">_object</text>
</a>
</g>
<!-- Node2&#45;&gt;Node7 -->
<g id="edge18" class="edge"><title>Node2&#45;&gt;Node7</title>
<path fill="none" stroke="#9a32cd" stroke-dasharray="5,2" d="M397.997,-28.7437C438.685,-35.4679 490.232,-44.2813 536,-53 541.828,-54.1102 547.898,-55.3115 553.954,-56.5396"/>
<polygon fill="#9a32cd" stroke="#9a32cd" points="398.332,-25.2518 387.896,-27.0805 397.195,-32.1588 398.332,-25.2518"/>
<text text-anchor="middle" x="471" y="-57" font-family="Helvetica,sans-Serif" font-size="10.00"> m_reference_count</text>
</g>
<!-- Node3 -->
<g id="node4" class="node"><title>Node3</title>
<a xlink:href="structstxxl_1_1choose__int__types.html" target="_top" xlink:title="stxxl::choose_int_types\l\&lt; PtrSize \&gt;">
<polygon fill="none" stroke="black" points="0.5,-0 0.5,-34 125.5,-34 125.5,-0 0.5,-0"/>
<text text-anchor="start" x="8.5" y="-21" font-family="Helvetica,sans-Serif" font-size="10.00">stxxl::choose_int_types</text>
<text text-anchor="middle" x="63" y="-8" font-family="Helvetica,sans-Serif" font-size="10.00">&lt; PtrSize &gt;</text>
</a>
</g>
<!-- Node3&#45;&gt;Node2 -->
<g id="edge4" class="edge"><title>Node3&#45;&gt;Node2</title>
<path fill="none" stroke="orange" stroke-dasharray="5,2" d="M135.913,-17C175.636,-17 224.295,-17 262.303,-17"/>
<polygon fill="orange" stroke="orange" points="135.756,-13.5001 125.756,-17 135.755,-20.5001 135.756,-13.5001"/>
<text text-anchor="middle" x="194" y="-21" font-family="Helvetica,sans-Serif" font-size="10.00"> &lt; my_pointer_size &gt;</text>
</g>
<!-- Node4 -->
<g id="node6" class="node"><title>Node4</title>
<a xlink:href="structstxxl_1_1BID.html" target="_top" xlink:title="stxxl::BID\&lt; raw_size \&gt;">
<polygon fill="none" stroke="black" points="1114.5,-87.5 1114.5,-108.5 1233.5,-108.5 1233.5,-87.5 1114.5,-87.5"/>
<text text-anchor="middle" x="1174" y="-95.5" font-family="Helvetica,sans-Serif" font-size="10.00">stxxl::BID&lt; raw_size &gt;</text>
</a>
</g>
<!-- Node4&#45;&gt;Node1 -->
<g id="edge6" class="edge"><title>Node4&#45;&gt;Node1</title>
<path fill="none" stroke="#9a32cd" stroke-dasharray="5,2" d="M1211.03,-84.1263C1250.56,-70.5828 1315.3,-52 1373,-52 1373,-52 1373,-52 2954,-52 3009.86,-52 3073.22,-52 3119.91,-52"/>
<polygon fill="#9a32cd" stroke="#9a32cd" points="1209.83,-80.8394 1201.55,-87.4467 1212.14,-87.4463 1209.83,-80.8394"/>
<text text-anchor="middle" x="2204" y="-56" font-family="Helvetica,sans-Serif" font-size="10.00"> external_data</text>
</g>
<!-- Node14 -->
<g id="node29" class="node"><title>Node14</title>
<a xlink:href="classstxxl_1_1mng__local_1_1block__w__bids.html" target="_top" xlink:title="stxxl::mng_local::block\l_w_bids\&lt; Type,((RawSize\l&#45;sizeof(BID\&lt; RawSize \&gt;)*NBids\l&#45;sizeof(MetaInfoType))/sizeof\l(Type)), RawSize, NBids \&gt;">
<polygon fill="none" stroke="black" points="1608,-94.5 1608,-167.5 1772,-167.5 1772,-94.5 1608,-94.5"/>
<text text-anchor="start" x="1616" y="-154.5" font-family="Helvetica,sans-Serif" font-size="10.00">stxxl::mng_local::block</text>
<text text-anchor="start" x="1616" y="-141.5" font-family="Helvetica,sans-Serif" font-size="10.00">_w_bids&lt; Type,((RawSize</text>
<text text-anchor="start" x="1616" y="-128.5" font-family="Helvetica,sans-Serif" font-size="10.00">&#45;sizeof(BID&lt; RawSize &gt;)*NBids</text>
<text text-anchor="start" x="1616" y="-115.5" font-family="Helvetica,sans-Serif" font-size="10.00">&#45;sizeof(MetaInfoType))/sizeof</text>
<text text-anchor="middle" x="1690" y="-102.5" font-family="Helvetica,sans-Serif" font-size="10.00">(Type)), RawSize, NBids &gt;</text>
</a>
</g>
<!-- Node4&#45;&gt;Node14 -->
<g id="edge36" class="edge"><title>Node4&#45;&gt;Node14</title>
<path fill="none" stroke="#9a32cd" stroke-dasharray="5,2" d="M1243.88,-98.9051C1300.56,-99.9621 1382.5,-102.221 1454,-107 1505.26,-110.426 1562.61,-116.212 1607.93,-121.245"/>
<polygon fill="#9a32cd" stroke="#9a32cd" points="1243.66,-95.4007 1233.6,-98.7214 1243.53,-102.4 1243.66,-95.4007"/>
<text text-anchor="middle" x="1373" y="-111" font-family="Helvetica,sans-Serif" font-size="10.00"> ref</text>
</g>
<!-- Node16 -->
<g id="node34" class="node"><title>Node16</title>
<a xlink:href="classstxxl_1_1mng__local_1_1block__w__bids.html" target="_top" xlink:title="Contains BID references for stxxl::typed_block , not intended for direct use. ">
<polygon fill="none" stroke="black" points="1292,-129.5 1292,-176.5 1454,-176.5 1454,-129.5 1292,-129.5"/>
<text text-anchor="start" x="1300" y="-163.5" font-family="Helvetica,sans-Serif" font-size="10.00">stxxl::mng_local::block</text>
<text text-anchor="start" x="1300" y="-150.5" font-family="Helvetica,sans-Serif" font-size="10.00">_w_bids&lt; Type, Size, RawSize,</text>
<text text-anchor="middle" x="1373" y="-137.5" font-family="Helvetica,sans-Serif" font-size="10.00"> NBids &gt;</text>
</a>
</g>
<!-- Node4&#45;&gt;Node16 -->
<g id="edge42" class="edge"><title>Node4&#45;&gt;Node16</title>
<path fill="none" stroke="#9a32cd" stroke-dasharray="5,2" d="M1222.28,-111.344C1243.2,-117.126 1268.28,-124.057 1291.92,-130.59"/>
<polygon fill="#9a32cd" stroke="#9a32cd" points="1222.94,-107.895 1212.37,-108.605 1221.08,-114.642 1222.94,-107.895"/>
<text text-anchor="middle" x="1266" y="-129" font-family="Helvetica,sans-Serif" font-size="10.00"> ref</text>
</g>
<!-- Node5 -->
<g id="node8" class="node"><title>Node5</title>
<a xlink:href="classstxxl_1_1file.html" target="_top" xlink:title="Defines interface of file. ">
<polygon fill="none" stroke="black" points="778,-79.5 778,-100.5 834,-100.5 834,-79.5 778,-79.5"/>
<text text-anchor="middle" x="806" y="-87.5" font-family="Helvetica,sans-Serif" font-size="10.00">stxxl::file</text>
</a>
</g>
<!-- Node5&#45;&gt;Node4 -->
<g id="edge8" class="edge"><title>Node5&#45;&gt;Node4</title>
<path fill="none" stroke="#9a32cd" stroke-dasharray="5,2" d="M844.196,-98.0543C846.829,-98.4301 849.449,-98.7528 852,-99 957.285,-109.203 984.224,-99.6296 1090,-99 1097.88,-98.9531 1106.17,-98.8815 1114.35,-98.7977"/>
<polygon fill="#9a32cd" stroke="#9a32cd" points="844.529,-94.5621 834.093,-96.3889 843.39,-101.469 844.529,-94.5621"/>
<text text-anchor="middle" x="959" y="-107" font-family="Helvetica,sans-Serif" font-size="10.00"> storage</text>
</g>
<!-- Node9 -->
<g id="node18" class="node"><title>Node9</title>
<a xlink:href="structstxxl_1_1BID.html" target="_top" xlink:title="Block identifier class. ">
<polygon fill="none" stroke="black" points="910,-55.5 910,-76.5 1008,-76.5 1008,-55.5 910,-55.5"/>
<text text-anchor="middle" x="959" y="-63.5" font-family="Helvetica,sans-Serif" font-size="10.00">stxxl::BID&lt; Size &gt;</text>
</a>
</g>
<!-- Node5&#45;&gt;Node9 -->
<g id="edge22" class="edge"><title>Node5&#45;&gt;Node9</title>
<path fill="none" stroke="#9a32cd" stroke-dasharray="5,2" d="M843.987,-84.0413C863.862,-80.9236 888.431,-77.0697 909.751,-73.7253"/>
<polygon fill="#9a32cd" stroke="#9a32cd" points="843.399,-80.5905 834.063,-85.598 844.484,-87.506 843.399,-80.5905"/>
<text text-anchor="middle" x="872" y="-86" font-family="Helvetica,sans-Serif" font-size="10.00"> storage</text>
</g>
<!-- Node6 -->
<g id="node10" class="node"><title>Node6</title>
<a xlink:href="classstxxl_1_1noncopyable.html" target="_top" xlink:title="stxxl::noncopyable">
<polygon fill="none" stroke="black" points="12,-90.5 12,-111.5 114,-111.5 114,-90.5 12,-90.5"/>
<text text-anchor="middle" x="63" y="-98.5" font-family="Helvetica,sans-Serif" font-size="10.00">stxxl::noncopyable</text>
</a>
</g>
<!-- Node6&#45;&gt;Node5 -->
<g id="edge10" class="edge"><title>Node6&#45;&gt;Node5</title>
<path fill="none" stroke="#8b1a1a" d="M124.601,-105.284C246.409,-112.791 526.496,-125.257 760,-100 765.85,-99.3672 772.048,-98.2993 777.936,-97.0912"/>
<polygon fill="#8b1a1a" stroke="#8b1a1a" points="124.558,-101.774 114.359,-104.641 124.12,-108.761 124.558,-101.774"/>
</g>
<!-- Node8 -->
<g id="node14" class="node"><title>Node8</title>
<a xlink:href="classstxxl_1_1mutex.html" target="_top" xlink:title="stxxl::mutex">
<polygon fill="none" stroke="black" points="290,-64.5 290,-85.5 360,-85.5 360,-64.5 290,-64.5"/>
<text text-anchor="middle" x="325" y="-72.5" font-family="Helvetica,sans-Serif" font-size="10.00">stxxl::mutex</text>
</a>
</g>
<!-- Node6&#45;&gt;Node8 -->
<g id="edge16" class="edge"><title>Node6&#45;&gt;Node8</title>
<path fill="none" stroke="#8b1a1a" d="M124.156,-94.931C175.679,-89.8181 247.573,-82.6836 289.908,-78.4824"/>
<polygon fill="#8b1a1a" stroke="#8b1a1a" points="123.744,-91.4547 114.138,-95.9252 124.435,-98.4205 123.744,-91.4547"/>
</g>
<!-- Node7&#45;&gt;Node5 -->
<g id="edge12" class="edge"><title>Node7&#45;&gt;Node5</title>
<path fill="none" stroke="#9a32cd" stroke-dasharray="5,2" d="M680.42,-76.4063C713.911,-80.0316 752.394,-84.1972 777.838,-86.9515"/>
<polygon fill="#9a32cd" stroke="#9a32cd" points="680.525,-72.8973 670.206,-75.3007 679.772,-79.8566 680.525,-72.8973"/>
<text text-anchor="middle" x="724" y="-88" font-family="Helvetica,sans-Serif" font-size="10.00"> m_request_ref</text>
</g>
<!-- Node8&#45;&gt;Node7 -->
<g id="edge14" class="edge"><title>Node8&#45;&gt;Node7</title>
<path fill="none" stroke="#9a32cd" stroke-dasharray="5,2" d="M370.306,-74.0528C419.938,-73.0152 499.686,-71.348 553.889,-70.2149"/>
<polygon fill="#9a32cd" stroke="#9a32cd" points="370.116,-70.5559 360.192,-74.2643 370.263,-77.5544 370.116,-70.5559"/>
<text text-anchor="middle" x="471" y="-77" font-family="Helvetica,sans-Serif" font-size="10.00"> m_reference_count_mutex</text>
</g>
<!-- Node9&#45;&gt;Node4 -->
<g id="edge20" class="edge"><title>Node9&#45;&gt;Node4</title>
<path fill="none" stroke="orange" stroke-dasharray="5,2" d="M1017.97,-74.7764C1047.97,-79.2413 1084.35,-84.6562 1114.43,-89.1338"/>
<polygon fill="orange" stroke="orange" points="1018.46,-71.3117 1008.06,-73.3013 1017.43,-78.2354 1018.46,-71.3117"/>
<text text-anchor="middle" x="1058" y="-88" font-family="Helvetica,sans-Serif" font-size="10.00"> &lt; raw_size &gt;</text>
</g>
<!-- Node10 -->
<g id="node21" class="node"><title>Node10</title>
<a xlink:href="classstxxl_1_1typed__block.html" target="_top" xlink:title="Block containing elements of fixed length. ">
<polygon fill="none" stroke="black" points="2890,-102.5 2890,-149.5 3018,-149.5 3018,-102.5 2890,-102.5"/>
<text text-anchor="start" x="2898" y="-136.5" font-family="Helvetica,sans-Serif" font-size="10.00">stxxl::typed_block</text>
<text text-anchor="start" x="2898" y="-123.5" font-family="Helvetica,sans-Serif" font-size="10.00">&lt; RawSize, Type, NRef,</text>
<text text-anchor="middle" x="2954" y="-110.5" font-family="Helvetica,sans-Serif" font-size="10.00"> MetaInfoType &gt;</text>
</a>
</g>
<!-- Node10&#45;&gt;Node1 -->
<g id="edge24" class="edge"><title>Node10&#45;&gt;Node1</title>
<path fill="none" stroke="#9a32cd" stroke-dasharray="5,2" d="M3027.81,-102.657C3062.3,-91.7497 3102.62,-78.9999 3134.18,-69.0201"/>
<polygon fill="#9a32cd" stroke="#9a32cd" points="3026.73,-99.3289 3018.25,-105.681 3028.84,-106.003 3026.73,-99.3289"/>
<text text-anchor="middle" x="3069" y="-103" font-family="Helvetica,sans-Serif" font-size="10.00"> internal_data</text>
</g>
<!-- Node11 -->
<g id="node23" class="node"><title>Node11</title>
<a xlink:href="classstxxl_1_1mng__local_1_1expand__struct.html" target="_top" xlink:title="stxxl::mng_local::expand\l_struct\&lt; mng_local::block\l_w_info\&lt; Type, RawSize, NRef,\l MetaInfoType \&gt;, RawSize \&gt;">
<polygon fill="none" stroke="black" points="2688,-164 2688,-224 2852,-224 2852,-164 2688,-164"/>
<text text-anchor="start" x="2696" y="-211" font-family="Helvetica,sans-Serif" font-size="10.00">stxxl::mng_local::expand</text>
<text text-anchor="start" x="2696" y="-198" font-family="Helvetica,sans-Serif" font-size="10.00">_struct&lt; mng_local::block</text>
<text text-anchor="start" x="2696" y="-185" font-family="Helvetica,sans-Serif" font-size="10.00">_w_info&lt; Type, RawSize, NRef,</text>
<text text-anchor="middle" x="2770" y="-172" font-family="Helvetica,sans-Serif" font-size="10.00"> MetaInfoType &gt;, RawSize &gt;</text>
</a>
</g>
<!-- Node11&#45;&gt;Node10 -->
<g id="edge26" class="edge"><title>Node11&#45;&gt;Node10</title>
<path fill="none" stroke="midnightblue" d="M2860.79,-160.447C2870.77,-156.758 2880.77,-153.062 2890.32,-149.533"/>
<polygon fill="midnightblue" stroke="midnightblue" points="2859.41,-157.227 2851.24,-163.976 2861.83,-163.793 2859.41,-157.227"/>
</g>
<!-- Node12 -->
<g id="node25" class="node"><title>Node12</title>
<a xlink:href="classstxxl_1_1mng__local_1_1add__filler.html" target="_top" xlink:title="stxxl::mng_local::add\l_filler\&lt; mng_local::block\l_w_info\&lt; Type, RawSize,\l NRef, MetaInfoType \&gt;, RawSize\l&#45;sizeof(mng_local::block_w_info\l\&lt; Type, RawSize, NRef, MetaInfoType \&gt;)\&gt;">
<polygon fill="none" stroke="black" points="2316.5,-151 2316.5,-237 2531.5,-237 2531.5,-151 2316.5,-151"/>
<text text-anchor="start" x="2324.5" y="-224" font-family="Helvetica,sans-Serif" font-size="10.00">stxxl::mng_local::add</text>
<text text-anchor="start" x="2324.5" y="-211" font-family="Helvetica,sans-Serif" font-size="10.00">_filler&lt; mng_local::block</text>
<text text-anchor="start" x="2324.5" y="-198" font-family="Helvetica,sans-Serif" font-size="10.00">_w_info&lt; Type, RawSize,</text>
<text text-anchor="start" x="2324.5" y="-185" font-family="Helvetica,sans-Serif" font-size="10.00"> NRef, MetaInfoType &gt;, RawSize</text>
<text text-anchor="start" x="2324.5" y="-172" font-family="Helvetica,sans-Serif" font-size="10.00">&#45;sizeof(mng_local::block_w_info</text>
<text text-anchor="middle" x="2424" y="-159" font-family="Helvetica,sans-Serif" font-size="10.00">&lt; Type, RawSize, NRef, MetaInfoType &gt;)&gt;</text>
</a>
</g>
<!-- Node12&#45;&gt;Node11 -->
<g id="edge28" class="edge"><title>Node12&#45;&gt;Node11</title>
<path fill="none" stroke="midnightblue" d="M2541.73,-194C2589.76,-194 2644.14,-194 2687.78,-194"/>
<polygon fill="midnightblue" stroke="midnightblue" points="2541.58,-190.5 2531.58,-194 2541.58,-197.5 2541.58,-190.5"/>
</g>
<!-- Node13 -->
<g id="node27" class="node"><title>Node13</title>
<a xlink:href="classstxxl_1_1mng__local_1_1block__w__info.html" target="_top" xlink:title="stxxl::mng_local::block\l_w_info\&lt; Type, RawSize,\l NRef, MetaInfoType \&gt;">
<polygon fill="none" stroke="black" points="2136.5,-118.5 2136.5,-165.5 2271.5,-165.5 2271.5,-118.5 2136.5,-118.5"/>
<text text-anchor="start" x="2144.5" y="-152.5" font-family="Helvetica,sans-Serif" font-size="10.00">stxxl::mng_local::block</text>
<text text-anchor="start" x="2144.5" y="-139.5" font-family="Helvetica,sans-Serif" font-size="10.00">_w_info&lt; Type, RawSize,</text>
<text text-anchor="middle" x="2204" y="-126.5" font-family="Helvetica,sans-Serif" font-size="10.00"> NRef, MetaInfoType &gt;</text>
</a>
</g>
<!-- Node13&#45;&gt;Node12 -->
<g id="edge30" class="edge"><title>Node13&#45;&gt;Node12</title>
<path fill="none" stroke="midnightblue" d="M2281.27,-160.265C2292.56,-162.932 2304.35,-165.719 2316.1,-168.497"/>
<polygon fill="midnightblue" stroke="midnightblue" points="2282.04,-156.849 2271.5,-157.955 2280.43,-163.662 2282.04,-156.849"/>
</g>
<!-- Node14&#45;&gt;Node13 -->
<g id="edge32" class="edge"><title>Node14&#45;&gt;Node13</title>
<path fill="none" stroke="midnightblue" d="M1782.5,-114.57C1798.93,-112.251 1815.93,-110.237 1832,-109 1896.7,-104.018 1913.28,-104.3 1978,-109 2031.39,-112.877 2091.32,-121.842 2136.04,-129.451"/>
<polygon fill="midnightblue" stroke="midnightblue" points="1781.74,-111.144 1772.35,-116.049 1782.75,-118.07 1781.74,-111.144"/>
</g>
<!-- Node17 -->
<g id="node38" class="node"><title>Node17</title>
<a xlink:href="classstxxl_1_1mng__local_1_1block__w__info.html" target="_top" xlink:title="Contains per block information for stxxl::typed_block , not intended for direct use. ">
<polygon fill="none" stroke="black" points="1837.5,-118.5 1837.5,-165.5 1972.5,-165.5 1972.5,-118.5 1837.5,-118.5"/>
<text text-anchor="start" x="1845.5" y="-152.5" font-family="Helvetica,sans-Serif" font-size="10.00">stxxl::mng_local::block</text>
<text text-anchor="start" x="1845.5" y="-139.5" font-family="Helvetica,sans-Serif" font-size="10.00">_w_info&lt; Type, RawSize,</text>
<text text-anchor="middle" x="1905" y="-126.5" font-family="Helvetica,sans-Serif" font-size="10.00"> NBids, MetaInfoType &gt;</text>
</a>
</g>
<!-- Node14&#45;&gt;Node17 -->
<g id="edge46" class="edge"><title>Node14&#45;&gt;Node17</title>
<path fill="none" stroke="midnightblue" d="M1782.35,-135.725C1800.75,-136.667 1819.76,-137.639 1837.16,-138.529"/>
<polygon fill="midnightblue" stroke="midnightblue" points="1782.37,-132.221 1772.2,-135.206 1782.01,-139.212 1782.37,-132.221"/>
</g>
<!-- Node15 -->
<g id="node31" class="node"><title>Node15</title>
<a xlink:href="classstxxl_1_1mng__local_1_1element__block.html" target="_top" xlink:title="Contains data elements for stxxl::typed_block , not intended for direct use. ">
<polygon fill="none" stroke="black" points="1108,-186 1108,-220 1240,-220 1240,-186 1108,-186"/>
<text text-anchor="start" x="1116" y="-207" font-family="Helvetica,sans-Serif" font-size="10.00">stxxl::mng_local::element</text>
<text text-anchor="middle" x="1174" y="-194" font-family="Helvetica,sans-Serif" font-size="10.00">_block&lt; Type, Size &gt;</text>
</a>
</g>
<!-- Node15&#45;&gt;Node14 -->
<g id="edge34" class="edge"><title>Node15&#45;&gt;Node14</title>
<path fill="none" stroke="midnightblue" d="M1250.34,-214.474C1335.33,-224.394 1475.75,-232.205 1590,-197 1609.88,-190.875 1629.49,-179.464 1646,-167.832"/>
<polygon fill="midnightblue" stroke="midnightblue" points="1250.61,-210.981 1240.26,-213.257 1249.77,-217.93 1250.61,-210.981"/>
</g>
<!-- Node15&#45;&gt;Node16 -->
<g id="edge40" class="edge"><title>Node15&#45;&gt;Node16</title>
<path fill="none" stroke="midnightblue" d="M1250.08,-183.885C1263.73,-180.455 1278,-176.868 1291.79,-173.403"/>
<polygon fill="midnightblue" stroke="midnightblue" points="1249.11,-180.519 1240.26,-186.351 1250.82,-187.308 1249.11,-180.519"/>
</g>
<!-- Node16&#45;&gt;Node14 -->
<g id="edge38" class="edge"><title>Node16&#45;&gt;Node14</title>
<path fill="none" stroke="orange" stroke-dasharray="5,2" d="M1464.24,-132.931C1466.85,-132.586 1469.44,-132.275 1472,-132 1516.78,-127.199 1567.04,-126.645 1608,-127.428"/>
<polygon fill="orange" stroke="orange" points="1463.49,-129.503 1454.1,-134.407 1464.49,-136.43 1463.49,-129.503"/>
<text text-anchor="start" x="1472" y="-188" font-family="Helvetica,sans-Serif" font-size="10.00"> &lt; Type,((RawSize&#45;sizeof</text>
<text text-anchor="start" x="1472" y="-175" font-family="Helvetica,sans-Serif" font-size="10.00">(BID&lt; RawSize &gt;)*NBids</text>
<text text-anchor="start" x="1472" y="-162" font-family="Helvetica,sans-Serif" font-size="10.00">&#45;sizeof(MetaInfoType))</text>
<text text-anchor="start" x="1472" y="-149" font-family="Helvetica,sans-Serif" font-size="10.00">/sizeof(Type)), RawSize,</text>
<text text-anchor="middle" x="1531" y="-136" font-family="Helvetica,sans-Serif" font-size="10.00"> NBids &gt;</text>
</g>
<!-- Node17&#45;&gt;Node13 -->
<g id="edge44" class="edge"><title>Node17&#45;&gt;Node13</title>
<path fill="none" stroke="orange" stroke-dasharray="5,2" d="M1983.11,-142C2030.69,-142 2090.89,-142 2136.42,-142"/>
<polygon fill="orange" stroke="orange" points="1982.85,-138.5 1972.85,-142 1982.85,-145.5 1982.85,-138.5"/>
<text text-anchor="start" x="1996.5" y="-159" font-family="Helvetica,sans-Serif" font-size="10.00"> &lt; Type, RawSize, NRef,</text>
<text text-anchor="middle" x="2054" y="-146" font-family="Helvetica,sans-Serif" font-size="10.00"> MetaInfoType &gt;</text>
</g>
<!-- Node18 -->
<g id="node41" class="node"><title>Node18</title>
<a xlink:href="classstxxl_1_1mng__local_1_1filler__struct.html" target="_top" xlink:title="stxxl::mng_local::filler\l_struct\&lt; FillSize \&gt;">
<polygon fill="none" stroke="black" points="1633,-260 1633,-294 1747,-294 1747,-260 1633,-260"/>
<text text-anchor="start" x="1641" y="-281" font-family="Helvetica,sans-Serif" font-size="10.00">stxxl::mng_local::filler</text>
<text text-anchor="middle" x="1690" y="-268" font-family="Helvetica,sans-Serif" font-size="10.00">_struct&lt; FillSize &gt;</text>
</a>
</g>
<!-- Node18&#45;&gt;Node12 -->
<g id="edge48" class="edge"><title>Node18&#45;&gt;Node12</title>
<path fill="none" stroke="#9a32cd" stroke-dasharray="5,2" d="M1757.17,-264.107C1780.79,-259.731 1807.54,-254.953 1832,-251 1963.75,-229.709 1997.03,-225.465 2130,-214 2191.67,-208.682 2260.73,-203.923 2316.41,-200.383"/>
<polygon fill="#9a32cd" stroke="#9a32cd" points="1756.44,-260.682 1747.25,-265.955 1757.72,-267.564 1756.44,-260.682"/>
<text text-anchor="middle" x="2054" y="-230" font-family="Helvetica,sans-Serif" font-size="10.00"> filler</text>
</g>
<!-- Node20 -->
<g id="node45" class="node"><title>Node20</title>
<a xlink:href="classstxxl_1_1mng__local_1_1add__filler.html" target="_top" xlink:title="Contains per block filler for stxxl::typed_block , not intended for direct use. ">
<polygon fill="none" stroke="black" points="1832,-260 1832,-294 1978,-294 1978,-260 1832,-260"/>
<text text-anchor="start" x="1840" y="-281" font-family="Helvetica,sans-Serif" font-size="10.00">stxxl::mng_local::add</text>
<text text-anchor="middle" x="1905" y="-268" font-family="Helvetica,sans-Serif" font-size="10.00">_filler&lt; BaseType, FillSize &gt;</text>
</a>
</g>
<!-- Node18&#45;&gt;Node20 -->
<g id="edge54" class="edge"><title>Node18&#45;&gt;Node20</title>
<path fill="none" stroke="#9a32cd" stroke-dasharray="5,2" d="M1757.34,-277C1781.01,-277 1807.71,-277 1831.84,-277"/>
<polygon fill="#9a32cd" stroke="#9a32cd" points="1757.05,-273.5 1747.05,-277 1757.05,-280.5 1757.05,-273.5"/>
<text text-anchor="middle" x="1802" y="-281" font-family="Helvetica,sans-Serif" font-size="10.00"> filler</text>
</g>
<!-- Node22 -->
<g id="node50" class="node"><title>Node22</title>
<a xlink:href="classstxxl_1_1mng__local_1_1add__filler.html" target="_top" xlink:title="stxxl::mng_local::add\l_filler\&lt; Type, RawSize\l&#45;sizeof(Type)\&gt;">
<polygon fill="none" stroke="black" points="2143,-336.5 2143,-383.5 2265,-383.5 2265,-336.5 2143,-336.5"/>
<text text-anchor="start" x="2151" y="-370.5" font-family="Helvetica,sans-Serif" font-size="10.00">stxxl::mng_local::add</text>
<text text-anchor="start" x="2151" y="-357.5" font-family="Helvetica,sans-Serif" font-size="10.00">_filler&lt; Type, RawSize</text>
<text text-anchor="middle" x="2204" y="-344.5" font-family="Helvetica,sans-Serif" font-size="10.00">&#45;sizeof(Type)&gt;</text>
</a>
</g>
<!-- Node18&#45;&gt;Node22 -->
<g id="edge60" class="edge"><title>Node18&#45;&gt;Node22</title>
<path fill="none" stroke="#9a32cd" stroke-dasharray="5,2" d="M1757.03,-291.439C1818.86,-304.395 1913.31,-323.276 1996,-336 2045.22,-343.574 2101.33,-349.915 2142.86,-354.173"/>
<polygon fill="#9a32cd" stroke="#9a32cd" points="1757.53,-287.966 1747.02,-289.332 1756.08,-294.816 1757.53,-287.966"/>
<text text-anchor="middle" x="1905" y="-337" font-family="Helvetica,sans-Serif" font-size="10.00"> filler</text>
</g>
<!-- Node19 -->
<g id="node43" class="node"><title>Node19</title>
<a xlink:href="classstxxl_1_1mng__local_1_1filler__struct.html" target="_top" xlink:title="stxxl::mng_local::filler\l_struct\&lt; Bytes \&gt;">
<polygon fill="none" stroke="black" points="1316,-260 1316,-294 1430,-294 1430,-260 1316,-260"/>
<text text-anchor="start" x="1324" y="-281" font-family="Helvetica,sans-Serif" font-size="10.00">stxxl::mng_local::filler</text>
<text text-anchor="middle" x="1373" y="-268" font-family="Helvetica,sans-Serif" font-size="10.00">_struct&lt; Bytes &gt;</text>
</a>
</g>
<!-- Node19&#45;&gt;Node18 -->
<g id="edge50" class="edge"><title>Node19&#45;&gt;Node18</title>
<path fill="none" stroke="orange" stroke-dasharray="5,2" d="M1440.08,-277C1497.31,-277 1578.71,-277 1632.88,-277"/>
<polygon fill="orange" stroke="orange" points="1440.04,-273.5 1430.04,-277 1440.04,-280.5 1440.04,-273.5"/>
<text text-anchor="middle" x="1531" y="-281" font-family="Helvetica,sans-Serif" font-size="10.00"> &lt; FillSize &gt;</text>
</g>
<!-- Node20&#45;&gt;Node12 -->
<g id="edge52" class="edge"><title>Node20&#45;&gt;Node12</title>
<path fill="none" stroke="orange" stroke-dasharray="5,2" d="M1988.32,-263.675C2077.39,-249.431 2218.94,-226.794 2316.39,-211.21"/>
<polygon fill="orange" stroke="orange" points="1987.58,-260.249 1978.26,-265.284 1988.69,-267.161 1987.58,-260.249"/>
<text text-anchor="start" x="2130" y="-308" font-family="Helvetica,sans-Serif" font-size="10.00"> &lt; mng_local::block</text>
<text text-anchor="start" x="2130" y="-295" font-family="Helvetica,sans-Serif" font-size="10.00">_w_info&lt; Type, RawSize,</text>
<text text-anchor="start" x="2130" y="-282" font-family="Helvetica,sans-Serif" font-size="10.00"> NRef, MetaInfoType &gt;,</text>
<text text-anchor="start" x="2130" y="-269" font-family="Helvetica,sans-Serif" font-size="10.00"> RawSize&#45;sizeof(mng_local</text>
<text text-anchor="start" x="2130" y="-256" font-family="Helvetica,sans-Serif" font-size="10.00">::block_w_info&lt; Type, RawSize,</text>
<text text-anchor="middle" x="2204" y="-243" font-family="Helvetica,sans-Serif" font-size="10.00"> NRef, MetaInfoType &gt;)&gt;</text>
</g>
<!-- Node20&#45;&gt;Node22 -->
<g id="edge62" class="edge"><title>Node20&#45;&gt;Node22</title>
<path fill="none" stroke="orange" stroke-dasharray="5,2" d="M1988.54,-282.101C2027.14,-286.51 2072.96,-294.72 2112,-310 2120.95,-313.504 2121.71,-317.129 2130,-322 2138.34,-326.902 2147.39,-331.841 2156.2,-336.461"/>
<polygon fill="orange" stroke="orange" points="1988.69,-278.597 1978.38,-281.007 1987.94,-285.557 1988.69,-278.597"/>
<text text-anchor="start" x="1997" y="-327" font-family="Helvetica,sans-Serif" font-size="10.00"> &lt; Type, RawSize&#45;sizeof</text>
<text text-anchor="middle" x="2054" y="-314" font-family="Helvetica,sans-Serif" font-size="10.00">(Type)&gt;</text>
</g>
<!-- Node21 -->
<g id="node48" class="node"><title>Node21</title>
<a xlink:href="classstxxl_1_1mng__local_1_1expand__struct.html" target="_top" xlink:title="Helper to compute the size of the filler , not intended for direct use. ">
<polygon fill="none" stroke="black" points="2355.5,-299 2355.5,-333 2492.5,-333 2492.5,-299 2355.5,-299"/>
<text text-anchor="start" x="2363.5" y="-320" font-family="Helvetica,sans-Serif" font-size="10.00">stxxl::mng_local::expand</text>
<text text-anchor="middle" x="2424" y="-307" font-family="Helvetica,sans-Serif" font-size="10.00">_struct&lt; Type, RawSize &gt;</text>
</a>
</g>
<!-- Node21&#45;&gt;Node11 -->
<g id="edge56" class="edge"><title>Node21&#45;&gt;Node11</title>
<path fill="none" stroke="orange" stroke-dasharray="5,2" d="M2481.95,-295.568C2538.32,-275.692 2624.5,-245.305 2687.91,-222.945"/>
<polygon fill="orange" stroke="orange" points="2480.74,-292.282 2472.47,-298.908 2483.07,-298.883 2480.74,-292.282"/>
<text text-anchor="start" x="2550.5" y="-312" font-family="Helvetica,sans-Serif" font-size="10.00"> &lt; mng_local::block</text>
<text text-anchor="start" x="2550.5" y="-299" font-family="Helvetica,sans-Serif" font-size="10.00">_w_info&lt; Type, RawSize,</text>
<text text-anchor="start" x="2550.5" y="-286" font-family="Helvetica,sans-Serif" font-size="10.00"> NRef, MetaInfoType &gt;,</text>
<text text-anchor="middle" x="2610" y="-273" font-family="Helvetica,sans-Serif" font-size="10.00"> RawSize &gt;</text>
</g>
<!-- Node22&#45;&gt;Node21 -->
<g id="edge58" class="edge"><title>Node22&#45;&gt;Node21</title>
<path fill="none" stroke="midnightblue" d="M2275.32,-345.737C2300.98,-340.603 2329.87,-334.826 2355.3,-329.739"/>
<polygon fill="midnightblue" stroke="midnightblue" points="2274.4,-342.35 2265.28,-347.744 2275.77,-349.214 2274.4,-342.35"/>
</g>
</g>
</svg>
