<?xml version="1.0" encoding="UTF-8" standalone="no"?>
<!DOCTYPE svg PUBLIC "-//W3C//DTD SVG 1.1//EN"
 "http://www.w3.org/Graphics/SVG/1.1/DTD/svg11.dtd">
<!-- Generated by graphviz version 2.26.3 (20100126.1600)
 -->
<!-- Title: stxxl::swappable_block&lt; ValueType, BlockSize &gt; Pages: 1 -->
<svg width="236pt" height="240pt"
 viewBox="0.00 0.00 236.00 240.00" xmlns="http://www.w3.org/2000/svg" xmlns:xlink="http://www.w3.org/1999/xlink">
<g id="graph1" class="graph" transform="scale(1 1) rotate(0) translate(4 236)">
<title>stxxl::swappable_block&lt; ValueType, BlockSize &gt;</title>
<!-- Node1 -->
<g id="node1" class="node"><title>Node1</title>
<polygon fill="#bfbfbf" stroke="black" points="12,-197 12,-231 148,-231 148,-197 12,-197"/>
<text text-anchor="start" x="20" y="-218" font-family="Helvetica,sans-Serif" font-size="10.00">stxxl::swappable_block</text>
<text text-anchor="middle" x="80" y="-205" font-family="Helvetica,sans-Serif" font-size="10.00">&lt; ValueType, BlockSize &gt;</text>
</g>
<!-- Node2 -->
<g id="node3" class="node"><title>Node2</title>
<a xlink:href="classstxxl_1_1swappable__block.html" target="_top" xlink:title="stxxl::swappable_block\l\&lt; ValueType, BlockSideLength\l *BlockSideLength \&gt;">
<polygon fill="none" stroke="black" points="-0.5,-86.5 -0.5,-133.5 160.5,-133.5 160.5,-86.5 -0.5,-86.5"/>
<text text-anchor="start" x="7.5" y="-120.5" font-family="Helvetica,sans-Serif" font-size="10.00">stxxl::swappable_block</text>
<text text-anchor="start" x="7.5" y="-107.5" font-family="Helvetica,sans-Serif" font-size="10.00">&lt; ValueType, BlockSideLength</text>
<text text-anchor="middle" x="80" y="-94.5" font-family="Helvetica,sans-Serif" font-size="10.00"> *BlockSideLength &gt;</text>
</a>
</g>
<!-- Node1&#45;&gt;Node2 -->
<g id="edge2" class="edge"><title>Node1&#45;&gt;Node2</title>
<path fill="none" stroke="orange" stroke-dasharray="5,2" d="M80,-186.745C80,-170.315 80,-149.586 80,-133.815"/>
<polygon fill="orange" stroke="orange" points="76.5001,-186.826 80,-196.827 83.5001,-186.827 76.5001,-186.826"/>
<text text-anchor="start" x="80" y="-169" font-family="Helvetica,sans-Serif" font-size="10.00"> &lt; ValueType, BlockSideLength</text>
<text text-anchor="middle" x="154" y="-156" font-family="Helvetica,sans-Serif" font-size="10.00"> *BlockSideLength &gt;</text>
</g>
<!-- Node3 -->
<g id="node5" class="node"><title>Node3</title>
<a xlink:href="classstxxl_1_1matrix__swappable__block.html" target="_top" xlink:title="Specialized swappable_block that interprets uninitialized as containing zeros. ">
<polygon fill="none" stroke="black" points="1,-0.5 1,-47.5 159,-47.5 159,-0.5 1,-0.5"/>
<text text-anchor="start" x="9" y="-34.5" font-family="Helvetica,sans-Serif" font-size="10.00">stxxl::matrix_swappable</text>
<text text-anchor="start" x="9" y="-21.5" font-family="Helvetica,sans-Serif" font-size="10.00">_block&lt; ValueType, BlockSide</text>
<text text-anchor="middle" x="80" y="-8.5" font-family="Helvetica,sans-Serif" font-size="10.00">Length &gt;</text>
</a>
</g>
<!-- Node2&#45;&gt;Node3 -->
<g id="edge4" class="edge"><title>Node2&#45;&gt;Node3</title>
<path fill="none" stroke="midnightblue" d="M80,-76.027C80,-66.4836 80,-56.319 80,-47.5301"/>
<polygon fill="midnightblue" stroke="midnightblue" points="76.5001,-76.0442 80,-86.0442 83.5001,-76.0442 76.5001,-76.0442"/>
</g>
</g>
</svg>
