<?xml version="1.0" encoding="UTF-8" standalone="no"?>
<!DOCTYPE svg PUBLIC "-//W3C//DTD SVG 1.1//EN"
 "http://www.w3.org/Graphics/SVG/1.1/DTD/svg11.dtd">
<!-- Generated by graphviz version 2.26.3 (20100126.1600)
 -->
<!-- Title: stxxl::matrix_swappable_block&lt; ValueType, BlockSideLength &gt; Pages: 1 -->
<svg width="3932pt" height="470pt"
 viewBox="0.00 0.00 3932.00 470.00" xmlns="http://www.w3.org/2000/svg" xmlns:xlink="http://www.w3.org/1999/xlink">
<g id="graph1" class="graph" transform="scale(1 1) rotate(0) translate(4 466)">
<title>stxxl::matrix_swappable_block&lt; ValueType, BlockSideLength &gt;</title>
<!-- Node1 -->
<g id="node1" class="node"><title>Node1</title>
<polygon fill="#bfbfbf" stroke="black" points="3766,-113.5 3766,-160.5 3924,-160.5 3924,-113.5 3766,-113.5"/>
<text text-anchor="start" x="3774" y="-147.5" font-family="Helvetica,sans-Serif" font-size="10.00">stxxl::matrix_swappable</text>
<text text-anchor="start" x="3774" y="-134.5" font-family="Helvetica,sans-Serif" font-size="10.00">_block&lt; ValueType, BlockSide</text>
<text text-anchor="middle" x="3845" y="-121.5" font-family="Helvetica,sans-Serif" font-size="10.00">Length &gt;</text>
</g>
<!-- Node2 -->
<g id="node2" class="node"><title>Node2</title>
<a xlink:href="classstxxl_1_1swappable__block.html" target="_top" xlink:title="stxxl::swappable_block\l\&lt; ValueType, BlockSideLength\l *BlockSideLength \&gt;">
<polygon fill="none" stroke="black" points="3566.5,-113.5 3566.5,-160.5 3727.5,-160.5 3727.5,-113.5 3566.5,-113.5"/>
<text text-anchor="start" x="3574.5" y="-147.5" font-family="Helvetica,sans-Serif" font-size="10.00">stxxl::swappable_block</text>
<text text-anchor="start" x="3574.5" y="-134.5" font-family="Helvetica,sans-Serif" font-size="10.00">&lt; ValueType, BlockSideLength</text>
<text text-anchor="middle" x="3647" y="-121.5" font-family="Helvetica,sans-Serif" font-size="10.00"> *BlockSideLength &gt;</text>
</a>
</g>
<!-- Node2&#45;&gt;Node1 -->
<g id="edge2" class="edge"><title>Node2&#45;&gt;Node1</title>
<path fill="none" stroke="midnightblue" d="M3737.67,-137C3747.07,-137 3756.57,-137 3765.82,-137"/>
<polygon fill="midnightblue" stroke="midnightblue" points="3737.53,-133.5 3727.53,-137 3737.53,-140.5 3737.53,-133.5"/>
</g>
<!-- Node3 -->
<g id="node4" class="node"><title>Node3</title>
<a xlink:href="structstxxl_1_1choose__int__types.html" target="_top" xlink:title="stxxl::choose_int_types\l\&lt; my_pointer_size \&gt;">
<polygon fill="none" stroke="black" points="262.5,-29 262.5,-63 387.5,-63 387.5,-29 262.5,-29"/>
<text text-anchor="start" x="270.5" y="-50" font-family="Helvetica,sans-Serif" font-size="10.00">stxxl::choose_int_types</text>
<text text-anchor="middle" x="325" y="-37" font-family="Helvetica,sans-Serif" font-size="10.00">&lt; my_pointer_size &gt;</text>
</a>
</g>
<!-- Node3&#45;&gt;Node2 -->
<g id="edge4" class="edge"><title>Node3&#45;&gt;Node2</title>
<path fill="none" stroke="#9a32cd" stroke-dasharray="5,2" d="M397.282,-27.8954C455.011,-15.0207 538.18,-7.10543e-15 612,-0 612,-0 612,-0 3314,-0 3431.84,-0 3556.69,-74.2785 3614.33,-113.449"/>
<polygon fill="#9a32cd" stroke="#9a32cd" points="396.505,-24.4826 387.525,-30.105 398.051,-31.3098 396.505,-24.4826"/>
<text text-anchor="middle" x="1831" y="-4" font-family="Helvetica,sans-Serif" font-size="10.00"> reference_count</text>
</g>
<!-- Node8 -->
<g id="node14" class="node"><title>Node8</title>
<a xlink:href="classstxxl_1_1atomic__counted__object.html" target="_top" xlink:title="Provides reference counting abilities for use with counting_ptr with mutex locking. ">
<polygon fill="none" stroke="black" points="554,-92 554,-126 670,-126 670,-92 554,-92"/>
<text text-anchor="start" x="562" y="-113" font-family="Helvetica,sans-Serif" font-size="10.00">stxxl::atomic_counted</text>
<text text-anchor="middle" x="612" y="-100" font-family="Helvetica,sans-Serif" font-size="10.00">_object</text>
</a>
</g>
<!-- Node3&#45;&gt;Node8 -->
<g id="edge20" class="edge"><title>Node3&#45;&gt;Node8</title>
<path fill="none" stroke="#9a32cd" stroke-dasharray="5,2" d="M397.423,-61.8978C445.859,-72.5299 508.747,-86.3348 553.902,-96.2469"/>
<polygon fill="#9a32cd" stroke="#9a32cd" points="398.147,-58.4733 387.629,-59.7478 396.646,-65.3105 398.147,-58.4733"/>
<text text-anchor="middle" x="471" y="-96" font-family="Helvetica,sans-Serif" font-size="10.00"> m_reference_count</text>
</g>
<!-- Node24 -->
<g id="node56" class="node"><title>Node24</title>
<a xlink:href="classstxxl_1_1swappable__block.html" target="_top" xlink:title="Virtualization of a block of data. Holds information for allocating and swapping. To use in cooperati...">
<polygon fill="none" stroke="black" points="3246,-88 3246,-122 3382,-122 3382,-88 3246,-88"/>
<text text-anchor="start" x="3254" y="-109" font-family="Helvetica,sans-Serif" font-size="10.00">stxxl::swappable_block</text>
<text text-anchor="middle" x="3314" y="-96" font-family="Helvetica,sans-Serif" font-size="10.00">&lt; ValueType, BlockSize &gt;</text>
</a>
</g>
<!-- Node3&#45;&gt;Node24 -->
<g id="edge68" class="edge"><title>Node3&#45;&gt;Node24</title>
<path fill="none" stroke="#9a32cd" stroke-dasharray="5,2" d="M397.873,-46C455.884,-46 539.144,-46 612,-46 612,-46 612,-46 3080,-46 3149.13,-46 3226.35,-70.5098 3272.52,-87.9348"/>
<polygon fill="#9a32cd" stroke="#9a32cd" points="397.705,-42.5001 387.705,-46 397.705,-49.5001 397.705,-42.5001"/>
<text text-anchor="middle" x="1690" y="-50" font-family="Helvetica,sans-Serif" font-size="10.00"> reference_count</text>
</g>
<!-- Node4 -->
<g id="node6" class="node"><title>Node4</title>
<a xlink:href="structstxxl_1_1choose__int__types.html" target="_top" xlink:title="stxxl::choose_int_types\l\&lt; PtrSize \&gt;">
<polygon fill="none" stroke="black" points="0.5,-29 0.5,-63 125.5,-63 125.5,-29 0.5,-29"/>
<text text-anchor="start" x="8.5" y="-50" font-family="Helvetica,sans-Serif" font-size="10.00">stxxl::choose_int_types</text>
<text text-anchor="middle" x="63" y="-37" font-family="Helvetica,sans-Serif" font-size="10.00">&lt; PtrSize &gt;</text>
</a>
</g>
<!-- Node4&#45;&gt;Node3 -->
<g id="edge6" class="edge"><title>Node4&#45;&gt;Node3</title>
<path fill="none" stroke="orange" stroke-dasharray="5,2" d="M135.913,-46C175.636,-46 224.295,-46 262.303,-46"/>
<polygon fill="orange" stroke="orange" points="135.756,-42.5001 125.756,-46 135.755,-49.5001 135.756,-42.5001"/>
<text text-anchor="middle" x="194" y="-50" font-family="Helvetica,sans-Serif" font-size="10.00"> &lt; my_pointer_size &gt;</text>
</g>
<!-- Node5 -->
<g id="node8" class="node"><title>Node5</title>
<a xlink:href="structstxxl_1_1BID.html" target="_top" xlink:title="stxxl::BID\&lt; raw_size \&gt;">
<polygon fill="none" stroke="black" points="1114.5,-166.5 1114.5,-187.5 1233.5,-187.5 1233.5,-166.5 1114.5,-166.5"/>
<text text-anchor="middle" x="1174" y="-174.5" font-family="Helvetica,sans-Serif" font-size="10.00">stxxl::BID&lt; raw_size &gt;</text>
</a>
</g>
<!-- Node5&#45;&gt;Node2 -->
<g id="edge8" class="edge"><title>Node5&#45;&gt;Node2</title>
<path fill="none" stroke="#9a32cd" stroke-dasharray="5,2" d="M1178.47,-197.688C1193.51,-261.182 1248.53,-449 1373,-449 1373,-449 1373,-449 3314,-449 3482.55,-449 3600.94,-233.517 3636.13,-160.707"/>
<polygon fill="#9a32cd" stroke="#9a32cd" points="1181.82,-196.635 1176.18,-187.663 1174.99,-198.19 1181.82,-196.635"/>
<text text-anchor="middle" x="2389" y="-453" font-family="Helvetica,sans-Serif" font-size="10.00"> external_data</text>
</g>
<!-- Node15 -->
<g id="node31" class="node"><title>Node15</title>
<a xlink:href="classstxxl_1_1mng__local_1_1block__w__bids.html" target="_top" xlink:title="stxxl::mng_local::block\l_w_bids\&lt; Type,((RawSize\l&#45;sizeof(BID\&lt; RawSize \&gt;)*NBids\l&#45;sizeof(MetaInfoType))/sizeof\l(Type)), RawSize, NBids \&gt;">
<polygon fill="none" stroke="black" points="1608,-129.5 1608,-202.5 1772,-202.5 1772,-129.5 1608,-129.5"/>
<text text-anchor="start" x="1616" y="-189.5" font-family="Helvetica,sans-Serif" font-size="10.00">stxxl::mng_local::block</text>
<text text-anchor="start" x="1616" y="-176.5" font-family="Helvetica,sans-Serif" font-size="10.00">_w_bids&lt; Type,((RawSize</text>
<text text-anchor="start" x="1616" y="-163.5" font-family="Helvetica,sans-Serif" font-size="10.00">&#45;sizeof(BID&lt; RawSize &gt;)*NBids</text>
<text text-anchor="start" x="1616" y="-150.5" font-family="Helvetica,sans-Serif" font-size="10.00">&#45;sizeof(MetaInfoType))/sizeof</text>
<text text-anchor="middle" x="1690" y="-137.5" font-family="Helvetica,sans-Serif" font-size="10.00">(Type)), RawSize, NBids &gt;</text>
</a>
</g>
<!-- Node5&#45;&gt;Node15 -->
<g id="edge38" class="edge"><title>Node5&#45;&gt;Node15</title>
<path fill="none" stroke="#9a32cd" stroke-dasharray="5,2" d="M1209.52,-191.281C1282.36,-218.477 1453.29,-271.527 1590,-231 1609.65,-225.174 1629.06,-214.133 1645.47,-202.782"/>
<polygon fill="#9a32cd" stroke="#9a32cd" points="1210.5,-187.909 1199.91,-187.628 1208.01,-194.452 1210.5,-187.909"/>
<text text-anchor="middle" x="1373" y="-249" font-family="Helvetica,sans-Serif" font-size="10.00"> ref</text>
</g>
<!-- Node17 -->
<g id="node36" class="node"><title>Node17</title>
<a xlink:href="classstxxl_1_1mng__local_1_1block__w__bids.html" target="_top" xlink:title="Contains BID references for stxxl::typed_block , not intended for direct use. ">
<polygon fill="none" stroke="black" points="1292,-150.5 1292,-197.5 1454,-197.5 1454,-150.5 1292,-150.5"/>
<text text-anchor="start" x="1300" y="-184.5" font-family="Helvetica,sans-Serif" font-size="10.00">stxxl::mng_local::block</text>
<text text-anchor="start" x="1300" y="-171.5" font-family="Helvetica,sans-Serif" font-size="10.00">_w_bids&lt; Type, Size, RawSize,</text>
<text text-anchor="middle" x="1373" y="-158.5" font-family="Helvetica,sans-Serif" font-size="10.00"> NBids &gt;</text>
</a>
</g>
<!-- Node5&#45;&gt;Node17 -->
<g id="edge44" class="edge"><title>Node5&#45;&gt;Node17</title>
<path fill="none" stroke="#9a32cd" stroke-dasharray="5,2" d="M1243.77,-175.948C1259.35,-175.713 1276,-175.462 1291.99,-175.221"/>
<polygon fill="#9a32cd" stroke="#9a32cd" points="1243.65,-172.449 1233.71,-176.1 1243.76,-179.449 1243.65,-172.449"/>
<text text-anchor="middle" x="1266" y="-179" font-family="Helvetica,sans-Serif" font-size="10.00"> ref</text>
</g>
<!-- Node5&#45;&gt;Node24 -->
<g id="edge70" class="edge"><title>Node5&#45;&gt;Node24</title>
<path fill="none" stroke="#9a32cd" stroke-dasharray="5,2" d="M1211.84,-163.109C1234.73,-155.298 1264.68,-146.116 1292,-141 1528.11,-96.7909 1590.79,-101 1831,-101 1831,-101 1831,-101 3080,-101 3135.87,-101 3199.23,-102.154 3245.91,-103.222"/>
<polygon fill="#9a32cd" stroke="#9a32cd" points="1210.47,-159.879 1202.17,-166.468 1212.77,-166.491 1210.47,-159.879"/>
<text text-anchor="middle" x="2262" y="-105" font-family="Helvetica,sans-Serif" font-size="10.00"> external_data</text>
</g>
<!-- Node6 -->
<g id="node10" class="node"><title>Node6</title>
<a xlink:href="classstxxl_1_1file.html" target="_top" xlink:title="Defines interface of file. ">
<polygon fill="none" stroke="black" points="778,-142.5 778,-163.5 834,-163.5 834,-142.5 778,-142.5"/>
<text text-anchor="middle" x="806" y="-150.5" font-family="Helvetica,sans-Serif" font-size="10.00">stxxl::file</text>
</a>
</g>
<!-- Node6&#45;&gt;Node5 -->
<g id="edge10" class="edge"><title>Node6&#45;&gt;Node5</title>
<path fill="none" stroke="#9a32cd" stroke-dasharray="5,2" d="M843.888,-162.671C846.622,-163.18 849.346,-163.633 852,-164 942.889,-176.58 1049.48,-178.377 1114.35,-178.044"/>
<polygon fill="#9a32cd" stroke="#9a32cd" points="844.558,-159.235 834.055,-160.623 843.131,-166.088 844.558,-159.235"/>
<text text-anchor="middle" x="959" y="-180" font-family="Helvetica,sans-Serif" font-size="10.00"> storage</text>
</g>
<!-- Node10 -->
<g id="node20" class="node"><title>Node10</title>
<a xlink:href="structstxxl_1_1BID.html" target="_top" xlink:title="Block identifier class. ">
<polygon fill="none" stroke="black" points="910,-126.5 910,-147.5 1008,-147.5 1008,-126.5 910,-126.5"/>
<text text-anchor="middle" x="959" y="-134.5" font-family="Helvetica,sans-Serif" font-size="10.00">stxxl::BID&lt; Size &gt;</text>
</a>
</g>
<!-- Node6&#45;&gt;Node10 -->
<g id="edge24" class="edge"><title>Node6&#45;&gt;Node10</title>
<path fill="none" stroke="#9a32cd" stroke-dasharray="5,2" d="M844.26,-148.999C864.088,-146.925 888.529,-144.37 909.751,-142.15"/>
<polygon fill="#9a32cd" stroke="#9a32cd" points="843.644,-145.544 834.063,-150.065 844.372,-152.506 843.644,-145.544"/>
<text text-anchor="middle" x="872" y="-151" font-family="Helvetica,sans-Serif" font-size="10.00"> storage</text>
</g>
<!-- Node7 -->
<g id="node12" class="node"><title>Node7</title>
<a xlink:href="classstxxl_1_1noncopyable.html" target="_top" xlink:title="stxxl::noncopyable">
<polygon fill="none" stroke="black" points="12,-130.5 12,-151.5 114,-151.5 114,-130.5 12,-130.5"/>
<text text-anchor="middle" x="63" y="-138.5" font-family="Helvetica,sans-Serif" font-size="10.00">stxxl::noncopyable</text>
</a>
</g>
<!-- Node7&#45;&gt;Node6 -->
<g id="edge12" class="edge"><title>Node7&#45;&gt;Node6</title>
<path fill="none" stroke="#8b1a1a" d="M124.194,-141.988C276.674,-144.451 669.073,-150.789 777.737,-152.544"/>
<polygon fill="#8b1a1a" stroke="#8b1a1a" points="124.125,-138.487 114.069,-141.825 124.012,-145.486 124.125,-138.487"/>
</g>
<!-- Node9 -->
<g id="node16" class="node"><title>Node9</title>
<a xlink:href="classstxxl_1_1mutex.html" target="_top" xlink:title="stxxl::mutex">
<polygon fill="none" stroke="black" points="290,-104.5 290,-125.5 360,-125.5 360,-104.5 290,-104.5"/>
<text text-anchor="middle" x="325" y="-112.5" font-family="Helvetica,sans-Serif" font-size="10.00">stxxl::mutex</text>
</a>
</g>
<!-- Node7&#45;&gt;Node9 -->
<g id="edge18" class="edge"><title>Node7&#45;&gt;Node9</title>
<path fill="none" stroke="#8b1a1a" d="M124.156,-134.931C175.679,-129.818 247.573,-122.684 289.908,-118.482"/>
<polygon fill="#8b1a1a" stroke="#8b1a1a" points="123.744,-131.455 114.138,-135.925 124.435,-138.421 123.744,-131.455"/>
</g>
<!-- Node8&#45;&gt;Node6 -->
<g id="edge14" class="edge"><title>Node8&#45;&gt;Node6</title>
<path fill="none" stroke="#9a32cd" stroke-dasharray="5,2" d="M680.051,-111.657C705.607,-114.105 734.603,-118.647 760,-127 770.98,-130.611 782.295,-136.966 790.955,-142.489"/>
<polygon fill="#9a32cd" stroke="#9a32cd" points="680.337,-108.169 670.072,-110.789 679.731,-115.143 680.337,-108.169"/>
<text text-anchor="middle" x="724" y="-131" font-family="Helvetica,sans-Serif" font-size="10.00"> m_request_ref</text>
</g>
<!-- Node9&#45;&gt;Node8 -->
<g id="edge16" class="edge"><title>Node9&#45;&gt;Node8</title>
<path fill="none" stroke="#9a32cd" stroke-dasharray="5,2" d="M370.306,-114.053C419.938,-113.015 499.686,-111.348 553.889,-110.215"/>
<polygon fill="#9a32cd" stroke="#9a32cd" points="370.116,-110.556 360.192,-114.264 370.263,-117.554 370.116,-110.556"/>
<text text-anchor="middle" x="471" y="-117" font-family="Helvetica,sans-Serif" font-size="10.00"> m_reference_count_mutex</text>
</g>
<!-- Node10&#45;&gt;Node5 -->
<g id="edge22" class="edge"><title>Node10&#45;&gt;Node5</title>
<path fill="none" stroke="orange" stroke-dasharray="5,2" d="M1018.39,-145.013C1040.89,-148.324 1066.7,-152.455 1090,-157 1103.98,-159.726 1119.15,-163.183 1132.7,-166.453"/>
<polygon fill="orange" stroke="orange" points="1018.71,-141.522 1008.31,-143.55 1017.7,-148.449 1018.71,-141.522"/>
<text text-anchor="middle" x="1058" y="-161" font-family="Helvetica,sans-Serif" font-size="10.00"> &lt; raw_size &gt;</text>
</g>
<!-- Node11 -->
<g id="node23" class="node"><title>Node11</title>
<a xlink:href="classstxxl_1_1typed__block.html" target="_top" xlink:title="Block containing elements of fixed length. ">
<polygon fill="none" stroke="black" points="3016,-138.5 3016,-185.5 3144,-185.5 3144,-138.5 3016,-138.5"/>
<text text-anchor="start" x="3024" y="-172.5" font-family="Helvetica,sans-Serif" font-size="10.00">stxxl::typed_block</text>
<text text-anchor="start" x="3024" y="-159.5" font-family="Helvetica,sans-Serif" font-size="10.00">&lt; RawSize, Type, NRef,</text>
<text text-anchor="middle" x="3080" y="-146.5" font-family="Helvetica,sans-Serif" font-size="10.00"> MetaInfoType &gt;</text>
</a>
</g>
<!-- Node11&#45;&gt;Node2 -->
<g id="edge26" class="edge"><title>Node11&#45;&gt;Node2</title>
<path fill="none" stroke="#9a32cd" stroke-dasharray="5,2" d="M3154.13,-161.628C3246.49,-160.74 3409.08,-157.78 3548,-148 3553.95,-147.581 3560.1,-147.075 3566.28,-146.514"/>
<polygon fill="#9a32cd" stroke="#9a32cd" points="3154.02,-158.129 3144.05,-161.719 3154.08,-165.129 3154.02,-158.129"/>
<text text-anchor="middle" x="3314" y="-164" font-family="Helvetica,sans-Serif" font-size="10.00"> internal_data</text>
</g>
<!-- Node11&#45;&gt;Node24 -->
<g id="edge72" class="edge"><title>Node11&#45;&gt;Node24</title>
<path fill="none" stroke="#9a32cd" stroke-dasharray="5,2" d="M3154.02,-137.172C3156.71,-136.416 3159.37,-135.689 3162,-135 3189.19,-127.87 3219.51,-121.562 3245.87,-116.593"/>
<polygon fill="#9a32cd" stroke="#9a32cd" points="3152.86,-133.864 3144.23,-140.02 3154.81,-140.586 3152.86,-133.864"/>
<text text-anchor="middle" x="3195" y="-139" font-family="Helvetica,sans-Serif" font-size="10.00"> internal_data</text>
</g>
<!-- Node12 -->
<g id="node25" class="node"><title>Node12</title>
<a xlink:href="classstxxl_1_1mng__local_1_1expand__struct.html" target="_top" xlink:title="stxxl::mng_local::expand\l_struct\&lt; mng_local::block\l_w_info\&lt; Type, RawSize, NRef,\l MetaInfoType \&gt;, RawSize \&gt;">
<polygon fill="none" stroke="black" points="2814,-201 2814,-261 2978,-261 2978,-201 2814,-201"/>
<text text-anchor="start" x="2822" y="-248" font-family="Helvetica,sans-Serif" font-size="10.00">stxxl::mng_local::expand</text>
<text text-anchor="start" x="2822" y="-235" font-family="Helvetica,sans-Serif" font-size="10.00">_struct&lt; mng_local::block</text>
<text text-anchor="start" x="2822" y="-222" font-family="Helvetica,sans-Serif" font-size="10.00">_w_info&lt; Type, RawSize, NRef,</text>
<text text-anchor="middle" x="2896" y="-209" font-family="Helvetica,sans-Serif" font-size="10.00"> MetaInfoType &gt;, RawSize &gt;</text>
</a>
</g>
<!-- Node12&#45;&gt;Node11 -->
<g id="edge28" class="edge"><title>Node12&#45;&gt;Node11</title>
<path fill="none" stroke="midnightblue" d="M2985.56,-197.416C2996.27,-193.399 3007.03,-189.365 3017.24,-185.533"/>
<polygon fill="midnightblue" stroke="midnightblue" points="2984.3,-194.148 2976.17,-200.936 2986.76,-200.702 2984.3,-194.148"/>
</g>
<!-- Node13 -->
<g id="node27" class="node"><title>Node13</title>
<a xlink:href="classstxxl_1_1mng__local_1_1add__filler.html" target="_top" xlink:title="stxxl::mng_local::add\l_filler\&lt; mng_local::block\l_w_info\&lt; Type, RawSize,\l NRef, MetaInfoType \&gt;, RawSize\l&#45;sizeof(mng_local::block_w_info\l\&lt; Type, RawSize, NRef, MetaInfoType \&gt;)\&gt;">
<polygon fill="none" stroke="black" points="2442.5,-188 2442.5,-274 2657.5,-274 2657.5,-188 2442.5,-188"/>
<text text-anchor="start" x="2450.5" y="-261" font-family="Helvetica,sans-Serif" font-size="10.00">stxxl::mng_local::add</text>
<text text-anchor="start" x="2450.5" y="-248" font-family="Helvetica,sans-Serif" font-size="10.00">_filler&lt; mng_local::block</text>
<text text-anchor="start" x="2450.5" y="-235" font-family="Helvetica,sans-Serif" font-size="10.00">_w_info&lt; Type, RawSize,</text>
<text text-anchor="start" x="2450.5" y="-222" font-family="Helvetica,sans-Serif" font-size="10.00"> NRef, MetaInfoType &gt;, RawSize</text>
<text text-anchor="start" x="2450.5" y="-209" font-family="Helvetica,sans-Serif" font-size="10.00">&#45;sizeof(mng_local::block_w_info</text>
<text text-anchor="middle" x="2550" y="-196" font-family="Helvetica,sans-Serif" font-size="10.00">&lt; Type, RawSize, NRef, MetaInfoType &gt;)&gt;</text>
</a>
</g>
<!-- Node13&#45;&gt;Node12 -->
<g id="edge30" class="edge"><title>Node13&#45;&gt;Node12</title>
<path fill="none" stroke="midnightblue" d="M2667.73,-231C2715.76,-231 2770.14,-231 2813.78,-231"/>
<polygon fill="midnightblue" stroke="midnightblue" points="2667.58,-227.5 2657.58,-231 2667.58,-234.5 2667.58,-227.5"/>
</g>
<!-- Node14 -->
<g id="node29" class="node"><title>Node14</title>
<a xlink:href="classstxxl_1_1mng__local_1_1block__w__info.html" target="_top" xlink:title="stxxl::mng_local::block\l_w_info\&lt; Type, RawSize,\l NRef, MetaInfoType \&gt;">
<polygon fill="none" stroke="black" points="2194.5,-155.5 2194.5,-202.5 2329.5,-202.5 2329.5,-155.5 2194.5,-155.5"/>
<text text-anchor="start" x="2202.5" y="-189.5" font-family="Helvetica,sans-Serif" font-size="10.00">stxxl::mng_local::block</text>
<text text-anchor="start" x="2202.5" y="-176.5" font-family="Helvetica,sans-Serif" font-size="10.00">_w_info&lt; Type, RawSize,</text>
<text text-anchor="middle" x="2262" y="-163.5" font-family="Helvetica,sans-Serif" font-size="10.00"> NRef, MetaInfoType &gt;</text>
</a>
</g>
<!-- Node14&#45;&gt;Node13 -->
<g id="edge32" class="edge"><title>Node14&#45;&gt;Node13</title>
<path fill="none" stroke="midnightblue" d="M2339.58,-193.007C2371.16,-198.709 2408.2,-205.398 2442.33,-211.56"/>
<polygon fill="midnightblue" stroke="midnightblue" points="2339.99,-189.524 2329.52,-191.192 2338.74,-196.413 2339.99,-189.524"/>
</g>
<!-- Node15&#45;&gt;Node14 -->
<g id="edge34" class="edge"><title>Node15&#45;&gt;Node14</title>
<path fill="none" stroke="midnightblue" d="M1782.46,-177.223C1879.15,-187.457 2035.29,-199.748 2170,-191 2177.88,-190.489 2186.11,-189.733 2194.27,-188.846"/>
<polygon fill="midnightblue" stroke="midnightblue" points="1782.74,-173.733 1772.43,-176.145 1781.99,-180.693 1782.74,-173.733"/>
</g>
<!-- Node18 -->
<g id="node40" class="node"><title>Node18</title>
<a xlink:href="classstxxl_1_1mng__local_1_1block__w__info.html" target="_top" xlink:title="Contains per block information for stxxl::typed_block , not intended for direct use. ">
<polygon fill="none" stroke="black" points="1895.5,-129.5 1895.5,-176.5 2030.5,-176.5 2030.5,-129.5 1895.5,-129.5"/>
<text text-anchor="start" x="1903.5" y="-163.5" font-family="Helvetica,sans-Serif" font-size="10.00">stxxl::mng_local::block</text>
<text text-anchor="start" x="1903.5" y="-150.5" font-family="Helvetica,sans-Serif" font-size="10.00">_w_info&lt; Type, RawSize,</text>
<text text-anchor="middle" x="1963" y="-137.5" font-family="Helvetica,sans-Serif" font-size="10.00"> NBids, MetaInfoType &gt;</text>
</a>
</g>
<!-- Node15&#45;&gt;Node18 -->
<g id="edge48" class="edge"><title>Node15&#45;&gt;Node18</title>
<path fill="none" stroke="midnightblue" d="M1782.55,-161.593C1819.43,-159.836 1861.12,-157.852 1895.12,-156.232"/>
<polygon fill="midnightblue" stroke="midnightblue" points="1782.1,-158.11 1772.28,-162.082 1782.43,-165.102 1782.1,-158.11"/>
</g>
<!-- Node16 -->
<g id="node33" class="node"><title>Node16</title>
<a xlink:href="classstxxl_1_1mng__local_1_1element__block.html" target="_top" xlink:title="Contains data elements for stxxl::typed_block , not intended for direct use. ">
<polygon fill="none" stroke="black" points="1108,-83 1108,-117 1240,-117 1240,-83 1108,-83"/>
<text text-anchor="start" x="1116" y="-104" font-family="Helvetica,sans-Serif" font-size="10.00">stxxl::mng_local::element</text>
<text text-anchor="middle" x="1174" y="-91" font-family="Helvetica,sans-Serif" font-size="10.00">_block&lt; Type, Size &gt;</text>
</a>
</g>
<!-- Node16&#45;&gt;Node15 -->
<g id="edge36" class="edge"><title>Node16&#45;&gt;Node15</title>
<path fill="none" stroke="midnightblue" d="M1250.32,-109.761C1345.94,-121.993 1509.18,-142.872 1607.59,-155.459"/>
<polygon fill="midnightblue" stroke="midnightblue" points="1250.5,-106.257 1240.14,-108.46 1249.61,-113.2 1250.5,-106.257"/>
</g>
<!-- Node16&#45;&gt;Node17 -->
<g id="edge42" class="edge"><title>Node16&#45;&gt;Node17</title>
<path fill="none" stroke="midnightblue" d="M1229.8,-120.749C1254.67,-129.997 1284.08,-140.935 1309.76,-150.484"/>
<polygon fill="midnightblue" stroke="midnightblue" points="1230.75,-117.368 1220.15,-117.163 1228.31,-123.929 1230.75,-117.368"/>
</g>
<!-- Node17&#45;&gt;Node15 -->
<g id="edge40" class="edge"><title>Node17&#45;&gt;Node15</title>
<path fill="none" stroke="orange" stroke-dasharray="5,2" d="M1464.21,-166.353C1466.84,-166.222 1469.44,-166.103 1472,-166 1516.91,-164.189 1567.06,-164.058 1607.93,-164.438"/>
<polygon fill="orange" stroke="orange" points="1463.8,-162.871 1454.01,-166.919 1464.19,-169.86 1463.8,-162.871"/>
<text text-anchor="start" x="1472" y="-222" font-family="Helvetica,sans-Serif" font-size="10.00"> &lt; Type,((RawSize&#45;sizeof</text>
<text text-anchor="start" x="1472" y="-209" font-family="Helvetica,sans-Serif" font-size="10.00">(BID&lt; RawSize &gt;)*NBids</text>
<text text-anchor="start" x="1472" y="-196" font-family="Helvetica,sans-Serif" font-size="10.00">&#45;sizeof(MetaInfoType))</text>
<text text-anchor="start" x="1472" y="-183" font-family="Helvetica,sans-Serif" font-size="10.00">/sizeof(Type)), RawSize,</text>
<text text-anchor="middle" x="1531" y="-170" font-family="Helvetica,sans-Serif" font-size="10.00"> NBids &gt;</text>
</g>
<!-- Node18&#45;&gt;Node14 -->
<g id="edge46" class="edge"><title>Node18&#45;&gt;Node14</title>
<path fill="none" stroke="orange" stroke-dasharray="5,2" d="M2040.91,-155.8C2079.77,-157.632 2127.44,-160.538 2170,-165 2177.87,-165.825 2186.1,-166.848 2194.26,-167.961"/>
<polygon fill="orange" stroke="orange" points="2040.87,-152.294 2030.72,-155.334 2040.55,-159.287 2040.87,-152.294"/>
<text text-anchor="start" x="2054.5" y="-182" font-family="Helvetica,sans-Serif" font-size="10.00"> &lt; Type, RawSize, NRef,</text>
<text text-anchor="middle" x="2112" y="-169" font-family="Helvetica,sans-Serif" font-size="10.00"> MetaInfoType &gt;</text>
</g>
<!-- Node19 -->
<g id="node43" class="node"><title>Node19</title>
<a xlink:href="classstxxl_1_1mng__local_1_1filler__struct.html" target="_top" xlink:title="stxxl::mng_local::filler\l_struct\&lt; FillSize \&gt;">
<polygon fill="none" stroke="black" points="1633,-298 1633,-332 1747,-332 1747,-298 1633,-298"/>
<text text-anchor="start" x="1641" y="-319" font-family="Helvetica,sans-Serif" font-size="10.00">stxxl::mng_local::filler</text>
<text text-anchor="middle" x="1690" y="-306" font-family="Helvetica,sans-Serif" font-size="10.00">_struct&lt; FillSize &gt;</text>
</a>
</g>
<!-- Node19&#45;&gt;Node13 -->
<g id="edge50" class="edge"><title>Node19&#45;&gt;Node13</title>
<path fill="none" stroke="#9a32cd" stroke-dasharray="5,2" d="M1757.45,-306.199C1796.22,-301.148 1845.85,-294.697 1890,-289 1962.88,-279.597 1980.92,-275.675 2054,-268 2186.99,-254.034 2220.62,-254.585 2354,-245 2382.67,-242.94 2413.69,-240.72 2442.42,-238.667"/>
<polygon fill="#9a32cd" stroke="#9a32cd" points="1756.79,-302.755 1747.33,-307.518 1757.69,-309.696 1756.79,-302.755"/>
<text text-anchor="middle" x="2112" y="-272" font-family="Helvetica,sans-Serif" font-size="10.00"> filler</text>
</g>
<!-- Node21 -->
<g id="node47" class="node"><title>Node21</title>
<a xlink:href="classstxxl_1_1mng__local_1_1add__filler.html" target="_top" xlink:title="Contains per block filler for stxxl::typed_block , not intended for direct use. ">
<polygon fill="none" stroke="black" points="1890,-298 1890,-332 2036,-332 2036,-298 1890,-298"/>
<text text-anchor="start" x="1898" y="-319" font-family="Helvetica,sans-Serif" font-size="10.00">stxxl::mng_local::add</text>
<text text-anchor="middle" x="1963" y="-306" font-family="Helvetica,sans-Serif" font-size="10.00">_filler&lt; BaseType, FillSize &gt;</text>
</a>
</g>
<!-- Node19&#45;&gt;Node21 -->
<g id="edge56" class="edge"><title>Node19&#45;&gt;Node21</title>
<path fill="none" stroke="#9a32cd" stroke-dasharray="5,2" d="M1757.48,-315C1797.71,-315 1848.81,-315 1889.98,-315"/>
<polygon fill="#9a32cd" stroke="#9a32cd" points="1757.23,-311.5 1747.23,-315 1757.23,-318.5 1757.23,-311.5"/>
<text text-anchor="middle" x="1831" y="-319" font-family="Helvetica,sans-Serif" font-size="10.00"> filler</text>
</g>
<!-- Node23 -->
<g id="node52" class="node"><title>Node23</title>
<a xlink:href="classstxxl_1_1mng__local_1_1add__filler.html" target="_top" xlink:title="stxxl::mng_local::add\l_filler\&lt; Type, RawSize\l&#45;sizeof(Type)\&gt;">
<polygon fill="none" stroke="black" points="2201,-373.5 2201,-420.5 2323,-420.5 2323,-373.5 2201,-373.5"/>
<text text-anchor="start" x="2209" y="-407.5" font-family="Helvetica,sans-Serif" font-size="10.00">stxxl::mng_local::add</text>
<text text-anchor="start" x="2209" y="-394.5" font-family="Helvetica,sans-Serif" font-size="10.00">_filler&lt; Type, RawSize</text>
<text text-anchor="middle" x="2262" y="-381.5" font-family="Helvetica,sans-Serif" font-size="10.00">&#45;sizeof(Type)&gt;</text>
</a>
</g>
<!-- Node19&#45;&gt;Node23 -->
<g id="edge62" class="edge"><title>Node19&#45;&gt;Node23</title>
<path fill="none" stroke="#9a32cd" stroke-dasharray="5,2" d="M1757.06,-326.699C1768.06,-328.532 1779.34,-330.36 1790,-332 1937.16,-354.636 2110.73,-377.575 2200.81,-389.2"/>
<polygon fill="#9a32cd" stroke="#9a32cd" points="1757.5,-323.225 1747.06,-325.02 1756.34,-330.129 1757.5,-323.225"/>
<text text-anchor="middle" x="1963" y="-370" font-family="Helvetica,sans-Serif" font-size="10.00"> filler</text>
</g>
<!-- Node20 -->
<g id="node45" class="node"><title>Node20</title>
<a xlink:href="classstxxl_1_1mng__local_1_1filler__struct.html" target="_top" xlink:title="stxxl::mng_local::filler\l_struct\&lt; Bytes \&gt;">
<polygon fill="none" stroke="black" points="1316,-298 1316,-332 1430,-332 1430,-298 1316,-298"/>
<text text-anchor="start" x="1324" y="-319" font-family="Helvetica,sans-Serif" font-size="10.00">stxxl::mng_local::filler</text>
<text text-anchor="middle" x="1373" y="-306" font-family="Helvetica,sans-Serif" font-size="10.00">_struct&lt; Bytes &gt;</text>
</a>
</g>
<!-- Node20&#45;&gt;Node19 -->
<g id="edge52" class="edge"><title>Node20&#45;&gt;Node19</title>
<path fill="none" stroke="orange" stroke-dasharray="5,2" d="M1440.08,-315C1497.31,-315 1578.71,-315 1632.88,-315"/>
<polygon fill="orange" stroke="orange" points="1440.04,-311.5 1430.04,-315 1440.04,-318.5 1440.04,-311.5"/>
<text text-anchor="middle" x="1531" y="-319" font-family="Helvetica,sans-Serif" font-size="10.00"> &lt; FillSize &gt;</text>
</g>
<!-- Node21&#45;&gt;Node13 -->
<g id="edge54" class="edge"><title>Node21&#45;&gt;Node13</title>
<path fill="none" stroke="orange" stroke-dasharray="5,2" d="M2046.29,-303.081C2150.27,-288.201 2328.32,-262.723 2442.49,-246.384"/>
<polygon fill="orange" stroke="orange" points="2045.56,-299.65 2036.16,-304.531 2046.55,-306.579 2045.56,-299.65"/>
<text text-anchor="start" x="2188" y="-351" font-family="Helvetica,sans-Serif" font-size="10.00"> &lt; mng_local::block</text>
<text text-anchor="start" x="2188" y="-338" font-family="Helvetica,sans-Serif" font-size="10.00">_w_info&lt; Type, RawSize,</text>
<text text-anchor="start" x="2188" y="-325" font-family="Helvetica,sans-Serif" font-size="10.00"> NRef, MetaInfoType &gt;,</text>
<text text-anchor="start" x="2188" y="-312" font-family="Helvetica,sans-Serif" font-size="10.00"> RawSize&#45;sizeof(mng_local</text>
<text text-anchor="start" x="2188" y="-299" font-family="Helvetica,sans-Serif" font-size="10.00">::block_w_info&lt; Type, RawSize,</text>
<text text-anchor="middle" x="2262" y="-286" font-family="Helvetica,sans-Serif" font-size="10.00"> NRef, MetaInfoType &gt;)&gt;</text>
</g>
<!-- Node21&#45;&gt;Node23 -->
<g id="edge64" class="edge"><title>Node21&#45;&gt;Node23</title>
<path fill="none" stroke="orange" stroke-dasharray="5,2" d="M2046.44,-310.479C2085.92,-311.688 2132.51,-318.175 2170,-338 2180.87,-343.746 2178.35,-351.383 2188,-359 2194.57,-364.19 2201.97,-368.979 2209.47,-373.283"/>
<polygon fill="orange" stroke="orange" points="2046.37,-306.977 2036.3,-310.278 2046.23,-313.975 2046.37,-306.977"/>
<text text-anchor="start" x="2055" y="-355" font-family="Helvetica,sans-Serif" font-size="10.00"> &lt; Type, RawSize&#45;sizeof</text>
<text text-anchor="middle" x="2112" y="-342" font-family="Helvetica,sans-Serif" font-size="10.00">(Type)&gt;</text>
</g>
<!-- Node22 -->
<g id="node50" class="node"><title>Node22</title>
<a xlink:href="classstxxl_1_1mng__local_1_1expand__struct.html" target="_top" xlink:title="Helper to compute the size of the filler , not intended for direct use. ">
<polygon fill="none" stroke="black" points="2481.5,-314 2481.5,-348 2618.5,-348 2618.5,-314 2481.5,-314"/>
<text text-anchor="start" x="2489.5" y="-335" font-family="Helvetica,sans-Serif" font-size="10.00">stxxl::mng_local::expand</text>
<text text-anchor="middle" x="2550" y="-322" font-family="Helvetica,sans-Serif" font-size="10.00">_struct&lt; Type, RawSize &gt;</text>
</a>
</g>
<!-- Node22&#45;&gt;Node12 -->
<g id="edge58" class="edge"><title>Node22&#45;&gt;Node12</title>
<path fill="none" stroke="orange" stroke-dasharray="5,2" d="M2618.93,-311.077C2675.05,-294.859 2754.41,-271.923 2813.82,-254.751"/>
<polygon fill="orange" stroke="orange" points="2617.72,-307.784 2609.09,-313.923 2619.67,-314.509 2617.72,-307.784"/>
<text text-anchor="start" x="2676.5" y="-335" font-family="Helvetica,sans-Serif" font-size="10.00"> &lt; mng_local::block</text>
<text text-anchor="start" x="2676.5" y="-322" font-family="Helvetica,sans-Serif" font-size="10.00">_w_info&lt; Type, RawSize,</text>
<text text-anchor="start" x="2676.5" y="-309" font-family="Helvetica,sans-Serif" font-size="10.00"> NRef, MetaInfoType &gt;,</text>
<text text-anchor="middle" x="2736" y="-296" font-family="Helvetica,sans-Serif" font-size="10.00"> RawSize &gt;</text>
</g>
<!-- Node23&#45;&gt;Node22 -->
<g id="edge60" class="edge"><title>Node23&#45;&gt;Node22</title>
<path fill="none" stroke="midnightblue" d="M2332.83,-380.769C2378.13,-370.387 2436.59,-356.99 2481.44,-346.712"/>
<polygon fill="midnightblue" stroke="midnightblue" points="2332.04,-377.358 2323.08,-383.003 2333.61,-384.181 2332.04,-377.358"/>
</g>
<!-- Node24&#45;&gt;Node2 -->
<g id="edge66" class="edge"><title>Node24&#45;&gt;Node2</title>
<path fill="none" stroke="orange" stroke-dasharray="5,2" d="M3392.32,-109.162C3437.84,-111.963 3496.25,-116.209 3548,-122 3553.96,-122.667 3560.11,-123.427 3566.3,-124.242"/>
<polygon fill="orange" stroke="orange" points="3392.41,-105.662 3382.22,-108.552 3391.99,-112.649 3392.41,-105.662"/>
<text text-anchor="start" x="3400" y="-139" font-family="Helvetica,sans-Serif" font-size="10.00"> &lt; ValueType, BlockSideLength</text>
<text text-anchor="middle" x="3474" y="-126" font-family="Helvetica,sans-Serif" font-size="10.00"> *BlockSideLength &gt;</text>
</g>
</g>
</svg>
