<?xml version="1.0" encoding="UTF-8" standalone="no"?>
<!DOCTYPE svg PUBLIC "-//W3C//DTD SVG 1.1//EN"
 "http://www.w3.org/Graphics/SVG/1.1/DTD/svg11.dtd">
<!-- Generated by graphviz version 2.26.3 (20100126.1600)
 -->
<!-- Title: stxxl::grow_shrink_stack2&lt; StackConfig &gt; Pages: 1 -->
<svg width="3336pt" height="572pt"
 viewBox="0.00 0.00 3336.00 572.00" xmlns="http://www.w3.org/2000/svg" xmlns:xlink="http://www.w3.org/1999/xlink">
<g id="graph1" class="graph" transform="scale(1 1) rotate(0) translate(4 568)">
<title>stxxl::grow_shrink_stack2&lt; StackConfig &gt;</title>
<!-- Node1 -->
<g id="node1" class="node"><title>Node1</title>
<polygon fill="#bfbfbf" stroke="black" points="3200,-310 3200,-344 3328,-344 3328,-310 3200,-310"/>
<text text-anchor="start" x="3208" y="-331" font-family="Helvetica,sans-Serif" font-size="10.00">stxxl::grow_shrink</text>
<text text-anchor="middle" x="3264" y="-318" font-family="Helvetica,sans-Serif" font-size="10.00">_stack2&lt; StackConfig &gt;</text>
</g>
<!-- Node2 -->
<g id="node2" class="node"><title>Node2</title>
<a xlink:href="classstxxl_1_1noncopyable.html" target="_top" xlink:title="stxxl::noncopyable">
<polygon fill="none" stroke="black" points="31,-356.5 31,-377.5 133,-377.5 133,-356.5 31,-356.5"/>
<text text-anchor="middle" x="82" y="-364.5" font-family="Helvetica,sans-Serif" font-size="10.00">stxxl::noncopyable</text>
</a>
</g>
<!-- Node2&#45;&gt;Node1 -->
<g id="edge2" class="edge"><title>Node2&#45;&gt;Node1</title>
<path fill="none" stroke="#8b1a1a" d="M143.314,-360.705C202.542,-355.174 294.814,-348 375,-348 375,-348 375,-348 3068,-348 3112.15,-348 3161.57,-342.668 3199.74,-337.377"/>
<polygon fill="#8b1a1a" stroke="#8b1a1a" points="142.637,-357.254 133.012,-361.682 143.298,-364.223 142.637,-357.254"/>
</g>
<!-- Node3 -->
<g id="node4" class="node"><title>Node3</title>
<a xlink:href="classstxxl_1_1read__write__pool.html" target="_top" xlink:title="Implements dynamically resizable buffered writing and prefetched reading pool. ">
<polygon fill="none" stroke="black" points="828.5,-417 828.5,-451 947.5,-451 947.5,-417 828.5,-417"/>
<text text-anchor="start" x="836.5" y="-438" font-family="Helvetica,sans-Serif" font-size="10.00">stxxl::read_write_pool</text>
<text text-anchor="middle" x="888" y="-425" font-family="Helvetica,sans-Serif" font-size="10.00">&lt; BlockType &gt;</text>
</a>
</g>
<!-- Node2&#45;&gt;Node3 -->
<g id="edge6" class="edge"><title>Node2&#45;&gt;Node3</title>
<path fill="none" stroke="#8b1a1a" d="M143.238,-378.034C156.045,-380.339 169.464,-382.751 182,-385 303.765,-406.847 332.774,-423.068 456,-434 588.604,-445.764 745.006,-441.214 828.456,-437.318"/>
<polygon fill="#8b1a1a" stroke="#8b1a1a" points="143.589,-374.541 133.127,-376.214 142.349,-381.431 143.589,-374.541"/>
</g>
<!-- Node4 -->
<g id="node7" class="node"><title>Node4</title>
<a xlink:href="classstxxl_1_1prefetch__pool.html" target="_top" xlink:title="Implements dynamically resizable prefetching pool. ">
<polygon fill="none" stroke="black" points="608.5,-476 608.5,-510 715.5,-510 715.5,-476 608.5,-476"/>
<text text-anchor="start" x="616.5" y="-497" font-family="Helvetica,sans-Serif" font-size="10.00">stxxl::prefetch_pool</text>
<text text-anchor="middle" x="662" y="-484" font-family="Helvetica,sans-Serif" font-size="10.00">&lt; BlockType &gt;</text>
</a>
</g>
<!-- Node2&#45;&gt;Node4 -->
<g id="edge10" class="edge"><title>Node2&#45;&gt;Node4</title>
<path fill="none" stroke="#8b1a1a" d="M95.2637,-385.934C112.367,-408.606 144.422,-445.572 182,-462 257.176,-494.864 499.75,-495.541 608.447,-494.081"/>
<polygon fill="#8b1a1a" stroke="#8b1a1a" points="97.9973,-383.743 89.2652,-377.743 92.3497,-387.879 97.9973,-383.743"/>
</g>
<!-- Node9 -->
<g id="node18" class="node"><title>Node9</title>
<a xlink:href="classstxxl_1_1write__pool.html" target="_top" xlink:title="Implements dynamically resizable buffered writing pool. ">
<polygon fill="none" stroke="black" points="472.5,-363 472.5,-397 569.5,-397 569.5,-363 472.5,-363"/>
<text text-anchor="start" x="480.5" y="-384" font-family="Helvetica,sans-Serif" font-size="10.00">stxxl::write_pool&lt;</text>
<text text-anchor="middle" x="521" y="-371" font-family="Helvetica,sans-Serif" font-size="10.00"> BlockType &gt;</text>
</a>
</g>
<!-- Node2&#45;&gt;Node9 -->
<g id="edge22" class="edge"><title>Node2&#45;&gt;Node9</title>
<path fill="none" stroke="#8b1a1a" d="M143.334,-368.816C231.445,-371.425 392.065,-376.182 472.455,-378.562"/>
<polygon fill="#8b1a1a" stroke="#8b1a1a" points="143.317,-365.314 133.218,-368.517 143.11,-372.311 143.317,-365.314"/>
</g>
<!-- Node17 -->
<g id="node36" class="node"><title>Node17</title>
<a xlink:href="classstxxl_1_1file.html" target="_top" xlink:title="Defines interface of file. ">
<polygon fill="none" stroke="black" points="860,-226.5 860,-247.5 916,-247.5 916,-226.5 860,-226.5"/>
<text text-anchor="middle" x="888" y="-234.5" font-family="Helvetica,sans-Serif" font-size="10.00">stxxl::file</text>
</a>
</g>
<!-- Node2&#45;&gt;Node17 -->
<g id="edge42" class="edge"><title>Node2&#45;&gt;Node17</title>
<path fill="none" stroke="#8b1a1a" d="M118.791,-352.978C137.48,-346.339 160.689,-338.827 182,-334 456.417,-271.849 532.72,-301.782 810,-254 826.663,-251.129 845.159,-247.133 859.956,-243.737"/>
<polygon fill="#8b1a1a" stroke="#8b1a1a" points="117.402,-349.759 109.189,-356.452 119.783,-356.341 117.402,-349.759"/>
</g>
<!-- Node19 -->
<g id="node41" class="node"><title>Node19</title>
<a xlink:href="classstxxl_1_1mutex.html" target="_top" xlink:title="stxxl::mutex">
<polygon fill="none" stroke="black" points="340,-260.5 340,-281.5 410,-281.5 410,-260.5 340,-260.5"/>
<text text-anchor="middle" x="375" y="-268.5" font-family="Helvetica,sans-Serif" font-size="10.00">stxxl::mutex</text>
</a>
</g>
<!-- Node2&#45;&gt;Node19 -->
<g id="edge48" class="edge"><title>Node2&#45;&gt;Node19</title>
<path fill="none" stroke="#8b1a1a" d="M100.467,-349.589C119.375,-332.866 150.394,-308.372 182,-296 234.385,-275.494 300.269,-271.087 339.934,-270.511"/>
<polygon fill="#8b1a1a" stroke="#8b1a1a" points="97.9676,-347.13 92.9057,-356.437 102.667,-352.318 97.9676,-347.13"/>
</g>
<!-- Node3&#45;&gt;Node1 -->
<g id="edge4" class="edge"><title>Node3&#45;&gt;Node1</title>
<path fill="none" stroke="#9a32cd" stroke-dasharray="5,2" d="M957.648,-418.972C992.172,-412.768 1034.6,-407 1073,-407 1073,-407 1073,-407 3068,-407 3133.97,-407 3203.79,-367.669 3239.63,-344.162"/>
<polygon fill="#9a32cd" stroke="#9a32cd" points="956.864,-415.557 947.667,-420.816 958.136,-422.441 956.864,-415.557"/>
<text text-anchor="middle" x="2019" y="-424" font-family="Helvetica,sans-Serif" font-size="10.00"> owned_pool</text>
<text text-anchor="middle" x="2019" y="-411" font-family="Helvetica,sans-Serif" font-size="10.00">pool</text>
</g>
<!-- Node4&#45;&gt;Node3 -->
<g id="edge8" class="edge"><title>Node4&#45;&gt;Node3</title>
<path fill="none" stroke="#9a32cd" stroke-dasharray="5,2" d="M725.393,-481.721C751.761,-476.514 782.56,-469.759 810,-462 821.076,-458.868 832.847,-454.959 843.796,-451.065"/>
<polygon fill="#9a32cd" stroke="#9a32cd" points="724.669,-478.297 715.52,-483.64 726.004,-485.168 724.669,-478.297"/>
<text text-anchor="middle" x="774" y="-482" font-family="Helvetica,sans-Serif" font-size="10.00"> p_pool</text>
</g>
<!-- Node5 -->
<g id="node10" class="node"><title>Node5</title>
<a xlink:href="structstxxl_1_1choose__int__types.html" target="_top" xlink:title="stxxl::choose_int_types\l\&lt; my_pointer_size \&gt;">
<polygon fill="none" stroke="black" points="312.5,-208 312.5,-242 437.5,-242 437.5,-208 312.5,-208"/>
<text text-anchor="start" x="320.5" y="-229" font-family="Helvetica,sans-Serif" font-size="10.00">stxxl::choose_int_types</text>
<text text-anchor="middle" x="375" y="-216" font-family="Helvetica,sans-Serif" font-size="10.00">&lt; my_pointer_size &gt;</text>
</a>
</g>
<!-- Node5&#45;&gt;Node1 -->
<g id="edge24" class="edge"><title>Node5&#45;&gt;Node1</title>
<path fill="none" stroke="#9a32cd" stroke-dasharray="5,2" d="M391.018,-198.934C429.655,-139.686 534.292,-0 662,-0 662,-0 662,-0 3068,-0 3213.94,-0 3253.89,-242.597 3262.16,-309.879"/>
<polygon fill="#9a32cd" stroke="#9a32cd" points="387.837,-197.41 385.39,-207.718 393.732,-201.186 387.837,-197.41"/>
<text text-anchor="middle" x="1804" y="-17" font-family="Helvetica,sans-Serif" font-size="10.00"> cache_offset</text>
<text text-anchor="middle" x="1804" y="-4" font-family="Helvetica,sans-Serif" font-size="10.00">pref_aggr</text>
</g>
<!-- Node5&#45;&gt;Node4 -->
<g id="edge12" class="edge"><title>Node5&#45;&gt;Node4</title>
<path fill="none" stroke="#9a32cd" stroke-dasharray="5,2" d="M436.495,-249.139C437.014,-249.744 437.516,-250.364 438,-251 477.866,-303.375 417.207,-344.825 456,-398 458.684,-401.679 565.068,-449.653 623.872,-475.98"/>
<polygon fill="#9a32cd" stroke="#9a32cd" points="438.609,-246.326 428.897,-242.093 433.849,-251.459 438.609,-246.326"/>
<text text-anchor="middle" x="521" y="-462" font-family="Helvetica,sans-Serif" font-size="10.00"> free_blocks_size</text>
</g>
<!-- Node18 -->
<g id="node39" class="node"><title>Node18</title>
<a xlink:href="classstxxl_1_1atomic__counted__object.html" target="_top" xlink:title="Provides reference counting abilities for use with counting_ptr with mutex locking. ">
<polygon fill="none" stroke="black" points="604,-220 604,-254 720,-254 720,-220 604,-220"/>
<text text-anchor="start" x="612" y="-241" font-family="Helvetica,sans-Serif" font-size="10.00">stxxl::atomic_counted</text>
<text text-anchor="middle" x="662" y="-228" font-family="Helvetica,sans-Serif" font-size="10.00">_object</text>
</a>
</g>
<!-- Node5&#45;&gt;Node18 -->
<g id="edge50" class="edge"><title>Node5&#45;&gt;Node18</title>
<path fill="none" stroke="#9a32cd" stroke-dasharray="5,2" d="M447.883,-227.5C488.537,-228.96 540.087,-230.921 586,-233 591.808,-233.263 597.864,-233.554 603.912,-233.855"/>
<polygon fill="#9a32cd" stroke="#9a32cd" points="447.911,-223.998 437.792,-227.139 447.661,-230.994 447.911,-223.998"/>
<text text-anchor="middle" x="521" y="-237" font-family="Helvetica,sans-Serif" font-size="10.00"> m_reference_count</text>
</g>
<!-- Node6 -->
<g id="node12" class="node"><title>Node6</title>
<a xlink:href="structstxxl_1_1choose__int__types.html" target="_top" xlink:title="stxxl::choose_int_types\l\&lt; PtrSize \&gt;">
<polygon fill="none" stroke="black" points="19.5,-208 19.5,-242 144.5,-242 144.5,-208 19.5,-208"/>
<text text-anchor="start" x="27.5" y="-229" font-family="Helvetica,sans-Serif" font-size="10.00">stxxl::choose_int_types</text>
<text text-anchor="middle" x="82" y="-216" font-family="Helvetica,sans-Serif" font-size="10.00">&lt; PtrSize &gt;</text>
</a>
</g>
<!-- Node6&#45;&gt;Node5 -->
<g id="edge14" class="edge"><title>Node6&#45;&gt;Node5</title>
<path fill="none" stroke="orange" stroke-dasharray="5,2" d="M154.946,-225C203.312,-225 266.12,-225 312.248,-225"/>
<polygon fill="orange" stroke="orange" points="154.856,-221.5 144.856,-225 154.856,-228.5 154.856,-221.5"/>
<text text-anchor="middle" x="238" y="-229" font-family="Helvetica,sans-Serif" font-size="10.00"> &lt; my_pointer_size &gt;</text>
</g>
<!-- Node7 -->
<g id="node14" class="node"><title>Node7</title>
<a xlink:href="structstxxl_1_1compat__hash__map.html" target="_top" xlink:title="stxxl::compat_hash\l_map\&lt; bid_type, busy\l_entry, bid_hash \&gt;">
<polygon fill="none" stroke="black" points="316,-514.5 316,-561.5 434,-561.5 434,-514.5 316,-514.5"/>
<text text-anchor="start" x="324" y="-548.5" font-family="Helvetica,sans-Serif" font-size="10.00">stxxl::compat_hash</text>
<text text-anchor="start" x="324" y="-535.5" font-family="Helvetica,sans-Serif" font-size="10.00">_map&lt; bid_type, busy</text>
<text text-anchor="middle" x="375" y="-522.5" font-family="Helvetica,sans-Serif" font-size="10.00">_entry, bid_hash &gt;</text>
</a>
</g>
<!-- Node7&#45;&gt;Node4 -->
<g id="edge16" class="edge"><title>Node7&#45;&gt;Node4</title>
<path fill="none" stroke="#9a32cd" stroke-dasharray="5,2" d="M444.283,-527.137C494.681,-519.235 561.931,-508.69 608.286,-501.422"/>
<polygon fill="#9a32cd" stroke="#9a32cd" points="443.456,-523.724 434.119,-528.731 444.54,-530.639 443.456,-523.724"/>
<text text-anchor="middle" x="521" y="-528" font-family="Helvetica,sans-Serif" font-size="10.00"> busy_blocks</text>
</g>
<!-- Node8 -->
<g id="node16" class="node"><title>Node8</title>
<a xlink:href="structstxxl_1_1compat__hash__map.html" target="_top" xlink:title="stxxl::compat_hash\l_map\&lt; KeyType, MappedType,\l HashType \&gt;">
<polygon fill="none" stroke="black" points="0,-514.5 0,-561.5 164,-561.5 164,-514.5 0,-514.5"/>
<text text-anchor="start" x="8" y="-548.5" font-family="Helvetica,sans-Serif" font-size="10.00">stxxl::compat_hash</text>
<text text-anchor="start" x="8" y="-535.5" font-family="Helvetica,sans-Serif" font-size="10.00">_map&lt; KeyType, MappedType,</text>
<text text-anchor="middle" x="82" y="-522.5" font-family="Helvetica,sans-Serif" font-size="10.00"> HashType &gt;</text>
</a>
</g>
<!-- Node8&#45;&gt;Node7 -->
<g id="edge18" class="edge"><title>Node8&#45;&gt;Node7</title>
<path fill="none" stroke="orange" stroke-dasharray="5,2" d="M174.056,-538C220.371,-538 275.149,-538 315.806,-538"/>
<polygon fill="orange" stroke="orange" points="174.006,-534.5 164.006,-538 174.006,-541.5 174.006,-534.5"/>
<text text-anchor="start" x="182.5" y="-555" font-family="Helvetica,sans-Serif" font-size="10.00"> &lt; bid_type, busy_entry,</text>
<text text-anchor="middle" x="238" y="-542" font-family="Helvetica,sans-Serif" font-size="10.00"> bid_hash &gt;</text>
</g>
<!-- Node9&#45;&gt;Node3 -->
<g id="edge20" class="edge"><title>Node9&#45;&gt;Node3</title>
<path fill="none" stroke="#9a32cd" stroke-dasharray="5,2" d="M579.885,-388.664C648.107,-398.702 759.889,-415.15 828.409,-425.232"/>
<polygon fill="#9a32cd" stroke="#9a32cd" points="580.138,-385.164 569.735,-387.171 579.119,-392.089 580.138,-385.164"/>
<text text-anchor="middle" x="662" y="-412" font-family="Helvetica,sans-Serif" font-size="10.00"> w_pool</text>
</g>
<!-- Node10 -->
<g id="node22" class="node"><title>Node10</title>
<a xlink:href="classstxxl_1_1typed__block.html" target="_top" xlink:title="Block containing elements of fixed length. ">
<polygon fill="none" stroke="black" points="3004,-268.5 3004,-315.5 3132,-315.5 3132,-268.5 3004,-268.5"/>
<text text-anchor="start" x="3012" y="-302.5" font-family="Helvetica,sans-Serif" font-size="10.00">stxxl::typed_block</text>
<text text-anchor="start" x="3012" y="-289.5" font-family="Helvetica,sans-Serif" font-size="10.00">&lt; RawSize, Type, NRef,</text>
<text text-anchor="middle" x="3068" y="-276.5" font-family="Helvetica,sans-Serif" font-size="10.00"> MetaInfoType &gt;</text>
</a>
</g>
<!-- Node10&#45;&gt;Node1 -->
<g id="edge26" class="edge"><title>Node10&#45;&gt;Node1</title>
<path fill="none" stroke="#9a32cd" stroke-dasharray="5,2" d="M3142.23,-305.256C3161.14,-308.633 3181.31,-312.234 3199.68,-315.514"/>
<polygon fill="#9a32cd" stroke="#9a32cd" points="3142.64,-301.773 3132.18,-303.46 3141.41,-308.664 3142.64,-301.773"/>
<text text-anchor="middle" x="3166" y="-315" font-family="Helvetica,sans-Serif" font-size="10.00"> cache</text>
</g>
<!-- Node11 -->
<g id="node24" class="node"><title>Node11</title>
<a xlink:href="classstxxl_1_1mng__local_1_1expand__struct.html" target="_top" xlink:title="stxxl::mng_local::expand\l_struct\&lt; mng_local::block\l_w_info\&lt; Type, RawSize, NRef,\l MetaInfoType \&gt;, RawSize \&gt;">
<polygon fill="none" stroke="black" points="2802,-251 2802,-311 2966,-311 2966,-251 2802,-251"/>
<text text-anchor="start" x="2810" y="-298" font-family="Helvetica,sans-Serif" font-size="10.00">stxxl::mng_local::expand</text>
<text text-anchor="start" x="2810" y="-285" font-family="Helvetica,sans-Serif" font-size="10.00">_struct&lt; mng_local::block</text>
<text text-anchor="start" x="2810" y="-272" font-family="Helvetica,sans-Serif" font-size="10.00">_w_info&lt; Type, RawSize, NRef,</text>
<text text-anchor="middle" x="2884" y="-259" font-family="Helvetica,sans-Serif" font-size="10.00"> MetaInfoType &gt;, RawSize &gt;</text>
</a>
</g>
<!-- Node11&#45;&gt;Node10 -->
<g id="edge28" class="edge"><title>Node11&#45;&gt;Node10</title>
<path fill="none" stroke="midnightblue" d="M2976.16,-286.51C2985.5,-287.068 2994.84,-287.626 3003.78,-288.161"/>
<polygon fill="midnightblue" stroke="midnightblue" points="2976.24,-283.008 2966.04,-285.905 2975.82,-289.995 2976.24,-283.008"/>
</g>
<!-- Node12 -->
<g id="node26" class="node"><title>Node12</title>
<a xlink:href="classstxxl_1_1mng__local_1_1add__filler.html" target="_top" xlink:title="stxxl::mng_local::add\l_filler\&lt; mng_local::block\l_w_info\&lt; Type, RawSize,\l NRef, MetaInfoType \&gt;, RawSize\l&#45;sizeof(mng_local::block_w_info\l\&lt; Type, RawSize, NRef, MetaInfoType \&gt;)\&gt;">
<polygon fill="none" stroke="black" points="2430.5,-110 2430.5,-196 2645.5,-196 2645.5,-110 2430.5,-110"/>
<text text-anchor="start" x="2438.5" y="-183" font-family="Helvetica,sans-Serif" font-size="10.00">stxxl::mng_local::add</text>
<text text-anchor="start" x="2438.5" y="-170" font-family="Helvetica,sans-Serif" font-size="10.00">_filler&lt; mng_local::block</text>
<text text-anchor="start" x="2438.5" y="-157" font-family="Helvetica,sans-Serif" font-size="10.00">_w_info&lt; Type, RawSize,</text>
<text text-anchor="start" x="2438.5" y="-144" font-family="Helvetica,sans-Serif" font-size="10.00"> NRef, MetaInfoType &gt;, RawSize</text>
<text text-anchor="start" x="2438.5" y="-131" font-family="Helvetica,sans-Serif" font-size="10.00">&#45;sizeof(mng_local::block_w_info</text>
<text text-anchor="middle" x="2538" y="-118" font-family="Helvetica,sans-Serif" font-size="10.00">&lt; Type, RawSize, NRef, MetaInfoType &gt;)&gt;</text>
</a>
</g>
<!-- Node12&#45;&gt;Node11 -->
<g id="edge30" class="edge"><title>Node12&#45;&gt;Node11</title>
<path fill="none" stroke="midnightblue" d="M2655.2,-196.357C2703.77,-214.324 2758.9,-234.721 2802.88,-250.99"/>
<polygon fill="midnightblue" stroke="midnightblue" points="2656.17,-192.985 2645.58,-192.798 2653.74,-199.551 2656.17,-192.985"/>
</g>
<!-- Node13 -->
<g id="node28" class="node"><title>Node13</title>
<a xlink:href="classstxxl_1_1mng__local_1_1block__w__info.html" target="_top" xlink:title="stxxl::mng_local::block\l_w_info\&lt; Type, RawSize,\l NRef, MetaInfoType \&gt;">
<polygon fill="none" stroke="black" points="2250.5,-54.5 2250.5,-101.5 2385.5,-101.5 2385.5,-54.5 2250.5,-54.5"/>
<text text-anchor="start" x="2258.5" y="-88.5" font-family="Helvetica,sans-Serif" font-size="10.00">stxxl::mng_local::block</text>
<text text-anchor="start" x="2258.5" y="-75.5" font-family="Helvetica,sans-Serif" font-size="10.00">_w_info&lt; Type, RawSize,</text>
<text text-anchor="middle" x="2318" y="-62.5" font-family="Helvetica,sans-Serif" font-size="10.00"> NRef, MetaInfoType &gt;</text>
</a>
</g>
<!-- Node13&#45;&gt;Node12 -->
<g id="edge32" class="edge"><title>Node13&#45;&gt;Node12</title>
<path fill="none" stroke="midnightblue" d="M2395.27,-104.344C2406.56,-108.19 2418.35,-112.209 2430.1,-116.218"/>
<polygon fill="midnightblue" stroke="midnightblue" points="2396.1,-100.926 2385.5,-101.012 2393.84,-107.552 2396.1,-100.926"/>
</g>
<!-- Node14 -->
<g id="node30" class="node"><title>Node14</title>
<a xlink:href="classstxxl_1_1mng__local_1_1block__w__bids.html" target="_top" xlink:title="stxxl::mng_local::block\l_w_bids\&lt; Type,((RawSize\l&#45;sizeof(BID\&lt; RawSize \&gt;)*NBids\l&#45;sizeof(MetaInfoType))/sizeof\l(Type)), RawSize, NBids \&gt;">
<polygon fill="none" stroke="black" points="1722,-67.5 1722,-140.5 1886,-140.5 1886,-67.5 1722,-67.5"/>
<text text-anchor="start" x="1730" y="-127.5" font-family="Helvetica,sans-Serif" font-size="10.00">stxxl::mng_local::block</text>
<text text-anchor="start" x="1730" y="-114.5" font-family="Helvetica,sans-Serif" font-size="10.00">_w_bids&lt; Type,((RawSize</text>
<text text-anchor="start" x="1730" y="-101.5" font-family="Helvetica,sans-Serif" font-size="10.00">&#45;sizeof(BID&lt; RawSize &gt;)*NBids</text>
<text text-anchor="start" x="1730" y="-88.5" font-family="Helvetica,sans-Serif" font-size="10.00">&#45;sizeof(MetaInfoType))/sizeof</text>
<text text-anchor="middle" x="1804" y="-75.5" font-family="Helvetica,sans-Serif" font-size="10.00">(Type)), RawSize, NBids &gt;</text>
</a>
</g>
<!-- Node14&#45;&gt;Node13 -->
<g id="edge34" class="edge"><title>Node14&#45;&gt;Node13</title>
<path fill="none" stroke="midnightblue" d="M1896.43,-103.497C1982.02,-102.423 2112.79,-99.2394 2226,-90 2233.87,-89.358 2242.09,-88.5221 2250.25,-87.5901"/>
<polygon fill="midnightblue" stroke="midnightblue" points="1896.18,-99.9995 1886.22,-103.618 1896.26,-106.999 1896.18,-99.9995"/>
</g>
<!-- Node22 -->
<g id="node52" class="node"><title>Node22</title>
<a xlink:href="classstxxl_1_1mng__local_1_1block__w__info.html" target="_top" xlink:title="Contains per block information for stxxl::typed_block , not intended for direct use. ">
<polygon fill="none" stroke="black" points="1951.5,-28.5 1951.5,-75.5 2086.5,-75.5 2086.5,-28.5 1951.5,-28.5"/>
<text text-anchor="start" x="1959.5" y="-62.5" font-family="Helvetica,sans-Serif" font-size="10.00">stxxl::mng_local::block</text>
<text text-anchor="start" x="1959.5" y="-49.5" font-family="Helvetica,sans-Serif" font-size="10.00">_w_info&lt; Type, RawSize,</text>
<text text-anchor="middle" x="2019" y="-36.5" font-family="Helvetica,sans-Serif" font-size="10.00"> NBids, MetaInfoType &gt;</text>
</a>
</g>
<!-- Node14&#45;&gt;Node22 -->
<g id="edge64" class="edge"><title>Node14&#45;&gt;Node22</title>
<path fill="none" stroke="midnightblue" d="M1896.1,-81.7258C1914.58,-77.2554 1933.68,-72.6349 1951.16,-68.4078"/>
<polygon fill="midnightblue" stroke="midnightblue" points="1895.1,-78.3656 1886.2,-84.1184 1896.75,-85.1695 1895.1,-78.3656"/>
</g>
<!-- Node15 -->
<g id="node32" class="node"><title>Node15</title>
<a xlink:href="classstxxl_1_1mng__local_1_1element__block.html" target="_top" xlink:title="Contains data elements for stxxl::typed_block , not intended for direct use. ">
<polygon fill="none" stroke="black" points="1222,-72 1222,-106 1354,-106 1354,-72 1222,-72"/>
<text text-anchor="start" x="1230" y="-93" font-family="Helvetica,sans-Serif" font-size="10.00">stxxl::mng_local::element</text>
<text text-anchor="middle" x="1288" y="-80" font-family="Helvetica,sans-Serif" font-size="10.00">_block&lt; Type, Size &gt;</text>
</a>
</g>
<!-- Node15&#45;&gt;Node14 -->
<g id="edge36" class="edge"><title>Node15&#45;&gt;Node14</title>
<path fill="none" stroke="midnightblue" d="M1364.32,-91.2185C1459.94,-93.9983 1623.18,-98.7437 1721.59,-101.604"/>
<polygon fill="midnightblue" stroke="midnightblue" points="1364.24,-87.7148 1354.14,-90.9226 1364.03,-94.7118 1364.24,-87.7148"/>
</g>
<!-- Node21 -->
<g id="node48" class="node"><title>Node21</title>
<a xlink:href="classstxxl_1_1mng__local_1_1block__w__bids.html" target="_top" xlink:title="Contains BID references for stxxl::typed_block , not intended for direct use. ">
<polygon fill="none" stroke="black" points="1406,-110.5 1406,-157.5 1568,-157.5 1568,-110.5 1406,-110.5"/>
<text text-anchor="start" x="1414" y="-144.5" font-family="Helvetica,sans-Serif" font-size="10.00">stxxl::mng_local::block</text>
<text text-anchor="start" x="1414" y="-131.5" font-family="Helvetica,sans-Serif" font-size="10.00">_w_bids&lt; Type, Size, RawSize,</text>
<text text-anchor="middle" x="1487" y="-118.5" font-family="Helvetica,sans-Serif" font-size="10.00"> NBids &gt;</text>
</a>
</g>
<!-- Node15&#45;&gt;Node21 -->
<g id="edge58" class="edge"><title>Node15&#45;&gt;Node21</title>
<path fill="none" stroke="midnightblue" d="M1364.08,-106.204C1377.73,-109.291 1392,-112.519 1405.79,-115.637"/>
<polygon fill="midnightblue" stroke="midnightblue" points="1364.79,-102.776 1354.26,-103.984 1363.25,-109.604 1364.79,-102.776"/>
</g>
<!-- Node16 -->
<g id="node34" class="node"><title>Node16</title>
<a xlink:href="structstxxl_1_1BID.html" target="_top" xlink:title="stxxl::BID\&lt; raw_size \&gt;">
<polygon fill="none" stroke="black" points="1228.5,-184.5 1228.5,-205.5 1347.5,-205.5 1347.5,-184.5 1228.5,-184.5"/>
<text text-anchor="middle" x="1288" y="-192.5" font-family="Helvetica,sans-Serif" font-size="10.00">stxxl::BID&lt; raw_size &gt;</text>
</a>
</g>
<!-- Node16&#45;&gt;Node14 -->
<g id="edge38" class="edge"><title>Node16&#45;&gt;Node14</title>
<path fill="none" stroke="#9a32cd" stroke-dasharray="5,2" d="M1357.89,-197.778C1459.43,-200.948 1642.36,-203.145 1704,-181 1727.71,-172.48 1750.3,-156.076 1767.99,-140.591"/>
<polygon fill="#9a32cd" stroke="#9a32cd" points="1357.83,-194.275 1347.72,-197.449 1357.6,-201.271 1357.83,-194.275"/>
<text text-anchor="middle" x="1487" y="-204" font-family="Helvetica,sans-Serif" font-size="10.00"> ref</text>
</g>
<!-- Node16&#45;&gt;Node21 -->
<g id="edge60" class="edge"><title>Node16&#45;&gt;Node21</title>
<path fill="none" stroke="#9a32cd" stroke-dasharray="5,2" d="M1330.14,-181.241C1343.5,-176.935 1358.35,-172.21 1372,-168 1383.14,-164.563 1394.91,-161.003 1406.5,-157.538"/>
<polygon fill="#9a32cd" stroke="#9a32cd" points="1328.69,-178.03 1320.25,-184.437 1330.85,-184.691 1328.69,-178.03"/>
<text text-anchor="middle" x="1380" y="-172" font-family="Helvetica,sans-Serif" font-size="10.00"> ref</text>
</g>
<!-- Node17&#45;&gt;Node16 -->
<g id="edge40" class="edge"><title>Node17&#45;&gt;Node16</title>
<path fill="none" stroke="#9a32cd" stroke-dasharray="5,2" d="M925.906,-225.6C952.968,-218.005 990.382,-208.603 1024,-204 1093.74,-194.451 1174.77,-193.118 1228.47,-193.581"/>
<polygon fill="#9a32cd" stroke="#9a32cd" points="924.725,-222.297 916.07,-228.408 926.647,-229.028 924.725,-222.297"/>
<text text-anchor="middle" x="1073" y="-208" font-family="Helvetica,sans-Serif" font-size="10.00"> storage</text>
</g>
<!-- Node20 -->
<g id="node45" class="node"><title>Node20</title>
<a xlink:href="structstxxl_1_1BID.html" target="_top" xlink:title="Block identifier class. ">
<polygon fill="none" stroke="black" points="1024,-226.5 1024,-247.5 1122,-247.5 1122,-226.5 1024,-226.5"/>
<text text-anchor="middle" x="1073" y="-234.5" font-family="Helvetica,sans-Serif" font-size="10.00">stxxl::BID&lt; Size &gt;</text>
</a>
</g>
<!-- Node17&#45;&gt;Node20 -->
<g id="edge54" class="edge"><title>Node17&#45;&gt;Node20</title>
<path fill="none" stroke="#9a32cd" stroke-dasharray="5,2" d="M926.37,-237C954.598,-237 993.203,-237 1023.72,-237"/>
<polygon fill="#9a32cd" stroke="#9a32cd" points="926.098,-233.5 916.098,-237 926.097,-240.5 926.098,-233.5"/>
<text text-anchor="middle" x="986" y="-241" font-family="Helvetica,sans-Serif" font-size="10.00"> storage</text>
</g>
<!-- Node18&#45;&gt;Node17 -->
<g id="edge44" class="edge"><title>Node18&#45;&gt;Node17</title>
<path fill="none" stroke="#9a32cd" stroke-dasharray="5,2" d="M730.424,-237C773.836,-237 827.703,-237 859.885,-237"/>
<polygon fill="#9a32cd" stroke="#9a32cd" points="730.201,-233.5 720.201,-237 730.201,-240.5 730.201,-233.5"/>
<text text-anchor="middle" x="774" y="-241" font-family="Helvetica,sans-Serif" font-size="10.00"> m_request_ref</text>
</g>
<!-- Node19&#45;&gt;Node18 -->
<g id="edge46" class="edge"><title>Node19&#45;&gt;Node18</title>
<path fill="none" stroke="#9a32cd" stroke-dasharray="5,2" d="M420.306,-265.633C469.938,-259.753 549.686,-250.306 603.889,-243.884"/>
<polygon fill="#9a32cd" stroke="#9a32cd" points="419.711,-262.179 410.192,-266.831 420.534,-269.13 419.711,-262.179"/>
<text text-anchor="middle" x="521" y="-265" font-family="Helvetica,sans-Serif" font-size="10.00"> m_reference_count_mutex</text>
</g>
<!-- Node20&#45;&gt;Node16 -->
<g id="edge52" class="edge"><title>Node20&#45;&gt;Node16</title>
<path fill="none" stroke="orange" stroke-dasharray="5,2" d="M1132.11,-225.452C1163.92,-219.239 1202.86,-211.631 1233.87,-205.574"/>
<polygon fill="orange" stroke="orange" points="1131.2,-222.065 1122.06,-227.417 1132.54,-228.935 1131.2,-222.065"/>
<text text-anchor="middle" x="1172" y="-228" font-family="Helvetica,sans-Serif" font-size="10.00"> &lt; raw_size &gt;</text>
</g>
<!-- Node21&#45;&gt;Node14 -->
<g id="edge56" class="edge"><title>Node21&#45;&gt;Node14</title>
<path fill="none" stroke="orange" stroke-dasharray="5,2" d="M1578.28,-116.97C1580.88,-116.625 1583.46,-116.3 1586,-116 1630.7,-110.727 1680.84,-107.764 1721.75,-106.102"/>
<polygon fill="orange" stroke="orange" points="1577.6,-113.532 1568.19,-118.398 1578.58,-120.463 1577.6,-113.532"/>
<text text-anchor="start" x="1586" y="-172" font-family="Helvetica,sans-Serif" font-size="10.00"> &lt; Type,((RawSize&#45;sizeof</text>
<text text-anchor="start" x="1586" y="-159" font-family="Helvetica,sans-Serif" font-size="10.00">(BID&lt; RawSize &gt;)*NBids</text>
<text text-anchor="start" x="1586" y="-146" font-family="Helvetica,sans-Serif" font-size="10.00">&#45;sizeof(MetaInfoType))</text>
<text text-anchor="start" x="1586" y="-133" font-family="Helvetica,sans-Serif" font-size="10.00">/sizeof(Type)), RawSize,</text>
<text text-anchor="middle" x="1645" y="-120" font-family="Helvetica,sans-Serif" font-size="10.00"> NBids &gt;</text>
</g>
<!-- Node22&#45;&gt;Node13 -->
<g id="edge62" class="edge"><title>Node22&#45;&gt;Node13</title>
<path fill="none" stroke="orange" stroke-dasharray="5,2" d="M2096.91,-54.7998C2135.77,-56.6323 2183.44,-59.5379 2226,-64 2233.87,-64.8255 2242.1,-65.8478 2250.26,-66.9615"/>
<polygon fill="orange" stroke="orange" points="2096.87,-51.2941 2086.72,-54.3339 2096.55,-58.2868 2096.87,-51.2941"/>
<text text-anchor="start" x="2110.5" y="-81" font-family="Helvetica,sans-Serif" font-size="10.00"> &lt; Type, RawSize, NRef,</text>
<text text-anchor="middle" x="2168" y="-68" font-family="Helvetica,sans-Serif" font-size="10.00"> MetaInfoType &gt;</text>
</g>
<!-- Node23 -->
<g id="node55" class="node"><title>Node23</title>
<a xlink:href="classstxxl_1_1mng__local_1_1filler__struct.html" target="_top" xlink:title="stxxl::mng_local::filler\l_struct\&lt; FillSize \&gt;">
<polygon fill="none" stroke="black" points="1747,-226 1747,-260 1861,-260 1861,-226 1747,-226"/>
<text text-anchor="start" x="1755" y="-247" font-family="Helvetica,sans-Serif" font-size="10.00">stxxl::mng_local::filler</text>
<text text-anchor="middle" x="1804" y="-234" font-family="Helvetica,sans-Serif" font-size="10.00">_struct&lt; FillSize &gt;</text>
</a>
</g>
<!-- Node23&#45;&gt;Node12 -->
<g id="edge66" class="edge"><title>Node23&#45;&gt;Node12</title>
<path fill="none" stroke="#9a32cd" stroke-dasharray="5,2" d="M1871.02,-224.469C1932.65,-208.143 2026.8,-184.996 2110,-172 2169.04,-162.778 2184.33,-164.258 2244,-161 2305.69,-157.631 2374.75,-155.66 2430.42,-154.517"/>
<polygon fill="#9a32cd" stroke="#9a32cd" points="1869.8,-221.172 1861.04,-227.129 1871.6,-227.936 1869.8,-221.172"/>
<text text-anchor="middle" x="2168" y="-176" font-family="Helvetica,sans-Serif" font-size="10.00"> filler</text>
</g>
<!-- Node25 -->
<g id="node59" class="node"><title>Node25</title>
<a xlink:href="classstxxl_1_1mng__local_1_1add__filler.html" target="_top" xlink:title="Contains per block filler for stxxl::typed_block , not intended for direct use. ">
<polygon fill="none" stroke="black" points="1946,-226 1946,-260 2092,-260 2092,-226 1946,-226"/>
<text text-anchor="start" x="1954" y="-247" font-family="Helvetica,sans-Serif" font-size="10.00">stxxl::mng_local::add</text>
<text text-anchor="middle" x="2019" y="-234" font-family="Helvetica,sans-Serif" font-size="10.00">_filler&lt; BaseType, FillSize &gt;</text>
</a>
</g>
<!-- Node23&#45;&gt;Node25 -->
<g id="edge72" class="edge"><title>Node23&#45;&gt;Node25</title>
<path fill="none" stroke="#9a32cd" stroke-dasharray="5,2" d="M1871.34,-243C1895.01,-243 1921.71,-243 1945.84,-243"/>
<polygon fill="#9a32cd" stroke="#9a32cd" points="1871.05,-239.5 1861.05,-243 1871.05,-246.5 1871.05,-239.5"/>
<text text-anchor="middle" x="1916" y="-247" font-family="Helvetica,sans-Serif" font-size="10.00"> filler</text>
</g>
<!-- Node27 -->
<g id="node64" class="node"><title>Node27</title>
<a xlink:href="classstxxl_1_1mng__local_1_1add__filler.html" target="_top" xlink:title="stxxl::mng_local::add\l_filler\&lt; Type, RawSize\l&#45;sizeof(Type)\&gt;">
<polygon fill="none" stroke="black" points="2257,-272.5 2257,-319.5 2379,-319.5 2379,-272.5 2257,-272.5"/>
<text text-anchor="start" x="2265" y="-306.5" font-family="Helvetica,sans-Serif" font-size="10.00">stxxl::mng_local::add</text>
<text text-anchor="start" x="2265" y="-293.5" font-family="Helvetica,sans-Serif" font-size="10.00">_filler&lt; Type, RawSize</text>
<text text-anchor="middle" x="2318" y="-280.5" font-family="Helvetica,sans-Serif" font-size="10.00">&#45;sizeof(Type)&gt;</text>
</a>
</g>
<!-- Node23&#45;&gt;Node27 -->
<g id="edge78" class="edge"><title>Node23&#45;&gt;Node27</title>
<path fill="none" stroke="#9a32cd" stroke-dasharray="5,2" d="M1871.05,-256.727C1894.66,-261.175 1921.43,-265.785 1946,-269 2054.99,-283.26 2183,-290.48 2256.89,-293.727"/>
<polygon fill="#9a32cd" stroke="#9a32cd" points="1871.62,-253.273 1861.14,-254.835 1870.3,-260.149 1871.62,-253.273"/>
<text text-anchor="middle" x="2019" y="-287" font-family="Helvetica,sans-Serif" font-size="10.00"> filler</text>
</g>
<!-- Node24 -->
<g id="node57" class="node"><title>Node24</title>
<a xlink:href="classstxxl_1_1mng__local_1_1filler__struct.html" target="_top" xlink:title="stxxl::mng_local::filler\l_struct\&lt; Bytes \&gt;">
<polygon fill="none" stroke="black" points="1430,-226 1430,-260 1544,-260 1544,-226 1430,-226"/>
<text text-anchor="start" x="1438" y="-247" font-family="Helvetica,sans-Serif" font-size="10.00">stxxl::mng_local::filler</text>
<text text-anchor="middle" x="1487" y="-234" font-family="Helvetica,sans-Serif" font-size="10.00">_struct&lt; Bytes &gt;</text>
</a>
</g>
<!-- Node24&#45;&gt;Node23 -->
<g id="edge68" class="edge"><title>Node24&#45;&gt;Node23</title>
<path fill="none" stroke="orange" stroke-dasharray="5,2" d="M1554.08,-243C1611.31,-243 1692.71,-243 1746.88,-243"/>
<polygon fill="orange" stroke="orange" points="1554.04,-239.5 1544.04,-243 1554.04,-246.5 1554.04,-239.5"/>
<text text-anchor="middle" x="1645" y="-247" font-family="Helvetica,sans-Serif" font-size="10.00"> &lt; FillSize &gt;</text>
</g>
<!-- Node25&#45;&gt;Node12 -->
<g id="edge70" class="edge"><title>Node25&#45;&gt;Node12</title>
<path fill="none" stroke="orange" stroke-dasharray="5,2" d="M2085.65,-223.128C2130.14,-210.533 2190.13,-194.822 2244,-185 2305.24,-173.833 2374.43,-166.066 2430.29,-160.983"/>
<polygon fill="orange" stroke="orange" points="2084.49,-219.82 2075.83,-225.928 2086.41,-226.551 2084.49,-219.82"/>
<text text-anchor="start" x="2244" y="-254" font-family="Helvetica,sans-Serif" font-size="10.00"> &lt; mng_local::block</text>
<text text-anchor="start" x="2244" y="-241" font-family="Helvetica,sans-Serif" font-size="10.00">_w_info&lt; Type, RawSize,</text>
<text text-anchor="start" x="2244" y="-228" font-family="Helvetica,sans-Serif" font-size="10.00"> NRef, MetaInfoType &gt;,</text>
<text text-anchor="start" x="2244" y="-215" font-family="Helvetica,sans-Serif" font-size="10.00"> RawSize&#45;sizeof(mng_local</text>
<text text-anchor="start" x="2244" y="-202" font-family="Helvetica,sans-Serif" font-size="10.00">::block_w_info&lt; Type, RawSize,</text>
<text text-anchor="middle" x="2318" y="-189" font-family="Helvetica,sans-Serif" font-size="10.00"> NRef, MetaInfoType &gt;)&gt;</text>
</g>
<!-- Node25&#45;&gt;Node27 -->
<g id="edge80" class="edge"><title>Node25&#45;&gt;Node27</title>
<path fill="none" stroke="orange" stroke-dasharray="5,2" d="M2102.29,-241.679C2140.45,-242.737 2185.99,-246.361 2226,-256 2241.58,-259.753 2257.84,-265.975 2272.28,-272.406"/>
<polygon fill="orange" stroke="orange" points="2102.32,-238.179 2092.24,-241.455 2102.16,-245.177 2102.32,-238.179"/>
<text text-anchor="start" x="2111" y="-273" font-family="Helvetica,sans-Serif" font-size="10.00"> &lt; Type, RawSize&#45;sizeof</text>
<text text-anchor="middle" x="2168" y="-260" font-family="Helvetica,sans-Serif" font-size="10.00">(Type)&gt;</text>
</g>
<!-- Node26 -->
<g id="node62" class="node"><title>Node26</title>
<a xlink:href="classstxxl_1_1mng__local_1_1expand__struct.html" target="_top" xlink:title="Helper to compute the size of the filler , not intended for direct use. ">
<polygon fill="none" stroke="black" points="2469.5,-268 2469.5,-302 2606.5,-302 2606.5,-268 2469.5,-268"/>
<text text-anchor="start" x="2477.5" y="-289" font-family="Helvetica,sans-Serif" font-size="10.00">stxxl::mng_local::expand</text>
<text text-anchor="middle" x="2538" y="-276" font-family="Helvetica,sans-Serif" font-size="10.00">_struct&lt; Type, RawSize &gt;</text>
</a>
</g>
<!-- Node26&#45;&gt;Node11 -->
<g id="edge74" class="edge"><title>Node26&#45;&gt;Node11</title>
<path fill="none" stroke="orange" stroke-dasharray="5,2" d="M2616.82,-282.89C2632.45,-282.537 2648.74,-282.216 2664,-282 2709.64,-281.353 2760.61,-281.092 2801.98,-280.998"/>
<polygon fill="orange" stroke="orange" points="2616.57,-279.395 2606.66,-283.125 2616.74,-286.393 2616.57,-279.395"/>
<text text-anchor="start" x="2664.5" y="-325" font-family="Helvetica,sans-Serif" font-size="10.00"> &lt; mng_local::block</text>
<text text-anchor="start" x="2664.5" y="-312" font-family="Helvetica,sans-Serif" font-size="10.00">_w_info&lt; Type, RawSize,</text>
<text text-anchor="start" x="2664.5" y="-299" font-family="Helvetica,sans-Serif" font-size="10.00"> NRef, MetaInfoType &gt;,</text>
<text text-anchor="middle" x="2724" y="-286" font-family="Helvetica,sans-Serif" font-size="10.00"> RawSize &gt;</text>
</g>
<!-- Node27&#45;&gt;Node26 -->
<g id="edge76" class="edge"><title>Node27&#45;&gt;Node26</title>
<path fill="none" stroke="midnightblue" d="M2389.32,-292.434C2414.98,-291.151 2443.87,-289.707 2469.3,-288.435"/>
<polygon fill="midnightblue" stroke="midnightblue" points="2389.09,-288.941 2379.28,-292.936 2389.44,-295.932 2389.09,-288.941"/>
</g>
</g>
</svg>
