<?xml version="1.0" encoding="UTF-8" standalone="no"?>
<!DOCTYPE svg PUBLIC "-//W3C//DTD SVG 1.1//EN"
 "http://www.w3.org/Graphics/SVG/1.1/DTD/svg11.dtd">
<!-- Generated by graphviz version 2.26.3 (20100126.1600)
 -->
<!-- Title: stxxl::request_queue_impl_1q Pages: 1 -->
<svg width="1038pt" height="276pt"
 viewBox="0.00 0.00 1038.00 275.51" xmlns="http://www.w3.org/2000/svg" xmlns:xlink="http://www.w3.org/1999/xlink">
<g id="graph1" class="graph" transform="scale(1 1) rotate(0) translate(4 271.513)">
<title>stxxl::request_queue_impl_1q</title>
<!-- Node1 -->
<g id="node1" class="node"><title>Node1</title>
<polygon fill="#bfbfbf" stroke="black" points="918,-165.333 918,-199.333 1030,-199.333 1030,-165.333 918,-165.333"/>
<text text-anchor="start" x="926" y="-186.333" font-family="Helvetica,sans-Serif" font-size="10.00">stxxl::request_queue</text>
<text text-anchor="middle" x="974" y="-173.333" font-family="Helvetica,sans-Serif" font-size="10.00">_impl_1q</text>
</g>
<!-- Node2 -->
<g id="node2" class="node"><title>Node2</title>
<a xlink:href="classstxxl_1_1request__queue__impl__worker.html" target="_top" xlink:title="Implementation of request queue worker threads. Worker threads can be started by start_thread and sto...">
<polygon fill="none" stroke="black" points="568,-229.333 568,-263.333 680,-263.333 680,-229.333 568,-229.333"/>
<text text-anchor="start" x="576" y="-250.333" font-family="Helvetica,sans-Serif" font-size="10.00">stxxl::request_queue</text>
<text text-anchor="middle" x="624" y="-237.333" font-family="Helvetica,sans-Serif" font-size="10.00">_impl_worker</text>
</a>
</g>
<!-- Node2&#45;&gt;Node1 -->
<g id="edge2" class="edge"><title>Node2&#45;&gt;Node1</title>
<path fill="none" stroke="midnightblue" d="M690.273,-245.592C746.924,-243.495 830.121,-236.917 900,-217.333 915.053,-213.114 930.832,-206.059 943.935,-199.384"/>
<polygon fill="midnightblue" stroke="midnightblue" points="689.891,-242.102 680.013,-245.933 690.124,-249.099 689.891,-242.102"/>
</g>
<!-- Node3 -->
<g id="node4" class="node"><title>Node3</title>
<a xlink:href="classstxxl_1_1request__queue.html" target="_top" xlink:title="Interface of a request_queue to which requests can be added and canceled. ">
<polygon fill="none" stroke="black" points="286,-244.833 286,-265.833 398,-265.833 398,-244.833 286,-244.833"/>
<text text-anchor="middle" x="342" y="-252.833" font-family="Helvetica,sans-Serif" font-size="10.00">stxxl::request_queue</text>
</a>
</g>
<!-- Node3&#45;&gt;Node2 -->
<g id="edge4" class="edge"><title>Node3&#45;&gt;Node2</title>
<path fill="none" stroke="midnightblue" d="M408.121,-253.223C456.55,-251.677 521.581,-249.602 567.573,-248.134"/>
<polygon fill="midnightblue" stroke="midnightblue" points="407.935,-249.727 398.051,-253.544 408.158,-256.723 407.935,-249.727"/>
</g>
<!-- Node4 -->
<g id="node6" class="node"><title>Node4</title>
<a xlink:href="classstxxl_1_1noncopyable.html" target="_top" xlink:title="stxxl::noncopyable">
<polygon fill="none" stroke="black" points="0,-94.8329 0,-115.833 102,-115.833 102,-94.8329 0,-94.8329"/>
<text text-anchor="middle" x="51" y="-102.833" font-family="Helvetica,sans-Serif" font-size="10.00">stxxl::noncopyable</text>
</a>
</g>
<!-- Node4&#45;&gt;Node3 -->
<g id="edge6" class="edge"><title>Node4&#45;&gt;Node3</title>
<path fill="none" stroke="#8b1a1a" d="M55.1655,-125.686C62.5046,-155.782 80.8309,-211.389 120,-237.333 168.84,-269.683 237.623,-270.048 285.64,-264.955"/>
<polygon fill="#8b1a1a" stroke="#8b1a1a" points="58.5615,-124.834 52.9405,-115.854 51.7341,-126.379 58.5615,-124.834"/>
</g>
<!-- Node5 -->
<g id="node8" class="node"><title>Node5</title>
<a xlink:href="classstxxl_1_1mutex.html" target="_top" xlink:title="stxxl::mutex">
<polygon fill="none" stroke="black" points="169,-126.833 169,-147.833 239,-147.833 239,-126.833 169,-126.833"/>
<text text-anchor="middle" x="204" y="-134.833" font-family="Helvetica,sans-Serif" font-size="10.00">stxxl::mutex</text>
</a>
</g>
<!-- Node4&#45;&gt;Node5 -->
<g id="edge10" class="edge"><title>Node4&#45;&gt;Node5</title>
<path fill="none" stroke="#8b1a1a" d="M111.476,-117.981C130.812,-122.026 151.579,-126.369 168.529,-129.914"/>
<polygon fill="#8b1a1a" stroke="#8b1a1a" points="112.027,-114.521 101.522,-115.9 110.594,-121.373 112.027,-114.521"/>
</g>
<!-- Node6 -->
<g id="node11" class="node"><title>Node6</title>
<a xlink:href="classstxxl_1_1state.html" target="_top" xlink:title="stxxl::state\&lt; thread\l_state \&gt;">
<polygon fill="none" stroke="black" points="698.5,-29.3329 698.5,-63.3329 803.5,-63.3329 803.5,-29.3329 698.5,-29.3329"/>
<text text-anchor="start" x="706.5" y="-50.3329" font-family="Helvetica,sans-Serif" font-size="10.00">stxxl::state&lt; thread</text>
<text text-anchor="middle" x="751" y="-37.3329" font-family="Helvetica,sans-Serif" font-size="10.00">_state &gt;</text>
</a>
</g>
<!-- Node4&#45;&gt;Node6 -->
<g id="edge14" class="edge"><title>Node4&#45;&gt;Node6</title>
<path fill="none" stroke="#8b1a1a" d="M61.0554,-85.6287C74.9566,-60.8354 102.625,-19.4327 140,-2.33293 149.404,1.96944 351.427,-0.458907 550,-5.33293 607.803,-6.75171 624.033,4.1879 680,-10.3329 695.384,-14.3243 711.274,-21.9944 724.111,-29.2327"/>
<polygon fill="#8b1a1a" stroke="#8b1a1a" points="57.9221,-84.0652 56.2568,-94.5284 64.0835,-87.3874 57.9221,-84.0652"/>
</g>
<!-- Node7 -->
<g id="node15" class="node"><title>Node7</title>
<a xlink:href="classstxxl_1_1condition__variable.html" target="_top" xlink:title="stxxl::condition_variable">
<polygon fill="none" stroke="black" points="140,-35.8329 140,-56.8329 268,-56.8329 268,-35.8329 140,-35.8329"/>
<text text-anchor="middle" x="204" y="-43.8329" font-family="Helvetica,sans-Serif" font-size="10.00">stxxl::condition_variable</text>
</a>
</g>
<!-- Node4&#45;&gt;Node7 -->
<g id="edge20" class="edge"><title>Node4&#45;&gt;Node7</title>
<path fill="none" stroke="#8b1a1a" d="M87.9614,-91.0799C115.286,-80.5427 151.893,-66.4265 176.626,-56.8889"/>
<polygon fill="#8b1a1a" stroke="#8b1a1a" points="86.4243,-87.9213 78.3533,-94.7849 88.943,-94.4525 86.4243,-87.9213"/>
</g>
<!-- Node8 -->
<g id="node18" class="node"><title>Node8</title>
<a xlink:href="classstxxl_1_1state.html" target="_top" xlink:title="stxxl::state\&lt; ValueType \&gt;">
<polygon fill="none" stroke="black" points="416,-35.8329 416,-56.8329 550,-56.8329 550,-35.8329 416,-35.8329"/>
<text text-anchor="middle" x="483" y="-43.8329" font-family="Helvetica,sans-Serif" font-size="10.00">stxxl::state&lt; ValueType &gt;</text>
</a>
</g>
<!-- Node4&#45;&gt;Node8 -->
<g id="edge24" class="edge"><title>Node4&#45;&gt;Node8</title>
<path fill="none" stroke="#8b1a1a" d="M64.9781,-86.6829C80.7418,-67.3654 108.344,-38.3558 140,-26.3329 247.225,14.391 283.93,-20.3482 398,-32.3329 406.627,-33.2393 415.708,-34.4536 424.594,-35.7898"/>
<polygon fill="#8b1a1a" stroke="#8b1a1a" points="62.0372,-84.7601 58.5964,-94.7806 67.5351,-89.0929 62.0372,-84.7601"/>
</g>
<!-- Node9 -->
<g id="node23" class="node"><title>Node9</title>
<a xlink:href="classstxxl_1_1semaphore.html" target="_top" xlink:title="stxxl::semaphore">
<polygon fill="none" stroke="black" points="435.5,-153.833 435.5,-174.833 530.5,-174.833 530.5,-153.833 435.5,-153.833"/>
<text text-anchor="middle" x="483" y="-161.833" font-family="Helvetica,sans-Serif" font-size="10.00">stxxl::semaphore</text>
</a>
</g>
<!-- Node4&#45;&gt;Node9 -->
<g id="edge32" class="edge"><title>Node4&#45;&gt;Node9</title>
<path fill="none" stroke="#8b1a1a" d="M73.1955,-121.817C90.4829,-133.755 115.572,-149.174 140,-157.333 240.841,-191.013 367.815,-181.128 435.453,-172.057"/>
<polygon fill="#8b1a1a" stroke="#8b1a1a" points="75.0945,-118.873 64.9113,-115.948 71.0481,-124.585 75.0945,-118.873"/>
</g>
<!-- Node5&#45;&gt;Node1 -->
<g id="edge8" class="edge"><title>Node5&#45;&gt;Node1</title>
<path fill="none" stroke="#9a32cd" stroke-dasharray="5,2" d="M231.565,-152.675C247.077,-160.555 267.079,-169.495 286,-174.333 342.142,-188.688 358.116,-181.596 416,-184.333 630.882,-194.494 685.117,-199.474 900,-189.333 905.801,-189.059 911.848,-188.665 917.877,-188.202"/>
<polygon fill="#9a32cd" stroke="#9a32cd" points="233.02,-149.486 222.537,-147.952 229.775,-155.689 233.02,-149.486"/>
<text text-anchor="middle" x="624" y="-198.333" font-family="Helvetica,sans-Serif" font-size="10.00"> m_queue_mutex</text>
</g>
<!-- Node5&#45;&gt;Node6 -->
<g id="edge16" class="edge"><title>Node5&#45;&gt;Node6</title>
<path fill="none" stroke="#9a32cd" stroke-dasharray="5,2" d="M249.294,-135.828C288.731,-134.097 347.36,-130.513 398,-123.333 524.87,-105.345 555.015,-91.5874 680,-63.3329 685.934,-61.9914 692.139,-60.5553 698.305,-59.1073"/>
<polygon fill="#9a32cd" stroke="#9a32cd" points="249.046,-132.335 239.201,-136.248 249.338,-139.329 249.046,-132.335"/>
<text text-anchor="middle" x="483" y="-124.333" font-family="Helvetica,sans-Serif" font-size="10.00"> m_mutex</text>
</g>
<!-- Node5&#45;&gt;Node8 -->
<g id="edge26" class="edge"><title>Node5&#45;&gt;Node8</title>
<path fill="none" stroke="#9a32cd" stroke-dasharray="5,2" d="M221.279,-119.704C236.789,-105.027 260.916,-84.8834 286,-74.3329 308.847,-64.7231 367.981,-57.0888 415.541,-52.2349"/>
<polygon fill="#9a32cd" stroke="#9a32cd" points="218.715,-117.316 213.995,-126.802 223.6,-122.33 218.715,-117.316"/>
<text text-anchor="middle" x="342" y="-78.3329" font-family="Helvetica,sans-Serif" font-size="10.00"> m_mutex</text>
</g>
<!-- Node5&#45;&gt;Node9 -->
<g id="edge34" class="edge"><title>Node5&#45;&gt;Node9</title>
<path fill="none" stroke="#9a32cd" stroke-dasharray="5,2" d="M249.263,-143.836C261.196,-145.432 274.071,-147.049 286,-148.333 336.834,-153.803 395.23,-158.326 435.165,-161.151"/>
<polygon fill="#9a32cd" stroke="#9a32cd" points="249.447,-140.329 239.066,-142.447 248.502,-147.265 249.447,-140.329"/>
<text text-anchor="middle" x="342" y="-161.333" font-family="Helvetica,sans-Serif" font-size="10.00"> m_mutex</text>
</g>
<!-- Node6&#45;&gt;Node1 -->
<g id="edge12" class="edge"><title>Node6&#45;&gt;Node1</title>
<path fill="none" stroke="#9a32cd" stroke-dasharray="5,2" d="M789.201,-68.7616C819.405,-86.5885 862.569,-112.273 900,-135.333 915.809,-145.072 933.356,-156.203 947.394,-165.187"/>
<polygon fill="#9a32cd" stroke="#9a32cd" points="790.656,-65.5566 780.264,-63.493 787.101,-71.5867 790.656,-65.5566"/>
<text text-anchor="middle" x="861" y="-139.333" font-family="Helvetica,sans-Serif" font-size="10.00"> m_thread_state</text>
</g>
<!-- Node7&#45;&gt;Node6 -->
<g id="edge18" class="edge"><title>Node7&#45;&gt;Node6</title>
<path fill="none" stroke="#9a32cd" stroke-dasharray="5,2" d="M274.875,-34.1234C278.636,-33.5095 282.363,-32.9092 286,-32.3329 402.188,-13.9265 432.752,-3.77212 550,-13.3329 600.754,-17.4716 658.008,-27.3957 698.39,-35.2871"/>
<polygon fill="#9a32cd" stroke="#9a32cd" points="274.17,-30.6923 264.873,-35.7731 275.309,-37.599 274.17,-30.6923"/>
<text text-anchor="middle" x="483" y="-17.3329" font-family="Helvetica,sans-Serif" font-size="10.00"> m_cond</text>
</g>
<!-- Node7&#45;&gt;Node8 -->
<g id="edge28" class="edge"><title>Node7&#45;&gt;Node8</title>
<path fill="none" stroke="#9a32cd" stroke-dasharray="5,2" d="M278.393,-38.7568C280.958,-38.597 283.5,-38.4546 286,-38.3329 335.719,-35.9134 348.277,-35.9982 398,-38.3329 403.774,-38.6041 409.762,-38.9782 415.764,-39.4178"/>
<polygon fill="#9a32cd" stroke="#9a32cd" points="278.147,-35.2653 268.415,-39.4518 278.634,-42.2484 278.147,-35.2653"/>
<text text-anchor="middle" x="342" y="-42.3329" font-family="Helvetica,sans-Serif" font-size="10.00"> m_cond</text>
</g>
<!-- Node7&#45;&gt;Node9 -->
<g id="edge36" class="edge"><title>Node7&#45;&gt;Node9</title>
<path fill="none" stroke="#9a32cd" stroke-dasharray="5,2" d="M233.086,-61.6696C248.627,-69.6617 268.18,-79.3965 286,-87.3329 334.855,-109.091 348.663,-110.69 398,-131.333 406.076,-134.712 407.895,-136.023 416,-139.333 428.184,-144.308 441.765,-149.449 453.497,-153.766"/>
<polygon fill="#9a32cd" stroke="#9a32cd" points="234.468,-58.4438 223.979,-56.9503 231.248,-64.6589 234.468,-58.4438"/>
<text text-anchor="middle" x="342" y="-135.333" font-family="Helvetica,sans-Serif" font-size="10.00"> m_cond</text>
</g>
<!-- Node8&#45;&gt;Node6 -->
<g id="edge22" class="edge"><title>Node8&#45;&gt;Node6</title>
<path fill="none" stroke="orange" stroke-dasharray="5,2" d="M560.44,-46.3329C604.745,-46.3329 659.155,-46.3329 698.476,-46.3329"/>
<polygon fill="orange" stroke="orange" points="560.282,-42.833 550.282,-46.3329 560.282,-49.833 560.282,-42.833"/>
<text text-anchor="middle" x="624" y="-50.3329" font-family="Helvetica,sans-Serif" font-size="10.00"> &lt; thread_state &gt;</text>
</g>
<!-- Node9&#45;&gt;Node1 -->
<g id="edge30" class="edge"><title>Node9&#45;&gt;Node1</title>
<path fill="none" stroke="#9a32cd" stroke-dasharray="5,2" d="M540.523,-166.442C635.469,-169.922 823.815,-176.827 917.851,-180.275"/>
<polygon fill="#9a32cd" stroke="#9a32cd" points="540.647,-162.944 530.525,-166.075 540.39,-169.939 540.647,-162.944"/>
<text text-anchor="middle" x="751" y="-179.333" font-family="Helvetica,sans-Serif" font-size="10.00"> m_sem</text>
</g>
</g>
</svg>
