<?xml version="1.0" encoding="UTF-8" standalone="no"?>
<!DOCTYPE svg PUBLIC "-//W3C//DTD SVG 1.1//EN"
 "http://www.w3.org/Graphics/SVG/1.1/DTD/svg11.dtd">
<!-- Generated by graphviz version 2.26.3 (20100126.1600)
 -->
<!-- Title: stxxl::stream::runs_creator&lt; from_sorted_sequences&lt; ValueType &gt;, CompareType, BlockSize, AllocStr &gt; Pages: 1 -->
<svg width="3638pt" height="465pt"
 viewBox="0.00 0.00 3638.00 465.00" xmlns="http://www.w3.org/2000/svg" xmlns:xlink="http://www.w3.org/1999/xlink">
<g id="graph1" class="graph" transform="scale(1 1) rotate(0) translate(4 461)">
<title>stxxl::stream::runs_creator&lt; from_sorted_sequences&lt; ValueType &gt;, CompareType, BlockSize, AllocStr &gt;</title>
<!-- Node1 -->
<g id="node1" class="node"><title>Node1</title>
<polygon fill="#bfbfbf" stroke="black" points="3478,-106.5 3478,-179.5 3630,-179.5 3630,-106.5 3478,-106.5"/>
<text text-anchor="start" x="3486" y="-166.5" font-family="Helvetica,sans-Serif" font-size="10.00">stxxl::stream::runs</text>
<text text-anchor="start" x="3486" y="-153.5" font-family="Helvetica,sans-Serif" font-size="10.00">_creator&lt; from_sorted</text>
<text text-anchor="start" x="3486" y="-140.5" font-family="Helvetica,sans-Serif" font-size="10.00">_sequences&lt; ValueType</text>
<text text-anchor="start" x="3486" y="-127.5" font-family="Helvetica,sans-Serif" font-size="10.00"> &gt;, CompareType, BlockSize,</text>
<text text-anchor="middle" x="3554" y="-114.5" font-family="Helvetica,sans-Serif" font-size="10.00"> AllocStr &gt;</text>
</g>
<!-- Node2 -->
<g id="node2" class="node"><title>Node2</title>
<a xlink:href="classstxxl_1_1noncopyable.html" target="_top" xlink:title="stxxl::noncopyable">
<polygon fill="none" stroke="black" points="12,-82.5 12,-103.5 114,-103.5 114,-82.5 12,-82.5"/>
<text text-anchor="middle" x="63" y="-90.5" font-family="Helvetica,sans-Serif" font-size="10.00">stxxl::noncopyable</text>
</a>
</g>
<!-- Node2&#45;&gt;Node1 -->
<g id="edge2" class="edge"><title>Node2&#45;&gt;Node1</title>
<path fill="none" stroke="#8b1a1a" d="M85.0116,-76.2918C100.706,-65.1115 122.716,-50.8728 144,-42 220.224,-10.2245 242.418,-7.10543e-15 325,-0 325,-0 325,-0 3354,-0 3426.99,-0 3491.71,-63.8041 3526.64,-106.174"/>
<polygon fill="#8b1a1a" stroke="#8b1a1a" points="82.5727,-73.7384 76.5538,-82.4575 86.6963,-79.3949 82.5727,-73.7384"/>
</g>
<!-- Node14 -->
<g id="node26" class="node"><title>Node14</title>
<a xlink:href="classstxxl_1_1file.html" target="_top" xlink:title="Defines interface of file. ">
<polygon fill="none" stroke="black" points="778,-101.5 778,-122.5 834,-122.5 834,-101.5 778,-101.5"/>
<text text-anchor="middle" x="806" y="-109.5" font-family="Helvetica,sans-Serif" font-size="10.00">stxxl::file</text>
</a>
</g>
<!-- Node2&#45;&gt;Node14 -->
<g id="edge28" class="edge"><title>Node2&#45;&gt;Node14</title>
<path fill="none" stroke="#8b1a1a" d="M124.194,-94.5648C276.674,-98.4641 669.073,-108.499 777.737,-111.277"/>
<polygon fill="#8b1a1a" stroke="#8b1a1a" points="124.156,-91.0628 114.069,-94.3059 123.977,-98.0605 124.156,-91.0628"/>
</g>
<!-- Node16 -->
<g id="node31" class="node"><title>Node16</title>
<a xlink:href="classstxxl_1_1mutex.html" target="_top" xlink:title="stxxl::mutex">
<polygon fill="none" stroke="black" points="290,-123.5 290,-144.5 360,-144.5 360,-123.5 290,-123.5"/>
<text text-anchor="middle" x="325" y="-131.5" font-family="Helvetica,sans-Serif" font-size="10.00">stxxl::mutex</text>
</a>
</g>
<!-- Node2&#45;&gt;Node16 -->
<g id="edge34" class="edge"><title>Node2&#45;&gt;Node16</title>
<path fill="none" stroke="#8b1a1a" d="M124.615,-103.802C131.156,-104.903 137.713,-105.988 144,-107 194.658,-115.155 253.435,-123.766 289.926,-129.013"/>
<polygon fill="#8b1a1a" stroke="#8b1a1a" points="124.834,-100.289 114.39,-102.066 123.663,-107.19 124.834,-100.289"/>
</g>
<!-- Node25 -->
<g id="node58" class="node"><title>Node25</title>
<a xlink:href="classstxxl_1_1buffered__writer.html" target="_top" xlink:title="stxxl::buffered_writer\l\&lt; stxxl::typed_block \&gt;">
<polygon fill="none" stroke="black" points="3296,-126 3296,-160 3412,-160 3412,-126 3296,-126"/>
<text text-anchor="start" x="3304" y="-147" font-family="Helvetica,sans-Serif" font-size="10.00">stxxl::buffered_writer</text>
<text text-anchor="middle" x="3354" y="-134" font-family="Helvetica,sans-Serif" font-size="10.00">&lt; stxxl::typed_block &gt;</text>
</a>
</g>
<!-- Node2&#45;&gt;Node25 -->
<g id="edge70" class="edge"><title>Node2&#45;&gt;Node25</title>
<path fill="none" stroke="#8b1a1a" d="M102.849,-79.2631C153.74,-62.9724 244.826,-38 325,-38 325,-38 325,-38 2922,-38 3069.03,-38 3236.46,-96.1433 3312.51,-125.896"/>
<polygon fill="#8b1a1a" stroke="#8b1a1a" points="101.649,-75.973 93.2223,-82.3954 103.815,-82.6295 101.649,-75.973"/>
</g>
<!-- Node26 -->
<g id="node63" class="node"><title>Node26</title>
<a xlink:href="classstxxl_1_1buffered__writer.html" target="_top" xlink:title="Encapsulates asynchronous buffered block writing engine. ">
<polygon fill="none" stroke="black" points="2995.5,-153 2995.5,-187 3108.5,-187 3108.5,-153 2995.5,-153"/>
<text text-anchor="start" x="3003.5" y="-174" font-family="Helvetica,sans-Serif" font-size="10.00">stxxl::buffered_writer</text>
<text text-anchor="middle" x="3052" y="-161" font-family="Helvetica,sans-Serif" font-size="10.00">&lt; BlockType &gt;</text>
</a>
</g>
<!-- Node2&#45;&gt;Node26 -->
<g id="edge78" class="edge"><title>Node2&#45;&gt;Node26</title>
<path fill="none" stroke="#8b1a1a" d="M71.0969,-113.336C97.4096,-175.691 186.868,-360 325,-360 325,-360 325,-360 2428,-360 2618.63,-360 2683.41,-412.946 2856,-332 2932.26,-296.232 2918.15,-243.081 2988,-196 2992.87,-192.715 2998.23,-189.736 3003.69,-187.064"/>
<polygon fill="#8b1a1a" stroke="#8b1a1a" points="74.2127,-111.71 67.1671,-103.797 67.7405,-114.377 74.2127,-111.71"/>
</g>
<!-- Node3 -->
<g id="node4" class="node"><title>Node3</title>
<a xlink:href="classstxxl_1_1counting__ptr.html" target="_top" xlink:title="stxxl::counting_ptr\l\&lt; sorted_runs_data_type \&gt;">
<polygon fill="none" stroke="black" points="3134,-15 3134,-49 3278,-49 3278,-15 3134,-15"/>
<text text-anchor="start" x="3142" y="-36" font-family="Helvetica,sans-Serif" font-size="10.00">stxxl::counting_ptr</text>
<text text-anchor="middle" x="3206" y="-23" font-family="Helvetica,sans-Serif" font-size="10.00">&lt; sorted_runs_data_type &gt;</text>
</a>
</g>
<!-- Node3&#45;&gt;Node1 -->
<g id="edge4" class="edge"><title>Node3&#45;&gt;Node1</title>
<path fill="none" stroke="#9a32cd" stroke-dasharray="5,2" d="M3274.8,-52.0164C3275.88,-52.3454 3276.94,-52.6735 3278,-53 3345.78,-73.93 3422.46,-99.0508 3477.76,-117.427"/>
<polygon fill="#9a32cd" stroke="#9a32cd" points="3275.57,-48.5919 3264.98,-49.0403 3273.54,-55.2909 3275.57,-48.5919"/>
<text text-anchor="middle" x="3354" y="-98" font-family="Helvetica,sans-Serif" font-size="10.00"> result_</text>
</g>
<!-- Node4 -->
<g id="node6" class="node"><title>Node4</title>
<a xlink:href="classstxxl_1_1counting__ptr.html" target="_top" xlink:title="High&#45;performance smart pointer used as a wrapping reference counting pointer. ">
<polygon fill="none" stroke="black" points="2723.5,-105 2723.5,-139 2824.5,-139 2824.5,-105 2723.5,-105"/>
<text text-anchor="start" x="2731.5" y="-126" font-family="Helvetica,sans-Serif" font-size="10.00">stxxl::counting_ptr</text>
<text text-anchor="middle" x="2774" y="-113" font-family="Helvetica,sans-Serif" font-size="10.00">&lt; Type &gt;</text>
</a>
</g>
<!-- Node4&#45;&gt;Node3 -->
<g id="edge6" class="edge"><title>Node4&#45;&gt;Node3</title>
<path fill="none" stroke="orange" stroke-dasharray="5,2" d="M2820.3,-100.889C2836.95,-93.9969 2856.05,-86.8715 2874,-82 2961.76,-58.1851 3065.84,-44.8277 3133.77,-38.0261"/>
<polygon fill="orange" stroke="orange" points="2818.66,-97.7831 2810.81,-104.901 2821.39,-104.23 2818.66,-97.7831"/>
<text text-anchor="start" x="2874" y="-99" font-family="Helvetica,sans-Serif" font-size="10.00"> &lt; sorted_runs_data</text>
<text text-anchor="middle" x="2922" y="-86" font-family="Helvetica,sans-Serif" font-size="10.00">_type &gt;</text>
</g>
<!-- Node4&#45;&gt;Node25 -->
<g id="edge72" class="edge"><title>Node4&#45;&gt;Node25</title>
<path fill="none" stroke="#9a32cd" stroke-dasharray="5,2" d="M2834.88,-123.16C2903.28,-124.566 3017.63,-127.226 3116,-131 3177.39,-133.355 3247.64,-137.016 3295.82,-139.675"/>
<polygon fill="#9a32cd" stroke="#9a32cd" points="2834.78,-119.658 2824.71,-122.953 2834.64,-126.656 2834.78,-119.658"/>
<text text-anchor="middle" x="3052" y="-135" font-family="Helvetica,sans-Serif" font-size="10.00"> write_reqs</text>
</g>
<!-- Node4&#45;&gt;Node26 -->
<g id="edge80" class="edge"><title>Node4&#45;&gt;Node26</title>
<path fill="none" stroke="#9a32cd" stroke-dasharray="5,2" d="M2834.58,-132.46C2882.43,-140.721 2948.7,-152.164 2995.46,-160.238"/>
<polygon fill="#9a32cd" stroke="#9a32cd" points="2835.12,-129.001 2824.67,-130.748 2833.92,-135.899 2835.12,-129.001"/>
<text text-anchor="middle" x="2922" y="-159" font-family="Helvetica,sans-Serif" font-size="10.00"> write_reqs</text>
</g>
<!-- Node5 -->
<g id="node8" class="node"><title>Node5</title>
<a xlink:href="structstxxl_1_1choose__int__types.html" target="_top" xlink:title="stxxl::choose_int_types\l\&lt; my_pointer_size \&gt;">
<polygon fill="none" stroke="black" points="262.5,-388 262.5,-422 387.5,-422 387.5,-388 262.5,-388"/>
<text text-anchor="start" x="270.5" y="-409" font-family="Helvetica,sans-Serif" font-size="10.00">stxxl::choose_int_types</text>
<text text-anchor="middle" x="325" y="-396" font-family="Helvetica,sans-Serif" font-size="10.00">&lt; my_pointer_size &gt;</text>
</a>
</g>
<!-- Node5&#45;&gt;Node1 -->
<g id="edge8" class="edge"><title>Node5&#45;&gt;Node1</title>
<path fill="none" stroke="#9a32cd" stroke-dasharray="5,2" d="M397.873,-405C455.884,-405 539.144,-405 612,-405 612,-405 612,-405 3354,-405 3466.02,-405 3523.66,-251.812 3544.59,-179.706"/>
<polygon fill="#9a32cd" stroke="#9a32cd" points="397.705,-401.5 387.705,-405 397.705,-408.5 397.705,-401.5"/>
<text text-anchor="middle" x="1804" y="-448" font-family="Helvetica,sans-Serif" font-size="10.00"> irun</text>
<text text-anchor="middle" x="1804" y="-435" font-family="Helvetica,sans-Serif" font-size="10.00">offset</text>
<text text-anchor="middle" x="1804" y="-422" font-family="Helvetica,sans-Serif" font-size="10.00">m_</text>
<text text-anchor="middle" x="1804" y="-409" font-family="Helvetica,sans-Serif" font-size="10.00">iblock</text>
</g>
<!-- Node15 -->
<g id="node29" class="node"><title>Node15</title>
<a xlink:href="classstxxl_1_1atomic__counted__object.html" target="_top" xlink:title="Provides reference counting abilities for use with counting_ptr with mutex locking. ">
<polygon fill="none" stroke="black" points="554,-121 554,-155 670,-155 670,-121 554,-121"/>
<text text-anchor="start" x="562" y="-142" font-family="Helvetica,sans-Serif" font-size="10.00">stxxl::atomic_counted</text>
<text text-anchor="middle" x="612" y="-129" font-family="Helvetica,sans-Serif" font-size="10.00">_object</text>
</a>
</g>
<!-- Node5&#45;&gt;Node15 -->
<g id="edge36" class="edge"><title>Node5&#45;&gt;Node15</title>
<path fill="none" stroke="#9a32cd" stroke-dasharray="5,2" d="M350.915,-380.891C408.059,-327.729 543.748,-201.496 593.392,-155.311"/>
<polygon fill="#9a32cd" stroke="#9a32cd" points="348.327,-378.518 343.39,-387.892 353.095,-383.643 348.327,-378.518"/>
<text text-anchor="middle" x="471" y="-330" font-family="Helvetica,sans-Serif" font-size="10.00"> m_reference_count</text>
</g>
<!-- Node6 -->
<g id="node10" class="node"><title>Node6</title>
<a xlink:href="structstxxl_1_1choose__int__types.html" target="_top" xlink:title="stxxl::choose_int_types\l\&lt; PtrSize \&gt;">
<polygon fill="none" stroke="black" points="0.5,-388 0.5,-422 125.5,-422 125.5,-388 0.5,-388"/>
<text text-anchor="start" x="8.5" y="-409" font-family="Helvetica,sans-Serif" font-size="10.00">stxxl::choose_int_types</text>
<text text-anchor="middle" x="63" y="-396" font-family="Helvetica,sans-Serif" font-size="10.00">&lt; PtrSize &gt;</text>
</a>
</g>
<!-- Node6&#45;&gt;Node5 -->
<g id="edge10" class="edge"><title>Node6&#45;&gt;Node5</title>
<path fill="none" stroke="orange" stroke-dasharray="5,2" d="M135.913,-405C175.636,-405 224.295,-405 262.303,-405"/>
<polygon fill="orange" stroke="orange" points="135.756,-401.5 125.756,-405 135.755,-408.5 135.756,-401.5"/>
<text text-anchor="middle" x="194" y="-409" font-family="Helvetica,sans-Serif" font-size="10.00"> &lt; my_pointer_size &gt;</text>
</g>
<!-- Node7 -->
<g id="node12" class="node"><title>Node7</title>
<a xlink:href="classstxxl_1_1typed__block.html" target="_top" xlink:title="Block containing elements of fixed length. ">
<polygon fill="none" stroke="black" points="2988,-205.5 2988,-252.5 3116,-252.5 3116,-205.5 2988,-205.5"/>
<text text-anchor="start" x="2996" y="-239.5" font-family="Helvetica,sans-Serif" font-size="10.00">stxxl::typed_block</text>
<text text-anchor="start" x="2996" y="-226.5" font-family="Helvetica,sans-Serif" font-size="10.00">&lt; RawSize, Type, NRef,</text>
<text text-anchor="middle" x="3052" y="-213.5" font-family="Helvetica,sans-Serif" font-size="10.00"> MetaInfoType &gt;</text>
</a>
</g>
<!-- Node7&#45;&gt;Node1 -->
<g id="edge12" class="edge"><title>Node7&#45;&gt;Node1</title>
<path fill="none" stroke="#9a32cd" stroke-dasharray="5,2" d="M3126.23,-225.65C3170.5,-222.935 3227.7,-218.169 3278,-210 3346.38,-198.894 3422.84,-179.797 3477.91,-164.826"/>
<polygon fill="#9a32cd" stroke="#9a32cd" points="3125.9,-222.163 3116.13,-226.248 3126.32,-229.151 3125.9,-222.163"/>
<text text-anchor="middle" x="3354" y="-210" font-family="Helvetica,sans-Serif" font-size="10.00"> cur_block</text>
</g>
<!-- Node7&#45;&gt;Node25 -->
<g id="edge74" class="edge"><title>Node7&#45;&gt;Node25</title>
<path fill="none" stroke="#9a32cd" stroke-dasharray="5,2" d="M3117.73,-201.993C3123.19,-200.166 3128.66,-198.47 3134,-197 3196.56,-179.781 3215.48,-190.341 3278,-173 3290.44,-169.55 3303.64,-164.762 3315.48,-160.023"/>
<polygon fill="#9a32cd" stroke="#9a32cd" points="3116.23,-198.807 3107.94,-205.405 3118.54,-205.416 3116.23,-198.807"/>
<text text-anchor="middle" x="3206" y="-201" font-family="Helvetica,sans-Serif" font-size="10.00"> write_buffers</text>
</g>
<!-- Node8 -->
<g id="node14" class="node"><title>Node8</title>
<a xlink:href="classstxxl_1_1mng__local_1_1expand__struct.html" target="_top" xlink:title="stxxl::mng_local::expand\l_struct\&lt; mng_local::block\l_w_info\&lt; Type, RawSize, NRef,\l MetaInfoType \&gt;, RawSize \&gt;">
<polygon fill="none" stroke="black" points="2692,-263 2692,-323 2856,-323 2856,-263 2692,-263"/>
<text text-anchor="start" x="2700" y="-310" font-family="Helvetica,sans-Serif" font-size="10.00">stxxl::mng_local::expand</text>
<text text-anchor="start" x="2700" y="-297" font-family="Helvetica,sans-Serif" font-size="10.00">_struct&lt; mng_local::block</text>
<text text-anchor="start" x="2700" y="-284" font-family="Helvetica,sans-Serif" font-size="10.00">_w_info&lt; Type, RawSize, NRef,</text>
<text text-anchor="middle" x="2774" y="-271" font-family="Helvetica,sans-Serif" font-size="10.00"> MetaInfoType &gt;, RawSize &gt;</text>
</a>
</g>
<!-- Node8&#45;&gt;Node7 -->
<g id="edge14" class="edge"><title>Node8&#45;&gt;Node7</title>
<path fill="none" stroke="midnightblue" d="M2866.26,-271.761C2906.02,-262.608 2951.55,-252.125 2987.58,-243.83"/>
<polygon fill="midnightblue" stroke="midnightblue" points="2865.24,-268.403 2856.28,-274.058 2866.81,-275.225 2865.24,-268.403"/>
</g>
<!-- Node9 -->
<g id="node16" class="node"><title>Node9</title>
<a xlink:href="classstxxl_1_1mng__local_1_1add__filler.html" target="_top" xlink:title="stxxl::mng_local::add\l_filler\&lt; mng_local::block\l_w_info\&lt; Type, RawSize,\l NRef, MetaInfoType \&gt;, RawSize\l&#45;sizeof(mng_local::block_w_info\l\&lt; Type, RawSize, NRef, MetaInfoType \&gt;)\&gt;">
<polygon fill="none" stroke="black" points="2320.5,-122 2320.5,-208 2535.5,-208 2535.5,-122 2320.5,-122"/>
<text text-anchor="start" x="2328.5" y="-195" font-family="Helvetica,sans-Serif" font-size="10.00">stxxl::mng_local::add</text>
<text text-anchor="start" x="2328.5" y="-182" font-family="Helvetica,sans-Serif" font-size="10.00">_filler&lt; mng_local::block</text>
<text text-anchor="start" x="2328.5" y="-169" font-family="Helvetica,sans-Serif" font-size="10.00">_w_info&lt; Type, RawSize,</text>
<text text-anchor="start" x="2328.5" y="-156" font-family="Helvetica,sans-Serif" font-size="10.00"> NRef, MetaInfoType &gt;, RawSize</text>
<text text-anchor="start" x="2328.5" y="-143" font-family="Helvetica,sans-Serif" font-size="10.00">&#45;sizeof(mng_local::block_w_info</text>
<text text-anchor="middle" x="2428" y="-130" font-family="Helvetica,sans-Serif" font-size="10.00">&lt; Type, RawSize, NRef, MetaInfoType &gt;)&gt;</text>
</a>
</g>
<!-- Node9&#45;&gt;Node8 -->
<g id="edge16" class="edge"><title>Node9&#45;&gt;Node8</title>
<path fill="none" stroke="midnightblue" d="M2545.2,-208.357C2593.77,-226.324 2648.9,-246.721 2692.88,-262.99"/>
<polygon fill="midnightblue" stroke="midnightblue" points="2546.17,-204.985 2535.58,-204.798 2543.74,-211.551 2546.17,-204.985"/>
</g>
<!-- Node10 -->
<g id="node18" class="node"><title>Node10</title>
<a xlink:href="classstxxl_1_1mng__local_1_1block__w__info.html" target="_top" xlink:title="stxxl::mng_local::block\l_w_info\&lt; Type, RawSize,\l NRef, MetaInfoType \&gt;">
<polygon fill="none" stroke="black" points="2140.5,-66.5 2140.5,-113.5 2275.5,-113.5 2275.5,-66.5 2140.5,-66.5"/>
<text text-anchor="start" x="2148.5" y="-100.5" font-family="Helvetica,sans-Serif" font-size="10.00">stxxl::mng_local::block</text>
<text text-anchor="start" x="2148.5" y="-87.5" font-family="Helvetica,sans-Serif" font-size="10.00">_w_info&lt; Type, RawSize,</text>
<text text-anchor="middle" x="2208" y="-74.5" font-family="Helvetica,sans-Serif" font-size="10.00"> NRef, MetaInfoType &gt;</text>
</a>
</g>
<!-- Node10&#45;&gt;Node9 -->
<g id="edge18" class="edge"><title>Node10&#45;&gt;Node9</title>
<path fill="none" stroke="midnightblue" d="M2285.27,-116.344C2296.56,-120.19 2308.35,-124.209 2320.1,-128.218"/>
<polygon fill="midnightblue" stroke="midnightblue" points="2286.1,-112.926 2275.5,-113.012 2283.84,-119.552 2286.1,-112.926"/>
</g>
<!-- Node11 -->
<g id="node20" class="node"><title>Node11</title>
<a xlink:href="classstxxl_1_1mng__local_1_1block__w__bids.html" target="_top" xlink:title="stxxl::mng_local::block\l_w_bids\&lt; Type,((RawSize\l&#45;sizeof(BID\&lt; RawSize \&gt;)*NBids\l&#45;sizeof(MetaInfoType))/sizeof\l(Type)), RawSize, NBids \&gt;">
<polygon fill="none" stroke="black" points="1608,-83.5 1608,-156.5 1772,-156.5 1772,-83.5 1608,-83.5"/>
<text text-anchor="start" x="1616" y="-143.5" font-family="Helvetica,sans-Serif" font-size="10.00">stxxl::mng_local::block</text>
<text text-anchor="start" x="1616" y="-130.5" font-family="Helvetica,sans-Serif" font-size="10.00">_w_bids&lt; Type,((RawSize</text>
<text text-anchor="start" x="1616" y="-117.5" font-family="Helvetica,sans-Serif" font-size="10.00">&#45;sizeof(BID&lt; RawSize &gt;)*NBids</text>
<text text-anchor="start" x="1616" y="-104.5" font-family="Helvetica,sans-Serif" font-size="10.00">&#45;sizeof(MetaInfoType))/sizeof</text>
<text text-anchor="middle" x="1690" y="-91.5" font-family="Helvetica,sans-Serif" font-size="10.00">(Type)), RawSize, NBids &gt;</text>
</a>
</g>
<!-- Node11&#45;&gt;Node10 -->
<g id="edge20" class="edge"><title>Node11&#45;&gt;Node10</title>
<path fill="none" stroke="midnightblue" d="M1782.62,-101.904C1800.28,-99.0897 1818.66,-96.5913 1836,-95 1941.97,-85.2755 2065.61,-85.9967 2140.29,-87.7463"/>
<polygon fill="midnightblue" stroke="midnightblue" points="1781.62,-98.5211 1772.32,-103.593 1782.76,-105.429 1781.62,-98.5211"/>
</g>
<!-- Node19 -->
<g id="node42" class="node"><title>Node19</title>
<a xlink:href="classstxxl_1_1mng__local_1_1block__w__info.html" target="_top" xlink:title="Contains per block information for stxxl::typed_block , not intended for direct use. ">
<polygon fill="none" stroke="black" points="1841.5,-104.5 1841.5,-151.5 1976.5,-151.5 1976.5,-104.5 1841.5,-104.5"/>
<text text-anchor="start" x="1849.5" y="-138.5" font-family="Helvetica,sans-Serif" font-size="10.00">stxxl::mng_local::block</text>
<text text-anchor="start" x="1849.5" y="-125.5" font-family="Helvetica,sans-Serif" font-size="10.00">_w_info&lt; Type, RawSize,</text>
<text text-anchor="middle" x="1909" y="-112.5" font-family="Helvetica,sans-Serif" font-size="10.00"> NBids, MetaInfoType &gt;</text>
</a>
</g>
<!-- Node11&#45;&gt;Node19 -->
<g id="edge50" class="edge"><title>Node11&#45;&gt;Node19</title>
<path fill="none" stroke="midnightblue" d="M1782.43,-123.376C1802.21,-124.099 1822.75,-124.849 1841.38,-125.53"/>
<polygon fill="midnightblue" stroke="midnightblue" points="1782.29,-119.869 1772.17,-123.002 1782.04,-126.864 1782.29,-119.869"/>
</g>
<!-- Node12 -->
<g id="node22" class="node"><title>Node12</title>
<a xlink:href="classstxxl_1_1mng__local_1_1element__block.html" target="_top" xlink:title="Contains data elements for stxxl::typed_block , not intended for direct use. ">
<polygon fill="none" stroke="black" points="1108,-164 1108,-198 1240,-198 1240,-164 1108,-164"/>
<text text-anchor="start" x="1116" y="-185" font-family="Helvetica,sans-Serif" font-size="10.00">stxxl::mng_local::element</text>
<text text-anchor="middle" x="1174" y="-172" font-family="Helvetica,sans-Serif" font-size="10.00">_block&lt; Type, Size &gt;</text>
</a>
</g>
<!-- Node12&#45;&gt;Node11 -->
<g id="edge22" class="edge"><title>Node12&#45;&gt;Node11</title>
<path fill="none" stroke="midnightblue" d="M1250.25,-195.316C1335.15,-208.211 1475.5,-220.379 1590,-186 1610.12,-179.958 1629.93,-168.411 1646.54,-156.642"/>
<polygon fill="midnightblue" stroke="midnightblue" points="1250.6,-191.827 1240.18,-193.742 1249.52,-198.744 1250.6,-191.827"/>
</g>
<!-- Node18 -->
<g id="node38" class="node"><title>Node18</title>
<a xlink:href="classstxxl_1_1mng__local_1_1block__w__bids.html" target="_top" xlink:title="Contains BID references for stxxl::typed_block , not intended for direct use. ">
<polygon fill="none" stroke="black" points="1292,-118.5 1292,-165.5 1454,-165.5 1454,-118.5 1292,-118.5"/>
<text text-anchor="start" x="1300" y="-152.5" font-family="Helvetica,sans-Serif" font-size="10.00">stxxl::mng_local::block</text>
<text text-anchor="start" x="1300" y="-139.5" font-family="Helvetica,sans-Serif" font-size="10.00">_w_bids&lt; Type, Size, RawSize,</text>
<text text-anchor="middle" x="1373" y="-126.5" font-family="Helvetica,sans-Serif" font-size="10.00"> NBids &gt;</text>
</a>
</g>
<!-- Node12&#45;&gt;Node18 -->
<g id="edge44" class="edge"><title>Node12&#45;&gt;Node18</title>
<path fill="none" stroke="midnightblue" d="M1250.08,-166.09C1263.73,-163.415 1278,-160.617 1291.79,-157.915"/>
<polygon fill="midnightblue" stroke="midnightblue" points="1249.4,-162.656 1240.26,-168.014 1250.75,-169.525 1249.4,-162.656"/>
</g>
<!-- Node13 -->
<g id="node24" class="node"><title>Node13</title>
<a xlink:href="structstxxl_1_1BID.html" target="_top" xlink:title="stxxl::BID\&lt; raw_size \&gt;">
<polygon fill="none" stroke="black" points="1114.5,-105.5 1114.5,-126.5 1233.5,-126.5 1233.5,-105.5 1114.5,-105.5"/>
<text text-anchor="middle" x="1174" y="-113.5" font-family="Helvetica,sans-Serif" font-size="10.00">stxxl::BID&lt; raw_size &gt;</text>
</a>
</g>
<!-- Node13&#45;&gt;Node11 -->
<g id="edge24" class="edge"><title>Node13&#45;&gt;Node11</title>
<path fill="none" stroke="#9a32cd" stroke-dasharray="5,2" d="M1234.82,-103.685C1253.12,-100.524 1273.31,-97.5729 1292,-96 1401.16,-86.8147 1527.45,-98.1565 1607.98,-108.157"/>
<polygon fill="#9a32cd" stroke="#9a32cd" points="1234.11,-100.258 1224.87,-105.456 1235.33,-107.15 1234.11,-100.258"/>
<text text-anchor="middle" x="1373" y="-100" font-family="Helvetica,sans-Serif" font-size="10.00"> ref</text>
</g>
<!-- Node13&#45;&gt;Node18 -->
<g id="edge46" class="edge"><title>Node13&#45;&gt;Node18</title>
<path fill="none" stroke="#9a32cd" stroke-dasharray="5,2" d="M1243.77,-125.116C1259.35,-127.151 1276,-129.326 1291.99,-131.415"/>
<polygon fill="#9a32cd" stroke="#9a32cd" points="1244.08,-121.626 1233.71,-123.801 1243.17,-128.567 1244.08,-121.626"/>
<text text-anchor="middle" x="1266" y="-133" font-family="Helvetica,sans-Serif" font-size="10.00"> ref</text>
</g>
<!-- Node14&#45;&gt;Node13 -->
<g id="edge26" class="edge"><title>Node14&#45;&gt;Node13</title>
<path fill="none" stroke="#9a32cd" stroke-dasharray="5,2" d="M844.304,-108.347C863.928,-106.655 888.219,-104.836 910,-104 953.523,-102.328 964.473,-102.429 1008,-104 1043.23,-105.272 1082.58,-108.057 1114.12,-110.624"/>
<polygon fill="#9a32cd" stroke="#9a32cd" points="843.868,-104.872 834.216,-109.241 844.486,-111.845 843.868,-104.872"/>
<text text-anchor="middle" x="959" y="-108" font-family="Helvetica,sans-Serif" font-size="10.00"> storage</text>
</g>
<!-- Node17 -->
<g id="node35" class="node"><title>Node17</title>
<a xlink:href="structstxxl_1_1BID.html" target="_top" xlink:title="Block identifier class. ">
<polygon fill="none" stroke="black" points="910,-126.5 910,-147.5 1008,-147.5 1008,-126.5 910,-126.5"/>
<text text-anchor="middle" x="959" y="-134.5" font-family="Helvetica,sans-Serif" font-size="10.00">stxxl::BID&lt; Size &gt;</text>
</a>
</g>
<!-- Node14&#45;&gt;Node17 -->
<g id="edge40" class="edge"><title>Node14&#45;&gt;Node17</title>
<path fill="none" stroke="#9a32cd" stroke-dasharray="5,2" d="M843.987,-118.207C863.862,-121.455 888.431,-125.469 909.751,-128.953"/>
<polygon fill="#9a32cd" stroke="#9a32cd" points="844.496,-114.744 834.063,-116.585 843.367,-121.652 844.496,-114.744"/>
<text text-anchor="middle" x="872" y="-129" font-family="Helvetica,sans-Serif" font-size="10.00"> storage</text>
</g>
<!-- Node15&#45;&gt;Node14 -->
<g id="edge30" class="edge"><title>Node15&#45;&gt;Node14</title>
<path fill="none" stroke="#9a32cd" stroke-dasharray="5,2" d="M680.42,-128.83C713.911,-124.342 752.394,-119.184 777.838,-115.774"/>
<polygon fill="#9a32cd" stroke="#9a32cd" points="679.653,-125.402 670.206,-130.199 680.583,-132.34 679.653,-125.402"/>
<text text-anchor="middle" x="724" y="-131" font-family="Helvetica,sans-Serif" font-size="10.00"> m_request_ref</text>
</g>
<!-- Node16&#45;&gt;Node15 -->
<g id="edge32" class="edge"><title>Node16&#45;&gt;Node15</title>
<path fill="none" stroke="#9a32cd" stroke-dasharray="5,2" d="M370.306,-134.631C419.938,-135.323 499.686,-136.435 553.889,-137.19"/>
<polygon fill="#9a32cd" stroke="#9a32cd" points="370.24,-131.13 360.192,-134.49 370.142,-138.13 370.24,-131.13"/>
<text text-anchor="middle" x="471" y="-140" font-family="Helvetica,sans-Serif" font-size="10.00"> m_reference_count_mutex</text>
</g>
<!-- Node17&#45;&gt;Node13 -->
<g id="edge38" class="edge"><title>Node17&#45;&gt;Node13</title>
<path fill="none" stroke="orange" stroke-dasharray="5,2" d="M1018.36,-131.202C1048.28,-128.279 1084.48,-124.744 1114.43,-121.818"/>
<polygon fill="orange" stroke="orange" points="1017.67,-127.753 1008.06,-132.208 1018.35,-134.72 1017.67,-127.753"/>
<text text-anchor="middle" x="1058" y="-134" font-family="Helvetica,sans-Serif" font-size="10.00"> &lt; raw_size &gt;</text>
</g>
<!-- Node18&#45;&gt;Node11 -->
<g id="edge42" class="edge"><title>Node18&#45;&gt;Node11</title>
<path fill="none" stroke="orange" stroke-dasharray="5,2" d="M1464.24,-121.931C1466.85,-121.586 1469.44,-121.275 1472,-121 1516.78,-116.199 1567.04,-115.645 1608,-116.428"/>
<polygon fill="orange" stroke="orange" points="1463.49,-118.503 1454.1,-123.407 1464.49,-125.43 1463.49,-118.503"/>
<text text-anchor="start" x="1472" y="-177" font-family="Helvetica,sans-Serif" font-size="10.00"> &lt; Type,((RawSize&#45;sizeof</text>
<text text-anchor="start" x="1472" y="-164" font-family="Helvetica,sans-Serif" font-size="10.00">(BID&lt; RawSize &gt;)*NBids</text>
<text text-anchor="start" x="1472" y="-151" font-family="Helvetica,sans-Serif" font-size="10.00">&#45;sizeof(MetaInfoType))</text>
<text text-anchor="start" x="1472" y="-138" font-family="Helvetica,sans-Serif" font-size="10.00">/sizeof(Type)), RawSize,</text>
<text text-anchor="middle" x="1531" y="-125" font-family="Helvetica,sans-Serif" font-size="10.00"> NBids &gt;</text>
</g>
<!-- Node19&#45;&gt;Node10 -->
<g id="edge48" class="edge"><title>Node19&#45;&gt;Node10</title>
<path fill="none" stroke="orange" stroke-dasharray="5,2" d="M1986.51,-114.002C1991.07,-113.293 1995.59,-112.62 2000,-112 2046.75,-105.426 2099.65,-99.8557 2140.41,-95.9647"/>
<polygon fill="orange" stroke="orange" points="1985.82,-110.567 1976.5,-115.6 1986.93,-117.479 1985.82,-110.567"/>
<text text-anchor="start" x="2000.5" y="-129" font-family="Helvetica,sans-Serif" font-size="10.00"> &lt; Type, RawSize, NRef,</text>
<text text-anchor="middle" x="2058" y="-116" font-family="Helvetica,sans-Serif" font-size="10.00"> MetaInfoType &gt;</text>
</g>
<!-- Node20 -->
<g id="node45" class="node"><title>Node20</title>
<a xlink:href="classstxxl_1_1mng__local_1_1filler__struct.html" target="_top" xlink:title="stxxl::mng_local::filler\l_struct\&lt; FillSize \&gt;">
<polygon fill="none" stroke="black" points="1633,-233 1633,-267 1747,-267 1747,-233 1633,-233"/>
<text text-anchor="start" x="1641" y="-254" font-family="Helvetica,sans-Serif" font-size="10.00">stxxl::mng_local::filler</text>
<text text-anchor="middle" x="1690" y="-241" font-family="Helvetica,sans-Serif" font-size="10.00">_struct&lt; FillSize &gt;</text>
</a>
</g>
<!-- Node20&#45;&gt;Node9 -->
<g id="edge52" class="edge"><title>Node20&#45;&gt;Node9</title>
<path fill="none" stroke="#9a32cd" stroke-dasharray="5,2" d="M1757,-232.708C1819.46,-217.26 1915.43,-195.235 2000,-183 2059.11,-174.449 2074.36,-176.035 2134,-173 2195.7,-169.86 2264.76,-167.901 2320.43,-166.708"/>
<polygon fill="#9a32cd" stroke="#9a32cd" points="1756.13,-229.317 1747.27,-235.128 1757.82,-236.11 1756.13,-229.317"/>
<text text-anchor="middle" x="2058" y="-187" font-family="Helvetica,sans-Serif" font-size="10.00"> filler</text>
</g>
<!-- Node22 -->
<g id="node49" class="node"><title>Node22</title>
<a xlink:href="classstxxl_1_1mng__local_1_1add__filler.html" target="_top" xlink:title="Contains per block filler for stxxl::typed_block , not intended for direct use. ">
<polygon fill="none" stroke="black" points="1836,-233 1836,-267 1982,-267 1982,-233 1836,-233"/>
<text text-anchor="start" x="1844" y="-254" font-family="Helvetica,sans-Serif" font-size="10.00">stxxl::mng_local::add</text>
<text text-anchor="middle" x="1909" y="-241" font-family="Helvetica,sans-Serif" font-size="10.00">_filler&lt; BaseType, FillSize &gt;</text>
</a>
</g>
<!-- Node20&#45;&gt;Node22 -->
<g id="edge58" class="edge"><title>Node20&#45;&gt;Node22</title>
<path fill="none" stroke="#9a32cd" stroke-dasharray="5,2" d="M1757.34,-250C1782.24,-250 1810.58,-250 1835.97,-250"/>
<polygon fill="#9a32cd" stroke="#9a32cd" points="1757.25,-246.5 1747.25,-250 1757.25,-253.5 1757.25,-246.5"/>
<text text-anchor="middle" x="1804" y="-254" font-family="Helvetica,sans-Serif" font-size="10.00"> filler</text>
</g>
<!-- Node24 -->
<g id="node54" class="node"><title>Node24</title>
<a xlink:href="classstxxl_1_1mng__local_1_1add__filler.html" target="_top" xlink:title="stxxl::mng_local::add\l_filler\&lt; Type, RawSize\l&#45;sizeof(Type)\&gt;">
<polygon fill="none" stroke="black" points="2147,-284.5 2147,-331.5 2269,-331.5 2269,-284.5 2147,-284.5"/>
<text text-anchor="start" x="2155" y="-318.5" font-family="Helvetica,sans-Serif" font-size="10.00">stxxl::mng_local::add</text>
<text text-anchor="start" x="2155" y="-305.5" font-family="Helvetica,sans-Serif" font-size="10.00">_filler&lt; Type, RawSize</text>
<text text-anchor="middle" x="2208" y="-292.5" font-family="Helvetica,sans-Serif" font-size="10.00">&#45;sizeof(Type)&gt;</text>
</a>
</g>
<!-- Node20&#45;&gt;Node24 -->
<g id="edge64" class="edge"><title>Node20&#45;&gt;Node24</title>
<path fill="none" stroke="#9a32cd" stroke-dasharray="5,2" d="M1757.06,-263C1781.81,-267.517 1810.12,-272.359 1836,-276 1944.96,-291.329 2072.98,-300.399 2146.88,-304.77"/>
<polygon fill="#9a32cd" stroke="#9a32cd" points="1757.52,-259.525 1747.05,-261.155 1756.25,-266.41 1757.52,-259.525"/>
<text text-anchor="middle" x="1909" y="-296" font-family="Helvetica,sans-Serif" font-size="10.00"> filler</text>
</g>
<!-- Node21 -->
<g id="node47" class="node"><title>Node21</title>
<a xlink:href="classstxxl_1_1mng__local_1_1filler__struct.html" target="_top" xlink:title="stxxl::mng_local::filler\l_struct\&lt; Bytes \&gt;">
<polygon fill="none" stroke="black" points="1316,-233 1316,-267 1430,-267 1430,-233 1316,-233"/>
<text text-anchor="start" x="1324" y="-254" font-family="Helvetica,sans-Serif" font-size="10.00">stxxl::mng_local::filler</text>
<text text-anchor="middle" x="1373" y="-241" font-family="Helvetica,sans-Serif" font-size="10.00">_struct&lt; Bytes &gt;</text>
</a>
</g>
<!-- Node21&#45;&gt;Node20 -->
<g id="edge54" class="edge"><title>Node21&#45;&gt;Node20</title>
<path fill="none" stroke="orange" stroke-dasharray="5,2" d="M1440.08,-250C1497.31,-250 1578.71,-250 1632.88,-250"/>
<polygon fill="orange" stroke="orange" points="1440.04,-246.5 1430.04,-250 1440.04,-253.5 1440.04,-246.5"/>
<text text-anchor="middle" x="1531" y="-254" font-family="Helvetica,sans-Serif" font-size="10.00"> &lt; FillSize &gt;</text>
</g>
<!-- Node22&#45;&gt;Node9 -->
<g id="edge56" class="edge"><title>Node22&#45;&gt;Node9</title>
<path fill="none" stroke="orange" stroke-dasharray="5,2" d="M1981.81,-230.451C2025.63,-219.285 2082.7,-205.799 2134,-197 2195.36,-186.475 2264.55,-178.742 2320.38,-173.516"/>
<polygon fill="orange" stroke="orange" points="1980.91,-227.067 1972.1,-232.942 1982.65,-233.847 1980.91,-227.067"/>
<text text-anchor="start" x="2134" y="-266" font-family="Helvetica,sans-Serif" font-size="10.00"> &lt; mng_local::block</text>
<text text-anchor="start" x="2134" y="-253" font-family="Helvetica,sans-Serif" font-size="10.00">_w_info&lt; Type, RawSize,</text>
<text text-anchor="start" x="2134" y="-240" font-family="Helvetica,sans-Serif" font-size="10.00"> NRef, MetaInfoType &gt;,</text>
<text text-anchor="start" x="2134" y="-227" font-family="Helvetica,sans-Serif" font-size="10.00"> RawSize&#45;sizeof(mng_local</text>
<text text-anchor="start" x="2134" y="-214" font-family="Helvetica,sans-Serif" font-size="10.00">::block_w_info&lt; Type, RawSize,</text>
<text text-anchor="middle" x="2208" y="-201" font-family="Helvetica,sans-Serif" font-size="10.00"> NRef, MetaInfoType &gt;)&gt;</text>
</g>
<!-- Node22&#45;&gt;Node24 -->
<g id="edge66" class="edge"><title>Node22&#45;&gt;Node24</title>
<path fill="none" stroke="orange" stroke-dasharray="5,2" d="M1992.37,-250.466C2030.54,-252.298 2076.08,-256.781 2116,-267 2131.92,-271.076 2148.56,-277.687 2163.23,-284.421"/>
<polygon fill="orange" stroke="orange" points="1992.46,-246.967 1982.32,-250.037 1992.16,-253.961 1992.46,-246.967"/>
<text text-anchor="start" x="2001" y="-284" font-family="Helvetica,sans-Serif" font-size="10.00"> &lt; Type, RawSize&#45;sizeof</text>
<text text-anchor="middle" x="2058" y="-271" font-family="Helvetica,sans-Serif" font-size="10.00">(Type)&gt;</text>
</g>
<!-- Node23 -->
<g id="node52" class="node"><title>Node23</title>
<a xlink:href="classstxxl_1_1mng__local_1_1expand__struct.html" target="_top" xlink:title="Helper to compute the size of the filler , not intended for direct use. ">
<polygon fill="none" stroke="black" points="2359.5,-280 2359.5,-314 2496.5,-314 2496.5,-280 2359.5,-280"/>
<text text-anchor="start" x="2367.5" y="-301" font-family="Helvetica,sans-Serif" font-size="10.00">stxxl::mng_local::expand</text>
<text text-anchor="middle" x="2428" y="-288" font-family="Helvetica,sans-Serif" font-size="10.00">_struct&lt; Type, RawSize &gt;</text>
</a>
</g>
<!-- Node23&#45;&gt;Node8 -->
<g id="edge60" class="edge"><title>Node23&#45;&gt;Node8</title>
<path fill="none" stroke="orange" stroke-dasharray="5,2" d="M2506.82,-294.89C2522.45,-294.537 2538.74,-294.216 2554,-294 2599.64,-293.353 2650.61,-293.092 2691.98,-292.998"/>
<polygon fill="orange" stroke="orange" points="2506.57,-291.395 2496.66,-295.125 2506.74,-298.393 2506.57,-291.395"/>
<text text-anchor="start" x="2554.5" y="-337" font-family="Helvetica,sans-Serif" font-size="10.00"> &lt; mng_local::block</text>
<text text-anchor="start" x="2554.5" y="-324" font-family="Helvetica,sans-Serif" font-size="10.00">_w_info&lt; Type, RawSize,</text>
<text text-anchor="start" x="2554.5" y="-311" font-family="Helvetica,sans-Serif" font-size="10.00"> NRef, MetaInfoType &gt;,</text>
<text text-anchor="middle" x="2614" y="-298" font-family="Helvetica,sans-Serif" font-size="10.00"> RawSize &gt;</text>
</g>
<!-- Node24&#45;&gt;Node23 -->
<g id="edge62" class="edge"><title>Node24&#45;&gt;Node23</title>
<path fill="none" stroke="midnightblue" d="M2279.32,-304.434C2304.98,-303.151 2333.87,-301.707 2359.3,-300.435"/>
<polygon fill="midnightblue" stroke="midnightblue" points="2279.09,-300.941 2269.28,-304.936 2279.44,-307.932 2279.09,-300.941"/>
</g>
<!-- Node25&#45;&gt;Node1 -->
<g id="edge68" class="edge"><title>Node25&#45;&gt;Node1</title>
<path fill="none" stroke="#9a32cd" stroke-dasharray="5,2" d="M3422.18,-143C3440.1,-143 3459.54,-143 3477.85,-143"/>
<polygon fill="#9a32cd" stroke="#9a32cd" points="3422.12,-139.5 3412.12,-143 3422.12,-146.5 3422.12,-139.5"/>
<text text-anchor="middle" x="3445" y="-147" font-family="Helvetica,sans-Serif" font-size="10.00"> writer</text>
</g>
<!-- Node26&#45;&gt;Node25 -->
<g id="edge76" class="edge"><title>Node26&#45;&gt;Node25</title>
<path fill="none" stroke="orange" stroke-dasharray="5,2" d="M3119.17,-161.565C3124.18,-161.009 3129.17,-160.481 3134,-160 3188.7,-154.554 3251.2,-149.872 3295.57,-146.808"/>
<polygon fill="orange" stroke="orange" points="3118.41,-158.128 3108.87,-162.735 3119.2,-165.083 3118.41,-158.128"/>
<text text-anchor="middle" x="3206" y="-164" font-family="Helvetica,sans-Serif" font-size="10.00"> &lt; stxxl::typed_block &gt;</text>
</g>
</g>
</svg>
