<?xml version="1.0" encoding="UTF-8" standalone="no"?>
<!DOCTYPE svg PUBLIC "-//W3C//DTD SVG 1.1//EN"
 "http://www.w3.org/Graphics/SVG/1.1/DTD/svg11.dtd">
<!-- Generated by graphviz version 2.26.3 (20100126.1600)
 -->
<!-- Title: stxxl::const_vector_iterator&lt; ValueType, AllocStr, SizeType, DiffType, BlockSize, PagerType, PageSize &gt; Pages: 1 -->
<svg width="1880pt" height="421pt"
 viewBox="0.00 0.00 1880.00 421.04" xmlns="http://www.w3.org/2000/svg" xmlns:xlink="http://www.w3.org/1999/xlink">
<g id="graph1" class="graph" transform="scale(1 1) rotate(0) translate(4 417.043)">
<title>stxxl::const_vector_iterator&lt; ValueType, AllocStr, SizeType, DiffType, BlockSize, PagerType, PageSize &gt;</title>
<!-- Node1 -->
<g id="node1" class="node"><title>Node1</title>
<polygon fill="#bfbfbf" stroke="black" points="1740.5,-271.543 1740.5,-344.543 1871.5,-344.543 1871.5,-271.543 1740.5,-271.543"/>
<text text-anchor="start" x="1748.5" y="-331.543" font-family="Helvetica,sans-Serif" font-size="10.00">stxxl::const_vector</text>
<text text-anchor="start" x="1748.5" y="-318.543" font-family="Helvetica,sans-Serif" font-size="10.00">_iterator&lt; ValueType,</text>
<text text-anchor="start" x="1748.5" y="-305.543" font-family="Helvetica,sans-Serif" font-size="10.00"> AllocStr, SizeType,</text>
<text text-anchor="start" x="1748.5" y="-292.543" font-family="Helvetica,sans-Serif" font-size="10.00"> DiffType, BlockSize,</text>
<text text-anchor="middle" x="1806" y="-279.543" font-family="Helvetica,sans-Serif" font-size="10.00"> PagerType, PageSize &gt;</text>
</g>
<!-- Node2 -->
<g id="node2" class="node"><title>Node2</title>
<a xlink:href="classstxxl_1_1double__blocked__index.html" target="_top" xlink:title="stxxl::double_blocked\l_index\&lt; SizeType, modulo2,\l modulo1 \&gt;">
<polygon fill="none" stroke="black" points="714.5,-347.543 714.5,-394.543 863.5,-394.543 863.5,-347.543 714.5,-347.543"/>
<text text-anchor="start" x="722.5" y="-381.543" font-family="Helvetica,sans-Serif" font-size="10.00">stxxl::double_blocked</text>
<text text-anchor="start" x="722.5" y="-368.543" font-family="Helvetica,sans-Serif" font-size="10.00">_index&lt; SizeType, modulo2,</text>
<text text-anchor="middle" x="789" y="-355.543" font-family="Helvetica,sans-Serif" font-size="10.00"> modulo1 &gt;</text>
</a>
</g>
<!-- Node2&#45;&gt;Node1 -->
<g id="edge2" class="edge"><title>Node2&#45;&gt;Node1</title>
<path fill="none" stroke="#9a32cd" stroke-dasharray="5,2" d="M873.794,-365.234C905.807,-363.496 942.565,-362.043 976,-362.043 976,-362.043 976,-362.043 1570,-362.043 1628.63,-362.043 1693.44,-346.008 1740.29,-331.414"/>
<polygon fill="#9a32cd" stroke="#9a32cd" points="873.366,-361.753 863.577,-365.807 873.758,-368.742 873.366,-361.753"/>
<text text-anchor="middle" x="1177" y="-366.043" font-family="Helvetica,sans-Serif" font-size="10.00"> offset</text>
</g>
<!-- Node3 -->
<g id="node4" class="node"><title>Node3</title>
<a xlink:href="structstxxl_1_1choose__int__types.html" target="_top" xlink:title="stxxl::choose_int_types\l\&lt; my_pointer_size \&gt;">
<polygon fill="none" stroke="black" points="274.5,-358.043 274.5,-392.043 399.5,-392.043 399.5,-358.043 274.5,-358.043"/>
<text text-anchor="start" x="282.5" y="-379.043" font-family="Helvetica,sans-Serif" font-size="10.00">stxxl::choose_int_types</text>
<text text-anchor="middle" x="337" y="-366.043" font-family="Helvetica,sans-Serif" font-size="10.00">&lt; my_pointer_size &gt;</text>
</a>
</g>
<!-- Node3&#45;&gt;Node2 -->
<g id="edge4" class="edge"><title>Node3&#45;&gt;Node2</title>
<path fill="none" stroke="#9a32cd" stroke-dasharray="5,2" d="M410.031,-374.396C493.662,-373.656 629.961,-372.45 714.29,-371.704"/>
<polygon fill="#9a32cd" stroke="#9a32cd" points="409.817,-370.898 399.849,-374.487 409.879,-377.898 409.817,-370.898"/>
<text text-anchor="middle" x="495" y="-404.043" font-family="Helvetica,sans-Serif" font-size="10.00"> offset</text>
<text text-anchor="middle" x="495" y="-391.043" font-family="Helvetica,sans-Serif" font-size="10.00">block1</text>
<text text-anchor="middle" x="495" y="-378.043" font-family="Helvetica,sans-Serif" font-size="10.00">block2</text>
</g>
<!-- Node8 -->
<g id="node14" class="node"><title>Node8</title>
<a xlink:href="classstxxl_1_1atomic__counted__object.html" target="_top" xlink:title="Provides reference counting abilities for use with counting_ptr with mutex locking. ">
<polygon fill="none" stroke="black" points="579,-266.043 579,-300.043 695,-300.043 695,-266.043 579,-266.043"/>
<text text-anchor="start" x="587" y="-287.043" font-family="Helvetica,sans-Serif" font-size="10.00">stxxl::atomic_counted</text>
<text text-anchor="middle" x="637" y="-274.043" font-family="Helvetica,sans-Serif" font-size="10.00">_object</text>
</a>
</g>
<!-- Node3&#45;&gt;Node8 -->
<g id="edge20" class="edge"><title>Node3&#45;&gt;Node8</title>
<path fill="none" stroke="#9a32cd" stroke-dasharray="5,2" d="M385.112,-353.965C399.412,-348.087 415.21,-341.969 430,-337.043 479.508,-320.552 537.024,-305.897 578.846,-296.03"/>
<polygon fill="#9a32cd" stroke="#9a32cd" points="383.367,-350.9 375.482,-357.978 386.059,-357.362 383.367,-350.9"/>
<text text-anchor="middle" x="495" y="-341.043" font-family="Helvetica,sans-Serif" font-size="10.00"> m_reference_count</text>
</g>
<!-- Node4 -->
<g id="node6" class="node"><title>Node4</title>
<a xlink:href="structstxxl_1_1choose__int__types.html" target="_top" xlink:title="stxxl::choose_int_types\l\&lt; PtrSize \&gt;">
<polygon fill="none" stroke="black" points="0.5,-358.043 0.5,-392.043 125.5,-392.043 125.5,-358.043 0.5,-358.043"/>
<text text-anchor="start" x="8.5" y="-379.043" font-family="Helvetica,sans-Serif" font-size="10.00">stxxl::choose_int_types</text>
<text text-anchor="middle" x="63" y="-366.043" font-family="Helvetica,sans-Serif" font-size="10.00">&lt; PtrSize &gt;</text>
</a>
</g>
<!-- Node4&#45;&gt;Node3 -->
<g id="edge6" class="edge"><title>Node4&#45;&gt;Node3</title>
<path fill="none" stroke="orange" stroke-dasharray="5,2" d="M135.672,-375.043C178.827,-375.043 232.999,-375.043 274.277,-375.043"/>
<polygon fill="orange" stroke="orange" points="135.518,-371.543 125.518,-375.043 135.518,-378.543 135.518,-371.543"/>
<text text-anchor="middle" x="194" y="-379.043" font-family="Helvetica,sans-Serif" font-size="10.00"> &lt; my_pointer_size &gt;</text>
</g>
<!-- Node5 -->
<g id="node8" class="node"><title>Node5</title>
<a xlink:href="classstxxl_1_1vector.html" target="_top" xlink:title="External vector container. &#160;Introduction to vector container: see STXXL Vector tutorial. &#160;Design and Internals of vector container: see Vector. ">
<polygon fill="none" stroke="black" points="1482,-174.543 1482,-221.543 1658,-221.543 1658,-174.543 1482,-174.543"/>
<text text-anchor="start" x="1490" y="-208.543" font-family="Helvetica,sans-Serif" font-size="10.00">stxxl::vector&lt; ValueType,</text>
<text text-anchor="start" x="1490" y="-195.543" font-family="Helvetica,sans-Serif" font-size="10.00"> PageSize, PagerType, BlockSize,</text>
<text text-anchor="middle" x="1570" y="-182.543" font-family="Helvetica,sans-Serif" font-size="10.00"> AllocStr, SizeType &gt;</text>
</a>
</g>
<!-- Node5&#45;&gt;Node1 -->
<g id="edge8" class="edge"><title>Node5&#45;&gt;Node1</title>
<path fill="none" stroke="#9a32cd" stroke-dasharray="5,2" d="M1629.89,-225.956C1663.55,-241.646 1705.62,-261.255 1740.2,-277.373"/>
<polygon fill="#9a32cd" stroke="#9a32cd" points="1631.17,-222.693 1620.63,-221.64 1628.21,-229.038 1631.17,-222.693"/>
<text text-anchor="middle" x="1699" y="-271.043" font-family="Helvetica,sans-Serif" font-size="10.00"> p_vector</text>
</g>
<!-- Node6 -->
<g id="node10" class="node"><title>Node6</title>
<a xlink:href="classstxxl_1_1file.html" target="_top" xlink:title="Defines interface of file. ">
<polygon fill="none" stroke="black" points="882,-272.543 882,-293.543 938,-293.543 938,-272.543 882,-272.543"/>
<text text-anchor="middle" x="910" y="-280.543" font-family="Helvetica,sans-Serif" font-size="10.00">stxxl::file</text>
</a>
</g>
<!-- Node6&#45;&gt;Node5 -->
<g id="edge10" class="edge"><title>Node6&#45;&gt;Node5</title>
<path fill="none" stroke="#9a32cd" stroke-dasharray="5,2" d="M948.241,-288.413C950.863,-288.664 953.468,-288.878 956,-289.043 973.74,-290.195 978.223,-289.184 996,-289.043 1179.97,-287.583 1227.89,-286.529 1408,-249.043 1440.62,-242.254 1476.01,-231.521 1505.36,-221.65"/>
<polygon fill="#9a32cd" stroke="#9a32cd" points="948.486,-284.919 938.163,-287.303 947.72,-291.877 948.486,-284.919"/>
<text text-anchor="middle" x="1177" y="-291.043" font-family="Helvetica,sans-Serif" font-size="10.00"> m_from</text>
</g>
<!-- Node10 -->
<g id="node20" class="node"><title>Node10</title>
<a xlink:href="classstxxl_1_1block__manager.html" target="_top" xlink:title="Block manager class. ">
<polygon fill="none" stroke="black" points="1263,-218.543 1263,-239.543 1377,-239.543 1377,-218.543 1263,-218.543"/>
<text text-anchor="middle" x="1320" y="-226.543" font-family="Helvetica,sans-Serif" font-size="10.00">stxxl::block_manager</text>
</a>
</g>
<!-- Node6&#45;&gt;Node10 -->
<g id="edge32" class="edge"><title>Node6&#45;&gt;Node10</title>
<path fill="none" stroke="#9a32cd" stroke-dasharray="5,2" d="M948.181,-278.025C1005.79,-270.453 1118.36,-255.651 1214,-243.043 1229.83,-240.956 1246.98,-238.692 1262.79,-236.604"/>
<polygon fill="#9a32cd" stroke="#9a32cd" points="947.54,-274.579 938.081,-279.352 948.452,-281.519 947.54,-274.579"/>
<text text-anchor="middle" x="1068" y="-274.043" font-family="Helvetica,sans-Serif" font-size="10.00"> disk_files</text>
</g>
<!-- Node13 -->
<g id="node29" class="node"><title>Node13</title>
<a xlink:href="classstxxl_1_1disk__allocator.html" target="_top" xlink:title="stxxl::disk_allocator">
<polygon fill="none" stroke="black" points="1014.5,-168.543 1014.5,-189.543 1121.5,-189.543 1121.5,-168.543 1014.5,-168.543"/>
<text text-anchor="middle" x="1068" y="-176.543" font-family="Helvetica,sans-Serif" font-size="10.00">stxxl::disk_allocator</text>
</a>
</g>
<!-- Node6&#45;&gt;Node13 -->
<g id="edge38" class="edge"><title>Node6&#45;&gt;Node13</title>
<path fill="none" stroke="#9a32cd" stroke-dasharray="5,2" d="M931.729,-265.816C939.293,-260.006 947.911,-253.592 956,-248.043 988.015,-226.079 1026.9,-202.858 1049.41,-189.736"/>
<polygon fill="#9a32cd" stroke="#9a32cd" points="929.174,-263.369 923.428,-272.27 933.471,-268.895 929.174,-263.369"/>
<text text-anchor="middle" x="976" y="-252.043" font-family="Helvetica,sans-Serif" font-size="10.00"> storage</text>
</g>
<!-- Node7 -->
<g id="node12" class="node"><title>Node7</title>
<a xlink:href="classstxxl_1_1noncopyable.html" target="_top" xlink:title="stxxl::noncopyable">
<polygon fill="none" stroke="black" points="12,-154.543 12,-175.543 114,-175.543 114,-154.543 12,-154.543"/>
<text text-anchor="middle" x="63" y="-162.543" font-family="Helvetica,sans-Serif" font-size="10.00">stxxl::noncopyable</text>
</a>
</g>
<!-- Node7&#45;&gt;Node6 -->
<g id="edge12" class="edge"><title>Node7&#45;&gt;Node6</title>
<path fill="none" stroke="#8b1a1a" d="M71.7826,-184.91C84.0532,-210.129 108.842,-252.894 144,-274.043 189.46,-301.388 209.518,-284.291 262,-292.043 336.615,-303.063 354.765,-310.696 430,-316.043 487.632,-320.139 502.241,-317.528 560,-316.043 620.504,-314.487 635.559,-312.217 696,-309.043 770.671,-305.121 790.773,-315.173 864,-300.043 871.171,-298.561 878.715,-296.156 885.572,-293.616"/>
<polygon fill="#8b1a1a" stroke="#8b1a1a" points="74.8317,-183.167 67.4293,-175.587 68.4892,-186.129 74.8317,-183.167"/>
</g>
<!-- Node9 -->
<g id="node16" class="node"><title>Node9</title>
<a xlink:href="classstxxl_1_1mutex.html" target="_top" xlink:title="stxxl::mutex">
<polygon fill="none" stroke="black" points="302,-261.543 302,-282.543 372,-282.543 372,-261.543 302,-261.543"/>
<text text-anchor="middle" x="337" y="-269.543" font-family="Helvetica,sans-Serif" font-size="10.00">stxxl::mutex</text>
</a>
</g>
<!-- Node7&#45;&gt;Node9 -->
<g id="edge18" class="edge"><title>Node7&#45;&gt;Node9</title>
<path fill="none" stroke="#8b1a1a" d="M75.9166,-184.162C90.143,-203.527 114.902,-232.62 144,-247.043 194.706,-272.176 261.683,-275.123 301.931,-274.156"/>
<polygon fill="#8b1a1a" stroke="#8b1a1a" points="78.6167,-181.919 69.9745,-175.79 72.9083,-185.97 78.6167,-181.919"/>
</g>
<!-- Node11 -->
<g id="node22" class="node"><title>Node11</title>
<a xlink:href="classstxxl_1_1singleton.html" target="_top" xlink:title="stxxl::singleton\&lt; block\l_manager \&gt;">
<polygon fill="none" stroke="black" points="578,-212.043 578,-246.043 696,-246.043 696,-212.043 578,-212.043"/>
<text text-anchor="start" x="586" y="-233.043" font-family="Helvetica,sans-Serif" font-size="10.00">stxxl::singleton&lt; block</text>
<text text-anchor="middle" x="637" y="-220.043" font-family="Helvetica,sans-Serif" font-size="10.00">_manager &gt;</text>
</a>
</g>
<!-- Node7&#45;&gt;Node11 -->
<g id="edge26" class="edge"><title>Node7&#45;&gt;Node11</title>
<path fill="none" stroke="#8b1a1a" d="M102.762,-178.838C115.806,-183.086 130.435,-187.557 144,-191.043 195.75,-204.342 208.929,-207.846 262,-214.043 372.989,-227.003 503.568,-229.33 577.679,-229.455"/>
<polygon fill="#8b1a1a" stroke="#8b1a1a" points="103.733,-175.473 93.1394,-175.653 101.533,-182.118 103.733,-175.473"/>
</g>
<!-- Node12 -->
<g id="node25" class="node"><title>Node12</title>
<a xlink:href="classstxxl_1_1singleton.html" target="_top" xlink:title="stxxl::singleton\&lt; INSTANCE,\l destroy_on_exit \&gt;">
<polygon fill="none" stroke="black" points="262.5,-171.043 262.5,-205.043 411.5,-205.043 411.5,-171.043 262.5,-171.043"/>
<text text-anchor="start" x="270.5" y="-192.043" font-family="Helvetica,sans-Serif" font-size="10.00">stxxl::singleton&lt; INSTANCE,</text>
<text text-anchor="middle" x="337" y="-179.043" font-family="Helvetica,sans-Serif" font-size="10.00"> destroy_on_exit &gt;</text>
</a>
</g>
<!-- Node7&#45;&gt;Node12 -->
<g id="edge30" class="edge"><title>Node7&#45;&gt;Node12</title>
<path fill="none" stroke="#8b1a1a" d="M124.291,-170.188C165.085,-173.612 218.933,-178.132 262.242,-181.767"/>
<polygon fill="#8b1a1a" stroke="#8b1a1a" points="124.474,-166.691 114.216,-169.342 123.888,-173.666 124.474,-166.691"/>
</g>
<!-- Node7&#45;&gt;Node13 -->
<g id="edge36" class="edge"><title>Node7&#45;&gt;Node13</title>
<path fill="none" stroke="#8b1a1a" d="M124.348,-163.879C163.688,-163.192 215.851,-162.391 262,-162.043 328.665,-161.54 345.339,-161.179 412,-162.043 635.848,-164.943 902.554,-173.407 1014.44,-177.185"/>
<polygon fill="#8b1a1a" stroke="#8b1a1a" points="124.059,-160.384 114.123,-164.06 124.183,-167.383 124.059,-160.384"/>
</g>
<!-- Node15 -->
<g id="node36" class="node"><title>Node15</title>
<a xlink:href="classstxxl_1_1simple__vector.html" target="_top" xlink:title="stxxl::simple_vector\l\&lt; stxxl::typed_block \&gt;">
<polygon fill="none" stroke="black" points="579,-68.0427 579,-102.043 695,-102.043 695,-68.0427 579,-68.0427"/>
<text text-anchor="start" x="587" y="-89.0427" font-family="Helvetica,sans-Serif" font-size="10.00">stxxl::simple_vector</text>
<text text-anchor="middle" x="637" y="-76.0427" font-family="Helvetica,sans-Serif" font-size="10.00">&lt; stxxl::typed_block &gt;</text>
</a>
</g>
<!-- Node7&#45;&gt;Node15 -->
<g id="edge46" class="edge"><title>Node7&#45;&gt;Node15</title>
<path fill="none" stroke="#8b1a1a" d="M91.3229,-149.692C106.507,-142.181 125.792,-133.762 144,-129.043 164.743,-123.666 452.557,-99.9481 578.589,-89.7407"/>
<polygon fill="#8b1a1a" stroke="#8b1a1a" points="89.3106,-146.789 81.9899,-154.448 92.4889,-153.026 89.3106,-146.789"/>
</g>
<!-- Node16 -->
<g id="node39" class="node"><title>Node16</title>
<a xlink:href="classstxxl_1_1simple__vector.html" target="_top" xlink:title="Simpler non&#45;growing vector without initialization. ">
<polygon fill="none" stroke="black" points="283.5,-43.0427 283.5,-77.0427 390.5,-77.0427 390.5,-43.0427 283.5,-43.0427"/>
<text text-anchor="start" x="291.5" y="-64.0427" font-family="Helvetica,sans-Serif" font-size="10.00">stxxl::simple_vector</text>
<text text-anchor="middle" x="337" y="-51.0427" font-family="Helvetica,sans-Serif" font-size="10.00">&lt; ValueType &gt;</text>
</a>
</g>
<!-- Node7&#45;&gt;Node16 -->
<g id="edge50" class="edge"><title>Node7&#45;&gt;Node16</title>
<path fill="none" stroke="#8b1a1a" d="M77.5723,-146.606C92.3567,-129.288 116.877,-104.137 144,-91.0427 187.856,-69.8708 243.188,-62.694 283.351,-60.4749"/>
<polygon fill="#8b1a1a" stroke="#8b1a1a" points="74.8085,-144.456 71.1278,-154.391 80.2007,-148.919 74.8085,-144.456"/>
</g>
<!-- Node17 -->
<g id="node42" class="node"><title>Node17</title>
<a xlink:href="classstxxl_1_1simple__vector.html" target="_top" xlink:title="stxxl::simple_vector\l\&lt; int_type \&gt;">
<polygon fill="none" stroke="black" points="583.5,-16.0427 583.5,-50.0427 690.5,-50.0427 690.5,-16.0427 583.5,-16.0427"/>
<text text-anchor="start" x="591.5" y="-37.0427" font-family="Helvetica,sans-Serif" font-size="10.00">stxxl::simple_vector</text>
<text text-anchor="middle" x="637" y="-24.0427" font-family="Helvetica,sans-Serif" font-size="10.00">&lt; int_type &gt;</text>
</a>
</g>
<!-- Node7&#45;&gt;Node17 -->
<g id="edge54" class="edge"><title>Node7&#45;&gt;Node17</title>
<path fill="none" stroke="#8b1a1a" d="M72.8539,-145.373C85.825,-121.582 110.915,-82.1101 144,-61.0427 281.574,26.5598 486.948,-0.579582 583.368,-20.299"/>
<polygon fill="#8b1a1a" stroke="#8b1a1a" points="69.7553,-143.746 68.1934,-154.225 75.9492,-147.007 69.7553,-143.746"/>
</g>
<!-- Node8&#45;&gt;Node6 -->
<g id="edge14" class="edge"><title>Node8&#45;&gt;Node6</title>
<path fill="none" stroke="#9a32cd" stroke-dasharray="5,2" d="M705.252,-283.043C762.245,-283.043 840.61,-283.043 881.909,-283.043"/>
<polygon fill="#9a32cd" stroke="#9a32cd" points="705.231,-279.543 695.23,-283.043 705.23,-286.543 705.231,-279.543"/>
<text text-anchor="middle" x="789" y="-287.043" font-family="Helvetica,sans-Serif" font-size="10.00"> m_request_ref</text>
</g>
<!-- Node9&#45;&gt;Node8 -->
<g id="edge16" class="edge"><title>Node9&#45;&gt;Node8</title>
<path fill="none" stroke="#9a32cd" stroke-dasharray="5,2" d="M382.314,-267.728C427.465,-264.205 498.709,-260.742 560,-267.043 566.112,-267.671 572.454,-268.573 578.757,-269.633"/>
<polygon fill="#9a32cd" stroke="#9a32cd" points="381.938,-264.247 372.256,-268.548 382.507,-271.224 381.938,-264.247"/>
<text text-anchor="middle" x="495" y="-271.043" font-family="Helvetica,sans-Serif" font-size="10.00"> m_reference_count_mutex</text>
</g>
<!-- Node9&#45;&gt;Node13 -->
<g id="edge40" class="edge"><title>Node9&#45;&gt;Node13</title>
<path fill="none" stroke="#9a32cd" stroke-dasharray="5,2" d="M362.191,-255.516C377.551,-244.751 397.038,-229.815 412,-214.043 421.673,-203.846 418.127,-195.563 430,-188.043 593.903,-84.2239 670.217,-131.523 864,-141.043 922.879,-143.935 938.422,-141.398 996,-154.043 1011.77,-157.505 1028.86,-163.346 1042.43,-168.511"/>
<polygon fill="#9a32cd" stroke="#9a32cd" points="359.956,-252.804 353.689,-261.346 363.915,-258.577 359.956,-252.804"/>
<text text-anchor="middle" x="789" y="-145.043" font-family="Helvetica,sans-Serif" font-size="10.00"> mutex</text>
</g>
<!-- Node10&#45;&gt;Node5 -->
<g id="edge22" class="edge"><title>Node10&#45;&gt;Node5</title>
<path fill="none" stroke="#9a32cd" stroke-dasharray="5,2" d="M1387.1,-220.723C1416.2,-217.114 1450.68,-212.838 1481.82,-208.977"/>
<polygon fill="#9a32cd" stroke="#9a32cd" points="1386.53,-217.266 1377.04,-221.97 1387.4,-224.212 1386.53,-217.266"/>
<text text-anchor="middle" x="1445" y="-220.043" font-family="Helvetica,sans-Serif" font-size="10.00"> m_bm</text>
</g>
<!-- Node11&#45;&gt;Node10 -->
<g id="edge24" class="edge"><title>Node11&#45;&gt;Node10</title>
<path fill="none" stroke="midnightblue" d="M706.346,-229.043C841.456,-229.043 1137.64,-229.043 1262.59,-229.043"/>
<polygon fill="midnightblue" stroke="midnightblue" points="706.12,-225.543 696.12,-229.043 706.12,-232.543 706.12,-225.543"/>
</g>
<!-- Node12&#45;&gt;Node11 -->
<g id="edge28" class="edge"><title>Node12&#45;&gt;Node11</title>
<path fill="none" stroke="orange" stroke-dasharray="5,2" d="M421.759,-190.701C463.639,-193.073 514.769,-197.559 560,-206.043 568.228,-207.586 576.828,-209.669 585.175,-211.954"/>
<polygon fill="orange" stroke="orange" points="421.77,-187.196 411.597,-190.156 421.395,-194.186 421.77,-187.196"/>
<text text-anchor="middle" x="495" y="-210.043" font-family="Helvetica,sans-Serif" font-size="10.00"> &lt; block_manager &gt;</text>
</g>
<!-- Node13&#45;&gt;Node10 -->
<g id="edge34" class="edge"><title>Node13&#45;&gt;Node10</title>
<path fill="none" stroke="#9a32cd" stroke-dasharray="5,2" d="M1131.68,-186.051C1157.49,-189.673 1187.43,-194.872 1214,-202.043 1222.29,-204.279 1223.79,-206.529 1232,-209.043 1243.39,-212.53 1255.77,-215.709 1267.55,-218.456"/>
<polygon fill="#9a32cd" stroke="#9a32cd" points="1132.01,-182.565 1121.63,-184.692 1131.07,-189.501 1132.01,-182.565"/>
<text text-anchor="middle" x="1177" y="-206.043" font-family="Helvetica,sans-Serif" font-size="10.00"> disk_allocators</text>
</g>
<!-- Node14 -->
<g id="node34" class="node"><title>Node14</title>
<a xlink:href="classstxxl_1_1vector_1_1bid__vector.html" target="_top" xlink:title="stxxl::vector\&lt; ValueType,\l PageSize, PagerType, BlockSize,\l AllocStr, SizeType \&gt;::bid_vector">
<polygon fill="none" stroke="black" points="1232,-152.543 1232,-199.543 1408,-199.543 1408,-152.543 1232,-152.543"/>
<text text-anchor="start" x="1240" y="-186.543" font-family="Helvetica,sans-Serif" font-size="10.00">stxxl::vector&lt; ValueType,</text>
<text text-anchor="start" x="1240" y="-173.543" font-family="Helvetica,sans-Serif" font-size="10.00"> PageSize, PagerType, BlockSize,</text>
<text text-anchor="middle" x="1320" y="-160.543" font-family="Helvetica,sans-Serif" font-size="10.00"> AllocStr, SizeType &gt;::bid_vector</text>
</a>
</g>
<!-- Node14&#45;&gt;Node5 -->
<g id="edge42" class="edge"><title>Node14&#45;&gt;Node5</title>
<path fill="none" stroke="#9a32cd" stroke-dasharray="5,2" d="M1418.05,-182.279C1433.44,-183.423 1449.16,-184.688 1464,-186.043 1469.81,-186.573 1475.79,-187.155 1481.82,-187.767"/>
<polygon fill="#9a32cd" stroke="#9a32cd" points="1418.23,-178.783 1408,-181.545 1417.72,-185.764 1418.23,-178.783"/>
<text text-anchor="middle" x="1445" y="-190.043" font-family="Helvetica,sans-Serif" font-size="10.00"> m_bids</text>
</g>
<!-- Node15&#45;&gt;Node5 -->
<g id="edge44" class="edge"><title>Node15&#45;&gt;Node5</title>
<path fill="none" stroke="#9a32cd" stroke-dasharray="5,2" d="M705.063,-86.5931C760.29,-87.7179 840.164,-89.0427 910,-89.0427 910,-89.0427 910,-89.0427 1320,-89.0427 1404.75,-89.0427 1493.21,-142.334 1538.76,-174.391"/>
<polygon fill="#9a32cd" stroke="#9a32cd" points="705.116,-83.0936 695.045,-86.3858 704.971,-90.0921 705.116,-83.0936"/>
<text text-anchor="middle" x="1068" y="-93.0427" font-family="Helvetica,sans-Serif" font-size="10.00"> m_cache</text>
</g>
<!-- Node16&#45;&gt;Node15 -->
<g id="edge48" class="edge"><title>Node16&#45;&gt;Node15</title>
<path fill="none" stroke="orange" stroke-dasharray="5,2" d="M400.748,-65.0161C445.354,-68.5383 506.326,-73.4369 560,-78.0427 566.152,-78.5707 572.579,-79.1349 578.984,-79.7053"/>
<polygon fill="orange" stroke="orange" points="400.877,-61.5155 390.633,-64.2188 400.327,-68.4939 400.877,-61.5155"/>
<text text-anchor="middle" x="495" y="-82.0427" font-family="Helvetica,sans-Serif" font-size="10.00"> &lt; stxxl::typed_block &gt;</text>
</g>
<!-- Node16&#45;&gt;Node17 -->
<g id="edge56" class="edge"><title>Node16&#45;&gt;Node17</title>
<path fill="none" stroke="orange" stroke-dasharray="5,2" d="M400.711,-53.7942C410.518,-52.8564 420.529,-51.9128 430,-51.0427 482.087,-46.2579 541.578,-41.1187 583.375,-37.5616"/>
<polygon fill="orange" stroke="orange" points="400.215,-50.3256 390.596,-54.7662 400.885,-57.2936 400.215,-50.3256"/>
<text text-anchor="middle" x="495" y="-55.0427" font-family="Helvetica,sans-Serif" font-size="10.00"> &lt; int_type &gt;</text>
</g>
<!-- Node17&#45;&gt;Node5 -->
<g id="edge52" class="edge"><title>Node17&#45;&gt;Node5</title>
<path fill="none" stroke="#9a32cd" stroke-dasharray="5,2" d="M700.618,-34.502C755.945,-35.645 838.268,-37.0427 910,-37.0427 910,-37.0427 910,-37.0427 1320,-37.0427 1420.15,-37.0427 1512.08,-129.502 1550.73,-174.287"/>
<polygon fill="#9a32cd" stroke="#9a32cd" points="700.682,-31.0026 690.611,-34.2919 700.535,-38.0011 700.682,-31.0026"/>
<text text-anchor="middle" x="1068" y="-41.0427" font-family="Helvetica,sans-Serif" font-size="10.00"> m_slot_to_page</text>
</g>
</g>
</svg>
