<?xml version="1.0" encoding="UTF-8" standalone="no"?>
<!DOCTYPE svg PUBLIC "-//W3C//DTD SVG 1.1//EN"
 "http://www.w3.org/Graphics/SVG/1.1/DTD/svg11.dtd">
<!-- Generated by graphviz version 2.26.3 (20100126.1600)
 -->
<!-- Title: stxxl::request Pages: 1 -->
<svg width="1164pt" height="251pt"
 viewBox="0.00 0.00 1164.00 251.00" xmlns="http://www.w3.org/2000/svg" xmlns:xlink="http://www.w3.org/1999/xlink">
<g id="graph1" class="graph" transform="scale(1 1) rotate(0) translate(4 247)">
<title>stxxl::request</title>
<!-- Node1 -->
<g id="node1" class="node"><title>Node1</title>
<polygon fill="#bfbfbf" stroke="black" points="1078.5,-117.5 1078.5,-138.5 1155.5,-138.5 1155.5,-117.5 1078.5,-117.5"/>
<text text-anchor="middle" x="1117" y="-125.5" font-family="Helvetica,sans-Serif" font-size="10.00">stxxl::request</text>
</g>
<!-- Node2 -->
<g id="node2" class="node"><title>Node2</title>
<a xlink:href="classstxxl_1_1request__interface.html" target="_top" xlink:title="Functional interface of a request. ">
<polygon fill="none" stroke="black" points="408.5,-221.5 408.5,-242.5 533.5,-242.5 533.5,-221.5 408.5,-221.5"/>
<text text-anchor="middle" x="471" y="-229.5" font-family="Helvetica,sans-Serif" font-size="10.00">stxxl::request_interface</text>
</a>
</g>
<!-- Node2&#45;&gt;Node1 -->
<g id="edge2" class="edge"><title>Node2&#45;&gt;Node1</title>
<path fill="none" stroke="midnightblue" d="M543.753,-228.176C612.086,-224.263 717.129,-217.422 808,-208 876.71,-200.876 893.634,-196.893 962,-187 1005.61,-180.69 1019.5,-189.347 1060,-172 1078.39,-164.126 1096.06,-148.907 1106.72,-138.6"/>
<polygon fill="midnightblue" stroke="midnightblue" points="543.312,-224.695 533.526,-228.755 543.708,-231.684 543.312,-224.695"/>
</g>
<!-- Node3 -->
<g id="node4" class="node"><title>Node3</title>
<a xlink:href="classstxxl_1_1noncopyable.html" target="_top" xlink:title="stxxl::noncopyable">
<polygon fill="none" stroke="black" points="12,-183.5 12,-204.5 114,-204.5 114,-183.5 12,-183.5"/>
<text text-anchor="middle" x="63" y="-191.5" font-family="Helvetica,sans-Serif" font-size="10.00">stxxl::noncopyable</text>
</a>
</g>
<!-- Node3&#45;&gt;Node2 -->
<g id="edge4" class="edge"><title>Node3&#45;&gt;Node2</title>
<path fill="none" stroke="#8b1a1a" d="M124.546,-205.284C131.101,-206.293 137.679,-207.224 144,-208 235.67,-219.259 342.493,-225.887 408.439,-229.231"/>
<polygon fill="#8b1a1a" stroke="#8b1a1a" points="124.734,-201.77 114.307,-203.647 123.629,-208.682 124.734,-201.77"/>
</g>
<!-- Node5 -->
<g id="node8" class="node"><title>Node5</title>
<a xlink:href="classstxxl_1_1mutex.html" target="_top" xlink:title="stxxl::mutex">
<polygon fill="none" stroke="black" points="290,-144.5 290,-165.5 360,-165.5 360,-144.5 290,-144.5"/>
<text text-anchor="middle" x="325" y="-152.5" font-family="Helvetica,sans-Serif" font-size="10.00">stxxl::mutex</text>
</a>
</g>
<!-- Node3&#45;&gt;Node5 -->
<g id="edge10" class="edge"><title>Node3&#45;&gt;Node5</title>
<path fill="none" stroke="#8b1a1a" d="M124.604,-183.128C131.147,-182.041 137.707,-180.978 144,-180 194.623,-172.131 253.409,-164.241 289.912,-159.488"/>
<polygon fill="#8b1a1a" stroke="#8b1a1a" points="123.657,-179.739 114.376,-184.85 124.819,-186.641 123.657,-179.739"/>
</g>
<!-- Node8 -->
<g id="node15" class="node"><title>Node8</title>
<a xlink:href="classstxxl_1_1file.html" target="_top" xlink:title="Defines interface of file. ">
<polygon fill="none" stroke="black" points="866,-156.5 866,-177.5 922,-177.5 922,-156.5 866,-156.5"/>
<text text-anchor="middle" x="894" y="-164.5" font-family="Helvetica,sans-Serif" font-size="10.00">stxxl::file</text>
</a>
</g>
<!-- Node3&#45;&gt;Node8 -->
<g id="edge18" class="edge"><title>Node3&#45;&gt;Node8</title>
<path fill="none" stroke="#8b1a1a" d="M124.39,-193.131C251.839,-191.136 554.394,-185.416 808,-173 827.284,-172.056 848.971,-170.54 865.742,-169.268"/>
<polygon fill="#8b1a1a" stroke="#8b1a1a" points="124.007,-189.636 114.062,-193.29 124.115,-196.635 124.007,-189.636"/>
</g>
<!-- Node4 -->
<g id="node6" class="node"><title>Node4</title>
<a xlink:href="classstxxl_1_1atomic__counted__object.html" target="_top" xlink:title="Provides reference counting abilities for use with counting_ptr with mutex locking. ">
<polygon fill="none" stroke="black" points="557,-119 557,-153 673,-153 673,-119 557,-119"/>
<text text-anchor="start" x="565" y="-140" font-family="Helvetica,sans-Serif" font-size="10.00">stxxl::atomic_counted</text>
<text text-anchor="middle" x="615" y="-127" font-family="Helvetica,sans-Serif" font-size="10.00">_object</text>
</a>
</g>
<!-- Node4&#45;&gt;Node1 -->
<g id="edge6" class="edge"><title>Node4&#45;&gt;Node1</title>
<path fill="none" stroke="midnightblue" d="M683.107,-134.915C789.956,-133.212 993.527,-129.968 1078.37,-128.616"/>
<polygon fill="midnightblue" stroke="midnightblue" points="683.019,-131.415 673.076,-135.074 683.131,-138.415 683.019,-131.415"/>
</g>
<!-- Node4&#45;&gt;Node8 -->
<g id="edge20" class="edge"><title>Node4&#45;&gt;Node8</title>
<path fill="none" stroke="#9a32cd" stroke-dasharray="5,2" d="M683.435,-143.604C741.985,-150.109 823.325,-159.147 865.73,-163.859"/>
<polygon fill="#9a32cd" stroke="#9a32cd" points="683.473,-140.087 673.148,-142.461 682.7,-147.044 683.473,-140.087"/>
<text text-anchor="middle" x="751" y="-160" font-family="Helvetica,sans-Serif" font-size="10.00"> m_request_ref</text>
</g>
<!-- Node5&#45;&gt;Node4 -->
<g id="edge8" class="edge"><title>Node5&#45;&gt;Node4</title>
<path fill="none" stroke="#9a32cd" stroke-dasharray="5,2" d="M370.523,-152.017C420.866,-148.719 502.096,-143.397 556.97,-139.802"/>
<polygon fill="#9a32cd" stroke="#9a32cd" points="370.02,-148.543 360.27,-152.689 370.477,-155.528 370.02,-148.543"/>
<text text-anchor="middle" x="471" y="-153" font-family="Helvetica,sans-Serif" font-size="10.00"> m_reference_count_mutex</text>
</g>
<!-- Node6 -->
<g id="node11" class="node"><title>Node6</title>
<a xlink:href="structstxxl_1_1choose__int__types.html" target="_top" xlink:title="stxxl::choose_int_types\l\&lt; my_pointer_size \&gt;">
<polygon fill="none" stroke="black" points="262.5,-92 262.5,-126 387.5,-126 387.5,-92 262.5,-92"/>
<text text-anchor="start" x="270.5" y="-113" font-family="Helvetica,sans-Serif" font-size="10.00">stxxl::choose_int_types</text>
<text text-anchor="middle" x="325" y="-100" font-family="Helvetica,sans-Serif" font-size="10.00">&lt; my_pointer_size &gt;</text>
</a>
</g>
<!-- Node6&#45;&gt;Node4 -->
<g id="edge12" class="edge"><title>Node6&#45;&gt;Node4</title>
<path fill="none" stroke="#9a32cd" stroke-dasharray="5,2" d="M398.002,-112.752C438.692,-115.204 490.239,-118.906 536,-124 542.756,-124.752 549.82,-125.656 556.826,-126.626"/>
<polygon fill="#9a32cd" stroke="#9a32cd" points="398.09,-109.251 387.902,-112.155 397.678,-116.239 398.09,-109.251"/>
<text text-anchor="middle" x="471" y="-128" font-family="Helvetica,sans-Serif" font-size="10.00"> m_reference_count</text>
</g>
<!-- Node7 -->
<g id="node13" class="node"><title>Node7</title>
<a xlink:href="structstxxl_1_1choose__int__types.html" target="_top" xlink:title="stxxl::choose_int_types\l\&lt; PtrSize \&gt;">
<polygon fill="none" stroke="black" points="0.5,-92 0.5,-126 125.5,-126 125.5,-92 0.5,-92"/>
<text text-anchor="start" x="8.5" y="-113" font-family="Helvetica,sans-Serif" font-size="10.00">stxxl::choose_int_types</text>
<text text-anchor="middle" x="63" y="-100" font-family="Helvetica,sans-Serif" font-size="10.00">&lt; PtrSize &gt;</text>
</a>
</g>
<!-- Node7&#45;&gt;Node6 -->
<g id="edge14" class="edge"><title>Node7&#45;&gt;Node6</title>
<path fill="none" stroke="orange" stroke-dasharray="5,2" d="M135.913,-109C175.636,-109 224.295,-109 262.303,-109"/>
<polygon fill="orange" stroke="orange" points="135.756,-105.5 125.756,-109 135.755,-112.5 135.756,-105.5"/>
<text text-anchor="middle" x="194" y="-113" font-family="Helvetica,sans-Serif" font-size="10.00"> &lt; my_pointer_size &gt;</text>
</g>
<!-- Node8&#45;&gt;Node1 -->
<g id="edge16" class="edge"><title>Node8&#45;&gt;Node1</title>
<path fill="none" stroke="#9a32cd" stroke-dasharray="5,2" d="M932.383,-162.232C966.139,-157.798 1016.53,-150.593 1060,-142 1066,-140.814 1072.32,-139.415 1078.47,-137.968"/>
<polygon fill="#9a32cd" stroke="#9a32cd" points="931.505,-158.816 922.037,-163.572 932.404,-165.758 931.505,-158.816"/>
<text text-anchor="middle" x="1020" y="-159" font-family="Helvetica,sans-Serif" font-size="10.00"> m_file</text>
</g>
<!-- Node9 -->
<g id="node19" class="node"><title>Node9</title>
<a xlink:href="structstxxl_1_1compat__unique__ptr.html" target="_top" xlink:title="stxxl::compat_unique\l_ptr\&lt; stxxl::stxxl::io\l_error \&gt;">
<polygon fill="none" stroke="black" points="694.5,-55.5 694.5,-102.5 807.5,-102.5 807.5,-55.5 694.5,-55.5"/>
<text text-anchor="start" x="702.5" y="-89.5" font-family="Helvetica,sans-Serif" font-size="10.00">stxxl::compat_unique</text>
<text text-anchor="start" x="702.5" y="-76.5" font-family="Helvetica,sans-Serif" font-size="10.00">_ptr&lt; stxxl::stxxl::io</text>
<text text-anchor="middle" x="751" y="-63.5" font-family="Helvetica,sans-Serif" font-size="10.00">_error &gt;</text>
</a>
</g>
<!-- Node9&#45;&gt;Node1 -->
<g id="edge22" class="edge"><title>Node9&#45;&gt;Node1</title>
<path fill="none" stroke="#9a32cd" stroke-dasharray="5,2" d="M817.938,-83.723C880.814,-88.8329 977.328,-98.4121 1060,-114 1066.01,-115.133 1072.33,-116.504 1078.49,-117.939"/>
<polygon fill="#9a32cd" stroke="#9a32cd" points="818.005,-80.2173 807.758,-82.9109 817.448,-87.1951 818.005,-80.2173"/>
<text text-anchor="middle" x="894" y="-102" font-family="Helvetica,sans-Serif" font-size="10.00"> m_error</text>
</g>
<!-- Node10 -->
<g id="node21" class="node"><title>Node10</title>
<a xlink:href="structstxxl_1_1compat__unique__ptr.html" target="_top" xlink:title="stxxl::compat_unique\l_ptr\&lt; Type \&gt;">
<polygon fill="none" stroke="black" points="268.5,-25 268.5,-59 381.5,-59 381.5,-25 268.5,-25"/>
<text text-anchor="start" x="276.5" y="-46" font-family="Helvetica,sans-Serif" font-size="10.00">stxxl::compat_unique</text>
<text text-anchor="middle" x="325" y="-33" font-family="Helvetica,sans-Serif" font-size="10.00">_ptr&lt; Type &gt;</text>
</a>
</g>
<!-- Node10&#45;&gt;Node9 -->
<g id="edge24" class="edge"><title>Node10&#45;&gt;Node9</title>
<path fill="none" stroke="orange" stroke-dasharray="5,2" d="M391.584,-52.2698C396.457,-52.8969 401.302,-53.4825 406,-54 507.327,-65.1612 625.968,-72.5128 694.409,-76.1996"/>
<polygon fill="orange" stroke="orange" points="391.954,-48.7882 381.579,-50.9326 391.027,-55.7265 391.954,-48.7882"/>
<text text-anchor="start" x="435" y="-83" font-family="Helvetica,sans-Serif" font-size="10.00"> &lt; stxxl::stxxl::io</text>
<text text-anchor="middle" x="471" y="-70" font-family="Helvetica,sans-Serif" font-size="10.00">_error &gt;</text>
</g>
<!-- Node12 -->
<g id="node25" class="node"><title>Node12</title>
<a xlink:href="structstxxl_1_1compat__unique__ptr.html" target="_top" xlink:title="stxxl::compat_unique\l_ptr\&lt; stxxl::completion\l_handler_impl \&gt;">
<polygon fill="none" stroke="black" points="554.5,-0.5 554.5,-47.5 675.5,-47.5 675.5,-0.5 554.5,-0.5"/>
<text text-anchor="start" x="562.5" y="-34.5" font-family="Helvetica,sans-Serif" font-size="10.00">stxxl::compat_unique</text>
<text text-anchor="start" x="562.5" y="-21.5" font-family="Helvetica,sans-Serif" font-size="10.00">_ptr&lt; stxxl::completion</text>
<text text-anchor="middle" x="615" y="-8.5" font-family="Helvetica,sans-Serif" font-size="10.00">_handler_impl &gt;</text>
</a>
</g>
<!-- Node10&#45;&gt;Node12 -->
<g id="edge30" class="edge"><title>Node10&#45;&gt;Node12</title>
<path fill="none" stroke="orange" stroke-dasharray="5,2" d="M391.527,-29.671C396.413,-29.0206 401.276,-28.4508 406,-28 455.856,-23.2422 512.694,-22.4516 554.499,-22.7336"/>
<polygon fill="orange" stroke="orange" points="390.903,-26.2245 381.501,-31.1068 391.896,-33.1538 390.903,-26.2245"/>
<text text-anchor="start" x="426.5" y="-45" font-family="Helvetica,sans-Serif" font-size="10.00"> &lt; stxxl::completion</text>
<text text-anchor="middle" x="471" y="-32" font-family="Helvetica,sans-Serif" font-size="10.00">_handler_impl &gt;</text>
</g>
<!-- Node11 -->
<g id="node23" class="node"><title>Node11</title>
<a xlink:href="classstxxl_1_1completion__handler.html" target="_top" xlink:title="Completion handler class (Loki&#45;style). ">
<polygon fill="none" stroke="black" points="826.5,-22.5 826.5,-43.5 961.5,-43.5 961.5,-22.5 826.5,-22.5"/>
<text text-anchor="middle" x="894" y="-30.5" font-family="Helvetica,sans-Serif" font-size="10.00">stxxl::completion_handler</text>
</a>
</g>
<!-- Node11&#45;&gt;Node1 -->
<g id="edge26" class="edge"><title>Node11&#45;&gt;Node1</title>
<path fill="none" stroke="#9a32cd" stroke-dasharray="5,2" d="M971.704,-32.3979C1000.97,-35.1169 1033.54,-41.8845 1060,-57 1085.12,-71.3473 1103.45,-101.464 1111.87,-117.473"/>
<polygon fill="#9a32cd" stroke="#9a32cd" points="971.751,-28.8909 961.508,-31.598 971.203,-35.8695 971.751,-28.8909"/>
<text text-anchor="middle" x="1020" y="-61" font-family="Helvetica,sans-Serif" font-size="10.00"> m_on_complete</text>
</g>
<!-- Node12&#45;&gt;Node11 -->
<g id="edge28" class="edge"><title>Node12&#45;&gt;Node11</title>
<path fill="none" stroke="#9a32cd" stroke-dasharray="5,2" d="M685.674,-26.2798C728.805,-27.6711 783.648,-29.4403 826.237,-30.8141"/>
<polygon fill="#9a32cd" stroke="#9a32cd" points="685.647,-22.7772 675.539,-25.9529 685.421,-29.7736 685.647,-22.7772"/>
<text text-anchor="middle" x="751" y="-35" font-family="Helvetica,sans-Serif" font-size="10.00"> m_ptr</text>
</g>
</g>
</svg>
