<?xml version="1.0" encoding="UTF-8" standalone="no"?>
<!DOCTYPE svg PUBLIC "-//W3C//DTD SVG 1.1//EN"
 "http://www.w3.org/Graphics/SVG/1.1/DTD/svg11.dtd">
<!-- Generated by graphviz version 2.26.3 (20100126.1600)
 -->
<!-- Title: stxxl::priority_queue&lt; ConfigType &gt; Pages: 1 -->
<svg width="1878pt" height="801pt"
 viewBox="0.00 0.00 1878.00 801.00" xmlns="http://www.w3.org/2000/svg" xmlns:xlink="http://www.w3.org/1999/xlink">
<g id="graph1" class="graph" transform="scale(1 1) rotate(0) translate(4 797)">
<title>stxxl::priority_queue&lt; ConfigType &gt;</title>
<!-- Node1 -->
<g id="node1" class="node"><title>Node1</title>
<polygon fill="#bfbfbf" stroke="black" points="1716.5,-207 1716.5,-241 1825.5,-241 1825.5,-207 1716.5,-207"/>
<text text-anchor="start" x="1724.5" y="-228" font-family="Helvetica,sans-Serif" font-size="10.00">stxxl::priority_queue</text>
<text text-anchor="middle" x="1771" y="-215" font-family="Helvetica,sans-Serif" font-size="10.00">&lt; ConfigType &gt;</text>
</g>
<!-- Node2 -->
<g id="node2" class="node"><title>Node2</title>
<a xlink:href="classstxxl_1_1noncopyable.html" target="_top" xlink:title="stxxl::noncopyable">
<polygon fill="none" stroke="black" points="378,-526.5 378,-547.5 480,-547.5 480,-526.5 378,-526.5"/>
<text text-anchor="middle" x="429" y="-534.5" font-family="Helvetica,sans-Serif" font-size="10.00">stxxl::noncopyable</text>
</a>
</g>
<!-- Node2&#45;&gt;Node1 -->
<g id="edge2" class="edge"><title>Node2&#45;&gt;Node1</title>
<path fill="none" stroke="#8b1a1a" d="M484.213,-524.197C501.432,-520.242 520.496,-515.901 538,-512 841.587,-444.343 919.255,-435.329 1222,-364 1403.67,-321.197 1617.65,-264.931 1716.23,-238.676"/>
<polygon fill="#8b1a1a" stroke="#8b1a1a" points="483.275,-520.821 474.314,-526.475 484.845,-527.643 483.275,-520.821"/>
</g>
<!-- Node3 -->
<g id="node4" class="node"><title>Node3</title>
<a xlink:href="classstxxl_1_1read__write__pool.html" target="_top" xlink:title="Implements dynamically resizable buffered writing and prefetched reading pool. ">
<polygon fill="none" stroke="black" points="1068.5,-519 1068.5,-553 1187.5,-553 1187.5,-519 1068.5,-519"/>
<text text-anchor="start" x="1076.5" y="-540" font-family="Helvetica,sans-Serif" font-size="10.00">stxxl::read_write_pool</text>
<text text-anchor="middle" x="1128" y="-527" font-family="Helvetica,sans-Serif" font-size="10.00">&lt; BlockType &gt;</text>
</a>
</g>
<!-- Node2&#45;&gt;Node3 -->
<g id="edge6" class="edge"><title>Node2&#45;&gt;Node3</title>
<path fill="none" stroke="#8b1a1a" d="M490.304,-538.239C597.1,-540.191 824.201,-543.424 1016,-540 1033.02,-539.696 1051.49,-539.133 1068.43,-538.523"/>
<polygon fill="#8b1a1a" stroke="#8b1a1a" points="490.105,-534.735 480.041,-538.049 489.975,-541.734 490.105,-534.735"/>
</g>
<!-- Node4 -->
<g id="node7" class="node"><title>Node4</title>
<a xlink:href="classstxxl_1_1prefetch__pool.html" target="_top" xlink:title="Implements dynamically resizable prefetching pool. ">
<polygon fill="none" stroke="black" points="741.5,-582 741.5,-616 848.5,-616 848.5,-582 741.5,-582"/>
<text text-anchor="start" x="749.5" y="-603" font-family="Helvetica,sans-Serif" font-size="10.00">stxxl::prefetch_pool</text>
<text text-anchor="middle" x="795" y="-590" font-family="Helvetica,sans-Serif" font-size="10.00">&lt; BlockType &gt;</text>
</a>
</g>
<!-- Node2&#45;&gt;Node4 -->
<g id="edge10" class="edge"><title>Node2&#45;&gt;Node4</title>
<path fill="none" stroke="#8b1a1a" d="M470.889,-550.58C491.004,-556.671 515.56,-563.485 538,-568 607.612,-582.007 689.193,-590.533 741.453,-595.007"/>
<polygon fill="#8b1a1a" stroke="#8b1a1a" points="471.693,-547.166 461.106,-547.57 469.635,-553.856 471.693,-547.166"/>
</g>
<!-- Node9 -->
<g id="node18" class="node"><title>Node9</title>
<a xlink:href="classstxxl_1_1write__pool.html" target="_top" xlink:title="Implements dynamically resizable buffered writing pool. ">
<polygon fill="none" stroke="black" points="746.5,-492 746.5,-526 843.5,-526 843.5,-492 746.5,-492"/>
<text text-anchor="start" x="754.5" y="-513" font-family="Helvetica,sans-Serif" font-size="10.00">stxxl::write_pool&lt;</text>
<text text-anchor="middle" x="795" y="-500" font-family="Helvetica,sans-Serif" font-size="10.00"> BlockType &gt;</text>
</a>
</g>
<!-- Node2&#45;&gt;Node9 -->
<g id="edge22" class="edge"><title>Node2&#45;&gt;Node9</title>
<path fill="none" stroke="#8b1a1a" d="M490.564,-532.29C562.62,-526.778 680.462,-517.762 746.405,-512.718"/>
<polygon fill="#8b1a1a" stroke="#8b1a1a" points="489.98,-528.825 480.276,-533.077 490.514,-535.804 489.98,-528.825"/>
</g>
<!-- Node10 -->
<g id="node21" class="node"><title>Node10</title>
<a xlink:href="classstxxl_1_1priority__queue__local_1_1ext__merger.html" target="_top" xlink:title="External merger, based on the loser tree data structure. ">
<polygon fill="none" stroke="black" points="1383,-512.5 1383,-559.5 1547,-559.5 1547,-512.5 1383,-512.5"/>
<text text-anchor="start" x="1391" y="-546.5" font-family="Helvetica,sans-Serif" font-size="10.00">stxxl::priority_queue</text>
<text text-anchor="start" x="1391" y="-533.5" font-family="Helvetica,sans-Serif" font-size="10.00">_local::ext_merger&lt; BlockType,</text>
<text text-anchor="middle" x="1465" y="-520.5" font-family="Helvetica,sans-Serif" font-size="10.00"> Cmp, Arity, AllocStr &gt;</text>
</a>
</g>
<!-- Node2&#45;&gt;Node10 -->
<g id="edge26" class="edge"><title>Node2&#45;&gt;Node10</title>
<path fill="none" stroke="#8b1a1a" d="M454.489,-552.858C475.992,-565.547 507.981,-582.844 538,-593 614.14,-618.76 635.938,-617.861 716,-625 959.093,-646.677 1245.22,-589.619 1382.87,-556.979"/>
<polygon fill="#8b1a1a" stroke="#8b1a1a" points="456.048,-549.711 445.673,-547.565 452.445,-555.713 456.048,-549.711"/>
</g>
<!-- Node13 -->
<g id="node30" class="node"><title>Node13</title>
<a xlink:href="structstxxl_1_1priority__queue__local_1_1ext__merger_1_1sequence__state.html" target="_top" xlink:title="stxxl::priority_queue\l_local::ext_merger\&lt; BlockType,\l Cmp, Arity, AllocStr \&gt;::sequence_state">
<polygon fill="none" stroke="black" points="1672.5,-512.5 1672.5,-559.5 1869.5,-559.5 1869.5,-512.5 1672.5,-512.5"/>
<text text-anchor="start" x="1680.5" y="-546.5" font-family="Helvetica,sans-Serif" font-size="10.00">stxxl::priority_queue</text>
<text text-anchor="start" x="1680.5" y="-533.5" font-family="Helvetica,sans-Serif" font-size="10.00">_local::ext_merger&lt; BlockType,</text>
<text text-anchor="middle" x="1771" y="-520.5" font-family="Helvetica,sans-Serif" font-size="10.00"> Cmp, Arity, AllocStr &gt;::sequence_state</text>
</a>
</g>
<!-- Node2&#45;&gt;Node13 -->
<g id="edge38" class="edge"><title>Node2&#45;&gt;Node13</title>
<path fill="none" stroke="#8b1a1a" d="M446.64,-554.748C466.932,-574.148 502.096,-604.761 538,-622 709.234,-704.219 764.05,-720 954,-720 954,-720 954,-720 1465,-720 1588.05,-720 1704.25,-609.374 1750.25,-559.678"/>
<polygon fill="#8b1a1a" stroke="#8b1a1a" points="448.983,-552.144 439.378,-547.672 444.098,-557.158 448.983,-552.144"/>
</g>
<!-- Node14 -->
<g id="node36" class="node"><title>Node14</title>
<a xlink:href="classstxxl_1_1priority__queue__local_1_1loser__tree.html" target="_top" xlink:title="stxxl::priority_queue\l_local::loser_tree\&lt; value\l_type, comparator_type,\l IntKMAX \&gt;">
<polygon fill="none" stroke="black" points="1062.5,-295 1062.5,-355 1193.5,-355 1193.5,-295 1062.5,-295"/>
<text text-anchor="start" x="1070.5" y="-342" font-family="Helvetica,sans-Serif" font-size="10.00">stxxl::priority_queue</text>
<text text-anchor="start" x="1070.5" y="-329" font-family="Helvetica,sans-Serif" font-size="10.00">_local::loser_tree&lt; value</text>
<text text-anchor="start" x="1070.5" y="-316" font-family="Helvetica,sans-Serif" font-size="10.00">_type, comparator_type,</text>
<text text-anchor="middle" x="1128" y="-303" font-family="Helvetica,sans-Serif" font-size="10.00"> IntKMAX &gt;</text>
</a>
</g>
<!-- Node2&#45;&gt;Node14 -->
<g id="edge48" class="edge"><title>Node2&#45;&gt;Node14</title>
<path fill="none" stroke="#8b1a1a" d="M443.672,-518.326C462.728,-495.569 498.288,-457.94 538,-440 675.1,-378.064 725.052,-420.142 874,-399 937.299,-390.015 954.808,-394.523 1016,-376 1034,-370.553 1052.85,-362.824 1069.85,-355.026"/>
<polygon fill="#8b1a1a" stroke="#8b1a1a" points="440.818,-516.288 437.203,-526.247 446.239,-520.716 440.818,-516.288"/>
</g>
<!-- Node16 -->
<g id="node43" class="node"><title>Node16</title>
<a xlink:href="classstxxl_1_1priority__queue__local_1_1loser__tree.html" target="_top" xlink:title="Loser tree from Knuth, &quot;Sorting and Searching&quot;, Section 5.4.1. ">
<polygon fill="none" stroke="black" points="716,-301.5 716,-348.5 874,-348.5 874,-301.5 716,-301.5"/>
<text text-anchor="start" x="724" y="-335.5" font-family="Helvetica,sans-Serif" font-size="10.00">stxxl::priority_queue</text>
<text text-anchor="start" x="724" y="-322.5" font-family="Helvetica,sans-Serif" font-size="10.00">_local::loser_tree&lt; ValueType,</text>
<text text-anchor="middle" x="795" y="-309.5" font-family="Helvetica,sans-Serif" font-size="10.00"> CompareType, MaxArity &gt;</text>
</a>
</g>
<!-- Node2&#45;&gt;Node16 -->
<g id="edge58" class="edge"><title>Node2&#45;&gt;Node16</title>
<path fill="none" stroke="#8b1a1a" d="M441.056,-517.617C458.985,-490.312 495.197,-440.662 538,-412 567.6,-392.179 651.934,-365.411 715.994,-346.823"/>
<polygon fill="#8b1a1a" stroke="#8b1a1a" points="437.956,-515.967 435.496,-526.272 443.846,-519.75 437.956,-515.967"/>
</g>
<!-- Node3&#45;&gt;Node1 -->
<g id="edge4" class="edge"><title>Node3&#45;&gt;Node1</title>
<path fill="none" stroke="#9a32cd" stroke-dasharray="5,2" d="M1194.34,-515.842C1297.09,-483.091 1499.03,-412.557 1654,-320 1692.57,-296.962 1731.82,-261.868 1753.63,-241.103"/>
<polygon fill="#9a32cd" stroke="#9a32cd" points="1193.18,-512.536 1184.71,-518.894 1195.3,-519.209 1193.18,-512.536"/>
<text text-anchor="middle" x="1465" y="-461" font-family="Helvetica,sans-Serif" font-size="10.00"> pool</text>
</g>
<!-- Node3&#45;&gt;Node10 -->
<g id="edge28" class="edge"><title>Node3&#45;&gt;Node10</title>
<path fill="none" stroke="#9a32cd" stroke-dasharray="5,2" d="M1198,-536C1251.82,-536 1326.3,-536 1382.93,-536"/>
<polygon fill="#9a32cd" stroke="#9a32cd" points="1197.86,-532.5 1187.86,-536 1197.86,-539.5 1197.86,-532.5"/>
<text text-anchor="middle" x="1290" y="-540" font-family="Helvetica,sans-Serif" font-size="10.00"> pool</text>
</g>
<!-- Node4&#45;&gt;Node3 -->
<g id="edge8" class="edge"><title>Node4&#45;&gt;Node3</title>
<path fill="none" stroke="#9a32cd" stroke-dasharray="5,2" d="M858.569,-592.456C902.955,-587.309 963.431,-579.14 1016,-568 1035.09,-563.954 1055.7,-558.412 1073.98,-553.076"/>
<polygon fill="#9a32cd" stroke="#9a32cd" points="858.04,-588.993 848.501,-593.603 858.833,-595.948 858.04,-588.993"/>
<text text-anchor="middle" x="954" y="-591" font-family="Helvetica,sans-Serif" font-size="10.00"> p_pool</text>
</g>
<!-- Node5 -->
<g id="node10" class="node"><title>Node5</title>
<a xlink:href="structstxxl_1_1choose__int__types.html" target="_top" xlink:title="stxxl::choose_int_types\l\&lt; my_pointer_size \&gt;">
<polygon fill="none" stroke="black" points="366.5,-175 366.5,-209 491.5,-209 491.5,-175 366.5,-175"/>
<text text-anchor="start" x="374.5" y="-196" font-family="Helvetica,sans-Serif" font-size="10.00">stxxl::choose_int_types</text>
<text text-anchor="middle" x="429" y="-183" font-family="Helvetica,sans-Serif" font-size="10.00">&lt; my_pointer_size &gt;</text>
</a>
</g>
<!-- Node5&#45;&gt;Node1 -->
<g id="edge44" class="edge"><title>Node5&#45;&gt;Node1</title>
<path fill="none" stroke="#9a32cd" stroke-dasharray="5,2" d="M456.075,-168.598C476.976,-151.976 507.405,-130.769 538,-120 646.212,-81.9119 680.281,-96 795,-96 795,-96 795,-96 1465,-96 1578.44,-96 1698.5,-171.799 1747.81,-206.737"/>
<polygon fill="#9a32cd" stroke="#9a32cd" points="453.828,-165.915 448.278,-174.94 458.244,-171.346 453.828,-165.915"/>
<text text-anchor="middle" x="1128" y="-100" font-family="Helvetica,sans-Serif" font-size="10.00"> num_active_groups</text>
</g>
<!-- Node5&#45;&gt;Node4 -->
<g id="edge12" class="edge"><title>Node5&#45;&gt;Node4</title>
<path fill="none" stroke="#9a32cd" stroke-dasharray="5,2" d="M445.107,-218.032C465.378,-250.127 501.924,-305.842 538,-350 610.189,-438.362 631.954,-457.829 716,-535 734.202,-551.714 756.123,-569.287 772.25,-581.782"/>
<polygon fill="#9a32cd" stroke="#9a32cd" points="447.877,-215.861 439.596,-209.252 441.948,-219.582 447.877,-215.861"/>
<text text-anchor="middle" x="618" y="-521" font-family="Helvetica,sans-Serif" font-size="10.00"> free_blocks_size</text>
</g>
<!-- Node5&#45;&gt;Node10 -->
<g id="edge34" class="edge"><title>Node5&#45;&gt;Node10</title>
<path fill="none" stroke="#9a32cd" stroke-dasharray="5,2" d="M501.817,-183.833C613.854,-173.334 834.572,-160.873 1016,-201 1112.71,-222.389 1144.24,-224.656 1222,-286 1302.96,-349.873 1281.49,-404.856 1358,-474 1374.65,-489.043 1395.53,-502.135 1414.42,-512.364"/>
<polygon fill="#9a32cd" stroke="#9a32cd" points="501.266,-180.37 491.646,-184.809 501.935,-187.338 501.266,-180.37"/>
<text text-anchor="middle" x="954" y="-218" font-family="Helvetica,sans-Serif" font-size="10.00"> k</text>
<text text-anchor="middle" x="954" y="-205" font-family="Helvetica,sans-Serif" font-size="10.00">log_k</text>
</g>
<!-- Node5&#45;&gt;Node13 -->
<g id="edge42" class="edge"><title>Node5&#45;&gt;Node13</title>
<path fill="none" stroke="#9a32cd" stroke-dasharray="5,2" d="M501.765,-174.463C513.803,-172.192 526.203,-170.231 538,-169 840.475,-137.435 927.856,-110.757 1222,-188 1429.43,-242.472 1484.75,-271.283 1654,-403 1695.5,-435.298 1733.76,-483.79 1754.6,-512.431"/>
<polygon fill="#9a32cd" stroke="#9a32cd" points="500.895,-171.067 491.76,-176.434 502.248,-177.935 500.895,-171.067"/>
<text text-anchor="middle" x="1128" y="-192" font-family="Helvetica,sans-Serif" font-size="10.00"> current</text>
</g>
<!-- Node5&#45;&gt;Node14 -->
<g id="edge50" class="edge"><title>Node5&#45;&gt;Node14</title>
<path fill="none" stroke="#9a32cd" stroke-dasharray="5,2" d="M502.017,-191.313C590.98,-191.941 745.335,-197.774 874,-227 941.524,-242.338 1014.95,-272.215 1065.4,-294.968"/>
<polygon fill="#9a32cd" stroke="#9a32cd" points="501.781,-187.812 491.764,-191.262 501.746,-194.812 501.781,-187.812"/>
<text text-anchor="middle" x="795" y="-283" font-family="Helvetica,sans-Serif" font-size="10.00"> segment_size</text>
<text text-anchor="middle" x="795" y="-270" font-family="Helvetica,sans-Serif" font-size="10.00">mem_cons_</text>
<text text-anchor="middle" x="795" y="-257" font-family="Helvetica,sans-Serif" font-size="10.00">k</text>
<text text-anchor="middle" x="795" y="-244" font-family="Helvetica,sans-Serif" font-size="10.00">size_</text>
<text text-anchor="middle" x="795" y="-231" font-family="Helvetica,sans-Serif" font-size="10.00">logK</text>
</g>
<!-- Node5&#45;&gt;Node16 -->
<g id="edge60" class="edge"><title>Node5&#45;&gt;Node16</title>
<path fill="none" stroke="#9a32cd" stroke-dasharray="5,2" d="M496.525,-211.73C510.191,-215.399 524.507,-219.013 538,-222 608.412,-237.589 640.493,-205.483 698,-249 712.902,-260.277 702.825,-273.746 716,-287 721.365,-292.397 727.648,-297.135 734.285,-301.266"/>
<polygon fill="#9a32cd" stroke="#9a32cd" points="497.278,-208.308 486.71,-209.057 495.439,-215.062 497.278,-208.308"/>
<text text-anchor="middle" x="618" y="-305" font-family="Helvetica,sans-Serif" font-size="10.00"> segment_size</text>
<text text-anchor="middle" x="618" y="-292" font-family="Helvetica,sans-Serif" font-size="10.00">mem_cons_</text>
<text text-anchor="middle" x="618" y="-279" font-family="Helvetica,sans-Serif" font-size="10.00">k</text>
<text text-anchor="middle" x="618" y="-266" font-family="Helvetica,sans-Serif" font-size="10.00">size_</text>
<text text-anchor="middle" x="618" y="-253" font-family="Helvetica,sans-Serif" font-size="10.00">logK</text>
</g>
<!-- Node6 -->
<g id="node12" class="node"><title>Node6</title>
<a xlink:href="structstxxl_1_1choose__int__types.html" target="_top" xlink:title="stxxl::choose_int_types\l\&lt; PtrSize \&gt;">
<polygon fill="none" stroke="black" points="19.5,-175 19.5,-209 144.5,-209 144.5,-175 19.5,-175"/>
<text text-anchor="start" x="27.5" y="-196" font-family="Helvetica,sans-Serif" font-size="10.00">stxxl::choose_int_types</text>
<text text-anchor="middle" x="82" y="-183" font-family="Helvetica,sans-Serif" font-size="10.00">&lt; PtrSize &gt;</text>
</a>
</g>
<!-- Node6&#45;&gt;Node5 -->
<g id="edge14" class="edge"><title>Node6&#45;&gt;Node5</title>
<path fill="none" stroke="orange" stroke-dasharray="5,2" d="M155.04,-192C217.66,-192 306.915,-192 366.336,-192"/>
<polygon fill="orange" stroke="orange" points="154.839,-188.5 144.839,-192 154.839,-195.5 154.839,-188.5"/>
<text text-anchor="middle" x="251" y="-196" font-family="Helvetica,sans-Serif" font-size="10.00"> &lt; my_pointer_size &gt;</text>
</g>
<!-- Node7 -->
<g id="node14" class="node"><title>Node7</title>
<a xlink:href="structstxxl_1_1compat__hash__map.html" target="_top" xlink:title="stxxl::compat_hash\l_map\&lt; bid_type, busy\l_entry, bid_hash \&gt;">
<polygon fill="none" stroke="black" points="370,-677.5 370,-724.5 488,-724.5 488,-677.5 370,-677.5"/>
<text text-anchor="start" x="378" y="-711.5" font-family="Helvetica,sans-Serif" font-size="10.00">stxxl::compat_hash</text>
<text text-anchor="start" x="378" y="-698.5" font-family="Helvetica,sans-Serif" font-size="10.00">_map&lt; bid_type, busy</text>
<text text-anchor="middle" x="429" y="-685.5" font-family="Helvetica,sans-Serif" font-size="10.00">_entry, bid_hash &gt;</text>
</a>
</g>
<!-- Node7&#45;&gt;Node4 -->
<g id="edge16" class="edge"><title>Node7&#45;&gt;Node4</title>
<path fill="none" stroke="#9a32cd" stroke-dasharray="5,2" d="M497.912,-681.795C568.492,-662.125 676.741,-631.957 741.24,-613.982"/>
<polygon fill="#9a32cd" stroke="#9a32cd" points="496.904,-678.442 488.211,-684.499 498.784,-685.185 496.904,-678.442"/>
<text text-anchor="middle" x="618" y="-672" font-family="Helvetica,sans-Serif" font-size="10.00"> busy_blocks</text>
</g>
<!-- Node8 -->
<g id="node16" class="node"><title>Node8</title>
<a xlink:href="structstxxl_1_1compat__hash__map.html" target="_top" xlink:title="stxxl::compat_hash\l_map\&lt; KeyType, MappedType,\l HashType \&gt;">
<polygon fill="none" stroke="black" points="0,-660.5 0,-707.5 164,-707.5 164,-660.5 0,-660.5"/>
<text text-anchor="start" x="8" y="-694.5" font-family="Helvetica,sans-Serif" font-size="10.00">stxxl::compat_hash</text>
<text text-anchor="start" x="8" y="-681.5" font-family="Helvetica,sans-Serif" font-size="10.00">_map&lt; KeyType, MappedType,</text>
<text text-anchor="middle" x="82" y="-668.5" font-family="Helvetica,sans-Serif" font-size="10.00"> HashType &gt;</text>
</a>
</g>
<!-- Node8&#45;&gt;Node7 -->
<g id="edge18" class="edge"><title>Node8&#45;&gt;Node7</title>
<path fill="none" stroke="orange" stroke-dasharray="5,2" d="M174.311,-681.354C218.46,-680.864 272.026,-681.396 320,-685 336.212,-686.218 353.675,-688.391 369.77,-690.75"/>
<polygon fill="orange" stroke="orange" points="174.127,-677.856 164.173,-681.487 174.218,-684.856 174.127,-677.856"/>
<text text-anchor="start" x="195.5" y="-702" font-family="Helvetica,sans-Serif" font-size="10.00"> &lt; bid_type, busy_entry,</text>
<text text-anchor="middle" x="251" y="-689" font-family="Helvetica,sans-Serif" font-size="10.00"> bid_hash &gt;</text>
</g>
<!-- Node9&#45;&gt;Node3 -->
<g id="edge20" class="edge"><title>Node9&#45;&gt;Node3</title>
<path fill="none" stroke="#9a32cd" stroke-dasharray="5,2" d="M853.915,-513.777C914.313,-518.674 1007.74,-526.249 1068.39,-531.167"/>
<polygon fill="#9a32cd" stroke="#9a32cd" points="854.028,-510.275 843.778,-512.955 853.462,-517.252 854.028,-510.275"/>
<text text-anchor="middle" x="954" y="-530" font-family="Helvetica,sans-Serif" font-size="10.00"> w_pool</text>
</g>
<!-- Node10&#45;&gt;Node1 -->
<g id="edge24" class="edge"><title>Node10&#45;&gt;Node1</title>
<path fill="none" stroke="#9a32cd" stroke-dasharray="5,2" d="M1518.52,-507.38C1558.91,-484.02 1614,-448.216 1654,-407 1705.21,-354.229 1746.29,-275.672 1762.96,-241.231"/>
<polygon fill="#9a32cd" stroke="#9a32cd" points="1516.57,-504.464 1509.62,-512.464 1520.04,-510.542 1516.57,-504.464"/>
<text text-anchor="middle" x="1622" y="-463" font-family="Helvetica,sans-Serif" font-size="10.00"> ext_mergers</text>
</g>
<!-- Node10&#45;&gt;Node13 -->
<g id="edge40" class="edge"><title>Node10&#45;&gt;Node13</title>
<path fill="none" stroke="#9a32cd" stroke-dasharray="5,2" d="M1557.27,-522.022C1568.28,-520.778 1579.38,-519.719 1590,-519 1618.38,-517.079 1625.63,-516.95 1654,-519 1660.04,-519.436 1666.24,-519.998 1672.49,-520.65"/>
<polygon fill="#9a32cd" stroke="#9a32cd" points="1556.73,-518.562 1547.21,-523.212 1557.55,-525.514 1556.73,-518.562"/>
<text text-anchor="middle" x="1622" y="-523" font-family="Helvetica,sans-Serif" font-size="10.00"> merger</text>
</g>
<!-- Node11 -->
<g id="node25" class="node"><title>Node11</title>
<a xlink:href="classstxxl_1_1priority__queue__local_1_1internal__bounded__stack.html" target="_top" xlink:title="stxxl::priority_queue\l_local::internal_bounded\l_stack\&lt; unsigned_type, arity \&gt;">
<polygon fill="none" stroke="black" points="538,-745.5 538,-792.5 698,-792.5 698,-745.5 538,-745.5"/>
<text text-anchor="start" x="546" y="-779.5" font-family="Helvetica,sans-Serif" font-size="10.00">stxxl::priority_queue</text>
<text text-anchor="start" x="546" y="-766.5" font-family="Helvetica,sans-Serif" font-size="10.00">_local::internal_bounded</text>
<text text-anchor="middle" x="618" y="-753.5" font-family="Helvetica,sans-Serif" font-size="10.00">_stack&lt; unsigned_type, arity &gt;</text>
</a>
</g>
<!-- Node11&#45;&gt;Node10 -->
<g id="edge30" class="edge"><title>Node11&#45;&gt;Node10</title>
<path fill="none" stroke="#9a32cd" stroke-dasharray="5,2" d="M708.376,-755.286C901.338,-725.981 1336.47,-659.763 1340,-658 1386.53,-634.777 1426.82,-587.916 1448.34,-559.511"/>
<polygon fill="#9a32cd" stroke="#9a32cd" points="707.616,-751.861 698.254,-756.823 708.667,-758.782 707.616,-751.861"/>
<text text-anchor="middle" x="954" y="-730" font-family="Helvetica,sans-Serif" font-size="10.00"> free_segments</text>
</g>
<!-- Node12 -->
<g id="node27" class="node"><title>Node12</title>
<a xlink:href="classstxxl_1_1priority__queue__local_1_1internal__bounded__stack.html" target="_top" xlink:title="Similar to std::stack, with the following differences: ">
<polygon fill="none" stroke="black" points="1.5,-735.5 1.5,-782.5 162.5,-782.5 162.5,-735.5 1.5,-735.5"/>
<text text-anchor="start" x="9.5" y="-769.5" font-family="Helvetica,sans-Serif" font-size="10.00">stxxl::priority_queue</text>
<text text-anchor="start" x="9.5" y="-756.5" font-family="Helvetica,sans-Serif" font-size="10.00">_local::internal_bounded</text>
<text text-anchor="middle" x="82" y="-743.5" font-family="Helvetica,sans-Serif" font-size="10.00">_stack&lt; ValueType, MaxSize &gt;</text>
</a>
</g>
<!-- Node12&#45;&gt;Node11 -->
<g id="edge32" class="edge"><title>Node12&#45;&gt;Node11</title>
<path fill="none" stroke="orange" stroke-dasharray="5,2" d="M172.543,-760.689C274.862,-762.598 439.863,-765.677 537.739,-767.503"/>
<polygon fill="orange" stroke="orange" points="172.598,-757.19 162.535,-760.503 172.468,-764.189 172.598,-757.19"/>
<text text-anchor="middle" x="251" y="-767" font-family="Helvetica,sans-Serif" font-size="10.00"> &lt; unsigned_type, arity &gt;</text>
</g>
<!-- Node15 -->
<g id="node40" class="node"><title>Node15</title>
<a xlink:href="classstxxl_1_1priority__queue__local_1_1internal__bounded__stack.html" target="_top" xlink:title="stxxl::priority_queue\l_local::internal_bounded\l_stack\&lt; unsigned_type, MaxArity \&gt;">
<polygon fill="none" stroke="black" points="338.5,-361.5 338.5,-408.5 519.5,-408.5 519.5,-361.5 338.5,-361.5"/>
<text text-anchor="start" x="346.5" y="-395.5" font-family="Helvetica,sans-Serif" font-size="10.00">stxxl::priority_queue</text>
<text text-anchor="start" x="346.5" y="-382.5" font-family="Helvetica,sans-Serif" font-size="10.00">_local::internal_bounded</text>
<text text-anchor="middle" x="429" y="-369.5" font-family="Helvetica,sans-Serif" font-size="10.00">_stack&lt; unsigned_type, MaxArity &gt;</text>
</a>
</g>
<!-- Node12&#45;&gt;Node15 -->
<g id="edge54" class="edge"><title>Node12&#45;&gt;Node15</title>
<path fill="none" stroke="orange" stroke-dasharray="5,2" d="M172.409,-736.054C175.642,-735.343 178.846,-734.656 182,-734 212.438,-727.669 298.829,-733.767 320,-711 349.483,-679.294 323.233,-557.7 338,-517 353.284,-474.873 385.336,-433.525 407.02,-408.638"/>
<polygon fill="orange" stroke="orange" points="171.637,-732.64 162.649,-738.251 173.174,-739.47 171.637,-732.64"/>
<text text-anchor="middle" x="251" y="-738" font-family="Helvetica,sans-Serif" font-size="10.00"> &lt; unsigned_type, MaxArity &gt;</text>
</g>
<!-- Node13&#45;&gt;Node10 -->
<g id="edge36" class="edge"><title>Node13&#45;&gt;Node10</title>
<path fill="none" stroke="#9a32cd" stroke-dasharray="5,2" d="M1662.35,-536C1624.38,-536 1582.43,-536 1547,-536"/>
<polygon fill="#9a32cd" stroke="#9a32cd" points="1662.42,-539.5 1672.42,-536 1662.42,-532.5 1662.42,-539.5"/>
<text text-anchor="middle" x="1622" y="-540" font-family="Helvetica,sans-Serif" font-size="10.00"> states</text>
</g>
<!-- Node14&#45;&gt;Node1 -->
<g id="edge46" class="edge"><title>Node14&#45;&gt;Node1</title>
<path fill="none" stroke="#9a32cd" stroke-dasharray="5,2" d="M1202.86,-291.243C1292.67,-252.762 1448.81,-192.195 1590,-169 1618.07,-164.389 1626.24,-162.8 1654,-169 1686.42,-176.24 1720.46,-193.491 1743.41,-206.759"/>
<polygon fill="#9a32cd" stroke="#9a32cd" points="1201.38,-288.071 1193.58,-295.243 1204.15,-294.5 1201.38,-288.071"/>
<text text-anchor="middle" x="1465" y="-233" font-family="Helvetica,sans-Serif" font-size="10.00"> int_mergers</text>
</g>
<!-- Node15&#45;&gt;Node14 -->
<g id="edge52" class="edge"><title>Node15&#45;&gt;Node14</title>
<path fill="none" stroke="#9a32cd" stroke-dasharray="5,2" d="M529.669,-386.268C647.118,-386.269 846.804,-381.678 1016,-355 1031.21,-352.602 1047.33,-348.958 1062.46,-345.027"/>
<polygon fill="#9a32cd" stroke="#9a32cd" points="529.616,-382.768 519.612,-386.256 529.608,-389.768 529.616,-382.768"/>
<text text-anchor="middle" x="795" y="-386" font-family="Helvetica,sans-Serif" font-size="10.00"> free_slots</text>
</g>
<!-- Node15&#45;&gt;Node16 -->
<g id="edge62" class="edge"><title>Node15&#45;&gt;Node16</title>
<path fill="none" stroke="#9a32cd" stroke-dasharray="5,2" d="M477.191,-356.726C495.595,-347.366 517.171,-338.056 538,-333 596.455,-318.811 664.577,-317.343 715.994,-319.135"/>
<polygon fill="#9a32cd" stroke="#9a32cd" points="475.392,-353.718 468.154,-361.455 478.637,-359.92 475.392,-353.718"/>
<text text-anchor="middle" x="618" y="-337" font-family="Helvetica,sans-Serif" font-size="10.00"> free_slots</text>
</g>
<!-- Node16&#45;&gt;Node14 -->
<g id="edge56" class="edge"><title>Node16&#45;&gt;Node14</title>
<path fill="none" stroke="orange" stroke-dasharray="5,2" d="M884.623,-325C940.67,-325 1011.61,-325 1062.42,-325"/>
<polygon fill="orange" stroke="orange" points="884.339,-321.5 874.339,-325 884.339,-328.5 884.339,-321.5"/>
<text text-anchor="start" x="892.5" y="-342" font-family="Helvetica,sans-Serif" font-size="10.00"> &lt; value_type, comparator</text>
<text text-anchor="middle" x="954" y="-329" font-family="Helvetica,sans-Serif" font-size="10.00">_type, IntKMAX &gt;</text>
</g>
<!-- Node17 -->
<g id="node48" class="node"><title>Node17</title>
<a xlink:href="classstxxl_1_1priority__queue__local_1_1internal__priority__queue.html" target="_top" xlink:title="stxxl::priority_queue\l_local::internal_priority\l_queue\&lt; value_type, std\l::vector\&lt; value_type \&gt;, comparator_type \&gt;">
<polygon fill="none" stroke="black" points="1358,-4 1358,-64 1572,-64 1572,-4 1358,-4"/>
<text text-anchor="start" x="1366" y="-51" font-family="Helvetica,sans-Serif" font-size="10.00">stxxl::priority_queue</text>
<text text-anchor="start" x="1366" y="-38" font-family="Helvetica,sans-Serif" font-size="10.00">_local::internal_priority</text>
<text text-anchor="start" x="1366" y="-25" font-family="Helvetica,sans-Serif" font-size="10.00">_queue&lt; value_type, std</text>
<text text-anchor="middle" x="1465" y="-12" font-family="Helvetica,sans-Serif" font-size="10.00">::vector&lt; value_type &gt;, comparator_type &gt;</text>
</a>
</g>
<!-- Node17&#45;&gt;Node1 -->
<g id="edge64" class="edge"><title>Node17&#45;&gt;Node1</title>
<path fill="none" stroke="#9a32cd" stroke-dasharray="5,2" d="M1582,-41.8159C1607.06,-47.1802 1632.45,-55.6786 1654,-69 1709.49,-103.303 1747.94,-174.305 1763.41,-206.929"/>
<polygon fill="#9a32cd" stroke="#9a32cd" points="1582.54,-38.3545 1572.05,-39.8414 1581.18,-45.2207 1582.54,-38.3545"/>
<text text-anchor="middle" x="1622" y="-73" font-family="Helvetica,sans-Serif" font-size="10.00"> insert_heap</text>
</g>
<!-- Node18 -->
<g id="node50" class="node"><title>Node18</title>
<a xlink:href="classstxxl_1_1priority__queue__local_1_1internal__priority__queue.html" target="_top" xlink:title="Similar to std::priority_queue, with the following differences: ">
<polygon fill="none" stroke="black" points="1034,-0 1034,-60 1222,-60 1222,-0 1034,-0"/>
<text text-anchor="start" x="1042" y="-47" font-family="Helvetica,sans-Serif" font-size="10.00">stxxl::priority_queue</text>
<text text-anchor="start" x="1042" y="-34" font-family="Helvetica,sans-Serif" font-size="10.00">_local::internal_priority</text>
<text text-anchor="start" x="1042" y="-21" font-family="Helvetica,sans-Serif" font-size="10.00">_queue&lt; ValueType, ContainerType,</text>
<text text-anchor="middle" x="1128" y="-8" font-family="Helvetica,sans-Serif" font-size="10.00"> CompareType &gt;</text>
</a>
</g>
<!-- Node18&#45;&gt;Node17 -->
<g id="edge66" class="edge"><title>Node18&#45;&gt;Node17</title>
<path fill="none" stroke="orange" stroke-dasharray="5,2" d="M1232.34,-31.2384C1272.24,-31.712 1317.78,-32.2525 1357.93,-32.7291"/>
<polygon fill="orange" stroke="orange" points="1232.36,-27.7386 1222.32,-31.1195 1232.28,-34.7381 1232.36,-27.7386"/>
<text text-anchor="start" x="1240.5" y="-62" font-family="Helvetica,sans-Serif" font-size="10.00"> &lt; value_type, std::</text>
<text text-anchor="start" x="1240.5" y="-49" font-family="Helvetica,sans-Serif" font-size="10.00">vector&lt; value_type &gt;</text>
<text text-anchor="middle" x="1290" y="-36" font-family="Helvetica,sans-Serif" font-size="10.00">, comparator_type &gt;</text>
</g>
</g>
</svg>
