<?xml version="1.0" encoding="UTF-8" standalone="no"?>
<!DOCTYPE svg PUBLIC "-//W3C//DTD SVG 1.1//EN"
 "http://www.w3.org/Graphics/SVG/1.1/DTD/svg11.dtd">
<!-- Generated by graphviz version 2.26.3 (20100126.1600)
 -->
<!-- Title: stxxl::block_manager Pages: 1 -->
<svg width="1276pt" height="297pt"
 viewBox="0.00 0.00 1276.00 296.69" xmlns="http://www.w3.org/2000/svg" xmlns:xlink="http://www.w3.org/1999/xlink">
<g id="graph1" class="graph" transform="scale(1 1) rotate(0) translate(4 292.692)">
<title>stxxl::block_manager</title>
<!-- Node1 -->
<g id="node1" class="node"><title>Node1</title>
<polygon fill="#bfbfbf" stroke="black" points="1154,-167.5 1154,-188.5 1268,-188.5 1268,-167.5 1154,-167.5"/>
<text text-anchor="middle" x="1211" y="-175.5" font-family="Helvetica,sans-Serif" font-size="10.00">stxxl::block_manager</text>
</g>
<!-- Node2 -->
<g id="node2" class="node"><title>Node2</title>
<a xlink:href="classstxxl_1_1singleton.html" target="_top" xlink:title="stxxl::singleton\&lt; block\l_manager \&gt;">
<polygon fill="none" stroke="black" points="578,-235 578,-269 696,-269 696,-235 578,-235"/>
<text text-anchor="start" x="586" y="-256" font-family="Helvetica,sans-Serif" font-size="10.00">stxxl::singleton&lt; block</text>
<text text-anchor="middle" x="637" y="-243" font-family="Helvetica,sans-Serif" font-size="10.00">_manager &gt;</text>
</a>
</g>
<!-- Node2&#45;&gt;Node1 -->
<g id="edge2" class="edge"><title>Node2&#45;&gt;Node1</title>
<path fill="none" stroke="midnightblue" d="M706.401,-243.683C802.843,-232.025 982.821,-209.901 1136,-189 1141.74,-188.217 1147.72,-187.378 1153.69,-186.526"/>
<polygon fill="midnightblue" stroke="midnightblue" points="705.705,-240.242 696.197,-244.916 706.545,-247.191 705.705,-240.242"/>
</g>
<!-- Node3 -->
<g id="node4" class="node"><title>Node3</title>
<a xlink:href="classstxxl_1_1noncopyable.html" target="_top" xlink:title="stxxl::noncopyable">
<polygon fill="none" stroke="black" points="12,-196.5 12,-217.5 114,-217.5 114,-196.5 12,-196.5"/>
<text text-anchor="middle" x="63" y="-204.5" font-family="Helvetica,sans-Serif" font-size="10.00">stxxl::noncopyable</text>
</a>
</g>
<!-- Node3&#45;&gt;Node2 -->
<g id="edge4" class="edge"><title>Node3&#45;&gt;Node2</title>
<path fill="none" stroke="#8b1a1a" d="M93.2752,-222.095C131.463,-240.115 199.685,-268.953 262,-278 393.13,-297.037 428.773,-287.361 560,-269 565.83,-268.184 571.874,-267.163 577.895,-266.028"/>
<polygon fill="#8b1a1a" stroke="#8b1a1a" points="94.3132,-218.712 83.7827,-217.546 91.2876,-225.024 94.3132,-218.712"/>
</g>
<!-- Node4 -->
<g id="node6" class="node"><title>Node4</title>
<a xlink:href="classstxxl_1_1singleton.html" target="_top" xlink:title="stxxl::singleton\&lt; INSTANCE,\l destroy_on_exit \&gt;">
<polygon fill="none" stroke="black" points="262.5,-235 262.5,-269 411.5,-269 411.5,-235 262.5,-235"/>
<text text-anchor="start" x="270.5" y="-256" font-family="Helvetica,sans-Serif" font-size="10.00">stxxl::singleton&lt; INSTANCE,</text>
<text text-anchor="middle" x="337" y="-243" font-family="Helvetica,sans-Serif" font-size="10.00"> destroy_on_exit &gt;</text>
</a>
</g>
<!-- Node3&#45;&gt;Node4 -->
<g id="edge8" class="edge"><title>Node3&#45;&gt;Node4</title>
<path fill="none" stroke="#8b1a1a" d="M124.626,-217.73C131.165,-218.845 137.718,-219.953 144,-221 182.998,-227.502 226.471,-234.506 262.27,-240.209"/>
<polygon fill="#8b1a1a" stroke="#8b1a1a" points="124.851,-214.218 114.404,-215.979 123.67,-221.117 124.851,-214.218"/>
</g>
<!-- Node5 -->
<g id="node9" class="node"><title>Node5</title>
<a xlink:href="classstxxl_1_1file.html" target="_top" xlink:title="Defines interface of file. ">
<polygon fill="none" stroke="black" points="804,-159.5 804,-180.5 860,-180.5 860,-159.5 804,-159.5"/>
<text text-anchor="middle" x="832" y="-167.5" font-family="Helvetica,sans-Serif" font-size="10.00">stxxl::file</text>
</a>
</g>
<!-- Node3&#45;&gt;Node5 -->
<g id="edge12" class="edge"><title>Node3&#45;&gt;Node5</title>
<path fill="none" stroke="#8b1a1a" d="M124.475,-205.222C237.59,-201.937 486.336,-194.641 696,-188 736.002,-186.733 746.584,-191.939 786,-185 791.791,-183.98 797.854,-182.397 803.608,-180.634"/>
<polygon fill="#8b1a1a" stroke="#8b1a1a" points="124.177,-201.73 114.283,-205.518 124.38,-208.727 124.177,-201.73"/>
</g>
<!-- Node7 -->
<g id="node14" class="node"><title>Node7</title>
<a xlink:href="classstxxl_1_1mutex.html" target="_top" xlink:title="stxxl::mutex">
<polygon fill="none" stroke="black" points="302,-151.5 302,-172.5 372,-172.5 372,-151.5 302,-151.5"/>
<text text-anchor="middle" x="337" y="-159.5" font-family="Helvetica,sans-Serif" font-size="10.00">stxxl::mutex</text>
</a>
</g>
<!-- Node3&#45;&gt;Node7 -->
<g id="edge18" class="edge"><title>Node3&#45;&gt;Node7</title>
<path fill="none" stroke="#8b1a1a" d="M124.626,-196.27C131.165,-195.155 137.718,-194.047 144,-193 199.065,-183.819 263.054,-173.637 301.761,-167.531"/>
<polygon fill="#8b1a1a" stroke="#8b1a1a" points="123.67,-192.883 114.404,-198.021 124.851,-199.782 123.67,-192.883"/>
</g>
<!-- Node10 -->
<g id="node21" class="node"><title>Node10</title>
<a xlink:href="classstxxl_1_1disk__allocator.html" target="_top" xlink:title="stxxl::disk_allocator">
<polygon fill="none" stroke="black" points="936.5,-113.5 936.5,-134.5 1043.5,-134.5 1043.5,-113.5 936.5,-113.5"/>
<text text-anchor="middle" x="990" y="-121.5" font-family="Helvetica,sans-Serif" font-size="10.00">stxxl::disk_allocator</text>
</a>
</g>
<!-- Node3&#45;&gt;Node10 -->
<g id="edge26" class="edge"><title>Node3&#45;&gt;Node10</title>
<path fill="none" stroke="#8b1a1a" d="M81.3408,-189.038C123.005,-150.225 229.529,-62 337,-62 337,-62 337,-62 832,-62 887.692,-62 947.271,-95.7937 974.642,-113.483"/>
<polygon fill="#8b1a1a" stroke="#8b1a1a" points="78.74,-186.681 73.8917,-196.101 83.5565,-191.761 78.74,-186.681"/>
</g>
<!-- Node4&#45;&gt;Node2 -->
<g id="edge6" class="edge"><title>Node4&#45;&gt;Node2</title>
<path fill="none" stroke="orange" stroke-dasharray="5,2" d="M421.664,-252C471.506,-252 533.309,-252 577.903,-252"/>
<polygon fill="orange" stroke="orange" points="421.543,-248.5 411.543,-252 421.543,-255.5 421.543,-248.5"/>
<text text-anchor="middle" x="495" y="-256" font-family="Helvetica,sans-Serif" font-size="10.00"> &lt; block_manager &gt;</text>
</g>
<!-- Node5&#45;&gt;Node1 -->
<g id="edge10" class="edge"><title>Node5&#45;&gt;Node1</title>
<path fill="none" stroke="#9a32cd" stroke-dasharray="5,2" d="M870.28,-170.808C937.187,-172.22 1075.71,-175.144 1153.96,-176.796"/>
<polygon fill="#9a32cd" stroke="#9a32cd" points="870.249,-167.307 860.177,-170.595 870.101,-174.305 870.249,-167.307"/>
<text text-anchor="middle" x="990" y="-178" font-family="Helvetica,sans-Serif" font-size="10.00"> disk_files</text>
</g>
<!-- Node5&#45;&gt;Node10 -->
<g id="edge28" class="edge"><title>Node5&#45;&gt;Node10</title>
<path fill="none" stroke="#9a32cd" stroke-dasharray="5,2" d="M864.929,-155.681C869.286,-153.998 873.724,-152.389 878,-151 897.689,-144.603 919.764,-138.966 939.078,-134.519"/>
<polygon fill="#9a32cd" stroke="#9a32cd" points="863.586,-152.449 855.612,-159.425 866.196,-158.944 863.586,-152.449"/>
<text text-anchor="middle" x="898" y="-155" font-family="Helvetica,sans-Serif" font-size="10.00"> storage</text>
</g>
<!-- Node6 -->
<g id="node12" class="node"><title>Node6</title>
<a xlink:href="classstxxl_1_1atomic__counted__object.html" target="_top" xlink:title="Provides reference counting abilities for use with counting_ptr with mutex locking. ">
<polygon fill="none" stroke="black" points="579,-145 579,-179 695,-179 695,-145 579,-145"/>
<text text-anchor="start" x="587" y="-166" font-family="Helvetica,sans-Serif" font-size="10.00">stxxl::atomic_counted</text>
<text text-anchor="middle" x="637" y="-153" font-family="Helvetica,sans-Serif" font-size="10.00">_object</text>
</a>
</g>
<!-- Node6&#45;&gt;Node5 -->
<g id="edge14" class="edge"><title>Node6&#45;&gt;Node5</title>
<path fill="none" stroke="#9a32cd" stroke-dasharray="5,2" d="M705.547,-164.812C739.346,-166.199 778.249,-167.795 803.88,-168.846"/>
<polygon fill="#9a32cd" stroke="#9a32cd" points="705.377,-161.302 695.242,-164.389 705.09,-168.296 705.377,-161.302"/>
<text text-anchor="middle" x="750" y="-172" font-family="Helvetica,sans-Serif" font-size="10.00"> m_request_ref</text>
</g>
<!-- Node7&#45;&gt;Node6 -->
<g id="edge16" class="edge"><title>Node7&#45;&gt;Node6</title>
<path fill="none" stroke="#9a32cd" stroke-dasharray="5,2" d="M382.017,-162C434.483,-162 521.319,-162 578.848,-162"/>
<polygon fill="#9a32cd" stroke="#9a32cd" points="382.001,-158.5 372.001,-162 382.001,-165.5 382.001,-158.5"/>
<text text-anchor="middle" x="495" y="-166" font-family="Helvetica,sans-Serif" font-size="10.00"> m_reference_count_mutex</text>
</g>
<!-- Node7&#45;&gt;Node10 -->
<g id="edge30" class="edge"><title>Node7&#45;&gt;Node10</title>
<path fill="none" stroke="#9a32cd" stroke-dasharray="5,2" d="M382.18,-156.057C430.537,-149.946 509.549,-140.682 578,-136 706.326,-127.223 857.565,-124.855 936.275,-124.224"/>
<polygon fill="#9a32cd" stroke="#9a32cd" points="381.524,-152.612 372.047,-157.348 382.409,-159.556 381.524,-152.612"/>
<text text-anchor="middle" x="750" y="-132" font-family="Helvetica,sans-Serif" font-size="10.00"> mutex</text>
</g>
<!-- Node8 -->
<g id="node17" class="node"><title>Node8</title>
<a xlink:href="structstxxl_1_1choose__int__types.html" target="_top" xlink:title="stxxl::choose_int_types\l\&lt; my_pointer_size \&gt;">
<polygon fill="none" stroke="black" points="274.5,-0 274.5,-34 399.5,-34 399.5,-0 274.5,-0"/>
<text text-anchor="start" x="282.5" y="-21" font-family="Helvetica,sans-Serif" font-size="10.00">stxxl::choose_int_types</text>
<text text-anchor="middle" x="337" y="-8" font-family="Helvetica,sans-Serif" font-size="10.00">&lt; my_pointer_size &gt;</text>
</a>
</g>
<!-- Node8&#45;&gt;Node6 -->
<g id="edge20" class="edge"><title>Node8&#45;&gt;Node6</title>
<path fill="none" stroke="#9a32cd" stroke-dasharray="5,2" d="M381.492,-38.5047C441.311,-67.4168 546.478,-118.248 601.373,-144.78"/>
<polygon fill="#9a32cd" stroke="#9a32cd" points="382.823,-35.2602 372.296,-34.0597 379.776,-41.5627 382.823,-35.2602"/>
<text text-anchor="middle" x="495" y="-127" font-family="Helvetica,sans-Serif" font-size="10.00"> m_reference_count</text>
</g>
<!-- Node9 -->
<g id="node19" class="node"><title>Node9</title>
<a xlink:href="structstxxl_1_1choose__int__types.html" target="_top" xlink:title="stxxl::choose_int_types\l\&lt; PtrSize \&gt;">
<polygon fill="none" stroke="black" points="0.5,-0 0.5,-34 125.5,-34 125.5,-0 0.5,-0"/>
<text text-anchor="start" x="8.5" y="-21" font-family="Helvetica,sans-Serif" font-size="10.00">stxxl::choose_int_types</text>
<text text-anchor="middle" x="63" y="-8" font-family="Helvetica,sans-Serif" font-size="10.00">&lt; PtrSize &gt;</text>
</a>
</g>
<!-- Node9&#45;&gt;Node8 -->
<g id="edge22" class="edge"><title>Node9&#45;&gt;Node8</title>
<path fill="none" stroke="orange" stroke-dasharray="5,2" d="M135.672,-17C178.827,-17 232.999,-17 274.277,-17"/>
<polygon fill="orange" stroke="orange" points="135.518,-13.5001 125.518,-17 135.518,-20.5001 135.518,-13.5001"/>
<text text-anchor="middle" x="194" y="-21" font-family="Helvetica,sans-Serif" font-size="10.00"> &lt; my_pointer_size &gt;</text>
</g>
<!-- Node10&#45;&gt;Node1 -->
<g id="edge24" class="edge"><title>Node10&#45;&gt;Node1</title>
<path fill="none" stroke="#9a32cd" stroke-dasharray="5,2" d="M1053.56,-133.44C1079.36,-137.87 1109.31,-143.78 1136,-151 1152.56,-155.481 1170.68,-161.956 1184.95,-167.442"/>
<polygon fill="#9a32cd" stroke="#9a32cd" points="1053.96,-129.959 1043.52,-131.754 1052.8,-136.862 1053.96,-129.959"/>
<text text-anchor="middle" x="1099" y="-155" font-family="Helvetica,sans-Serif" font-size="10.00"> disk_allocators</text>
</g>
</g>
</svg>
