<?xml version="1.0" encoding="UTF-8" standalone="no"?>
<!DOCTYPE svg PUBLIC "-//W3C//DTD SVG 1.1//EN"
 "http://www.w3.org/Graphics/SVG/1.1/DTD/svg11.dtd">
<!-- Generated by graphviz version 2.26.3 (20100126.1600)
 -->
<!-- Title: stxxl::disk_queued_file Pages: 1 -->
<svg width="353pt" height="348pt"
 viewBox="0.00 0.00 353.00 348.00" xmlns="http://www.w3.org/2000/svg" xmlns:xlink="http://www.w3.org/1999/xlink">
<g id="graph1" class="graph" transform="scale(1 1) rotate(0) translate(4 344)">
<title>stxxl::disk_queued_file</title>
<!-- Node1 -->
<g id="node1" class="node"><title>Node1</title>
<polygon fill="#bfbfbf" stroke="black" points="-0.5,-0.5 -0.5,-21.5 120.5,-21.5 120.5,-0.5 -0.5,-0.5"/>
<text text-anchor="middle" x="60" y="-8.5" font-family="Helvetica,sans-Serif" font-size="10.00">stxxl::disk_queued_file</text>
</g>
<!-- Node2 -->
<g id="node2" class="node"><title>Node2</title>
<a xlink:href="classstxxl_1_1file.html" target="_top" xlink:title="Defines interface of file. ">
<polygon fill="none" stroke="black" points="32,-60.5 32,-81.5 88,-81.5 88,-60.5 32,-60.5"/>
<text text-anchor="middle" x="60" y="-68.5" font-family="Helvetica,sans-Serif" font-size="10.00">stxxl::file</text>
</a>
</g>
<!-- Node2&#45;&gt;Node1 -->
<g id="edge2" class="edge"><title>Node2&#45;&gt;Node1</title>
<path fill="none" stroke="midnightblue" d="M60,-50.2312C60,-40.5922 60,-29.5444 60,-21.6339"/>
<polygon fill="midnightblue" stroke="midnightblue" points="56.5001,-50.2732 60,-60.2732 63.5001,-50.2732 56.5001,-50.2732"/>
</g>
<!-- Node3 -->
<g id="node4" class="node"><title>Node3</title>
<a xlink:href="classstxxl_1_1noncopyable.html" target="_top" xlink:title="stxxl::noncopyable">
<polygon fill="none" stroke="black" points="2,-311.5 2,-332.5 104,-332.5 104,-311.5 2,-311.5"/>
<text text-anchor="middle" x="53" y="-319.5" font-family="Helvetica,sans-Serif" font-size="10.00">stxxl::noncopyable</text>
</a>
</g>
<!-- Node3&#45;&gt;Node2 -->
<g id="edge4" class="edge"><title>Node3&#45;&gt;Node2</title>
<path fill="none" stroke="#8b1a1a" d="M51.3318,-300.856C48.8594,-265.728 45.0208,-193.152 50,-132 51.4457,-114.244 55.2212,-93.8667 57.6972,-81.7334"/>
<polygon fill="#8b1a1a" stroke="#8b1a1a" points="47.8735,-301.549 52.1032,-311.263 54.8543,-301.032 47.8735,-301.549"/>
</g>
<!-- Node5 -->
<g id="node8" class="node"><title>Node5</title>
<a xlink:href="classstxxl_1_1mutex.html" target="_top" xlink:title="stxxl::mutex">
<polygon fill="none" stroke="black" points="59,-225.5 59,-246.5 129,-246.5 129,-225.5 59,-225.5"/>
<text text-anchor="middle" x="94" y="-233.5" font-family="Helvetica,sans-Serif" font-size="10.00">stxxl::mutex</text>
</a>
</g>
<!-- Node3&#45;&gt;Node5 -->
<g id="edge10" class="edge"><title>Node3&#45;&gt;Node5</title>
<path fill="none" stroke="#8b1a1a" d="M62.4235,-302.234C70.6694,-284.937 82.3324,-260.474 88.9315,-246.632"/>
<polygon fill="#8b1a1a" stroke="#8b1a1a" points="59.1715,-300.922 58.0274,-311.455 65.4902,-303.934 59.1715,-300.922"/>
</g>
<!-- Node4 -->
<g id="node6" class="node"><title>Node4</title>
<a xlink:href="classstxxl_1_1atomic__counted__object.html" target="_top" xlink:title="Provides reference counting abilities for use with counting_ptr with mutex locking. ">
<polygon fill="none" stroke="black" points="59,-133 59,-167 175,-167 175,-133 59,-133"/>
<text text-anchor="start" x="67" y="-154" font-family="Helvetica,sans-Serif" font-size="10.00">stxxl::atomic_counted</text>
<text text-anchor="middle" x="117" y="-141" font-family="Helvetica,sans-Serif" font-size="10.00">_object</text>
</a>
</g>
<!-- Node4&#45;&gt;Node2 -->
<g id="edge6" class="edge"><title>Node4&#45;&gt;Node2</title>
<path fill="none" stroke="#9a32cd" stroke-dasharray="5,2" d="M98.7356,-124.686C88.2112,-110.1 75.5393,-92.5369 67.6244,-81.5672"/>
<polygon fill="#9a32cd" stroke="#9a32cd" points="95.9423,-126.797 104.632,-132.858 101.619,-122.701 95.9423,-126.797"/>
<text text-anchor="middle" x="127" y="-104.5" font-family="Helvetica,sans-Serif" font-size="10.00"> m_request_ref</text>
</g>
<!-- Node5&#45;&gt;Node4 -->
<g id="edge8" class="edge"><title>Node5&#45;&gt;Node4</title>
<path fill="none" stroke="#9a32cd" stroke-dasharray="5,2" d="M92.0069,-215.277C91.7373,-206.134 92.2648,-195.361 95,-186 96.931,-179.391 100.41,-172.782 104.04,-167.064"/>
<polygon fill="#9a32cd" stroke="#9a32cd" points="88.5234,-215.653 92.636,-225.417 95.5099,-215.219 88.5234,-215.653"/>
<text text-anchor="middle" x="159.5" y="-190.5" font-family="Helvetica,sans-Serif" font-size="10.00"> m_reference_count_mutex</text>
</g>
<!-- Node6 -->
<g id="node11" class="node"><title>Node6</title>
<a xlink:href="structstxxl_1_1choose__int__types.html" target="_top" xlink:title="stxxl::choose_int_types\l\&lt; my_pointer_size \&gt;">
<polygon fill="none" stroke="black" points="183.5,-219 183.5,-253 308.5,-253 308.5,-219 183.5,-219"/>
<text text-anchor="start" x="191.5" y="-240" font-family="Helvetica,sans-Serif" font-size="10.00">stxxl::choose_int_types</text>
<text text-anchor="middle" x="246" y="-227" font-family="Helvetica,sans-Serif" font-size="10.00">&lt; my_pointer_size &gt;</text>
</a>
</g>
<!-- Node6&#45;&gt;Node4 -->
<g id="edge12" class="edge"><title>Node6&#45;&gt;Node4</title>
<path fill="none" stroke="#9a32cd" stroke-dasharray="5,2" d="M238.869,-209.099C235.526,-200.764 230.743,-192.162 224,-186 210.472,-173.638 192.553,-165.503 175.254,-160.158"/>
<polygon fill="#9a32cd" stroke="#9a32cd" points="235.58,-210.297 242.164,-218.598 242.194,-208.003 235.58,-210.297"/>
<text text-anchor="middle" x="280.5" y="-190.5" font-family="Helvetica,sans-Serif" font-size="10.00"> m_reference_count</text>
</g>
<!-- Node7 -->
<g id="node13" class="node"><title>Node7</title>
<a xlink:href="structstxxl_1_1choose__int__types.html" target="_top" xlink:title="stxxl::choose_int_types\l\&lt; PtrSize \&gt;">
<polygon fill="none" stroke="black" points="183.5,-305 183.5,-339 308.5,-339 308.5,-305 183.5,-305"/>
<text text-anchor="start" x="191.5" y="-326" font-family="Helvetica,sans-Serif" font-size="10.00">stxxl::choose_int_types</text>
<text text-anchor="middle" x="246" y="-313" font-family="Helvetica,sans-Serif" font-size="10.00">&lt; PtrSize &gt;</text>
</a>
</g>
<!-- Node7&#45;&gt;Node6 -->
<g id="edge14" class="edge"><title>Node7&#45;&gt;Node6</title>
<path fill="none" stroke="orange" stroke-dasharray="5,2" d="M246,-294.342C246,-280.774 246,-264.861 246,-253.084"/>
<polygon fill="orange" stroke="orange" points="242.5,-294.597 246,-304.597 249.5,-294.597 242.5,-294.597"/>
<text text-anchor="middle" x="295.5" y="-276.5" font-family="Helvetica,sans-Serif" font-size="10.00"> &lt; my_pointer_size &gt;</text>
</g>
</g>
</svg>
