<?xml version="1.0" encoding="UTF-8" standalone="no"?>
<!DOCTYPE svg PUBLIC "-//W3C//DTD SVG 1.1//EN"
 "http://www.w3.org/Graphics/SVG/1.1/DTD/svg11.dtd">
<!-- Generated by graphviz version 2.26.3 (20100126.1600)
 -->
<!-- Title: stxxl::counting_ptr&lt; Type &gt; Pages: 1 -->
<svg width="418pt" height="160pt"
 viewBox="0.00 0.00 418.00 160.00" xmlns="http://www.w3.org/2000/svg" xmlns:xlink="http://www.w3.org/1999/xlink">
<g id="graph1" class="graph" transform="scale(1 1) rotate(0) translate(4 156)">
<title>stxxl::counting_ptr&lt; Type &gt;</title>
<!-- Node1 -->
<g id="node1" class="node"><title>Node1</title>
<polygon fill="#bfbfbf" stroke="black" points="0.5,-52 0.5,-86 101.5,-86 101.5,-52 0.5,-52"/>
<text text-anchor="start" x="8.5" y="-73" font-family="Helvetica,sans-Serif" font-size="10.00">stxxl::counting_ptr</text>
<text text-anchor="middle" x="51" y="-60" font-family="Helvetica,sans-Serif" font-size="10.00">&lt; Type &gt;</text>
</g>
<!-- Node2 -->
<g id="node3" class="node"><title>Node2</title>
<a xlink:href="classstxxl_1_1counting__ptr.html" target="_top" xlink:title="stxxl::counting_ptr\l\&lt; swappable_block_matrix\l_type \&gt;">
<polygon fill="none" stroke="black" points="268,-104.5 268,-151.5 408,-151.5 408,-104.5 268,-104.5"/>
<text text-anchor="start" x="276" y="-138.5" font-family="Helvetica,sans-Serif" font-size="10.00">stxxl::counting_ptr</text>
<text text-anchor="start" x="276" y="-125.5" font-family="Helvetica,sans-Serif" font-size="10.00">&lt; swappable_block_matrix</text>
<text text-anchor="middle" x="338" y="-112.5" font-family="Helvetica,sans-Serif" font-size="10.00">_type &gt;</text>
</a>
</g>
<!-- Node1&#45;&gt;Node2 -->
<g id="edge2" class="edge"><title>Node1&#45;&gt;Node2</title>
<path fill="none" stroke="orange" stroke-dasharray="5,2" d="M111.553,-84.1046C114.405,-84.7577 117.232,-85.3928 120,-86 169.131,-96.7777 224.821,-107.481 267.616,-115.386"/>
<polygon fill="orange" stroke="orange" points="112.335,-80.6933 101.802,-81.8292 110.745,-87.5102 112.335,-80.6933"/>
<text text-anchor="start" x="120.5" y="-127" font-family="Helvetica,sans-Serif" font-size="10.00"> &lt; swappable_block_matrix</text>
<text text-anchor="middle" x="184" y="-114" font-family="Helvetica,sans-Serif" font-size="10.00">_type &gt;</text>
</g>
<!-- Node3 -->
<g id="node5" class="node"><title>Node3</title>
<a xlink:href="classstxxl_1_1counting__ptr.html" target="_top" xlink:title="stxxl::counting_ptr\l\&lt; request \&gt;">
<polygon fill="none" stroke="black" points="287.5,-52 287.5,-86 388.5,-86 388.5,-52 287.5,-52"/>
<text text-anchor="start" x="295.5" y="-73" font-family="Helvetica,sans-Serif" font-size="10.00">stxxl::counting_ptr</text>
<text text-anchor="middle" x="338" y="-60" font-family="Helvetica,sans-Serif" font-size="10.00">&lt; request &gt;</text>
</a>
</g>
<!-- Node1&#45;&gt;Node3 -->
<g id="edge4" class="edge"><title>Node1&#45;&gt;Node3</title>
<path fill="none" stroke="orange" stroke-dasharray="5,2" d="M111.779,-69C163.978,-69 238.353,-69 287.375,-69"/>
<polygon fill="orange" stroke="orange" points="111.649,-65.5001 101.649,-69 111.649,-72.5001 111.649,-65.5001"/>
<text text-anchor="middle" x="184" y="-73" font-family="Helvetica,sans-Serif" font-size="10.00"> &lt; request &gt;</text>
</g>
<!-- Node4 -->
<g id="node7" class="node"><title>Node4</title>
<a xlink:href="classstxxl_1_1counting__ptr.html" target="_top" xlink:title="stxxl::counting_ptr\l\&lt; sorted_runs_data_type \&gt;">
<polygon fill="none" stroke="black" points="266,-0 266,-34 410,-34 410,-0 266,-0"/>
<text text-anchor="start" x="274" y="-21" font-family="Helvetica,sans-Serif" font-size="10.00">stxxl::counting_ptr</text>
<text text-anchor="middle" x="338" y="-8" font-family="Helvetica,sans-Serif" font-size="10.00">&lt; sorted_runs_data_type &gt;</text>
</a>
</g>
<!-- Node1&#45;&gt;Node4 -->
<g id="edge6" class="edge"><title>Node1&#45;&gt;Node4</title>
<path fill="none" stroke="orange" stroke-dasharray="5,2" d="M93.9656,-47.9007C102.431,-44.4396 111.368,-41.2534 120,-39 167.664,-26.5573 222.89,-21.0735 265.831,-18.6921"/>
<polygon fill="orange" stroke="orange" points="92.4648,-44.7359 84.6501,-51.8899 95.2205,-51.1707 92.4648,-44.7359"/>
<text text-anchor="start" x="136" y="-56" font-family="Helvetica,sans-Serif" font-size="10.00"> &lt; sorted_runs_data</text>
<text text-anchor="middle" x="184" y="-43" font-family="Helvetica,sans-Serif" font-size="10.00">_type &gt;</text>
</g>
</g>
</svg>
