<?xml version="1.0" encoding="UTF-8" standalone="no"?>
<!DOCTYPE svg PUBLIC "-//W3C//DTD SVG 1.1//EN"
 "http://www.w3.org/Graphics/SVG/1.1/DTD/svg11.dtd">
<!-- Generated by graphviz version 2.26.3 (20100126.1600)
 -->
<!-- Title: stxxl::request_queue_impl_qwqr Pages: 1 -->
<svg width="1038pt" height="276pt"
 viewBox="0.00 0.00 1038.00 276.33" xmlns="http://www.w3.org/2000/svg" xmlns:xlink="http://www.w3.org/1999/xlink">
<g id="graph1" class="graph" transform="scale(1 1) rotate(0) translate(4 272.333)">
<title>stxxl::request_queue_impl_qwqr</title>
<!-- Node1 -->
<g id="node1" class="node"><title>Node1</title>
<polygon fill="#bfbfbf" stroke="black" points="918,-164.333 918,-198.333 1030,-198.333 1030,-164.333 918,-164.333"/>
<text text-anchor="start" x="926" y="-185.333" font-family="Helvetica,sans-Serif" font-size="10.00">stxxl::request_queue</text>
<text text-anchor="middle" x="974" y="-172.333" font-family="Helvetica,sans-Serif" font-size="10.00">_impl_qwqr</text>
</g>
<!-- Node2 -->
<g id="node2" class="node"><title>Node2</title>
<a xlink:href="classstxxl_1_1request__queue__impl__worker.html" target="_top" xlink:title="Implementation of request queue worker threads. Worker threads can be started by start_thread and sto...">
<polygon fill="none" stroke="black" points="568,-234.333 568,-268.333 680,-268.333 680,-234.333 568,-234.333"/>
<text text-anchor="start" x="576" y="-255.333" font-family="Helvetica,sans-Serif" font-size="10.00">stxxl::request_queue</text>
<text text-anchor="middle" x="624" y="-242.333" font-family="Helvetica,sans-Serif" font-size="10.00">_impl_worker</text>
</a>
</g>
<!-- Node2&#45;&gt;Node1 -->
<g id="edge2" class="edge"><title>Node2&#45;&gt;Node1</title>
<path fill="none" stroke="midnightblue" d="M690.293,-248.785C746.957,-245.229 830.161,-236.716 900,-216.333 914.87,-211.993 930.493,-205.004 943.532,-198.408"/>
<polygon fill="midnightblue" stroke="midnightblue" points="689.807,-245.308 680.031,-249.393 690.221,-252.295 689.807,-245.308"/>
</g>
<!-- Node3 -->
<g id="node4" class="node"><title>Node3</title>
<a xlink:href="classstxxl_1_1request__queue.html" target="_top" xlink:title="Interface of a request_queue to which requests can be added and canceled. ">
<polygon fill="none" stroke="black" points="286,-244.833 286,-265.833 398,-265.833 398,-244.833 286,-244.833"/>
<text text-anchor="middle" x="342" y="-252.833" font-family="Helvetica,sans-Serif" font-size="10.00">stxxl::request_queue</text>
</a>
</g>
<!-- Node3&#45;&gt;Node2 -->
<g id="edge4" class="edge"><title>Node3&#45;&gt;Node2</title>
<path fill="none" stroke="midnightblue" d="M408.121,-254.395C456.55,-253.708 521.581,-252.786 567.573,-252.133"/>
<polygon fill="midnightblue" stroke="midnightblue" points="408.001,-250.896 398.051,-254.538 408.1,-257.896 408.001,-250.896"/>
</g>
<!-- Node4 -->
<g id="node6" class="node"><title>Node4</title>
<a xlink:href="classstxxl_1_1noncopyable.html" target="_top" xlink:title="stxxl::noncopyable">
<polygon fill="none" stroke="black" points="0,-94.8329 0,-115.833 102,-115.833 102,-94.8329 0,-94.8329"/>
<text text-anchor="middle" x="51" y="-102.833" font-family="Helvetica,sans-Serif" font-size="10.00">stxxl::noncopyable</text>
</a>
</g>
<!-- Node4&#45;&gt;Node3 -->
<g id="edge6" class="edge"><title>Node4&#45;&gt;Node3</title>
<path fill="none" stroke="#8b1a1a" d="M55.1655,-125.686C62.5046,-155.782 80.8309,-211.389 120,-237.333 168.84,-269.683 237.623,-270.048 285.64,-264.955"/>
<polygon fill="#8b1a1a" stroke="#8b1a1a" points="58.5615,-124.834 52.9405,-115.854 51.7341,-126.379 58.5615,-124.834"/>
</g>
<!-- Node5 -->
<g id="node8" class="node"><title>Node5</title>
<a xlink:href="classstxxl_1_1mutex.html" target="_top" xlink:title="stxxl::mutex">
<polygon fill="none" stroke="black" points="169,-126.833 169,-147.833 239,-147.833 239,-126.833 169,-126.833"/>
<text text-anchor="middle" x="204" y="-134.833" font-family="Helvetica,sans-Serif" font-size="10.00">stxxl::mutex</text>
</a>
</g>
<!-- Node4&#45;&gt;Node5 -->
<g id="edge10" class="edge"><title>Node4&#45;&gt;Node5</title>
<path fill="none" stroke="#8b1a1a" d="M111.476,-117.981C130.812,-122.026 151.579,-126.369 168.529,-129.914"/>
<polygon fill="#8b1a1a" stroke="#8b1a1a" points="112.027,-114.521 101.522,-115.9 110.594,-121.373 112.027,-114.521"/>
</g>
<!-- Node6 -->
<g id="node11" class="node"><title>Node6</title>
<a xlink:href="classstxxl_1_1state.html" target="_top" xlink:title="stxxl::state\&lt; thread\l_state \&gt;">
<polygon fill="none" stroke="black" points="698.5,-29.3329 698.5,-63.3329 803.5,-63.3329 803.5,-29.3329 698.5,-29.3329"/>
<text text-anchor="start" x="706.5" y="-50.3329" font-family="Helvetica,sans-Serif" font-size="10.00">stxxl::state&lt; thread</text>
<text text-anchor="middle" x="751" y="-37.3329" font-family="Helvetica,sans-Serif" font-size="10.00">_state &gt;</text>
</a>
</g>
<!-- Node4&#45;&gt;Node6 -->
<g id="edge14" class="edge"><title>Node4&#45;&gt;Node6</title>
<path fill="none" stroke="#8b1a1a" d="M61.0554,-85.6287C74.9566,-60.8354 102.625,-19.4327 140,-2.33293 149.404,1.96944 351.427,-0.458907 550,-5.33293 607.803,-6.75171 624.033,4.1879 680,-10.3329 695.384,-14.3243 711.274,-21.9944 724.111,-29.2327"/>
<polygon fill="#8b1a1a" stroke="#8b1a1a" points="57.9221,-84.0652 56.2568,-94.5284 64.0835,-87.3874 57.9221,-84.0652"/>
</g>
<!-- Node7 -->
<g id="node15" class="node"><title>Node7</title>
<a xlink:href="classstxxl_1_1condition__variable.html" target="_top" xlink:title="stxxl::condition_variable">
<polygon fill="none" stroke="black" points="140,-35.8329 140,-56.8329 268,-56.8329 268,-35.8329 140,-35.8329"/>
<text text-anchor="middle" x="204" y="-43.8329" font-family="Helvetica,sans-Serif" font-size="10.00">stxxl::condition_variable</text>
</a>
</g>
<!-- Node4&#45;&gt;Node7 -->
<g id="edge20" class="edge"><title>Node4&#45;&gt;Node7</title>
<path fill="none" stroke="#8b1a1a" d="M87.9614,-91.0799C115.286,-80.5427 151.893,-66.4265 176.626,-56.8889"/>
<polygon fill="#8b1a1a" stroke="#8b1a1a" points="86.4243,-87.9213 78.3533,-94.7849 88.943,-94.4525 86.4243,-87.9213"/>
</g>
<!-- Node8 -->
<g id="node18" class="node"><title>Node8</title>
<a xlink:href="classstxxl_1_1state.html" target="_top" xlink:title="stxxl::state\&lt; ValueType \&gt;">
<polygon fill="none" stroke="black" points="416,-35.8329 416,-56.8329 550,-56.8329 550,-35.8329 416,-35.8329"/>
<text text-anchor="middle" x="483" y="-43.8329" font-family="Helvetica,sans-Serif" font-size="10.00">stxxl::state&lt; ValueType &gt;</text>
</a>
</g>
<!-- Node4&#45;&gt;Node8 -->
<g id="edge24" class="edge"><title>Node4&#45;&gt;Node8</title>
<path fill="none" stroke="#8b1a1a" d="M64.9781,-86.6829C80.7418,-67.3654 108.344,-38.3558 140,-26.3329 247.225,14.391 283.93,-20.3482 398,-32.3329 406.627,-33.2393 415.708,-34.4536 424.594,-35.7898"/>
<polygon fill="#8b1a1a" stroke="#8b1a1a" points="62.0372,-84.7601 58.5964,-94.7806 67.5351,-89.0929 62.0372,-84.7601"/>
</g>
<!-- Node9 -->
<g id="node23" class="node"><title>Node9</title>
<a xlink:href="classstxxl_1_1semaphore.html" target="_top" xlink:title="stxxl::semaphore">
<polygon fill="none" stroke="black" points="435.5,-152.833 435.5,-173.833 530.5,-173.833 530.5,-152.833 435.5,-152.833"/>
<text text-anchor="middle" x="483" y="-160.833" font-family="Helvetica,sans-Serif" font-size="10.00">stxxl::semaphore</text>
</a>
</g>
<!-- Node4&#45;&gt;Node9 -->
<g id="edge32" class="edge"><title>Node4&#45;&gt;Node9</title>
<path fill="none" stroke="#8b1a1a" d="M73.1955,-121.817C90.4829,-133.755 115.572,-149.174 140,-157.333 240.835,-191.011 367.812,-180.641 435.451,-171.276"/>
<polygon fill="#8b1a1a" stroke="#8b1a1a" points="75.0945,-118.873 64.9113,-115.948 71.0481,-124.585 75.0945,-118.873"/>
</g>
<!-- Node5&#45;&gt;Node1 -->
<g id="edge8" class="edge"><title>Node5&#45;&gt;Node1</title>
<path fill="none" stroke="#9a32cd" stroke-dasharray="5,2" d="M231.551,-152.732C247.058,-160.629 267.06,-169.567 286,-174.333 342.165,-188.465 358.139,-180.819 416,-183.333 630.92,-192.672 685.117,-198.474 900,-188.333 905.801,-188.059 911.848,-187.665 917.877,-187.202"/>
<polygon fill="#9a32cd" stroke="#9a32cd" points="233.007,-149.544 222.526,-147.996 229.754,-155.742 233.007,-149.544"/>
<text text-anchor="middle" x="624" y="-210.333" font-family="Helvetica,sans-Serif" font-size="10.00"> m_read_mutex</text>
<text text-anchor="middle" x="624" y="-197.333" font-family="Helvetica,sans-Serif" font-size="10.00">m_write_mutex</text>
</g>
<!-- Node5&#45;&gt;Node6 -->
<g id="edge16" class="edge"><title>Node5&#45;&gt;Node6</title>
<path fill="none" stroke="#9a32cd" stroke-dasharray="5,2" d="M249.294,-135.828C288.731,-134.097 347.36,-130.513 398,-123.333 524.87,-105.345 555.015,-91.5874 680,-63.3329 685.934,-61.9914 692.139,-60.5553 698.305,-59.1073"/>
<polygon fill="#9a32cd" stroke="#9a32cd" points="249.046,-132.335 239.201,-136.248 249.338,-139.329 249.046,-132.335"/>
<text text-anchor="middle" x="483" y="-124.333" font-family="Helvetica,sans-Serif" font-size="10.00"> m_mutex</text>
</g>
<!-- Node5&#45;&gt;Node8 -->
<g id="edge26" class="edge"><title>Node5&#45;&gt;Node8</title>
<path fill="none" stroke="#9a32cd" stroke-dasharray="5,2" d="M221.279,-119.704C236.789,-105.027 260.916,-84.8834 286,-74.3329 308.847,-64.7231 367.981,-57.0888 415.541,-52.2349"/>
<polygon fill="#9a32cd" stroke="#9a32cd" points="218.715,-117.316 213.995,-126.802 223.6,-122.33 218.715,-117.316"/>
<text text-anchor="middle" x="342" y="-78.3329" font-family="Helvetica,sans-Serif" font-size="10.00"> m_mutex</text>
</g>
<!-- Node5&#45;&gt;Node9 -->
<g id="edge34" class="edge"><title>Node5&#45;&gt;Node9</title>
<path fill="none" stroke="#9a32cd" stroke-dasharray="5,2" d="M249.259,-143.877C261.192,-145.473 274.068,-147.079 286,-148.333 336.828,-153.673 395.225,-157.878 435.161,-160.461"/>
<polygon fill="#9a32cd" stroke="#9a32cd" points="249.443,-140.37 239.062,-142.486 248.497,-147.306 249.443,-140.37"/>
<text text-anchor="middle" x="342" y="-161.333" font-family="Helvetica,sans-Serif" font-size="10.00"> m_mutex</text>
</g>
<!-- Node6&#45;&gt;Node1 -->
<g id="edge12" class="edge"><title>Node6&#45;&gt;Node1</title>
<path fill="none" stroke="#9a32cd" stroke-dasharray="5,2" d="M789.513,-68.6191C819.719,-86.209 862.739,-111.505 900,-134.333 915.833,-144.033 933.381,-155.162 947.414,-164.155"/>
<polygon fill="#9a32cd" stroke="#9a32cd" points="790.974,-65.4203 780.57,-63.4188 787.455,-71.4715 790.974,-65.4203"/>
<text text-anchor="middle" x="861" y="-138.333" font-family="Helvetica,sans-Serif" font-size="10.00"> m_thread_state</text>
</g>
<!-- Node7&#45;&gt;Node6 -->
<g id="edge18" class="edge"><title>Node7&#45;&gt;Node6</title>
<path fill="none" stroke="#9a32cd" stroke-dasharray="5,2" d="M274.875,-34.1234C278.636,-33.5095 282.363,-32.9092 286,-32.3329 402.188,-13.9265 432.752,-3.77212 550,-13.3329 600.754,-17.4716 658.008,-27.3957 698.39,-35.2871"/>
<polygon fill="#9a32cd" stroke="#9a32cd" points="274.17,-30.6923 264.873,-35.7731 275.309,-37.599 274.17,-30.6923"/>
<text text-anchor="middle" x="483" y="-17.3329" font-family="Helvetica,sans-Serif" font-size="10.00"> m_cond</text>
</g>
<!-- Node7&#45;&gt;Node8 -->
<g id="edge28" class="edge"><title>Node7&#45;&gt;Node8</title>
<path fill="none" stroke="#9a32cd" stroke-dasharray="5,2" d="M278.393,-38.7568C280.958,-38.597 283.5,-38.4546 286,-38.3329 335.719,-35.9134 348.277,-35.9982 398,-38.3329 403.774,-38.6041 409.762,-38.9782 415.764,-39.4178"/>
<polygon fill="#9a32cd" stroke="#9a32cd" points="278.147,-35.2653 268.415,-39.4518 278.634,-42.2484 278.147,-35.2653"/>
<text text-anchor="middle" x="342" y="-42.3329" font-family="Helvetica,sans-Serif" font-size="10.00"> m_cond</text>
</g>
<!-- Node7&#45;&gt;Node9 -->
<g id="edge36" class="edge"><title>Node7&#45;&gt;Node9</title>
<path fill="none" stroke="#9a32cd" stroke-dasharray="5,2" d="M233.085,-61.6731C248.626,-69.6661 268.178,-79.4007 286,-87.3329 293.088,-90.4875 408.754,-135.56 416,-138.333 428.523,-143.125 442.404,-148.324 454.269,-152.732"/>
<polygon fill="#9a32cd" stroke="#9a32cd" points="234.467,-58.4474 223.978,-56.953 231.246,-64.6622 234.467,-58.4474"/>
<text text-anchor="middle" x="342" y="-134.333" font-family="Helvetica,sans-Serif" font-size="10.00"> m_cond</text>
</g>
<!-- Node8&#45;&gt;Node6 -->
<g id="edge22" class="edge"><title>Node8&#45;&gt;Node6</title>
<path fill="none" stroke="orange" stroke-dasharray="5,2" d="M560.44,-46.3329C604.745,-46.3329 659.155,-46.3329 698.476,-46.3329"/>
<polygon fill="orange" stroke="orange" points="560.282,-42.833 550.282,-46.3329 560.282,-49.833 560.282,-42.833"/>
<text text-anchor="middle" x="624" y="-50.3329" font-family="Helvetica,sans-Serif" font-size="10.00"> &lt; thread_state &gt;</text>
</g>
<!-- Node9&#45;&gt;Node1 -->
<g id="edge30" class="edge"><title>Node9&#45;&gt;Node1</title>
<path fill="none" stroke="#9a32cd" stroke-dasharray="5,2" d="M540.523,-165.442C635.469,-168.922 823.815,-175.827 917.851,-179.275"/>
<polygon fill="#9a32cd" stroke="#9a32cd" points="540.647,-161.944 530.525,-165.075 540.39,-168.939 540.647,-161.944"/>
<text text-anchor="middle" x="751" y="-178.333" font-family="Helvetica,sans-Serif" font-size="10.00"> m_sem</text>
</g>
</g>
</svg>
