<?xml version="1.0" encoding="UTF-8" standalone="no"?>
<!DOCTYPE svg PUBLIC "-//W3C//DTD SVG 1.1//EN"
 "http://www.w3.org/Graphics/SVG/1.1/DTD/svg11.dtd">
<!-- Generated by graphviz version 2.26.3 (20100126.1600)
 -->
<!-- Title: stxxl::request_with_waiters Pages: 1 -->
<svg width="266pt" height="362pt"
 viewBox="0.00 0.00 266.00 362.00" xmlns="http://www.w3.org/2000/svg" xmlns:xlink="http://www.w3.org/1999/xlink">
<g id="graph1" class="graph" transform="scale(1 1) rotate(0) translate(4 358)">
<title>stxxl::request_with_waiters</title>
<!-- Node1 -->
<g id="node1" class="node"><title>Node1</title>
<polygon fill="#bfbfbf" stroke="black" points="80,-131 80,-165 182,-165 182,-131 80,-131"/>
<text text-anchor="start" x="88" y="-152" font-family="Helvetica,sans-Serif" font-size="10.00">stxxl::request_with</text>
<text text-anchor="middle" x="131" y="-139" font-family="Helvetica,sans-Serif" font-size="10.00">_waiters</text>
</g>
<!-- Node6 -->
<g id="node11" class="node"><title>Node6</title>
<a xlink:href="classstxxl_1_1request__with__state.html" target="_top" xlink:title="Request with completion state. ">
<polygon fill="none" stroke="black" points="80,-59 80,-93 182,-93 182,-59 80,-59"/>
<text text-anchor="start" x="88" y="-80" font-family="Helvetica,sans-Serif" font-size="10.00">stxxl::request_with</text>
<text text-anchor="middle" x="131" y="-67" font-family="Helvetica,sans-Serif" font-size="10.00">_state</text>
</a>
</g>
<!-- Node1&#45;&gt;Node6 -->
<g id="edge10" class="edge"><title>Node1&#45;&gt;Node6</title>
<path fill="none" stroke="midnightblue" d="M131,-120.719C131,-111.572 131,-101.625 131,-93.4407"/>
<polygon fill="midnightblue" stroke="midnightblue" points="127.5,-120.937 131,-130.937 134.5,-120.937 127.5,-120.937"/>
</g>
<!-- Node2 -->
<g id="node2" class="node"><title>Node2</title>
<a xlink:href="classstxxl_1_1request.html" target="_top" xlink:title="Request object encapsulating basic properties like file and offset. ">
<polygon fill="none" stroke="black" points="92.5,-202.5 92.5,-223.5 169.5,-223.5 169.5,-202.5 92.5,-202.5"/>
<text text-anchor="middle" x="131" y="-210.5" font-family="Helvetica,sans-Serif" font-size="10.00">stxxl::request</text>
</a>
</g>
<!-- Node2&#45;&gt;Node1 -->
<g id="edge2" class="edge"><title>Node2&#45;&gt;Node1</title>
<path fill="none" stroke="midnightblue" d="M131,-192.131C131,-183.405 131,-173.391 131,-165.11"/>
<polygon fill="midnightblue" stroke="midnightblue" points="127.5,-192.267 131,-202.267 134.5,-192.267 127.5,-192.267"/>
</g>
<!-- Node3 -->
<g id="node4" class="node"><title>Node3</title>
<a xlink:href="classstxxl_1_1request__interface.html" target="_top" xlink:title="Functional interface of a request. ">
<polygon fill="none" stroke="black" points="-0.5,-267.5 -0.5,-288.5 124.5,-288.5 124.5,-267.5 -0.5,-267.5"/>
<text text-anchor="middle" x="62" y="-275.5" font-family="Helvetica,sans-Serif" font-size="10.00">stxxl::request_interface</text>
</a>
</g>
<!-- Node3&#45;&gt;Node2 -->
<g id="edge4" class="edge"><title>Node3&#45;&gt;Node2</title>
<path fill="none" stroke="midnightblue" d="M81.0024,-260.099C93.4676,-248.357 109.34,-233.404 119.818,-223.534"/>
<polygon fill="midnightblue" stroke="midnightblue" points="78.2729,-257.862 73.3939,-267.267 83.0728,-262.957 78.2729,-257.862"/>
</g>
<!-- Node4 -->
<g id="node6" class="node"><title>Node4</title>
<a xlink:href="classstxxl_1_1noncopyable.html" target="_top" xlink:title="stxxl::noncopyable">
<polygon fill="none" stroke="black" points="11,-332.5 11,-353.5 113,-353.5 113,-332.5 11,-332.5"/>
<text text-anchor="middle" x="62" y="-340.5" font-family="Helvetica,sans-Serif" font-size="10.00">stxxl::noncopyable</text>
</a>
</g>
<!-- Node4&#45;&gt;Node3 -->
<g id="edge6" class="edge"><title>Node4&#45;&gt;Node3</title>
<path fill="none" stroke="#8b1a1a" d="M62,-322.014C62,-310.831 62,-297.558 62,-288.534"/>
<polygon fill="#8b1a1a" stroke="#8b1a1a" points="58.5001,-322.267 62,-332.267 65.5001,-322.267 58.5001,-322.267"/>
</g>
<!-- Node5 -->
<g id="node8" class="node"><title>Node5</title>
<a xlink:href="classstxxl_1_1atomic__counted__object.html" target="_top" xlink:title="Provides reference counting abilities for use with counting_ptr with mutex locking. ">
<polygon fill="none" stroke="black" points="142,-261 142,-295 258,-295 258,-261 142,-261"/>
<text text-anchor="start" x="150" y="-282" font-family="Helvetica,sans-Serif" font-size="10.00">stxxl::atomic_counted</text>
<text text-anchor="middle" x="200" y="-269" font-family="Helvetica,sans-Serif" font-size="10.00">_object</text>
</a>
</g>
<!-- Node5&#45;&gt;Node2 -->
<g id="edge8" class="edge"><title>Node5&#45;&gt;Node2</title>
<path fill="none" stroke="midnightblue" d="M174.533,-254.009C163.542,-243.656 151.237,-232.063 142.52,-223.852"/>
<polygon fill="midnightblue" stroke="midnightblue" points="172.192,-256.613 181.871,-260.922 176.992,-251.517 172.192,-256.613"/>
</g>
<!-- Node7 -->
<g id="node13" class="node"><title>Node7</title>
<a xlink:href="classstxxl_1_1linuxaio__request.html" target="_top" xlink:title="Request for an linuxaio_file. ">
<polygon fill="none" stroke="black" points="3.5,-0.5 3.5,-21.5 122.5,-21.5 122.5,-0.5 3.5,-0.5"/>
<text text-anchor="middle" x="63" y="-8.5" font-family="Helvetica,sans-Serif" font-size="10.00">stxxl::linuxaio_request</text>
</a>
</g>
<!-- Node6&#45;&gt;Node7 -->
<g id="edge12" class="edge"><title>Node6&#45;&gt;Node7</title>
<path fill="none" stroke="midnightblue" d="M105.902,-52.0092C95.0709,-41.656 82.9433,-30.0634 74.353,-21.8521"/>
<polygon fill="midnightblue" stroke="midnightblue" points="103.487,-54.5422 113.134,-58.922 108.323,-49.4821 103.487,-54.5422"/>
</g>
<!-- Node8 -->
<g id="node15" class="node"><title>Node8</title>
<a xlink:href="classstxxl_1_1serving__request.html" target="_top" xlink:title="Request which serves an I/O by calling the synchronous routine of the file. ">
<polygon fill="none" stroke="black" points="140,-0.5 140,-21.5 258,-21.5 258,-0.5 140,-0.5"/>
<text text-anchor="middle" x="199" y="-8.5" font-family="Helvetica,sans-Serif" font-size="10.00">stxxl::serving_request</text>
</a>
</g>
<!-- Node6&#45;&gt;Node8 -->
<g id="edge14" class="edge"><title>Node6&#45;&gt;Node8</title>
<path fill="none" stroke="midnightblue" d="M156.098,-52.0092C166.929,-41.656 179.057,-30.0634 187.647,-21.8521"/>
<polygon fill="midnightblue" stroke="midnightblue" points="153.677,-49.4821 148.866,-58.922 158.513,-54.5422 153.677,-49.4821"/>
</g>
</g>
</svg>
