<?xml version="1.0" encoding="UTF-8" standalone="no"?>
<!DOCTYPE svg PUBLIC "-//W3C//DTD SVG 1.1//EN"
 "http://www.w3.org/Graphics/SVG/1.1/DTD/svg11.dtd">
<!-- Generated by graphviz version 2.26.3 (20100126.1600)
 -->
<!-- Title: stxxl::hash_map::buffered_reader&lt; CacheType, BidIterator &gt; Pages: 1 -->
<svg width="289pt" height="242pt"
 viewBox="0.00 0.00 289.00 242.00" xmlns="http://www.w3.org/2000/svg" xmlns:xlink="http://www.w3.org/1999/xlink">
<g id="graph1" class="graph" transform="scale(1 1) rotate(0) translate(4 238)">
<title>stxxl::hash_map::buffered_reader&lt; CacheType, BidIterator &gt;</title>
<!-- Node1 -->
<g id="node1" class="node"><title>Node1</title>
<polygon fill="#bfbfbf" stroke="black" points="1,-1 1,-35 183,-35 183,-1 1,-1"/>
<text text-anchor="start" x="9" y="-22" font-family="Helvetica,sans-Serif" font-size="10.00">stxxl::hash_map::buffered</text>
<text text-anchor="middle" x="92" y="-9" font-family="Helvetica,sans-Serif" font-size="10.00">_reader&lt; CacheType, BidIterator &gt;</text>
</g>
<!-- Node2 -->
<g id="node2" class="node"><title>Node2</title>
<a xlink:href="classstxxl_1_1noncopyable.html" target="_top" xlink:title="stxxl::noncopyable">
<polygon fill="none" stroke="black" points="0,-119.5 0,-140.5 102,-140.5 102,-119.5 0,-119.5"/>
<text text-anchor="middle" x="51" y="-127.5" font-family="Helvetica,sans-Serif" font-size="10.00">stxxl::noncopyable</text>
</a>
</g>
<!-- Node2&#45;&gt;Node1 -->
<g id="edge2" class="edge"><title>Node2&#45;&gt;Node1</title>
<path fill="none" stroke="#8b1a1a" d="M58.3755,-109.852C66.193,-88.4973 78.4043,-55.1395 85.7604,-35.0446"/>
<polygon fill="#8b1a1a" stroke="#8b1a1a" points="55.0822,-108.667 54.9313,-119.261 61.6556,-111.074 55.0822,-108.667"/>
</g>
<!-- Node3 -->
<g id="node4" class="node"><title>Node3</title>
<a xlink:href="structstxxl_1_1choose__int__types.html" target="_top" xlink:title="stxxl::choose_int_types\l\&lt; my_pointer_size \&gt;">
<polygon fill="none" stroke="black" points="119.5,-113 119.5,-147 244.5,-147 244.5,-113 119.5,-113"/>
<text text-anchor="start" x="127.5" y="-134" font-family="Helvetica,sans-Serif" font-size="10.00">stxxl::choose_int_types</text>
<text text-anchor="middle" x="182" y="-121" font-family="Helvetica,sans-Serif" font-size="10.00">&lt; my_pointer_size &gt;</text>
</a>
</g>
<!-- Node3&#45;&gt;Node1 -->
<g id="edge4" class="edge"><title>Node3&#45;&gt;Node1</title>
<path fill="none" stroke="#9a32cd" stroke-dasharray="5,2" d="M161.938,-105.035C144.862,-83.7841 120.784,-53.8195 105.798,-35.1705"/>
<polygon fill="#9a32cd" stroke="#9a32cd" points="159.339,-107.387 168.331,-112.99 164.795,-103.002 159.339,-107.387"/>
<text text-anchor="middle" x="194" y="-84.5" font-family="Helvetica,sans-Serif" font-size="10.00"> prefetch_pages_</text>
<text text-anchor="middle" x="194" y="-71.5" font-family="Helvetica,sans-Serif" font-size="10.00">i_value_</text>
<text text-anchor="middle" x="194" y="-58.5" font-family="Helvetica,sans-Serif" font-size="10.00">page_size_</text>
</g>
<!-- Node4 -->
<g id="node6" class="node"><title>Node4</title>
<a xlink:href="structstxxl_1_1choose__int__types.html" target="_top" xlink:title="stxxl::choose_int_types\l\&lt; PtrSize \&gt;">
<polygon fill="none" stroke="black" points="119.5,-199 119.5,-233 244.5,-233 244.5,-199 119.5,-199"/>
<text text-anchor="start" x="127.5" y="-220" font-family="Helvetica,sans-Serif" font-size="10.00">stxxl::choose_int_types</text>
<text text-anchor="middle" x="182" y="-207" font-family="Helvetica,sans-Serif" font-size="10.00">&lt; PtrSize &gt;</text>
</a>
</g>
<!-- Node4&#45;&gt;Node3 -->
<g id="edge6" class="edge"><title>Node4&#45;&gt;Node3</title>
<path fill="none" stroke="orange" stroke-dasharray="5,2" d="M182,-188.342C182,-174.774 182,-158.861 182,-147.084"/>
<polygon fill="orange" stroke="orange" points="178.5,-188.597 182,-198.597 185.5,-188.597 178.5,-188.597"/>
<text text-anchor="middle" x="231.5" y="-170.5" font-family="Helvetica,sans-Serif" font-size="10.00"> &lt; my_pointer_size &gt;</text>
</g>
</g>
</svg>
