<?xml version="1.0" encoding="UTF-8" standalone="no"?>
<!DOCTYPE svg PUBLIC "-//W3C//DTD SVG 1.1//EN"
 "http://www.w3.org/Graphics/SVG/1.1/DTD/svg11.dtd">
<!-- Generated by graphviz version 2.26.3 (20100126.1600)
 -->
<!-- Title: stxxl::block_scheduler_algorithm_offline_lru_prefetching&lt; SwappableBlockType &gt; Pages: 1 -->
<svg width="1988pt" height="367pt"
 viewBox="0.00 0.00 1988.00 367.00" xmlns="http://www.w3.org/2000/svg" xmlns:xlink="http://www.w3.org/1999/xlink">
<g id="graph1" class="graph" transform="scale(1 1) rotate(0) translate(4 363)">
<title>stxxl::block_scheduler_algorithm_offline_lru_prefetching&lt; SwappableBlockType &gt;</title>
<!-- Node1 -->
<g id="node1" class="node"><title>Node1</title>
<polygon fill="#bfbfbf" stroke="black" points="1784.5,-301.5 1784.5,-348.5 1979.5,-348.5 1979.5,-301.5 1784.5,-301.5"/>
<text text-anchor="start" x="1792.5" y="-335.5" font-family="Helvetica,sans-Serif" font-size="10.00">stxxl::block_scheduler</text>
<text text-anchor="start" x="1792.5" y="-322.5" font-family="Helvetica,sans-Serif" font-size="10.00">_algorithm_offline_lru</text>
<text text-anchor="middle" x="1882" y="-309.5" font-family="Helvetica,sans-Serif" font-size="10.00">_prefetching&lt; SwappableBlockType &gt;</text>
</g>
<!-- Node2 -->
<g id="node2" class="node"><title>Node2</title>
<a xlink:href="classstxxl_1_1block__scheduler__algorithm.html" target="_top" xlink:title="Interface of a block scheduling algorithm. ">
<polygon fill="none" stroke="black" points="1560.5,-308 1560.5,-342 1745.5,-342 1745.5,-308 1560.5,-308"/>
<text text-anchor="start" x="1568.5" y="-329" font-family="Helvetica,sans-Serif" font-size="10.00">stxxl::block_scheduler</text>
<text text-anchor="middle" x="1653" y="-316" font-family="Helvetica,sans-Serif" font-size="10.00">_algorithm&lt; SwappableBlockType &gt;</text>
</a>
</g>
<!-- Node2&#45;&gt;Node1 -->
<g id="edge2" class="edge"><title>Node2&#45;&gt;Node1</title>
<path fill="none" stroke="midnightblue" d="M1755.96,-325C1765.35,-325 1774.85,-325 1784.2,-325"/>
<polygon fill="midnightblue" stroke="midnightblue" points="1755.81,-321.5 1745.81,-325 1755.81,-328.5 1755.81,-321.5"/>
</g>
<!-- Node3 -->
<g id="node4" class="node"><title>Node3</title>
<a xlink:href="classstxxl_1_1noncopyable.html" target="_top" xlink:title="stxxl::noncopyable">
<polygon fill="none" stroke="black" points="12,-227.5 12,-248.5 114,-248.5 114,-227.5 12,-227.5"/>
<text text-anchor="middle" x="63" y="-235.5" font-family="Helvetica,sans-Serif" font-size="10.00">stxxl::noncopyable</text>
</a>
</g>
<!-- Node3&#45;&gt;Node2 -->
<g id="edge4" class="edge"><title>Node3&#45;&gt;Node2</title>
<path fill="none" stroke="#8b1a1a" d="M79.8767,-255.999C95.2293,-271.37 119.216,-292.997 144,-306 222.77,-347.328 248.047,-359 337,-359 337,-359 337,-359 1442,-359 1489.31,-359 1541.83,-350.566 1582.64,-342.1"/>
<polygon fill="#8b1a1a" stroke="#8b1a1a" points="82.1625,-253.33 72.6769,-248.611 77.149,-258.215 82.1625,-253.33"/>
</g>
<!-- Node4 -->
<g id="node6" class="node"><title>Node4</title>
<a xlink:href="classstxxl_1_1block__scheduler.html" target="_top" xlink:title="Schedules swapping of blocks and provides blocks for temporary storage. ">
<polygon fill="none" stroke="black" points="1374,-253 1374,-287 1510,-287 1510,-253 1374,-253"/>
<text text-anchor="start" x="1382" y="-274" font-family="Helvetica,sans-Serif" font-size="10.00">stxxl::block_scheduler</text>
<text text-anchor="middle" x="1442" y="-261" font-family="Helvetica,sans-Serif" font-size="10.00">&lt; SwappableBlockType &gt;</text>
</a>
</g>
<!-- Node3&#45;&gt;Node4 -->
<g id="edge8" class="edge"><title>Node3&#45;&gt;Node4</title>
<path fill="none" stroke="#8b1a1a" d="M92.0734,-253.007C141.177,-276.919 244.271,-321 337,-321 337,-321 337,-321 1263,-321 1313.57,-321 1369.21,-301.94 1404.82,-287.124"/>
<polygon fill="#8b1a1a" stroke="#8b1a1a" points="93.5064,-249.811 82.9915,-248.512 90.4015,-256.084 93.5064,-249.811"/>
</g>
<!-- Node6 -->
<g id="node11" class="node"><title>Node6</title>
<a xlink:href="classstxxl_1_1singleton.html" target="_top" xlink:title="stxxl::singleton\&lt; block\l_manager \&gt;">
<polygon fill="none" stroke="black" points="578,-226 578,-260 696,-260 696,-226 578,-226"/>
<text text-anchor="start" x="586" y="-247" font-family="Helvetica,sans-Serif" font-size="10.00">stxxl::singleton&lt; block</text>
<text text-anchor="middle" x="637" y="-234" font-family="Helvetica,sans-Serif" font-size="10.00">_manager &gt;</text>
</a>
</g>
<!-- Node3&#45;&gt;Node6 -->
<g id="edge14" class="edge"><title>Node3&#45;&gt;Node6</title>
<path fill="none" stroke="#8b1a1a" d="M124.57,-249.103C131.12,-250.146 137.691,-251.135 144,-252 327.195,-277.115 376.344,-279.485 560,-258 565.817,-257.32 571.852,-256.444 577.868,-255.459"/>
<polygon fill="#8b1a1a" stroke="#8b1a1a" points="124.77,-245.589 114.336,-247.429 123.639,-252.497 124.77,-245.589"/>
</g>
<!-- Node7 -->
<g id="node14" class="node"><title>Node7</title>
<a xlink:href="classstxxl_1_1singleton.html" target="_top" xlink:title="stxxl::singleton\&lt; INSTANCE,\l destroy_on_exit \&gt;">
<polygon fill="none" stroke="black" points="262.5,-221 262.5,-255 411.5,-255 411.5,-221 262.5,-221"/>
<text text-anchor="start" x="270.5" y="-242" font-family="Helvetica,sans-Serif" font-size="10.00">stxxl::singleton&lt; INSTANCE,</text>
<text text-anchor="middle" x="337" y="-229" font-family="Helvetica,sans-Serif" font-size="10.00"> destroy_on_exit &gt;</text>
</a>
</g>
<!-- Node3&#45;&gt;Node7 -->
<g id="edge18" class="edge"><title>Node3&#45;&gt;Node7</title>
<path fill="none" stroke="#8b1a1a" d="M124.291,-238C165.085,-238 218.933,-238 262.242,-238"/>
<polygon fill="#8b1a1a" stroke="#8b1a1a" points="124.216,-234.5 114.216,-238 124.216,-241.5 124.216,-234.5"/>
</g>
<!-- Node8 -->
<g id="node17" class="node"><title>Node8</title>
<a xlink:href="classstxxl_1_1file.html" target="_top" xlink:title="Defines interface of file. ">
<polygon fill="none" stroke="black" points="804,-154.5 804,-175.5 860,-175.5 860,-154.5 804,-154.5"/>
<text text-anchor="middle" x="832" y="-162.5" font-family="Helvetica,sans-Serif" font-size="10.00">stxxl::file</text>
</a>
</g>
<!-- Node3&#45;&gt;Node8 -->
<g id="edge22" class="edge"><title>Node3&#45;&gt;Node8</title>
<path fill="none" stroke="#8b1a1a" d="M123.979,-228.956C163.301,-223.391 215.581,-216.489 262,-212 494.267,-189.539 556.385,-220.585 786,-179 791.75,-177.959 797.795,-176.44 803.543,-174.783"/>
<polygon fill="#8b1a1a" stroke="#8b1a1a" points="123.423,-225.5 114.018,-230.377 124.412,-232.43 123.423,-225.5"/>
</g>
<!-- Node10 -->
<g id="node22" class="node"><title>Node10</title>
<a xlink:href="classstxxl_1_1mutex.html" target="_top" xlink:title="stxxl::mutex">
<polygon fill="none" stroke="black" points="302,-142.5 302,-163.5 372,-163.5 372,-142.5 302,-142.5"/>
<text text-anchor="middle" x="337" y="-150.5" font-family="Helvetica,sans-Serif" font-size="10.00">stxxl::mutex</text>
</a>
</g>
<!-- Node3&#45;&gt;Node10 -->
<g id="edge28" class="edge"><title>Node3&#45;&gt;Node10</title>
<path fill="none" stroke="#8b1a1a" d="M81.4343,-220.384C96.8744,-206.728 120.16,-188.569 144,-179 196.241,-158.03 262.169,-153.339 301.881,-152.622"/>
<polygon fill="#8b1a1a" stroke="#8b1a1a" points="78.7431,-218.101 73.71,-227.424 83.4584,-223.275 78.7431,-218.101"/>
</g>
<!-- Node13 -->
<g id="node29" class="node"><title>Node13</title>
<a xlink:href="classstxxl_1_1disk__allocator.html" target="_top" xlink:title="stxxl::disk_allocator">
<polygon fill="none" stroke="black" points="988.5,-106.5 988.5,-127.5 1095.5,-127.5 1095.5,-106.5 988.5,-106.5"/>
<text text-anchor="middle" x="1042" y="-114.5" font-family="Helvetica,sans-Serif" font-size="10.00">stxxl::disk_allocator</text>
</a>
</g>
<!-- Node3&#45;&gt;Node13 -->
<g id="edge36" class="edge"><title>Node3&#45;&gt;Node13</title>
<path fill="none" stroke="#8b1a1a" d="M76.8718,-219.213C91.7191,-200.183 116.833,-170.928 144,-152 220.468,-98.7206 243.801,-70 337,-70 337,-70 337,-70 832,-70 898.315,-70 973.626,-92.5951 1013.58,-106.452"/>
<polygon fill="#8b1a1a" stroke="#8b1a1a" points="73.9059,-217.33 70.6228,-227.404 79.4711,-221.576 73.9059,-217.33"/>
</g>
<!-- Node4&#45;&gt;Node2 -->
<g id="edge6" class="edge"><title>Node4&#45;&gt;Node2</title>
<path fill="none" stroke="#9a32cd" stroke-dasharray="5,2" d="M1517.05,-289.563C1540.1,-295.572 1565.28,-302.134 1587.63,-307.96"/>
<polygon fill="#9a32cd" stroke="#9a32cd" points="1517.88,-286.161 1507.32,-287.026 1516.11,-292.935 1517.88,-286.161"/>
<text text-anchor="middle" x="1535" y="-299" font-family="Helvetica,sans-Serif" font-size="10.00"> bs</text>
</g>
<!-- Node5 -->
<g id="node9" class="node"><title>Node5</title>
<a xlink:href="classstxxl_1_1block__manager.html" target="_top" xlink:title="Block manager class. ">
<polygon fill="none" stroke="black" points="1206,-195.5 1206,-216.5 1320,-216.5 1320,-195.5 1206,-195.5"/>
<text text-anchor="middle" x="1263" y="-203.5" font-family="Helvetica,sans-Serif" font-size="10.00">stxxl::block_manager</text>
</a>
</g>
<!-- Node5&#45;&gt;Node4 -->
<g id="edge10" class="edge"><title>Node5&#45;&gt;Node4</title>
<path fill="none" stroke="#9a32cd" stroke-dasharray="5,2" d="M1302.09,-219.977C1329.17,-229.659 1365.39,-242.607 1394.19,-252.904"/>
<polygon fill="#9a32cd" stroke="#9a32cd" points="1303.15,-216.639 1292.56,-216.568 1300.8,-223.231 1303.15,-216.639"/>
<text text-anchor="middle" x="1347" y="-242" font-family="Helvetica,sans-Serif" font-size="10.00"> bm</text>
</g>
<!-- Node6&#45;&gt;Node5 -->
<g id="edge12" class="edge"><title>Node6&#45;&gt;Node5</title>
<path fill="none" stroke="midnightblue" d="M706.357,-238.901C830.96,-231.536 1090.43,-216.2 1205.69,-209.387"/>
<polygon fill="midnightblue" stroke="midnightblue" points="705.951,-235.418 696.174,-239.502 706.364,-242.406 705.951,-235.418"/>
</g>
<!-- Node7&#45;&gt;Node6 -->
<g id="edge16" class="edge"><title>Node7&#45;&gt;Node6</title>
<path fill="none" stroke="orange" stroke-dasharray="5,2" d="M421.664,-239.411C471.506,-240.242 533.309,-241.272 577.903,-242.015"/>
<polygon fill="orange" stroke="orange" points="421.6,-235.91 411.543,-239.242 421.483,-242.909 421.6,-235.91"/>
<text text-anchor="middle" x="495" y="-245" font-family="Helvetica,sans-Serif" font-size="10.00"> &lt; block_manager &gt;</text>
</g>
<!-- Node8&#45;&gt;Node5 -->
<g id="edge20" class="edge"><title>Node8&#45;&gt;Node5</title>
<path fill="none" stroke="#9a32cd" stroke-dasharray="5,2" d="M870.367,-168.65C946.418,-175.884 1116.63,-192.076 1205.89,-200.567"/>
<polygon fill="#9a32cd" stroke="#9a32cd" points="870.566,-165.153 860.279,-167.69 869.903,-172.121 870.566,-165.153"/>
<text text-anchor="middle" x="1042" y="-193" font-family="Helvetica,sans-Serif" font-size="10.00"> disk_files</text>
</g>
<!-- Node8&#45;&gt;Node13 -->
<g id="edge38" class="edge"><title>Node8&#45;&gt;Node13</title>
<path fill="none" stroke="#9a32cd" stroke-dasharray="5,2" d="M864.56,-150.539C869.023,-148.856 873.588,-147.285 878,-146 914.089,-135.491 955.817,-128.177 988.149,-123.523"/>
<polygon fill="#9a32cd" stroke="#9a32cd" points="863.041,-147.377 855.05,-154.334 865.635,-153.878 863.041,-147.377"/>
<text text-anchor="middle" x="924" y="-150" font-family="Helvetica,sans-Serif" font-size="10.00"> storage</text>
</g>
<!-- Node9 -->
<g id="node20" class="node"><title>Node9</title>
<a xlink:href="classstxxl_1_1atomic__counted__object.html" target="_top" xlink:title="Provides reference counting abilities for use with counting_ptr with mutex locking. ">
<polygon fill="none" stroke="black" points="579,-136 579,-170 695,-170 695,-136 579,-136"/>
<text text-anchor="start" x="587" y="-157" font-family="Helvetica,sans-Serif" font-size="10.00">stxxl::atomic_counted</text>
<text text-anchor="middle" x="637" y="-144" font-family="Helvetica,sans-Serif" font-size="10.00">_object</text>
</a>
</g>
<!-- Node9&#45;&gt;Node8 -->
<g id="edge24" class="edge"><title>Node9&#45;&gt;Node8</title>
<path fill="none" stroke="#9a32cd" stroke-dasharray="5,2" d="M705.547,-157.218C739.346,-159.298 778.249,-161.692 803.88,-163.27"/>
<polygon fill="#9a32cd" stroke="#9a32cd" points="705.438,-153.705 695.242,-156.584 705.008,-160.692 705.438,-153.705"/>
<text text-anchor="middle" x="750" y="-166" font-family="Helvetica,sans-Serif" font-size="10.00"> m_request_ref</text>
</g>
<!-- Node10&#45;&gt;Node9 -->
<g id="edge26" class="edge"><title>Node10&#45;&gt;Node9</title>
<path fill="none" stroke="#9a32cd" stroke-dasharray="5,2" d="M382.017,-153C434.483,-153 521.319,-153 578.848,-153"/>
<polygon fill="#9a32cd" stroke="#9a32cd" points="382.001,-149.5 372.001,-153 382.001,-156.5 382.001,-149.5"/>
<text text-anchor="middle" x="495" y="-157" font-family="Helvetica,sans-Serif" font-size="10.00"> m_reference_count_mutex</text>
</g>
<!-- Node10&#45;&gt;Node13 -->
<g id="edge40" class="edge"><title>Node10&#45;&gt;Node13</title>
<path fill="none" stroke="#9a32cd" stroke-dasharray="5,2" d="M382.173,-146.954C430.525,-140.758 509.532,-131.423 578,-127 726.35,-117.417 901.875,-116.453 988.35,-116.662"/>
<polygon fill="#9a32cd" stroke="#9a32cd" points="381.51,-143.511 372.041,-148.264 382.407,-150.453 381.51,-143.511"/>
<text text-anchor="middle" x="750" y="-124" font-family="Helvetica,sans-Serif" font-size="10.00"> mutex</text>
</g>
<!-- Node11 -->
<g id="node25" class="node"><title>Node11</title>
<a xlink:href="structstxxl_1_1choose__int__types.html" target="_top" xlink:title="stxxl::choose_int_types\l\&lt; my_pointer_size \&gt;">
<polygon fill="none" stroke="black" points="274.5,-0 274.5,-34 399.5,-34 399.5,-0 274.5,-0"/>
<text text-anchor="start" x="282.5" y="-21" font-family="Helvetica,sans-Serif" font-size="10.00">stxxl::choose_int_types</text>
<text text-anchor="middle" x="337" y="-8" font-family="Helvetica,sans-Serif" font-size="10.00">&lt; my_pointer_size &gt;</text>
</a>
</g>
<!-- Node11&#45;&gt;Node4 -->
<g id="edge42" class="edge"><title>Node11&#45;&gt;Node4</title>
<path fill="none" stroke="#9a32cd" stroke-dasharray="5,2" d="M409.869,-13.9704C470.612,-11.706 559.427,-9 637,-9 637,-9 637,-9 1263,-9 1381.68,-9 1427.52,-194.81 1438.95,-252.875"/>
<polygon fill="#9a32cd" stroke="#9a32cd" points="409.477,-10.4826 399.617,-14.3583 409.742,-17.4776 409.477,-10.4826"/>
<text text-anchor="start" x="878.5" y="-26" font-family="Helvetica,sans-Serif" font-size="10.00"> remaining_internal</text>
<text text-anchor="middle" x="924" y="-13" font-family="Helvetica,sans-Serif" font-size="10.00">_blocks</text>
</g>
<!-- Node11&#45;&gt;Node9 -->
<g id="edge30" class="edge"><title>Node11&#45;&gt;Node9</title>
<path fill="none" stroke="#9a32cd" stroke-dasharray="5,2" d="M383.852,-38.2398C443.256,-65.1693 544.508,-111.07 599.227,-135.876"/>
<polygon fill="#9a32cd" stroke="#9a32cd" points="385.244,-35.028 374.691,-34.0868 382.354,-41.4035 385.244,-35.028"/>
<text text-anchor="middle" x="495" y="-120" font-family="Helvetica,sans-Serif" font-size="10.00"> m_reference_count</text>
</g>
<!-- Node12 -->
<g id="node27" class="node"><title>Node12</title>
<a xlink:href="structstxxl_1_1choose__int__types.html" target="_top" xlink:title="stxxl::choose_int_types\l\&lt; PtrSize \&gt;">
<polygon fill="none" stroke="black" points="0.5,-0 0.5,-34 125.5,-34 125.5,-0 0.5,-0"/>
<text text-anchor="start" x="8.5" y="-21" font-family="Helvetica,sans-Serif" font-size="10.00">stxxl::choose_int_types</text>
<text text-anchor="middle" x="63" y="-8" font-family="Helvetica,sans-Serif" font-size="10.00">&lt; PtrSize &gt;</text>
</a>
</g>
<!-- Node12&#45;&gt;Node11 -->
<g id="edge32" class="edge"><title>Node12&#45;&gt;Node11</title>
<path fill="none" stroke="orange" stroke-dasharray="5,2" d="M135.672,-17C178.827,-17 232.999,-17 274.277,-17"/>
<polygon fill="orange" stroke="orange" points="135.518,-13.5001 125.518,-17 135.518,-20.5001 135.518,-13.5001"/>
<text text-anchor="middle" x="194" y="-21" font-family="Helvetica,sans-Serif" font-size="10.00"> &lt; my_pointer_size &gt;</text>
</g>
<!-- Node13&#45;&gt;Node5 -->
<g id="edge34" class="edge"><title>Node13&#45;&gt;Node5</title>
<path fill="none" stroke="#9a32cd" stroke-dasharray="5,2" d="M1105.5,-122.895C1131.92,-127.033 1162.34,-134.064 1188,-146 1214.31,-158.238 1239.5,-181.558 1252.94,-195.242"/>
<polygon fill="#9a32cd" stroke="#9a32cd" points="1105.99,-119.429 1095.59,-121.446 1104.98,-126.356 1105.99,-119.429"/>
<text text-anchor="middle" x="1151" y="-150" font-family="Helvetica,sans-Serif" font-size="10.00"> disk_allocators</text>
</g>
</g>
</svg>
