<?xml version="1.0" encoding="UTF-8" standalone="no"?>
<!DOCTYPE svg PUBLIC "-//W3C//DTD SVG 1.1//EN"
 "http://www.w3.org/Graphics/SVG/1.1/DTD/svg11.dtd">
<!-- Generated by graphviz version 2.26.3 (20100126.1600)
 -->
<!-- Title: stxxl::sorter&lt; ValueType, CompareType, BlockSize, AllocStrategy &gt; Pages: 1 -->
<svg width="2246pt" height="669pt"
 viewBox="0.00 0.00 2246.00 669.00" xmlns="http://www.w3.org/2000/svg" xmlns:xlink="http://www.w3.org/1999/xlink">
<g id="graph1" class="graph" transform="scale(1 1) rotate(0) translate(4 665)">
<title>stxxl::sorter&lt; ValueType, CompareType, BlockSize, AllocStrategy &gt;</title>
<!-- Node1 -->
<g id="node1" class="node"><title>Node1</title>
<polygon fill="#bfbfbf" stroke="black" points="2098,-517.5 2098,-564.5 2238,-564.5 2238,-517.5 2098,-517.5"/>
<text text-anchor="start" x="2106" y="-551.5" font-family="Helvetica,sans-Serif" font-size="10.00">stxxl::sorter&lt; ValueType,</text>
<text text-anchor="start" x="2106" y="-538.5" font-family="Helvetica,sans-Serif" font-size="10.00"> CompareType, BlockSize,</text>
<text text-anchor="middle" x="2168" y="-525.5" font-family="Helvetica,sans-Serif" font-size="10.00"> AllocStrategy &gt;</text>
</g>
<!-- Node2 -->
<g id="node2" class="node"><title>Node2</title>
<a xlink:href="classstxxl_1_1noncopyable.html" target="_top" xlink:title="stxxl::noncopyable">
<polygon fill="none" stroke="black" points="6,-246.5 6,-267.5 108,-267.5 108,-246.5 6,-246.5"/>
<text text-anchor="middle" x="57" y="-254.5" font-family="Helvetica,sans-Serif" font-size="10.00">stxxl::noncopyable</text>
</a>
</g>
<!-- Node2&#45;&gt;Node1 -->
<g id="edge2" class="edge"><title>Node2&#45;&gt;Node1</title>
<path fill="none" stroke="#8b1a1a" d="M60.1511,-277.955C69.5952,-338.69 99.0582,-513.459 132,-560 183.215,-632.359 215.35,-661 304,-661 304,-661 304,-661 1910,-661 2000.4,-661 2093.4,-599.68 2139.08,-564.708"/>
<polygon fill="#8b1a1a" stroke="#8b1a1a" points="63.5537,-277.052 58.579,-267.697 56.6345,-278.112 63.5537,-277.052"/>
</g>
<!-- Node4 -->
<g id="node6" class="node"><title>Node4</title>
<a xlink:href="classstxxl_1_1stream_1_1basic__runs__merger.html" target="_top" xlink:title="stxxl::stream::basic\l_runs_merger\&lt; typename\l runs_creator_type::sorted\l_runs_type, cmp_type, alloc\l_strategy_type \&gt;">
<polygon fill="none" stroke="black" points="1489.5,-282.5 1489.5,-355.5 1636.5,-355.5 1636.5,-282.5 1489.5,-282.5"/>
<text text-anchor="start" x="1497.5" y="-342.5" font-family="Helvetica,sans-Serif" font-size="10.00">stxxl::stream::basic</text>
<text text-anchor="start" x="1497.5" y="-329.5" font-family="Helvetica,sans-Serif" font-size="10.00">_runs_merger&lt; typename</text>
<text text-anchor="start" x="1497.5" y="-316.5" font-family="Helvetica,sans-Serif" font-size="10.00"> runs_creator_type::sorted</text>
<text text-anchor="start" x="1497.5" y="-303.5" font-family="Helvetica,sans-Serif" font-size="10.00">_runs_type, cmp_type, alloc</text>
<text text-anchor="middle" x="1563" y="-290.5" font-family="Helvetica,sans-Serif" font-size="10.00">_strategy_type &gt;</text>
</a>
</g>
<!-- Node2&#45;&gt;Node4 -->
<g id="edge8" class="edge"><title>Node2&#45;&gt;Node4</title>
<path fill="none" stroke="#8b1a1a" d="M61.6277,-236.039C69.8873,-203.822 90.3526,-142.562 132,-111 194.174,-63.882 225.989,-76 304,-76 304,-76 304,-76 1204,-76 1340.39,-76 1368.51,-141.622 1464,-239 1474.89,-250.102 1471.07,-257.936 1482,-269 1486.64,-273.704 1491.82,-278.158 1497.23,-282.326"/>
<polygon fill="#8b1a1a" stroke="#8b1a1a" points="58.137,-235.585 59.2005,-246.126 64.9428,-237.223 58.137,-235.585"/>
</g>
<!-- Node5 -->
<g id="node9" class="node"><title>Node5</title>
<a xlink:href="classstxxl_1_1block__prefetcher.html" target="_top" xlink:title="Encapsulates asynchronous prefetching engine. ">
<polygon fill="none" stroke="black" points="762.5,-213 762.5,-247 925.5,-247 925.5,-213 762.5,-213"/>
<text text-anchor="start" x="770.5" y="-234" font-family="Helvetica,sans-Serif" font-size="10.00">stxxl::block_prefetcher</text>
<text text-anchor="middle" x="844" y="-221" font-family="Helvetica,sans-Serif" font-size="10.00">&lt; BlockType, BidIteratorType &gt;</text>
</a>
</g>
<!-- Node2&#45;&gt;Node5 -->
<g id="edge12" class="edge"><title>Node2&#45;&gt;Node5</title>
<path fill="none" stroke="#8b1a1a" d="M118.52,-257.038C149.553,-256.953 187.777,-256.69 222,-256 286.914,-254.692 303.141,-253.96 368,-251 500.522,-244.952 533.445,-239.269 666,-234 697.504,-232.748 732.161,-231.858 762.457,-231.242"/>
<polygon fill="#8b1a1a" stroke="#8b1a1a" points="118.28,-253.539 108.288,-257.061 118.296,-260.539 118.28,-253.539"/>
</g>
<!-- Node8 -->
<g id="node16" class="node"><title>Node8</title>
<a xlink:href="classstxxl_1_1onoff__switch.html" target="_top" xlink:title="stxxl::onoff_switch">
<polygon fill="none" stroke="black" points="525.5,-176.5 525.5,-197.5 626.5,-197.5 626.5,-176.5 525.5,-176.5"/>
<text text-anchor="middle" x="576" y="-184.5" font-family="Helvetica,sans-Serif" font-size="10.00">stxxl::onoff_switch</text>
</a>
</g>
<!-- Node2&#45;&gt;Node8 -->
<g id="edge20" class="edge"><title>Node2&#45;&gt;Node8</title>
<path fill="none" stroke="#8b1a1a" d="M103.221,-243.702C112.718,-241.07 122.666,-238.386 132,-236 179.735,-223.799 191.28,-218.333 240,-211 340.481,-195.876 459.345,-190.226 525.352,-188.157"/>
<polygon fill="#8b1a1a" stroke="#8b1a1a" points="102.22,-240.348 93.5315,-246.412 104.105,-247.089 102.22,-240.348"/>
</g>
<!-- Node9 -->
<g id="node19" class="node"><title>Node9</title>
<a xlink:href="classstxxl_1_1mutex.html" target="_top" xlink:title="stxxl::mutex">
<polygon fill="none" stroke="black" points="269,-142.5 269,-163.5 339,-163.5 339,-142.5 269,-142.5"/>
<text text-anchor="middle" x="304" y="-150.5" font-family="Helvetica,sans-Serif" font-size="10.00">stxxl::mutex</text>
</a>
</g>
<!-- Node2&#45;&gt;Node9 -->
<g id="edge24" class="edge"><title>Node2&#45;&gt;Node9</title>
<path fill="none" stroke="#8b1a1a" d="M69.2221,-238.119C82.3528,-219.537 105.013,-191.976 132,-178 175.274,-155.589 232.401,-151.505 268.681,-151.543"/>
<polygon fill="#8b1a1a" stroke="#8b1a1a" points="66.3037,-236.186 63.5644,-246.421 72.0882,-240.128 66.3037,-236.186"/>
</g>
<!-- Node10 -->
<g id="node22" class="node"><title>Node10</title>
<a xlink:href="classstxxl_1_1condition__variable.html" target="_top" xlink:title="stxxl::condition_variable">
<polygon fill="none" stroke="black" points="240,-220.5 240,-241.5 368,-241.5 368,-220.5 240,-220.5"/>
<text text-anchor="middle" x="304" y="-228.5" font-family="Helvetica,sans-Serif" font-size="10.00">stxxl::condition_variable</text>
</a>
</g>
<!-- Node2&#45;&gt;Node10 -->
<g id="edge28" class="edge"><title>Node2&#45;&gt;Node10</title>
<path fill="none" stroke="#8b1a1a" d="M118.313,-250.546C155.248,-246.658 202.222,-241.713 239.683,-237.77"/>
<polygon fill="#8b1a1a" stroke="#8b1a1a" points="117.757,-247.085 108.179,-251.613 118.49,-254.047 117.757,-247.085"/>
</g>
<!-- Node15 -->
<g id="node34" class="node"><title>Node15</title>
<a xlink:href="classstxxl_1_1loser__tree.html" target="_top" xlink:title="stxxl::loser_tree\&lt;\l RunCursorType, RunCursorCmp\lType \&gt;">
<polygon fill="none" stroke="black" points="758.5,-284.5 758.5,-331.5 929.5,-331.5 929.5,-284.5 758.5,-284.5"/>
<text text-anchor="start" x="766.5" y="-318.5" font-family="Helvetica,sans-Serif" font-size="10.00">stxxl::loser_tree&lt;</text>
<text text-anchor="start" x="766.5" y="-305.5" font-family="Helvetica,sans-Serif" font-size="10.00"> RunCursorType, RunCursorCmp</text>
<text text-anchor="middle" x="844" y="-292.5" font-family="Helvetica,sans-Serif" font-size="10.00">Type &gt;</text>
</a>
</g>
<!-- Node2&#45;&gt;Node15 -->
<g id="edge42" class="edge"><title>Node2&#45;&gt;Node15</title>
<path fill="none" stroke="#8b1a1a" d="M118.298,-267.971C122.929,-268.694 127.535,-269.38 132,-270 296.658,-292.875 337.987,-300.321 504,-309 608.746,-314.476 635.112,-309.504 740,-309 745.959,-308.971 752.109,-308.933 758.303,-308.889"/>
<polygon fill="#8b1a1a" stroke="#8b1a1a" points="118.595,-264.474 108.166,-266.341 117.482,-271.385 118.595,-264.474"/>
</g>
<!-- Node16 -->
<g id="node38" class="node"><title>Node16</title>
<a xlink:href="classstxxl_1_1stream_1_1basic__runs__merger.html" target="_top" xlink:title="Merges sorted runs. ">
<polygon fill="none" stroke="black" points="1133,-221.5 1133,-268.5 1275,-268.5 1275,-221.5 1133,-221.5"/>
<text text-anchor="start" x="1141" y="-255.5" font-family="Helvetica,sans-Serif" font-size="10.00">stxxl::stream::basic</text>
<text text-anchor="start" x="1141" y="-242.5" font-family="Helvetica,sans-Serif" font-size="10.00">_runs_merger&lt; RunsType,</text>
<text text-anchor="middle" x="1204" y="-229.5" font-family="Helvetica,sans-Serif" font-size="10.00"> CompareType, AllocStr &gt;</text>
</a>
</g>
<!-- Node2&#45;&gt;Node16 -->
<g id="edge48" class="edge"><title>Node2&#45;&gt;Node16</title>
<path fill="none" stroke="#8b1a1a" d="M65.3295,-237.097C76.6671,-212.574 99.353,-171.524 132,-150 197.205,-107.011 225.899,-114 304,-114 304,-114 304,-114 844,-114 968.206,-114 1102.77,-183.713 1166.49,-221.429"/>
<polygon fill="#8b1a1a" stroke="#8b1a1a" points="62.0191,-235.929 61.1694,-246.489 68.4194,-238.763 62.0191,-235.929"/>
</g>
<!-- Node19 -->
<g id="node49" class="node"><title>Node19</title>
<a xlink:href="classstxxl_1_1stream_1_1basic__runs__creator.html" target="_top" xlink:title="stxxl::stream::basic\l_runs_creator\&lt; stream\l::use_push\&lt; ValueType\l \&gt;, cmp_type, BlockSize,\l alloc_strategy_type \&gt;">
<polygon fill="none" stroke="black" points="1139,-537.5 1139,-610.5 1269,-610.5 1269,-537.5 1139,-537.5"/>
<text text-anchor="start" x="1147" y="-597.5" font-family="Helvetica,sans-Serif" font-size="10.00">stxxl::stream::basic</text>
<text text-anchor="start" x="1147" y="-584.5" font-family="Helvetica,sans-Serif" font-size="10.00">_runs_creator&lt; stream</text>
<text text-anchor="start" x="1147" y="-571.5" font-family="Helvetica,sans-Serif" font-size="10.00">::use_push&lt; ValueType</text>
<text text-anchor="start" x="1147" y="-558.5" font-family="Helvetica,sans-Serif" font-size="10.00"> &gt;, cmp_type, BlockSize,</text>
<text text-anchor="middle" x="1204" y="-545.5" font-family="Helvetica,sans-Serif" font-size="10.00"> alloc_strategy_type &gt;</text>
</a>
</g>
<!-- Node2&#45;&gt;Node19 -->
<g id="edge64" class="edge"><title>Node2&#45;&gt;Node19</title>
<path fill="none" stroke="#8b1a1a" d="M60.4243,-277.495C74.5883,-354.616 135.952,-623 304,-623 304,-623 304,-623 844,-623 960.177,-623 989.307,-614.511 1104,-596 1115.32,-594.173 1127.28,-591.87 1138.85,-589.447"/>
<polygon fill="#8b1a1a" stroke="#8b1a1a" points="63.8554,-276.798 58.6699,-267.559 56.962,-278.015 63.8554,-276.798"/>
</g>
<!-- Node21 -->
<g id="node56" class="node"><title>Node21</title>
<a xlink:href="classstxxl_1_1stream_1_1basic__runs__creator.html" target="_top" xlink:title="Forms sorted runs of data from a stream. ">
<polygon fill="none" stroke="black" points="774,-486 774,-546 914,-546 914,-486 774,-486"/>
<text text-anchor="start" x="782" y="-533" font-family="Helvetica,sans-Serif" font-size="10.00">stxxl::stream::basic</text>
<text text-anchor="start" x="782" y="-520" font-family="Helvetica,sans-Serif" font-size="10.00">_runs_creator&lt; Input,</text>
<text text-anchor="start" x="782" y="-507" font-family="Helvetica,sans-Serif" font-size="10.00"> CompareType, BlockSize,</text>
<text text-anchor="middle" x="844" y="-494" font-family="Helvetica,sans-Serif" font-size="10.00"> AllocStr &gt;</text>
</a>
</g>
<!-- Node2&#45;&gt;Node21 -->
<g id="edge74" class="edge"><title>Node2&#45;&gt;Node21</title>
<path fill="none" stroke="#8b1a1a" d="M68.7595,-276.349C94.3459,-316.599 159.305,-409.232 240,-453 413.304,-546.997 655.707,-537.286 773.787,-525.223"/>
<polygon fill="#8b1a1a" stroke="#8b1a1a" points="71.6429,-274.358 63.3771,-267.73 65.7057,-278.066 71.6429,-274.358"/>
</g>
<!-- Node3 -->
<g id="node4" class="node"><title>Node3</title>
<a xlink:href="classstxxl_1_1stream_1_1runs__merger.html" target="_top" xlink:title="stxxl::stream::runs\l_merger\&lt; typename runs\l_creator_type::sorted\l_runs_type, cmp_type, alloc\l_strategy_type \&gt;">
<polygon fill="none" stroke="black" points="1836.5,-282.5 1836.5,-355.5 1983.5,-355.5 1983.5,-282.5 1836.5,-282.5"/>
<text text-anchor="start" x="1844.5" y="-342.5" font-family="Helvetica,sans-Serif" font-size="10.00">stxxl::stream::runs</text>
<text text-anchor="start" x="1844.5" y="-329.5" font-family="Helvetica,sans-Serif" font-size="10.00">_merger&lt; typename runs</text>
<text text-anchor="start" x="1844.5" y="-316.5" font-family="Helvetica,sans-Serif" font-size="10.00">_creator_type::sorted</text>
<text text-anchor="start" x="1844.5" y="-303.5" font-family="Helvetica,sans-Serif" font-size="10.00">_runs_type, cmp_type, alloc</text>
<text text-anchor="middle" x="1910" y="-290.5" font-family="Helvetica,sans-Serif" font-size="10.00">_strategy_type &gt;</text>
</a>
</g>
<!-- Node3&#45;&gt;Node1 -->
<g id="edge4" class="edge"><title>Node3&#45;&gt;Node1</title>
<path fill="none" stroke="#9a32cd" stroke-dasharray="5,2" d="M1960.32,-362.3C2014.15,-408.614 2097.54,-480.368 2140.44,-517.282"/>
<polygon fill="#9a32cd" stroke="#9a32cd" points="1962.47,-359.528 1952.6,-355.659 1957.9,-364.834 1962.47,-359.528"/>
<text text-anchor="middle" x="2041" y="-466" font-family="Helvetica,sans-Serif" font-size="10.00"> m_runs_merger</text>
</g>
<!-- Node4&#45;&gt;Node3 -->
<g id="edge6" class="edge"><title>Node4&#45;&gt;Node3</title>
<path fill="none" stroke="midnightblue" d="M1646.79,-319C1704.59,-319 1780.71,-319 1836.22,-319"/>
<polygon fill="midnightblue" stroke="midnightblue" points="1646.59,-315.5 1636.59,-319 1646.59,-322.5 1646.59,-315.5"/>
</g>
<!-- Node5&#45;&gt;Node4 -->
<g id="edge10" class="edge"><title>Node5&#45;&gt;Node4</title>
<path fill="none" stroke="#9a32cd" stroke-dasharray="5,2" d="M885.332,-251.708C913.584,-266.506 946.236,-283.514 948,-284 1137.7,-336.281 1372.42,-331.489 1489.44,-324.658"/>
<polygon fill="#9a32cd" stroke="#9a32cd" points="886.841,-248.547 876.359,-247.005 883.591,-254.747 886.841,-248.547"/>
<text text-anchor="middle" x="1204" y="-331" font-family="Helvetica,sans-Serif" font-size="10.00"> m_prefetcher</text>
</g>
<!-- Node5&#45;&gt;Node16 -->
<g id="edge50" class="edge"><title>Node5&#45;&gt;Node16</title>
<path fill="none" stroke="#9a32cd" stroke-dasharray="5,2" d="M935.892,-227.331C985.702,-226.645 1048.29,-227.012 1104,-231 1113.35,-231.67 1123.17,-232.671 1132.84,-233.836"/>
<polygon fill="#9a32cd" stroke="#9a32cd" points="935.731,-223.833 925.786,-227.487 935.839,-230.832 935.731,-223.833"/>
<text text-anchor="middle" x="1026" y="-235" font-family="Helvetica,sans-Serif" font-size="10.00"> m_prefetcher</text>
</g>
<!-- Node6 -->
<g id="node12" class="node"><title>Node6</title>
<a xlink:href="structstxxl_1_1choose__int__types.html" target="_top" xlink:title="stxxl::choose_int_types\l\&lt; my_pointer_size \&gt;">
<polygon fill="none" stroke="black" points="513.5,-367 513.5,-401 638.5,-401 638.5,-367 513.5,-367"/>
<text text-anchor="start" x="521.5" y="-388" font-family="Helvetica,sans-Serif" font-size="10.00">stxxl::choose_int_types</text>
<text text-anchor="middle" x="576" y="-375" font-family="Helvetica,sans-Serif" font-size="10.00">&lt; my_pointer_size &gt;</text>
</a>
</g>
<!-- Node6&#45;&gt;Node4 -->
<g id="edge38" class="edge"><title>Node6&#45;&gt;Node4</title>
<path fill="none" stroke="#9a32cd" stroke-dasharray="5,2" d="M649.181,-386.643C654.872,-386.787 660.529,-386.909 666,-387 698.884,-387.548 707.112,-387.26 740,-387 982.822,-385.083 1043.65,-382.313 1286,-367 1365.2,-361.996 1386.3,-369.127 1464,-353 1472.27,-351.283 1480.81,-349.067 1489.24,-346.592"/>
<polygon fill="#9a32cd" stroke="#9a32cd" points="649.027,-383.138 638.936,-386.365 648.837,-390.135 649.027,-383.138"/>
<text text-anchor="middle" x="1026" y="-388" font-family="Helvetica,sans-Serif" font-size="10.00"> m_memory_to_use</text>
</g>
<!-- Node6&#45;&gt;Node5 -->
<g id="edge14" class="edge"><title>Node6&#45;&gt;Node5</title>
<path fill="none" stroke="#9a32cd" stroke-dasharray="5,2" d="M595.236,-359.064C612.001,-338.814 637.969,-310.791 666,-293 698.659,-272.271 739.029,-257.267 773.062,-247.113"/>
<polygon fill="#9a32cd" stroke="#9a32cd" points="592.426,-356.972 588.849,-366.944 597.864,-361.379 592.426,-356.972"/>
<text text-anchor="middle" x="703" y="-323" font-family="Helvetica,sans-Serif" font-size="10.00"> seq_length</text>
<text text-anchor="middle" x="703" y="-310" font-family="Helvetica,sans-Serif" font-size="10.00">nextconsume</text>
<text text-anchor="middle" x="703" y="-297" font-family="Helvetica,sans-Serif" font-size="10.00">nextread</text>
</g>
<!-- Node6&#45;&gt;Node15 -->
<g id="edge44" class="edge"><title>Node6&#45;&gt;Node15</title>
<path fill="none" stroke="#9a32cd" stroke-dasharray="5,2" d="M641.929,-364.033C650.028,-361.636 658.198,-359.244 666,-357 696.034,-348.362 729.01,-339.197 758.33,-331.158"/>
<polygon fill="#9a32cd" stroke="#9a32cd" points="640.701,-360.746 632.113,-366.951 642.696,-367.456 640.701,-360.746"/>
<text text-anchor="middle" x="703" y="-361" font-family="Helvetica,sans-Serif" font-size="10.00"> k</text>
</g>
<!-- Node6&#45;&gt;Node16 -->
<g id="edge52" class="edge"><title>Node6&#45;&gt;Node16</title>
<path fill="none" stroke="#9a32cd" stroke-dasharray="5,2" d="M649.052,-378.807C677.483,-376.513 710.305,-373.53 740,-370 824.825,-359.917 847.113,-361.656 930,-341 1006.54,-321.925 1091.9,-290.295 1146.69,-268.589"/>
<polygon fill="#9a32cd" stroke="#9a32cd" points="648.482,-375.341 638.79,-379.621 649.035,-382.319 648.482,-375.341"/>
<text text-anchor="middle" x="844" y="-371" font-family="Helvetica,sans-Serif" font-size="10.00"> m_memory_to_use</text>
</g>
<!-- Node6&#45;&gt;Node19 -->
<g id="edge70" class="edge"><title>Node6&#45;&gt;Node19</title>
<path fill="none" stroke="#9a32cd" stroke-dasharray="5,2" d="M628.862,-406.61C636.2,-411.72 642.943,-417.812 648,-425 674.739,-463.008 635.038,-493.345 666,-528 727.13,-596.422 1009.34,-587.102 1138.78,-578.925"/>
<polygon fill="#9a32cd" stroke="#9a32cd" points="630.368,-403.423 620.041,-401.056 626.638,-409.346 630.368,-403.423"/>
<text text-anchor="middle" x="844" y="-588" font-family="Helvetica,sans-Serif" font-size="10.00"> m_memsize</text>
</g>
<!-- Node6&#45;&gt;Node21 -->
<g id="edge78" class="edge"><title>Node6&#45;&gt;Node21</title>
<path fill="none" stroke="#9a32cd" stroke-dasharray="5,2" d="M619.843,-405.594C664.225,-427.454 733.218,-461.436 782.94,-485.926"/>
<polygon fill="#9a32cd" stroke="#9a32cd" points="621.279,-402.4 610.762,-401.121 618.186,-408.68 621.279,-402.4"/>
<text text-anchor="middle" x="703" y="-465" font-family="Helvetica,sans-Serif" font-size="10.00"> m_memsize</text>
</g>
<!-- Node7 -->
<g id="node14" class="node"><title>Node7</title>
<a xlink:href="structstxxl_1_1choose__int__types.html" target="_top" xlink:title="stxxl::choose_int_types\l\&lt; PtrSize \&gt;">
<polygon fill="none" stroke="black" points="241.5,-351 241.5,-385 366.5,-385 366.5,-351 241.5,-351"/>
<text text-anchor="start" x="249.5" y="-372" font-family="Helvetica,sans-Serif" font-size="10.00">stxxl::choose_int_types</text>
<text text-anchor="middle" x="304" y="-359" font-family="Helvetica,sans-Serif" font-size="10.00">&lt; PtrSize &gt;</text>
</a>
</g>
<!-- Node7&#45;&gt;Node6 -->
<g id="edge16" class="edge"><title>Node7&#45;&gt;Node6</title>
<path fill="none" stroke="orange" stroke-dasharray="5,2" d="M376.753,-372.28C419.272,-374.781 472.401,-377.906 513.101,-380.3"/>
<polygon fill="orange" stroke="orange" points="376.932,-368.784 366.744,-371.691 376.521,-375.772 376.932,-368.784"/>
<text text-anchor="middle" x="436" y="-382" font-family="Helvetica,sans-Serif" font-size="10.00"> &lt; my_pointer_size &gt;</text>
</g>
<!-- Node8&#45;&gt;Node5 -->
<g id="edge18" class="edge"><title>Node8&#45;&gt;Node5</title>
<path fill="none" stroke="#9a32cd" stroke-dasharray="5,2" d="M637.066,-179.4C668.193,-177.155 706.457,-176.913 740,-184 766.27,-189.55 793.98,-202.186 814.186,-212.812"/>
<polygon fill="#9a32cd" stroke="#9a32cd" points="636.486,-175.936 626.801,-180.231 637.051,-182.913 636.486,-175.936"/>
<text text-anchor="middle" x="703" y="-188" font-family="Helvetica,sans-Serif" font-size="10.00"> completed</text>
</g>
<!-- Node9&#45;&gt;Node8 -->
<g id="edge22" class="edge"><title>Node9&#45;&gt;Node8</title>
<path fill="none" stroke="#9a32cd" stroke-dasharray="5,2" d="M349.53,-153.81C386.49,-154.993 439.854,-157.894 486,-165 503.646,-167.717 522.91,-172.214 539.072,-176.437"/>
<polygon fill="#9a32cd" stroke="#9a32cd" points="349.185,-150.299 339.087,-153.508 348.982,-157.296 349.185,-150.299"/>
<text text-anchor="middle" x="436" y="-169" font-family="Helvetica,sans-Serif" font-size="10.00"> m_mutex</text>
</g>
<!-- Node10&#45;&gt;Node8 -->
<g id="edge26" class="edge"><title>Node10&#45;&gt;Node8</title>
<path fill="none" stroke="#9a32cd" stroke-dasharray="5,2" d="M378.237,-222.024C411.31,-217.712 450.69,-212.144 486,-206 500.002,-203.563 515.147,-200.525 528.946,-197.597"/>
<polygon fill="#9a32cd" stroke="#9a32cd" points="377.657,-218.57 368.187,-223.322 378.553,-225.513 377.657,-218.57"/>
<text text-anchor="middle" x="436" y="-224" font-family="Helvetica,sans-Serif" font-size="10.00"> m_cond</text>
</g>
<!-- Node11 -->
<g id="node25" class="node"><title>Node11</title>
<a xlink:href="classstxxl_1_1counting__ptr.html" target="_top" xlink:title="High&#45;performance smart pointer used as a wrapping reference counting pointer. ">
<polygon fill="none" stroke="black" points="253.5,-410 253.5,-444 354.5,-444 354.5,-410 253.5,-410"/>
<text text-anchor="start" x="261.5" y="-431" font-family="Helvetica,sans-Serif" font-size="10.00">stxxl::counting_ptr</text>
<text text-anchor="middle" x="304" y="-418" font-family="Helvetica,sans-Serif" font-size="10.00">&lt; Type &gt;</text>
</a>
</g>
<!-- Node11&#45;&gt;Node5 -->
<g id="edge30" class="edge"><title>Node11&#45;&gt;Node5</title>
<path fill="none" stroke="#9a32cd" stroke-dasharray="5,2" d="M364.509,-421.7C402.652,-415.726 451.11,-403.021 486,-376 498.596,-366.245 492.628,-356.158 504,-345 562.791,-287.314 587.903,-281.169 666,-255 696.625,-244.738 731.582,-238.688 762.362,-235.121"/>
<polygon fill="#9a32cd" stroke="#9a32cd" points="363.941,-418.246 354.548,-423.146 364.947,-425.173 363.941,-418.246"/>
<text text-anchor="middle" x="576" y="-349" font-family="Helvetica,sans-Serif" font-size="10.00"> read_reqs</text>
</g>
<!-- Node20 -->
<g id="node52" class="node"><title>Node20</title>
<a xlink:href="classstxxl_1_1counting__ptr.html" target="_top" xlink:title="stxxl::counting_ptr\l\&lt; sorted_runs_data_type \&gt;">
<polygon fill="none" stroke="black" points="504,-434 504,-468 648,-468 648,-434 504,-434"/>
<text text-anchor="start" x="512" y="-455" font-family="Helvetica,sans-Serif" font-size="10.00">stxxl::counting_ptr</text>
<text text-anchor="middle" x="576" y="-442" font-family="Helvetica,sans-Serif" font-size="10.00">&lt; sorted_runs_data_type &gt;</text>
</a>
</g>
<!-- Node11&#45;&gt;Node20 -->
<g id="edge68" class="edge"><title>Node11&#45;&gt;Node20</title>
<path fill="none" stroke="orange" stroke-dasharray="5,2" d="M364.692,-432.355C405.887,-435.99 460.546,-440.813 503.952,-444.643"/>
<polygon fill="orange" stroke="orange" points="364.793,-428.851 354.524,-431.458 364.177,-435.823 364.793,-428.851"/>
<text text-anchor="start" x="388" y="-459" font-family="Helvetica,sans-Serif" font-size="10.00"> &lt; sorted_runs_data</text>
<text text-anchor="middle" x="436" y="-446" font-family="Helvetica,sans-Serif" font-size="10.00">_type &gt;</text>
</g>
<!-- Node12 -->
<g id="node27" class="node"><title>Node12</title>
<a xlink:href="classstxxl_1_1completion__handler.html" target="_top" xlink:title="Completion handler class (Loki&#45;style). ">
<polygon fill="none" stroke="black" points="508.5,-23.5 508.5,-44.5 643.5,-44.5 643.5,-23.5 508.5,-23.5"/>
<text text-anchor="middle" x="576" y="-31.5" font-family="Helvetica,sans-Serif" font-size="10.00">stxxl::completion_handler</text>
</a>
</g>
<!-- Node12&#45;&gt;Node5 -->
<g id="edge32" class="edge"><title>Node12&#45;&gt;Node5</title>
<path fill="none" stroke="#9a32cd" stroke-dasharray="5,2" d="M598.672,-50.5811C648.922,-87.3313 769.245,-175.328 820.371,-212.719"/>
<polygon fill="#9a32cd" stroke="#9a32cd" points="600.547,-47.6159 590.409,-44.5378 596.414,-53.2661 600.547,-47.6159"/>
<text text-anchor="middle" x="703" y="-153" font-family="Helvetica,sans-Serif" font-size="10.00"> do_after_fetch</text>
</g>
<!-- Node13 -->
<g id="node29" class="node"><title>Node13</title>
<a xlink:href="structstxxl_1_1compat__unique__ptr.html" target="_top" xlink:title="stxxl::compat_unique\l_ptr\&lt; stxxl::completion\l_handler_impl \&gt;">
<polygon fill="none" stroke="black" points="243.5,-0.5 243.5,-47.5 364.5,-47.5 364.5,-0.5 243.5,-0.5"/>
<text text-anchor="start" x="251.5" y="-34.5" font-family="Helvetica,sans-Serif" font-size="10.00">stxxl::compat_unique</text>
<text text-anchor="start" x="251.5" y="-21.5" font-family="Helvetica,sans-Serif" font-size="10.00">_ptr&lt; stxxl::completion</text>
<text text-anchor="middle" x="304" y="-8.5" font-family="Helvetica,sans-Serif" font-size="10.00">_handler_impl &gt;</text>
</a>
</g>
<!-- Node13&#45;&gt;Node12 -->
<g id="edge34" class="edge"><title>Node13&#45;&gt;Node12</title>
<path fill="none" stroke="#9a32cd" stroke-dasharray="5,2" d="M374.935,-26.6079C416.114,-28.1218 467.704,-30.0185 508.316,-31.5116"/>
<polygon fill="#9a32cd" stroke="#9a32cd" points="374.825,-23.1016 364.704,-26.2317 374.568,-30.0969 374.825,-23.1016"/>
<text text-anchor="middle" x="436" y="-34" font-family="Helvetica,sans-Serif" font-size="10.00"> m_ptr</text>
</g>
<!-- Node14 -->
<g id="node31" class="node"><title>Node14</title>
<a xlink:href="structstxxl_1_1compat__unique__ptr.html" target="_top" xlink:title="stxxl::compat_unique\l_ptr\&lt; Type \&gt;">
<polygon fill="none" stroke="black" points="0.5,-7 0.5,-41 113.5,-41 113.5,-7 0.5,-7"/>
<text text-anchor="start" x="8.5" y="-28" font-family="Helvetica,sans-Serif" font-size="10.00">stxxl::compat_unique</text>
<text text-anchor="middle" x="57" y="-15" font-family="Helvetica,sans-Serif" font-size="10.00">_ptr&lt; Type &gt;</text>
</a>
</g>
<!-- Node14&#45;&gt;Node13 -->
<g id="edge36" class="edge"><title>Node14&#45;&gt;Node13</title>
<path fill="none" stroke="orange" stroke-dasharray="5,2" d="M123.917,-24C161.137,-24 207.104,-24 243.28,-24"/>
<polygon fill="orange" stroke="orange" points="123.667,-20.5001 113.667,-24 123.667,-27.5001 123.667,-20.5001"/>
<text text-anchor="start" x="132.5" y="-41" font-family="Helvetica,sans-Serif" font-size="10.00"> &lt; stxxl::completion</text>
<text text-anchor="middle" x="177" y="-28" font-family="Helvetica,sans-Serif" font-size="10.00">_handler_impl &gt;</text>
</g>
<!-- Node15&#45;&gt;Node4 -->
<g id="edge40" class="edge"><title>Node15&#45;&gt;Node4</title>
<path fill="none" stroke="#9a32cd" stroke-dasharray="5,2" d="M939.778,-331.841C942.542,-332.267 945.287,-332.655 948,-333 1175.5,-361.95 1235.38,-351.022 1464,-333 1472.22,-332.352 1480.8,-331.463 1489.32,-330.443"/>
<polygon fill="#9a32cd" stroke="#9a32cd" points="940.149,-328.355 929.707,-330.151 938.99,-335.258 940.149,-328.355"/>
<text text-anchor="middle" x="1204" y="-354" font-family="Helvetica,sans-Serif" font-size="10.00"> m_losers</text>
</g>
<!-- Node15&#45;&gt;Node16 -->
<g id="edge54" class="edge"><title>Node15&#45;&gt;Node16</title>
<path fill="none" stroke="#9a32cd" stroke-dasharray="5,2" d="M904.664,-280.689C918.653,-275.351 933.646,-270.37 948,-267 1009.34,-252.597 1080.93,-247.39 1132.78,-245.616"/>
<polygon fill="#9a32cd" stroke="#9a32cd" points="903.185,-277.51 895.16,-284.427 905.747,-284.024 903.185,-277.51"/>
<text text-anchor="middle" x="1026" y="-271" font-family="Helvetica,sans-Serif" font-size="10.00"> m_losers</text>
</g>
<!-- Node16&#45;&gt;Node4 -->
<g id="edge46" class="edge"><title>Node16&#45;&gt;Node4</title>
<path fill="none" stroke="orange" stroke-dasharray="5,2" d="M1285.4,-243.099C1337.45,-243.938 1405.86,-248.899 1464,-266 1477.56,-269.988 1491.38,-275.968 1504.22,-282.492"/>
<polygon fill="orange" stroke="orange" points="1285.26,-239.597 1275.22,-242.983 1285.18,-246.597 1285.26,-239.597"/>
<text text-anchor="start" x="1306" y="-296" font-family="Helvetica,sans-Serif" font-size="10.00"> &lt; typename runs_creator</text>
<text text-anchor="start" x="1306" y="-283" font-family="Helvetica,sans-Serif" font-size="10.00">_type::sorted_runs_type,</text>
<text text-anchor="middle" x="1384" y="-270" font-family="Helvetica,sans-Serif" font-size="10.00"> cmp_type, alloc_strategy_type &gt;</text>
</g>
<!-- Node17 -->
<g id="node44" class="node"><title>Node17</title>
<a xlink:href="classstxxl_1_1stream_1_1runs__merger.html" target="_top" xlink:title="Merges sorted runs. ">
<polygon fill="none" stroke="black" points="1482,-212.5 1482,-259.5 1644,-259.5 1644,-212.5 1482,-212.5"/>
<text text-anchor="start" x="1490" y="-246.5" font-family="Helvetica,sans-Serif" font-size="10.00">stxxl::stream::runs</text>
<text text-anchor="start" x="1490" y="-233.5" font-family="Helvetica,sans-Serif" font-size="10.00">_merger&lt; RunsType, Compare</text>
<text text-anchor="middle" x="1563" y="-220.5" font-family="Helvetica,sans-Serif" font-size="10.00">Type, AllocStr &gt;</text>
</a>
</g>
<!-- Node16&#45;&gt;Node17 -->
<g id="edge58" class="edge"><title>Node16&#45;&gt;Node17</title>
<path fill="none" stroke="midnightblue" d="M1285.7,-242.952C1344.39,-241.48 1423.16,-239.506 1481.75,-238.037"/>
<polygon fill="midnightblue" stroke="midnightblue" points="1285.27,-239.462 1275.36,-243.211 1285.44,-246.459 1285.27,-239.462"/>
</g>
<!-- Node17&#45;&gt;Node3 -->
<g id="edge56" class="edge"><title>Node17&#45;&gt;Node3</title>
<path fill="none" stroke="orange" stroke-dasharray="5,2" d="M1654.13,-243.997C1703.41,-249.884 1764.87,-259.775 1818,-276 1824.07,-277.854 1830.25,-280.037 1836.4,-282.419"/>
<polygon fill="orange" stroke="orange" points="1654.47,-240.513 1644.13,-242.837 1653.66,-247.466 1654.47,-240.513"/>
<text text-anchor="start" x="1662" y="-306" font-family="Helvetica,sans-Serif" font-size="10.00"> &lt; typename runs_creator</text>
<text text-anchor="start" x="1662" y="-293" font-family="Helvetica,sans-Serif" font-size="10.00">_type::sorted_runs_type,</text>
<text text-anchor="middle" x="1740" y="-280" font-family="Helvetica,sans-Serif" font-size="10.00"> cmp_type, alloc_strategy_type &gt;</text>
</g>
<!-- Node18 -->
<g id="node47" class="node"><title>Node18</title>
<a xlink:href="classstxxl_1_1stream_1_1runs__creator.html" target="_top" xlink:title="stxxl::stream::runs\l_creator\&lt; stream::use\l_push\&lt; ValueType \&gt;, cmp\l_type, block_size, alloc\l_strategy_type \&gt;">
<polygon fill="none" stroke="black" points="1494,-504.5 1494,-577.5 1632,-577.5 1632,-504.5 1494,-504.5"/>
<text text-anchor="start" x="1502" y="-564.5" font-family="Helvetica,sans-Serif" font-size="10.00">stxxl::stream::runs</text>
<text text-anchor="start" x="1502" y="-551.5" font-family="Helvetica,sans-Serif" font-size="10.00">_creator&lt; stream::use</text>
<text text-anchor="start" x="1502" y="-538.5" font-family="Helvetica,sans-Serif" font-size="10.00">_push&lt; ValueType &gt;, cmp</text>
<text text-anchor="start" x="1502" y="-525.5" font-family="Helvetica,sans-Serif" font-size="10.00">_type, block_size, alloc</text>
<text text-anchor="middle" x="1563" y="-512.5" font-family="Helvetica,sans-Serif" font-size="10.00">_strategy_type &gt;</text>
</a>
</g>
<!-- Node18&#45;&gt;Node1 -->
<g id="edge60" class="edge"><title>Node18&#45;&gt;Node1</title>
<path fill="none" stroke="#9a32cd" stroke-dasharray="5,2" d="M1642.25,-541C1761.32,-541 1984.49,-541 2097.93,-541"/>
<polygon fill="#9a32cd" stroke="#9a32cd" points="1642.11,-537.5 1632.11,-541 1642.11,-544.5 1642.11,-537.5"/>
<text text-anchor="middle" x="1910" y="-545" font-family="Helvetica,sans-Serif" font-size="10.00"> m_runs_creator</text>
</g>
<!-- Node19&#45;&gt;Node18 -->
<g id="edge62" class="edge"><title>Node19&#45;&gt;Node18</title>
<path fill="none" stroke="midnightblue" d="M1279.33,-567.075C1342.64,-561.256 1432.39,-553.006 1493.88,-547.353"/>
<polygon fill="midnightblue" stroke="midnightblue" points="1278.65,-563.623 1269.01,-568.024 1279.29,-570.594 1278.65,-563.623"/>
</g>
<!-- Node20&#45;&gt;Node19 -->
<g id="edge66" class="edge"><title>Node20&#45;&gt;Node19</title>
<path fill="none" stroke="#9a32cd" stroke-dasharray="5,2" d="M658.199,-439.618C768.129,-428.657 965.243,-424.29 1104,-508 1114.24,-514.177 1112.66,-520.531 1122,-528 1127.23,-532.18 1132.88,-536.201 1138.7,-540.007"/>
<polygon fill="#9a32cd" stroke="#9a32cd" points="657.747,-436.146 648.163,-440.662 658.471,-443.109 657.747,-436.146"/>
<text text-anchor="middle" x="844" y="-449" font-family="Helvetica,sans-Serif" font-size="10.00"> m_result</text>
</g>
<!-- Node20&#45;&gt;Node21 -->
<g id="edge76" class="edge"><title>Node20&#45;&gt;Node21</title>
<path fill="none" stroke="#9a32cd" stroke-dasharray="5,2" d="M611.435,-473.502C627.492,-482.628 647.085,-492.334 666,-498 700.664,-508.383 740.641,-513.043 773.917,-515.04"/>
<polygon fill="#9a32cd" stroke="#9a32cd" points="612.821,-470.258 602.421,-468.231 609.287,-476.301 612.821,-470.258"/>
<text text-anchor="middle" x="703" y="-515" font-family="Helvetica,sans-Serif" font-size="10.00"> m_result</text>
</g>
<!-- Node21&#45;&gt;Node19 -->
<g id="edge72" class="edge"><title>Node21&#45;&gt;Node19</title>
<path fill="none" stroke="orange" stroke-dasharray="5,2" d="M924.406,-512.382C976.343,-511.906 1044.99,-514.784 1104,-529 1115.57,-531.787 1127.45,-535.895 1138.8,-540.513"/>
<polygon fill="orange" stroke="orange" points="924.201,-508.885 914.25,-512.52 924.296,-515.884 924.201,-508.885"/>
<text text-anchor="start" x="948" y="-559" font-family="Helvetica,sans-Serif" font-size="10.00"> &lt; stream::use_push</text>
<text text-anchor="start" x="948" y="-546" font-family="Helvetica,sans-Serif" font-size="10.00">&lt; ValueType &gt;, cmp_type,</text>
<text text-anchor="middle" x="1026" y="-533" font-family="Helvetica,sans-Serif" font-size="10.00"> BlockSize, alloc_strategy_type &gt;</text>
</g>
<!-- Node22 -->
<g id="node61" class="node"><title>Node22</title>
<a xlink:href="classstxxl_1_1stream_1_1runs__creator.html" target="_top" xlink:title="Forms sorted runs of data from a stream. ">
<polygon fill="none" stroke="black" points="1122,-471.5 1122,-518.5 1286,-518.5 1286,-471.5 1122,-471.5"/>
<text text-anchor="start" x="1130" y="-505.5" font-family="Helvetica,sans-Serif" font-size="10.00">stxxl::stream::runs</text>
<text text-anchor="start" x="1130" y="-492.5" font-family="Helvetica,sans-Serif" font-size="10.00">_creator&lt; Input, CompareType,</text>
<text text-anchor="middle" x="1204" y="-479.5" font-family="Helvetica,sans-Serif" font-size="10.00"> BlockSize, AllocStr &gt;</text>
</a>
</g>
<!-- Node21&#45;&gt;Node22 -->
<g id="edge82" class="edge"><title>Node21&#45;&gt;Node22</title>
<path fill="none" stroke="midnightblue" d="M924.312,-510.493C932.314,-509.975 940.316,-509.469 948,-509 1006.09,-505.457 1071.62,-501.881 1121.84,-499.23"/>
<polygon fill="midnightblue" stroke="midnightblue" points="923.951,-507.009 914.2,-511.154 924.407,-513.994 923.951,-507.009"/>
</g>
<!-- Node22&#45;&gt;Node18 -->
<g id="edge80" class="edge"><title>Node22&#45;&gt;Node18</title>
<path fill="none" stroke="orange" stroke-dasharray="5,2" d="M1296.24,-492.909C1346.28,-493.361 1408.98,-496.506 1464,-507 1473.82,-508.873 1483.99,-511.51 1493.9,-514.497"/>
<polygon fill="orange" stroke="orange" points="1296.1,-489.408 1286.08,-492.852 1296.07,-496.408 1296.1,-489.408"/>
<text text-anchor="start" x="1304.5" y="-537" font-family="Helvetica,sans-Serif" font-size="10.00"> &lt; stream::use_push</text>
<text text-anchor="start" x="1304.5" y="-524" font-family="Helvetica,sans-Serif" font-size="10.00">&lt; ValueType &gt;, cmp_type,</text>
<text text-anchor="middle" x="1384" y="-511" font-family="Helvetica,sans-Serif" font-size="10.00"> block_size, alloc_strategy_type &gt;</text>
</g>
</g>
</svg>
