<?xml version="1.0" encoding="UTF-8" standalone="no"?>
<!DOCTYPE svg PUBLIC "-//W3C//DTD SVG 1.1//EN"
 "http://www.w3.org/Graphics/SVG/1.1/DTD/svg11.dtd">
<!-- Generated by graphviz version 2.26.3 (20100126.1600)
 -->
<!-- Title: stxxl::stream::make_tuple&lt; Input1, Input2, Input3, Input4, Input5, Stopper &gt; Pages: 1 -->
<svg width="638pt" height="150pt"
 viewBox="0.00 0.00 638.00 150.00" xmlns="http://www.w3.org/2000/svg" xmlns:xlink="http://www.w3.org/1999/xlink">
<g id="graph1" class="graph" transform="scale(1 1) rotate(0) translate(4 146)">
<title>stxxl::stream::make_tuple&lt; Input1, Input2, Input3, Input4, Input5, Stopper &gt;</title>
<!-- Node1 -->
<g id="node1" class="node"><title>Node1</title>
<polygon fill="#bfbfbf" stroke="black" points="510,-44 510,-104 630,-104 630,-44 510,-44"/>
<text text-anchor="start" x="518" y="-91" font-family="Helvetica,sans-Serif" font-size="10.00">stxxl::stream::make</text>
<text text-anchor="start" x="518" y="-78" font-family="Helvetica,sans-Serif" font-size="10.00">_tuple&lt; Input1, Input2,</text>
<text text-anchor="start" x="518" y="-65" font-family="Helvetica,sans-Serif" font-size="10.00"> Input3, Input4, Input5,</text>
<text text-anchor="middle" x="570" y="-52" font-family="Helvetica,sans-Serif" font-size="10.00"> Stopper &gt;</text>
</g>
<!-- Node2 -->
<g id="node2" class="node"><title>Node2</title>
<a xlink:href="structstxxl_1_1tuple.html" target="_top" xlink:title="stxxl::tuple\&lt; typename\l Input1::value_type, typename\l Input2::value_type, typename\l Input3::value_type, typename\l Input4::value_type, typename\l Input5::value_type \&gt;">
<polygon fill="none" stroke="black" points="280,-31 280,-117 436,-117 436,-31 280,-31"/>
<text text-anchor="start" x="288" y="-104" font-family="Helvetica,sans-Serif" font-size="10.00">stxxl::tuple&lt; typename</text>
<text text-anchor="start" x="288" y="-91" font-family="Helvetica,sans-Serif" font-size="10.00"> Input1::value_type, typename</text>
<text text-anchor="start" x="288" y="-78" font-family="Helvetica,sans-Serif" font-size="10.00"> Input2::value_type, typename</text>
<text text-anchor="start" x="288" y="-65" font-family="Helvetica,sans-Serif" font-size="10.00"> Input3::value_type, typename</text>
<text text-anchor="start" x="288" y="-52" font-family="Helvetica,sans-Serif" font-size="10.00"> Input4::value_type, typename</text>
<text text-anchor="middle" x="358" y="-39" font-family="Helvetica,sans-Serif" font-size="10.00"> Input5::value_type &gt;</text>
</a>
</g>
<!-- Node2&#45;&gt;Node1 -->
<g id="edge2" class="edge"><title>Node2&#45;&gt;Node1</title>
<path fill="none" stroke="#9a32cd" stroke-dasharray="5,2" d="M446.117,-74C467.521,-74 489.927,-74 509.707,-74"/>
<polygon fill="#9a32cd" stroke="#9a32cd" points="446.038,-70.5001 436.038,-74 446.038,-77.5001 446.038,-70.5001"/>
<text text-anchor="middle" x="473" y="-78" font-family="Helvetica,sans-Serif" font-size="10.00"> current</text>
</g>
<!-- Node3 -->
<g id="node4" class="node"><title>Node3</title>
<a xlink:href="structstxxl_1_1Plug.html" target="_top" xlink:title="stxxl::Plug">
<polygon fill="none" stroke="black" points="23,-120.5 23,-141.5 85,-141.5 85,-120.5 23,-120.5"/>
<text text-anchor="middle" x="54" y="-128.5" font-family="Helvetica,sans-Serif" font-size="10.00">stxxl::Plug</text>
</a>
</g>
<!-- Node3&#45;&gt;Node2 -->
<g id="edge4" class="edge"><title>Node3&#45;&gt;Node2</title>
<path fill="none" stroke="#9a32cd" stroke-dasharray="5,2" d="M95.2464,-129.602C137.57,-127.479 205.09,-122.175 262,-109 267.876,-107.64 273.885,-106.023 279.887,-104.243"/>
<polygon fill="#9a32cd" stroke="#9a32cd" points="94.8775,-126.115 85.0508,-130.076 95.2026,-133.107 94.8775,-126.115"/>
<text text-anchor="middle" x="194" y="-131" font-family="Helvetica,sans-Serif" font-size="10.00"> sixth</text>
</g>
<!-- Node4 -->
<g id="node6" class="node"><title>Node4</title>
<a xlink:href="structstxxl_1_1tuple.html" target="_top" xlink:title="k&#45;Tuple data type ">
<polygon fill="none" stroke="black" points="0.5,-0 0.5,-34 107.5,-34 107.5,-0 0.5,-0"/>
<text text-anchor="start" x="8.5" y="-21" font-family="Helvetica,sans-Serif" font-size="10.00">stxxl::tuple&lt; T1, T2,</text>
<text text-anchor="middle" x="54" y="-8" font-family="Helvetica,sans-Serif" font-size="10.00"> T3, T4, T5, T6 &gt;</text>
</a>
</g>
<!-- Node4&#45;&gt;Node2 -->
<g id="edge6" class="edge"><title>Node4&#45;&gt;Node2</title>
<path fill="none" stroke="orange" stroke-dasharray="5,2" d="M117.751,-6.64869C159.575,-2.13642 215.016,-0.525147 262,-14 275.13,-17.7657 288.207,-23.909 300.291,-30.8613"/>
<polygon fill="orange" stroke="orange" points="117.225,-3.1862 107.696,-7.81717 118.033,-10.1394 117.225,-3.1862"/>
<text text-anchor="start" x="126" y="-96" font-family="Helvetica,sans-Serif" font-size="10.00"> &lt; typename Input1::</text>
<text text-anchor="start" x="126" y="-83" font-family="Helvetica,sans-Serif" font-size="10.00">value_type, typename</text>
<text text-anchor="start" x="126" y="-70" font-family="Helvetica,sans-Serif" font-size="10.00"> Input2::value_type,</text>
<text text-anchor="start" x="126" y="-57" font-family="Helvetica,sans-Serif" font-size="10.00"> typename Input3::value</text>
<text text-anchor="start" x="126" y="-44" font-family="Helvetica,sans-Serif" font-size="10.00">_type, typename Input4::</text>
<text text-anchor="start" x="126" y="-31" font-family="Helvetica,sans-Serif" font-size="10.00">value_type, typename Input5</text>
<text text-anchor="middle" x="194" y="-18" font-family="Helvetica,sans-Serif" font-size="10.00">::value_type &gt;</text>
</g>
</g>
</svg>
