<?xml version="1.0" encoding="UTF-8" standalone="no"?>
<!DOCTYPE svg PUBLIC "-//W3C//DTD SVG 1.1//EN"
 "http://www.w3.org/Graphics/SVG/1.1/DTD/svg11.dtd">
<!-- Generated by graphviz version 2.26.3 (20100126.1600)
 -->
<!-- Title: stxxl::hash_map::hash_map_iterator_base&lt; HashMap &gt; Pages: 1 -->
<svg width="289pt" height="328pt"
 viewBox="0.00 0.00 289.00 328.00" xmlns="http://www.w3.org/2000/svg" xmlns:xlink="http://www.w3.org/1999/xlink">
<g id="graph1" class="graph" transform="scale(1 1) rotate(0) translate(4 324)">
<title>stxxl::hash_map::hash_map_iterator_base&lt; HashMap &gt;</title>
<!-- Node1 -->
<g id="node1" class="node"><title>Node1</title>
<polygon fill="#bfbfbf" stroke="black" points="4.5,-1 4.5,-35 179.5,-35 179.5,-1 4.5,-1"/>
<text text-anchor="start" x="12.5" y="-22" font-family="Helvetica,sans-Serif" font-size="10.00">stxxl::hash_map::hash</text>
<text text-anchor="middle" x="92" y="-9" font-family="Helvetica,sans-Serif" font-size="10.00">_map_iterator_base&lt; HashMap &gt;</text>
</g>
<!-- Node2 -->
<g id="node2" class="node"><title>Node2</title>
<a xlink:href="classstxxl_1_1hash__map_1_1buffered__reader.html" target="_top" xlink:title="Used to scan external memory with prefetching. ">
<polygon fill="none" stroke="black" points="1,-87 1,-121 183,-121 183,-87 1,-87"/>
<text text-anchor="start" x="9" y="-108" font-family="Helvetica,sans-Serif" font-size="10.00">stxxl::hash_map::buffered</text>
<text text-anchor="middle" x="92" y="-95" font-family="Helvetica,sans-Serif" font-size="10.00">_reader&lt; CacheType, BidIterator &gt;</text>
</a>
</g>
<!-- Node2&#45;&gt;Node1 -->
<g id="edge2" class="edge"><title>Node2&#45;&gt;Node1</title>
<path fill="none" stroke="#9a32cd" stroke-dasharray="5,2" d="M92,-76.342C92,-62.7741 92,-46.8607 92,-35.084"/>
<polygon fill="#9a32cd" stroke="#9a32cd" points="88.5001,-76.5966 92,-86.5966 95.5001,-76.5967 88.5001,-76.5966"/>
<text text-anchor="middle" x="112.5" y="-58.5" font-family="Helvetica,sans-Serif" font-size="10.00"> reader_</text>
</g>
<!-- Node3 -->
<g id="node4" class="node"><title>Node3</title>
<a xlink:href="classstxxl_1_1noncopyable.html" target="_top" xlink:title="stxxl::noncopyable">
<polygon fill="none" stroke="black" points="0,-205.5 0,-226.5 102,-226.5 102,-205.5 0,-205.5"/>
<text text-anchor="middle" x="51" y="-213.5" font-family="Helvetica,sans-Serif" font-size="10.00">stxxl::noncopyable</text>
</a>
</g>
<!-- Node3&#45;&gt;Node2 -->
<g id="edge4" class="edge"><title>Node3&#45;&gt;Node2</title>
<path fill="none" stroke="#8b1a1a" d="M58.3755,-195.852C66.193,-174.497 78.4043,-141.14 85.7604,-121.045"/>
<polygon fill="#8b1a1a" stroke="#8b1a1a" points="55.0822,-194.667 54.9313,-205.261 61.6556,-197.074 55.0822,-194.667"/>
</g>
<!-- Node4 -->
<g id="node6" class="node"><title>Node4</title>
<a xlink:href="structstxxl_1_1choose__int__types.html" target="_top" xlink:title="stxxl::choose_int_types\l\&lt; my_pointer_size \&gt;">
<polygon fill="none" stroke="black" points="119.5,-199 119.5,-233 244.5,-233 244.5,-199 119.5,-199"/>
<text text-anchor="start" x="127.5" y="-220" font-family="Helvetica,sans-Serif" font-size="10.00">stxxl::choose_int_types</text>
<text text-anchor="middle" x="182" y="-207" font-family="Helvetica,sans-Serif" font-size="10.00">&lt; my_pointer_size &gt;</text>
</a>
</g>
<!-- Node4&#45;&gt;Node2 -->
<g id="edge6" class="edge"><title>Node4&#45;&gt;Node2</title>
<path fill="none" stroke="#9a32cd" stroke-dasharray="5,2" d="M161.938,-191.035C144.862,-169.784 120.784,-139.82 105.798,-121.17"/>
<polygon fill="#9a32cd" stroke="#9a32cd" points="159.339,-193.387 168.331,-198.99 164.795,-189.002 159.339,-193.387"/>
<text text-anchor="middle" x="194" y="-170.5" font-family="Helvetica,sans-Serif" font-size="10.00"> prefetch_pages_</text>
<text text-anchor="middle" x="194" y="-157.5" font-family="Helvetica,sans-Serif" font-size="10.00">i_value_</text>
<text text-anchor="middle" x="194" y="-144.5" font-family="Helvetica,sans-Serif" font-size="10.00">page_size_</text>
</g>
<!-- Node5 -->
<g id="node8" class="node"><title>Node5</title>
<a xlink:href="structstxxl_1_1choose__int__types.html" target="_top" xlink:title="stxxl::choose_int_types\l\&lt; PtrSize \&gt;">
<polygon fill="none" stroke="black" points="119.5,-285 119.5,-319 244.5,-319 244.5,-285 119.5,-285"/>
<text text-anchor="start" x="127.5" y="-306" font-family="Helvetica,sans-Serif" font-size="10.00">stxxl::choose_int_types</text>
<text text-anchor="middle" x="182" y="-293" font-family="Helvetica,sans-Serif" font-size="10.00">&lt; PtrSize &gt;</text>
</a>
</g>
<!-- Node5&#45;&gt;Node4 -->
<g id="edge8" class="edge"><title>Node5&#45;&gt;Node4</title>
<path fill="none" stroke="orange" stroke-dasharray="5,2" d="M182,-274.342C182,-260.774 182,-244.861 182,-233.084"/>
<polygon fill="orange" stroke="orange" points="178.5,-274.597 182,-284.597 185.5,-274.597 178.5,-274.597"/>
<text text-anchor="middle" x="231.5" y="-256.5" font-family="Helvetica,sans-Serif" font-size="10.00"> &lt; my_pointer_size &gt;</text>
</g>
</g>
</svg>
