<?xml version="1.0" encoding="UTF-8" standalone="no"?>
<!DOCTYPE svg PUBLIC "-//W3C//DTD SVG 1.1//EN"
 "http://www.w3.org/Graphics/SVG/1.1/DTD/svg11.dtd">
<!-- Generated by graphviz version 2.26.3 (20100126.1600)
 -->
<!-- Title: stxxl::stream::vector_iterator2stream&lt; InputIterator &gt; Pages: 1 -->
<svg width="195pt" height="216pt"
 viewBox="0.00 0.00 195.00 216.00" xmlns="http://www.w3.org/2000/svg" xmlns:xlink="http://www.w3.org/1999/xlink">
<g id="graph1" class="graph" transform="scale(1 1) rotate(0) translate(4 212)">
<title>stxxl::stream::vector_iterator2stream&lt; InputIterator &gt;</title>
<!-- Node1 -->
<g id="node1" class="node"><title>Node1</title>
<polygon fill="#bfbfbf" stroke="black" points="0,-1 0,-35 170,-35 170,-1 0,-1"/>
<text text-anchor="start" x="8" y="-22" font-family="Helvetica,sans-Serif" font-size="10.00">stxxl::stream::vector</text>
<text text-anchor="middle" x="85" y="-9" font-family="Helvetica,sans-Serif" font-size="10.00">_iterator2stream&lt; InputIterator &gt;</text>
</g>
<!-- Node2 -->
<g id="node2" class="node"><title>Node2</title>
<a xlink:href="structstxxl_1_1compat__unique__ptr.html" target="_top" xlink:title="stxxl::compat_unique\l_ptr\&lt; buf_istream_type \&gt;">
<polygon fill="none" stroke="black" points="18,-87 18,-121 152,-121 152,-87 18,-87"/>
<text text-anchor="start" x="26" y="-108" font-family="Helvetica,sans-Serif" font-size="10.00">stxxl::compat_unique</text>
<text text-anchor="middle" x="85" y="-95" font-family="Helvetica,sans-Serif" font-size="10.00">_ptr&lt; buf_istream_type &gt;</text>
</a>
</g>
<!-- Node2&#45;&gt;Node1 -->
<g id="edge2" class="edge"><title>Node2&#45;&gt;Node1</title>
<path fill="none" stroke="#9a32cd" stroke-dasharray="5,2" d="M85,-76.342C85,-62.7741 85,-46.8607 85,-35.084"/>
<polygon fill="#9a32cd" stroke="#9a32cd" points="81.5001,-76.5966 85,-86.5966 88.5001,-76.5967 81.5001,-76.5966"/>
<text text-anchor="middle" x="91" y="-58.5" font-family="Helvetica,sans-Serif" font-size="10.00"> in</text>
</g>
<!-- Node3 -->
<g id="node4" class="node"><title>Node3</title>
<a xlink:href="structstxxl_1_1compat__unique__ptr.html" target="_top" xlink:title="stxxl::compat_unique\l_ptr\&lt; Type \&gt;">
<polygon fill="none" stroke="black" points="28.5,-173 28.5,-207 141.5,-207 141.5,-173 28.5,-173"/>
<text text-anchor="start" x="36.5" y="-194" font-family="Helvetica,sans-Serif" font-size="10.00">stxxl::compat_unique</text>
<text text-anchor="middle" x="85" y="-181" font-family="Helvetica,sans-Serif" font-size="10.00">_ptr&lt; Type &gt;</text>
</a>
</g>
<!-- Node3&#45;&gt;Node2 -->
<g id="edge4" class="edge"><title>Node3&#45;&gt;Node2</title>
<path fill="none" stroke="orange" stroke-dasharray="5,2" d="M85,-162.342C85,-148.774 85,-132.861 85,-121.084"/>
<polygon fill="orange" stroke="orange" points="81.5001,-162.597 85,-172.597 88.5001,-162.597 81.5001,-162.597"/>
<text text-anchor="middle" x="136" y="-144.5" font-family="Helvetica,sans-Serif" font-size="10.00"> &lt; buf_istream_type &gt;</text>
</g>
</g>
</svg>
