<?xml version="1.0" encoding="UTF-8" standalone="no"?>
<!DOCTYPE svg PUBLIC "-//W3C//DTD SVG 1.1//EN"
 "http://www.w3.org/Graphics/SVG/1.1/DTD/svg11.dtd">
<!-- Generated by graphviz version 2.26.3 (20100126.1600)
 -->
<!-- Title: stxxl::mng_local::block_w_info&lt; Type, RawSize, NBids, MetaInfoType &gt; Pages: 1 -->
<svg width="1954pt" height="197pt"
 viewBox="0.00 0.00 1954.00 197.26" xmlns="http://www.w3.org/2000/svg" xmlns:xlink="http://www.w3.org/1999/xlink">
<g id="graph1" class="graph" transform="scale(1 1) rotate(0) translate(4 193.263)">
<title>stxxl::mng_local::block_w_info&lt; Type, RawSize, NBids, MetaInfoType &gt;</title>
<!-- Node1 -->
<g id="node1" class="node"><title>Node1</title>
<polygon fill="#bfbfbf" stroke="black" points="1810.5,-73.5 1810.5,-120.5 1945.5,-120.5 1945.5,-73.5 1810.5,-73.5"/>
<text text-anchor="start" x="1818.5" y="-107.5" font-family="Helvetica,sans-Serif" font-size="10.00">stxxl::mng_local::block</text>
<text text-anchor="start" x="1818.5" y="-94.5" font-family="Helvetica,sans-Serif" font-size="10.00">_w_info&lt; Type, RawSize,</text>
<text text-anchor="middle" x="1878" y="-81.5" font-family="Helvetica,sans-Serif" font-size="10.00"> NBids, MetaInfoType &gt;</text>
</g>
<!-- Node2 -->
<g id="node2" class="node"><title>Node2</title>
<a xlink:href="classstxxl_1_1mng__local_1_1block__w__bids.html" target="_top" xlink:title="stxxl::mng_local::block\l_w_bids\&lt; Type,((RawSize\l&#45;sizeof(BID\&lt; RawSize \&gt;)*NBids\l&#45;sizeof(MetaInfoType))/sizeof\l(Type)), RawSize, NBids \&gt;">
<polygon fill="none" stroke="black" points="1608,-60.5 1608,-133.5 1772,-133.5 1772,-60.5 1608,-60.5"/>
<text text-anchor="start" x="1616" y="-120.5" font-family="Helvetica,sans-Serif" font-size="10.00">stxxl::mng_local::block</text>
<text text-anchor="start" x="1616" y="-107.5" font-family="Helvetica,sans-Serif" font-size="10.00">_w_bids&lt; Type,((RawSize</text>
<text text-anchor="start" x="1616" y="-94.5" font-family="Helvetica,sans-Serif" font-size="10.00">&#45;sizeof(BID&lt; RawSize &gt;)*NBids</text>
<text text-anchor="start" x="1616" y="-81.5" font-family="Helvetica,sans-Serif" font-size="10.00">&#45;sizeof(MetaInfoType))/sizeof</text>
<text text-anchor="middle" x="1690" y="-68.5" font-family="Helvetica,sans-Serif" font-size="10.00">(Type)), RawSize, NBids &gt;</text>
</a>
</g>
<!-- Node2&#45;&gt;Node1 -->
<g id="edge2" class="edge"><title>Node2&#45;&gt;Node1</title>
<path fill="none" stroke="midnightblue" d="M1782.39,-97C1791.81,-97 1801.26,-97 1810.35,-97"/>
<polygon fill="midnightblue" stroke="midnightblue" points="1782.19,-93.5001 1772.19,-97 1782.19,-100.5 1782.19,-93.5001"/>
</g>
<!-- Node3 -->
<g id="node4" class="node"><title>Node3</title>
<a xlink:href="classstxxl_1_1mng__local_1_1element__block.html" target="_top" xlink:title="Contains data elements for stxxl::typed_block , not intended for direct use. ">
<polygon fill="none" stroke="black" points="1108,-152 1108,-186 1240,-186 1240,-152 1108,-152"/>
<text text-anchor="start" x="1116" y="-173" font-family="Helvetica,sans-Serif" font-size="10.00">stxxl::mng_local::element</text>
<text text-anchor="middle" x="1174" y="-160" font-family="Helvetica,sans-Serif" font-size="10.00">_block&lt; Type, Size &gt;</text>
</a>
</g>
<!-- Node3&#45;&gt;Node2 -->
<g id="edge4" class="edge"><title>Node3&#45;&gt;Node2</title>
<path fill="none" stroke="midnightblue" d="M1250.34,-180.474C1335.33,-190.394 1475.75,-198.205 1590,-163 1609.88,-156.875 1629.49,-145.464 1646,-133.832"/>
<polygon fill="midnightblue" stroke="midnightblue" points="1250.61,-176.981 1240.26,-179.257 1249.77,-183.93 1250.61,-176.981"/>
</g>
<!-- Node12 -->
<g id="node24" class="node"><title>Node12</title>
<a xlink:href="classstxxl_1_1mng__local_1_1block__w__bids.html" target="_top" xlink:title="Contains BID references for stxxl::typed_block , not intended for direct use. ">
<polygon fill="none" stroke="black" points="1292,-95.5 1292,-142.5 1454,-142.5 1454,-95.5 1292,-95.5"/>
<text text-anchor="start" x="1300" y="-129.5" font-family="Helvetica,sans-Serif" font-size="10.00">stxxl::mng_local::block</text>
<text text-anchor="start" x="1300" y="-116.5" font-family="Helvetica,sans-Serif" font-size="10.00">_w_bids&lt; Type, Size, RawSize,</text>
<text text-anchor="middle" x="1373" y="-103.5" font-family="Helvetica,sans-Serif" font-size="10.00"> NBids &gt;</text>
</a>
</g>
<!-- Node3&#45;&gt;Node12 -->
<g id="edge28" class="edge"><title>Node3&#45;&gt;Node12</title>
<path fill="none" stroke="midnightblue" d="M1250.08,-149.885C1263.73,-146.455 1278,-142.868 1291.79,-139.403"/>
<polygon fill="midnightblue" stroke="midnightblue" points="1249.11,-146.519 1240.26,-152.351 1250.82,-153.308 1249.11,-146.519"/>
</g>
<!-- Node4 -->
<g id="node6" class="node"><title>Node4</title>
<a xlink:href="structstxxl_1_1BID.html" target="_top" xlink:title="stxxl::BID\&lt; raw_size \&gt;">
<polygon fill="none" stroke="black" points="1114.5,-69.5 1114.5,-90.5 1233.5,-90.5 1233.5,-69.5 1114.5,-69.5"/>
<text text-anchor="middle" x="1174" y="-77.5" font-family="Helvetica,sans-Serif" font-size="10.00">stxxl::BID&lt; raw_size &gt;</text>
</a>
</g>
<!-- Node4&#45;&gt;Node2 -->
<g id="edge6" class="edge"><title>Node4&#45;&gt;Node2</title>
<path fill="none" stroke="#9a32cd" stroke-dasharray="5,2" d="M1243.93,-75.1654C1259.73,-74.2641 1276.43,-73.4613 1292,-73 1363.97,-70.8672 1382.09,-69.3531 1454,-73 1505.31,-75.6023 1562.66,-81.3676 1607.97,-86.5952"/>
<polygon fill="#9a32cd" stroke="#9a32cd" points="1243.47,-71.6862 1233.7,-75.7694 1243.89,-78.674 1243.47,-71.6862"/>
<text text-anchor="middle" x="1373" y="-77" font-family="Helvetica,sans-Serif" font-size="10.00"> ref</text>
</g>
<!-- Node4&#45;&gt;Node12 -->
<g id="edge30" class="edge"><title>Node4&#45;&gt;Node12</title>
<path fill="none" stroke="#9a32cd" stroke-dasharray="5,2" d="M1237.57,-92.4579C1254.87,-95.8497 1273.86,-99.5699 1291.99,-103.124"/>
<polygon fill="#9a32cd" stroke="#9a32cd" points="1238.08,-88.9912 1227.59,-90.5026 1236.73,-95.8605 1238.08,-88.9912"/>
<text text-anchor="middle" x="1266" y="-103" font-family="Helvetica,sans-Serif" font-size="10.00"> ref</text>
</g>
<!-- Node5 -->
<g id="node8" class="node"><title>Node5</title>
<a xlink:href="classstxxl_1_1file.html" target="_top" xlink:title="Defines interface of file. ">
<polygon fill="none" stroke="black" points="778,-73.5 778,-94.5 834,-94.5 834,-73.5 778,-73.5"/>
<text text-anchor="middle" x="806" y="-81.5" font-family="Helvetica,sans-Serif" font-size="10.00">stxxl::file</text>
</a>
</g>
<!-- Node5&#45;&gt;Node4 -->
<g id="edge8" class="edge"><title>Node5&#45;&gt;Node4</title>
<path fill="none" stroke="#9a32cd" stroke-dasharray="5,2" d="M844.482,-84.946C899.095,-86.104 1002.21,-87.6104 1090,-85 1097.89,-84.7655 1106.18,-84.4075 1114.36,-83.9885"/>
<polygon fill="#9a32cd" stroke="#9a32cd" points="844.299,-81.4412 834.225,-84.7204 844.145,-88.4395 844.299,-81.4412"/>
<text text-anchor="middle" x="959" y="-90" font-family="Helvetica,sans-Serif" font-size="10.00"> storage</text>
</g>
<!-- Node11 -->
<g id="node21" class="node"><title>Node11</title>
<a xlink:href="structstxxl_1_1BID.html" target="_top" xlink:title="Block identifier class. ">
<polygon fill="none" stroke="black" points="910,-41.5 910,-62.5 1008,-62.5 1008,-41.5 910,-41.5"/>
<text text-anchor="middle" x="959" y="-49.5" font-family="Helvetica,sans-Serif" font-size="10.00">stxxl::BID&lt; Size &gt;</text>
</a>
</g>
<!-- Node5&#45;&gt;Node11 -->
<g id="edge24" class="edge"><title>Node5&#45;&gt;Node11</title>
<path fill="none" stroke="#9a32cd" stroke-dasharray="5,2" d="M843.947,-73.8771C846.667,-73.2203 849.372,-72.5876 852,-72 870.812,-67.7937 891.619,-63.7643 909.846,-60.4385"/>
<polygon fill="#9a32cd" stroke="#9a32cd" points="842.998,-70.5064 834.143,-76.3234 844.693,-77.2982 842.998,-70.5064"/>
<text text-anchor="middle" x="872" y="-76" font-family="Helvetica,sans-Serif" font-size="10.00"> storage</text>
</g>
<!-- Node6 -->
<g id="node10" class="node"><title>Node6</title>
<a xlink:href="classstxxl_1_1noncopyable.html" target="_top" xlink:title="stxxl::noncopyable">
<polygon fill="none" stroke="black" points="12,-78.5 12,-99.5 114,-99.5 114,-78.5 12,-78.5"/>
<text text-anchor="middle" x="63" y="-86.5" font-family="Helvetica,sans-Serif" font-size="10.00">stxxl::noncopyable</text>
</a>
</g>
<!-- Node6&#45;&gt;Node5 -->
<g id="edge10" class="edge"><title>Node6&#45;&gt;Node5</title>
<path fill="none" stroke="#8b1a1a" d="M124.402,-90.6688C245.861,-93.5811 525.362,-98.3511 760,-88 765.766,-87.7456 771.927,-87.3179 777.806,-86.8345"/>
<polygon fill="#8b1a1a" stroke="#8b1a1a" points="124.272,-87.1647 114.19,-90.4193 124.101,-94.1626 124.272,-87.1647"/>
</g>
<!-- Node8 -->
<g id="node14" class="node"><title>Node8</title>
<a xlink:href="classstxxl_1_1mutex.html" target="_top" xlink:title="stxxl::mutex">
<polygon fill="none" stroke="black" points="290,-52.5 290,-73.5 360,-73.5 360,-52.5 290,-52.5"/>
<text text-anchor="middle" x="325" y="-60.5" font-family="Helvetica,sans-Serif" font-size="10.00">stxxl::mutex</text>
</a>
</g>
<!-- Node6&#45;&gt;Node8 -->
<g id="edge16" class="edge"><title>Node6&#45;&gt;Node8</title>
<path fill="none" stroke="#8b1a1a" d="M124.156,-82.931C175.679,-77.8181 247.573,-70.6836 289.908,-66.4824"/>
<polygon fill="#8b1a1a" stroke="#8b1a1a" points="123.744,-79.4547 114.138,-83.9252 124.435,-86.4205 123.744,-79.4547"/>
</g>
<!-- Node7 -->
<g id="node12" class="node"><title>Node7</title>
<a xlink:href="classstxxl_1_1atomic__counted__object.html" target="_top" xlink:title="Provides reference counting abilities for use with counting_ptr with mutex locking. ">
<polygon fill="none" stroke="black" points="554,-40 554,-74 670,-74 670,-40 554,-40"/>
<text text-anchor="start" x="562" y="-61" font-family="Helvetica,sans-Serif" font-size="10.00">stxxl::atomic_counted</text>
<text text-anchor="middle" x="612" y="-48" font-family="Helvetica,sans-Serif" font-size="10.00">_object</text>
</a>
</g>
<!-- Node7&#45;&gt;Node5 -->
<g id="edge12" class="edge"><title>Node7&#45;&gt;Node5</title>
<path fill="none" stroke="#9a32cd" stroke-dasharray="5,2" d="M680.288,-64.2619C705.406,-67.2074 734.048,-70.8886 760,-75 765.787,-75.9168 771.957,-77.0298 777.838,-78.1561"/>
<polygon fill="#9a32cd" stroke="#9a32cd" points="680.459,-60.7584 670.123,-63.087 679.655,-67.7121 680.459,-60.7584"/>
<text text-anchor="middle" x="724" y="-79" font-family="Helvetica,sans-Serif" font-size="10.00"> m_request_ref</text>
</g>
<!-- Node8&#45;&gt;Node7 -->
<g id="edge14" class="edge"><title>Node8&#45;&gt;Node7</title>
<path fill="none" stroke="#9a32cd" stroke-dasharray="5,2" d="M370.306,-62.0528C419.938,-61.0152 499.686,-59.348 553.889,-58.2149"/>
<polygon fill="#9a32cd" stroke="#9a32cd" points="370.116,-58.5559 360.192,-62.2643 370.263,-65.5544 370.116,-58.5559"/>
<text text-anchor="middle" x="471" y="-65" font-family="Helvetica,sans-Serif" font-size="10.00"> m_reference_count_mutex</text>
</g>
<!-- Node9 -->
<g id="node17" class="node"><title>Node9</title>
<a xlink:href="structstxxl_1_1choose__int__types.html" target="_top" xlink:title="stxxl::choose_int_types\l\&lt; my_pointer_size \&gt;">
<polygon fill="none" stroke="black" points="262.5,-0 262.5,-34 387.5,-34 387.5,-0 262.5,-0"/>
<text text-anchor="start" x="270.5" y="-21" font-family="Helvetica,sans-Serif" font-size="10.00">stxxl::choose_int_types</text>
<text text-anchor="middle" x="325" y="-8" font-family="Helvetica,sans-Serif" font-size="10.00">&lt; my_pointer_size &gt;</text>
</a>
</g>
<!-- Node9&#45;&gt;Node7 -->
<g id="edge18" class="edge"><title>Node9&#45;&gt;Node7</title>
<path fill="none" stroke="#9a32cd" stroke-dasharray="5,2" d="M397.655,-23.5584C438.446,-27.6673 490.202,-33.5914 536,-41 541.724,-41.9259 547.669,-42.9921 553.599,-44.1255"/>
<polygon fill="#9a32cd" stroke="#9a32cd" points="397.828,-20.0584 387.531,-22.5531 397.137,-27.0242 397.828,-20.0584"/>
<text text-anchor="middle" x="471" y="-45" font-family="Helvetica,sans-Serif" font-size="10.00"> m_reference_count</text>
</g>
<!-- Node10 -->
<g id="node19" class="node"><title>Node10</title>
<a xlink:href="structstxxl_1_1choose__int__types.html" target="_top" xlink:title="stxxl::choose_int_types\l\&lt; PtrSize \&gt;">
<polygon fill="none" stroke="black" points="0.5,-0 0.5,-34 125.5,-34 125.5,-0 0.5,-0"/>
<text text-anchor="start" x="8.5" y="-21" font-family="Helvetica,sans-Serif" font-size="10.00">stxxl::choose_int_types</text>
<text text-anchor="middle" x="63" y="-8" font-family="Helvetica,sans-Serif" font-size="10.00">&lt; PtrSize &gt;</text>
</a>
</g>
<!-- Node10&#45;&gt;Node9 -->
<g id="edge20" class="edge"><title>Node10&#45;&gt;Node9</title>
<path fill="none" stroke="orange" stroke-dasharray="5,2" d="M135.913,-17C175.636,-17 224.295,-17 262.303,-17"/>
<polygon fill="orange" stroke="orange" points="135.756,-13.5001 125.756,-17 135.755,-20.5001 135.756,-13.5001"/>
<text text-anchor="middle" x="194" y="-21" font-family="Helvetica,sans-Serif" font-size="10.00"> &lt; my_pointer_size &gt;</text>
</g>
<!-- Node11&#45;&gt;Node4 -->
<g id="edge22" class="edge"><title>Node11&#45;&gt;Node4</title>
<path fill="none" stroke="orange" stroke-dasharray="5,2" d="M1018.36,-59.7303C1048.28,-63.6274 1084.48,-68.3412 1114.43,-72.242"/>
<polygon fill="orange" stroke="orange" points="1018.42,-56.2095 1008.06,-58.3887 1017.52,-63.1509 1018.42,-56.2095"/>
<text text-anchor="middle" x="1058" y="-72" font-family="Helvetica,sans-Serif" font-size="10.00"> &lt; raw_size &gt;</text>
</g>
<!-- Node12&#45;&gt;Node2 -->
<g id="edge26" class="edge"><title>Node12&#45;&gt;Node2</title>
<path fill="none" stroke="orange" stroke-dasharray="5,2" d="M1464.24,-98.9305C1466.85,-98.5864 1469.44,-98.2745 1472,-98 1516.78,-93.1988 1567.04,-92.6451 1608,-93.4276"/>
<polygon fill="orange" stroke="orange" points="1463.49,-95.5028 1454.1,-100.407 1464.49,-102.43 1463.49,-95.5028"/>
<text text-anchor="start" x="1472" y="-154" font-family="Helvetica,sans-Serif" font-size="10.00"> &lt; Type,((RawSize&#45;sizeof</text>
<text text-anchor="start" x="1472" y="-141" font-family="Helvetica,sans-Serif" font-size="10.00">(BID&lt; RawSize &gt;)*NBids</text>
<text text-anchor="start" x="1472" y="-128" font-family="Helvetica,sans-Serif" font-size="10.00">&#45;sizeof(MetaInfoType))</text>
<text text-anchor="start" x="1472" y="-115" font-family="Helvetica,sans-Serif" font-size="10.00">/sizeof(Type)), RawSize,</text>
<text text-anchor="middle" x="1531" y="-102" font-family="Helvetica,sans-Serif" font-size="10.00"> NBids &gt;</text>
</g>
</g>
</svg>
