<?xml version="1.0" encoding="UTF-8" standalone="no"?>
<!DOCTYPE svg PUBLIC "-//W3C//DTD SVG 1.1//EN"
 "http://www.w3.org/Graphics/SVG/1.1/DTD/svg11.dtd">
<!-- Generated by graphviz version 2.26.3 (20100126.1600)
 -->
<!-- Title: stxxl::priority_queue_local::loser_tree&lt; ValueType, CompareType, MaxArity &gt; Pages: 1 -->
<svg width="790pt" height="176pt"
 viewBox="0.00 0.00 790.00 176.00" xmlns="http://www.w3.org/2000/svg" xmlns:xlink="http://www.w3.org/1999/xlink">
<g id="graph1" class="graph" transform="scale(1 1) rotate(0) translate(4 172)">
<title>stxxl::priority_queue_local::loser_tree&lt; ValueType, CompareType, MaxArity &gt;</title>
<!-- Node1 -->
<g id="node1" class="node"><title>Node1</title>
<polygon fill="#bfbfbf" stroke="black" points="624,-53.5 624,-100.5 782,-100.5 782,-53.5 624,-53.5"/>
<text text-anchor="start" x="632" y="-87.5" font-family="Helvetica,sans-Serif" font-size="10.00">stxxl::priority_queue</text>
<text text-anchor="start" x="632" y="-74.5" font-family="Helvetica,sans-Serif" font-size="10.00">_local::loser_tree&lt; ValueType,</text>
<text text-anchor="middle" x="703" y="-61.5" font-family="Helvetica,sans-Serif" font-size="10.00"> CompareType, MaxArity &gt;</text>
</g>
<!-- Node2 -->
<g id="node2" class="node"><title>Node2</title>
<a xlink:href="classstxxl_1_1noncopyable.html" target="_top" xlink:title="stxxl::noncopyable">
<polygon fill="none" stroke="black" points="376,-146.5 376,-167.5 478,-167.5 478,-146.5 376,-146.5"/>
<text text-anchor="middle" x="427" y="-154.5" font-family="Helvetica,sans-Serif" font-size="10.00">stxxl::noncopyable</text>
</a>
</g>
<!-- Node2&#45;&gt;Node1 -->
<g id="edge2" class="edge"><title>Node2&#45;&gt;Node1</title>
<path fill="none" stroke="#8b1a1a" d="M488.368,-159.916C523.691,-159.715 568.391,-156.209 606,-143 632.329,-133.753 658.257,-115.501 676.674,-100.531"/>
<polygon fill="#8b1a1a" stroke="#8b1a1a" points="488.208,-156.415 478.198,-159.885 488.187,-163.415 488.208,-156.415"/>
</g>
<!-- Node3 -->
<g id="node4" class="node"><title>Node3</title>
<a xlink:href="structstxxl_1_1choose__int__types.html" target="_top" xlink:title="stxxl::choose_int_types\l\&lt; my_pointer_size \&gt;">
<polygon fill="none" stroke="black" points="364.5,-66 364.5,-100 489.5,-100 489.5,-66 364.5,-66"/>
<text text-anchor="start" x="372.5" y="-87" font-family="Helvetica,sans-Serif" font-size="10.00">stxxl::choose_int_types</text>
<text text-anchor="middle" x="427" y="-74" font-family="Helvetica,sans-Serif" font-size="10.00">&lt; my_pointer_size &gt;</text>
</a>
</g>
<!-- Node3&#45;&gt;Node1 -->
<g id="edge4" class="edge"><title>Node3&#45;&gt;Node1</title>
<path fill="none" stroke="#9a32cd" stroke-dasharray="5,2" d="M499.625,-79.2648C511.768,-78.7561 524.238,-78.3049 536,-78 564.694,-77.2563 596.17,-76.9382 623.985,-76.8278"/>
<polygon fill="#9a32cd" stroke="#9a32cd" points="499.363,-75.7727 489.524,-79.7036 499.667,-82.7661 499.363,-75.7727"/>
<text text-anchor="middle" x="571" y="-134" font-family="Helvetica,sans-Serif" font-size="10.00"> segment_size</text>
<text text-anchor="middle" x="571" y="-121" font-family="Helvetica,sans-Serif" font-size="10.00">mem_cons_</text>
<text text-anchor="middle" x="571" y="-108" font-family="Helvetica,sans-Serif" font-size="10.00">k</text>
<text text-anchor="middle" x="571" y="-95" font-family="Helvetica,sans-Serif" font-size="10.00">size_</text>
<text text-anchor="middle" x="571" y="-82" font-family="Helvetica,sans-Serif" font-size="10.00">logK</text>
</g>
<!-- Node4 -->
<g id="node6" class="node"><title>Node4</title>
<a xlink:href="structstxxl_1_1choose__int__types.html" target="_top" xlink:title="stxxl::choose_int_types\l\&lt; PtrSize \&gt;">
<polygon fill="none" stroke="black" points="18.5,-66 18.5,-100 143.5,-100 143.5,-66 18.5,-66"/>
<text text-anchor="start" x="26.5" y="-87" font-family="Helvetica,sans-Serif" font-size="10.00">stxxl::choose_int_types</text>
<text text-anchor="middle" x="81" y="-74" font-family="Helvetica,sans-Serif" font-size="10.00">&lt; PtrSize &gt;</text>
</a>
</g>
<!-- Node4&#45;&gt;Node3 -->
<g id="edge6" class="edge"><title>Node4&#45;&gt;Node3</title>
<path fill="none" stroke="orange" stroke-dasharray="5,2" d="M153.813,-83C216.151,-83 304.97,-83 364.224,-83"/>
<polygon fill="orange" stroke="orange" points="153.658,-79.5001 143.658,-83 153.658,-86.5001 153.658,-79.5001"/>
<text text-anchor="middle" x="249" y="-87" font-family="Helvetica,sans-Serif" font-size="10.00"> &lt; my_pointer_size &gt;</text>
</g>
<!-- Node5 -->
<g id="node8" class="node"><title>Node5</title>
<a xlink:href="classstxxl_1_1priority__queue__local_1_1internal__bounded__stack.html" target="_top" xlink:title="stxxl::priority_queue\l_local::internal_bounded\l_stack\&lt; unsigned_type, MaxArity \&gt;">
<polygon fill="none" stroke="black" points="336.5,-0.5 336.5,-47.5 517.5,-47.5 517.5,-0.5 336.5,-0.5"/>
<text text-anchor="start" x="344.5" y="-34.5" font-family="Helvetica,sans-Serif" font-size="10.00">stxxl::priority_queue</text>
<text text-anchor="start" x="344.5" y="-21.5" font-family="Helvetica,sans-Serif" font-size="10.00">_local::internal_bounded</text>
<text text-anchor="middle" x="427" y="-8.5" font-family="Helvetica,sans-Serif" font-size="10.00">_stack&lt; unsigned_type, MaxArity &gt;</text>
</a>
</g>
<!-- Node5&#45;&gt;Node1 -->
<g id="edge8" class="edge"><title>Node5&#45;&gt;Node1</title>
<path fill="none" stroke="#9a32cd" stroke-dasharray="5,2" d="M527.907,-43.377C559.506,-49.4449 593.907,-56.051 623.787,-61.7888"/>
<polygon fill="#9a32cd" stroke="#9a32cd" points="528.236,-39.8763 517.755,-41.4276 526.915,-46.7507 528.236,-39.8763"/>
<text text-anchor="middle" x="571" y="-62" font-family="Helvetica,sans-Serif" font-size="10.00"> free_slots</text>
</g>
<!-- Node6 -->
<g id="node10" class="node"><title>Node6</title>
<a xlink:href="classstxxl_1_1priority__queue__local_1_1internal__bounded__stack.html" target="_top" xlink:title="Similar to std::stack, with the following differences: ">
<polygon fill="none" stroke="black" points="0.5,-0.5 0.5,-47.5 161.5,-47.5 161.5,-0.5 0.5,-0.5"/>
<text text-anchor="start" x="8.5" y="-34.5" font-family="Helvetica,sans-Serif" font-size="10.00">stxxl::priority_queue</text>
<text text-anchor="start" x="8.5" y="-21.5" font-family="Helvetica,sans-Serif" font-size="10.00">_local::internal_bounded</text>
<text text-anchor="middle" x="81" y="-8.5" font-family="Helvetica,sans-Serif" font-size="10.00">_stack&lt; ValueType, MaxSize &gt;</text>
</a>
</g>
<!-- Node6&#45;&gt;Node5 -->
<g id="edge10" class="edge"><title>Node6&#45;&gt;Node5</title>
<path fill="none" stroke="orange" stroke-dasharray="5,2" d="M171.992,-24C222.742,-24 285.743,-24 336.426,-24"/>
<polygon fill="orange" stroke="orange" points="171.685,-20.5001 161.685,-24 171.685,-27.5001 171.685,-20.5001"/>
<text text-anchor="middle" x="249" y="-28" font-family="Helvetica,sans-Serif" font-size="10.00"> &lt; unsigned_type, MaxArity &gt;</text>
</g>
</g>
</svg>
