<?xml version="1.0" encoding="UTF-8" standalone="no"?>
<!DOCTYPE svg PUBLIC "-//W3C//DTD SVG 1.1//EN"
 "http://www.w3.org/Graphics/SVG/1.1/DTD/svg11.dtd">
<!-- Generated by graphviz version 2.26.3 (20100126.1600)
 -->
<!-- Title: stxxl::singleton&lt; INSTANCE, destroy_on_exit &gt; Pages: 1 -->
<svg width="726pt" height="306pt"
 viewBox="0.00 0.00 726.00 306.00" xmlns="http://www.w3.org/2000/svg" xmlns:xlink="http://www.w3.org/1999/xlink">
<g id="graph1" class="graph" transform="scale(1 1) rotate(0) translate(4 302)">
<title>stxxl::singleton&lt; INSTANCE, destroy_on_exit &gt;</title>
<!-- Node1 -->
<g id="node1" class="node"><title>Node1</title>
<polygon fill="#bfbfbf" stroke="black" points="140.5,-144 140.5,-178 289.5,-178 289.5,-144 140.5,-144"/>
<text text-anchor="start" x="148.5" y="-165" font-family="Helvetica,sans-Serif" font-size="10.00">stxxl::singleton&lt; INSTANCE,</text>
<text text-anchor="middle" x="215" y="-152" font-family="Helvetica,sans-Serif" font-size="10.00"> destroy_on_exit &gt;</text>
</g>
<!-- Node3 -->
<g id="node5" class="node"><title>Node3</title>
<a xlink:href="classstxxl_1_1singleton.html" target="_top" xlink:title="stxxl::singleton\&lt; config \&gt;">
<polygon fill="none" stroke="black" points="421.5,-276.5 421.5,-297.5 552.5,-297.5 552.5,-276.5 421.5,-276.5"/>
<text text-anchor="middle" x="487" y="-284.5" font-family="Helvetica,sans-Serif" font-size="10.00">stxxl::singleton&lt; config &gt;</text>
</a>
</g>
<!-- Node1&#45;&gt;Node3 -->
<g id="edge4" class="edge"><title>Node1&#45;&gt;Node3</title>
<path fill="none" stroke="orange" stroke-dasharray="5,2" d="M234.265,-186.003C251.39,-206.427 278.265,-234.382 308,-250 342.837,-268.297 385.922,-277.55 421.092,-282.227"/>
<polygon fill="orange" stroke="orange" points="236.798,-183.572 227.76,-178.043 231.377,-188.001 236.798,-183.572"/>
<text text-anchor="middle" x="355" y="-282" font-family="Helvetica,sans-Serif" font-size="10.00"> &lt; config &gt;</text>
</g>
<!-- Node5 -->
<g id="node9" class="node"><title>Node5</title>
<a xlink:href="classstxxl_1_1singleton.html" target="_top" xlink:title="stxxl::singleton\&lt; logger \&gt;">
<polygon fill="none" stroke="black" points="420.5,-236.5 420.5,-257.5 553.5,-257.5 553.5,-236.5 420.5,-236.5"/>
<text text-anchor="middle" x="487" y="-244.5" font-family="Helvetica,sans-Serif" font-size="10.00">stxxl::singleton&lt; logger &gt;</text>
</a>
</g>
<!-- Node1&#45;&gt;Node5 -->
<g id="edge8" class="edge"><title>Node1&#45;&gt;Node5</title>
<path fill="none" stroke="orange" stroke-dasharray="5,2" d="M251.438,-183.254C268.171,-192.663 288.578,-203.034 308,-210 344.143,-222.963 386.109,-231.938 420.319,-237.799"/>
<polygon fill="orange" stroke="orange" points="252.965,-180.095 242.549,-178.153 249.481,-186.166 252.965,-180.095"/>
<text text-anchor="middle" x="355" y="-237" font-family="Helvetica,sans-Serif" font-size="10.00"> &lt; logger &gt;</text>
</g>
<!-- Node7 -->
<g id="node13" class="node"><title>Node7</title>
<a xlink:href="classstxxl_1_1singleton.html" target="_top" xlink:title="stxxl::singleton\&lt; stats \&gt;">
<polygon fill="none" stroke="black" points="424.5,-196.5 424.5,-217.5 549.5,-217.5 549.5,-196.5 424.5,-196.5"/>
<text text-anchor="middle" x="487" y="-204.5" font-family="Helvetica,sans-Serif" font-size="10.00">stxxl::singleton&lt; stats &gt;</text>
</a>
</g>
<!-- Node1&#45;&gt;Node7 -->
<g id="edge12" class="edge"><title>Node1&#45;&gt;Node7</title>
<path fill="none" stroke="orange" stroke-dasharray="5,2" d="M299.463,-176.516C302.343,-177.02 305.195,-177.516 308,-178 346.625,-184.658 390.017,-191.699 424.405,-197.176"/>
<polygon fill="orange" stroke="orange" points="300.051,-173.065 289.594,-174.772 298.833,-179.959 300.051,-173.065"/>
<text text-anchor="middle" x="355" y="-197" font-family="Helvetica,sans-Serif" font-size="10.00"> &lt; stats &gt;</text>
</g>
<!-- Node9 -->
<g id="node17" class="node"><title>Node9</title>
<a xlink:href="classstxxl_1_1singleton.html" target="_top" xlink:title="stxxl::singleton\&lt; block\l_manager \&gt;">
<polygon fill="none" stroke="black" points="428,-144 428,-178 546,-178 546,-144 428,-144"/>
<text text-anchor="start" x="436" y="-165" font-family="Helvetica,sans-Serif" font-size="10.00">stxxl::singleton&lt; block</text>
<text text-anchor="middle" x="487" y="-152" font-family="Helvetica,sans-Serif" font-size="10.00">_manager &gt;</text>
</a>
</g>
<!-- Node1&#45;&gt;Node9 -->
<g id="edge16" class="edge"><title>Node1&#45;&gt;Node9</title>
<path fill="none" stroke="orange" stroke-dasharray="5,2" d="M299.814,-161C341.424,-161 390.519,-161 427.987,-161"/>
<polygon fill="orange" stroke="orange" points="299.685,-157.5 289.685,-161 299.685,-164.5 299.685,-157.5"/>
<text text-anchor="middle" x="355" y="-165" font-family="Helvetica,sans-Serif" font-size="10.00"> &lt; block_manager &gt;</text>
</g>
<!-- Node11 -->
<g id="node21" class="node"><title>Node11</title>
<a xlink:href="classstxxl_1_1singleton.html" target="_top" xlink:title="stxxl::singleton\&lt; matrix\l_operation_statistic \&gt;">
<polygon fill="none" stroke="black" points="426,-92 426,-126 548,-126 548,-92 426,-92"/>
<text text-anchor="start" x="434" y="-113" font-family="Helvetica,sans-Serif" font-size="10.00">stxxl::singleton&lt; matrix</text>
<text text-anchor="middle" x="487" y="-100" font-family="Helvetica,sans-Serif" font-size="10.00">_operation_statistic &gt;</text>
</a>
</g>
<!-- Node1&#45;&gt;Node11 -->
<g id="edge20" class="edge"><title>Node1&#45;&gt;Node11</title>
<path fill="none" stroke="orange" stroke-dasharray="5,2" d="M271.645,-140.844C283.541,-137.144 296.093,-133.627 308,-131 346.677,-122.466 390.838,-116.994 425.619,-113.642"/>
<polygon fill="orange" stroke="orange" points="270.295,-137.601 261.835,-143.979 272.426,-144.269 270.295,-137.601"/>
<text text-anchor="start" x="309" y="-148" font-family="Helvetica,sans-Serif" font-size="10.00"> &lt; matrix_operation</text>
<text text-anchor="middle" x="355" y="-135" font-family="Helvetica,sans-Serif" font-size="10.00">_statistic &gt;</text>
</g>
<!-- Node13 -->
<g id="node25" class="node"><title>Node13</title>
<a xlink:href="classstxxl_1_1singleton.html" target="_top" xlink:title="stxxl::singleton\&lt; disk\l_queues \&gt;">
<polygon fill="none" stroke="black" points="430.5,-40 430.5,-74 543.5,-74 543.5,-40 430.5,-40"/>
<text text-anchor="start" x="438.5" y="-61" font-family="Helvetica,sans-Serif" font-size="10.00">stxxl::singleton&lt; disk</text>
<text text-anchor="middle" x="487" y="-48" font-family="Helvetica,sans-Serif" font-size="10.00">_queues &gt;</text>
</a>
</g>
<!-- Node1&#45;&gt;Node13 -->
<g id="edge24" class="edge"><title>Node1&#45;&gt;Node13</title>
<path fill="none" stroke="orange" stroke-dasharray="5,2" d="M244.467,-137.871C262.047,-125.071 285.306,-109.813 308,-100 347.163,-83.0653 394.158,-72.0993 430.167,-65.4821"/>
<polygon fill="orange" stroke="orange" points="242.26,-135.15 236.319,-143.923 246.434,-140.77 242.26,-135.15"/>
<text text-anchor="middle" x="355" y="-104" font-family="Helvetica,sans-Serif" font-size="10.00"> &lt; disk_queues &gt;</text>
</g>
<!-- Node15 -->
<g id="node29" class="node"><title>Node15</title>
<a xlink:href="classstxxl_1_1singleton.html" target="_top" xlink:title="stxxl::singleton\&lt; tuning \&gt;">
<polygon fill="none" stroke="black" points="421.5,-0.5 421.5,-21.5 552.5,-21.5 552.5,-0.5 421.5,-0.5"/>
<text text-anchor="middle" x="487" y="-8.5" font-family="Helvetica,sans-Serif" font-size="10.00">stxxl::singleton&lt; tuning &gt;</text>
</a>
</g>
<!-- Node1&#45;&gt;Node15 -->
<g id="edge28" class="edge"><title>Node1&#45;&gt;Node15</title>
<path fill="none" stroke="orange" stroke-dasharray="5,2" d="M230.753,-135.365C247.076,-110.992 274.828,-75.1479 308,-55 342.189,-34.2339 385.668,-23.2568 421.212,-17.4601"/>
<polygon fill="orange" stroke="orange" points="227.799,-133.488 225.267,-143.776 233.662,-137.312 227.799,-133.488"/>
<text text-anchor="middle" x="355" y="-59" font-family="Helvetica,sans-Serif" font-size="10.00"> &lt; tuning &gt;</text>
</g>
<!-- Node2 -->
<g id="node2" class="node"><title>Node2</title>
<a xlink:href="classstxxl_1_1noncopyable.html" target="_top" xlink:title="stxxl::noncopyable">
<polygon fill="none" stroke="black" points="0,-150.5 0,-171.5 102,-171.5 102,-150.5 0,-150.5"/>
<text text-anchor="middle" x="51" y="-158.5" font-family="Helvetica,sans-Serif" font-size="10.00">stxxl::noncopyable</text>
</a>
</g>
<!-- Node2&#45;&gt;Node1 -->
<g id="edge2" class="edge"><title>Node2&#45;&gt;Node1</title>
<path fill="none" stroke="#8b1a1a" d="M112.508,-161C121.582,-161 131.013,-161 140.318,-161"/>
<polygon fill="#8b1a1a" stroke="#8b1a1a" points="112.441,-157.5 102.441,-161 112.441,-164.5 112.441,-157.5"/>
</g>
<!-- Node4 -->
<g id="node7" class="node"><title>Node4</title>
<a xlink:href="classstxxl_1_1config.html" target="_top" xlink:title="Access point to disks properties. Since 1.4.0: no config files are read automatically! ...">
<polygon fill="none" stroke="black" points="619.5,-276.5 619.5,-297.5 690.5,-297.5 690.5,-276.5 619.5,-276.5"/>
<text text-anchor="middle" x="655" y="-284.5" font-family="Helvetica,sans-Serif" font-size="10.00">stxxl::config</text>
</a>
</g>
<!-- Node3&#45;&gt;Node4 -->
<g id="edge6" class="edge"><title>Node3&#45;&gt;Node4</title>
<path fill="none" stroke="midnightblue" d="M563.085,-287C582.675,-287 602.844,-287 619.28,-287"/>
<polygon fill="midnightblue" stroke="midnightblue" points="562.916,-283.5 552.916,-287 562.916,-290.5 562.916,-283.5"/>
</g>
<!-- Node6 -->
<g id="node11" class="node"><title>Node6</title>
<a xlink:href="classstxxl_1_1logger.html" target="_top" xlink:title="stxxl::logger">
<polygon fill="none" stroke="black" points="619,-236.5 619,-257.5 691,-257.5 691,-236.5 619,-236.5"/>
<text text-anchor="middle" x="655" y="-244.5" font-family="Helvetica,sans-Serif" font-size="10.00">stxxl::logger</text>
</a>
</g>
<!-- Node5&#45;&gt;Node6 -->
<g id="edge10" class="edge"><title>Node5&#45;&gt;Node6</title>
<path fill="none" stroke="midnightblue" d="M564.094,-247C583.164,-247 602.712,-247 618.771,-247"/>
<polygon fill="midnightblue" stroke="midnightblue" points="563.881,-243.5 553.881,-247 563.881,-250.5 563.881,-243.5"/>
</g>
<!-- Node8 -->
<g id="node15" class="node"><title>Node8</title>
<a xlink:href="classstxxl_1_1stats.html" target="_top" xlink:title="Collects various I/O statistics. ">
<polygon fill="none" stroke="black" points="622.5,-196.5 622.5,-217.5 687.5,-217.5 687.5,-196.5 622.5,-196.5"/>
<text text-anchor="middle" x="655" y="-204.5" font-family="Helvetica,sans-Serif" font-size="10.00">stxxl::stats</text>
</a>
</g>
<!-- Node7&#45;&gt;Node8 -->
<g id="edge14" class="edge"><title>Node7&#45;&gt;Node8</title>
<path fill="none" stroke="midnightblue" d="M559.783,-207C581.517,-207 604.271,-207 622.084,-207"/>
<polygon fill="midnightblue" stroke="midnightblue" points="559.557,-203.5 549.557,-207 559.557,-210.5 559.557,-203.5"/>
</g>
<!-- Node10 -->
<g id="node19" class="node"><title>Node10</title>
<a xlink:href="classstxxl_1_1block__manager.html" target="_top" xlink:title="Block manager class. ">
<polygon fill="none" stroke="black" points="598,-150.5 598,-171.5 712,-171.5 712,-150.5 598,-150.5"/>
<text text-anchor="middle" x="655" y="-158.5" font-family="Helvetica,sans-Serif" font-size="10.00">stxxl::block_manager</text>
</a>
</g>
<!-- Node9&#45;&gt;Node10 -->
<g id="edge18" class="edge"><title>Node9&#45;&gt;Node10</title>
<path fill="none" stroke="midnightblue" d="M556.632,-161C570.403,-161 584.704,-161 597.997,-161"/>
<polygon fill="midnightblue" stroke="midnightblue" points="556.231,-157.5 546.231,-161 556.23,-164.5 556.231,-157.5"/>
</g>
<!-- Node12 -->
<g id="node23" class="node"><title>Node12</title>
<a xlink:href="structstxxl_1_1matrix__operation__statistic.html" target="_top" xlink:title="stxxl::matrix_operation\l_statistic">
<polygon fill="none" stroke="black" points="594,-92 594,-126 716,-126 716,-92 594,-92"/>
<text text-anchor="start" x="602" y="-113" font-family="Helvetica,sans-Serif" font-size="10.00">stxxl::matrix_operation</text>
<text text-anchor="middle" x="655" y="-100" font-family="Helvetica,sans-Serif" font-size="10.00">_statistic</text>
</a>
</g>
<!-- Node11&#45;&gt;Node12 -->
<g id="edge22" class="edge"><title>Node11&#45;&gt;Node12</title>
<path fill="none" stroke="midnightblue" d="M558.402,-109C570.222,-109 582.383,-109 593.918,-109"/>
<polygon fill="midnightblue" stroke="midnightblue" points="558.127,-105.5 548.127,-109 558.127,-112.5 558.127,-105.5"/>
</g>
<!-- Node14 -->
<g id="node27" class="node"><title>Node14</title>
<a xlink:href="classstxxl_1_1disk__queues.html" target="_top" xlink:title="Encapsulates disk queues. ">
<polygon fill="none" stroke="black" points="604.5,-46.5 604.5,-67.5 705.5,-67.5 705.5,-46.5 604.5,-46.5"/>
<text text-anchor="middle" x="655" y="-54.5" font-family="Helvetica,sans-Serif" font-size="10.00">stxxl::disk_queues</text>
</a>
</g>
<!-- Node13&#45;&gt;Node14 -->
<g id="edge26" class="edge"><title>Node13&#45;&gt;Node14</title>
<path fill="none" stroke="midnightblue" d="M554.159,-57C570.906,-57 588.584,-57 604.381,-57"/>
<polygon fill="midnightblue" stroke="midnightblue" points="553.877,-53.5001 543.877,-57 553.877,-60.5001 553.877,-53.5001"/>
</g>
<!-- Node16 -->
<g id="node31" class="node"><title>Node16</title>
<a xlink:href="classstxxl_1_1hash__map_1_1tuning.html" target="_top" xlink:title="Tuning parameters for external memory hash map. ">
<polygon fill="none" stroke="black" points="592.5,-0.5 592.5,-21.5 717.5,-21.5 717.5,-0.5 592.5,-0.5"/>
<text text-anchor="middle" x="655" y="-8.5" font-family="Helvetica,sans-Serif" font-size="10.00">stxxl::hash_map::tuning</text>
</a>
</g>
<!-- Node15&#45;&gt;Node16 -->
<g id="edge30" class="edge"><title>Node15&#45;&gt;Node16</title>
<path fill="none" stroke="midnightblue" d="M563.039,-11C572.824,-11 582.756,-11 592.295,-11"/>
<polygon fill="midnightblue" stroke="midnightblue" points="562.916,-7.5001 552.916,-11 562.916,-14.5001 562.916,-7.5001"/>
</g>
</g>
</svg>
