<?xml version="1.0" encoding="UTF-8" standalone="no"?>
<!DOCTYPE svg PUBLIC "-//W3C//DTD SVG 1.1//EN"
 "http://www.w3.org/Graphics/SVG/1.1/DTD/svg11.dtd">
<!-- Generated by graphviz version 2.26.3 (20100126.1600)
 -->
<!-- Title: stxxl::block_scheduler&lt; SwappableBlockType &gt; Pages: 1 -->
<svg width="1518pt" height="334pt"
 viewBox="0.00 0.00 1518.00 334.00" xmlns="http://www.w3.org/2000/svg" xmlns:xlink="http://www.w3.org/1999/xlink">
<g id="graph1" class="graph" transform="scale(1 1) rotate(0) translate(4 330)">
<title>stxxl::block_scheduler&lt; SwappableBlockType &gt;</title>
<!-- Node1 -->
<g id="node1" class="node"><title>Node1</title>
<polygon fill="#bfbfbf" stroke="black" points="1374,-152 1374,-186 1510,-186 1510,-152 1374,-152"/>
<text text-anchor="start" x="1382" y="-173" font-family="Helvetica,sans-Serif" font-size="10.00">stxxl::block_scheduler</text>
<text text-anchor="middle" x="1442" y="-160" font-family="Helvetica,sans-Serif" font-size="10.00">&lt; SwappableBlockType &gt;</text>
</g>
<!-- Node2 -->
<g id="node2" class="node"><title>Node2</title>
<a xlink:href="classstxxl_1_1noncopyable.html" target="_top" xlink:title="stxxl::noncopyable">
<polygon fill="none" stroke="black" points="12,-204.5 12,-225.5 114,-225.5 114,-204.5 12,-204.5"/>
<text text-anchor="middle" x="63" y="-212.5" font-family="Helvetica,sans-Serif" font-size="10.00">stxxl::noncopyable</text>
</a>
</g>
<!-- Node2&#45;&gt;Node1 -->
<g id="edge2" class="edge"><title>Node2&#45;&gt;Node1</title>
<path fill="none" stroke="#8b1a1a" d="M84.6619,-231.653C100.425,-243.138 122.661,-258.067 144,-268 225.201,-305.799 247.433,-326 337,-326 337,-326 337,-326 1263,-326 1347.12,-326 1410.61,-226.792 1433.12,-186.101"/>
<polygon fill="#8b1a1a" stroke="#8b1a1a" points="86.7326,-228.831 76.6171,-225.681 82.56,-234.452 86.7326,-228.831"/>
</g>
<!-- Node4 -->
<g id="node6" class="node"><title>Node4</title>
<a xlink:href="classstxxl_1_1singleton.html" target="_top" xlink:title="stxxl::singleton\&lt; block\l_manager \&gt;">
<polygon fill="none" stroke="black" points="578,-226 578,-260 696,-260 696,-226 578,-226"/>
<text text-anchor="start" x="586" y="-247" font-family="Helvetica,sans-Serif" font-size="10.00">stxxl::singleton&lt; block</text>
<text text-anchor="middle" x="637" y="-234" font-family="Helvetica,sans-Serif" font-size="10.00">_manager &gt;</text>
</a>
</g>
<!-- Node2&#45;&gt;Node4 -->
<g id="edge8" class="edge"><title>Node2&#45;&gt;Node4</title>
<path fill="none" stroke="#8b1a1a" d="M100.634,-228.916C140.158,-242.648 204.449,-262.5 262,-269 393.668,-283.872 428.773,-278.361 560,-260 565.83,-259.184 571.874,-258.163 577.895,-257.028"/>
<polygon fill="#8b1a1a" stroke="#8b1a1a" points="101.733,-225.593 91.1377,-225.569 99.4053,-232.194 101.733,-225.593"/>
</g>
<!-- Node5 -->
<g id="node9" class="node"><title>Node5</title>
<a xlink:href="classstxxl_1_1singleton.html" target="_top" xlink:title="stxxl::singleton\&lt; INSTANCE,\l destroy_on_exit \&gt;">
<polygon fill="none" stroke="black" points="262.5,-226 262.5,-260 411.5,-260 411.5,-226 262.5,-226"/>
<text text-anchor="start" x="270.5" y="-247" font-family="Helvetica,sans-Serif" font-size="10.00">stxxl::singleton&lt; INSTANCE,</text>
<text text-anchor="middle" x="337" y="-234" font-family="Helvetica,sans-Serif" font-size="10.00"> destroy_on_exit &gt;</text>
</a>
</g>
<!-- Node2&#45;&gt;Node5 -->
<g id="edge12" class="edge"><title>Node2&#45;&gt;Node5</title>
<path fill="none" stroke="#8b1a1a" d="M124.291,-221.263C165.085,-225.432 218.933,-230.935 262.242,-235.361"/>
<polygon fill="#8b1a1a" stroke="#8b1a1a" points="124.52,-217.769 114.216,-220.234 123.808,-224.732 124.52,-217.769"/>
</g>
<!-- Node6 -->
<g id="node12" class="node"><title>Node6</title>
<a xlink:href="classstxxl_1_1file.html" target="_top" xlink:title="Defines interface of file. ">
<polygon fill="none" stroke="black" points="804,-150.5 804,-171.5 860,-171.5 860,-150.5 804,-150.5"/>
<text text-anchor="middle" x="832" y="-158.5" font-family="Helvetica,sans-Serif" font-size="10.00">stxxl::file</text>
</a>
</g>
<!-- Node2&#45;&gt;Node6 -->
<g id="edge16" class="edge"><title>Node2&#45;&gt;Node6</title>
<path fill="none" stroke="#8b1a1a" d="M124.547,-213.744C275.301,-210.335 659.897,-199.54 786,-176 791.78,-174.921 797.839,-173.311 803.591,-171.54"/>
<polygon fill="#8b1a1a" stroke="#8b1a1a" points="124.023,-210.254 114.104,-213.977 124.179,-217.253 124.023,-210.254"/>
</g>
<!-- Node8 -->
<g id="node17" class="node"><title>Node8</title>
<a xlink:href="classstxxl_1_1mutex.html" target="_top" xlink:title="stxxl::mutex">
<polygon fill="none" stroke="black" points="302,-142.5 302,-163.5 372,-163.5 372,-142.5 302,-142.5"/>
<text text-anchor="middle" x="337" y="-150.5" font-family="Helvetica,sans-Serif" font-size="10.00">stxxl::mutex</text>
</a>
</g>
<!-- Node2&#45;&gt;Node8 -->
<g id="edge22" class="edge"><title>Node2&#45;&gt;Node8</title>
<path fill="none" stroke="#8b1a1a" d="M96.1818,-200.523C110.643,-194.682 127.931,-188.316 144,-184 198.079,-169.475 262.623,-160.796 301.676,-156.461"/>
<polygon fill="#8b1a1a" stroke="#8b1a1a" points="94.5774,-197.399 86.6715,-204.453 97.2503,-203.869 94.5774,-197.399"/>
</g>
<!-- Node11 -->
<g id="node24" class="node"><title>Node11</title>
<a xlink:href="classstxxl_1_1disk__allocator.html" target="_top" xlink:title="stxxl::disk_allocator">
<polygon fill="none" stroke="black" points="988.5,-104.5 988.5,-125.5 1095.5,-125.5 1095.5,-104.5 988.5,-104.5"/>
<text text-anchor="middle" x="1042" y="-112.5" font-family="Helvetica,sans-Serif" font-size="10.00">stxxl::disk_allocator</text>
</a>
</g>
<!-- Node2&#45;&gt;Node11 -->
<g id="edge30" class="edge"><title>Node2&#45;&gt;Node11</title>
<path fill="none" stroke="#8b1a1a" d="M81.3408,-197.038C123.005,-158.225 229.529,-70 337,-70 337,-70 337,-70 832,-70 897.437,-70 971.848,-91.1489 1012.18,-104.449"/>
<polygon fill="#8b1a1a" stroke="#8b1a1a" points="78.74,-194.681 73.8917,-204.101 83.5565,-199.761 78.74,-194.681"/>
</g>
<!-- Node3 -->
<g id="node4" class="node"><title>Node3</title>
<a xlink:href="classstxxl_1_1block__manager.html" target="_top" xlink:title="Block manager class. ">
<polygon fill="none" stroke="black" points="1206,-158.5 1206,-179.5 1320,-179.5 1320,-158.5 1206,-158.5"/>
<text text-anchor="middle" x="1263" y="-166.5" font-family="Helvetica,sans-Serif" font-size="10.00">stxxl::block_manager</text>
</a>
</g>
<!-- Node3&#45;&gt;Node1 -->
<g id="edge4" class="edge"><title>Node3&#45;&gt;Node1</title>
<path fill="none" stroke="#9a32cd" stroke-dasharray="5,2" d="M1330.33,-169C1344.56,-169 1359.58,-169 1373.84,-169"/>
<polygon fill="#9a32cd" stroke="#9a32cd" points="1330.13,-165.5 1320.13,-169 1330.13,-172.5 1330.13,-165.5"/>
<text text-anchor="middle" x="1347" y="-173" font-family="Helvetica,sans-Serif" font-size="10.00"> bm</text>
</g>
<!-- Node4&#45;&gt;Node3 -->
<g id="edge6" class="edge"><title>Node4&#45;&gt;Node3</title>
<path fill="none" stroke="midnightblue" d="M706.298,-235.791C810.819,-224.757 1014.99,-202.573 1188,-180 1193.74,-179.251 1199.73,-178.434 1205.7,-177.596"/>
<polygon fill="midnightblue" stroke="midnightblue" points="705.77,-232.327 696.192,-236.856 706.504,-239.289 705.77,-232.327"/>
</g>
<!-- Node5&#45;&gt;Node4 -->
<g id="edge10" class="edge"><title>Node5&#45;&gt;Node4</title>
<path fill="none" stroke="orange" stroke-dasharray="5,2" d="M421.664,-243C471.506,-243 533.309,-243 577.903,-243"/>
<polygon fill="orange" stroke="orange" points="421.543,-239.5 411.543,-243 421.543,-246.5 421.543,-239.5"/>
<text text-anchor="middle" x="495" y="-247" font-family="Helvetica,sans-Serif" font-size="10.00"> &lt; block_manager &gt;</text>
</g>
<!-- Node6&#45;&gt;Node3 -->
<g id="edge14" class="edge"><title>Node6&#45;&gt;Node3</title>
<path fill="none" stroke="#9a32cd" stroke-dasharray="5,2" d="M870.367,-161.712C946.418,-163.124 1116.63,-166.283 1205.89,-167.94"/>
<polygon fill="#9a32cd" stroke="#9a32cd" points="870.342,-158.211 860.279,-161.525 870.212,-165.21 870.342,-158.211"/>
<text text-anchor="middle" x="1042" y="-169" font-family="Helvetica,sans-Serif" font-size="10.00"> disk_files</text>
</g>
<!-- Node6&#45;&gt;Node11 -->
<g id="edge32" class="edge"><title>Node6&#45;&gt;Node11</title>
<path fill="none" stroke="#9a32cd" stroke-dasharray="5,2" d="M863.885,-146.739C868.56,-144.969 873.362,-143.321 878,-142 914.078,-131.726 955.805,-124.924 988.141,-120.717"/>
<polygon fill="#9a32cd" stroke="#9a32cd" points="862.543,-143.506 854.564,-150.476 865.148,-150.003 862.543,-143.506"/>
<text text-anchor="middle" x="924" y="-146" font-family="Helvetica,sans-Serif" font-size="10.00"> storage</text>
</g>
<!-- Node7 -->
<g id="node15" class="node"><title>Node7</title>
<a xlink:href="classstxxl_1_1atomic__counted__object.html" target="_top" xlink:title="Provides reference counting abilities for use with counting_ptr with mutex locking. ">
<polygon fill="none" stroke="black" points="579,-136 579,-170 695,-170 695,-136 579,-136"/>
<text text-anchor="start" x="587" y="-157" font-family="Helvetica,sans-Serif" font-size="10.00">stxxl::atomic_counted</text>
<text text-anchor="middle" x="637" y="-144" font-family="Helvetica,sans-Serif" font-size="10.00">_object</text>
</a>
</g>
<!-- Node7&#45;&gt;Node6 -->
<g id="edge18" class="edge"><title>Node7&#45;&gt;Node6</title>
<path fill="none" stroke="#9a32cd" stroke-dasharray="5,2" d="M705.547,-155.812C739.346,-157.199 778.249,-158.795 803.88,-159.846"/>
<polygon fill="#9a32cd" stroke="#9a32cd" points="705.377,-152.302 695.242,-155.389 705.09,-159.296 705.377,-152.302"/>
<text text-anchor="middle" x="750" y="-163" font-family="Helvetica,sans-Serif" font-size="10.00"> m_request_ref</text>
</g>
<!-- Node8&#45;&gt;Node7 -->
<g id="edge20" class="edge"><title>Node8&#45;&gt;Node7</title>
<path fill="none" stroke="#9a32cd" stroke-dasharray="5,2" d="M382.017,-153C434.483,-153 521.319,-153 578.848,-153"/>
<polygon fill="#9a32cd" stroke="#9a32cd" points="382.001,-149.5 372.001,-153 382.001,-156.5 382.001,-149.5"/>
<text text-anchor="middle" x="495" y="-157" font-family="Helvetica,sans-Serif" font-size="10.00"> m_reference_count_mutex</text>
</g>
<!-- Node8&#45;&gt;Node11 -->
<g id="edge34" class="edge"><title>Node8&#45;&gt;Node11</title>
<path fill="none" stroke="#9a32cd" stroke-dasharray="5,2" d="M382.177,-147.012C430.532,-140.865 509.541,-131.57 578,-127 726.344,-117.096 901.872,-115.235 988.349,-114.968"/>
<polygon fill="#9a32cd" stroke="#9a32cd" points="381.518,-143.568 372.044,-148.312 382.408,-150.511 381.518,-143.568"/>
<text text-anchor="middle" x="750" y="-125" font-family="Helvetica,sans-Serif" font-size="10.00"> mutex</text>
</g>
<!-- Node9 -->
<g id="node20" class="node"><title>Node9</title>
<a xlink:href="structstxxl_1_1choose__int__types.html" target="_top" xlink:title="stxxl::choose_int_types\l\&lt; my_pointer_size \&gt;">
<polygon fill="none" stroke="black" points="274.5,-0 274.5,-34 399.5,-34 399.5,-0 274.5,-0"/>
<text text-anchor="start" x="282.5" y="-21" font-family="Helvetica,sans-Serif" font-size="10.00">stxxl::choose_int_types</text>
<text text-anchor="middle" x="337" y="-8" font-family="Helvetica,sans-Serif" font-size="10.00">&lt; my_pointer_size &gt;</text>
</a>
</g>
<!-- Node9&#45;&gt;Node1 -->
<g id="edge36" class="edge"><title>Node9&#45;&gt;Node1</title>
<path fill="none" stroke="#9a32cd" stroke-dasharray="5,2" d="M409.869,-13.9704C470.612,-11.706 559.427,-9 637,-9 637,-9 637,-9 1263,-9 1348.03,-9 1411.21,-110.602 1433.37,-151.877"/>
<polygon fill="#9a32cd" stroke="#9a32cd" points="409.477,-10.4826 399.617,-14.3583 409.742,-17.4776 409.477,-10.4826"/>
<text text-anchor="start" x="878.5" y="-26" font-family="Helvetica,sans-Serif" font-size="10.00"> remaining_internal</text>
<text text-anchor="middle" x="924" y="-13" font-family="Helvetica,sans-Serif" font-size="10.00">_blocks</text>
</g>
<!-- Node9&#45;&gt;Node7 -->
<g id="edge24" class="edge"><title>Node9&#45;&gt;Node7</title>
<path fill="none" stroke="#9a32cd" stroke-dasharray="5,2" d="M383.852,-38.2398C443.256,-65.1693 544.508,-111.07 599.227,-135.876"/>
<polygon fill="#9a32cd" stroke="#9a32cd" points="385.244,-35.028 374.691,-34.0868 382.354,-41.4035 385.244,-35.028"/>
<text text-anchor="middle" x="495" y="-121" font-family="Helvetica,sans-Serif" font-size="10.00"> m_reference_count</text>
</g>
<!-- Node10 -->
<g id="node22" class="node"><title>Node10</title>
<a xlink:href="structstxxl_1_1choose__int__types.html" target="_top" xlink:title="stxxl::choose_int_types\l\&lt; PtrSize \&gt;">
<polygon fill="none" stroke="black" points="0.5,-0 0.5,-34 125.5,-34 125.5,-0 0.5,-0"/>
<text text-anchor="start" x="8.5" y="-21" font-family="Helvetica,sans-Serif" font-size="10.00">stxxl::choose_int_types</text>
<text text-anchor="middle" x="63" y="-8" font-family="Helvetica,sans-Serif" font-size="10.00">&lt; PtrSize &gt;</text>
</a>
</g>
<!-- Node10&#45;&gt;Node9 -->
<g id="edge26" class="edge"><title>Node10&#45;&gt;Node9</title>
<path fill="none" stroke="orange" stroke-dasharray="5,2" d="M135.672,-17C178.827,-17 232.999,-17 274.277,-17"/>
<polygon fill="orange" stroke="orange" points="135.518,-13.5001 125.518,-17 135.518,-20.5001 135.518,-13.5001"/>
<text text-anchor="middle" x="194" y="-21" font-family="Helvetica,sans-Serif" font-size="10.00"> &lt; my_pointer_size &gt;</text>
</g>
<!-- Node11&#45;&gt;Node3 -->
<g id="edge28" class="edge"><title>Node11&#45;&gt;Node3</title>
<path fill="none" stroke="#9a32cd" stroke-dasharray="5,2" d="M1105.56,-124.44C1131.36,-128.87 1161.31,-134.78 1188,-142 1204.56,-146.481 1222.68,-152.956 1236.95,-158.442"/>
<polygon fill="#9a32cd" stroke="#9a32cd" points="1105.96,-120.959 1095.52,-122.754 1104.8,-127.862 1105.96,-120.959"/>
<text text-anchor="middle" x="1151" y="-146" font-family="Helvetica,sans-Serif" font-size="10.00"> disk_allocators</text>
</g>
</g>
</svg>
