<?xml version="1.0" encoding="UTF-8" standalone="no"?>
<!DOCTYPE svg PUBLIC "-//W3C//DTD SVG 1.1//EN"
 "http://www.w3.org/Graphics/SVG/1.1/DTD/svg11.dtd">
<!-- Generated by graphviz version 2.26.3 (20100126.1600)
 -->
<!-- Title: stxxl::btree::node_cache&lt; NodeType, BTreeType &gt; Pages: 1 -->
<svg width="614pt" height="122pt"
 viewBox="0.00 0.00 614.00 122.00" xmlns="http://www.w3.org/2000/svg" xmlns:xlink="http://www.w3.org/1999/xlink">
<g id="graph1" class="graph" transform="scale(1 1) rotate(0) translate(4 118)">
<title>stxxl::btree::node_cache&lt; NodeType, BTreeType &gt;</title>
<!-- Node1 -->
<g id="node1" class="node"><title>Node1</title>
<polygon fill="#bfbfbf" stroke="black" points="140.5,-40 140.5,-74 317.5,-74 317.5,-40 140.5,-40"/>
<text text-anchor="start" x="148.5" y="-61" font-family="Helvetica,sans-Serif" font-size="10.00">stxxl::btree::node</text>
<text text-anchor="middle" x="229" y="-48" font-family="Helvetica,sans-Serif" font-size="10.00">_cache&lt; NodeType, BTreeType &gt;</text>
</g>
<!-- Node3 -->
<g id="node5" class="node"><title>Node3</title>
<a xlink:href="classstxxl_1_1btree_1_1node__cache.html" target="_top" xlink:title="stxxl::btree::node\l_cache\&lt; node_type, self\l_type \&gt;">
<polygon fill="none" stroke="black" points="474,-66.5 474,-113.5 606,-113.5 606,-66.5 474,-66.5"/>
<text text-anchor="start" x="482" y="-100.5" font-family="Helvetica,sans-Serif" font-size="10.00">stxxl::btree::node</text>
<text text-anchor="start" x="482" y="-87.5" font-family="Helvetica,sans-Serif" font-size="10.00">_cache&lt; node_type, self</text>
<text text-anchor="middle" x="540" y="-74.5" font-family="Helvetica,sans-Serif" font-size="10.00">_type &gt;</text>
</a>
</g>
<!-- Node1&#45;&gt;Node3 -->
<g id="edge4" class="edge"><title>Node1&#45;&gt;Node3</title>
<path fill="none" stroke="orange" stroke-dasharray="5,2" d="M327.752,-67.4786C375.467,-72.5415 431.444,-78.4812 473.928,-82.9892"/>
<polygon fill="orange" stroke="orange" points="328.017,-63.9871 317.704,-66.4123 327.279,-70.948 328.017,-63.9871"/>
<text text-anchor="middle" x="396" y="-84" font-family="Helvetica,sans-Serif" font-size="10.00"> &lt; node_type, self_type &gt;</text>
</g>
<!-- Node4 -->
<g id="node7" class="node"><title>Node4</title>
<a xlink:href="classstxxl_1_1btree_1_1node__cache.html" target="_top" xlink:title="stxxl::btree::node\l_cache\&lt; leaf_type, self\l_type \&gt;">
<polygon fill="none" stroke="black" points="477.5,-0.5 477.5,-47.5 602.5,-47.5 602.5,-0.5 477.5,-0.5"/>
<text text-anchor="start" x="485.5" y="-34.5" font-family="Helvetica,sans-Serif" font-size="10.00">stxxl::btree::node</text>
<text text-anchor="start" x="485.5" y="-21.5" font-family="Helvetica,sans-Serif" font-size="10.00">_cache&lt; leaf_type, self</text>
<text text-anchor="middle" x="540" y="-8.5" font-family="Helvetica,sans-Serif" font-size="10.00">_type &gt;</text>
</a>
</g>
<!-- Node1&#45;&gt;Node4 -->
<g id="edge6" class="edge"><title>Node1&#45;&gt;Node4</title>
<path fill="none" stroke="orange" stroke-dasharray="5,2" d="M327.703,-46.5267C376.72,-41.3256 434.466,-35.1982 477.348,-30.648"/>
<polygon fill="orange" stroke="orange" points="327.279,-43.052 317.704,-47.5877 328.017,-50.0129 327.279,-43.052"/>
<text text-anchor="middle" x="396" y="-50" font-family="Helvetica,sans-Serif" font-size="10.00"> &lt; leaf_type, self_type &gt;</text>
</g>
<!-- Node2 -->
<g id="node2" class="node"><title>Node2</title>
<a xlink:href="classstxxl_1_1noncopyable.html" target="_top" xlink:title="stxxl::noncopyable">
<polygon fill="none" stroke="black" points="0,-46.5 0,-67.5 102,-67.5 102,-46.5 0,-46.5"/>
<text text-anchor="middle" x="51" y="-54.5" font-family="Helvetica,sans-Serif" font-size="10.00">stxxl::noncopyable</text>
</a>
</g>
<!-- Node2&#45;&gt;Node1 -->
<g id="edge2" class="edge"><title>Node2&#45;&gt;Node1</title>
<path fill="none" stroke="#8b1a1a" d="M112.099,-57C121.222,-57 130.78,-57 140.333,-57"/>
<polygon fill="#8b1a1a" stroke="#8b1a1a" points="112.008,-53.5001 102.008,-57 112.008,-60.5001 112.008,-53.5001"/>
</g>
</g>
</svg>
