<?xml version="1.0" encoding="UTF-8" standalone="no"?>
<!DOCTYPE svg PUBLIC "-//W3C//DTD SVG 1.1//EN"
 "http://www.w3.org/Graphics/SVG/1.1/DTD/svg11.dtd">
<!-- Generated by graphviz version 2.26.3 (20100126.1600)
 -->
<!-- Title: stxxl::request_with_state Pages: 1 -->
<svg width="1498pt" height="454pt"
 viewBox="0.00 0.00 1498.00 453.82" xmlns="http://www.w3.org/2000/svg" xmlns:xlink="http://www.w3.org/1999/xlink">
<g id="graph1" class="graph" transform="scale(1 1) rotate(0) translate(4 449.819)">
<title>stxxl::request_with_state</title>
<!-- Node1 -->
<g id="node1" class="node"><title>Node1</title>
<polygon fill="#bfbfbf" stroke="black" points="1388,-119.819 1388,-153.819 1490,-153.819 1490,-119.819 1388,-119.819"/>
<text text-anchor="start" x="1396" y="-140.819" font-family="Helvetica,sans-Serif" font-size="10.00">stxxl::request_with</text>
<text text-anchor="middle" x="1439" y="-127.819" font-family="Helvetica,sans-Serif" font-size="10.00">_state</text>
</g>
<!-- Node2 -->
<g id="node2" class="node"><title>Node2</title>
<a xlink:href="classstxxl_1_1request__with__waiters.html" target="_top" xlink:title="Request that is aware of threads waiting for it to complete. ">
<polygon fill="none" stroke="black" points="1248,-163.819 1248,-197.819 1350,-197.819 1350,-163.819 1248,-163.819"/>
<text text-anchor="start" x="1256" y="-184.819" font-family="Helvetica,sans-Serif" font-size="10.00">stxxl::request_with</text>
<text text-anchor="middle" x="1299" y="-171.819" font-family="Helvetica,sans-Serif" font-size="10.00">_waiters</text>
</a>
</g>
<!-- Node2&#45;&gt;Node1 -->
<g id="edge2" class="edge"><title>Node2&#45;&gt;Node1</title>
<path fill="none" stroke="midnightblue" d="M1359.89,-161.683C1369.15,-158.771 1378.64,-155.791 1387.67,-152.951"/>
<polygon fill="midnightblue" stroke="midnightblue" points="1358.83,-158.347 1350.34,-164.685 1360.93,-165.025 1358.83,-158.347"/>
</g>
<!-- Node3 -->
<g id="node4" class="node"><title>Node3</title>
<a xlink:href="classstxxl_1_1request.html" target="_top" xlink:title="Request object encapsulating basic properties like file and offset. ">
<polygon fill="none" stroke="black" points="1092.5,-301.319 1092.5,-322.319 1169.5,-322.319 1169.5,-301.319 1092.5,-301.319"/>
<text text-anchor="middle" x="1131" y="-309.319" font-family="Helvetica,sans-Serif" font-size="10.00">stxxl::request</text>
</a>
</g>
<!-- Node3&#45;&gt;Node2 -->
<g id="edge4" class="edge"><title>Node3&#45;&gt;Node2</title>
<path fill="none" stroke="midnightblue" d="M1152.65,-294.939C1184.75,-269.909 1244.64,-223.206 1276.96,-198.003"/>
<polygon fill="midnightblue" stroke="midnightblue" points="1150.48,-292.189 1144.75,-301.099 1154.79,-297.709 1150.48,-292.189"/>
</g>
<!-- Node4 -->
<g id="node6" class="node"><title>Node4</title>
<a xlink:href="classstxxl_1_1request__interface.html" target="_top" xlink:title="Functional interface of a request. ">
<polygon fill="none" stroke="black" points="410.5,-262.319 410.5,-283.319 535.5,-283.319 535.5,-262.319 410.5,-262.319"/>
<text text-anchor="middle" x="473" y="-270.319" font-family="Helvetica,sans-Serif" font-size="10.00">stxxl::request_interface</text>
</a>
</g>
<!-- Node4&#45;&gt;Node3 -->
<g id="edge6" class="edge"><title>Node4&#45;&gt;Node3</title>
<path fill="none" stroke="midnightblue" d="M537.829,-289.123C547.606,-297.106 547.165,-303.775 556,-307.819 644.521,-348.338 896.651,-315.819 994,-316.819 1029.55,-317.184 1038.48,-318.374 1074,-316.819 1079.95,-316.558 1086.25,-316.145 1092.4,-315.665"/>
<polygon fill="midnightblue" stroke="midnightblue" points="539.459,-286.005 529.189,-283.403 535.595,-291.842 539.459,-286.005"/>
</g>
<!-- Node5 -->
<g id="node8" class="node"><title>Node5</title>
<a xlink:href="classstxxl_1_1noncopyable.html" target="_top" xlink:title="stxxl::noncopyable">
<polygon fill="none" stroke="black" points="12,-101.319 12,-122.319 114,-122.319 114,-101.319 12,-101.319"/>
<text text-anchor="middle" x="63" y="-109.319" font-family="Helvetica,sans-Serif" font-size="10.00">stxxl::noncopyable</text>
</a>
</g>
<!-- Node5&#45;&gt;Node4 -->
<g id="edge8" class="edge"><title>Node5&#45;&gt;Node4</title>
<path fill="none" stroke="#8b1a1a" d="M68.7691,-132.162C78.6196,-162.729 101.826,-219.701 144,-245.819 187.059,-272.485 327.492,-275.2 410.313,-274.325"/>
<polygon fill="#8b1a1a" stroke="#8b1a1a" points="72.1005,-131.087 65.8327,-122.545 65.4056,-133.131 72.1005,-131.087"/>
</g>
<!-- Node7 -->
<g id="node12" class="node"><title>Node7</title>
<a xlink:href="classstxxl_1_1mutex.html" target="_top" xlink:title="stxxl::mutex">
<polygon fill="none" stroke="black" points="291,-135.319 291,-156.319 361,-156.319 361,-135.319 291,-135.319"/>
<text text-anchor="middle" x="326" y="-143.319" font-family="Helvetica,sans-Serif" font-size="10.00">stxxl::mutex</text>
</a>
</g>
<!-- Node5&#45;&gt;Node7 -->
<g id="edge14" class="edge"><title>Node5&#45;&gt;Node7</title>
<path fill="none" stroke="#8b1a1a" d="M124.072,-119.714C175.778,-126.399 248.092,-135.747 290.686,-141.254"/>
<polygon fill="#8b1a1a" stroke="#8b1a1a" points="124.387,-116.226 114.021,-118.415 123.49,-123.168 124.387,-116.226"/>
</g>
<!-- Node10 -->
<g id="node19" class="node"><title>Node10</title>
<a xlink:href="classstxxl_1_1file.html" target="_top" xlink:title="Defines interface of file. ">
<polygon fill="none" stroke="black" points="880,-243.319 880,-264.319 936,-264.319 936,-243.319 880,-243.319"/>
<text text-anchor="middle" x="908" y="-251.319" font-family="Helvetica,sans-Serif" font-size="10.00">stxxl::file</text>
</a>
</g>
<!-- Node5&#45;&gt;Node10 -->
<g id="edge22" class="edge"><title>Node5&#45;&gt;Node10</title>
<path fill="none" stroke="#8b1a1a" d="M98.0654,-126.018C112.229,-131.549 128.793,-137.76 144,-142.819 259.74,-181.323 287.873,-196.661 408,-217.819 499.818,-233.99 788.161,-248.309 879.768,-252.549"/>
<polygon fill="#8b1a1a" stroke="#8b1a1a" points="99.2762,-122.733 88.6894,-122.32 96.708,-129.245 99.2762,-122.733"/>
</g>
<!-- Node15 -->
<g id="node33" class="node"><title>Node15</title>
<a xlink:href="classstxxl_1_1state.html" target="_top" xlink:title="stxxl::state\&lt; request\l_state \&gt;">
<polygon fill="none" stroke="black" points="853,-75.8188 853,-109.819 963,-109.819 963,-75.8188 853,-75.8188"/>
<text text-anchor="start" x="861" y="-96.8188" font-family="Helvetica,sans-Serif" font-size="10.00">stxxl::state&lt; request</text>
<text text-anchor="middle" x="908" y="-83.8188" font-family="Helvetica,sans-Serif" font-size="10.00">_state &gt;</text>
</a>
</g>
<!-- Node5&#45;&gt;Node15 -->
<g id="edge40" class="edge"><title>Node5&#45;&gt;Node15</title>
<path fill="none" stroke="#8b1a1a" d="M124.588,-103.016C131.134,-102.212 137.7,-101.46 144,-100.819 385.737,-76.2182 447.269,-61.7077 690,-72.8188 745.621,-75.3649 808.974,-81.5467 852.995,-86.3692"/>
<polygon fill="#8b1a1a" stroke="#8b1a1a" points="123.837,-99.5836 114.358,-104.316 124.719,-106.528 123.837,-99.5836"/>
</g>
<!-- Node16 -->
<g id="node37" class="node"><title>Node16</title>
<a xlink:href="classstxxl_1_1condition__variable.html" target="_top" xlink:title="stxxl::condition_variable">
<polygon fill="none" stroke="black" points="262,-4.31883 262,-25.3188 390,-25.3188 390,-4.31883 262,-4.31883"/>
<text text-anchor="middle" x="326" y="-12.3188" font-family="Helvetica,sans-Serif" font-size="10.00">stxxl::condition_variable</text>
</a>
</g>
<!-- Node5&#45;&gt;Node16 -->
<g id="edge46" class="edge"><title>Node5&#45;&gt;Node16</title>
<path fill="none" stroke="#8b1a1a" d="M77.8587,-93.4735C92.7002,-76.5382 117.124,-52.1962 144,-39.8188 180.791,-22.8754 225.871,-16.5903 261.96,-14.5584"/>
<polygon fill="#8b1a1a" stroke="#8b1a1a" points="75.1806,-91.22 71.3739,-101.107 80.5156,-95.752 75.1806,-91.22"/>
</g>
<!-- Node17 -->
<g id="node40" class="node"><title>Node17</title>
<a xlink:href="classstxxl_1_1state.html" target="_top" xlink:title="stxxl::state\&lt; ValueType \&gt;">
<polygon fill="none" stroke="black" points="556,-82.3188 556,-103.319 690,-103.319 690,-82.3188 556,-82.3188"/>
<text text-anchor="middle" x="623" y="-90.3188" font-family="Helvetica,sans-Serif" font-size="10.00">stxxl::state&lt; ValueType &gt;</text>
</a>
</g>
<!-- Node5&#45;&gt;Node17 -->
<g id="edge50" class="edge"><title>Node5&#45;&gt;Node17</title>
<path fill="none" stroke="#8b1a1a" d="M124.39,-109.325C193.375,-106.564 308.711,-102.075 408,-98.8188 457.45,-97.1972 513.307,-95.6469 555.692,-94.5285"/>
<polygon fill="#8b1a1a" stroke="#8b1a1a" points="123.992,-105.838 114.141,-109.736 124.273,-112.832 123.992,-105.838"/>
</g>
<!-- Node6 -->
<g id="node10" class="node"><title>Node6</title>
<a xlink:href="classstxxl_1_1atomic__counted__object.html" target="_top" xlink:title="Provides reference counting abilities for use with counting_ptr with mutex locking. ">
<polygon fill="none" stroke="black" points="565,-264.819 565,-298.819 681,-298.819 681,-264.819 565,-264.819"/>
<text text-anchor="start" x="573" y="-285.819" font-family="Helvetica,sans-Serif" font-size="10.00">stxxl::atomic_counted</text>
<text text-anchor="middle" x="623" y="-272.819" font-family="Helvetica,sans-Serif" font-size="10.00">_object</text>
</a>
</g>
<!-- Node6&#45;&gt;Node3 -->
<g id="edge10" class="edge"><title>Node6&#45;&gt;Node3</title>
<path fill="none" stroke="midnightblue" d="M691.432,-285.86C799.664,-292.252 1006.84,-304.486 1092.48,-309.544"/>
<polygon fill="midnightblue" stroke="midnightblue" points="691.463,-282.356 681.274,-285.26 691.05,-289.344 691.463,-282.356"/>
</g>
<!-- Node6&#45;&gt;Node10 -->
<g id="edge24" class="edge"><title>Node6&#45;&gt;Node10</title>
<path fill="none" stroke="#9a32cd" stroke-dasharray="5,2" d="M691.428,-268.167C697.021,-267.286 702.598,-266.487 708,-265.819 768.931,-258.287 840.913,-255.437 879.744,-254.393"/>
<polygon fill="#9a32cd" stroke="#9a32cd" points="690.671,-264.744 681.376,-269.828 691.813,-271.65 690.671,-264.744"/>
<text text-anchor="middle" x="765" y="-269.819" font-family="Helvetica,sans-Serif" font-size="10.00"> m_request_ref</text>
</g>
<!-- Node7&#45;&gt;Node2 -->
<g id="edge36" class="edge"><title>Node7&#45;&gt;Node2</title>
<path fill="none" stroke="#9a32cd" stroke-dasharray="5,2" d="M371.363,-151.83C450.918,-161.835 620.851,-180.819 765,-180.819 765,-180.819 765,-180.819 1131,-180.819 1170.23,-180.819 1214.61,-180.819 1247.9,-180.819"/>
<polygon fill="#9a32cd" stroke="#9a32cd" points="371.566,-148.328 361.204,-150.539 370.683,-155.272 371.566,-148.328"/>
<text text-anchor="middle" x="908" y="-184.819" font-family="Helvetica,sans-Serif" font-size="10.00"> m_waiters_mutex</text>
</g>
<!-- Node7&#45;&gt;Node6 -->
<g id="edge12" class="edge"><title>Node7&#45;&gt;Node6</title>
<path fill="none" stroke="#9a32cd" stroke-dasharray="5,2" d="M359.54,-160.599C414.871,-184.995 520.889,-231.802 538,-239.819 554.992,-247.78 573.706,-256.979 589.239,-264.736"/>
<polygon fill="#9a32cd" stroke="#9a32cd" points="360.715,-157.291 350.152,-156.46 357.891,-163.697 360.715,-157.291"/>
<text text-anchor="middle" x="473" y="-243.819" font-family="Helvetica,sans-Serif" font-size="10.00"> m_reference_count_mutex</text>
</g>
<!-- Node7&#45;&gt;Node15 -->
<g id="edge42" class="edge"><title>Node7&#45;&gt;Node15</title>
<path fill="none" stroke="#9a32cd" stroke-dasharray="5,2" d="M371.136,-144.47C458.527,-141.433 656.785,-132.467 822,-109.819 831.952,-108.455 842.488,-106.664 852.647,-104.757"/>
<polygon fill="#9a32cd" stroke="#9a32cd" points="370.914,-140.975 361.038,-144.811 371.15,-147.971 370.914,-140.975"/>
<text text-anchor="middle" x="623" y="-139.819" font-family="Helvetica,sans-Serif" font-size="10.00"> m_mutex</text>
</g>
<!-- Node7&#45;&gt;Node17 -->
<g id="edge52" class="edge"><title>Node7&#45;&gt;Node17</title>
<path fill="none" stroke="#9a32cd" stroke-dasharray="5,2" d="M363.041,-131.899C376.968,-127.124 393.05,-122.15 408,-118.819 456.809,-107.944 512.934,-101.351 555.598,-97.5263"/>
<polygon fill="#9a32cd" stroke="#9a32cd" points="361.6,-128.695 353.327,-135.314 363.922,-135.299 361.6,-128.695"/>
<text text-anchor="middle" x="473" y="-122.819" font-family="Helvetica,sans-Serif" font-size="10.00"> m_mutex</text>
</g>
<!-- Node8 -->
<g id="node15" class="node"><title>Node8</title>
<a xlink:href="structstxxl_1_1choose__int__types.html" target="_top" xlink:title="stxxl::choose_int_types\l\&lt; my_pointer_size \&gt;">
<polygon fill="none" stroke="black" points="263.5,-297.819 263.5,-331.819 388.5,-331.819 388.5,-297.819 263.5,-297.819"/>
<text text-anchor="start" x="271.5" y="-318.819" font-family="Helvetica,sans-Serif" font-size="10.00">stxxl::choose_int_types</text>
<text text-anchor="middle" x="326" y="-305.819" font-family="Helvetica,sans-Serif" font-size="10.00">&lt; my_pointer_size &gt;</text>
</a>
</g>
<!-- Node8&#45;&gt;Node6 -->
<g id="edge16" class="edge"><title>Node8&#45;&gt;Node6</title>
<path fill="none" stroke="#9a32cd" stroke-dasharray="5,2" d="M398.628,-306.749C449.805,-301.063 517.419,-293.55 564.999,-288.263"/>
<polygon fill="#9a32cd" stroke="#9a32cd" points="398.175,-303.278 388.623,-307.861 398.949,-310.235 398.175,-303.278"/>
<text text-anchor="middle" x="473" y="-308.819" font-family="Helvetica,sans-Serif" font-size="10.00"> m_reference_count</text>
</g>
<!-- Node9 -->
<g id="node17" class="node"><title>Node9</title>
<a xlink:href="structstxxl_1_1choose__int__types.html" target="_top" xlink:title="stxxl::choose_int_types\l\&lt; PtrSize \&gt;">
<polygon fill="none" stroke="black" points="0.5,-297.819 0.5,-331.819 125.5,-331.819 125.5,-297.819 0.5,-297.819"/>
<text text-anchor="start" x="8.5" y="-318.819" font-family="Helvetica,sans-Serif" font-size="10.00">stxxl::choose_int_types</text>
<text text-anchor="middle" x="63" y="-305.819" font-family="Helvetica,sans-Serif" font-size="10.00">&lt; PtrSize &gt;</text>
</a>
</g>
<!-- Node9&#45;&gt;Node8 -->
<g id="edge18" class="edge"><title>Node9&#45;&gt;Node8</title>
<path fill="none" stroke="orange" stroke-dasharray="5,2" d="M135.895,-314.819C175.929,-314.819 225.072,-314.819 263.364,-314.819"/>
<polygon fill="orange" stroke="orange" points="135.661,-311.319 125.661,-314.819 135.661,-318.319 135.661,-311.319"/>
<text text-anchor="middle" x="194" y="-318.819" font-family="Helvetica,sans-Serif" font-size="10.00"> &lt; my_pointer_size &gt;</text>
</g>
<!-- Node10&#45;&gt;Node3 -->
<g id="edge20" class="edge"><title>Node10&#45;&gt;Node3</title>
<path fill="none" stroke="#9a32cd" stroke-dasharray="5,2" d="M946.301,-250.244C980.899,-248.468 1032.59,-249.49 1074,-265.819 1093.4,-273.469 1111.34,-290.196 1121.72,-301.23"/>
<polygon fill="#9a32cd" stroke="#9a32cd" points="945.909,-246.762 936.143,-250.871 946.34,-253.748 945.909,-246.762"/>
<text text-anchor="middle" x="1034" y="-269.819" font-family="Helvetica,sans-Serif" font-size="10.00"> m_file</text>
</g>
<!-- Node11 -->
<g id="node23" class="node"><title>Node11</title>
<a xlink:href="structstxxl_1_1compat__unique__ptr.html" target="_top" xlink:title="stxxl::compat_unique\l_ptr\&lt; stxxl::stxxl::io\l_error \&gt;">
<polygon fill="none" stroke="black" points="708.5,-347.319 708.5,-394.319 821.5,-394.319 821.5,-347.319 708.5,-347.319"/>
<text text-anchor="start" x="716.5" y="-381.319" font-family="Helvetica,sans-Serif" font-size="10.00">stxxl::compat_unique</text>
<text text-anchor="start" x="716.5" y="-368.319" font-family="Helvetica,sans-Serif" font-size="10.00">_ptr&lt; stxxl::stxxl::io</text>
<text text-anchor="middle" x="765" y="-355.319" font-family="Helvetica,sans-Serif" font-size="10.00">_error &gt;</text>
</a>
</g>
<!-- Node11&#45;&gt;Node3 -->
<g id="edge26" class="edge"><title>Node11&#45;&gt;Node3</title>
<path fill="none" stroke="#9a32cd" stroke-dasharray="5,2" d="M831.992,-373.529C895.697,-374.178 993.48,-370.113 1074,-344.819 1089.71,-339.884 1105.78,-330.06 1116.84,-322.408"/>
<polygon fill="#9a32cd" stroke="#9a32cd" points="831.728,-370.025 821.678,-373.379 831.626,-377.024 831.728,-370.025"/>
<text text-anchor="middle" x="908" y="-376.819" font-family="Helvetica,sans-Serif" font-size="10.00"> m_error</text>
</g>
<!-- Node12 -->
<g id="node25" class="node"><title>Node12</title>
<a xlink:href="structstxxl_1_1compat__unique__ptr.html" target="_top" xlink:title="stxxl::compat_unique\l_ptr\&lt; Type \&gt;">
<polygon fill="none" stroke="black" points="269.5,-377.819 269.5,-411.819 382.5,-411.819 382.5,-377.819 269.5,-377.819"/>
<text text-anchor="start" x="277.5" y="-398.819" font-family="Helvetica,sans-Serif" font-size="10.00">stxxl::compat_unique</text>
<text text-anchor="middle" x="326" y="-385.819" font-family="Helvetica,sans-Serif" font-size="10.00">_ptr&lt; Type &gt;</text>
</a>
</g>
<!-- Node12&#45;&gt;Node11 -->
<g id="edge28" class="edge"><title>Node12&#45;&gt;Node11</title>
<path fill="none" stroke="orange" stroke-dasharray="5,2" d="M388.913,-375.331C395.311,-373.905 401.753,-372.687 408,-371.819 513.282,-357.183 637.723,-361.708 708.402,-366.29"/>
<polygon fill="orange" stroke="orange" points="387.838,-371.99 378.929,-377.724 389.469,-378.797 387.838,-371.99"/>
<text text-anchor="start" x="437" y="-388.819" font-family="Helvetica,sans-Serif" font-size="10.00"> &lt; stxxl::stxxl::io</text>
<text text-anchor="middle" x="473" y="-375.819" font-family="Helvetica,sans-Serif" font-size="10.00">_error &gt;</text>
</g>
<!-- Node14 -->
<g id="node29" class="node"><title>Node14</title>
<a xlink:href="structstxxl_1_1compat__unique__ptr.html" target="_top" xlink:title="stxxl::compat_unique\l_ptr\&lt; stxxl::completion\l_handler_impl \&gt;">
<polygon fill="none" stroke="black" points="562.5,-398.319 562.5,-445.319 683.5,-445.319 683.5,-398.319 562.5,-398.319"/>
<text text-anchor="start" x="570.5" y="-432.319" font-family="Helvetica,sans-Serif" font-size="10.00">stxxl::compat_unique</text>
<text text-anchor="start" x="570.5" y="-419.319" font-family="Helvetica,sans-Serif" font-size="10.00">_ptr&lt; stxxl::completion</text>
<text text-anchor="middle" x="623" y="-406.319" font-family="Helvetica,sans-Serif" font-size="10.00">_handler_impl &gt;</text>
</a>
</g>
<!-- Node12&#45;&gt;Node14 -->
<g id="edge34" class="edge"><title>Node12&#45;&gt;Node14</title>
<path fill="none" stroke="orange" stroke-dasharray="5,2" d="M392.794,-400.891C443.637,-405.513 513.034,-411.822 562.306,-416.301"/>
<polygon fill="orange" stroke="orange" points="392.838,-397.381 382.563,-399.961 392.205,-404.352 392.838,-397.381"/>
<text text-anchor="start" x="428.5" y="-430.819" font-family="Helvetica,sans-Serif" font-size="10.00"> &lt; stxxl::completion</text>
<text text-anchor="middle" x="473" y="-417.819" font-family="Helvetica,sans-Serif" font-size="10.00">_handler_impl &gt;</text>
</g>
<!-- Node13 -->
<g id="node27" class="node"><title>Node13</title>
<a xlink:href="classstxxl_1_1completion__handler.html" target="_top" xlink:title="Completion handler class (Loki&#45;style). ">
<polygon fill="none" stroke="black" points="840.5,-409.319 840.5,-430.319 975.5,-430.319 975.5,-409.319 840.5,-409.319"/>
<text text-anchor="middle" x="908" y="-417.319" font-family="Helvetica,sans-Serif" font-size="10.00">stxxl::completion_handler</text>
</a>
</g>
<!-- Node13&#45;&gt;Node3 -->
<g id="edge30" class="edge"><title>Node13&#45;&gt;Node3</title>
<path fill="none" stroke="#9a32cd" stroke-dasharray="5,2" d="M985.864,-418.477C1015.29,-414.943 1047.94,-407.136 1074,-390.819 1100.66,-374.126 1118.67,-339.986 1126.53,-322.564"/>
<polygon fill="#9a32cd" stroke="#9a32cd" points="985.184,-415.03 975.605,-419.556 985.917,-421.991 985.184,-415.03"/>
<text text-anchor="middle" x="1034" y="-420.819" font-family="Helvetica,sans-Serif" font-size="10.00"> m_on_complete</text>
</g>
<!-- Node14&#45;&gt;Node13 -->
<g id="edge32" class="edge"><title>Node14&#45;&gt;Node13</title>
<path fill="none" stroke="#9a32cd" stroke-dasharray="5,2" d="M694.005,-421.321C738.759,-421.006 796.212,-420.603 840.317,-420.294"/>
<polygon fill="#9a32cd" stroke="#9a32cd" points="693.765,-417.822 683.79,-421.392 693.814,-424.822 693.765,-417.822"/>
<text text-anchor="middle" x="765" y="-424.819" font-family="Helvetica,sans-Serif" font-size="10.00"> m_ptr</text>
</g>
<!-- Node15&#45;&gt;Node1 -->
<g id="edge38" class="edge"><title>Node15&#45;&gt;Node1</title>
<path fill="none" stroke="#9a32cd" stroke-dasharray="5,2" d="M973.348,-98.2337C1080.34,-107.099 1290.68,-124.529 1387.72,-132.57"/>
<polygon fill="#9a32cd" stroke="#9a32cd" points="973.579,-94.7409 963.324,-97.4031 973,-101.717 973.579,-94.7409"/>
<text text-anchor="middle" x="1209" y="-123.819" font-family="Helvetica,sans-Serif" font-size="10.00"> m_state</text>
</g>
<!-- Node16&#45;&gt;Node15 -->
<g id="edge44" class="edge"><title>Node16&#45;&gt;Node15</title>
<path fill="none" stroke="#9a32cd" stroke-dasharray="5,2" d="M400.511,-6.27142C499.63,2.3696 678.98,8.40917 822,-39.8188 845.765,-47.8326 869.814,-63.4309 886.415,-75.6399"/>
<polygon fill="#9a32cd" stroke="#9a32cd" points="399.938,-2.80889 390.294,-7.1963 400.569,-9.78038 399.938,-2.80889"/>
<text text-anchor="middle" x="623" y="-13.8188" font-family="Helvetica,sans-Serif" font-size="10.00"> m_cond</text>
</g>
<!-- Node16&#45;&gt;Node17 -->
<g id="edge54" class="edge"><title>Node16&#45;&gt;Node17</title>
<path fill="none" stroke="#9a32cd" stroke-dasharray="5,2" d="M400.269,-26.309C441.344,-33.5517 493.025,-44.1346 538,-57.8188 559.833,-64.4618 583.797,-74.6043 600.698,-82.2639"/>
<polygon fill="#9a32cd" stroke="#9a32cd" points="400.786,-22.8465 390.335,-24.5857 399.59,-29.7435 400.786,-22.8465"/>
<text text-anchor="middle" x="473" y="-61.8188" font-family="Helvetica,sans-Serif" font-size="10.00"> m_cond</text>
</g>
<!-- Node17&#45;&gt;Node15 -->
<g id="edge48" class="edge"><title>Node17&#45;&gt;Node15</title>
<path fill="none" stroke="orange" stroke-dasharray="5,2" d="M700.263,-92.8188C748.468,-92.8188 809.375,-92.8188 852.749,-92.8188"/>
<polygon fill="orange" stroke="orange" points="700.18,-89.3189 690.18,-92.8188 700.18,-96.3189 700.18,-89.3189"/>
<text text-anchor="middle" x="765" y="-96.8188" font-family="Helvetica,sans-Serif" font-size="10.00"> &lt; request_state &gt;</text>
</g>
</g>
</svg>
