<?xml version="1.0" encoding="UTF-8" standalone="no"?>
<!DOCTYPE svg PUBLIC "-//W3C//DTD SVG 1.1//EN"
 "http://www.w3.org/Graphics/SVG/1.1/DTD/svg11.dtd">
<!-- Generated by graphviz version 2.26.3 (20100126.1600)
 -->
<!-- Title: stxxl::ufs_file_base Pages: 1 -->
<svg width="442pt" height="204pt"
 viewBox="0.00 0.00 442.00 204.00" xmlns="http://www.w3.org/2000/svg" xmlns:xlink="http://www.w3.org/1999/xlink">
<g id="graph1" class="graph" transform="scale(1 1) rotate(0) translate(4 200)">
<title>stxxl::ufs_file_base</title>
<!-- Node1 -->
<g id="node1" class="node"><title>Node1</title>
<polygon fill="#bfbfbf" stroke="black" points="164,-58.5 164,-79.5 268,-79.5 268,-58.5 164,-58.5"/>
<text text-anchor="middle" x="216" y="-66.5" font-family="Helvetica,sans-Serif" font-size="10.00">stxxl::ufs_file_base</text>
</g>
<!-- Node4 -->
<g id="node7" class="node"><title>Node4</title>
<a xlink:href="classstxxl_1_1linuxaio__file.html" target="_top" xlink:title="Implementation of file based on the Linux kernel interface for asynchronous I/O. ">
<polygon fill="none" stroke="black" points="-0.5,-0.5 -0.5,-21.5 96.5,-21.5 96.5,-0.5 -0.5,-0.5"/>
<text text-anchor="middle" x="48" y="-8.5" font-family="Helvetica,sans-Serif" font-size="10.00">stxxl::linuxaio_file</text>
</a>
</g>
<!-- Node1&#45;&gt;Node4 -->
<g id="edge6" class="edge"><title>Node1&#45;&gt;Node4</title>
<path fill="none" stroke="midnightblue" d="M175.866,-55.1443C145.97,-44.8229 105.769,-30.9439 78.4806,-21.5231"/>
<polygon fill="midnightblue" stroke="midnightblue" points="174.982,-58.5416 185.576,-58.4966 177.266,-51.9248 174.982,-58.5416"/>
</g>
<!-- Node5 -->
<g id="node9" class="node"><title>Node5</title>
<a xlink:href="classstxxl_1_1mmap__file.html" target="_top" xlink:title="Implementation of memory mapped access file. ">
<polygon fill="none" stroke="black" points="114,-0.5 114,-21.5 204,-21.5 204,-0.5 114,-0.5"/>
<text text-anchor="middle" x="159" y="-8.5" font-family="Helvetica,sans-Serif" font-size="10.00">stxxl::mmap_file</text>
</a>
</g>
<!-- Node1&#45;&gt;Node5 -->
<g id="edge8" class="edge"><title>Node1&#45;&gt;Node5</title>
<path fill="none" stroke="midnightblue" d="M198.426,-51.118C188.913,-41.4377 177.486,-29.8098 169.388,-21.5707"/>
<polygon fill="midnightblue" stroke="midnightblue" points="196.04,-53.6829 205.545,-58.3619 201.032,-48.7763 196.04,-53.6829"/>
</g>
<!-- Node6 -->
<g id="node11" class="node"><title>Node6</title>
<a xlink:href="classstxxl_1_1sim__disk__file.html" target="_top" xlink:title="Implementation of disk emulation. ">
<polygon fill="none" stroke="black" points="222,-0.5 222,-21.5 324,-21.5 324,-0.5 222,-0.5"/>
<text text-anchor="middle" x="273" y="-8.5" font-family="Helvetica,sans-Serif" font-size="10.00">stxxl::sim_disk_file</text>
</a>
</g>
<!-- Node1&#45;&gt;Node6 -->
<g id="edge10" class="edge"><title>Node1&#45;&gt;Node6</title>
<path fill="none" stroke="midnightblue" d="M233.574,-51.118C243.087,-41.4377 254.514,-29.8098 262.612,-21.5707"/>
<polygon fill="midnightblue" stroke="midnightblue" points="230.968,-48.7763 226.455,-58.3619 235.96,-53.6829 230.968,-48.7763"/>
</g>
<!-- Node7 -->
<g id="node13" class="node"><title>Node7</title>
<a xlink:href="classstxxl_1_1syscall__file.html" target="_top" xlink:title="Implementation of file based on UNIX syscalls. ">
<polygon fill="none" stroke="black" points="341.5,-0.5 341.5,-21.5 434.5,-21.5 434.5,-0.5 341.5,-0.5"/>
<text text-anchor="middle" x="388" y="-8.5" font-family="Helvetica,sans-Serif" font-size="10.00">stxxl::syscall_file</text>
</a>
</g>
<!-- Node1&#45;&gt;Node7 -->
<g id="edge12" class="edge"><title>Node1&#45;&gt;Node7</title>
<path fill="none" stroke="midnightblue" d="M256.691,-55.2787C287.339,-44.9437 328.735,-30.9849 356.794,-21.5231"/>
<polygon fill="midnightblue" stroke="midnightblue" points="255.505,-51.9847 247.148,-58.4966 257.742,-58.6178 255.505,-51.9847"/>
</g>
<!-- Node2 -->
<g id="node2" class="node"><title>Node2</title>
<a xlink:href="classstxxl_1_1file.html" target="_top" xlink:title="Defines interface of file. ">
<polygon fill="none" stroke="black" points="188,-116.5 188,-137.5 244,-137.5 244,-116.5 188,-116.5"/>
<text text-anchor="middle" x="216" y="-124.5" font-family="Helvetica,sans-Serif" font-size="10.00">stxxl::file</text>
</a>
</g>
<!-- Node2&#45;&gt;Node1 -->
<g id="edge2" class="edge"><title>Node2&#45;&gt;Node1</title>
<path fill="none" stroke="midnightblue" d="M216,-106.191C216,-97.1684 216,-86.9941 216,-79.5707"/>
<polygon fill="midnightblue" stroke="midnightblue" points="212.5,-106.362 216,-116.362 219.5,-106.362 212.5,-106.362"/>
</g>
<!-- Node3 -->
<g id="node4" class="node"><title>Node3</title>
<a xlink:href="classstxxl_1_1noncopyable.html" target="_top" xlink:title="stxxl::noncopyable">
<polygon fill="none" stroke="black" points="165,-174.5 165,-195.5 267,-195.5 267,-174.5 165,-174.5"/>
<text text-anchor="middle" x="216" y="-182.5" font-family="Helvetica,sans-Serif" font-size="10.00">stxxl::noncopyable</text>
</a>
</g>
<!-- Node3&#45;&gt;Node2 -->
<g id="edge4" class="edge"><title>Node3&#45;&gt;Node2</title>
<path fill="none" stroke="#8b1a1a" d="M216,-164.191C216,-155.168 216,-144.994 216,-137.571"/>
<polygon fill="#8b1a1a" stroke="#8b1a1a" points="212.5,-164.362 216,-174.362 219.5,-164.362 212.5,-164.362"/>
</g>
</g>
</svg>
