<?xml version="1.0" encoding="UTF-8" standalone="no"?>
<!DOCTYPE svg PUBLIC "-//W3C//DTD SVG 1.1//EN"
 "http://www.w3.org/Graphics/SVG/1.1/DTD/svg11.dtd">
<!-- Generated by graphviz version 2.26.3 (20100126.1600)
 -->
<!-- Title: stxxl::queue&lt; ValueType, BlockSize, AllocStr, SizeType &gt; Pages: 1 -->
<svg width="3410pt" height="688pt"
 viewBox="0.00 0.00 3410.00 688.04" xmlns="http://www.w3.org/2000/svg" xmlns:xlink="http://www.w3.org/1999/xlink">
<g id="graph1" class="graph" transform="scale(1 1) rotate(0) translate(4 684.045)">
<title>stxxl::queue&lt; ValueType, BlockSize, AllocStr, SizeType &gt;</title>
<!-- Node1 -->
<g id="node1" class="node"><title>Node1</title>
<polygon fill="#bfbfbf" stroke="black" points="3270,-270.5 3270,-317.5 3402,-317.5 3402,-270.5 3270,-270.5"/>
<text text-anchor="start" x="3278" y="-304.5" font-family="Helvetica,sans-Serif" font-size="10.00">stxxl::queue&lt; ValueType,</text>
<text text-anchor="start" x="3278" y="-291.5" font-family="Helvetica,sans-Serif" font-size="10.00"> BlockSize, AllocStr,</text>
<text text-anchor="middle" x="3336" y="-278.5" font-family="Helvetica,sans-Serif" font-size="10.00"> SizeType &gt;</text>
</g>
<!-- Node2 -->
<g id="node2" class="node"><title>Node2</title>
<a xlink:href="classstxxl_1_1noncopyable.html" target="_top" xlink:title="stxxl::noncopyable">
<polygon fill="none" stroke="black" points="31,-496.5 31,-517.5 133,-517.5 133,-496.5 31,-496.5"/>
<text text-anchor="middle" x="82" y="-504.5" font-family="Helvetica,sans-Serif" font-size="10.00">stxxl::noncopyable</text>
</a>
</g>
<!-- Node2&#45;&gt;Node1 -->
<g id="edge2" class="edge"><title>Node2&#45;&gt;Node1</title>
<path fill="none" stroke="#8b1a1a" d="M143.244,-505.156C313.09,-500.206 804.481,-487 1213,-487 1213,-487 1213,-487 3114,-487 3216.14,-487 3294.18,-369.202 3323.44,-317.666"/>
<polygon fill="#8b1a1a" stroke="#8b1a1a" points="142.896,-501.664 133.003,-505.456 143.101,-508.661 142.896,-501.664"/>
</g>
<!-- Node3 -->
<g id="node4" class="node"><title>Node3</title>
<a xlink:href="classstxxl_1_1read__write__pool.html" target="_top" xlink:title="Implements dynamically resizable buffered writing and prefetched reading pool. ">
<polygon fill="none" stroke="black" points="854.5,-301 854.5,-335 973.5,-335 973.5,-301 854.5,-301"/>
<text text-anchor="start" x="862.5" y="-322" font-family="Helvetica,sans-Serif" font-size="10.00">stxxl::read_write_pool</text>
<text text-anchor="middle" x="914" y="-309" font-family="Helvetica,sans-Serif" font-size="10.00">&lt; BlockType &gt;</text>
</a>
</g>
<!-- Node2&#45;&gt;Node3 -->
<g id="edge6" class="edge"><title>Node2&#45;&gt;Node3</title>
<path fill="none" stroke="#8b1a1a" d="M127.208,-493.593C144.303,-488.72 163.98,-483.348 182,-479 370.697,-433.468 420.463,-433.895 610,-392 710.838,-369.711 735.757,-362.826 836,-338 841.971,-336.521 848.193,-334.96 854.404,-333.388"/>
<polygon fill="#8b1a1a" stroke="#8b1a1a" points="126.116,-490.265 117.473,-496.392 128.051,-496.992 126.116,-490.265"/>
</g>
<!-- Node4 -->
<g id="node7" class="node"><title>Node4</title>
<a xlink:href="classstxxl_1_1prefetch__pool.html" target="_top" xlink:title="Implements dynamically resizable prefetching pool. ">
<polygon fill="none" stroke="black" points="633.5,-268 633.5,-302 740.5,-302 740.5,-268 633.5,-268"/>
<text text-anchor="start" x="641.5" y="-289" font-family="Helvetica,sans-Serif" font-size="10.00">stxxl::prefetch_pool</text>
<text text-anchor="middle" x="687" y="-276" font-family="Helvetica,sans-Serif" font-size="10.00">&lt; BlockType &gt;</text>
</a>
</g>
<!-- Node2&#45;&gt;Node4 -->
<g id="edge10" class="edge"><title>Node2&#45;&gt;Node4</title>
<path fill="none" stroke="#8b1a1a" d="M88.4211,-486.623C100.552,-451.794 130.365,-381.351 182,-348 200.833,-335.836 507.342,-303.349 633.448,-290.419"/>
<polygon fill="#8b1a1a" stroke="#8b1a1a" points="85.068,-485.614 85.2192,-496.208 91.7073,-487.832 85.068,-485.614"/>
</g>
<!-- Node9 -->
<g id="node18" class="node"><title>Node9</title>
<a xlink:href="classstxxl_1_1write__pool.html" target="_top" xlink:title="Implements dynamically resizable buffered writing pool. ">
<polygon fill="none" stroke="black" points="496.5,-321 496.5,-355 593.5,-355 593.5,-321 496.5,-321"/>
<text text-anchor="start" x="504.5" y="-342" font-family="Helvetica,sans-Serif" font-size="10.00">stxxl::write_pool&lt;</text>
<text text-anchor="middle" x="545" y="-329" font-family="Helvetica,sans-Serif" font-size="10.00"> BlockType &gt;</text>
</a>
</g>
<!-- Node2&#45;&gt;Node9 -->
<g id="edge22" class="edge"><title>Node2&#45;&gt;Node9</title>
<path fill="none" stroke="#8b1a1a" d="M92.8961,-487.44C108.765,-460.989 140.879,-414.538 182,-392 283.409,-336.42 423.488,-332.507 496.431,-334.937"/>
<polygon fill="#8b1a1a" stroke="#8b1a1a" points="89.8036,-485.795 87.7981,-496.199 95.8535,-489.317 89.8036,-485.795"/>
</g>
<!-- Node11 -->
<g id="node23" class="node"><title>Node11</title>
<a xlink:href="classstxxl_1_1singleton.html" target="_top" xlink:title="stxxl::singleton\&lt; block\l_manager \&gt;">
<polygon fill="none" stroke="black" points="628,-613 628,-647 746,-647 746,-613 628,-613"/>
<text text-anchor="start" x="636" y="-634" font-family="Helvetica,sans-Serif" font-size="10.00">stxxl::singleton&lt; block</text>
<text text-anchor="middle" x="687" y="-621" font-family="Helvetica,sans-Serif" font-size="10.00">_manager &gt;</text>
</a>
</g>
<!-- Node2&#45;&gt;Node11 -->
<g id="edge28" class="edge"><title>Node2&#45;&gt;Node11</title>
<path fill="none" stroke="#8b1a1a" d="M92.6831,-526.574C108.497,-553.598 140.762,-601.843 182,-627 323.835,-713.526 532.401,-673.597 631.187,-647.014"/>
<polygon fill="#8b1a1a" stroke="#8b1a1a" points="95.6002,-524.623 87.6151,-517.659 89.5149,-528.083 95.6002,-524.623"/>
</g>
<!-- Node12 -->
<g id="node26" class="node"><title>Node12</title>
<a xlink:href="classstxxl_1_1singleton.html" target="_top" xlink:title="stxxl::singleton\&lt; INSTANCE,\l destroy_on_exit \&gt;">
<polygon fill="none" stroke="black" points="312.5,-613 312.5,-647 461.5,-647 461.5,-613 312.5,-613"/>
<text text-anchor="start" x="320.5" y="-634" font-family="Helvetica,sans-Serif" font-size="10.00">stxxl::singleton&lt; INSTANCE,</text>
<text text-anchor="middle" x="387" y="-621" font-family="Helvetica,sans-Serif" font-size="10.00"> destroy_on_exit &gt;</text>
</a>
</g>
<!-- Node2&#45;&gt;Node12 -->
<g id="edge32" class="edge"><title>Node2&#45;&gt;Node12</title>
<path fill="none" stroke="#8b1a1a" d="M96.4197,-525.78C114.078,-547.297 146.101,-581.795 182,-599 222.412,-618.368 272.003,-626.23 312.286,-629.196"/>
<polygon fill="#8b1a1a" stroke="#8b1a1a" points="98.9436,-523.332 89.9665,-517.705 93.4752,-527.702 98.9436,-523.332"/>
</g>
<!-- Node13 -->
<g id="node29" class="node"><title>Node13</title>
<a xlink:href="classstxxl_1_1file.html" target="_top" xlink:title="Defines interface of file. ">
<polygon fill="none" stroke="black" points="886,-442.5 886,-463.5 942,-463.5 942,-442.5 886,-442.5"/>
<text text-anchor="middle" x="914" y="-450.5" font-family="Helvetica,sans-Serif" font-size="10.00">stxxl::file</text>
</a>
</g>
<!-- Node2&#45;&gt;Node13 -->
<g id="edge36" class="edge"><title>Node2&#45;&gt;Node13</title>
<path fill="none" stroke="#8b1a1a" d="M143.143,-497.605C155.957,-495.871 169.402,-494.224 182,-493 455.305,-466.449 787.857,-456.24 885.673,-453.686"/>
<polygon fill="#8b1a1a" stroke="#8b1a1a" points="142.455,-494.167 133.031,-499.008 143.417,-501.101 142.455,-494.167"/>
</g>
<!-- Node15 -->
<g id="node34" class="node"><title>Node15</title>
<a xlink:href="classstxxl_1_1mutex.html" target="_top" xlink:title="stxxl::mutex">
<polygon fill="none" stroke="black" points="352,-535.5 352,-556.5 422,-556.5 422,-535.5 352,-535.5"/>
<text text-anchor="middle" x="387" y="-543.5" font-family="Helvetica,sans-Serif" font-size="10.00">stxxl::mutex</text>
</a>
</g>
<!-- Node2&#45;&gt;Node15 -->
<g id="edge42" class="edge"><title>Node2&#45;&gt;Node15</title>
<path fill="none" stroke="#8b1a1a" d="M143.217,-515.746C156.025,-517.526 169.45,-519.356 182,-521 241.547,-528.799 310.932,-537.095 351.79,-541.898"/>
<polygon fill="#8b1a1a" stroke="#8b1a1a" points="143.494,-512.251 133.106,-514.333 142.525,-519.183 143.494,-512.251"/>
</g>
<!-- Node16 -->
<g id="node38" class="node"><title>Node16</title>
<a xlink:href="classstxxl_1_1disk__allocator.html" target="_top" xlink:title="stxxl::disk_allocator">
<polygon fill="none" stroke="black" points="1050.5,-564.5 1050.5,-585.5 1157.5,-585.5 1157.5,-564.5 1050.5,-564.5"/>
<text text-anchor="middle" x="1104" y="-572.5" font-family="Helvetica,sans-Serif" font-size="10.00">stxxl::disk_allocator</text>
</a>
</g>
<!-- Node2&#45;&gt;Node16 -->
<g id="edge48" class="edge"><title>Node2&#45;&gt;Node16</title>
<path fill="none" stroke="#8b1a1a" d="M115.28,-521.364C170.593,-543.894 285.427,-585 387,-585 387,-585 387,-585 914,-585 960.079,-585 1012.36,-582.031 1050.4,-579.328"/>
<polygon fill="#8b1a1a" stroke="#8b1a1a" points="116.555,-518.104 105.976,-517.519 113.882,-524.573 116.555,-518.104"/>
</g>
<!-- Node3&#45;&gt;Node1 -->
<g id="edge4" class="edge"><title>Node3&#45;&gt;Node1</title>
<path fill="none" stroke="#9a32cd" stroke-dasharray="5,2" d="M983.988,-304.896C1019.76,-299.286 1064.06,-294 1104,-294 1104,-294 1104,-294 3114,-294 3166.42,-294 3225.79,-294 3269.94,-294"/>
<polygon fill="#9a32cd" stroke="#9a32cd" points="982.973,-301.515 973.658,-306.562 984.087,-308.425 982.973,-301.515"/>
<text text-anchor="middle" x="2065" y="-298" font-family="Helvetica,sans-Serif" font-size="10.00"> pool</text>
</g>
<!-- Node4&#45;&gt;Node3 -->
<g id="edge8" class="edge"><title>Node4&#45;&gt;Node3</title>
<path fill="none" stroke="#9a32cd" stroke-dasharray="5,2" d="M750.805,-294.276C783.308,-299.001 822.585,-304.711 854.461,-309.345"/>
<polygon fill="#9a32cd" stroke="#9a32cd" points="750.908,-290.754 740.508,-292.779 749.901,-297.681 750.908,-290.754"/>
<text text-anchor="middle" x="800" y="-310" font-family="Helvetica,sans-Serif" font-size="10.00"> p_pool</text>
</g>
<!-- Node5 -->
<g id="node10" class="node"><title>Node5</title>
<a xlink:href="structstxxl_1_1choose__int__types.html" target="_top" xlink:title="stxxl::choose_int_types\l\&lt; my_pointer_size \&gt;">
<polygon fill="none" stroke="black" points="324.5,-244 324.5,-278 449.5,-278 449.5,-244 324.5,-244"/>
<text text-anchor="start" x="332.5" y="-265" font-family="Helvetica,sans-Serif" font-size="10.00">stxxl::choose_int_types</text>
<text text-anchor="middle" x="387" y="-252" font-family="Helvetica,sans-Serif" font-size="10.00">&lt; my_pointer_size &gt;</text>
</a>
</g>
<!-- Node5&#45;&gt;Node1 -->
<g id="edge54" class="edge"><title>Node5&#45;&gt;Node1</title>
<path fill="none" stroke="#9a32cd" stroke-dasharray="5,2" d="M459.784,-253.047C520.476,-247.103 609.265,-240 687,-240 687,-240 687,-240 3114,-240 3169.14,-240 3229.85,-255.92 3273.82,-270.472"/>
<polygon fill="#9a32cd" stroke="#9a32cd" points="459.145,-249.593 449.541,-254.066 459.838,-256.559 459.145,-249.593"/>
<text text-anchor="middle" x="1850" y="-257" font-family="Helvetica,sans-Serif" font-size="10.00"> blocks2prefetch</text>
<text text-anchor="middle" x="1850" y="-244" font-family="Helvetica,sans-Serif" font-size="10.00">alloc_count</text>
</g>
<!-- Node5&#45;&gt;Node4 -->
<g id="edge12" class="edge"><title>Node5&#45;&gt;Node4</title>
<path fill="none" stroke="#9a32cd" stroke-dasharray="5,2" d="M459.628,-266.81C513.107,-271.089 584.652,-276.812 633.098,-280.688"/>
<polygon fill="#9a32cd" stroke="#9a32cd" points="459.772,-263.311 449.525,-266.002 459.214,-270.288 459.772,-263.311"/>
<text text-anchor="middle" x="545" y="-282" font-family="Helvetica,sans-Serif" font-size="10.00"> free_blocks_size</text>
</g>
<!-- Node14 -->
<g id="node32" class="node"><title>Node14</title>
<a xlink:href="classstxxl_1_1atomic__counted__object.html" target="_top" xlink:title="Provides reference counting abilities for use with counting_ptr with mutex locking. ">
<polygon fill="none" stroke="black" points="629,-407 629,-441 745,-441 745,-407 629,-407"/>
<text text-anchor="start" x="637" y="-428" font-family="Helvetica,sans-Serif" font-size="10.00">stxxl::atomic_counted</text>
<text text-anchor="middle" x="687" y="-415" font-family="Helvetica,sans-Serif" font-size="10.00">_object</text>
</a>
</g>
<!-- Node5&#45;&gt;Node14 -->
<g id="edge44" class="edge"><title>Node5&#45;&gt;Node14</title>
<path fill="none" stroke="#9a32cd" stroke-dasharray="5,2" d="M405.881,-286.185C423.07,-307.509 450.246,-337.482 480,-356 526.085,-384.682 585.546,-402.576 628.907,-412.763"/>
<polygon fill="#9a32cd" stroke="#9a32cd" points="408.522,-283.882 399.582,-278.197 403.026,-288.216 408.522,-283.882"/>
<text text-anchor="middle" x="545" y="-411" font-family="Helvetica,sans-Serif" font-size="10.00"> m_reference_count</text>
</g>
<!-- Node6 -->
<g id="node12" class="node"><title>Node6</title>
<a xlink:href="structstxxl_1_1choose__int__types.html" target="_top" xlink:title="stxxl::choose_int_types\l\&lt; PtrSize \&gt;">
<polygon fill="none" stroke="black" points="19.5,-244 19.5,-278 144.5,-278 144.5,-244 19.5,-244"/>
<text text-anchor="start" x="27.5" y="-265" font-family="Helvetica,sans-Serif" font-size="10.00">stxxl::choose_int_types</text>
<text text-anchor="middle" x="82" y="-252" font-family="Helvetica,sans-Serif" font-size="10.00">&lt; PtrSize &gt;</text>
</a>
</g>
<!-- Node6&#45;&gt;Node5 -->
<g id="edge14" class="edge"><title>Node6&#45;&gt;Node5</title>
<path fill="none" stroke="orange" stroke-dasharray="5,2" d="M154.915,-261C206.539,-261 275.067,-261 324.255,-261"/>
<polygon fill="orange" stroke="orange" points="154.826,-257.5 144.826,-261 154.826,-264.5 154.826,-257.5"/>
<text text-anchor="middle" x="238" y="-265" font-family="Helvetica,sans-Serif" font-size="10.00"> &lt; my_pointer_size &gt;</text>
</g>
<!-- Node7 -->
<g id="node14" class="node"><title>Node7</title>
<a xlink:href="structstxxl_1_1compat__hash__map.html" target="_top" xlink:title="stxxl::compat_hash\l_map\&lt; bid_type, busy\l_entry, bid_hash \&gt;">
<polygon fill="none" stroke="black" points="328,-178.5 328,-225.5 446,-225.5 446,-178.5 328,-178.5"/>
<text text-anchor="start" x="336" y="-212.5" font-family="Helvetica,sans-Serif" font-size="10.00">stxxl::compat_hash</text>
<text text-anchor="start" x="336" y="-199.5" font-family="Helvetica,sans-Serif" font-size="10.00">_map&lt; bid_type, busy</text>
<text text-anchor="middle" x="387" y="-186.5" font-family="Helvetica,sans-Serif" font-size="10.00">_entry, bid_hash &gt;</text>
</a>
</g>
<!-- Node7&#45;&gt;Node4 -->
<g id="edge16" class="edge"><title>Node7&#45;&gt;Node4</title>
<path fill="none" stroke="#9a32cd" stroke-dasharray="5,2" d="M455.93,-213.467C500.484,-221.775 559.387,-234.449 610,-251 624.167,-255.633 639.269,-261.972 652.311,-267.921"/>
<polygon fill="#9a32cd" stroke="#9a32cd" points="456.545,-210.021 446.077,-211.657 455.28,-216.906 456.545,-210.021"/>
<text text-anchor="middle" x="545" y="-255" font-family="Helvetica,sans-Serif" font-size="10.00"> busy_blocks</text>
</g>
<!-- Node8 -->
<g id="node16" class="node"><title>Node8</title>
<a xlink:href="structstxxl_1_1compat__hash__map.html" target="_top" xlink:title="stxxl::compat_hash\l_map\&lt; KeyType, MappedType,\l HashType \&gt;">
<polygon fill="none" stroke="black" points="0,-178.5 0,-225.5 164,-225.5 164,-178.5 0,-178.5"/>
<text text-anchor="start" x="8" y="-212.5" font-family="Helvetica,sans-Serif" font-size="10.00">stxxl::compat_hash</text>
<text text-anchor="start" x="8" y="-199.5" font-family="Helvetica,sans-Serif" font-size="10.00">_map&lt; KeyType, MappedType,</text>
<text text-anchor="middle" x="82" y="-186.5" font-family="Helvetica,sans-Serif" font-size="10.00"> HashType &gt;</text>
</a>
</g>
<!-- Node8&#45;&gt;Node7 -->
<g id="edge18" class="edge"><title>Node8&#45;&gt;Node7</title>
<path fill="none" stroke="orange" stroke-dasharray="5,2" d="M174.295,-202C224.199,-202 284.348,-202 327.932,-202"/>
<polygon fill="orange" stroke="orange" points="174.136,-198.5 164.136,-202 174.136,-205.5 174.136,-198.5"/>
<text text-anchor="start" x="182.5" y="-219" font-family="Helvetica,sans-Serif" font-size="10.00"> &lt; bid_type, busy_entry,</text>
<text text-anchor="middle" x="238" y="-206" font-family="Helvetica,sans-Serif" font-size="10.00"> bid_hash &gt;</text>
</g>
<!-- Node9&#45;&gt;Node3 -->
<g id="edge20" class="edge"><title>Node9&#45;&gt;Node3</title>
<path fill="none" stroke="#9a32cd" stroke-dasharray="5,2" d="M603.877,-335.182C662.668,-332.316 755.602,-327.649 836,-323 841.961,-322.655 848.176,-322.281 854.384,-321.899"/>
<polygon fill="#9a32cd" stroke="#9a32cd" points="603.485,-331.696 593.667,-335.678 603.825,-338.688 603.485,-331.696"/>
<text text-anchor="middle" x="687" y="-337" font-family="Helvetica,sans-Serif" font-size="10.00"> w_pool</text>
</g>
<!-- Node10 -->
<g id="node21" class="node"><title>Node10</title>
<a xlink:href="classstxxl_1_1block__manager.html" target="_top" xlink:title="Block manager class. ">
<polygon fill="none" stroke="black" points="1277,-550.5 1277,-571.5 1391,-571.5 1391,-550.5 1277,-550.5"/>
<text text-anchor="middle" x="1334" y="-558.5" font-family="Helvetica,sans-Serif" font-size="10.00">stxxl::block_manager</text>
</a>
</g>
<!-- Node10&#45;&gt;Node1 -->
<g id="edge24" class="edge"><title>Node10&#45;&gt;Node1</title>
<path fill="none" stroke="#9a32cd" stroke-dasharray="5,2" d="M1401.38,-551.353C1439.85,-546.653 1489.03,-542 1533,-542 1533,-542 1533,-542 3114,-542 3177.98,-542 3204.62,-544.003 3252,-501 3306.85,-451.212 3326.61,-360.49 3333.11,-317.629"/>
<polygon fill="#9a32cd" stroke="#9a32cd" points="1400.82,-547.895 1391.34,-552.611 1401.69,-554.841 1400.82,-547.895"/>
<text text-anchor="middle" x="2364" y="-546" font-family="Helvetica,sans-Serif" font-size="10.00"> bm</text>
</g>
<!-- Node11&#45;&gt;Node10 -->
<g id="edge26" class="edge"><title>Node11&#45;&gt;Node10</title>
<path fill="none" stroke="midnightblue" d="M756.134,-625.136C847.963,-618.612 1015.22,-606.513 1158,-595 1198.91,-591.701 1209.72,-594.891 1250,-587 1268.73,-583.331 1289.19,-577.047 1305.23,-571.575"/>
<polygon fill="midnightblue" stroke="midnightblue" points="755.857,-621.646 746.13,-625.846 756.353,-628.629 755.857,-621.646"/>
</g>
<!-- Node12&#45;&gt;Node11 -->
<g id="edge30" class="edge"><title>Node12&#45;&gt;Node11</title>
<path fill="none" stroke="orange" stroke-dasharray="5,2" d="M471.664,-630C521.506,-630 583.309,-630 627.903,-630"/>
<polygon fill="orange" stroke="orange" points="471.543,-626.5 461.543,-630 471.543,-633.5 471.543,-626.5"/>
<text text-anchor="middle" x="545" y="-634" font-family="Helvetica,sans-Serif" font-size="10.00"> &lt; block_manager &gt;</text>
</g>
<!-- Node13&#45;&gt;Node10 -->
<g id="edge34" class="edge"><title>Node13&#45;&gt;Node10</title>
<path fill="none" stroke="#9a32cd" stroke-dasharray="5,2" d="M952.214,-462.826C1031.18,-483.133 1211.76,-529.567 1293.03,-550.465"/>
<polygon fill="#9a32cd" stroke="#9a32cd" points="952.766,-459.355 942.21,-460.254 951.023,-466.134 952.766,-459.355"/>
<text text-anchor="middle" x="1104" y="-518" font-family="Helvetica,sans-Serif" font-size="10.00"> disk_files</text>
</g>
<!-- Node13&#45;&gt;Node16 -->
<g id="edge50" class="edge"><title>Node13&#45;&gt;Node16</title>
<path fill="none" stroke="#9a32cd" stroke-dasharray="5,2" d="M941.763,-468.873C966.501,-483.58 1003.14,-506.782 1032,-531 1040.91,-538.478 1040.55,-543.213 1050,-550 1057.89,-555.666 1067.26,-560.542 1075.97,-564.444"/>
<polygon fill="#9a32cd" stroke="#9a32cd" points="943.301,-465.717 932.907,-463.668 939.754,-471.752 943.301,-465.717"/>
<text text-anchor="middle" x="1012" y="-535" font-family="Helvetica,sans-Serif" font-size="10.00"> storage</text>
</g>
<!-- Node23 -->
<g id="node56" class="node"><title>Node23</title>
<a xlink:href="structstxxl_1_1BID.html" target="_top" xlink:title="stxxl::BID\&lt; raw_size \&gt;">
<polygon fill="none" stroke="black" points="1274.5,-428.5 1274.5,-449.5 1393.5,-449.5 1393.5,-428.5 1274.5,-428.5"/>
<text text-anchor="middle" x="1334" y="-436.5" font-family="Helvetica,sans-Serif" font-size="10.00">stxxl::BID&lt; raw_size &gt;</text>
</a>
</g>
<!-- Node13&#45;&gt;Node23 -->
<g id="edge70" class="edge"><title>Node13&#45;&gt;Node23</title>
<path fill="none" stroke="#9a32cd" stroke-dasharray="5,2" d="M952.387,-451.72C1025.79,-449.274 1186.52,-443.916 1274.15,-440.995"/>
<polygon fill="#9a32cd" stroke="#9a32cd" points="952.087,-448.228 942.21,-452.06 952.321,-455.224 952.087,-448.228"/>
<text text-anchor="middle" x="1104" y="-452" font-family="Helvetica,sans-Serif" font-size="10.00"> storage</text>
</g>
<!-- Node24 -->
<g id="node59" class="node"><title>Node24</title>
<a xlink:href="structstxxl_1_1BID.html" target="_top" xlink:title="Block identifier class. ">
<polygon fill="none" stroke="black" points="1055,-388.5 1055,-409.5 1153,-409.5 1153,-388.5 1055,-388.5"/>
<text text-anchor="middle" x="1104" y="-396.5" font-family="Helvetica,sans-Serif" font-size="10.00">stxxl::BID&lt; Size &gt;</text>
</a>
</g>
<!-- Node13&#45;&gt;Node24 -->
<g id="edge74" class="edge"><title>Node13&#45;&gt;Node24</title>
<path fill="none" stroke="#9a32cd" stroke-dasharray="5,2" d="M943.984,-437.962C958.235,-431.33 975.687,-423.937 992,-419 1012.23,-412.878 1035.11,-408.379 1054.9,-405.217"/>
<polygon fill="#9a32cd" stroke="#9a32cd" points="942.206,-434.933 934.683,-442.393 945.216,-441.252 942.206,-434.933"/>
<text text-anchor="middle" x="1012" y="-423" font-family="Helvetica,sans-Serif" font-size="10.00"> storage</text>
</g>
<!-- Node14&#45;&gt;Node13 -->
<g id="edge38" class="edge"><title>Node14&#45;&gt;Node13</title>
<path fill="none" stroke="#9a32cd" stroke-dasharray="5,2" d="M755.313,-431.964C780.667,-434.995 809.66,-438.552 836,-442 852.543,-444.166 871.033,-446.765 885.858,-448.894"/>
<polygon fill="#9a32cd" stroke="#9a32cd" points="755.401,-428.449 745.057,-430.742 754.573,-435.4 755.401,-428.449"/>
<text text-anchor="middle" x="800" y="-446" font-family="Helvetica,sans-Serif" font-size="10.00"> m_request_ref</text>
</g>
<!-- Node15&#45;&gt;Node14 -->
<g id="edge40" class="edge"><title>Node15&#45;&gt;Node14</title>
<path fill="none" stroke="#9a32cd" stroke-dasharray="5,2" d="M422.26,-531.661C477.822,-509.066 585.53,-465.264 645.007,-441.077"/>
<polygon fill="#9a32cd" stroke="#9a32cd" points="420.782,-528.483 412.837,-535.493 423.419,-534.968 420.782,-528.483"/>
<text text-anchor="middle" x="545" y="-510" font-family="Helvetica,sans-Serif" font-size="10.00"> m_reference_count_mutex</text>
</g>
<!-- Node15&#45;&gt;Node16 -->
<g id="edge52" class="edge"><title>Node15&#45;&gt;Node16</title>
<path fill="none" stroke="#9a32cd" stroke-dasharray="5,2" d="M432.586,-546.667C513.735,-547.977 688.572,-551.356 836,-558 910.402,-561.353 996.307,-567.141 1050.39,-571.02"/>
<polygon fill="#9a32cd" stroke="#9a32cd" points="432.288,-543.162 422.234,-546.503 432.177,-550.161 432.288,-543.162"/>
<text text-anchor="middle" x="800" y="-562" font-family="Helvetica,sans-Serif" font-size="10.00"> mutex</text>
</g>
<!-- Node16&#45;&gt;Node10 -->
<g id="edge46" class="edge"><title>Node16&#45;&gt;Node10</title>
<path fill="none" stroke="#9a32cd" stroke-dasharray="5,2" d="M1167.95,-571.107C1202.04,-569.032 1243.63,-566.501 1276.66,-564.49"/>
<polygon fill="#9a32cd" stroke="#9a32cd" points="1167.4,-567.634 1157.63,-571.735 1167.83,-574.621 1167.4,-567.634"/>
<text text-anchor="middle" x="1213" y="-574" font-family="Helvetica,sans-Serif" font-size="10.00"> disk_allocators</text>
</g>
<!-- Node17 -->
<g id="node44" class="node"><title>Node17</title>
<a xlink:href="classstxxl_1_1typed__block.html" target="_top" xlink:title="Block containing elements of fixed length. ">
<polygon fill="none" stroke="black" points="3050,-159.5 3050,-206.5 3178,-206.5 3178,-159.5 3050,-159.5"/>
<text text-anchor="start" x="3058" y="-193.5" font-family="Helvetica,sans-Serif" font-size="10.00">stxxl::typed_block</text>
<text text-anchor="start" x="3058" y="-180.5" font-family="Helvetica,sans-Serif" font-size="10.00">&lt; RawSize, Type, NRef,</text>
<text text-anchor="middle" x="3114" y="-167.5" font-family="Helvetica,sans-Serif" font-size="10.00"> MetaInfoType &gt;</text>
</a>
</g>
<!-- Node17&#45;&gt;Node1 -->
<g id="edge56" class="edge"><title>Node17&#45;&gt;Node1</title>
<path fill="none" stroke="#9a32cd" stroke-dasharray="5,2" d="M3188.39,-182.453C3209.87,-184.813 3232.7,-189.904 3252,-200 3282.64,-216.031 3307.46,-248.08 3321.97,-270.269"/>
<polygon fill="#9a32cd" stroke="#9a32cd" points="3188.58,-178.956 3178.3,-181.528 3187.94,-185.926 3188.58,-178.956"/>
<text text-anchor="middle" x="3224" y="-217" font-family="Helvetica,sans-Serif" font-size="10.00"> front_block</text>
<text text-anchor="middle" x="3224" y="-204" font-family="Helvetica,sans-Serif" font-size="10.00">back_block</text>
</g>
<!-- Node18 -->
<g id="node46" class="node"><title>Node18</title>
<a xlink:href="classstxxl_1_1mng__local_1_1expand__struct.html" target="_top" xlink:title="stxxl::mng_local::expand\l_struct\&lt; mng_local::block\l_w_info\&lt; Type, RawSize, NRef,\l MetaInfoType \&gt;, RawSize \&gt;">
<polygon fill="none" stroke="black" points="2848,-139 2848,-199 3012,-199 3012,-139 2848,-139"/>
<text text-anchor="start" x="2856" y="-186" font-family="Helvetica,sans-Serif" font-size="10.00">stxxl::mng_local::expand</text>
<text text-anchor="start" x="2856" y="-173" font-family="Helvetica,sans-Serif" font-size="10.00">_struct&lt; mng_local::block</text>
<text text-anchor="start" x="2856" y="-160" font-family="Helvetica,sans-Serif" font-size="10.00">_w_info&lt; Type, RawSize, NRef,</text>
<text text-anchor="middle" x="2930" y="-147" font-family="Helvetica,sans-Serif" font-size="10.00"> MetaInfoType &gt;, RawSize &gt;</text>
</a>
</g>
<!-- Node18&#45;&gt;Node17 -->
<g id="edge58" class="edge"><title>Node18&#45;&gt;Node17</title>
<path fill="none" stroke="midnightblue" d="M3022.16,-176.012C3031.5,-176.723 3040.84,-177.433 3049.78,-178.114"/>
<polygon fill="midnightblue" stroke="midnightblue" points="3022.28,-172.511 3012.04,-175.243 3021.75,-179.491 3022.28,-172.511"/>
</g>
<!-- Node19 -->
<g id="node48" class="node"><title>Node19</title>
<a xlink:href="classstxxl_1_1mng__local_1_1add__filler.html" target="_top" xlink:title="stxxl::mng_local::add\l_filler\&lt; mng_local::block\l_w_info\&lt; Type, RawSize,\l NRef, MetaInfoType \&gt;, RawSize\l&#45;sizeof(mng_local::block_w_info\l\&lt; Type, RawSize, NRef, MetaInfoType \&gt;)\&gt;">
<polygon fill="none" stroke="black" points="2476.5,-126 2476.5,-212 2691.5,-212 2691.5,-126 2476.5,-126"/>
<text text-anchor="start" x="2484.5" y="-199" font-family="Helvetica,sans-Serif" font-size="10.00">stxxl::mng_local::add</text>
<text text-anchor="start" x="2484.5" y="-186" font-family="Helvetica,sans-Serif" font-size="10.00">_filler&lt; mng_local::block</text>
<text text-anchor="start" x="2484.5" y="-173" font-family="Helvetica,sans-Serif" font-size="10.00">_w_info&lt; Type, RawSize,</text>
<text text-anchor="start" x="2484.5" y="-160" font-family="Helvetica,sans-Serif" font-size="10.00"> NRef, MetaInfoType &gt;, RawSize</text>
<text text-anchor="start" x="2484.5" y="-147" font-family="Helvetica,sans-Serif" font-size="10.00">&#45;sizeof(mng_local::block_w_info</text>
<text text-anchor="middle" x="2584" y="-134" font-family="Helvetica,sans-Serif" font-size="10.00">&lt; Type, RawSize, NRef, MetaInfoType &gt;)&gt;</text>
</a>
</g>
<!-- Node19&#45;&gt;Node18 -->
<g id="edge60" class="edge"><title>Node19&#45;&gt;Node18</title>
<path fill="none" stroke="midnightblue" d="M2701.73,-169C2749.76,-169 2804.14,-169 2847.78,-169"/>
<polygon fill="midnightblue" stroke="midnightblue" points="2701.58,-165.5 2691.58,-169 2701.58,-172.5 2701.58,-165.5"/>
</g>
<!-- Node20 -->
<g id="node50" class="node"><title>Node20</title>
<a xlink:href="classstxxl_1_1mng__local_1_1block__w__info.html" target="_top" xlink:title="stxxl::mng_local::block\l_w_info\&lt; Type, RawSize,\l NRef, MetaInfoType \&gt;">
<polygon fill="none" stroke="black" points="2296.5,-325.5 2296.5,-372.5 2431.5,-372.5 2431.5,-325.5 2296.5,-325.5"/>
<text text-anchor="start" x="2304.5" y="-359.5" font-family="Helvetica,sans-Serif" font-size="10.00">stxxl::mng_local::block</text>
<text text-anchor="start" x="2304.5" y="-346.5" font-family="Helvetica,sans-Serif" font-size="10.00">_w_info&lt; Type, RawSize,</text>
<text text-anchor="middle" x="2364" y="-333.5" font-family="Helvetica,sans-Serif" font-size="10.00"> NRef, MetaInfoType &gt;</text>
</a>
</g>
<!-- Node20&#45;&gt;Node19 -->
<g id="edge62" class="edge"><title>Node20&#45;&gt;Node19</title>
<path fill="none" stroke="midnightblue" d="M2400.51,-319.128C2436.17,-289.955 2490.81,-245.249 2531.2,-212.204"/>
<polygon fill="midnightblue" stroke="midnightblue" points="2398.28,-316.427 2392.76,-325.468 2402.72,-321.845 2398.28,-316.427"/>
</g>
<!-- Node21 -->
<g id="node52" class="node"><title>Node21</title>
<a xlink:href="classstxxl_1_1mng__local_1_1block__w__bids.html" target="_top" xlink:title="stxxl::mng_local::block\l_w_bids\&lt; Type,((RawSize\l&#45;sizeof(BID\&lt; RawSize \&gt;)*NBids\l&#45;sizeof(MetaInfoType))/sizeof\l(Type)), RawSize, NBids \&gt;">
<polygon fill="none" stroke="black" points="1768,-329.5 1768,-402.5 1932,-402.5 1932,-329.5 1768,-329.5"/>
<text text-anchor="start" x="1776" y="-389.5" font-family="Helvetica,sans-Serif" font-size="10.00">stxxl::mng_local::block</text>
<text text-anchor="start" x="1776" y="-376.5" font-family="Helvetica,sans-Serif" font-size="10.00">_w_bids&lt; Type,((RawSize</text>
<text text-anchor="start" x="1776" y="-363.5" font-family="Helvetica,sans-Serif" font-size="10.00">&#45;sizeof(BID&lt; RawSize &gt;)*NBids</text>
<text text-anchor="start" x="1776" y="-350.5" font-family="Helvetica,sans-Serif" font-size="10.00">&#45;sizeof(MetaInfoType))/sizeof</text>
<text text-anchor="middle" x="1850" y="-337.5" font-family="Helvetica,sans-Serif" font-size="10.00">(Type)), RawSize, NBids &gt;</text>
</a>
</g>
<!-- Node21&#45;&gt;Node20 -->
<g id="edge64" class="edge"><title>Node21&#45;&gt;Node20</title>
<path fill="none" stroke="midnightblue" d="M1942.35,-379.32C2028.33,-389.255 2159.75,-398.13 2272,-379 2281.11,-377.448 2290.55,-375.178 2299.76,-372.57"/>
<polygon fill="midnightblue" stroke="midnightblue" points="1942.7,-375.836 1932.35,-378.136 1941.87,-382.788 1942.7,-375.836"/>
</g>
<!-- Node26 -->
<g id="node66" class="node"><title>Node26</title>
<a xlink:href="classstxxl_1_1mng__local_1_1block__w__info.html" target="_top" xlink:title="Contains per block information for stxxl::typed_block , not intended for direct use. ">
<polygon fill="none" stroke="black" points="1997.5,-325.5 1997.5,-372.5 2132.5,-372.5 2132.5,-325.5 1997.5,-325.5"/>
<text text-anchor="start" x="2005.5" y="-359.5" font-family="Helvetica,sans-Serif" font-size="10.00">stxxl::mng_local::block</text>
<text text-anchor="start" x="2005.5" y="-346.5" font-family="Helvetica,sans-Serif" font-size="10.00">_w_info&lt; Type, RawSize,</text>
<text text-anchor="middle" x="2065" y="-333.5" font-family="Helvetica,sans-Serif" font-size="10.00"> NBids, MetaInfoType &gt;</text>
</a>
</g>
<!-- Node21&#45;&gt;Node26 -->
<g id="edge84" class="edge"><title>Node21&#45;&gt;Node26</title>
<path fill="none" stroke="midnightblue" d="M1942.35,-358.698C1960.75,-357.243 1979.76,-355.74 1997.16,-354.364"/>
<polygon fill="midnightblue" stroke="midnightblue" points="1941.9,-355.223 1932.2,-359.5 1942.45,-362.201 1941.9,-355.223"/>
</g>
<!-- Node22 -->
<g id="node54" class="node"><title>Node22</title>
<a xlink:href="classstxxl_1_1mng__local_1_1element__block.html" target="_top" xlink:title="Contains data elements for stxxl::typed_block , not intended for direct use. ">
<polygon fill="none" stroke="black" points="1268,-334 1268,-368 1400,-368 1400,-334 1268,-334"/>
<text text-anchor="start" x="1276" y="-355" font-family="Helvetica,sans-Serif" font-size="10.00">stxxl::mng_local::element</text>
<text text-anchor="middle" x="1334" y="-342" font-family="Helvetica,sans-Serif" font-size="10.00">_block&lt; Type, Size &gt;</text>
</a>
</g>
<!-- Node22&#45;&gt;Node21 -->
<g id="edge66" class="edge"><title>Node22&#45;&gt;Node21</title>
<path fill="none" stroke="midnightblue" d="M1410.45,-350.438C1466.74,-350.228 1545.15,-350.359 1614,-352 1674.49,-353.442 1689.61,-354.254 1750,-358 1755.82,-358.361 1761.84,-358.765 1767.89,-359.194"/>
<polygon fill="midnightblue" stroke="midnightblue" points="1410.19,-346.939 1400.2,-350.481 1410.22,-353.939 1410.19,-346.939"/>
</g>
<!-- Node25 -->
<g id="node62" class="node"><title>Node25</title>
<a xlink:href="classstxxl_1_1mng__local_1_1block__w__bids.html" target="_top" xlink:title="Contains BID references for stxxl::typed_block , not intended for direct use. ">
<polygon fill="none" stroke="black" points="1452,-361.5 1452,-408.5 1614,-408.5 1614,-361.5 1452,-361.5"/>
<text text-anchor="start" x="1460" y="-395.5" font-family="Helvetica,sans-Serif" font-size="10.00">stxxl::mng_local::block</text>
<text text-anchor="start" x="1460" y="-382.5" font-family="Helvetica,sans-Serif" font-size="10.00">_w_bids&lt; Type, Size, RawSize,</text>
<text text-anchor="middle" x="1533" y="-369.5" font-family="Helvetica,sans-Serif" font-size="10.00"> NBids &gt;</text>
</a>
</g>
<!-- Node22&#45;&gt;Node25 -->
<g id="edge78" class="edge"><title>Node22&#45;&gt;Node25</title>
<path fill="none" stroke="midnightblue" d="M1410.48,-364.066C1424.01,-366.378 1438.14,-368.793 1451.79,-371.126"/>
<polygon fill="midnightblue" stroke="midnightblue" points="1410.71,-360.556 1400.26,-362.322 1409.53,-367.456 1410.71,-360.556"/>
</g>
<!-- Node23&#45;&gt;Node21 -->
<g id="edge68" class="edge"><title>Node23&#45;&gt;Node21</title>
<path fill="none" stroke="#9a32cd" stroke-dasharray="5,2" d="M1403.46,-449.435C1487.59,-459.467 1632.63,-468.318 1750,-432 1769.87,-425.851 1789.48,-414.435 1805.99,-402.805"/>
<polygon fill="#9a32cd" stroke="#9a32cd" points="1403.86,-445.958 1393.5,-448.209 1403,-452.906 1403.86,-445.958"/>
<text text-anchor="middle" x="1533" y="-462" font-family="Helvetica,sans-Serif" font-size="10.00"> ref</text>
</g>
<!-- Node23&#45;&gt;Node25 -->
<g id="edge80" class="edge"><title>Node23&#45;&gt;Node25</title>
<path fill="none" stroke="#9a32cd" stroke-dasharray="5,2" d="M1382.71,-425.782C1403.53,-420.133 1428.4,-413.385 1451.85,-407.02"/>
<polygon fill="#9a32cd" stroke="#9a32cd" points="1381.58,-422.463 1372.84,-428.46 1383.41,-429.219 1381.58,-422.463"/>
<text text-anchor="middle" x="1426" y="-419" font-family="Helvetica,sans-Serif" font-size="10.00"> ref</text>
</g>
<!-- Node24&#45;&gt;Node23 -->
<g id="edge72" class="edge"><title>Node24&#45;&gt;Node23</title>
<path fill="none" stroke="orange" stroke-dasharray="5,2" d="M1163.13,-405.768C1189.77,-409.159 1221.57,-413.681 1250,-419 1264.15,-421.646 1279.49,-425.121 1293.16,-428.429"/>
<polygon fill="orange" stroke="orange" points="1163.55,-402.293 1153.19,-404.525 1162.68,-409.239 1163.55,-402.293"/>
<text text-anchor="middle" x="1213" y="-423" font-family="Helvetica,sans-Serif" font-size="10.00"> &lt; raw_size &gt;</text>
</g>
<!-- Node25&#45;&gt;Node21 -->
<g id="edge76" class="edge"><title>Node25&#45;&gt;Node21</title>
<path fill="none" stroke="orange" stroke-dasharray="5,2" d="M1624.27,-367.799C1626.87,-367.504 1629.45,-367.236 1632,-367 1676.75,-362.861 1726.89,-362.347 1767.8,-362.985"/>
<polygon fill="orange" stroke="orange" points="1623.64,-364.35 1614.15,-369.065 1624.51,-371.296 1623.64,-364.35"/>
<text text-anchor="start" x="1632" y="-423" font-family="Helvetica,sans-Serif" font-size="10.00"> &lt; Type,((RawSize&#45;sizeof</text>
<text text-anchor="start" x="1632" y="-410" font-family="Helvetica,sans-Serif" font-size="10.00">(BID&lt; RawSize &gt;)*NBids</text>
<text text-anchor="start" x="1632" y="-397" font-family="Helvetica,sans-Serif" font-size="10.00">&#45;sizeof(MetaInfoType))</text>
<text text-anchor="start" x="1632" y="-384" font-family="Helvetica,sans-Serif" font-size="10.00">/sizeof(Type)), RawSize,</text>
<text text-anchor="middle" x="1691" y="-371" font-family="Helvetica,sans-Serif" font-size="10.00"> NBids &gt;</text>
</g>
<!-- Node26&#45;&gt;Node20 -->
<g id="edge82" class="edge"><title>Node26&#45;&gt;Node20</title>
<path fill="none" stroke="orange" stroke-dasharray="5,2" d="M2143.11,-349C2190.69,-349 2250.89,-349 2296.42,-349"/>
<polygon fill="orange" stroke="orange" points="2142.85,-345.5 2132.85,-349 2142.85,-352.5 2142.85,-345.5"/>
<text text-anchor="start" x="2156.5" y="-366" font-family="Helvetica,sans-Serif" font-size="10.00"> &lt; Type, RawSize, NRef,</text>
<text text-anchor="middle" x="2214" y="-353" font-family="Helvetica,sans-Serif" font-size="10.00"> MetaInfoType &gt;</text>
</g>
<!-- Node27 -->
<g id="node69" class="node"><title>Node27</title>
<a xlink:href="classstxxl_1_1mng__local_1_1filler__struct.html" target="_top" xlink:title="stxxl::mng_local::filler\l_struct\&lt; FillSize \&gt;">
<polygon fill="none" stroke="black" points="1793,-54 1793,-88 1907,-88 1907,-54 1793,-54"/>
<text text-anchor="start" x="1801" y="-75" font-family="Helvetica,sans-Serif" font-size="10.00">stxxl::mng_local::filler</text>
<text text-anchor="middle" x="1850" y="-62" font-family="Helvetica,sans-Serif" font-size="10.00">_struct&lt; FillSize &gt;</text>
</a>
</g>
<!-- Node27&#45;&gt;Node19 -->
<g id="edge86" class="edge"><title>Node27&#45;&gt;Node19</title>
<path fill="none" stroke="#9a32cd" stroke-dasharray="5,2" d="M1913.18,-91.0298C1997.89,-116.736 2153.45,-159.933 2290,-176 2355.33,-183.687 2372.24,-177.576 2438,-176 2450.43,-175.702 2463.45,-175.262 2476.38,-174.745"/>
<polygon fill="#9a32cd" stroke="#9a32cd" points="1914.04,-87.6338 1903.46,-88.0614 1912,-94.3288 1914.04,-87.6338"/>
<text text-anchor="middle" x="2214" y="-178" font-family="Helvetica,sans-Serif" font-size="10.00"> filler</text>
</g>
<!-- Node29 -->
<g id="node73" class="node"><title>Node29</title>
<a xlink:href="classstxxl_1_1mng__local_1_1add__filler.html" target="_top" xlink:title="Contains per block filler for stxxl::typed_block , not intended for direct use. ">
<polygon fill="none" stroke="black" points="1992,-54 1992,-88 2138,-88 2138,-54 1992,-54"/>
<text text-anchor="start" x="2000" y="-75" font-family="Helvetica,sans-Serif" font-size="10.00">stxxl::mng_local::add</text>
<text text-anchor="middle" x="2065" y="-62" font-family="Helvetica,sans-Serif" font-size="10.00">_filler&lt; BaseType, FillSize &gt;</text>
</a>
</g>
<!-- Node27&#45;&gt;Node29 -->
<g id="edge92" class="edge"><title>Node27&#45;&gt;Node29</title>
<path fill="none" stroke="#9a32cd" stroke-dasharray="5,2" d="M1917.34,-71C1941.01,-71 1967.71,-71 1991.84,-71"/>
<polygon fill="#9a32cd" stroke="#9a32cd" points="1917.05,-67.5001 1907.05,-71 1917.05,-74.5001 1917.05,-67.5001"/>
<text text-anchor="middle" x="1962" y="-75" font-family="Helvetica,sans-Serif" font-size="10.00"> filler</text>
</g>
<!-- Node31 -->
<g id="node78" class="node"><title>Node31</title>
<a xlink:href="classstxxl_1_1mng__local_1_1add__filler.html" target="_top" xlink:title="stxxl::mng_local::add\l_filler\&lt; Type, RawSize\l&#45;sizeof(Type)\&gt;">
<polygon fill="none" stroke="black" points="2303,-0.5 2303,-47.5 2425,-47.5 2425,-0.5 2303,-0.5"/>
<text text-anchor="start" x="2311" y="-34.5" font-family="Helvetica,sans-Serif" font-size="10.00">stxxl::mng_local::add</text>
<text text-anchor="start" x="2311" y="-21.5" font-family="Helvetica,sans-Serif" font-size="10.00">_filler&lt; Type, RawSize</text>
<text text-anchor="middle" x="2364" y="-8.5" font-family="Helvetica,sans-Serif" font-size="10.00">&#45;sizeof(Type)&gt;</text>
</a>
</g>
<!-- Node27&#45;&gt;Node31 -->
<g id="edge98" class="edge"><title>Node27&#45;&gt;Node31</title>
<path fill="none" stroke="#9a32cd" stroke-dasharray="5,2" d="M1910.65,-51.0157C1935.58,-43.681 1964.9,-36.1604 1992,-32 2100.39,-15.3635 2228.6,-17.2724 2302.68,-20.4471"/>
<polygon fill="#9a32cd" stroke="#9a32cd" points="1909.55,-47.6926 1900.98,-53.9185 1911.56,-54.3974 1909.55,-47.6926"/>
<text text-anchor="middle" x="2065" y="-36" font-family="Helvetica,sans-Serif" font-size="10.00"> filler</text>
</g>
<!-- Node28 -->
<g id="node71" class="node"><title>Node28</title>
<a xlink:href="classstxxl_1_1mng__local_1_1filler__struct.html" target="_top" xlink:title="stxxl::mng_local::filler\l_struct\&lt; Bytes \&gt;">
<polygon fill="none" stroke="black" points="1476,-54 1476,-88 1590,-88 1590,-54 1476,-54"/>
<text text-anchor="start" x="1484" y="-75" font-family="Helvetica,sans-Serif" font-size="10.00">stxxl::mng_local::filler</text>
<text text-anchor="middle" x="1533" y="-62" font-family="Helvetica,sans-Serif" font-size="10.00">_struct&lt; Bytes &gt;</text>
</a>
</g>
<!-- Node28&#45;&gt;Node27 -->
<g id="edge88" class="edge"><title>Node28&#45;&gt;Node27</title>
<path fill="none" stroke="orange" stroke-dasharray="5,2" d="M1600.08,-71C1657.31,-71 1738.71,-71 1792.88,-71"/>
<polygon fill="orange" stroke="orange" points="1600.04,-67.5001 1590.04,-71 1600.04,-74.5001 1600.04,-67.5001"/>
<text text-anchor="middle" x="1691" y="-75" font-family="Helvetica,sans-Serif" font-size="10.00"> &lt; FillSize &gt;</text>
</g>
<!-- Node29&#45;&gt;Node19 -->
<g id="edge90" class="edge"><title>Node29&#45;&gt;Node19</title>
<path fill="none" stroke="orange" stroke-dasharray="5,2" d="M2148.33,-73.3647C2241.23,-76.6483 2385.34,-83.8544 2438,-98 2462.09,-104.472 2486.97,-114.954 2509.22,-125.901"/>
<polygon fill="orange" stroke="orange" points="2148.22,-69.8589 2138.1,-73.0118 2147.98,-76.8547 2148.22,-69.8589"/>
<text text-anchor="start" x="2290" y="-167" font-family="Helvetica,sans-Serif" font-size="10.00"> &lt; mng_local::block</text>
<text text-anchor="start" x="2290" y="-154" font-family="Helvetica,sans-Serif" font-size="10.00">_w_info&lt; Type, RawSize,</text>
<text text-anchor="start" x="2290" y="-141" font-family="Helvetica,sans-Serif" font-size="10.00"> NRef, MetaInfoType &gt;,</text>
<text text-anchor="start" x="2290" y="-128" font-family="Helvetica,sans-Serif" font-size="10.00"> RawSize&#45;sizeof(mng_local</text>
<text text-anchor="start" x="2290" y="-115" font-family="Helvetica,sans-Serif" font-size="10.00">::block_w_info&lt; Type, RawSize,</text>
<text text-anchor="middle" x="2364" y="-102" font-family="Helvetica,sans-Serif" font-size="10.00"> NRef, MetaInfoType &gt;)&gt;</text>
</g>
<!-- Node29&#45;&gt;Node31 -->
<g id="edge100" class="edge"><title>Node29&#45;&gt;Node31</title>
<path fill="none" stroke="orange" stroke-dasharray="5,2" d="M2125.91,-51.176C2135.89,-48.4367 2146.17,-45.9118 2156,-44 2204.79,-34.509 2260.93,-29.4485 2302.58,-26.7946"/>
<polygon fill="orange" stroke="orange" points="2124.73,-47.8729 2116.07,-53.9721 2126.64,-54.6065 2124.73,-47.8729"/>
<text text-anchor="start" x="2157" y="-61" font-family="Helvetica,sans-Serif" font-size="10.00"> &lt; Type, RawSize&#45;sizeof</text>
<text text-anchor="middle" x="2214" y="-48" font-family="Helvetica,sans-Serif" font-size="10.00">(Type)&gt;</text>
</g>
<!-- Node30 -->
<g id="node76" class="node"><title>Node30</title>
<a xlink:href="classstxxl_1_1mng__local_1_1expand__struct.html" target="_top" xlink:title="Helper to compute the size of the filler , not intended for direct use. ">
<polygon fill="none" stroke="black" points="2515.5,-49 2515.5,-83 2652.5,-83 2652.5,-49 2515.5,-49"/>
<text text-anchor="start" x="2523.5" y="-70" font-family="Helvetica,sans-Serif" font-size="10.00">stxxl::mng_local::expand</text>
<text text-anchor="middle" x="2584" y="-57" font-family="Helvetica,sans-Serif" font-size="10.00">_struct&lt; Type, RawSize &gt;</text>
</a>
</g>
<!-- Node30&#45;&gt;Node18 -->
<g id="edge94" class="edge"><title>Node30&#45;&gt;Node18</title>
<path fill="none" stroke="orange" stroke-dasharray="5,2" d="M2662.6,-74.4645C2711.77,-81.3474 2775.83,-93.2477 2830,-113 2848.32,-119.68 2867.27,-129.452 2883.68,-138.97"/>
<polygon fill="orange" stroke="orange" points="2663.04,-70.992 2652.66,-73.1124 2662.09,-77.9282 2663.04,-70.992"/>
<text text-anchor="start" x="2710.5" y="-156" font-family="Helvetica,sans-Serif" font-size="10.00"> &lt; mng_local::block</text>
<text text-anchor="start" x="2710.5" y="-143" font-family="Helvetica,sans-Serif" font-size="10.00">_w_info&lt; Type, RawSize,</text>
<text text-anchor="start" x="2710.5" y="-130" font-family="Helvetica,sans-Serif" font-size="10.00"> NRef, MetaInfoType &gt;,</text>
<text text-anchor="middle" x="2770" y="-117" font-family="Helvetica,sans-Serif" font-size="10.00"> RawSize &gt;</text>
</g>
<!-- Node31&#45;&gt;Node30 -->
<g id="edge96" class="edge"><title>Node31&#45;&gt;Node30</title>
<path fill="none" stroke="midnightblue" d="M2435.32,-37.6151C2460.98,-42.5149 2489.87,-48.0293 2515.3,-52.8855"/>
<polygon fill="midnightblue" stroke="midnightblue" points="2435.76,-34.1367 2425.28,-35.6993 2434.45,-41.0126 2435.76,-34.1367"/>
</g>
</g>
</svg>
