<?xml version="1.0" encoding="UTF-8" standalone="no"?>
<!DOCTYPE svg PUBLIC "-//W3C//DTD SVG 1.1//EN"
 "http://www.w3.org/Graphics/SVG/1.1/DTD/svg11.dtd">
<!-- Generated by graphviz version 2.26.3 (20100126.1600)
 -->
<!-- Title: stxxl::hash_map::iterator_map&lt; HashMap &gt; Pages: 1 -->
<svg width="628pt" height="108pt"
 viewBox="0.00 0.00 628.00 108.00" xmlns="http://www.w3.org/2000/svg" xmlns:xlink="http://www.w3.org/1999/xlink">
<g id="graph1" class="graph" transform="scale(1 1) rotate(0) translate(4 104)">
<title>stxxl::hash_map::iterator_map&lt; HashMap &gt;</title>
<!-- Node1 -->
<g id="node1" class="node"><title>Node1</title>
<polygon fill="#bfbfbf" stroke="black" points="490,-50 490,-84 620,-84 620,-50 490,-50"/>
<text text-anchor="start" x="498" y="-71" font-family="Helvetica,sans-Serif" font-size="10.00">stxxl::hash_map::iterator</text>
<text text-anchor="middle" x="555" y="-58" font-family="Helvetica,sans-Serif" font-size="10.00">_map&lt; HashMap &gt;</text>
</g>
<!-- Node2 -->
<g id="node2" class="node"><title>Node2</title>
<a xlink:href="classstxxl_1_1noncopyable.html" target="_top" xlink:title="stxxl::noncopyable">
<polygon fill="none" stroke="black" points="307,-78.5 307,-99.5 409,-99.5 409,-78.5 307,-78.5"/>
<text text-anchor="middle" x="358" y="-86.5" font-family="Helvetica,sans-Serif" font-size="10.00">stxxl::noncopyable</text>
</a>
</g>
<!-- Node2&#45;&gt;Node1 -->
<g id="edge2" class="edge"><title>Node2&#45;&gt;Node1</title>
<path fill="none" stroke="#8b1a1a" d="M419.309,-82.1533C441.72,-79.6506 467.14,-76.8117 489.872,-74.2732"/>
<polygon fill="#8b1a1a" stroke="#8b1a1a" points="418.795,-78.6889 409.245,-83.2772 419.572,-85.6456 418.795,-78.6889"/>
</g>
<!-- Node3 -->
<g id="node4" class="node"><title>Node3</title>
<a xlink:href="structstxxl_1_1compat__hash__multimap.html" target="_top" xlink:title="stxxl::compat_hash\l_multimap\&lt; internal\l_size_type, iterator\l_base *, hasher \&gt;">
<polygon fill="none" stroke="black" points="304,-0 304,-60 412,-60 412,-0 304,-0"/>
<text text-anchor="start" x="312" y="-47" font-family="Helvetica,sans-Serif" font-size="10.00">stxxl::compat_hash</text>
<text text-anchor="start" x="312" y="-34" font-family="Helvetica,sans-Serif" font-size="10.00">_multimap&lt; internal</text>
<text text-anchor="start" x="312" y="-21" font-family="Helvetica,sans-Serif" font-size="10.00">_size_type, iterator</text>
<text text-anchor="middle" x="358" y="-8" font-family="Helvetica,sans-Serif" font-size="10.00">_base *, hasher &gt;</text>
</a>
</g>
<!-- Node3&#45;&gt;Node1 -->
<g id="edge4" class="edge"><title>Node3&#45;&gt;Node1</title>
<path fill="none" stroke="#9a32cd" stroke-dasharray="5,2" d="M422.18,-42.0541C443.856,-46.1252 468.066,-50.6724 489.819,-54.7579"/>
<polygon fill="#9a32cd" stroke="#9a32cd" points="422.566,-38.5655 412.092,-40.1594 421.274,-45.4452 422.566,-38.5655"/>
<text text-anchor="middle" x="451" y="-54" font-family="Helvetica,sans-Serif" font-size="10.00"> it_map_</text>
</g>
<!-- Node4 -->
<g id="node6" class="node"><title>Node4</title>
<a xlink:href="structstxxl_1_1compat__hash__multimap.html" target="_top" xlink:title="stxxl::compat_hash\l_multimap\&lt; KeyType,\l MappedType, HashType \&gt;">
<polygon fill="none" stroke="black" points="0,-6.5 0,-53.5 146,-53.5 146,-6.5 0,-6.5"/>
<text text-anchor="start" x="8" y="-40.5" font-family="Helvetica,sans-Serif" font-size="10.00">stxxl::compat_hash</text>
<text text-anchor="start" x="8" y="-27.5" font-family="Helvetica,sans-Serif" font-size="10.00">_multimap&lt; KeyType,</text>
<text text-anchor="middle" x="73" y="-14.5" font-family="Helvetica,sans-Serif" font-size="10.00"> MappedType, HashType &gt;</text>
</a>
</g>
<!-- Node4&#45;&gt;Node3 -->
<g id="edge6" class="edge"><title>Node4&#45;&gt;Node3</title>
<path fill="none" stroke="orange" stroke-dasharray="5,2" d="M156.297,-30C203.798,-30 261.973,-30 303.619,-30"/>
<polygon fill="orange" stroke="orange" points="156.025,-26.5001 146.024,-30 156.024,-33.5001 156.025,-26.5001"/>
<text text-anchor="start" x="164.5" y="-47" font-family="Helvetica,sans-Serif" font-size="10.00"> &lt; internal_size_type,</text>
<text text-anchor="middle" x="225" y="-34" font-family="Helvetica,sans-Serif" font-size="10.00"> iterator_base *, hasher &gt;</text>
</g>
</g>
</svg>
