<?xml version="1.0" encoding="UTF-8" standalone="no"?>
<!DOCTYPE svg PUBLIC "-//W3C//DTD SVG 1.1//EN"
 "http://www.w3.org/Graphics/SVG/1.1/DTD/svg11.dtd">
<!-- Generated by graphviz version 2.26.3 (20100126.1600)
 -->
<!-- Title: stxxl::set_switch_handler Pages: 1 -->
<svg width="814pt" height="154pt"
 viewBox="0.00 0.00 814.00 153.92" xmlns="http://www.w3.org/2000/svg" xmlns:xlink="http://www.w3.org/1999/xlink">
<g id="graph1" class="graph" transform="scale(1 1) rotate(0) translate(4 149.919)">
<title>stxxl::set_switch_handler</title>
<!-- Node1 -->
<g id="node1" class="node"><title>Node1</title>
<polygon fill="#bfbfbf" stroke="black" points="672,-71.5 672,-92.5 806,-92.5 806,-71.5 672,-71.5"/>
<text text-anchor="middle" x="739" y="-79.5" font-family="Helvetica,sans-Serif" font-size="10.00">stxxl::set_switch_handler</text>
</g>
<!-- Node2 -->
<g id="node2" class="node"><title>Node2</title>
<a xlink:href="classstxxl_1_1onoff__switch.html" target="_top" xlink:title="stxxl::onoff_switch">
<polygon fill="none" stroke="black" points="467.5,-95.5 467.5,-116.5 568.5,-116.5 568.5,-95.5 467.5,-95.5"/>
<text text-anchor="middle" x="518" y="-103.5" font-family="Helvetica,sans-Serif" font-size="10.00">stxxl::onoff_switch</text>
</a>
</g>
<!-- Node2&#45;&gt;Node1 -->
<g id="edge2" class="edge"><title>Node2&#45;&gt;Node1</title>
<path fill="none" stroke="#9a32cd" stroke-dasharray="5,2" d="M578.653,-99.4132C607.514,-96.279 642.114,-92.5216 671.774,-89.3006"/>
<polygon fill="#9a32cd" stroke="#9a32cd" points="578.266,-95.9347 568.702,-100.494 579.021,-102.894 578.266,-95.9347"/>
<text text-anchor="middle" x="629" y="-100" font-family="Helvetica,sans-Serif" font-size="10.00"> switch_</text>
</g>
<!-- Node3 -->
<g id="node4" class="node"><title>Node3</title>
<a xlink:href="classstxxl_1_1noncopyable.html" target="_top" xlink:title="stxxl::noncopyable">
<polygon fill="none" stroke="black" points="6,-106.5 6,-127.5 108,-127.5 108,-106.5 6,-106.5"/>
<text text-anchor="middle" x="57" y="-114.5" font-family="Helvetica,sans-Serif" font-size="10.00">stxxl::noncopyable</text>
</a>
</g>
<!-- Node3&#45;&gt;Node2 -->
<g id="edge4" class="edge"><title>Node3&#45;&gt;Node2</title>
<path fill="none" stroke="#8b1a1a" d="M118.251,-129.101C122.893,-129.814 127.514,-130.459 132,-131 264.377,-146.965 301.135,-154.554 432,-129 448.837,-125.712 467.242,-120.951 482.689,-116.613"/>
<polygon fill="#8b1a1a" stroke="#8b1a1a" points="118.534,-125.601 108.101,-127.45 117.409,-132.511 118.534,-125.601"/>
</g>
<!-- Node4 -->
<g id="node6" class="node"><title>Node4</title>
<a xlink:href="classstxxl_1_1mutex.html" target="_top" xlink:title="stxxl::mutex">
<polygon fill="none" stroke="black" points="269,-106.5 269,-127.5 339,-127.5 339,-106.5 269,-106.5"/>
<text text-anchor="middle" x="304" y="-114.5" font-family="Helvetica,sans-Serif" font-size="10.00">stxxl::mutex</text>
</a>
</g>
<!-- Node3&#45;&gt;Node4 -->
<g id="edge8" class="edge"><title>Node3&#45;&gt;Node4</title>
<path fill="none" stroke="#8b1a1a" d="M118.331,-117C165.739,-117 229.682,-117 268.816,-117"/>
<polygon fill="#8b1a1a" stroke="#8b1a1a" points="118.179,-113.5 108.179,-117 118.179,-120.5 118.179,-113.5"/>
</g>
<!-- Node5 -->
<g id="node9" class="node"><title>Node5</title>
<a xlink:href="classstxxl_1_1condition__variable.html" target="_top" xlink:title="stxxl::condition_variable">
<polygon fill="none" stroke="black" points="240,-66.5 240,-87.5 368,-87.5 368,-66.5 240,-66.5"/>
<text text-anchor="middle" x="304" y="-74.5" font-family="Helvetica,sans-Serif" font-size="10.00">stxxl::condition_variable</text>
</a>
</g>
<!-- Node3&#45;&gt;Node5 -->
<g id="edge12" class="edge"><title>Node3&#45;&gt;Node5</title>
<path fill="none" stroke="#8b1a1a" d="M118.313,-107.071C155.248,-101.089 202.222,-93.4822 239.683,-87.4157"/>
<polygon fill="#8b1a1a" stroke="#8b1a1a" points="117.49,-103.658 108.179,-108.712 118.609,-110.568 117.49,-103.658"/>
</g>
<!-- Node4&#45;&gt;Node2 -->
<g id="edge6" class="edge"><title>Node4&#45;&gt;Node2</title>
<path fill="none" stroke="#9a32cd" stroke-dasharray="5,2" d="M349.623,-114.655C384.188,-112.878 431.665,-110.438 467.395,-108.601"/>
<polygon fill="#9a32cd" stroke="#9a32cd" points="349.145,-111.175 339.338,-115.184 349.504,-118.166 349.145,-111.175"/>
<text text-anchor="middle" x="409" y="-116" font-family="Helvetica,sans-Serif" font-size="10.00"> m_mutex</text>
</g>
<!-- Node5&#45;&gt;Node2 -->
<g id="edge10" class="edge"><title>Node5&#45;&gt;Node2</title>
<path fill="none" stroke="#9a32cd" stroke-dasharray="5,2" d="M378.387,-85.9706C395.977,-88.1826 414.66,-90.6061 432,-93 443.368,-94.5695 455.566,-96.3528 467.099,-98.0848"/>
<polygon fill="#9a32cd" stroke="#9a32cd" points="378.532,-82.4615 368.175,-84.6945 377.664,-89.4075 378.532,-82.4615"/>
<text text-anchor="middle" x="409" y="-97" font-family="Helvetica,sans-Serif" font-size="10.00"> m_cond</text>
</g>
<!-- Node6 -->
<g id="node12" class="node"><title>Node6</title>
<a xlink:href="classstxxl_1_1completion__handler.html" target="_top" xlink:title="Completion handler class (Loki&#45;style). ">
<polygon fill="none" stroke="black" points="450.5,-46.5 450.5,-67.5 585.5,-67.5 585.5,-46.5 450.5,-46.5"/>
<text text-anchor="middle" x="518" y="-54.5" font-family="Helvetica,sans-Serif" font-size="10.00">stxxl::completion_handler</text>
</a>
</g>
<!-- Node6&#45;&gt;Node1 -->
<g id="edge14" class="edge"><title>Node6&#45;&gt;Node1</title>
<path fill="none" stroke="#9a32cd" stroke-dasharray="5,2" d="M595.638,-65.7826C620.518,-68.5971 647.844,-71.6883 671.905,-74.4101"/>
<polygon fill="#9a32cd" stroke="#9a32cd" points="595.838,-62.283 585.508,-64.6367 595.051,-69.2386 595.838,-62.283"/>
<text text-anchor="middle" x="629" y="-75" font-family="Helvetica,sans-Serif" font-size="10.00"> on_compl</text>
</g>
<!-- Node7 -->
<g id="node14" class="node"><title>Node7</title>
<a xlink:href="structstxxl_1_1compat__unique__ptr.html" target="_top" xlink:title="stxxl::compat_unique\l_ptr\&lt; stxxl::completion\l_handler_impl \&gt;">
<polygon fill="none" stroke="black" points="243.5,-0.5 243.5,-47.5 364.5,-47.5 364.5,-0.5 243.5,-0.5"/>
<text text-anchor="start" x="251.5" y="-34.5" font-family="Helvetica,sans-Serif" font-size="10.00">stxxl::compat_unique</text>
<text text-anchor="start" x="251.5" y="-21.5" font-family="Helvetica,sans-Serif" font-size="10.00">_ptr&lt; stxxl::completion</text>
<text text-anchor="middle" x="304" y="-8.5" font-family="Helvetica,sans-Serif" font-size="10.00">_handler_impl &gt;</text>
</a>
</g>
<!-- Node7&#45;&gt;Node6 -->
<g id="edge16" class="edge"><title>Node7&#45;&gt;Node6</title>
<path fill="none" stroke="#9a32cd" stroke-dasharray="5,2" d="M374.641,-34.8933C398.999,-38.6494 426.21,-42.8455 450.326,-46.5643"/>
<polygon fill="#9a32cd" stroke="#9a32cd" points="375.168,-31.4332 364.751,-33.3682 374.101,-38.3514 375.168,-31.4332"/>
<text text-anchor="middle" x="409" y="-47" font-family="Helvetica,sans-Serif" font-size="10.00"> m_ptr</text>
</g>
<!-- Node8 -->
<g id="node16" class="node"><title>Node8</title>
<a xlink:href="structstxxl_1_1compat__unique__ptr.html" target="_top" xlink:title="stxxl::compat_unique\l_ptr\&lt; Type \&gt;">
<polygon fill="none" stroke="black" points="0.5,-7 0.5,-41 113.5,-41 113.5,-7 0.5,-7"/>
<text text-anchor="start" x="8.5" y="-28" font-family="Helvetica,sans-Serif" font-size="10.00">stxxl::compat_unique</text>
<text text-anchor="middle" x="57" y="-15" font-family="Helvetica,sans-Serif" font-size="10.00">_ptr&lt; Type &gt;</text>
</a>
</g>
<!-- Node8&#45;&gt;Node7 -->
<g id="edge18" class="edge"><title>Node8&#45;&gt;Node7</title>
<path fill="none" stroke="orange" stroke-dasharray="5,2" d="M123.917,-24C161.137,-24 207.104,-24 243.28,-24"/>
<polygon fill="orange" stroke="orange" points="123.667,-20.5001 113.667,-24 123.667,-27.5001 123.667,-20.5001"/>
<text text-anchor="start" x="132.5" y="-41" font-family="Helvetica,sans-Serif" font-size="10.00"> &lt; stxxl::completion</text>
<text text-anchor="middle" x="177" y="-28" font-family="Helvetica,sans-Serif" font-size="10.00">_handler_impl &gt;</text>
</g>
</g>
</svg>
