<?xml version="1.0" encoding="UTF-8" standalone="no"?>
<!DOCTYPE svg PUBLIC "-//W3C//DTD SVG 1.1//EN"
 "http://www.w3.org/Graphics/SVG/1.1/DTD/svg11.dtd">
<!-- Generated by graphviz version 2.26.3 (20100126.1600)
 -->
<!-- Title: stxxl::hash_map::buffered_writer&lt; BlockType, BidContainer &gt; Pages: 1 -->
<svg width="856pt" height="183pt"
 viewBox="0.00 0.00 856.00 182.73" xmlns="http://www.w3.org/2000/svg" xmlns:xlink="http://www.w3.org/1999/xlink">
<g id="graph1" class="graph" transform="scale(1 1) rotate(0) translate(4 178.726)">
<title>stxxl::hash_map::buffered_writer&lt; BlockType, BidContainer &gt;</title>
<!-- Node1 -->
<g id="node1" class="node"><title>Node1</title>
<polygon fill="#bfbfbf" stroke="black" points="664.5,-101 664.5,-135 847.5,-135 847.5,-101 664.5,-101"/>
<text text-anchor="start" x="672.5" y="-122" font-family="Helvetica,sans-Serif" font-size="10.00">stxxl::hash_map::buffered</text>
<text text-anchor="middle" x="756" y="-109" font-family="Helvetica,sans-Serif" font-size="10.00">_writer&lt; BlockType, BidContainer &gt;</text>
</g>
<!-- Node2 -->
<g id="node2" class="node"><title>Node2</title>
<a xlink:href="classstxxl_1_1noncopyable.html" target="_top" xlink:title="stxxl::noncopyable">
<polygon fill="none" stroke="black" points="0,-152.5 0,-173.5 102,-173.5 102,-152.5 0,-152.5"/>
<text text-anchor="middle" x="51" y="-160.5" font-family="Helvetica,sans-Serif" font-size="10.00">stxxl::noncopyable</text>
</a>
</g>
<!-- Node2&#45;&gt;Node1 -->
<g id="edge2" class="edge"><title>Node2&#45;&gt;Node1</title>
<path fill="none" stroke="#8b1a1a" d="M112.274,-172.347C114.881,-172.597 117.465,-172.817 120,-173 143.938,-174.726 150.005,-173.5 174,-173 354.865,-169.234 400.22,-164.137 580,-144 607.472,-140.923 637.247,-136.819 664.357,-132.783"/>
<polygon fill="#8b1a1a" stroke="#8b1a1a" points="112.475,-168.848 102.155,-171.25 111.72,-175.808 112.475,-168.848"/>
</g>
<!-- Node5 -->
<g id="node8" class="node"><title>Node5</title>
<a xlink:href="classstxxl_1_1buffered__writer.html" target="_top" xlink:title="stxxl::buffered_writer\l\&lt; block_type \&gt;">
<polygon fill="none" stroke="black" points="460.5,-101 460.5,-135 573.5,-135 573.5,-101 460.5,-101"/>
<text text-anchor="start" x="468.5" y="-122" font-family="Helvetica,sans-Serif" font-size="10.00">stxxl::buffered_writer</text>
<text text-anchor="middle" x="517" y="-109" font-family="Helvetica,sans-Serif" font-size="10.00">&lt; block_type &gt;</text>
</a>
</g>
<!-- Node2&#45;&gt;Node5 -->
<g id="edge10" class="edge"><title>Node2&#45;&gt;Node5</title>
<path fill="none" stroke="#8b1a1a" d="M112.679,-161.132C188.944,-158.222 322.574,-151.158 436,-135 443.824,-133.885 452.025,-132.465 460.079,-130.922"/>
<polygon fill="#8b1a1a" stroke="#8b1a1a" points="112.17,-157.649 102.307,-161.516 112.429,-164.644 112.17,-157.649"/>
</g>
<!-- Node7 -->
<g id="node13" class="node"><title>Node7</title>
<a xlink:href="classstxxl_1_1buffered__writer.html" target="_top" xlink:title="Encapsulates asynchronous buffered block writing engine. ">
<polygon fill="none" stroke="black" points="198.5,-101 198.5,-135 311.5,-135 311.5,-101 198.5,-101"/>
<text text-anchor="start" x="206.5" y="-122" font-family="Helvetica,sans-Serif" font-size="10.00">stxxl::buffered_writer</text>
<text text-anchor="middle" x="255" y="-109" font-family="Helvetica,sans-Serif" font-size="10.00">&lt; BlockType &gt;</text>
</a>
</g>
<!-- Node2&#45;&gt;Node7 -->
<g id="edge16" class="edge"><title>Node2&#45;&gt;Node7</title>
<path fill="none" stroke="#8b1a1a" d="M108.896,-150.229C136.956,-144.039 170.53,-136.633 198.415,-130.482"/>
<polygon fill="#8b1a1a" stroke="#8b1a1a" points="107.84,-146.877 98.8289,-152.449 109.348,-153.713 107.84,-146.877"/>
</g>
<!-- Node3 -->
<g id="node4" class="node"><title>Node3</title>
<a xlink:href="structstxxl_1_1choose__int__types.html" target="_top" xlink:title="stxxl::choose_int_types\l\&lt; my_pointer_size \&gt;">
<polygon fill="none" stroke="black" points="454.5,-10 454.5,-44 579.5,-44 579.5,-10 454.5,-10"/>
<text text-anchor="start" x="462.5" y="-31" font-family="Helvetica,sans-Serif" font-size="10.00">stxxl::choose_int_types</text>
<text text-anchor="middle" x="517" y="-18" font-family="Helvetica,sans-Serif" font-size="10.00">&lt; my_pointer_size &gt;</text>
</a>
</g>
<!-- Node3&#45;&gt;Node1 -->
<g id="edge4" class="edge"><title>Node3&#45;&gt;Node1</title>
<path fill="none" stroke="#9a32cd" stroke-dasharray="5,2" d="M572.833,-47.5475C595.562,-55.9716 622.069,-65.8709 646,-75 668.127,-83.441 692.679,-93.0182 712.964,-100.988"/>
<polygon fill="#9a32cd" stroke="#9a32cd" points="573.935,-44.2233 563.341,-44.034 571.504,-50.7879 573.935,-44.2233"/>
<text text-anchor="middle" x="622" y="-105" font-family="Helvetica,sans-Serif" font-size="10.00"> i_value_</text>
<text text-anchor="middle" x="622" y="-92" font-family="Helvetica,sans-Serif" font-size="10.00">increase_</text>
<text text-anchor="middle" x="622" y="-79" font-family="Helvetica,sans-Serif" font-size="10.00">i_block_</text>
</g>
<!-- Node4 -->
<g id="node6" class="node"><title>Node4</title>
<a xlink:href="structstxxl_1_1choose__int__types.html" target="_top" xlink:title="stxxl::choose_int_types\l\&lt; PtrSize \&gt;">
<polygon fill="none" stroke="black" points="192.5,-0 192.5,-34 317.5,-34 317.5,-0 192.5,-0"/>
<text text-anchor="start" x="200.5" y="-21" font-family="Helvetica,sans-Serif" font-size="10.00">stxxl::choose_int_types</text>
<text text-anchor="middle" x="255" y="-8" font-family="Helvetica,sans-Serif" font-size="10.00">&lt; PtrSize &gt;</text>
</a>
</g>
<!-- Node4&#45;&gt;Node3 -->
<g id="edge6" class="edge"><title>Node4&#45;&gt;Node3</title>
<path fill="none" stroke="orange" stroke-dasharray="5,2" d="M327.913,-19.7829C367.636,-21.2991 416.295,-23.1563 454.303,-24.607"/>
<polygon fill="orange" stroke="orange" points="327.882,-16.2793 317.756,-19.3952 327.615,-23.2742 327.882,-16.2793"/>
<text text-anchor="middle" x="386" y="-28" font-family="Helvetica,sans-Serif" font-size="10.00"> &lt; my_pointer_size &gt;</text>
</g>
<!-- Node5&#45;&gt;Node1 -->
<g id="edge8" class="edge"><title>Node5&#45;&gt;Node1</title>
<path fill="none" stroke="#9a32cd" stroke-dasharray="5,2" d="M583.718,-118C608.666,-118 637.455,-118 664.269,-118"/>
<polygon fill="#9a32cd" stroke="#9a32cd" points="583.64,-114.5 573.64,-118 583.64,-121.5 583.64,-114.5"/>
<text text-anchor="middle" x="622" y="-122" font-family="Helvetica,sans-Serif" font-size="10.00"> writer_</text>
</g>
<!-- Node6 -->
<g id="node11" class="node"><title>Node6</title>
<a xlink:href="classstxxl_1_1counting__ptr.html" target="_top" xlink:title="High&#45;performance smart pointer used as a wrapping reference counting pointer. ">
<polygon fill="none" stroke="black" points="0.5,-71 0.5,-105 101.5,-105 101.5,-71 0.5,-71"/>
<text text-anchor="start" x="8.5" y="-92" font-family="Helvetica,sans-Serif" font-size="10.00">stxxl::counting_ptr</text>
<text text-anchor="middle" x="51" y="-79" font-family="Helvetica,sans-Serif" font-size="10.00">&lt; Type &gt;</text>
</a>
</g>
<!-- Node6&#45;&gt;Node5 -->
<g id="edge12" class="edge"><title>Node6&#45;&gt;Node5</title>
<path fill="none" stroke="#9a32cd" stroke-dasharray="5,2" d="M111.572,-83.2844C136.471,-81.5672 165.604,-79.8416 192,-79 247.972,-77.2155 262.262,-73.5897 318,-79 366.532,-83.7108 420.798,-94.7396 460.388,-103.871"/>
<polygon fill="#9a32cd" stroke="#9a32cd" points="111.269,-79.7969 101.539,-83.9913 111.761,-86.7796 111.269,-79.7969"/>
<text text-anchor="middle" x="255" y="-83" font-family="Helvetica,sans-Serif" font-size="10.00"> write_reqs</text>
</g>
<!-- Node6&#45;&gt;Node7 -->
<g id="edge18" class="edge"><title>Node6&#45;&gt;Node7</title>
<path fill="none" stroke="#9a32cd" stroke-dasharray="5,2" d="M111.587,-96.9099C139.099,-100.956 171.452,-105.714 198.46,-109.685"/>
<polygon fill="#9a32cd" stroke="#9a32cd" points="112.092,-93.4465 101.689,-95.4543 111.073,-100.372 112.092,-93.4465"/>
<text text-anchor="middle" x="147" y="-109" font-family="Helvetica,sans-Serif" font-size="10.00"> write_reqs</text>
</g>
<!-- Node7&#45;&gt;Node5 -->
<g id="edge14" class="edge"><title>Node7&#45;&gt;Node5</title>
<path fill="none" stroke="orange" stroke-dasharray="5,2" d="M321.571,-118C364.365,-118 419.374,-118 460.122,-118"/>
<polygon fill="orange" stroke="orange" points="321.528,-114.5 311.528,-118 321.528,-121.5 321.528,-114.5"/>
<text text-anchor="middle" x="386" y="-122" font-family="Helvetica,sans-Serif" font-size="10.00"> &lt; block_type &gt;</text>
</g>
</g>
</svg>
