<?xml version="1.0" encoding="UTF-8" standalone="no"?>
<!DOCTYPE svg PUBLIC "-//W3C//DTD SVG 1.1//EN"
 "http://www.w3.org/Graphics/SVG/1.1/DTD/svg11.dtd">
<!-- Generated by graphviz version 2.26.3 (20100126.1600)
 -->
<!-- Title: stxxl::sim_disk_file Pages: 1 -->
<svg width="543pt" height="416pt"
 viewBox="0.00 0.00 543.00 416.00" xmlns="http://www.w3.org/2000/svg" xmlns:xlink="http://www.w3.org/1999/xlink">
<g id="graph1" class="graph" transform="scale(1 1) rotate(0) translate(4 412)">
<title>stxxl::sim_disk_file</title>
<!-- Node1 -->
<g id="node1" class="node"><title>Node1</title>
<polygon fill="#bfbfbf" stroke="black" points="309,-0.5 309,-21.5 411,-21.5 411,-0.5 309,-0.5"/>
<text text-anchor="middle" x="360" y="-8.5" font-family="Helvetica,sans-Serif" font-size="10.00">stxxl::sim_disk_file</text>
</g>
<!-- Node2 -->
<g id="node2" class="node"><title>Node2</title>
<a xlink:href="classstxxl_1_1ufs__file__base.html" target="_top" xlink:title="Base for UNIX file system implementations. ">
<polygon fill="none" stroke="black" points="308,-60.5 308,-81.5 412,-81.5 412,-60.5 308,-60.5"/>
<text text-anchor="middle" x="360" y="-68.5" font-family="Helvetica,sans-Serif" font-size="10.00">stxxl::ufs_file_base</text>
</a>
</g>
<!-- Node2&#45;&gt;Node1 -->
<g id="edge2" class="edge"><title>Node2&#45;&gt;Node1</title>
<path fill="none" stroke="midnightblue" d="M360,-50.2312C360,-40.5922 360,-29.5444 360,-21.6339"/>
<polygon fill="midnightblue" stroke="midnightblue" points="356.5,-50.2732 360,-60.2732 363.5,-50.2732 356.5,-50.2732"/>
</g>
<!-- Node3 -->
<g id="node4" class="node"><title>Node3</title>
<a xlink:href="classstxxl_1_1file.html" target="_top" xlink:title="Defines interface of file. ">
<polygon fill="none" stroke="black" points="228,-120.5 228,-141.5 284,-141.5 284,-120.5 228,-120.5"/>
<text text-anchor="middle" x="256" y="-128.5" font-family="Helvetica,sans-Serif" font-size="10.00">stxxl::file</text>
</a>
</g>
<!-- Node3&#45;&gt;Node2 -->
<g id="edge4" class="edge"><title>Node3&#45;&gt;Node2</title>
<path fill="none" stroke="midnightblue" d="M283.381,-115.203C301.741,-104.611 325.424,-90.9479 341.568,-81.6339"/>
<polygon fill="midnightblue" stroke="midnightblue" points="281.506,-112.244 274.593,-120.273 285.004,-118.308 281.506,-112.244"/>
</g>
<!-- Node9 -->
<g id="node18" class="node"><title>Node9</title>
<a xlink:href="classstxxl_1_1disk__queued__file.html" target="_top" xlink:title="Implementation of some file methods based on serving_request. ">
<polygon fill="none" stroke="black" points="169.5,-60.5 169.5,-81.5 290.5,-81.5 290.5,-60.5 169.5,-60.5"/>
<text text-anchor="middle" x="230" y="-68.5" font-family="Helvetica,sans-Serif" font-size="10.00">stxxl::disk_queued_file</text>
</a>
</g>
<!-- Node3&#45;&gt;Node9 -->
<g id="edge22" class="edge"><title>Node3&#45;&gt;Node9</title>
<path fill="none" stroke="midnightblue" d="M247.269,-110.851C243.03,-101.069 238.11,-89.7145 234.608,-81.6339"/>
<polygon fill="midnightblue" stroke="midnightblue" points="244.164,-112.489 251.352,-120.273 250.587,-109.706 244.164,-112.489"/>
</g>
<!-- Node4 -->
<g id="node6" class="node"><title>Node4</title>
<a xlink:href="classstxxl_1_1noncopyable.html" target="_top" xlink:title="stxxl::noncopyable">
<polygon fill="none" stroke="black" points="226,-379.5 226,-400.5 328,-400.5 328,-379.5 226,-379.5"/>
<text text-anchor="middle" x="277" y="-387.5" font-family="Helvetica,sans-Serif" font-size="10.00">stxxl::noncopyable</text>
</a>
</g>
<!-- Node4&#45;&gt;Node3 -->
<g id="edge6" class="edge"><title>Node4&#45;&gt;Node3</title>
<path fill="none" stroke="#8b1a1a" d="M262.031,-371.326C241.139,-343.726 204.705,-289.518 195,-236 192.145,-220.257 189.334,-214.963 195,-200 204.342,-175.327 226.982,-153.795 241.898,-141.605"/>
<polygon fill="#8b1a1a" stroke="#8b1a1a" points="259.326,-373.55 268.214,-379.317 264.863,-369.266 259.326,-373.55"/>
</g>
<!-- Node6 -->
<g id="node10" class="node"><title>Node6</title>
<a xlink:href="classstxxl_1_1mutex.html" target="_top" xlink:title="stxxl::mutex">
<polygon fill="none" stroke="black" points="242,-293.5 242,-314.5 312,-314.5 312,-293.5 242,-293.5"/>
<text text-anchor="middle" x="277" y="-301.5" font-family="Helvetica,sans-Serif" font-size="10.00">stxxl::mutex</text>
</a>
</g>
<!-- Node4&#45;&gt;Node6 -->
<g id="edge12" class="edge"><title>Node4&#45;&gt;Node6</title>
<path fill="none" stroke="#8b1a1a" d="M277,-369.256C277,-352.026 277,-328.215 277,-314.632"/>
<polygon fill="#8b1a1a" stroke="#8b1a1a" points="273.5,-369.455 277,-379.455 280.5,-369.455 273.5,-369.455"/>
</g>
<!-- Node11 -->
<g id="node23" class="node"><title>Node11</title>
<a xlink:href="classstxxl_1_1simdisk__geometry.html" target="_top" xlink:title="stxxl::simdisk_geometry">
<polygon fill="none" stroke="black" points="348.5,-293.5 348.5,-314.5 475.5,-314.5 475.5,-293.5 348.5,-293.5"/>
<text text-anchor="middle" x="412" y="-301.5" font-family="Helvetica,sans-Serif" font-size="10.00">stxxl::simdisk_geometry</text>
</a>
</g>
<!-- Node4&#45;&gt;Node11 -->
<g id="edge28" class="edge"><title>Node4&#45;&gt;Node11</title>
<path fill="none" stroke="#8b1a1a" d="M302.139,-373.986C329.344,-356.655 371.958,-329.508 395.311,-314.632"/>
<polygon fill="#8b1a1a" stroke="#8b1a1a" points="300.107,-371.13 293.554,-379.455 303.868,-377.034 300.107,-371.13"/>
</g>
<!-- Node5 -->
<g id="node8" class="node"><title>Node5</title>
<a xlink:href="classstxxl_1_1atomic__counted__object.html" target="_top" xlink:title="Provides reference counting abilities for use with counting_ptr with mutex locking. ">
<polygon fill="none" stroke="black" points="204,-201 204,-235 320,-235 320,-201 204,-201"/>
<text text-anchor="start" x="212" y="-222" font-family="Helvetica,sans-Serif" font-size="10.00">stxxl::atomic_counted</text>
<text text-anchor="middle" x="262" y="-209" font-family="Helvetica,sans-Serif" font-size="10.00">_object</text>
</a>
</g>
<!-- Node5&#45;&gt;Node3 -->
<g id="edge8" class="edge"><title>Node5&#45;&gt;Node3</title>
<path fill="none" stroke="#9a32cd" stroke-dasharray="5,2" d="M260.106,-190.538C258.96,-173.92 257.563,-153.67 256.73,-141.584"/>
<polygon fill="#9a32cd" stroke="#9a32cd" points="256.635,-191.076 260.815,-200.812 263.618,-190.594 256.635,-191.076"/>
<text text-anchor="middle" x="296" y="-168.5" font-family="Helvetica,sans-Serif" font-size="10.00"> m_request_ref</text>
</g>
<!-- Node6&#45;&gt;Node2 -->
<g id="edge18" class="edge"><title>Node6&#45;&gt;Node2</title>
<path fill="none" stroke="#9a32cd" stroke-dasharray="5,2" d="M318.845,-288.654C327.846,-283.442 336.344,-276.67 342,-268 342.323,-267.506 355.384,-122.371 359.051,-81.5622"/>
<polygon fill="#9a32cd" stroke="#9a32cd" points="317.032,-285.651 309.762,-293.359 320.251,-291.867 317.032,-285.651"/>
<text text-anchor="middle" x="374" y="-168.5" font-family="Helvetica,sans-Serif" font-size="10.00"> fd_mutex</text>
</g>
<!-- Node6&#45;&gt;Node5 -->
<g id="edge10" class="edge"><title>Node6&#45;&gt;Node5</title>
<path fill="none" stroke="#9a32cd" stroke-dasharray="5,2" d="M234.979,-288.735C226.227,-283.535 218.117,-276.749 213,-268 205.76,-255.62 215.605,-244.03 228.323,-235.131"/>
<polygon fill="#9a32cd" stroke="#9a32cd" points="233.38,-291.848 243.858,-293.419 236.647,-285.657 233.38,-291.848"/>
<text text-anchor="middle" x="277.5" y="-258.5" font-family="Helvetica,sans-Serif" font-size="10.00"> m_reference_count_mutex</text>
</g>
<!-- Node7 -->
<g id="node13" class="node"><title>Node7</title>
<a xlink:href="structstxxl_1_1choose__int__types.html" target="_top" xlink:title="stxxl::choose_int_types\l\&lt; my_pointer_size \&gt;">
<polygon fill="none" stroke="black" points="0.5,-287 0.5,-321 125.5,-321 125.5,-287 0.5,-287"/>
<text text-anchor="start" x="8.5" y="-308" font-family="Helvetica,sans-Serif" font-size="10.00">stxxl::choose_int_types</text>
<text text-anchor="middle" x="63" y="-295" font-family="Helvetica,sans-Serif" font-size="10.00">&lt; my_pointer_size &gt;</text>
</a>
</g>
<!-- Node7&#45;&gt;Node5 -->
<g id="edge14" class="edge"><title>Node7&#45;&gt;Node5</title>
<path fill="none" stroke="#9a32cd" stroke-dasharray="5,2" d="M82.3996,-278.949C90.622,-269.867 100.877,-260.303 112,-254 139.961,-238.157 174.667,-229.256 203.652,-224.271"/>
<polygon fill="#9a32cd" stroke="#9a32cd" points="79.5911,-276.847 75.7263,-286.712 84.8993,-281.411 79.5911,-276.847"/>
<text text-anchor="middle" x="159.5" y="-258.5" font-family="Helvetica,sans-Serif" font-size="10.00"> m_reference_count</text>
</g>
<!-- Node8 -->
<g id="node15" class="node"><title>Node8</title>
<a xlink:href="structstxxl_1_1choose__int__types.html" target="_top" xlink:title="stxxl::choose_int_types\l\&lt; PtrSize \&gt;">
<polygon fill="none" stroke="black" points="-0.5,-373 -0.5,-407 124.5,-407 124.5,-373 -0.5,-373"/>
<text text-anchor="start" x="7.5" y="-394" font-family="Helvetica,sans-Serif" font-size="10.00">stxxl::choose_int_types</text>
<text text-anchor="middle" x="62" y="-381" font-family="Helvetica,sans-Serif" font-size="10.00">&lt; PtrSize &gt;</text>
</a>
</g>
<!-- Node8&#45;&gt;Node7 -->
<g id="edge16" class="edge"><title>Node8&#45;&gt;Node7</title>
<path fill="none" stroke="orange" stroke-dasharray="5,2" d="M62.3216,-362.342C62.4794,-348.774 62.6644,-332.861 62.8013,-321.084"/>
<polygon fill="orange" stroke="orange" points="58.819,-362.557 62.2024,-372.597 65.8185,-362.638 58.819,-362.557"/>
<text text-anchor="middle" x="112.5" y="-344.5" font-family="Helvetica,sans-Serif" font-size="10.00"> &lt; my_pointer_size &gt;</text>
</g>
<!-- Node9&#45;&gt;Node1 -->
<g id="edge20" class="edge"><title>Node9&#45;&gt;Node1</title>
<path fill="none" stroke="midnightblue" d="M262.047,-56.2092C285.233,-45.5077 316.026,-31.2956 336.85,-21.6846"/>
<polygon fill="midnightblue" stroke="midnightblue" points="260.555,-53.0428 252.942,-60.4113 263.488,-59.3985 260.555,-53.0428"/>
</g>
<!-- Node10 -->
<g id="node21" class="node"><title>Node10</title>
<a xlink:href="classstxxl_1_1IC35L080AVVA07.html" target="_top" xlink:title="stxxl::IC35L080AVVA07">
<polygon fill="none" stroke="black" points="407,-160.5 407,-181.5 535,-181.5 535,-160.5 407,-160.5"/>
<text text-anchor="middle" x="471" y="-168.5" font-family="Helvetica,sans-Serif" font-size="10.00">stxxl::IC35L080AVVA07</text>
</a>
</g>
<!-- Node10&#45;&gt;Node1 -->
<g id="edge24" class="edge"><title>Node10&#45;&gt;Node1</title>
<path fill="none" stroke="midnightblue" d="M465.073,-150.721C457.515,-127.218 442.763,-88.1197 421,-60 408.862,-44.316 390.728,-30.584 377.385,-21.6788"/>
<polygon fill="midnightblue" stroke="midnightblue" points="461.744,-151.805 468.038,-160.327 468.433,-149.74 461.744,-151.805"/>
</g>
<!-- Node11&#45;&gt;Node10 -->
<g id="edge26" class="edge"><title>Node11&#45;&gt;Node10</title>
<path fill="none" stroke="midnightblue" d="M421.015,-283.679C433.724,-255.029 456.453,-203.793 466.27,-181.663"/>
<polygon fill="midnightblue" stroke="midnightblue" points="417.684,-282.556 416.828,-293.116 424.083,-285.394 417.684,-282.556"/>
</g>
</g>
</svg>
