<?xml version="1.0" encoding="UTF-8" standalone="no"?>
<!DOCTYPE svg PUBLIC "-//W3C//DTD SVG 1.1//EN"
 "http://www.w3.org/Graphics/SVG/1.1/DTD/svg11.dtd">
<!-- Generated by graphviz version 2.26.3 (20100126.1600)
 -->
<!-- Title: stxxl::stream::runs_creator&lt; use_push&lt; ValueType &gt;, CompareType, BlockSize, AllocStr &gt; Pages: 1 -->
<svg width="3380pt" height="315pt"
 viewBox="0.00 0.00 3380.00 315.25" xmlns="http://www.w3.org/2000/svg" xmlns:xlink="http://www.w3.org/1999/xlink">
<g id="graph1" class="graph" transform="scale(1 1) rotate(0) translate(4 311.251)">
<title>stxxl::stream::runs_creator&lt; use_push&lt; ValueType &gt;, CompareType, BlockSize, AllocStr &gt;</title>
<!-- Node1 -->
<g id="node1" class="node"><title>Node1</title>
<polygon fill="#bfbfbf" stroke="black" points="3218,-208.251 3218,-268.251 3372,-268.251 3372,-208.251 3218,-208.251"/>
<text text-anchor="start" x="3226" y="-255.251" font-family="Helvetica,sans-Serif" font-size="10.00">stxxl::stream::runs</text>
<text text-anchor="start" x="3226" y="-242.251" font-family="Helvetica,sans-Serif" font-size="10.00">_creator&lt; use_push&lt;</text>
<text text-anchor="start" x="3226" y="-229.251" font-family="Helvetica,sans-Serif" font-size="10.00"> ValueType &gt;, CompareType,</text>
<text text-anchor="middle" x="3295" y="-216.251" font-family="Helvetica,sans-Serif" font-size="10.00"> BlockSize, AllocStr &gt;</text>
</g>
<!-- Node2 -->
<g id="node2" class="node"><title>Node2</title>
<a xlink:href="classstxxl_1_1noncopyable.html" target="_top" xlink:title="stxxl::noncopyable">
<polygon fill="none" stroke="black" points="12,-242.751 12,-263.751 114,-263.751 114,-242.751 12,-242.751"/>
<text text-anchor="middle" x="63" y="-250.751" font-family="Helvetica,sans-Serif" font-size="10.00">stxxl::noncopyable</text>
</a>
</g>
<!-- Node2&#45;&gt;Node1 -->
<g id="edge2" class="edge"><title>Node2&#45;&gt;Node1</title>
<path fill="none" stroke="#8b1a1a" d="M103.285,-266.869C154.274,-282.866 245.105,-307.251 325,-307.251 325,-307.251 325,-307.251 3056,-307.251 3116.03,-307.251 3181.33,-286.909 3228.48,-268.315"/>
<polygon fill="#8b1a1a" stroke="#8b1a1a" points="104.224,-263.495 93.6329,-263.791 102.097,-270.164 104.224,-263.495"/>
</g>
<!-- Node12 -->
<g id="node23" class="node"><title>Node12</title>
<a xlink:href="classstxxl_1_1file.html" target="_top" xlink:title="Defines interface of file. ">
<polygon fill="none" stroke="black" points="778,-180.751 778,-201.751 834,-201.751 834,-180.751 778,-180.751"/>
<text text-anchor="middle" x="806" y="-188.751" font-family="Helvetica,sans-Serif" font-size="10.00">stxxl::file</text>
</a>
</g>
<!-- Node2&#45;&gt;Node12 -->
<g id="edge26" class="edge"><title>Node2&#45;&gt;Node12</title>
<path fill="none" stroke="#8b1a1a" d="M124.42,-250.451C234.069,-245.263 470.704,-233.217 670,-217.251 710.071,-214.041 720.83,-217.292 760,-208.251 766.969,-206.643 774.317,-204.26 781.045,-201.783"/>
<polygon fill="#8b1a1a" stroke="#8b1a1a" points="124.035,-246.965 114.211,-250.931 124.365,-253.957 124.035,-246.965"/>
</g>
<!-- Node14 -->
<g id="node28" class="node"><title>Node14</title>
<a xlink:href="classstxxl_1_1mutex.html" target="_top" xlink:title="stxxl::mutex">
<polygon fill="none" stroke="black" points="290,-203.751 290,-224.751 360,-224.751 360,-203.751 290,-203.751"/>
<text text-anchor="middle" x="325" y="-211.751" font-family="Helvetica,sans-Serif" font-size="10.00">stxxl::mutex</text>
</a>
</g>
<!-- Node2&#45;&gt;Node14 -->
<g id="edge32" class="edge"><title>Node2&#45;&gt;Node14</title>
<path fill="none" stroke="#8b1a1a" d="M124.604,-242.38C131.147,-241.292 137.707,-240.23 144,-239.251 194.623,-231.383 253.409,-223.493 289.912,-218.74"/>
<polygon fill="#8b1a1a" stroke="#8b1a1a" points="123.657,-238.99 114.376,-244.102 124.819,-245.893 123.657,-238.99"/>
</g>
<!-- Node3 -->
<g id="node4" class="node"><title>Node3</title>
<a xlink:href="classstxxl_1_1counting__ptr.html" target="_top" xlink:title="stxxl::counting_ptr\l\&lt; sorted_runs_data_type \&gt;">
<polygon fill="none" stroke="black" points="2984,-245.251 2984,-279.251 3128,-279.251 3128,-245.251 2984,-245.251"/>
<text text-anchor="start" x="2992" y="-266.251" font-family="Helvetica,sans-Serif" font-size="10.00">stxxl::counting_ptr</text>
<text text-anchor="middle" x="3056" y="-253.251" font-family="Helvetica,sans-Serif" font-size="10.00">&lt; sorted_runs_data_type &gt;</text>
</a>
</g>
<!-- Node3&#45;&gt;Node1 -->
<g id="edge4" class="edge"><title>Node3&#45;&gt;Node1</title>
<path fill="none" stroke="#9a32cd" stroke-dasharray="5,2" d="M3138.15,-254.002C3163.93,-251.414 3192.28,-248.566 3217.71,-246.013"/>
<polygon fill="#9a32cd" stroke="#9a32cd" points="3137.63,-250.536 3128.03,-255.018 3138.33,-257.501 3137.63,-250.536"/>
<text text-anchor="middle" x="3173" y="-256.251" font-family="Helvetica,sans-Serif" font-size="10.00"> m_result</text>
</g>
<!-- Node4 -->
<g id="node6" class="node"><title>Node4</title>
<a xlink:href="classstxxl_1_1counting__ptr.html" target="_top" xlink:title="High&#45;performance smart pointer used as a wrapping reference counting pointer. ">
<polygon fill="none" stroke="black" points="2719.5,-224.251 2719.5,-258.251 2820.5,-258.251 2820.5,-224.251 2719.5,-224.251"/>
<text text-anchor="start" x="2727.5" y="-245.251" font-family="Helvetica,sans-Serif" font-size="10.00">stxxl::counting_ptr</text>
<text text-anchor="middle" x="2770" y="-232.251" font-family="Helvetica,sans-Serif" font-size="10.00">&lt; Type &gt;</text>
</a>
</g>
<!-- Node4&#45;&gt;Node1 -->
<g id="edge8" class="edge"><title>Node4&#45;&gt;Node1</title>
<path fill="none" stroke="#9a32cd" stroke-dasharray="5,2" d="M2830.49,-234.801C2873.3,-230.569 2932.1,-225.43 2984,-223.251 3047.94,-220.567 3064.06,-220.386 3128,-223.251 3157.37,-224.568 3189.56,-227.18 3217.77,-229.861"/>
<polygon fill="#9a32cd" stroke="#9a32cd" points="2830.12,-231.321 2820.51,-235.799 2830.81,-238.286 2830.12,-231.321"/>
<text text-anchor="middle" x="3056" y="-227.251" font-family="Helvetica,sans-Serif" font-size="10.00"> m_write_reqs</text>
</g>
<!-- Node4&#45;&gt;Node3 -->
<g id="edge6" class="edge"><title>Node4&#45;&gt;Node3</title>
<path fill="none" stroke="orange" stroke-dasharray="5,2" d="M2830.96,-245.727C2875.73,-249.015 2936.73,-253.494 2983.93,-256.959"/>
<polygon fill="orange" stroke="orange" points="2831.03,-242.223 2820.8,-244.982 2830.52,-249.205 2831.03,-242.223"/>
<text text-anchor="start" x="2870" y="-272.251" font-family="Helvetica,sans-Serif" font-size="10.00"> &lt; sorted_runs_data</text>
<text text-anchor="middle" x="2918" y="-259.251" font-family="Helvetica,sans-Serif" font-size="10.00">_type &gt;</text>
</g>
<!-- Node5 -->
<g id="node9" class="node"><title>Node5</title>
<a xlink:href="classstxxl_1_1typed__block.html" target="_top" xlink:title="Block containing elements of fixed length. ">
<polygon fill="none" stroke="black" points="2992,-130.751 2992,-177.751 3120,-177.751 3120,-130.751 2992,-130.751"/>
<text text-anchor="start" x="3000" y="-164.751" font-family="Helvetica,sans-Serif" font-size="10.00">stxxl::typed_block</text>
<text text-anchor="start" x="3000" y="-151.751" font-family="Helvetica,sans-Serif" font-size="10.00">&lt; RawSize, Type, NRef,</text>
<text text-anchor="middle" x="3056" y="-138.751" font-family="Helvetica,sans-Serif" font-size="10.00"> MetaInfoType &gt;</text>
</a>
</g>
<!-- Node5&#45;&gt;Node1 -->
<g id="edge10" class="edge"><title>Node5&#45;&gt;Node1</title>
<path fill="none" stroke="#9a32cd" stroke-dasharray="5,2" d="M3130.3,-158.07C3153.2,-160.955 3178.13,-165.884 3200,-174.251 3220.99,-182.282 3241.96,-195.692 3258.84,-208.169"/>
<polygon fill="#9a32cd" stroke="#9a32cd" points="3130.62,-154.584 3120.28,-156.92 3129.82,-161.538 3130.62,-154.584"/>
<text text-anchor="middle" x="3173" y="-191.251" font-family="Helvetica,sans-Serif" font-size="10.00"> m_blocks1</text>
<text text-anchor="middle" x="3173" y="-178.251" font-family="Helvetica,sans-Serif" font-size="10.00">m_blocks2</text>
</g>
<!-- Node6 -->
<g id="node11" class="node"><title>Node6</title>
<a xlink:href="classstxxl_1_1mng__local_1_1expand__struct.html" target="_top" xlink:title="stxxl::mng_local::expand\l_struct\&lt; mng_local::block\l_w_info\&lt; Type, RawSize, NRef,\l MetaInfoType \&gt;, RawSize \&gt;">
<polygon fill="none" stroke="black" points="2688,-124.251 2688,-184.251 2852,-184.251 2852,-124.251 2688,-124.251"/>
<text text-anchor="start" x="2696" y="-171.251" font-family="Helvetica,sans-Serif" font-size="10.00">stxxl::mng_local::expand</text>
<text text-anchor="start" x="2696" y="-158.251" font-family="Helvetica,sans-Serif" font-size="10.00">_struct&lt; mng_local::block</text>
<text text-anchor="start" x="2696" y="-145.251" font-family="Helvetica,sans-Serif" font-size="10.00">_w_info&lt; Type, RawSize, NRef,</text>
<text text-anchor="middle" x="2770" y="-132.251" font-family="Helvetica,sans-Serif" font-size="10.00"> MetaInfoType &gt;, RawSize &gt;</text>
</a>
</g>
<!-- Node6&#45;&gt;Node5 -->
<g id="edge12" class="edge"><title>Node6&#45;&gt;Node5</title>
<path fill="none" stroke="midnightblue" d="M2862.37,-154.251C2904.67,-154.251 2953.75,-154.251 2991.92,-154.251"/>
<polygon fill="midnightblue" stroke="midnightblue" points="2862.34,-150.752 2852.34,-154.251 2862.34,-157.752 2862.34,-150.752"/>
</g>
<!-- Node7 -->
<g id="node13" class="node"><title>Node7</title>
<a xlink:href="classstxxl_1_1mng__local_1_1add__filler.html" target="_top" xlink:title="stxxl::mng_local::add\l_filler\&lt; mng_local::block\l_w_info\&lt; Type, RawSize,\l NRef, MetaInfoType \&gt;, RawSize\l&#45;sizeof(mng_local::block_w_info\l\&lt; Type, RawSize, NRef, MetaInfoType \&gt;)\&gt;">
<polygon fill="none" stroke="black" points="2316.5,-69.2514 2316.5,-155.251 2531.5,-155.251 2531.5,-69.2514 2316.5,-69.2514"/>
<text text-anchor="start" x="2324.5" y="-142.251" font-family="Helvetica,sans-Serif" font-size="10.00">stxxl::mng_local::add</text>
<text text-anchor="start" x="2324.5" y="-129.251" font-family="Helvetica,sans-Serif" font-size="10.00">_filler&lt; mng_local::block</text>
<text text-anchor="start" x="2324.5" y="-116.251" font-family="Helvetica,sans-Serif" font-size="10.00">_w_info&lt; Type, RawSize,</text>
<text text-anchor="start" x="2324.5" y="-103.251" font-family="Helvetica,sans-Serif" font-size="10.00"> NRef, MetaInfoType &gt;, RawSize</text>
<text text-anchor="start" x="2324.5" y="-90.2514" font-family="Helvetica,sans-Serif" font-size="10.00">&#45;sizeof(mng_local::block_w_info</text>
<text text-anchor="middle" x="2424" y="-77.2514" font-family="Helvetica,sans-Serif" font-size="10.00">&lt; Type, RawSize, NRef, MetaInfoType &gt;)&gt;</text>
</a>
</g>
<!-- Node7&#45;&gt;Node6 -->
<g id="edge14" class="edge"><title>Node7&#45;&gt;Node6</title>
<path fill="none" stroke="midnightblue" d="M2541.73,-126.542C2589.76,-132.372 2644.14,-138.974 2687.78,-144.271"/>
<polygon fill="midnightblue" stroke="midnightblue" points="2541.93,-123.041 2531.58,-125.31 2541.09,-129.99 2541.93,-123.041"/>
</g>
<!-- Node8 -->
<g id="node15" class="node"><title>Node8</title>
<a xlink:href="classstxxl_1_1mng__local_1_1block__w__info.html" target="_top" xlink:title="stxxl::mng_local::block\l_w_info\&lt; Type, RawSize,\l NRef, MetaInfoType \&gt;">
<polygon fill="none" stroke="black" points="2136.5,-13.7514 2136.5,-60.7514 2271.5,-60.7514 2271.5,-13.7514 2136.5,-13.7514"/>
<text text-anchor="start" x="2144.5" y="-47.7514" font-family="Helvetica,sans-Serif" font-size="10.00">stxxl::mng_local::block</text>
<text text-anchor="start" x="2144.5" y="-34.7514" font-family="Helvetica,sans-Serif" font-size="10.00">_w_info&lt; Type, RawSize,</text>
<text text-anchor="middle" x="2204" y="-21.7514" font-family="Helvetica,sans-Serif" font-size="10.00"> NRef, MetaInfoType &gt;</text>
</a>
</g>
<!-- Node8&#45;&gt;Node7 -->
<g id="edge16" class="edge"><title>Node8&#45;&gt;Node7</title>
<path fill="none" stroke="midnightblue" d="M2281.27,-63.5951C2292.56,-67.4418 2304.35,-71.4608 2316.1,-75.4689"/>
<polygon fill="midnightblue" stroke="midnightblue" points="2282.1,-60.1776 2271.5,-60.2636 2279.84,-66.8032 2282.1,-60.1776"/>
</g>
<!-- Node9 -->
<g id="node17" class="node"><title>Node9</title>
<a xlink:href="classstxxl_1_1mng__local_1_1block__w__bids.html" target="_top" xlink:title="stxxl::mng_local::block\l_w_bids\&lt; Type,((RawSize\l&#45;sizeof(BID\&lt; RawSize \&gt;)*NBids\l&#45;sizeof(MetaInfoType))/sizeof\l(Type)), RawSize, NBids \&gt;">
<polygon fill="none" stroke="black" points="1608,-0.751405 1608,-73.7514 1772,-73.7514 1772,-0.751405 1608,-0.751405"/>
<text text-anchor="start" x="1616" y="-60.7514" font-family="Helvetica,sans-Serif" font-size="10.00">stxxl::mng_local::block</text>
<text text-anchor="start" x="1616" y="-47.7514" font-family="Helvetica,sans-Serif" font-size="10.00">_w_bids&lt; Type,((RawSize</text>
<text text-anchor="start" x="1616" y="-34.7514" font-family="Helvetica,sans-Serif" font-size="10.00">&#45;sizeof(BID&lt; RawSize &gt;)*NBids</text>
<text text-anchor="start" x="1616" y="-21.7514" font-family="Helvetica,sans-Serif" font-size="10.00">&#45;sizeof(MetaInfoType))/sizeof</text>
<text text-anchor="middle" x="1690" y="-8.7514" font-family="Helvetica,sans-Serif" font-size="10.00">(Type)), RawSize, NBids &gt;</text>
</a>
</g>
<!-- Node9&#45;&gt;Node8 -->
<g id="edge18" class="edge"><title>Node9&#45;&gt;Node8</title>
<path fill="none" stroke="midnightblue" d="M1782.2,-12.6175C1798.67,-9.13741 1815.76,-6.11387 1832,-4.2514 1938.12,7.9177 2061.72,-9.24353 2136.35,-23.0237"/>
<polygon fill="midnightblue" stroke="midnightblue" points="1781.06,-9.28383 1772.04,-14.8371 1782.56,-16.1226 1781.06,-9.28383"/>
</g>
<!-- Node19 -->
<g id="node42" class="node"><title>Node19</title>
<a xlink:href="classstxxl_1_1mng__local_1_1block__w__info.html" target="_top" xlink:title="Contains per block information for stxxl::typed_block , not intended for direct use. ">
<polygon fill="none" stroke="black" points="1837.5,-13.7514 1837.5,-60.7514 1972.5,-60.7514 1972.5,-13.7514 1837.5,-13.7514"/>
<text text-anchor="start" x="1845.5" y="-47.7514" font-family="Helvetica,sans-Serif" font-size="10.00">stxxl::mng_local::block</text>
<text text-anchor="start" x="1845.5" y="-34.7514" font-family="Helvetica,sans-Serif" font-size="10.00">_w_info&lt; Type, RawSize,</text>
<text text-anchor="middle" x="1905" y="-21.7514" font-family="Helvetica,sans-Serif" font-size="10.00"> NBids, MetaInfoType &gt;</text>
</a>
</g>
<!-- Node9&#45;&gt;Node19 -->
<g id="edge50" class="edge"><title>Node9&#45;&gt;Node19</title>
<path fill="none" stroke="midnightblue" d="M1782.35,-37.2514C1800.75,-37.2514 1819.76,-37.2514 1837.16,-37.2514"/>
<polygon fill="midnightblue" stroke="midnightblue" points="1782.2,-33.7515 1772.2,-37.2514 1782.2,-40.7515 1782.2,-33.7515"/>
</g>
<!-- Node10 -->
<g id="node19" class="node"><title>Node10</title>
<a xlink:href="classstxxl_1_1mng__local_1_1element__block.html" target="_top" xlink:title="Contains data elements for stxxl::typed_block , not intended for direct use. ">
<polygon fill="none" stroke="black" points="1108,-30.2514 1108,-64.2514 1240,-64.2514 1240,-30.2514 1108,-30.2514"/>
<text text-anchor="start" x="1116" y="-51.2514" font-family="Helvetica,sans-Serif" font-size="10.00">stxxl::mng_local::element</text>
<text text-anchor="middle" x="1174" y="-38.2514" font-family="Helvetica,sans-Serif" font-size="10.00">_block&lt; Type, Size &gt;</text>
</a>
</g>
<!-- Node10&#45;&gt;Node9 -->
<g id="edge20" class="edge"><title>Node10&#45;&gt;Node9</title>
<path fill="none" stroke="midnightblue" d="M1250.32,-45.7724C1345.94,-43.9192 1509.18,-40.7556 1607.59,-38.8486"/>
<polygon fill="midnightblue" stroke="midnightblue" points="1250.07,-42.2764 1240.14,-45.9697 1250.2,-49.2751 1250.07,-42.2764"/>
</g>
<!-- Node18 -->
<g id="node38" class="node"><title>Node18</title>
<a xlink:href="classstxxl_1_1mng__local_1_1block__w__bids.html" target="_top" xlink:title="Contains BID references for stxxl::typed_block , not intended for direct use. ">
<polygon fill="none" stroke="black" points="1292,-59.7514 1292,-106.751 1454,-106.751 1454,-59.7514 1292,-59.7514"/>
<text text-anchor="start" x="1300" y="-93.7514" font-family="Helvetica,sans-Serif" font-size="10.00">stxxl::mng_local::block</text>
<text text-anchor="start" x="1300" y="-80.7514" font-family="Helvetica,sans-Serif" font-size="10.00">_w_bids&lt; Type, Size, RawSize,</text>
<text text-anchor="middle" x="1373" y="-67.7514" font-family="Helvetica,sans-Serif" font-size="10.00"> NBids &gt;</text>
</a>
</g>
<!-- Node10&#45;&gt;Node18 -->
<g id="edge44" class="edge"><title>Node10&#45;&gt;Node18</title>
<path fill="none" stroke="midnightblue" d="M1250.48,-61.0863C1264.01,-63.5341 1278.14,-66.0906 1291.79,-68.561"/>
<polygon fill="midnightblue" stroke="midnightblue" points="1250.73,-57.575 1240.26,-59.2389 1249.48,-64.4632 1250.73,-57.575"/>
</g>
<!-- Node11 -->
<g id="node21" class="node"><title>Node11</title>
<a xlink:href="structstxxl_1_1BID.html" target="_top" xlink:title="stxxl::BID\&lt; raw_size \&gt;">
<polygon fill="none" stroke="black" points="1114.5,-133.751 1114.5,-154.751 1233.5,-154.751 1233.5,-133.751 1114.5,-133.751"/>
<text text-anchor="middle" x="1174" y="-141.751" font-family="Helvetica,sans-Serif" font-size="10.00">stxxl::BID&lt; raw_size &gt;</text>
</a>
</g>
<!-- Node11&#45;&gt;Node9 -->
<g id="edge22" class="edge"><title>Node11&#45;&gt;Node9</title>
<path fill="none" stroke="#9a32cd" stroke-dasharray="5,2" d="M1243.76,-147.739C1345.58,-151.849 1529.38,-155.27 1590,-130.251 1618.49,-118.494 1643.83,-94.6953 1661.88,-74.1169"/>
<polygon fill="#9a32cd" stroke="#9a32cd" points="1243.7,-144.234 1233.57,-147.315 1243.41,-151.228 1243.7,-144.234"/>
<text text-anchor="middle" x="1373" y="-155.251" font-family="Helvetica,sans-Serif" font-size="10.00"> ref</text>
</g>
<!-- Node11&#45;&gt;Node18 -->
<g id="edge46" class="edge"><title>Node11&#45;&gt;Node18</title>
<path fill="none" stroke="#9a32cd" stroke-dasharray="5,2" d="M1216.14,-130.492C1229.5,-126.186 1244.35,-121.461 1258,-117.251 1269.14,-113.815 1280.91,-110.254 1292.5,-106.789"/>
<polygon fill="#9a32cd" stroke="#9a32cd" points="1214.69,-127.282 1206.25,-133.688 1216.85,-133.942 1214.69,-127.282"/>
<text text-anchor="middle" x="1266" y="-121.251" font-family="Helvetica,sans-Serif" font-size="10.00"> ref</text>
</g>
<!-- Node12&#45;&gt;Node11 -->
<g id="edge24" class="edge"><title>Node12&#45;&gt;Node11</title>
<path fill="none" stroke="#9a32cd" stroke-dasharray="5,2" d="M844.62,-188.336C899.398,-183.936 1002.71,-174.664 1090,-161.251 1101.62,-159.466 1114.06,-157.164 1125.72,-154.834"/>
<polygon fill="#9a32cd" stroke="#9a32cd" points="844.023,-184.872 834.331,-189.15 844.576,-191.85 844.023,-184.872"/>
<text text-anchor="middle" x="959" y="-187.251" font-family="Helvetica,sans-Serif" font-size="10.00"> storage</text>
</g>
<!-- Node17 -->
<g id="node35" class="node"><title>Node17</title>
<a xlink:href="structstxxl_1_1BID.html" target="_top" xlink:title="Block identifier class. ">
<polygon fill="none" stroke="black" points="910,-133.751 910,-154.751 1008,-154.751 1008,-133.751 910,-133.751"/>
<text text-anchor="middle" x="959" y="-141.751" font-family="Helvetica,sans-Serif" font-size="10.00">stxxl::BID&lt; Size &gt;</text>
</a>
</g>
<!-- Node12&#45;&gt;Node17 -->
<g id="edge40" class="edge"><title>Node12&#45;&gt;Node17</title>
<path fill="none" stroke="#9a32cd" stroke-dasharray="5,2" d="M829.896,-175.123C836.791,-171.06 844.486,-167.061 852,-164.251 870.321,-157.402 891.318,-152.822 909.831,-149.795"/>
<polygon fill="#9a32cd" stroke="#9a32cd" points="827.732,-172.347 821.084,-180.596 831.426,-178.293 827.732,-172.347"/>
<text text-anchor="middle" x="872" y="-168.251" font-family="Helvetica,sans-Serif" font-size="10.00"> storage</text>
</g>
<!-- Node13 -->
<g id="node26" class="node"><title>Node13</title>
<a xlink:href="classstxxl_1_1atomic__counted__object.html" target="_top" xlink:title="Provides reference counting abilities for use with counting_ptr with mutex locking. ">
<polygon fill="none" stroke="black" points="554,-174.251 554,-208.251 670,-208.251 670,-174.251 554,-174.251"/>
<text text-anchor="start" x="562" y="-195.251" font-family="Helvetica,sans-Serif" font-size="10.00">stxxl::atomic_counted</text>
<text text-anchor="middle" x="612" y="-182.251" font-family="Helvetica,sans-Serif" font-size="10.00">_object</text>
</a>
</g>
<!-- Node13&#45;&gt;Node12 -->
<g id="edge28" class="edge"><title>Node13&#45;&gt;Node12</title>
<path fill="none" stroke="#9a32cd" stroke-dasharray="5,2" d="M680.42,-191.251C713.911,-191.251 752.394,-191.251 777.838,-191.251"/>
<polygon fill="#9a32cd" stroke="#9a32cd" points="680.206,-187.752 670.206,-191.251 680.206,-194.752 680.206,-187.752"/>
<text text-anchor="middle" x="724" y="-195.251" font-family="Helvetica,sans-Serif" font-size="10.00"> m_request_ref</text>
</g>
<!-- Node14&#45;&gt;Node13 -->
<g id="edge30" class="edge"><title>Node14&#45;&gt;Node13</title>
<path fill="none" stroke="#9a32cd" stroke-dasharray="5,2" d="M370.306,-210.621C419.938,-206.643 499.686,-200.252 553.889,-195.908"/>
<polygon fill="#9a32cd" stroke="#9a32cd" points="369.88,-207.143 360.192,-211.431 370.439,-214.121 369.88,-207.143"/>
<text text-anchor="middle" x="471" y="-212.251" font-family="Helvetica,sans-Serif" font-size="10.00"> m_reference_count_mutex</text>
</g>
<!-- Node15 -->
<g id="node31" class="node"><title>Node15</title>
<a xlink:href="structstxxl_1_1choose__int__types.html" target="_top" xlink:title="stxxl::choose_int_types\l\&lt; my_pointer_size \&gt;">
<polygon fill="none" stroke="black" points="262.5,-151.251 262.5,-185.251 387.5,-185.251 387.5,-151.251 262.5,-151.251"/>
<text text-anchor="start" x="270.5" y="-172.251" font-family="Helvetica,sans-Serif" font-size="10.00">stxxl::choose_int_types</text>
<text text-anchor="middle" x="325" y="-159.251" font-family="Helvetica,sans-Serif" font-size="10.00">&lt; my_pointer_size &gt;</text>
</a>
</g>
<!-- Node15&#45;&gt;Node13 -->
<g id="edge34" class="edge"><title>Node15&#45;&gt;Node13</title>
<path fill="none" stroke="#9a32cd" stroke-dasharray="5,2" d="M397.97,-171.5C438.65,-173.624 490.198,-176.833 536,-181.251 541.829,-181.814 547.899,-182.478 553.955,-183.193"/>
<polygon fill="#9a32cd" stroke="#9a32cd" points="398.038,-167.999 387.872,-170.983 397.68,-174.99 398.038,-167.999"/>
<text text-anchor="middle" x="471" y="-185.251" font-family="Helvetica,sans-Serif" font-size="10.00"> m_reference_count</text>
</g>
<!-- Node16 -->
<g id="node33" class="node"><title>Node16</title>
<a xlink:href="structstxxl_1_1choose__int__types.html" target="_top" xlink:title="stxxl::choose_int_types\l\&lt; PtrSize \&gt;">
<polygon fill="none" stroke="black" points="0.5,-151.251 0.5,-185.251 125.5,-185.251 125.5,-151.251 0.5,-151.251"/>
<text text-anchor="start" x="8.5" y="-172.251" font-family="Helvetica,sans-Serif" font-size="10.00">stxxl::choose_int_types</text>
<text text-anchor="middle" x="63" y="-159.251" font-family="Helvetica,sans-Serif" font-size="10.00">&lt; PtrSize &gt;</text>
</a>
</g>
<!-- Node16&#45;&gt;Node15 -->
<g id="edge36" class="edge"><title>Node16&#45;&gt;Node15</title>
<path fill="none" stroke="orange" stroke-dasharray="5,2" d="M135.913,-168.251C175.636,-168.251 224.295,-168.251 262.303,-168.251"/>
<polygon fill="orange" stroke="orange" points="135.756,-164.752 125.756,-168.251 135.755,-171.752 135.756,-164.752"/>
<text text-anchor="middle" x="194" y="-172.251" font-family="Helvetica,sans-Serif" font-size="10.00"> &lt; my_pointer_size &gt;</text>
</g>
<!-- Node17&#45;&gt;Node11 -->
<g id="edge38" class="edge"><title>Node17&#45;&gt;Node11</title>
<path fill="none" stroke="orange" stroke-dasharray="5,2" d="M1018.36,-144.251C1048.28,-144.251 1084.48,-144.251 1114.43,-144.251"/>
<polygon fill="orange" stroke="orange" points="1018.06,-140.752 1008.06,-144.251 1018.06,-147.752 1018.06,-140.752"/>
<text text-anchor="middle" x="1058" y="-148.251" font-family="Helvetica,sans-Serif" font-size="10.00"> &lt; raw_size &gt;</text>
</g>
<!-- Node18&#45;&gt;Node9 -->
<g id="edge42" class="edge"><title>Node18&#45;&gt;Node9</title>
<path fill="none" stroke="orange" stroke-dasharray="5,2" d="M1464.32,-66.4674C1466.9,-66.0499 1469.47,-65.6436 1472,-65.2514 1516.78,-58.3099 1566.92,-51.7834 1607.82,-46.7805"/>
<polygon fill="orange" stroke="orange" points="1463.55,-63.0468 1454.25,-68.1271 1464.69,-69.9535 1463.55,-63.0468"/>
<text text-anchor="start" x="1472" y="-121.251" font-family="Helvetica,sans-Serif" font-size="10.00"> &lt; Type,((RawSize&#45;sizeof</text>
<text text-anchor="start" x="1472" y="-108.251" font-family="Helvetica,sans-Serif" font-size="10.00">(BID&lt; RawSize &gt;)*NBids</text>
<text text-anchor="start" x="1472" y="-95.2514" font-family="Helvetica,sans-Serif" font-size="10.00">&#45;sizeof(MetaInfoType))</text>
<text text-anchor="start" x="1472" y="-82.2514" font-family="Helvetica,sans-Serif" font-size="10.00">/sizeof(Type)), RawSize,</text>
<text text-anchor="middle" x="1531" y="-69.2514" font-family="Helvetica,sans-Serif" font-size="10.00"> NBids &gt;</text>
</g>
<!-- Node19&#45;&gt;Node8 -->
<g id="edge48" class="edge"><title>Node19&#45;&gt;Node8</title>
<path fill="none" stroke="orange" stroke-dasharray="5,2" d="M1983.11,-37.2514C2030.69,-37.2514 2090.89,-37.2514 2136.42,-37.2514"/>
<polygon fill="orange" stroke="orange" points="1982.85,-33.7515 1972.85,-37.2514 1982.85,-40.7515 1982.85,-33.7515"/>
<text text-anchor="start" x="1996.5" y="-54.2514" font-family="Helvetica,sans-Serif" font-size="10.00"> &lt; Type, RawSize, NRef,</text>
<text text-anchor="middle" x="2054" y="-41.2514" font-family="Helvetica,sans-Serif" font-size="10.00"> MetaInfoType &gt;</text>
</g>
<!-- Node20 -->
<g id="node45" class="node"><title>Node20</title>
<a xlink:href="classstxxl_1_1mng__local_1_1filler__struct.html" target="_top" xlink:title="stxxl::mng_local::filler\l_struct\&lt; FillSize \&gt;">
<polygon fill="none" stroke="black" points="1633,-179.251 1633,-213.251 1747,-213.251 1747,-179.251 1633,-179.251"/>
<text text-anchor="start" x="1641" y="-200.251" font-family="Helvetica,sans-Serif" font-size="10.00">stxxl::mng_local::filler</text>
<text text-anchor="middle" x="1690" y="-187.251" font-family="Helvetica,sans-Serif" font-size="10.00">_struct&lt; FillSize &gt;</text>
</a>
</g>
<!-- Node20&#45;&gt;Node7 -->
<g id="edge52" class="edge"><title>Node20&#45;&gt;Node7</title>
<path fill="none" stroke="#9a32cd" stroke-dasharray="5,2" d="M1757.11,-179.268C1818.79,-164.31 1912.99,-143.111 1996,-131.251 2055.12,-122.806 2070.36,-124.388 2130,-121.251 2191.7,-118.006 2260.76,-115.818 2316.43,-114.413"/>
<polygon fill="#9a32cd" stroke="#9a32cd" points="1756,-175.936 1747.11,-181.706 1757.66,-182.736 1756,-175.936"/>
<text text-anchor="middle" x="2054" y="-135.251" font-family="Helvetica,sans-Serif" font-size="10.00"> filler</text>
</g>
<!-- Node22 -->
<g id="node49" class="node"><title>Node22</title>
<a xlink:href="classstxxl_1_1mng__local_1_1add__filler.html" target="_top" xlink:title="Contains per block filler for stxxl::typed_block , not intended for direct use. ">
<polygon fill="none" stroke="black" points="1832,-179.251 1832,-213.251 1978,-213.251 1978,-179.251 1832,-179.251"/>
<text text-anchor="start" x="1840" y="-200.251" font-family="Helvetica,sans-Serif" font-size="10.00">stxxl::mng_local::add</text>
<text text-anchor="middle" x="1905" y="-187.251" font-family="Helvetica,sans-Serif" font-size="10.00">_filler&lt; BaseType, FillSize &gt;</text>
</a>
</g>
<!-- Node20&#45;&gt;Node22 -->
<g id="edge58" class="edge"><title>Node20&#45;&gt;Node22</title>
<path fill="none" stroke="#9a32cd" stroke-dasharray="5,2" d="M1757.34,-196.251C1781.01,-196.251 1807.71,-196.251 1831.84,-196.251"/>
<polygon fill="#9a32cd" stroke="#9a32cd" points="1757.05,-192.752 1747.05,-196.251 1757.05,-199.752 1757.05,-192.752"/>
<text text-anchor="middle" x="1802" y="-200.251" font-family="Helvetica,sans-Serif" font-size="10.00"> filler</text>
</g>
<!-- Node24 -->
<g id="node54" class="node"><title>Node24</title>
<a xlink:href="classstxxl_1_1mng__local_1_1add__filler.html" target="_top" xlink:title="stxxl::mng_local::add\l_filler\&lt; Type, RawSize\l&#45;sizeof(Type)\&gt;">
<polygon fill="none" stroke="black" points="2143,-231.751 2143,-278.751 2265,-278.751 2265,-231.751 2143,-231.751"/>
<text text-anchor="start" x="2151" y="-265.751" font-family="Helvetica,sans-Serif" font-size="10.00">stxxl::mng_local::add</text>
<text text-anchor="start" x="2151" y="-252.751" font-family="Helvetica,sans-Serif" font-size="10.00">_filler&lt; Type, RawSize</text>
<text text-anchor="middle" x="2204" y="-239.751" font-family="Helvetica,sans-Serif" font-size="10.00">&#45;sizeof(Type)&gt;</text>
</a>
</g>
<!-- Node20&#45;&gt;Node24 -->
<g id="edge64" class="edge"><title>Node20&#45;&gt;Node24</title>
<path fill="none" stroke="#9a32cd" stroke-dasharray="5,2" d="M1757.07,-209.811C1780.68,-214.244 1807.45,-218.888 1832,-222.251 1941.04,-237.19 2069.04,-246.827 2142.91,-251.625"/>
<polygon fill="#9a32cd" stroke="#9a32cd" points="1757.64,-206.356 1747.16,-207.928 1756.33,-213.233 1757.64,-206.356"/>
<text text-anchor="middle" x="1905" y="-242.251" font-family="Helvetica,sans-Serif" font-size="10.00"> filler</text>
</g>
<!-- Node21 -->
<g id="node47" class="node"><title>Node21</title>
<a xlink:href="classstxxl_1_1mng__local_1_1filler__struct.html" target="_top" xlink:title="stxxl::mng_local::filler\l_struct\&lt; Bytes \&gt;">
<polygon fill="none" stroke="black" points="1316,-179.251 1316,-213.251 1430,-213.251 1430,-179.251 1316,-179.251"/>
<text text-anchor="start" x="1324" y="-200.251" font-family="Helvetica,sans-Serif" font-size="10.00">stxxl::mng_local::filler</text>
<text text-anchor="middle" x="1373" y="-187.251" font-family="Helvetica,sans-Serif" font-size="10.00">_struct&lt; Bytes &gt;</text>
</a>
</g>
<!-- Node21&#45;&gt;Node20 -->
<g id="edge54" class="edge"><title>Node21&#45;&gt;Node20</title>
<path fill="none" stroke="orange" stroke-dasharray="5,2" d="M1440.08,-196.251C1497.31,-196.251 1578.71,-196.251 1632.88,-196.251"/>
<polygon fill="orange" stroke="orange" points="1440.04,-192.752 1430.04,-196.251 1440.04,-199.752 1440.04,-192.752"/>
<text text-anchor="middle" x="1531" y="-200.251" font-family="Helvetica,sans-Serif" font-size="10.00"> &lt; FillSize &gt;</text>
</g>
<!-- Node22&#45;&gt;Node7 -->
<g id="edge56" class="edge"><title>Node22&#45;&gt;Node7</title>
<path fill="none" stroke="orange" stroke-dasharray="5,2" d="M1979.52,-176.685C2023.13,-165.826 2079.39,-152.823 2130,-144.251 2191.38,-133.856 2260.57,-126.129 2316.4,-120.875"/>
<polygon fill="orange" stroke="orange" points="1978.42,-173.353 1969.57,-179.181 1980.12,-180.143 1978.42,-173.353"/>
<text text-anchor="start" x="2130" y="-213.251" font-family="Helvetica,sans-Serif" font-size="10.00"> &lt; mng_local::block</text>
<text text-anchor="start" x="2130" y="-200.251" font-family="Helvetica,sans-Serif" font-size="10.00">_w_info&lt; Type, RawSize,</text>
<text text-anchor="start" x="2130" y="-187.251" font-family="Helvetica,sans-Serif" font-size="10.00"> NRef, MetaInfoType &gt;,</text>
<text text-anchor="start" x="2130" y="-174.251" font-family="Helvetica,sans-Serif" font-size="10.00"> RawSize&#45;sizeof(mng_local</text>
<text text-anchor="start" x="2130" y="-161.251" font-family="Helvetica,sans-Serif" font-size="10.00">::block_w_info&lt; Type, RawSize,</text>
<text text-anchor="middle" x="2204" y="-148.251" font-family="Helvetica,sans-Serif" font-size="10.00"> NRef, MetaInfoType &gt;)&gt;</text>
</g>
<!-- Node22&#45;&gt;Node24 -->
<g id="edge66" class="edge"><title>Node22&#45;&gt;Node24</title>
<path fill="none" stroke="orange" stroke-dasharray="5,2" d="M1988.48,-195.248C2026.68,-196.576 2072.2,-200.696 2112,-211.251 2121.58,-213.793 2140.39,-222.532 2158.52,-231.56"/>
<polygon fill="orange" stroke="orange" points="1988.52,-191.748 1978.42,-194.957 1988.32,-198.745 1988.52,-191.748"/>
<text text-anchor="start" x="1997" y="-228.251" font-family="Helvetica,sans-Serif" font-size="10.00"> &lt; Type, RawSize&#45;sizeof</text>
<text text-anchor="middle" x="2054" y="-215.251" font-family="Helvetica,sans-Serif" font-size="10.00">(Type)&gt;</text>
</g>
<!-- Node23 -->
<g id="node52" class="node"><title>Node23</title>
<a xlink:href="classstxxl_1_1mng__local_1_1expand__struct.html" target="_top" xlink:title="Helper to compute the size of the filler , not intended for direct use. ">
<polygon fill="none" stroke="black" points="2355.5,-209.251 2355.5,-243.251 2492.5,-243.251 2492.5,-209.251 2355.5,-209.251"/>
<text text-anchor="start" x="2363.5" y="-230.251" font-family="Helvetica,sans-Serif" font-size="10.00">stxxl::mng_local::expand</text>
<text text-anchor="middle" x="2424" y="-217.251" font-family="Helvetica,sans-Serif" font-size="10.00">_struct&lt; Type, RawSize &gt;</text>
</a>
</g>
<!-- Node23&#45;&gt;Node6 -->
<g id="edge60" class="edge"><title>Node23&#45;&gt;Node6</title>
<path fill="none" stroke="orange" stroke-dasharray="5,2" d="M2502.88,-209.838C2558.19,-198.327 2631.96,-182.976 2687.96,-171.323"/>
<polygon fill="orange" stroke="orange" points="2501.85,-206.476 2492.77,-211.94 2503.28,-213.33 2501.85,-206.476"/>
<text text-anchor="start" x="2550.5" y="-242.251" font-family="Helvetica,sans-Serif" font-size="10.00"> &lt; mng_local::block</text>
<text text-anchor="start" x="2550.5" y="-229.251" font-family="Helvetica,sans-Serif" font-size="10.00">_w_info&lt; Type, RawSize,</text>
<text text-anchor="start" x="2550.5" y="-216.251" font-family="Helvetica,sans-Serif" font-size="10.00"> NRef, MetaInfoType &gt;,</text>
<text text-anchor="middle" x="2610" y="-203.251" font-family="Helvetica,sans-Serif" font-size="10.00"> RawSize &gt;</text>
</g>
<!-- Node24&#45;&gt;Node23 -->
<g id="edge62" class="edge"><title>Node24&#45;&gt;Node23</title>
<path fill="none" stroke="midnightblue" d="M2275.32,-245.85C2300.98,-242.467 2329.87,-238.66 2355.3,-235.307"/>
<polygon fill="midnightblue" stroke="midnightblue" points="2274.74,-242.396 2265.28,-247.173 2275.65,-249.336 2274.74,-242.396"/>
</g>
</g>
</svg>
