<?xml version="1.0" encoding="UTF-8" standalone="no"?>
<!DOCTYPE svg PUBLIC "-//W3C//DTD SVG 1.1//EN"
 "http://www.w3.org/Graphics/SVG/1.1/DTD/svg11.dtd">
<!-- Generated by graphviz version 2.26.3 (20100126.1600)
 -->
<!-- Title: stxxl::mng_local::block_w_info&lt; Type, RawSize, NBids, void &gt; Pages: 1 -->
<svg width="844pt" height="87pt"
 viewBox="0.00 0.00 844.00 87.00" xmlns="http://www.w3.org/2000/svg" xmlns:xlink="http://www.w3.org/1999/xlink">
<g id="graph1" class="graph" transform="scale(1 1) rotate(0) translate(4 83)">
<title>stxxl::mng_local::block_w_info&lt; Type, RawSize, NBids, void &gt;</title>
<!-- Node1 -->
<g id="node1" class="node"><title>Node1</title>
<polygon fill="#bfbfbf" stroke="black" points="700.5,-25.5 700.5,-72.5 835.5,-72.5 835.5,-25.5 700.5,-25.5"/>
<text text-anchor="start" x="708.5" y="-59.5" font-family="Helvetica,sans-Serif" font-size="10.00">stxxl::mng_local::block</text>
<text text-anchor="start" x="708.5" y="-46.5" font-family="Helvetica,sans-Serif" font-size="10.00">_w_info&lt; Type, RawSize,</text>
<text text-anchor="middle" x="768" y="-33.5" font-family="Helvetica,sans-Serif" font-size="10.00"> NBids, void &gt;</text>
</g>
<!-- Node2 -->
<g id="node2" class="node"><title>Node2</title>
<a xlink:href="classstxxl_1_1mng__local_1_1block__w__bids.html" target="_top" xlink:title="stxxl::mng_local::block\l_w_bids\&lt; Type,((RawSize\l&#45;sizeof(BID\&lt; RawSize \&gt;)*NBids)\l/sizeof(Type)), RawSize, NBids \&gt;">
<polygon fill="none" stroke="black" points="490.5,-19 490.5,-79 661.5,-79 661.5,-19 490.5,-19"/>
<text text-anchor="start" x="498.5" y="-66" font-family="Helvetica,sans-Serif" font-size="10.00">stxxl::mng_local::block</text>
<text text-anchor="start" x="498.5" y="-53" font-family="Helvetica,sans-Serif" font-size="10.00">_w_bids&lt; Type,((RawSize</text>
<text text-anchor="start" x="498.5" y="-40" font-family="Helvetica,sans-Serif" font-size="10.00">&#45;sizeof(BID&lt; RawSize &gt;)*NBids)</text>
<text text-anchor="middle" x="576" y="-27" font-family="Helvetica,sans-Serif" font-size="10.00">/sizeof(Type)), RawSize, NBids &gt;</text>
</a>
</g>
<!-- Node2&#45;&gt;Node1 -->
<g id="edge2" class="edge"><title>Node2&#45;&gt;Node1</title>
<path fill="none" stroke="midnightblue" d="M671.701,-49C681.4,-49 691.103,-49 700.415,-49"/>
<polygon fill="midnightblue" stroke="midnightblue" points="671.612,-45.5001 661.612,-49 671.612,-52.5001 671.612,-45.5001"/>
</g>
<!-- Node3 -->
<g id="node4" class="node"><title>Node3</title>
<a xlink:href="classstxxl_1_1mng__local_1_1element__block.html" target="_top" xlink:title="Contains data elements for stxxl::typed_block , not intended for direct use. ">
<polygon fill="none" stroke="black" points="0,-45 0,-79 132,-79 132,-45 0,-45"/>
<text text-anchor="start" x="8" y="-66" font-family="Helvetica,sans-Serif" font-size="10.00">stxxl::mng_local::element</text>
<text text-anchor="middle" x="66" y="-53" font-family="Helvetica,sans-Serif" font-size="10.00">_block&lt; Type, Size &gt;</text>
</a>
</g>
<!-- Node3&#45;&gt;Node2 -->
<g id="edge4" class="edge"><title>Node3&#45;&gt;Node2</title>
<path fill="none" stroke="midnightblue" d="M142.482,-68.4126C224.246,-74.0792 357.589,-79.9011 472,-69 478.04,-68.4245 484.251,-67.665 490.489,-66.7786"/>
<polygon fill="midnightblue" stroke="midnightblue" points="142.503,-64.9054 132.28,-67.6877 142.007,-71.8878 142.503,-64.9054"/>
</g>
<!-- Node4 -->
<g id="node6" class="node"><title>Node4</title>
<a xlink:href="classstxxl_1_1mng__local_1_1block__w__bids.html" target="_top" xlink:title="Contains BID references for stxxl::typed_block , not intended for direct use. ">
<polygon fill="none" stroke="black" points="170,-0.5 170,-47.5 332,-47.5 332,-0.5 170,-0.5"/>
<text text-anchor="start" x="178" y="-34.5" font-family="Helvetica,sans-Serif" font-size="10.00">stxxl::mng_local::block</text>
<text text-anchor="start" x="178" y="-21.5" font-family="Helvetica,sans-Serif" font-size="10.00">_w_bids&lt; Type, Size, RawSize,</text>
<text text-anchor="middle" x="251" y="-8.5" font-family="Helvetica,sans-Serif" font-size="10.00"> NBids &gt;</text>
</a>
</g>
<!-- Node3&#45;&gt;Node4 -->
<g id="edge8" class="edge"><title>Node3&#45;&gt;Node4</title>
<path fill="none" stroke="midnightblue" d="M141.888,-46.4121C151.095,-44.5211 160.528,-42.5835 169.807,-40.6775"/>
<polygon fill="midnightblue" stroke="midnightblue" points="141.097,-43.0015 132.006,-48.4421 142.505,-49.8584 141.097,-43.0015"/>
</g>
<!-- Node4&#45;&gt;Node2 -->
<g id="edge6" class="edge"><title>Node4&#45;&gt;Node2</title>
<path fill="none" stroke="orange" stroke-dasharray="5,2" d="M342.241,-13.747C382.254,-11.1435 429.656,-10.6329 472,-17 478.071,-17.9129 484.277,-19.1098 490.486,-20.5038"/>
<polygon fill="orange" stroke="orange" points="341.965,-10.2577 332.235,-14.4511 342.456,-17.2404 341.965,-10.2577"/>
<text text-anchor="start" x="350.5" y="-60" font-family="Helvetica,sans-Serif" font-size="10.00"> &lt; Type,((RawSize&#45;sizeof</text>
<text text-anchor="start" x="350.5" y="-47" font-family="Helvetica,sans-Serif" font-size="10.00">(BID&lt; RawSize &gt;)*NBids)</text>
<text text-anchor="start" x="350.5" y="-34" font-family="Helvetica,sans-Serif" font-size="10.00">/sizeof(Type)), RawSize,</text>
<text text-anchor="middle" x="411" y="-21" font-family="Helvetica,sans-Serif" font-size="10.00"> NBids &gt;</text>
</g>
</g>
</svg>
