<?xml version="1.0" encoding="UTF-8" standalone="no"?>
<!DOCTYPE svg PUBLIC "-//W3C//DTD SVG 1.1//EN"
 "http://www.w3.org/Graphics/SVG/1.1/DTD/svg11.dtd">
<!-- Generated by graphviz version 2.26.3 (20100126.1600)
 -->
<!-- Title: stxxl::const_matrix_row_major_iterator&lt; ValueType, BlockSideLength &gt; Pages: 1 -->
<svg width="2602pt" height="375pt"
 viewBox="0.00 0.00 2602.00 375.00" xmlns="http://www.w3.org/2000/svg" xmlns:xlink="http://www.w3.org/1999/xlink">
<g id="graph1" class="graph" transform="scale(1 1) rotate(0) translate(4 371)">
<title>stxxl::const_matrix_row_major_iterator&lt; ValueType, BlockSideLength &gt;</title>
<!-- Node1 -->
<g id="node1" class="node"><title>Node1</title>
<polygon fill="#bfbfbf" stroke="black" points="2424,-205.5 2424,-252.5 2594,-252.5 2594,-205.5 2424,-205.5"/>
<text text-anchor="start" x="2432" y="-239.5" font-family="Helvetica,sans-Serif" font-size="10.00">stxxl::const_matrix</text>
<text text-anchor="start" x="2432" y="-226.5" font-family="Helvetica,sans-Serif" font-size="10.00">_row_major_iterator</text>
<text text-anchor="middle" x="2509" y="-213.5" font-family="Helvetica,sans-Serif" font-size="10.00">&lt; ValueType, BlockSideLength &gt;</text>
</g>
<!-- Node2 -->
<g id="node2" class="node"><title>Node2</title>
<a xlink:href="classstxxl_1_1const__matrix__iterator.html" target="_top" xlink:title="general const_iterator type that points to single elements inside a matrix ">
<polygon fill="none" stroke="black" points="2268,-205.5 2268,-252.5 2386,-252.5 2386,-205.5 2268,-205.5"/>
<text text-anchor="start" x="2276" y="-239.5" font-family="Helvetica,sans-Serif" font-size="10.00">stxxl::const_matrix</text>
<text text-anchor="start" x="2276" y="-226.5" font-family="Helvetica,sans-Serif" font-size="10.00">_iterator&lt; ValueType,</text>
<text text-anchor="middle" x="2327" y="-213.5" font-family="Helvetica,sans-Serif" font-size="10.00"> BlockSideLength &gt;</text>
</a>
</g>
<!-- Node2&#45;&gt;Node1 -->
<g id="edge2" class="edge"><title>Node2&#45;&gt;Node1</title>
<path fill="none" stroke="midnightblue" d="M2396.14,-229C2405.17,-229 2414.51,-229 2423.77,-229"/>
<polygon fill="midnightblue" stroke="midnightblue" points="2396.09,-225.5 2386.09,-229 2396.09,-232.5 2396.09,-225.5"/>
</g>
<!-- Node3 -->
<g id="node4" class="node"><title>Node3</title>
<a xlink:href="classstxxl_1_1matrix.html" target="_top" xlink:title="External matrix container. &#160;&#160;Introduction &#160;to matrix container: see STXXL Matrix tutorial. &#160;&#160;Design and Internals &#160;of matrix container: see Matrix. ">
<polygon fill="none" stroke="black" points="2088,-212 2088,-246 2220,-246 2220,-212 2088,-212"/>
<text text-anchor="start" x="2096" y="-233" font-family="Helvetica,sans-Serif" font-size="10.00">stxxl::matrix&lt; ValueType,</text>
<text text-anchor="middle" x="2154" y="-220" font-family="Helvetica,sans-Serif" font-size="10.00"> BlockSideLength &gt;</text>
</a>
</g>
<!-- Node3&#45;&gt;Node2 -->
<g id="edge4" class="edge"><title>Node3&#45;&gt;Node2</title>
<path fill="none" stroke="#9a32cd" stroke-dasharray="5,2" d="M2230.76,-229C2243.2,-229 2255.92,-229 2267.86,-229"/>
<polygon fill="#9a32cd" stroke="#9a32cd" points="2230.39,-225.5 2220.39,-229 2230.39,-232.5 2230.39,-225.5"/>
<text text-anchor="middle" x="2244" y="-233" font-family="Helvetica,sans-Serif" font-size="10.00"> m</text>
</g>
<!-- Node4 -->
<g id="node6" class="node"><title>Node4</title>
<a xlink:href="classstxxl_1_1counting__ptr.html" target="_top" xlink:title="stxxl::counting_ptr\l\&lt; swappable_block_matrix\l_type \&gt;">
<polygon fill="none" stroke="black" points="1886,-205.5 1886,-252.5 2026,-252.5 2026,-205.5 1886,-205.5"/>
<text text-anchor="start" x="1894" y="-239.5" font-family="Helvetica,sans-Serif" font-size="10.00">stxxl::counting_ptr</text>
<text text-anchor="start" x="1894" y="-226.5" font-family="Helvetica,sans-Serif" font-size="10.00">&lt; swappable_block_matrix</text>
<text text-anchor="middle" x="1956" y="-213.5" font-family="Helvetica,sans-Serif" font-size="10.00">_type &gt;</text>
</a>
</g>
<!-- Node4&#45;&gt;Node3 -->
<g id="edge6" class="edge"><title>Node4&#45;&gt;Node3</title>
<path fill="none" stroke="#9a32cd" stroke-dasharray="5,2" d="M2036.12,-229C2053.35,-229 2071.37,-229 2087.99,-229"/>
<polygon fill="#9a32cd" stroke="#9a32cd" points="2036.09,-225.5 2026.09,-229 2036.09,-232.5 2036.09,-225.5"/>
<text text-anchor="middle" x="2057" y="-233" font-family="Helvetica,sans-Serif" font-size="10.00"> data</text>
</g>
<!-- Node5 -->
<g id="node8" class="node"><title>Node5</title>
<a xlink:href="classstxxl_1_1swappable__block__matrix.html" target="_top" xlink:title="External container for a (sub)matrix. Not intended for direct use. ">
<polygon fill="none" stroke="black" points="1560,-237.5 1560,-284.5 1722,-284.5 1722,-237.5 1560,-237.5"/>
<text text-anchor="start" x="1568" y="-271.5" font-family="Helvetica,sans-Serif" font-size="10.00">stxxl::swappable_block</text>
<text text-anchor="start" x="1568" y="-258.5" font-family="Helvetica,sans-Serif" font-size="10.00">_matrix&lt; ValueType, BlockSide</text>
<text text-anchor="middle" x="1641" y="-245.5" font-family="Helvetica,sans-Serif" font-size="10.00">Length &gt;</text>
</a>
</g>
<!-- Node5&#45;&gt;Node4 -->
<g id="edge8" class="edge"><title>Node5&#45;&gt;Node4</title>
<path fill="none" stroke="#9a32cd" stroke-dasharray="5,2" d="M1732.08,-251.747C1781.06,-246.772 1840.52,-240.732 1885.85,-236.126"/>
<polygon fill="#9a32cd" stroke="#9a32cd" points="1731.72,-248.266 1722.12,-252.759 1732.42,-255.231 1731.72,-248.266"/>
<text text-anchor="middle" x="1804" y="-254" font-family="Helvetica,sans-Serif" font-size="10.00"> m_ptr</text>
</g>
<!-- Node6 -->
<g id="node10" class="node"><title>Node6</title>
<a xlink:href="classstxxl_1_1atomic__counted__object.html" target="_top" xlink:title="Provides reference counting abilities for use with counting_ptr with mutex locking. ">
<polygon fill="none" stroke="black" points="579,-228 579,-262 695,-262 695,-228 579,-228"/>
<text text-anchor="start" x="587" y="-249" font-family="Helvetica,sans-Serif" font-size="10.00">stxxl::atomic_counted</text>
<text text-anchor="middle" x="637" y="-236" font-family="Helvetica,sans-Serif" font-size="10.00">_object</text>
</a>
</g>
<!-- Node6&#45;&gt;Node5 -->
<g id="edge10" class="edge"><title>Node6&#45;&gt;Node5</title>
<path fill="none" stroke="midnightblue" d="M705.282,-241.349C742.693,-239.651 789.888,-238 832,-238 832,-238 832,-238 1442,-238 1480.95,-238 1523.91,-242.402 1559.91,-247.355"/>
<polygon fill="midnightblue" stroke="midnightblue" points="704.828,-237.866 695.002,-241.828 705.154,-244.858 704.828,-237.866"/>
</g>
<!-- Node15 -->
<g id="node31" class="node"><title>Node15</title>
<a xlink:href="classstxxl_1_1file.html" target="_top" xlink:title="Defines interface of file. ">
<polygon fill="none" stroke="black" points="804,-128.5 804,-149.5 860,-149.5 860,-128.5 804,-128.5"/>
<text text-anchor="middle" x="832" y="-136.5" font-family="Helvetica,sans-Serif" font-size="10.00">stxxl::file</text>
</a>
</g>
<!-- Node6&#45;&gt;Node15 -->
<g id="edge38" class="edge"><title>Node6&#45;&gt;Node15</title>
<path fill="none" stroke="#9a32cd" stroke-dasharray="5,2" d="M655.062,-219.419C669.1,-201.464 690.153,-178.36 714,-165 742,-149.312 778.68,-143.089 803.664,-140.621"/>
<polygon fill="#9a32cd" stroke="#9a32cd" points="651.998,-217.668 648.753,-227.754 657.579,-221.893 651.998,-217.668"/>
<text text-anchor="middle" x="750" y="-169" font-family="Helvetica,sans-Serif" font-size="10.00"> m_request_ref</text>
</g>
<!-- Node7 -->
<g id="node12" class="node"><title>Node7</title>
<a xlink:href="classstxxl_1_1mutex.html" target="_top" xlink:title="stxxl::mutex">
<polygon fill="none" stroke="black" points="302,-189.5 302,-210.5 372,-210.5 372,-189.5 302,-189.5"/>
<text text-anchor="middle" x="337" y="-197.5" font-family="Helvetica,sans-Serif" font-size="10.00">stxxl::mutex</text>
</a>
</g>
<!-- Node7&#45;&gt;Node6 -->
<g id="edge12" class="edge"><title>Node7&#45;&gt;Node6</title>
<path fill="none" stroke="#9a32cd" stroke-dasharray="5,2" d="M382.017,-206.753C434.483,-214.623 521.319,-227.648 578.848,-236.277"/>
<polygon fill="#9a32cd" stroke="#9a32cd" points="382.41,-203.272 372.001,-205.25 381.371,-210.195 382.41,-203.272"/>
<text text-anchor="middle" x="495" y="-236" font-family="Helvetica,sans-Serif" font-size="10.00"> m_reference_count_mutex</text>
</g>
<!-- Node16 -->
<g id="node35" class="node"><title>Node16</title>
<a xlink:href="classstxxl_1_1disk__allocator.html" target="_top" xlink:title="stxxl::disk_allocator">
<polygon fill="none" stroke="black" points="988.5,-121.5 988.5,-142.5 1095.5,-142.5 1095.5,-121.5 988.5,-121.5"/>
<text text-anchor="middle" x="1042" y="-129.5" font-family="Helvetica,sans-Serif" font-size="10.00">stxxl::disk_allocator</text>
</a>
</g>
<!-- Node7&#45;&gt;Node16 -->
<g id="edge46" class="edge"><title>Node7&#45;&gt;Node16</title>
<path fill="none" stroke="#9a32cd" stroke-dasharray="5,2" d="M382.384,-201.261C487.241,-203.206 753.894,-202.595 970,-155 984.481,-151.811 1000.21,-146.956 1013.26,-142.527"/>
<polygon fill="#9a32cd" stroke="#9a32cd" points="382.23,-197.757 372.161,-201.053 382.088,-204.756 382.23,-197.757"/>
<text text-anchor="middle" x="750" y="-195" font-family="Helvetica,sans-Serif" font-size="10.00"> mutex</text>
</g>
<!-- Node8 -->
<g id="node14" class="node"><title>Node8</title>
<a xlink:href="classstxxl_1_1noncopyable.html" target="_top" xlink:title="stxxl::noncopyable">
<polygon fill="none" stroke="black" points="12,-108.5 12,-129.5 114,-129.5 114,-108.5 12,-108.5"/>
<text text-anchor="middle" x="63" y="-116.5" font-family="Helvetica,sans-Serif" font-size="10.00">stxxl::noncopyable</text>
</a>
</g>
<!-- Node8&#45;&gt;Node7 -->
<g id="edge14" class="edge"><title>Node8&#45;&gt;Node7</title>
<path fill="none" stroke="#8b1a1a" d="M95.976,-133.685C110.522,-139.836 127.931,-146.758 144,-152 198.162,-169.668 262.682,-184.501 301.708,-192.814"/>
<polygon fill="#8b1a1a" stroke="#8b1a1a" points="96.9847,-130.309 86.415,-129.581 94.2233,-136.742 96.9847,-130.309"/>
</g>
<!-- Node11 -->
<g id="node20" class="node"><title>Node11</title>
<a xlink:href="classstxxl_1_1block__scheduler.html" target="_top" xlink:title="Schedules swapping of blocks and provides blocks for temporary storage. ">
<polygon fill="none" stroke="black" points="1374,-274 1374,-308 1510,-308 1510,-274 1374,-274"/>
<text text-anchor="start" x="1382" y="-295" font-family="Helvetica,sans-Serif" font-size="10.00">stxxl::block_scheduler</text>
<text text-anchor="middle" x="1442" y="-282" font-family="Helvetica,sans-Serif" font-size="10.00">&lt; SwappableBlockType &gt;</text>
</a>
</g>
<!-- Node8&#45;&gt;Node11 -->
<g id="edge22" class="edge"><title>Node8&#45;&gt;Node11</title>
<path fill="none" stroke="#8b1a1a" d="M77.5079,-137.719C115.014,-183.799 220.436,-299 337,-299 337,-299 337,-299 1263,-299 1299.55,-299 1340.26,-297.315 1373.61,-295.491"/>
<polygon fill="#8b1a1a" stroke="#8b1a1a" points="80.094,-135.349 71.1178,-129.721 74.625,-139.718 80.094,-135.349"/>
</g>
<!-- Node13 -->
<g id="node25" class="node"><title>Node13</title>
<a xlink:href="classstxxl_1_1singleton.html" target="_top" xlink:title="stxxl::singleton\&lt; block\l_manager \&gt;">
<polygon fill="none" stroke="black" points="578,-14 578,-48 696,-48 696,-14 578,-14"/>
<text text-anchor="start" x="586" y="-35" font-family="Helvetica,sans-Serif" font-size="10.00">stxxl::singleton&lt; block</text>
<text text-anchor="middle" x="637" y="-22" font-family="Helvetica,sans-Serif" font-size="10.00">_manager &gt;</text>
</a>
</g>
<!-- Node8&#45;&gt;Node13 -->
<g id="edge28" class="edge"><title>Node8&#45;&gt;Node13</title>
<path fill="none" stroke="#8b1a1a" d="M93.3383,-104.204C108.257,-97.5647 126.709,-90.2783 144,-86 324.346,-41.377 376.008,-70.7496 560,-45 565.786,-44.1902 571.801,-43.2575 577.804,-42.266"/>
<polygon fill="#8b1a1a" stroke="#8b1a1a" points="91.729,-101.091 84.0926,-108.436 94.6421,-107.457 91.729,-101.091"/>
</g>
<!-- Node14 -->
<g id="node28" class="node"><title>Node14</title>
<a xlink:href="classstxxl_1_1singleton.html" target="_top" xlink:title="stxxl::singleton\&lt; INSTANCE,\l destroy_on_exit \&gt;">
<polygon fill="none" stroke="black" points="262.5,-0 262.5,-34 411.5,-34 411.5,-0 262.5,-0"/>
<text text-anchor="start" x="270.5" y="-21" font-family="Helvetica,sans-Serif" font-size="10.00">stxxl::singleton&lt; INSTANCE,</text>
<text text-anchor="middle" x="337" y="-8" font-family="Helvetica,sans-Serif" font-size="10.00"> destroy_on_exit &gt;</text>
</a>
</g>
<!-- Node8&#45;&gt;Node14 -->
<g id="edge32" class="edge"><title>Node8&#45;&gt;Node14</title>
<path fill="none" stroke="#8b1a1a" d="M78.6313,-100.32C93.6132,-83.7543 117.772,-60.3311 144,-48 180.7,-30.7454 225.192,-22.8447 262.204,-19.325"/>
<polygon fill="#8b1a1a" stroke="#8b1a1a" points="75.6295,-98.4344 71.6709,-108.262 80.894,-103.048 75.6295,-98.4344"/>
</g>
<!-- Node8&#45;&gt;Node15 -->
<g id="edge36" class="edge"><title>Node8&#45;&gt;Node15</title>
<path fill="none" stroke="#8b1a1a" d="M124.458,-120.598C281.361,-124.679 692.211,-135.364 803.724,-138.265"/>
<polygon fill="#8b1a1a" stroke="#8b1a1a" points="124.139,-117.089 114.052,-120.328 123.957,-124.087 124.139,-117.089"/>
</g>
<!-- Node8&#45;&gt;Node16 -->
<g id="edge42" class="edge"><title>Node8&#45;&gt;Node16</title>
<path fill="none" stroke="#8b1a1a" d="M124.2,-112.321C179.674,-106.848 263.718,-100 337,-100 337,-100 337,-100 750,-100 833.637,-100 929.951,-113.133 988.375,-122.572"/>
<polygon fill="#8b1a1a" stroke="#8b1a1a" points="123.785,-108.845 114.184,-113.325 124.483,-115.81 123.785,-108.845"/>
</g>
<!-- Node9 -->
<g id="node16" class="node"><title>Node9</title>
<a xlink:href="structstxxl_1_1choose__int__types.html" target="_top" xlink:title="stxxl::choose_int_types\l\&lt; my_pointer_size \&gt;">
<polygon fill="none" stroke="black" points="274.5,-327 274.5,-361 399.5,-361 399.5,-327 274.5,-327"/>
<text text-anchor="start" x="282.5" y="-348" font-family="Helvetica,sans-Serif" font-size="10.00">stxxl::choose_int_types</text>
<text text-anchor="middle" x="337" y="-335" font-family="Helvetica,sans-Serif" font-size="10.00">&lt; my_pointer_size &gt;</text>
</a>
</g>
<!-- Node9&#45;&gt;Node6 -->
<g id="edge16" class="edge"><title>Node9&#45;&gt;Node6</title>
<path fill="none" stroke="#9a32cd" stroke-dasharray="5,2" d="M398.216,-323.799C453.323,-305.614 533.404,-279.187 585.349,-262.045"/>
<polygon fill="#9a32cd" stroke="#9a32cd" points="396.971,-320.524 388.572,-326.981 399.165,-327.171 396.971,-320.524"/>
<text text-anchor="middle" x="495" y="-315" font-family="Helvetica,sans-Serif" font-size="10.00"> m_reference_count</text>
</g>
<!-- Node9&#45;&gt;Node11 -->
<g id="edge48" class="edge"><title>Node9&#45;&gt;Node11</title>
<path fill="none" stroke="#9a32cd" stroke-dasharray="5,2" d="M409.882,-342.864C470.632,-342.015 559.451,-341 637,-341 637,-341 637,-341 1263,-341 1313.17,-341 1368.44,-322.552 1404.1,-308.067"/>
<polygon fill="#9a32cd" stroke="#9a32cd" points="409.577,-339.368 399.628,-343.009 409.677,-346.367 409.577,-339.368"/>
<text text-anchor="start" x="878.5" y="-358" font-family="Helvetica,sans-Serif" font-size="10.00"> remaining_internal</text>
<text text-anchor="middle" x="924" y="-345" font-family="Helvetica,sans-Serif" font-size="10.00">_blocks</text>
</g>
<!-- Node10 -->
<g id="node18" class="node"><title>Node10</title>
<a xlink:href="structstxxl_1_1choose__int__types.html" target="_top" xlink:title="stxxl::choose_int_types\l\&lt; PtrSize \&gt;">
<polygon fill="none" stroke="black" points="0.5,-327 0.5,-361 125.5,-361 125.5,-327 0.5,-327"/>
<text text-anchor="start" x="8.5" y="-348" font-family="Helvetica,sans-Serif" font-size="10.00">stxxl::choose_int_types</text>
<text text-anchor="middle" x="63" y="-335" font-family="Helvetica,sans-Serif" font-size="10.00">&lt; PtrSize &gt;</text>
</a>
</g>
<!-- Node10&#45;&gt;Node9 -->
<g id="edge18" class="edge"><title>Node10&#45;&gt;Node9</title>
<path fill="none" stroke="orange" stroke-dasharray="5,2" d="M135.672,-344C178.827,-344 232.999,-344 274.277,-344"/>
<polygon fill="orange" stroke="orange" points="135.518,-340.5 125.518,-344 135.518,-347.5 135.518,-340.5"/>
<text text-anchor="middle" x="194" y="-348" font-family="Helvetica,sans-Serif" font-size="10.00"> &lt; my_pointer_size &gt;</text>
</g>
<!-- Node11&#45;&gt;Node5 -->
<g id="edge20" class="edge"><title>Node11&#45;&gt;Node5</title>
<path fill="none" stroke="#9a32cd" stroke-dasharray="5,2" d="M1520.46,-279.172C1533.4,-277.221 1546.83,-275.196 1559.84,-273.235"/>
<polygon fill="#9a32cd" stroke="#9a32cd" points="1519.57,-275.766 1510.21,-280.718 1520.62,-282.688 1519.57,-275.766"/>
<text text-anchor="middle" x="1535" y="-281" font-family="Helvetica,sans-Serif" font-size="10.00"> bs</text>
</g>
<!-- Node12 -->
<g id="node23" class="node"><title>Node12</title>
<a xlink:href="classstxxl_1_1block__manager.html" target="_top" xlink:title="Block manager class. ">
<polygon fill="none" stroke="black" points="1206,-89.5 1206,-110.5 1320,-110.5 1320,-89.5 1206,-89.5"/>
<text text-anchor="middle" x="1263" y="-97.5" font-family="Helvetica,sans-Serif" font-size="10.00">stxxl::block_manager</text>
</a>
</g>
<!-- Node12&#45;&gt;Node11 -->
<g id="edge24" class="edge"><title>Node12&#45;&gt;Node11</title>
<path fill="none" stroke="#9a32cd" stroke-dasharray="5,2" d="M1279.92,-118.05C1314.39,-154.832 1392.34,-238.015 1426.02,-273.944"/>
<polygon fill="#9a32cd" stroke="#9a32cd" points="1282.27,-115.444 1272.88,-110.541 1277.16,-120.231 1282.27,-115.444"/>
<text text-anchor="middle" x="1347" y="-200" font-family="Helvetica,sans-Serif" font-size="10.00"> bm</text>
</g>
<!-- Node13&#45;&gt;Node12 -->
<g id="edge26" class="edge"><title>Node13&#45;&gt;Node12</title>
<path fill="none" stroke="midnightblue" d="M706.316,-37.3822C810.86,-47.2147 1015.06,-67.2245 1188,-89 1193.75,-89.7234 1199.73,-90.523 1205.7,-91.3514"/>
<polygon fill="midnightblue" stroke="midnightblue" points="706.491,-33.8834 696.208,-36.4341 705.838,-40.8528 706.491,-33.8834"/>
</g>
<!-- Node14&#45;&gt;Node13 -->
<g id="edge30" class="edge"><title>Node14&#45;&gt;Node13</title>
<path fill="none" stroke="orange" stroke-dasharray="5,2" d="M421.664,-20.951C471.506,-23.2769 533.309,-26.1611 577.903,-28.2421"/>
<polygon fill="orange" stroke="orange" points="421.695,-17.4487 411.543,-20.4787 421.369,-24.4411 421.695,-17.4487"/>
<text text-anchor="middle" x="495" y="-32" font-family="Helvetica,sans-Serif" font-size="10.00"> &lt; block_manager &gt;</text>
</g>
<!-- Node15&#45;&gt;Node12 -->
<g id="edge34" class="edge"><title>Node15&#45;&gt;Node12</title>
<path fill="none" stroke="#9a32cd" stroke-dasharray="5,2" d="M869.671,-126.5C900.951,-116.813 946.825,-104.195 988,-99 1062.84,-89.5577 1150.05,-92.1517 1205.86,-95.5214"/>
<polygon fill="#9a32cd" stroke="#9a32cd" points="868.54,-123.187 860.053,-129.529 870.642,-129.864 868.54,-123.187"/>
<text text-anchor="middle" x="1042" y="-103" font-family="Helvetica,sans-Serif" font-size="10.00"> disk_files</text>
</g>
<!-- Node15&#45;&gt;Node16 -->
<g id="edge44" class="edge"><title>Node15&#45;&gt;Node16</title>
<path fill="none" stroke="#9a32cd" stroke-dasharray="5,2" d="M870.49,-137.717C903.525,-136.616 951.491,-135.017 988.303,-133.79"/>
<polygon fill="#9a32cd" stroke="#9a32cd" points="870.199,-134.225 860.322,-138.056 870.433,-141.221 870.199,-134.225"/>
<text text-anchor="middle" x="924" y="-142" font-family="Helvetica,sans-Serif" font-size="10.00"> storage</text>
</g>
<!-- Node16&#45;&gt;Node12 -->
<g id="edge40" class="edge"><title>Node16&#45;&gt;Node12</title>
<path fill="none" stroke="#9a32cd" stroke-dasharray="5,2" d="M1105.8,-122.762C1137.4,-118.186 1175.25,-112.707 1205.88,-108.27"/>
<polygon fill="#9a32cd" stroke="#9a32cd" points="1105.18,-119.316 1095.78,-124.213 1106.18,-126.244 1105.18,-119.316"/>
<text text-anchor="middle" x="1151" y="-125" font-family="Helvetica,sans-Serif" font-size="10.00"> disk_allocators</text>
</g>
<!-- Node17 -->
<g id="node41" class="node"><title>Node17</title>
<a xlink:href="classstxxl_1_1counting__ptr.html" target="_top" xlink:title="High&#45;performance smart pointer used as a wrapping reference counting pointer. ">
<polygon fill="none" stroke="black" points="1590.5,-185 1590.5,-219 1691.5,-219 1691.5,-185 1590.5,-185"/>
<text text-anchor="start" x="1598.5" y="-206" font-family="Helvetica,sans-Serif" font-size="10.00">stxxl::counting_ptr</text>
<text text-anchor="middle" x="1641" y="-193" font-family="Helvetica,sans-Serif" font-size="10.00">&lt; Type &gt;</text>
</a>
</g>
<!-- Node17&#45;&gt;Node4 -->
<g id="edge50" class="edge"><title>Node17&#45;&gt;Node4</title>
<path fill="none" stroke="orange" stroke-dasharray="5,2" d="M1701.8,-200.194C1747.67,-199.657 1812.04,-200.664 1868,-208 1873.76,-208.755 1879.7,-209.731 1885.63,-210.848"/>
<polygon fill="orange" stroke="orange" points="1701.67,-196.696 1691.72,-200.34 1701.77,-203.695 1701.67,-196.696"/>
<text text-anchor="start" x="1740.5" y="-225" font-family="Helvetica,sans-Serif" font-size="10.00"> &lt; swappable_block_matrix</text>
<text text-anchor="middle" x="1804" y="-212" font-family="Helvetica,sans-Serif" font-size="10.00">_type &gt;</text>
</g>
</g>
</svg>
