<?xml version="1.0" encoding="UTF-8" standalone="no"?>
<!DOCTYPE svg PUBLIC "-//W3C//DTD SVG 1.1//EN"
 "http://www.w3.org/Graphics/SVG/1.1/DTD/svg11.dtd">
<!-- Generated by graphviz version 2.26.3 (20100126.1600)
 -->
<!-- Title: stxxl::btree::btree&lt; KeyType, DataType, CompareType, RawNodeSize, RawLeafSize, PDAllocStrategy &gt; Pages: 1 -->
<svg width="1662pt" height="402pt"
 viewBox="0.00 0.00 1662.00 402.00" xmlns="http://www.w3.org/2000/svg" xmlns:xlink="http://www.w3.org/1999/xlink">
<g id="graph1" class="graph" transform="scale(1 1) rotate(0) translate(4 398)">
<title>stxxl::btree::btree&lt; KeyType, DataType, CompareType, RawNodeSize, RawLeafSize, PDAllocStrategy &gt;</title>
<!-- Node1 -->
<g id="node1" class="node"><title>Node1</title>
<polygon fill="#bfbfbf" stroke="black" points="1480.5,-207 1480.5,-267 1653.5,-267 1653.5,-207 1480.5,-207"/>
<text text-anchor="start" x="1488.5" y="-254" font-family="Helvetica,sans-Serif" font-size="10.00">stxxl::btree::btree</text>
<text text-anchor="start" x="1488.5" y="-241" font-family="Helvetica,sans-Serif" font-size="10.00">&lt; KeyType, DataType,</text>
<text text-anchor="start" x="1488.5" y="-228" font-family="Helvetica,sans-Serif" font-size="10.00"> CompareType, RawNodeSize,</text>
<text text-anchor="middle" x="1567" y="-215" font-family="Helvetica,sans-Serif" font-size="10.00"> RawLeafSize, PDAllocStrategy &gt;</text>
</g>
<!-- Node2 -->
<g id="node2" class="node"><title>Node2</title>
<a xlink:href="classstxxl_1_1noncopyable.html" target="_top" xlink:title="stxxl::noncopyable">
<polygon fill="none" stroke="black" points="12,-272.5 12,-293.5 114,-293.5 114,-272.5 12,-272.5"/>
<text text-anchor="middle" x="63" y="-280.5" font-family="Helvetica,sans-Serif" font-size="10.00">stxxl::noncopyable</text>
</a>
</g>
<!-- Node2&#45;&gt;Node1 -->
<g id="edge2" class="edge"><title>Node2&#45;&gt;Node1</title>
<path fill="none" stroke="#8b1a1a" d="M84.6619,-299.653C100.425,-311.138 122.661,-326.067 144,-336 225.201,-373.799 247.433,-394 337,-394 337,-394 337,-394 1355,-394 1439.27,-394 1511.92,-312.894 1546.12,-267.271"/>
<polygon fill="#8b1a1a" stroke="#8b1a1a" points="86.7326,-296.831 76.6171,-293.681 82.56,-302.452 86.7326,-296.831"/>
</g>
<!-- Node4 -->
<g id="node6" class="node"><title>Node4</title>
<a xlink:href="classstxxl_1_1singleton.html" target="_top" xlink:title="stxxl::singleton\&lt; block\l_manager \&gt;">
<polygon fill="none" stroke="black" points="597,-294 597,-328 715,-328 715,-294 597,-294"/>
<text text-anchor="start" x="605" y="-315" font-family="Helvetica,sans-Serif" font-size="10.00">stxxl::singleton&lt; block</text>
<text text-anchor="middle" x="656" y="-302" font-family="Helvetica,sans-Serif" font-size="10.00">_manager &gt;</text>
</a>
</g>
<!-- Node2&#45;&gt;Node4 -->
<g id="edge8" class="edge"><title>Node2&#45;&gt;Node4</title>
<path fill="none" stroke="#8b1a1a" d="M100.634,-296.916C140.158,-310.648 204.449,-330.5 262,-337 393.668,-351.872 428.417,-343.599 560,-328 571.934,-326.585 584.632,-324.648 596.754,-322.586"/>
<polygon fill="#8b1a1a" stroke="#8b1a1a" points="101.733,-293.593 91.1377,-293.569 99.4053,-300.194 101.733,-293.593"/>
</g>
<!-- Node5 -->
<g id="node9" class="node"><title>Node5</title>
<a xlink:href="classstxxl_1_1singleton.html" target="_top" xlink:title="stxxl::singleton\&lt; INSTANCE,\l destroy_on_exit \&gt;">
<polygon fill="none" stroke="black" points="262.5,-294 262.5,-328 411.5,-328 411.5,-294 262.5,-294"/>
<text text-anchor="start" x="270.5" y="-315" font-family="Helvetica,sans-Serif" font-size="10.00">stxxl::singleton&lt; INSTANCE,</text>
<text text-anchor="middle" x="337" y="-302" font-family="Helvetica,sans-Serif" font-size="10.00"> destroy_on_exit &gt;</text>
</a>
</g>
<!-- Node2&#45;&gt;Node5 -->
<g id="edge12" class="edge"><title>Node2&#45;&gt;Node5</title>
<path fill="none" stroke="#8b1a1a" d="M124.291,-289.263C165.085,-293.432 218.933,-298.935 262.242,-303.361"/>
<polygon fill="#8b1a1a" stroke="#8b1a1a" points="124.52,-285.769 114.216,-288.234 123.808,-292.732 124.52,-285.769"/>
</g>
<!-- Node6 -->
<g id="node12" class="node"><title>Node6</title>
<a xlink:href="classstxxl_1_1file.html" target="_top" xlink:title="Defines interface of file. ">
<polygon fill="none" stroke="black" points="878,-222.5 878,-243.5 934,-243.5 934,-222.5 878,-222.5"/>
<text text-anchor="middle" x="906" y="-230.5" font-family="Helvetica,sans-Serif" font-size="10.00">stxxl::file</text>
</a>
</g>
<!-- Node2&#45;&gt;Node6 -->
<g id="edge16" class="edge"><title>Node2&#45;&gt;Node6</title>
<path fill="none" stroke="#8b1a1a" d="M124.467,-281.918C254.066,-279.201 564.752,-270.384 824,-245 842.042,-243.233 862.189,-240.299 877.997,-237.774"/>
<polygon fill="#8b1a1a" stroke="#8b1a1a" points="124.267,-278.422 114.341,-282.126 124.411,-285.42 124.267,-278.422"/>
</g>
<!-- Node8 -->
<g id="node17" class="node"><title>Node8</title>
<a xlink:href="classstxxl_1_1mutex.html" target="_top" xlink:title="stxxl::mutex">
<polygon fill="none" stroke="black" points="302,-210.5 302,-231.5 372,-231.5 372,-210.5 302,-210.5"/>
<text text-anchor="middle" x="337" y="-218.5" font-family="Helvetica,sans-Serif" font-size="10.00">stxxl::mutex</text>
</a>
</g>
<!-- Node2&#45;&gt;Node8 -->
<g id="edge22" class="edge"><title>Node2&#45;&gt;Node8</title>
<path fill="none" stroke="#8b1a1a" d="M96.1818,-268.523C110.643,-262.682 127.931,-256.316 144,-252 198.079,-237.475 262.623,-228.796 301.676,-224.461"/>
<polygon fill="#8b1a1a" stroke="#8b1a1a" points="94.5774,-265.399 86.6715,-272.453 97.2503,-271.869 94.5774,-265.399"/>
</g>
<!-- Node11 -->
<g id="node24" class="node"><title>Node11</title>
<a xlink:href="classstxxl_1_1disk__allocator.html" target="_top" xlink:title="stxxl::disk_allocator">
<polygon fill="none" stroke="black" points="1075.5,-172.5 1075.5,-193.5 1182.5,-193.5 1182.5,-172.5 1075.5,-172.5"/>
<text text-anchor="middle" x="1129" y="-180.5" font-family="Helvetica,sans-Serif" font-size="10.00">stxxl::disk_allocator</text>
</a>
</g>
<!-- Node2&#45;&gt;Node11 -->
<g id="edge30" class="edge"><title>Node2&#45;&gt;Node11</title>
<path fill="none" stroke="#8b1a1a" d="M81.3408,-265.038C123.005,-226.225 229.529,-138 337,-138 337,-138 337,-138 906,-138 975.315,-138 1054.4,-159.149 1097.28,-172.449"/>
<polygon fill="#8b1a1a" stroke="#8b1a1a" points="78.74,-262.681 73.8917,-272.101 83.5565,-267.761 78.74,-262.681"/>
</g>
<!-- Node3 -->
<g id="node4" class="node"><title>Node3</title>
<a xlink:href="classstxxl_1_1block__manager.html" target="_top" xlink:title="Block manager class. ">
<polygon fill="none" stroke="black" points="1298,-226.5 1298,-247.5 1412,-247.5 1412,-226.5 1298,-226.5"/>
<text text-anchor="middle" x="1355" y="-234.5" font-family="Helvetica,sans-Serif" font-size="10.00">stxxl::block_manager</text>
</a>
</g>
<!-- Node3&#45;&gt;Node1 -->
<g id="edge4" class="edge"><title>Node3&#45;&gt;Node1</title>
<path fill="none" stroke="#9a32cd" stroke-dasharray="5,2" d="M1422.14,-237C1440.61,-237 1460.9,-237 1480.29,-237"/>
<polygon fill="#9a32cd" stroke="#9a32cd" points="1422.09,-233.5 1412.09,-237 1422.09,-240.5 1422.09,-233.5"/>
<text text-anchor="middle" x="1446" y="-241" font-family="Helvetica,sans-Serif" font-size="10.00"> m_bm</text>
</g>
<!-- Node4&#45;&gt;Node3 -->
<g id="edge6" class="edge"><title>Node4&#45;&gt;Node3</title>
<path fill="none" stroke="midnightblue" d="M725.203,-305.922C840.535,-297.081 1079.23,-277.176 1280,-250 1285.76,-249.22 1291.76,-248.324 1297.74,-247.375"/>
<polygon fill="midnightblue" stroke="midnightblue" points="724.807,-302.442 715.102,-306.692 725.339,-309.422 724.807,-302.442"/>
</g>
<!-- Node5&#45;&gt;Node4 -->
<g id="edge10" class="edge"><title>Node5&#45;&gt;Node4</title>
<path fill="none" stroke="orange" stroke-dasharray="5,2" d="M421.909,-311C477.102,-311 547.675,-311 596.836,-311"/>
<polygon fill="orange" stroke="orange" points="421.791,-307.5 411.791,-311 421.791,-314.5 421.791,-307.5"/>
<text text-anchor="middle" x="495" y="-315" font-family="Helvetica,sans-Serif" font-size="10.00"> &lt; block_manager &gt;</text>
</g>
<!-- Node6&#45;&gt;Node3 -->
<g id="edge14" class="edge"><title>Node6&#45;&gt;Node3</title>
<path fill="none" stroke="#9a32cd" stroke-dasharray="5,2" d="M944.558,-233.343C1023.7,-234.049 1204.84,-235.662 1297.74,-236.49"/>
<polygon fill="#9a32cd" stroke="#9a32cd" points="944.118,-229.84 934.087,-233.25 944.055,-236.839 944.118,-229.84"/>
<text text-anchor="middle" x="1129" y="-239" font-family="Helvetica,sans-Serif" font-size="10.00"> disk_files</text>
</g>
<!-- Node6&#45;&gt;Node11 -->
<g id="edge32" class="edge"><title>Node6&#45;&gt;Node11</title>
<path fill="none" stroke="#9a32cd" stroke-dasharray="5,2" d="M943.965,-221.632C957.764,-217.691 973.524,-213.41 988,-210 1016.63,-203.257 1048.82,-196.994 1075.21,-192.201"/>
<polygon fill="#9a32cd" stroke="#9a32cd" points="942.943,-218.284 934.309,-224.425 944.888,-225.008 942.943,-218.284"/>
<text text-anchor="middle" x="1020" y="-214" font-family="Helvetica,sans-Serif" font-size="10.00"> storage</text>
</g>
<!-- Node7 -->
<g id="node15" class="node"><title>Node7</title>
<a xlink:href="classstxxl_1_1atomic__counted__object.html" target="_top" xlink:title="Provides reference counting abilities for use with counting_ptr with mutex locking. ">
<polygon fill="none" stroke="black" points="598,-204 598,-238 714,-238 714,-204 598,-204"/>
<text text-anchor="start" x="606" y="-225" font-family="Helvetica,sans-Serif" font-size="10.00">stxxl::atomic_counted</text>
<text text-anchor="middle" x="656" y="-212" font-family="Helvetica,sans-Serif" font-size="10.00">_object</text>
</a>
</g>
<!-- Node7&#45;&gt;Node6 -->
<g id="edge18" class="edge"><title>Node7&#45;&gt;Node6</title>
<path fill="none" stroke="#9a32cd" stroke-dasharray="5,2" d="M724.481,-224.287C774.886,-226.707 840.824,-229.872 877.76,-231.645"/>
<polygon fill="#9a32cd" stroke="#9a32cd" points="724.455,-220.782 714.298,-223.798 724.119,-227.774 724.455,-220.782"/>
<text text-anchor="middle" x="788" y="-232" font-family="Helvetica,sans-Serif" font-size="10.00"> m_request_ref</text>
</g>
<!-- Node8&#45;&gt;Node7 -->
<g id="edge20" class="edge"><title>Node8&#45;&gt;Node7</title>
<path fill="none" stroke="#9a32cd" stroke-dasharray="5,2" d="M382.132,-221C438.744,-221 535.903,-221 597.982,-221"/>
<polygon fill="#9a32cd" stroke="#9a32cd" points="382.051,-217.5 372.051,-221 382.051,-224.5 382.051,-217.5"/>
<text text-anchor="middle" x="495" y="-225" font-family="Helvetica,sans-Serif" font-size="10.00"> m_reference_count_mutex</text>
</g>
<!-- Node8&#45;&gt;Node11 -->
<g id="edge34" class="edge"><title>Node8&#45;&gt;Node11</title>
<path fill="none" stroke="#9a32cd" stroke-dasharray="5,2" d="M382.173,-214.957C430.525,-208.763 509.532,-199.431 578,-195 760.133,-183.214 976.76,-182.329 1075.36,-182.644"/>
<polygon fill="#9a32cd" stroke="#9a32cd" points="381.51,-211.514 372.041,-216.267 382.407,-218.456 381.51,-211.514"/>
<text text-anchor="middle" x="788" y="-191" font-family="Helvetica,sans-Serif" font-size="10.00"> mutex</text>
</g>
<!-- Node9 -->
<g id="node20" class="node"><title>Node9</title>
<a xlink:href="structstxxl_1_1choose__int__types.html" target="_top" xlink:title="stxxl::choose_int_types\l\&lt; my_pointer_size \&gt;">
<polygon fill="none" stroke="black" points="274.5,-60 274.5,-94 399.5,-94 399.5,-60 274.5,-60"/>
<text text-anchor="start" x="282.5" y="-81" font-family="Helvetica,sans-Serif" font-size="10.00">stxxl::choose_int_types</text>
<text text-anchor="middle" x="337" y="-68" font-family="Helvetica,sans-Serif" font-size="10.00">&lt; my_pointer_size &gt;</text>
</a>
</g>
<!-- Node9&#45;&gt;Node7 -->
<g id="edge24" class="edge"><title>Node9&#45;&gt;Node7</title>
<path fill="none" stroke="#9a32cd" stroke-dasharray="5,2" d="M384.249,-98.3288C447.877,-127.051 559.837,-177.591 618.203,-203.938"/>
<polygon fill="#9a32cd" stroke="#9a32cd" points="385.401,-95.0085 374.846,-94.0842 382.521,-101.389 385.401,-95.0085"/>
<text text-anchor="middle" x="495" y="-179" font-family="Helvetica,sans-Serif" font-size="10.00"> m_reference_count</text>
</g>
<!-- Node13 -->
<g id="node31" class="node"><title>Node13</title>
<a xlink:href="classstxxl_1_1btree_1_1btree__iterator__base.html" target="_top" xlink:title="stxxl::btree::btree\l_iterator_base\&lt; self\l_type \&gt;">
<polygon fill="none" stroke="black" points="851,-52.5 851,-99.5 961,-99.5 961,-52.5 851,-52.5"/>
<text text-anchor="start" x="859" y="-86.5" font-family="Helvetica,sans-Serif" font-size="10.00">stxxl::btree::btree</text>
<text text-anchor="start" x="859" y="-73.5" font-family="Helvetica,sans-Serif" font-size="10.00">_iterator_base&lt; self</text>
<text text-anchor="middle" x="906" y="-60.5" font-family="Helvetica,sans-Serif" font-size="10.00">_type &gt;</text>
</a>
</g>
<!-- Node9&#45;&gt;Node13 -->
<g id="edge40" class="edge"><title>Node9&#45;&gt;Node13</title>
<path fill="none" stroke="#9a32cd" stroke-dasharray="5,2" d="M409.671,-76.8723C525.083,-76.6694 747.753,-76.2781 850.977,-76.0967"/>
<polygon fill="#9a32cd" stroke="#9a32cd" points="409.514,-73.3725 399.521,-76.8901 409.527,-80.3724 409.514,-73.3725"/>
<text text-anchor="middle" x="656" y="-81" font-family="Helvetica,sans-Serif" font-size="10.00"> pos</text>
</g>
<!-- Node14 -->
<g id="node34" class="node"><title>Node14</title>
<a xlink:href="classstxxl_1_1btree_1_1btree__iterator__base.html" target="_top" xlink:title="stxxl::btree::btree\l_iterator_base\&lt; BTreeType \&gt;">
<polygon fill="none" stroke="black" points="578,-7 578,-41 734,-41 734,-7 578,-7"/>
<text text-anchor="start" x="586" y="-28" font-family="Helvetica,sans-Serif" font-size="10.00">stxxl::btree::btree</text>
<text text-anchor="middle" x="656" y="-15" font-family="Helvetica,sans-Serif" font-size="10.00">_iterator_base&lt; BTreeType &gt;</text>
</a>
</g>
<!-- Node9&#45;&gt;Node14 -->
<g id="edge44" class="edge"><title>Node9&#45;&gt;Node14</title>
<path fill="none" stroke="#9a32cd" stroke-dasharray="5,2" d="M400.056,-57.1512C410.007,-54.4665 420.234,-51.9648 430,-50 478.689,-40.2038 534.076,-33.7581 577.833,-29.735"/>
<polygon fill="#9a32cd" stroke="#9a32cd" points="398.921,-53.8339 390.223,-59.8838 400.795,-60.5783 398.921,-53.8339"/>
<text text-anchor="middle" x="495" y="-54" font-family="Helvetica,sans-Serif" font-size="10.00"> pos</text>
</g>
<!-- Node10 -->
<g id="node22" class="node"><title>Node10</title>
<a xlink:href="structstxxl_1_1choose__int__types.html" target="_top" xlink:title="stxxl::choose_int_types\l\&lt; PtrSize \&gt;">
<polygon fill="none" stroke="black" points="0.5,-60 0.5,-94 125.5,-94 125.5,-60 0.5,-60"/>
<text text-anchor="start" x="8.5" y="-81" font-family="Helvetica,sans-Serif" font-size="10.00">stxxl::choose_int_types</text>
<text text-anchor="middle" x="63" y="-68" font-family="Helvetica,sans-Serif" font-size="10.00">&lt; PtrSize &gt;</text>
</a>
</g>
<!-- Node10&#45;&gt;Node9 -->
<g id="edge26" class="edge"><title>Node10&#45;&gt;Node9</title>
<path fill="none" stroke="orange" stroke-dasharray="5,2" d="M135.672,-77C178.827,-77 232.999,-77 274.277,-77"/>
<polygon fill="orange" stroke="orange" points="135.518,-73.5001 125.518,-77 135.518,-80.5001 135.518,-73.5001"/>
<text text-anchor="middle" x="194" y="-81" font-family="Helvetica,sans-Serif" font-size="10.00"> &lt; my_pointer_size &gt;</text>
</g>
<!-- Node11&#45;&gt;Node3 -->
<g id="edge28" class="edge"><title>Node11&#45;&gt;Node3</title>
<path fill="none" stroke="#9a32cd" stroke-dasharray="5,2" d="M1192.74,-191.952C1219.87,-196.39 1251.71,-202.437 1280,-210 1296.58,-214.432 1314.69,-220.905 1328.97,-226.403"/>
<polygon fill="#9a32cd" stroke="#9a32cd" points="1193.02,-188.452 1182.59,-190.33 1191.91,-195.364 1193.02,-188.452"/>
<text text-anchor="middle" x="1243" y="-214" font-family="Helvetica,sans-Serif" font-size="10.00"> disk_allocators</text>
</g>
<!-- Node12 -->
<g id="node29" class="node"><title>Node12</title>
<a xlink:href="classstxxl_1_1btree_1_1btree__iterator.html" target="_top" xlink:title="stxxl::btree::btree\l_iterator\&lt; self_type \&gt;">
<polygon fill="none" stroke="black" points="1070.5,-59 1070.5,-93 1187.5,-93 1187.5,-59 1070.5,-59"/>
<text text-anchor="start" x="1078.5" y="-80" font-family="Helvetica,sans-Serif" font-size="10.00">stxxl::btree::btree</text>
<text text-anchor="middle" x="1129" y="-67" font-family="Helvetica,sans-Serif" font-size="10.00">_iterator&lt; self_type &gt;</text>
</a>
</g>
<!-- Node12&#45;&gt;Node1 -->
<g id="edge36" class="edge"><title>Node12&#45;&gt;Node1</title>
<path fill="none" stroke="#9a32cd" stroke-dasharray="5,2" d="M1184.87,-96.5367C1260.87,-124.473 1397.39,-174.655 1485.01,-206.861"/>
<polygon fill="#9a32cd" stroke="#9a32cd" points="1186.05,-93.2425 1175.46,-93.0774 1183.64,-99.8127 1186.05,-93.2425"/>
<text text-anchor="middle" x="1355" y="-182" font-family="Helvetica,sans-Serif" font-size="10.00"> m_end_iterator</text>
</g>
<!-- Node13&#45;&gt;Node12 -->
<g id="edge38" class="edge"><title>Node13&#45;&gt;Node12</title>
<path fill="none" stroke="midnightblue" d="M971.484,-76C1002.75,-76 1039.87,-76 1070.22,-76"/>
<polygon fill="midnightblue" stroke="midnightblue" points="971.124,-72.5001 961.124,-76 971.124,-79.5001 971.124,-72.5001"/>
</g>
<!-- Node14&#45;&gt;Node13 -->
<g id="edge42" class="edge"><title>Node14&#45;&gt;Node13</title>
<path fill="none" stroke="orange" stroke-dasharray="5,2" d="M744.411,-35.0811C770.225,-39.0164 798.379,-43.993 824,-50 832.724,-52.0454 841.863,-54.5603 850.744,-57.2122"/>
<polygon fill="orange" stroke="orange" points="744.673,-31.5815 734.266,-33.569 743.641,-38.5051 744.673,-31.5815"/>
<text text-anchor="middle" x="788" y="-54" font-family="Helvetica,sans-Serif" font-size="10.00"> &lt; self_type &gt;</text>
</g>
<!-- Node15 -->
<g id="node37" class="node"><title>Node15</title>
<a xlink:href="classstxxl_1_1btree_1_1btree__iterator.html" target="_top" xlink:title="stxxl::btree::btree\l_iterator\&lt; BTreeType \&gt;">
<polygon fill="none" stroke="black" points="842,-0 842,-34 970,-34 970,-0 842,-0"/>
<text text-anchor="start" x="850" y="-21" font-family="Helvetica,sans-Serif" font-size="10.00">stxxl::btree::btree</text>
<text text-anchor="middle" x="906" y="-8" font-family="Helvetica,sans-Serif" font-size="10.00">_iterator&lt; BTreeType &gt;</text>
</a>
</g>
<!-- Node14&#45;&gt;Node15 -->
<g id="edge48" class="edge"><title>Node14&#45;&gt;Node15</title>
<path fill="none" stroke="midnightblue" d="M744.38,-21.5254C776.545,-20.6247 812.259,-19.6248 841.917,-18.7943"/>
<polygon fill="midnightblue" stroke="midnightblue" points="743.971,-18.0353 734.073,-21.8139 744.167,-25.0326 743.971,-18.0353"/>
</g>
<!-- Node15&#45;&gt;Node12 -->
<g id="edge46" class="edge"><title>Node15&#45;&gt;Node12</title>
<path fill="none" stroke="orange" stroke-dasharray="5,2" d="M979.984,-36.5744C1009.31,-44.3344 1042.57,-53.1318 1070.2,-60.4443"/>
<polygon fill="orange" stroke="orange" points="980.764,-33.1603 970.202,-33.9861 978.974,-39.9275 980.764,-33.1603"/>
<text text-anchor="middle" x="1020" y="-60" font-family="Helvetica,sans-Serif" font-size="10.00"> &lt; self_type &gt;</text>
</g>
</g>
</svg>
