<?xml version="1.0" encoding="UTF-8" standalone="no"?>
<!DOCTYPE svg PUBLIC "-//W3C//DTD SVG 1.1//EN"
 "http://www.w3.org/Graphics/SVG/1.1/DTD/svg11.dtd">
<!-- Generated by graphviz version 2.26.3 (20100126.1600)
 -->
<!-- Title: stxxl::file Pages: 1 -->
<svg width="351pt" height="288pt"
 viewBox="0.00 0.00 351.00 288.00" xmlns="http://www.w3.org/2000/svg" xmlns:xlink="http://www.w3.org/1999/xlink">
<g id="graph1" class="graph" transform="scale(1 1) rotate(0) translate(4 284)">
<title>stxxl::file</title>
<!-- Node1 -->
<g id="node1" class="node"><title>Node1</title>
<polygon fill="#bfbfbf" stroke="black" points="30,-0.5 30,-21.5 86,-21.5 86,-0.5 30,-0.5"/>
<text text-anchor="middle" x="58" y="-8.5" font-family="Helvetica,sans-Serif" font-size="10.00">stxxl::file</text>
</g>
<!-- Node2 -->
<g id="node2" class="node"><title>Node2</title>
<a xlink:href="classstxxl_1_1noncopyable.html" target="_top" xlink:title="stxxl::noncopyable">
<polygon fill="none" stroke="black" points="0,-251.5 0,-272.5 102,-272.5 102,-251.5 0,-251.5"/>
<text text-anchor="middle" x="51" y="-259.5" font-family="Helvetica,sans-Serif" font-size="10.00">stxxl::noncopyable</text>
</a>
</g>
<!-- Node2&#45;&gt;Node1 -->
<g id="edge2" class="edge"><title>Node2&#45;&gt;Node1</title>
<path fill="none" stroke="#8b1a1a" d="M49.3318,-240.856C46.8594,-205.728 43.0208,-133.152 48,-72 49.4457,-54.2442 53.2212,-33.8667 55.6972,-21.7334"/>
<polygon fill="#8b1a1a" stroke="#8b1a1a" points="45.8735,-241.549 50.1032,-251.263 52.8543,-241.032 45.8735,-241.549"/>
</g>
<!-- Node4 -->
<g id="node6" class="node"><title>Node4</title>
<a xlink:href="classstxxl_1_1mutex.html" target="_top" xlink:title="stxxl::mutex">
<polygon fill="none" stroke="black" points="57,-165.5 57,-186.5 127,-186.5 127,-165.5 57,-165.5"/>
<text text-anchor="middle" x="92" y="-173.5" font-family="Helvetica,sans-Serif" font-size="10.00">stxxl::mutex</text>
</a>
</g>
<!-- Node2&#45;&gt;Node4 -->
<g id="edge8" class="edge"><title>Node2&#45;&gt;Node4</title>
<path fill="none" stroke="#8b1a1a" d="M60.4235,-242.234C68.6694,-224.937 80.3324,-200.474 86.9315,-186.632"/>
<polygon fill="#8b1a1a" stroke="#8b1a1a" points="57.1715,-240.922 56.0274,-251.455 63.4902,-243.934 57.1715,-240.922"/>
</g>
<!-- Node3 -->
<g id="node4" class="node"><title>Node3</title>
<a xlink:href="classstxxl_1_1atomic__counted__object.html" target="_top" xlink:title="Provides reference counting abilities for use with counting_ptr with mutex locking. ">
<polygon fill="none" stroke="black" points="57,-73 57,-107 173,-107 173,-73 57,-73"/>
<text text-anchor="start" x="65" y="-94" font-family="Helvetica,sans-Serif" font-size="10.00">stxxl::atomic_counted</text>
<text text-anchor="middle" x="115" y="-81" font-family="Helvetica,sans-Serif" font-size="10.00">_object</text>
</a>
</g>
<!-- Node3&#45;&gt;Node1 -->
<g id="edge4" class="edge"><title>Node3&#45;&gt;Node1</title>
<path fill="none" stroke="#9a32cd" stroke-dasharray="5,2" d="M96.7356,-64.6862C86.2112,-50.0997 73.5393,-32.5369 65.6244,-21.5672"/>
<polygon fill="#9a32cd" stroke="#9a32cd" points="93.9423,-66.7966 102.632,-72.8582 99.619,-62.7007 93.9423,-66.7966"/>
<text text-anchor="middle" x="125" y="-44.5" font-family="Helvetica,sans-Serif" font-size="10.00"> m_request_ref</text>
</g>
<!-- Node4&#45;&gt;Node3 -->
<g id="edge6" class="edge"><title>Node4&#45;&gt;Node3</title>
<path fill="none" stroke="#9a32cd" stroke-dasharray="5,2" d="M90.0069,-155.277C89.7373,-146.134 90.2648,-135.361 93,-126 94.931,-119.391 98.4101,-112.782 102.04,-107.064"/>
<polygon fill="#9a32cd" stroke="#9a32cd" points="86.5234,-155.653 90.636,-165.417 93.5099,-155.219 86.5234,-155.653"/>
<text text-anchor="middle" x="157.5" y="-130.5" font-family="Helvetica,sans-Serif" font-size="10.00"> m_reference_count_mutex</text>
</g>
<!-- Node5 -->
<g id="node9" class="node"><title>Node5</title>
<a xlink:href="structstxxl_1_1choose__int__types.html" target="_top" xlink:title="stxxl::choose_int_types\l\&lt; my_pointer_size \&gt;">
<polygon fill="none" stroke="black" points="181.5,-159 181.5,-193 306.5,-193 306.5,-159 181.5,-159"/>
<text text-anchor="start" x="189.5" y="-180" font-family="Helvetica,sans-Serif" font-size="10.00">stxxl::choose_int_types</text>
<text text-anchor="middle" x="244" y="-167" font-family="Helvetica,sans-Serif" font-size="10.00">&lt; my_pointer_size &gt;</text>
</a>
</g>
<!-- Node5&#45;&gt;Node3 -->
<g id="edge10" class="edge"><title>Node5&#45;&gt;Node3</title>
<path fill="none" stroke="#9a32cd" stroke-dasharray="5,2" d="M236.869,-149.099C233.526,-140.764 228.743,-132.162 222,-126 208.472,-113.638 190.553,-105.503 173.254,-100.158"/>
<polygon fill="#9a32cd" stroke="#9a32cd" points="233.58,-150.297 240.164,-158.598 240.194,-148.003 233.58,-150.297"/>
<text text-anchor="middle" x="278.5" y="-130.5" font-family="Helvetica,sans-Serif" font-size="10.00"> m_reference_count</text>
</g>
<!-- Node6 -->
<g id="node11" class="node"><title>Node6</title>
<a xlink:href="structstxxl_1_1choose__int__types.html" target="_top" xlink:title="stxxl::choose_int_types\l\&lt; PtrSize \&gt;">
<polygon fill="none" stroke="black" points="181.5,-245 181.5,-279 306.5,-279 306.5,-245 181.5,-245"/>
<text text-anchor="start" x="189.5" y="-266" font-family="Helvetica,sans-Serif" font-size="10.00">stxxl::choose_int_types</text>
<text text-anchor="middle" x="244" y="-253" font-family="Helvetica,sans-Serif" font-size="10.00">&lt; PtrSize &gt;</text>
</a>
</g>
<!-- Node6&#45;&gt;Node5 -->
<g id="edge12" class="edge"><title>Node6&#45;&gt;Node5</title>
<path fill="none" stroke="orange" stroke-dasharray="5,2" d="M244,-234.342C244,-220.774 244,-204.861 244,-193.084"/>
<polygon fill="orange" stroke="orange" points="240.5,-234.597 244,-244.597 247.5,-234.597 240.5,-234.597"/>
<text text-anchor="middle" x="293.5" y="-216.5" font-family="Helvetica,sans-Serif" font-size="10.00"> &lt; my_pointer_size &gt;</text>
</g>
</g>
</svg>
