<?xml version="1.0" encoding="UTF-8" standalone="no"?>
<!DOCTYPE svg PUBLIC "-//W3C//DTD SVG 1.1//EN"
 "http://www.w3.org/Graphics/SVG/1.1/DTD/svg11.dtd">
<!-- Generated by graphviz version 2.26.3 (20100126.1600)
 -->
<!-- Title: stxxl::lru_pager&lt; npages_ &gt; Pages: 1 -->
<svg width="254pt" height="262pt"
 viewBox="0.00 0.00 254.00 262.00" xmlns="http://www.w3.org/2000/svg" xmlns:xlink="http://www.w3.org/1999/xlink">
<g id="graph1" class="graph" transform="scale(1 1) rotate(0) translate(4 258)">
<title>stxxl::lru_pager&lt; npages_ &gt;</title>
<!-- Node1 -->
<g id="node1" class="node"><title>Node1</title>
<polygon fill="#bfbfbf" stroke="black" points="0,-0.5 0,-21.5 146,-21.5 146,-0.5 0,-0.5"/>
<text text-anchor="middle" x="73" y="-8.5" font-family="Helvetica,sans-Serif" font-size="10.00">stxxl::lru_pager&lt; npages_ &gt;</text>
</g>
<!-- Node2 -->
<g id="node2" class="node"><title>Node2</title>
<a xlink:href="classstxxl_1_1noncopyable.html" target="_top" xlink:title="stxxl::noncopyable">
<polygon fill="none" stroke="black" points="31,-232.5 31,-253.5 133,-253.5 133,-232.5 31,-232.5"/>
<text text-anchor="middle" x="82" y="-240.5" font-family="Helvetica,sans-Serif" font-size="10.00">stxxl::noncopyable</text>
</a>
</g>
<!-- Node2&#45;&gt;Node1 -->
<g id="edge2" class="edge"><title>Node2&#45;&gt;Node1</title>
<path fill="none" stroke="#8b1a1a" d="M77.1049,-222.235C70.1137,-190.093 58.5764,-126.329 63,-72 64.4457,-54.2442 68.2212,-33.8667 70.6972,-21.7334"/>
<polygon fill="#8b1a1a" stroke="#8b1a1a" points="73.7417,-223.232 79.3546,-232.218 80.5705,-221.693 73.7417,-223.232"/>
</g>
<!-- Node3 -->
<g id="node4" class="node"><title>Node3</title>
<a xlink:href="classstxxl_1_1simple__vector.html" target="_top" xlink:title="stxxl::simple_vector\l\&lt; list_type::iterator \&gt;">
<polygon fill="none" stroke="black" points="72,-73 72,-107 184,-107 184,-73 72,-73"/>
<text text-anchor="start" x="80" y="-94" font-family="Helvetica,sans-Serif" font-size="10.00">stxxl::simple_vector</text>
<text text-anchor="middle" x="128" y="-81" font-family="Helvetica,sans-Serif" font-size="10.00">&lt; list_type::iterator &gt;</text>
</a>
</g>
<!-- Node2&#45;&gt;Node3 -->
<g id="edge6" class="edge"><title>Node2&#45;&gt;Node3</title>
<path fill="none" stroke="#8b1a1a" d="M85.6857,-222.253C88.9955,-204.894 94.3514,-179.574 101,-158 106.462,-140.277 114.476,-120.652 120.354,-107.059"/>
<polygon fill="#8b1a1a" stroke="#8b1a1a" points="82.1877,-221.922 83.8132,-232.392 89.0713,-223.194 82.1877,-221.922"/>
</g>
<!-- Node4 -->
<g id="node7" class="node"><title>Node4</title>
<a xlink:href="classstxxl_1_1simple__vector.html" target="_top" xlink:title="Simpler non&#45;growing vector without initialization. ">
<polygon fill="none" stroke="black" points="109.5,-159 109.5,-193 216.5,-193 216.5,-159 109.5,-159"/>
<text text-anchor="start" x="117.5" y="-180" font-family="Helvetica,sans-Serif" font-size="10.00">stxxl::simple_vector</text>
<text text-anchor="middle" x="163" y="-167" font-family="Helvetica,sans-Serif" font-size="10.00">&lt; ValueType &gt;</text>
</a>
</g>
<!-- Node2&#45;&gt;Node4 -->
<g id="edge10" class="edge"><title>Node2&#45;&gt;Node4</title>
<path fill="none" stroke="#8b1a1a" d="M102.861,-225.744C115.028,-215.68 130.315,-203.036 142.431,-193.014"/>
<polygon fill="#8b1a1a" stroke="#8b1a1a" points="100.489,-223.165 95.0141,-232.235 104.95,-228.558 100.489,-223.165"/>
</g>
<!-- Node3&#45;&gt;Node1 -->
<g id="edge4" class="edge"><title>Node3&#45;&gt;Node1</title>
<path fill="none" stroke="#9a32cd" stroke-dasharray="5,2" d="M110.091,-64.2764C99.9932,-49.772 87.9227,-32.4344 80.3569,-21.5672"/>
<polygon fill="#9a32cd" stroke="#9a32cd" points="107.48,-66.651 116.066,-72.8582 113.225,-62.6514 107.48,-66.651"/>
<text text-anchor="middle" x="134.5" y="-44.5" font-family="Helvetica,sans-Serif" font-size="10.00"> history_entry</text>
</g>
<!-- Node4&#45;&gt;Node3 -->
<g id="edge8" class="edge"><title>Node4&#45;&gt;Node3</title>
<path fill="none" stroke="orange" stroke-dasharray="5,2" d="M152.071,-149.145C146.479,-135.406 139.841,-119.094 134.953,-107.084"/>
<polygon fill="orange" stroke="orange" points="148.906,-150.654 155.917,-158.597 155.389,-148.015 148.906,-150.654"/>
<text text-anchor="middle" x="196.5" y="-130.5" font-family="Helvetica,sans-Serif" font-size="10.00"> &lt; list_type::iterator &gt;</text>
</g>
</g>
</svg>
