<?xml version="1.0" encoding="UTF-8" standalone="no"?>
<!DOCTYPE svg PUBLIC "-//W3C//DTD SVG 1.1//EN"
 "http://www.w3.org/Graphics/SVG/1.1/DTD/svg11.dtd">
<!-- Generated by graphviz version 2.26.3 (20100126.1600)
 -->
<!-- Title: stxxl::vector_bufwriter&lt; VectorIteratorType &gt; Pages: 1 -->
<svg width="1060pt" height="259pt"
 viewBox="0.00 0.00 1060.00 259.00" xmlns="http://www.w3.org/2000/svg" xmlns:xlink="http://www.w3.org/1999/xlink">
<g id="graph1" class="graph" transform="scale(1 1) rotate(0) translate(4 255)">
<title>stxxl::vector_bufwriter&lt; VectorIteratorType &gt;</title>
<!-- Node1 -->
<g id="node1" class="node"><title>Node1</title>
<polygon fill="#bfbfbf" stroke="black" points="928,-193 928,-227 1052,-227 1052,-193 928,-193"/>
<text text-anchor="start" x="936" y="-214" font-family="Helvetica,sans-Serif" font-size="10.00">stxxl::vector_bufwriter</text>
<text text-anchor="middle" x="990" y="-201" font-family="Helvetica,sans-Serif" font-size="10.00">&lt; VectorIteratorType &gt;</text>
</g>
<!-- Node2 -->
<g id="node2" class="node"><title>Node2</title>
<a xlink:href="classstxxl_1_1noncopyable.html" target="_top" xlink:title="stxxl::noncopyable">
<polygon fill="none" stroke="black" points="0,-114.5 0,-135.5 102,-135.5 102,-114.5 0,-114.5"/>
<text text-anchor="middle" x="51" y="-122.5" font-family="Helvetica,sans-Serif" font-size="10.00">stxxl::noncopyable</text>
</a>
</g>
<!-- Node2&#45;&gt;Node1 -->
<g id="edge2" class="edge"><title>Node2&#45;&gt;Node1</title>
<path fill="none" stroke="midnightblue" d="M66.6872,-143.368C98.4077,-178.332 174.07,-251 255,-251 255,-251 255,-251 764,-251 820.824,-251 884.413,-238.296 929.628,-227.032"/>
<polygon fill="midnightblue" stroke="midnightblue" points="69.1789,-140.902 59.9254,-135.743 63.9415,-145.547 69.1789,-140.902"/>
</g>
<!-- Node5 -->
<g id="node8" class="node"><title>Node5</title>
<a xlink:href="classstxxl_1_1buf__ostream.html" target="_top" xlink:title="Buffered output stream. ">
<polygon fill="none" stroke="black" points="682.5,-136 682.5,-170 845.5,-170 845.5,-136 682.5,-136"/>
<text text-anchor="start" x="690.5" y="-157" font-family="Helvetica,sans-Serif" font-size="10.00">stxxl::buf_ostream</text>
<text text-anchor="middle" x="764" y="-144" font-family="Helvetica,sans-Serif" font-size="10.00">&lt; BlockType, BidIteratorType &gt;</text>
</a>
</g>
<!-- Node2&#45;&gt;Node5 -->
<g id="edge10" class="edge"><title>Node2&#45;&gt;Node5</title>
<path fill="none" stroke="#8b1a1a" d="M112.316,-129.56C114.912,-129.716 117.481,-129.864 120,-130 322.062,-140.926 560.08,-147.894 682.375,-151.043"/>
<polygon fill="#8b1a1a" stroke="#8b1a1a" points="112.433,-126.061 102.231,-128.922 111.99,-133.047 112.433,-126.061"/>
</g>
<!-- Node6 -->
<g id="node12" class="node"><title>Node6</title>
<a xlink:href="classstxxl_1_1buffered__writer.html" target="_top" xlink:title="stxxl::buffered_writer\l\&lt; block_type \&gt;">
<polygon fill="none" stroke="black" points="460.5,-66 460.5,-100 573.5,-100 573.5,-66 460.5,-66"/>
<text text-anchor="start" x="468.5" y="-87" font-family="Helvetica,sans-Serif" font-size="10.00">stxxl::buffered_writer</text>
<text text-anchor="middle" x="517" y="-74" font-family="Helvetica,sans-Serif" font-size="10.00">&lt; block_type &gt;</text>
</a>
</g>
<!-- Node2&#45;&gt;Node6 -->
<g id="edge16" class="edge"><title>Node2&#45;&gt;Node6</title>
<path fill="none" stroke="#8b1a1a" d="M112.348,-119.471C203.185,-111.284 372.185,-96.052 460.279,-88.1122"/>
<polygon fill="#8b1a1a" stroke="#8b1a1a" points="111.849,-116.002 102.203,-120.385 112.477,-122.973 111.849,-116.002"/>
</g>
<!-- Node8 -->
<g id="node17" class="node"><title>Node8</title>
<a xlink:href="classstxxl_1_1buffered__writer.html" target="_top" xlink:title="Encapsulates asynchronous buffered block writing engine. ">
<polygon fill="none" stroke="black" points="198.5,-0 198.5,-34 311.5,-34 311.5,-0 198.5,-0"/>
<text text-anchor="start" x="206.5" y="-21" font-family="Helvetica,sans-Serif" font-size="10.00">stxxl::buffered_writer</text>
<text text-anchor="middle" x="255" y="-8" font-family="Helvetica,sans-Serif" font-size="10.00">&lt; BlockType &gt;</text>
</a>
</g>
<!-- Node2&#45;&gt;Node8 -->
<g id="edge22" class="edge"><title>Node2&#45;&gt;Node8</title>
<path fill="none" stroke="#8b1a1a" d="M78.943,-109.283C107.256,-93.4667 152.406,-68.5405 192,-48 200.873,-43.3969 210.525,-38.5621 219.548,-34.1163"/>
<polygon fill="#8b1a1a" stroke="#8b1a1a" points="77.0355,-106.34 70.019,-114.278 80.4545,-112.448 77.0355,-106.34"/>
</g>
<!-- Node3 -->
<g id="node4" class="node"><title>Node3</title>
<a xlink:href="structstxxl_1_1choose__int__types.html" target="_top" xlink:title="stxxl::choose_int_types\l\&lt; my_pointer_size \&gt;">
<polygon fill="none" stroke="black" points="454.5,-183 454.5,-217 579.5,-217 579.5,-183 454.5,-183"/>
<text text-anchor="start" x="462.5" y="-204" font-family="Helvetica,sans-Serif" font-size="10.00">stxxl::choose_int_types</text>
<text text-anchor="middle" x="517" y="-191" font-family="Helvetica,sans-Serif" font-size="10.00">&lt; my_pointer_size &gt;</text>
</a>
</g>
<!-- Node3&#45;&gt;Node1 -->
<g id="edge4" class="edge"><title>Node3&#45;&gt;Node1</title>
<path fill="none" stroke="#9a32cd" stroke-dasharray="5,2" d="M589.935,-201.542C682.478,-203.498 840.508,-206.839 927.683,-208.683"/>
<polygon fill="#9a32cd" stroke="#9a32cd" points="589.883,-198.04 579.811,-201.328 589.735,-205.039 589.883,-198.04"/>
<text text-anchor="middle" x="764" y="-210" font-family="Helvetica,sans-Serif" font-size="10.00"> m_nbuffers</text>
</g>
<!-- Node3&#45;&gt;Node5 -->
<g id="edge12" class="edge"><title>Node3&#45;&gt;Node5</title>
<path fill="none" stroke="#9a32cd" stroke-dasharray="5,2" d="M589.825,-184.615C592.584,-184.064 595.316,-183.524 598,-183 625.45,-177.64 655.521,-172.104 682.437,-167.27"/>
<polygon fill="#9a32cd" stroke="#9a32cd" points="588.867,-181.238 579.758,-186.647 590.253,-188.099 588.867,-181.238"/>
<text text-anchor="middle" x="631" y="-187" font-family="Helvetica,sans-Serif" font-size="10.00"> current_elem</text>
</g>
<!-- Node4 -->
<g id="node6" class="node"><title>Node4</title>
<a xlink:href="structstxxl_1_1choose__int__types.html" target="_top" xlink:title="stxxl::choose_int_types\l\&lt; PtrSize \&gt;">
<polygon fill="none" stroke="black" points="192.5,-183 192.5,-217 317.5,-217 317.5,-183 192.5,-183"/>
<text text-anchor="start" x="200.5" y="-204" font-family="Helvetica,sans-Serif" font-size="10.00">stxxl::choose_int_types</text>
<text text-anchor="middle" x="255" y="-191" font-family="Helvetica,sans-Serif" font-size="10.00">&lt; PtrSize &gt;</text>
</a>
</g>
<!-- Node4&#45;&gt;Node3 -->
<g id="edge6" class="edge"><title>Node4&#45;&gt;Node3</title>
<path fill="none" stroke="orange" stroke-dasharray="5,2" d="M327.913,-200C367.636,-200 416.295,-200 454.303,-200"/>
<polygon fill="orange" stroke="orange" points="327.756,-196.5 317.756,-200 327.755,-203.5 327.756,-196.5"/>
<text text-anchor="middle" x="386" y="-204" font-family="Helvetica,sans-Serif" font-size="10.00"> &lt; my_pointer_size &gt;</text>
</g>
<!-- Node5&#45;&gt;Node1 -->
<g id="edge8" class="edge"><title>Node5&#45;&gt;Node1</title>
<path fill="none" stroke="#9a32cd" stroke-dasharray="5,2" d="M855.505,-170.005C873.658,-173.883 892.506,-178.27 910,-183 920.613,-185.87 931.874,-189.375 942.492,-192.898"/>
<polygon fill="#9a32cd" stroke="#9a32cd" points="856.011,-166.535 845.505,-167.904 854.572,-173.385 856.011,-166.535"/>
<text text-anchor="middle" x="887" y="-187" font-family="Helvetica,sans-Serif" font-size="10.00"> m_bufout</text>
</g>
<!-- Node6&#45;&gt;Node5 -->
<g id="edge14" class="edge"><title>Node6&#45;&gt;Node5</title>
<path fill="none" stroke="#9a32cd" stroke-dasharray="5,2" d="M583.539,-100.032C608.8,-106.66 637.79,-114.464 664,-122 679.11,-126.344 695.426,-131.292 710.408,-135.94"/>
<polygon fill="#9a32cd" stroke="#9a32cd" points="584.253,-96.6006 573.693,-97.4575 582.482,-103.373 584.253,-96.6006"/>
<text text-anchor="middle" x="631" y="-126" font-family="Helvetica,sans-Serif" font-size="10.00"> writer</text>
</g>
<!-- Node7 -->
<g id="node15" class="node"><title>Node7</title>
<a xlink:href="classstxxl_1_1counting__ptr.html" target="_top" xlink:title="High&#45;performance smart pointer used as a wrapping reference counting pointer. ">
<polygon fill="none" stroke="black" points="0.5,-38 0.5,-72 101.5,-72 101.5,-38 0.5,-38"/>
<text text-anchor="start" x="8.5" y="-59" font-family="Helvetica,sans-Serif" font-size="10.00">stxxl::counting_ptr</text>
<text text-anchor="middle" x="51" y="-46" font-family="Helvetica,sans-Serif" font-size="10.00">&lt; Type &gt;</text>
</a>
</g>
<!-- Node7&#45;&gt;Node6 -->
<g id="edge18" class="edge"><title>Node7&#45;&gt;Node6</title>
<path fill="none" stroke="#9a32cd" stroke-dasharray="5,2" d="M111.882,-58.6581C202.562,-64.1067 371.871,-74.2798 460.152,-79.5842"/>
<polygon fill="#9a32cd" stroke="#9a32cd" points="111.949,-55.156 101.757,-58.0498 111.529,-62.1434 111.949,-55.156"/>
<text text-anchor="middle" x="255" y="-74" font-family="Helvetica,sans-Serif" font-size="10.00"> write_reqs</text>
</g>
<!-- Node7&#45;&gt;Node8 -->
<g id="edge24" class="edge"><title>Node7&#45;&gt;Node8</title>
<path fill="none" stroke="#9a32cd" stroke-dasharray="5,2" d="M84.4112,-32.8961C95.304,-26.8589 107.755,-21.1241 120,-18 145.209,-11.5683 173.937,-10.526 198.394,-11.4088"/>
<polygon fill="#9a32cd" stroke="#9a32cd" points="82.5472,-29.9313 75.6665,-37.9878 86.0695,-35.9805 82.5472,-29.9313"/>
<text text-anchor="middle" x="147" y="-22" font-family="Helvetica,sans-Serif" font-size="10.00"> write_reqs</text>
</g>
<!-- Node8&#45;&gt;Node6 -->
<g id="edge20" class="edge"><title>Node8&#45;&gt;Node6</title>
<path fill="none" stroke="orange" stroke-dasharray="5,2" d="M321.874,-21.5287C356.513,-25.1388 399.157,-31.5756 436,-43 453.976,-48.5741 472.897,-57.7116 487.928,-65.8469"/>
<polygon fill="orange" stroke="orange" points="322.159,-18.0399 311.864,-20.5401 321.471,-25.006 322.159,-18.0399"/>
<text text-anchor="middle" x="386" y="-47" font-family="Helvetica,sans-Serif" font-size="10.00"> &lt; block_type &gt;</text>
</g>
</g>
</svg>
