<?xml version="1.0" encoding="UTF-8" standalone="no"?>
<!DOCTYPE svg PUBLIC "-//W3C//DTD SVG 1.1//EN"
 "http://www.w3.org/Graphics/SVG/1.1/DTD/svg11.dtd">
<!-- Generated by graphviz version 2.26.3 (20100126.1600)
 -->
<!-- Title: stxxl::stable_ksort_local::bid_sequence&lt; BIDType, AllocStrategy &gt; Pages: 1 -->
<svg width="197pt" height="288pt"
 viewBox="0.00 0.00 197.00 288.00" xmlns="http://www.w3.org/2000/svg" xmlns:xlink="http://www.w3.org/1999/xlink">
<g id="graph1" class="graph" transform="scale(1 1) rotate(0) translate(4 284)">
<title>stxxl::stable_ksort_local::bid_sequence&lt; BIDType, AllocStrategy &gt;</title>
<!-- Node1 -->
<g id="node1" class="node"><title>Node1</title>
<polygon fill="#bfbfbf" stroke="black" points="-0.5,-0.5 -0.5,-47.5 142.5,-47.5 142.5,-0.5 -0.5,-0.5"/>
<text text-anchor="start" x="7.5" y="-34.5" font-family="Helvetica,sans-Serif" font-size="10.00">stxxl::stable_ksort</text>
<text text-anchor="start" x="7.5" y="-21.5" font-family="Helvetica,sans-Serif" font-size="10.00">_local::bid_sequence</text>
<text text-anchor="middle" x="71" y="-8.5" font-family="Helvetica,sans-Serif" font-size="10.00">&lt; BIDType, AllocStrategy &gt;</text>
</g>
<!-- Node2 -->
<g id="node2" class="node"><title>Node2</title>
<a xlink:href="classstxxl_1_1simple__vector.html" target="_top" xlink:title="stxxl::simple_vector\l\&lt; bid_type \&gt;">
<polygon fill="none" stroke="black" points="17.5,-99 17.5,-133 124.5,-133 124.5,-99 17.5,-99"/>
<text text-anchor="start" x="25.5" y="-120" font-family="Helvetica,sans-Serif" font-size="10.00">stxxl::simple_vector</text>
<text text-anchor="middle" x="71" y="-107" font-family="Helvetica,sans-Serif" font-size="10.00">&lt; bid_type &gt;</text>
</a>
</g>
<!-- Node2&#45;&gt;Node1 -->
<g id="edge2" class="edge"><title>Node2&#45;&gt;Node1</title>
<path fill="none" stroke="#9a32cd" stroke-dasharray="5,2" d="M71,-88.4891C71,-75.5472 71,-60.263 71,-47.8232"/>
<polygon fill="#9a32cd" stroke="#9a32cd" points="67.5001,-88.6955 71,-98.6955 74.5001,-88.6955 67.5001,-88.6955"/>
<text text-anchor="middle" x="82" y="-70.5" font-family="Helvetica,sans-Serif" font-size="10.00"> bids</text>
</g>
<!-- Node3 -->
<g id="node4" class="node"><title>Node3</title>
<a xlink:href="classstxxl_1_1noncopyable.html" target="_top" xlink:title="stxxl::noncopyable">
<polygon fill="none" stroke="black" points="30,-258.5 30,-279.5 132,-279.5 132,-258.5 30,-258.5"/>
<text text-anchor="middle" x="81" y="-266.5" font-family="Helvetica,sans-Serif" font-size="10.00">stxxl::noncopyable</text>
</a>
</g>
<!-- Node3&#45;&gt;Node2 -->
<g id="edge4" class="edge"><title>Node3&#45;&gt;Node2</title>
<path fill="none" stroke="#8b1a1a" d="M77.4901,-248.144C76.1679,-239.466 74.7934,-229.271 74,-220 71.3972,-189.585 70.9235,-154.003 70.9021,-133.332"/>
<polygon fill="#8b1a1a" stroke="#8b1a1a" points="74.0537,-248.82 79.0891,-258.142 80.9658,-247.715 74.0537,-248.82"/>
</g>
<!-- Node4 -->
<g id="node6" class="node"><title>Node4</title>
<a xlink:href="classstxxl_1_1simple__vector.html" target="_top" xlink:title="Simpler non&#45;growing vector without initialization. ">
<polygon fill="none" stroke="black" points="82.5,-185 82.5,-219 189.5,-219 189.5,-185 82.5,-185"/>
<text text-anchor="start" x="90.5" y="-206" font-family="Helvetica,sans-Serif" font-size="10.00">stxxl::simple_vector</text>
<text text-anchor="middle" x="136" y="-193" font-family="Helvetica,sans-Serif" font-size="10.00">&lt; ValueType &gt;</text>
</a>
</g>
<!-- Node3&#45;&gt;Node4 -->
<g id="edge8" class="edge"><title>Node3&#45;&gt;Node4</title>
<path fill="none" stroke="#8b1a1a" d="M96.371,-250.275C104.42,-240.471 114.202,-228.554 122.033,-219.014"/>
<polygon fill="#8b1a1a" stroke="#8b1a1a" points="93.4764,-248.285 89.8367,-258.235 98.8869,-252.727 93.4764,-248.285"/>
</g>
<!-- Node4&#45;&gt;Node2 -->
<g id="edge6" class="edge"><title>Node4&#45;&gt;Node2</title>
<path fill="none" stroke="orange" stroke-dasharray="5,2" d="M116.605,-176.339C106.039,-162.36 93.254,-145.444 83.9123,-133.084"/>
<polygon fill="orange" stroke="orange" points="114.024,-178.729 122.846,-184.597 119.609,-174.509 114.024,-178.729"/>
<text text-anchor="middle" x="137.5" y="-156.5" font-family="Helvetica,sans-Serif" font-size="10.00"> &lt; bid_type &gt;</text>
</g>
</g>
</svg>
