<?xml version="1.0" encoding="UTF-8" standalone="no"?>
<!DOCTYPE svg PUBLIC "-//W3C//DTD SVG 1.1//EN"
 "http://www.w3.org/Graphics/SVG/1.1/DTD/svg11.dtd">
<!-- Generated by graphviz version 2.26.3 (20100126.1600)
 -->
<!-- Title: stxxl::mng_local::block_w_info&lt; Type, RawSize, NBids, void &gt; Pages: 1 -->
<svg width="1966pt" height="188pt"
 viewBox="0.00 0.00 1966.00 188.00" xmlns="http://www.w3.org/2000/svg" xmlns:xlink="http://www.w3.org/1999/xlink">
<g id="graph1" class="graph" transform="scale(1 1) rotate(0) translate(4 184)">
<title>stxxl::mng_local::block_w_info&lt; Type, RawSize, NBids, void &gt;</title>
<!-- Node1 -->
<g id="node1" class="node"><title>Node1</title>
<polygon fill="#bfbfbf" stroke="black" points="1822.5,-80.5 1822.5,-127.5 1957.5,-127.5 1957.5,-80.5 1822.5,-80.5"/>
<text text-anchor="start" x="1830.5" y="-114.5" font-family="Helvetica,sans-Serif" font-size="10.00">stxxl::mng_local::block</text>
<text text-anchor="start" x="1830.5" y="-101.5" font-family="Helvetica,sans-Serif" font-size="10.00">_w_info&lt; Type, RawSize,</text>
<text text-anchor="middle" x="1890" y="-88.5" font-family="Helvetica,sans-Serif" font-size="10.00"> NBids, void &gt;</text>
</g>
<!-- Node2 -->
<g id="node2" class="node"><title>Node2</title>
<a xlink:href="classstxxl_1_1mng__local_1_1block__w__bids.html" target="_top" xlink:title="stxxl::mng_local::block\l_w_bids\&lt; Type,((RawSize\l&#45;sizeof(BID\&lt; RawSize \&gt;)*NBids)\l/sizeof(Type)), RawSize, NBids \&gt;">
<polygon fill="none" stroke="black" points="1612.5,-74 1612.5,-134 1783.5,-134 1783.5,-74 1612.5,-74"/>
<text text-anchor="start" x="1620.5" y="-121" font-family="Helvetica,sans-Serif" font-size="10.00">stxxl::mng_local::block</text>
<text text-anchor="start" x="1620.5" y="-108" font-family="Helvetica,sans-Serif" font-size="10.00">_w_bids&lt; Type,((RawSize</text>
<text text-anchor="start" x="1620.5" y="-95" font-family="Helvetica,sans-Serif" font-size="10.00">&#45;sizeof(BID&lt; RawSize &gt;)*NBids)</text>
<text text-anchor="middle" x="1698" y="-82" font-family="Helvetica,sans-Serif" font-size="10.00">/sizeof(Type)), RawSize, NBids &gt;</text>
</a>
</g>
<!-- Node2&#45;&gt;Node1 -->
<g id="edge2" class="edge"><title>Node2&#45;&gt;Node1</title>
<path fill="none" stroke="midnightblue" d="M1793.7,-104C1803.4,-104 1813.1,-104 1822.41,-104"/>
<polygon fill="midnightblue" stroke="midnightblue" points="1793.61,-100.5 1783.61,-104 1793.61,-107.5 1793.61,-100.5"/>
</g>
<!-- Node3 -->
<g id="node4" class="node"><title>Node3</title>
<a xlink:href="classstxxl_1_1mng__local_1_1element__block.html" target="_top" xlink:title="Contains data elements for stxxl::typed_block , not intended for direct use. ">
<polygon fill="none" stroke="black" points="1108,-146 1108,-180 1240,-180 1240,-146 1108,-146"/>
<text text-anchor="start" x="1116" y="-167" font-family="Helvetica,sans-Serif" font-size="10.00">stxxl::mng_local::element</text>
<text text-anchor="middle" x="1174" y="-154" font-family="Helvetica,sans-Serif" font-size="10.00">_block&lt; Type, Size &gt;</text>
</a>
</g>
<!-- Node3&#45;&gt;Node2 -->
<g id="edge4" class="edge"><title>Node3&#45;&gt;Node2</title>
<path fill="none" stroke="midnightblue" d="M1250.4,-172.156C1335.6,-180.021 1476.84,-186.02 1594,-157 1613.38,-152.201 1633.24,-143.249 1650.34,-134.049"/>
<polygon fill="midnightblue" stroke="midnightblue" points="1250.58,-168.658 1240.29,-171.19 1249.91,-175.626 1250.58,-168.658"/>
</g>
<!-- Node12 -->
<g id="node24" class="node"><title>Node12</title>
<a xlink:href="classstxxl_1_1mng__local_1_1block__w__bids.html" target="_top" xlink:title="Contains BID references for stxxl::typed_block , not intended for direct use. ">
<polygon fill="none" stroke="black" points="1292,-95.5 1292,-142.5 1454,-142.5 1454,-95.5 1292,-95.5"/>
<text text-anchor="start" x="1300" y="-129.5" font-family="Helvetica,sans-Serif" font-size="10.00">stxxl::mng_local::block</text>
<text text-anchor="start" x="1300" y="-116.5" font-family="Helvetica,sans-Serif" font-size="10.00">_w_bids&lt; Type, Size, RawSize,</text>
<text text-anchor="middle" x="1373" y="-103.5" font-family="Helvetica,sans-Serif" font-size="10.00"> NBids &gt;</text>
</a>
</g>
<!-- Node3&#45;&gt;Node12 -->
<g id="edge28" class="edge"><title>Node3&#45;&gt;Node12</title>
<path fill="none" stroke="midnightblue" d="M1250.08,-146.179C1263.73,-143.16 1278,-140.004 1291.79,-136.955"/>
<polygon fill="midnightblue" stroke="midnightblue" points="1249.27,-142.772 1240.26,-148.349 1250.78,-149.607 1249.27,-142.772"/>
</g>
<!-- Node4 -->
<g id="node6" class="node"><title>Node4</title>
<a xlink:href="structstxxl_1_1BID.html" target="_top" xlink:title="stxxl::BID\&lt; raw_size \&gt;">
<polygon fill="none" stroke="black" points="1114.5,-69.5 1114.5,-90.5 1233.5,-90.5 1233.5,-69.5 1114.5,-69.5"/>
<text text-anchor="middle" x="1174" y="-77.5" font-family="Helvetica,sans-Serif" font-size="10.00">stxxl::BID&lt; raw_size &gt;</text>
</a>
</g>
<!-- Node4&#45;&gt;Node2 -->
<g id="edge6" class="edge"><title>Node4&#45;&gt;Node2</title>
<path fill="none" stroke="#9a32cd" stroke-dasharray="5,2" d="M1243.93,-75.1654C1259.73,-74.2641 1276.43,-73.4613 1292,-73 1363.97,-70.8672 1382.14,-68.4536 1454,-73 1506.84,-76.3435 1565.74,-83.7212 1612.43,-90.4405"/>
<polygon fill="#9a32cd" stroke="#9a32cd" points="1243.47,-71.6862 1233.7,-75.7694 1243.89,-78.674 1243.47,-71.6862"/>
<text text-anchor="middle" x="1373" y="-77" font-family="Helvetica,sans-Serif" font-size="10.00"> ref</text>
</g>
<!-- Node4&#45;&gt;Node12 -->
<g id="edge30" class="edge"><title>Node4&#45;&gt;Node12</title>
<path fill="none" stroke="#9a32cd" stroke-dasharray="5,2" d="M1237.57,-92.4579C1254.87,-95.8497 1273.86,-99.5699 1291.99,-103.124"/>
<polygon fill="#9a32cd" stroke="#9a32cd" points="1238.08,-88.9912 1227.59,-90.5026 1236.73,-95.8605 1238.08,-88.9912"/>
<text text-anchor="middle" x="1266" y="-103" font-family="Helvetica,sans-Serif" font-size="10.00"> ref</text>
</g>
<!-- Node5 -->
<g id="node8" class="node"><title>Node5</title>
<a xlink:href="classstxxl_1_1file.html" target="_top" xlink:title="Defines interface of file. ">
<polygon fill="none" stroke="black" points="778,-73.5 778,-94.5 834,-94.5 834,-73.5 778,-73.5"/>
<text text-anchor="middle" x="806" y="-81.5" font-family="Helvetica,sans-Serif" font-size="10.00">stxxl::file</text>
</a>
</g>
<!-- Node5&#45;&gt;Node4 -->
<g id="edge8" class="edge"><title>Node5&#45;&gt;Node4</title>
<path fill="none" stroke="#9a32cd" stroke-dasharray="5,2" d="M844.482,-84.946C899.095,-86.104 1002.21,-87.6104 1090,-85 1097.89,-84.7655 1106.18,-84.4075 1114.36,-83.9885"/>
<polygon fill="#9a32cd" stroke="#9a32cd" points="844.299,-81.4412 834.225,-84.7204 844.145,-88.4395 844.299,-81.4412"/>
<text text-anchor="middle" x="959" y="-90" font-family="Helvetica,sans-Serif" font-size="10.00"> storage</text>
</g>
<!-- Node11 -->
<g id="node21" class="node"><title>Node11</title>
<a xlink:href="structstxxl_1_1BID.html" target="_top" xlink:title="Block identifier class. ">
<polygon fill="none" stroke="black" points="910,-41.5 910,-62.5 1008,-62.5 1008,-41.5 910,-41.5"/>
<text text-anchor="middle" x="959" y="-49.5" font-family="Helvetica,sans-Serif" font-size="10.00">stxxl::BID&lt; Size &gt;</text>
</a>
</g>
<!-- Node5&#45;&gt;Node11 -->
<g id="edge24" class="edge"><title>Node5&#45;&gt;Node11</title>
<path fill="none" stroke="#9a32cd" stroke-dasharray="5,2" d="M843.947,-73.8771C846.667,-73.2203 849.372,-72.5876 852,-72 870.812,-67.7937 891.619,-63.7643 909.846,-60.4385"/>
<polygon fill="#9a32cd" stroke="#9a32cd" points="842.998,-70.5064 834.143,-76.3234 844.693,-77.2982 842.998,-70.5064"/>
<text text-anchor="middle" x="872" y="-76" font-family="Helvetica,sans-Serif" font-size="10.00"> storage</text>
</g>
<!-- Node6 -->
<g id="node10" class="node"><title>Node6</title>
<a xlink:href="classstxxl_1_1noncopyable.html" target="_top" xlink:title="stxxl::noncopyable">
<polygon fill="none" stroke="black" points="12,-78.5 12,-99.5 114,-99.5 114,-78.5 12,-78.5"/>
<text text-anchor="middle" x="63" y="-86.5" font-family="Helvetica,sans-Serif" font-size="10.00">stxxl::noncopyable</text>
</a>
</g>
<!-- Node6&#45;&gt;Node5 -->
<g id="edge10" class="edge"><title>Node6&#45;&gt;Node5</title>
<path fill="none" stroke="#8b1a1a" d="M124.402,-90.6688C245.861,-93.5811 525.362,-98.3511 760,-88 765.766,-87.7456 771.927,-87.3179 777.806,-86.8345"/>
<polygon fill="#8b1a1a" stroke="#8b1a1a" points="124.272,-87.1647 114.19,-90.4193 124.101,-94.1626 124.272,-87.1647"/>
</g>
<!-- Node8 -->
<g id="node14" class="node"><title>Node8</title>
<a xlink:href="classstxxl_1_1mutex.html" target="_top" xlink:title="stxxl::mutex">
<polygon fill="none" stroke="black" points="290,-52.5 290,-73.5 360,-73.5 360,-52.5 290,-52.5"/>
<text text-anchor="middle" x="325" y="-60.5" font-family="Helvetica,sans-Serif" font-size="10.00">stxxl::mutex</text>
</a>
</g>
<!-- Node6&#45;&gt;Node8 -->
<g id="edge16" class="edge"><title>Node6&#45;&gt;Node8</title>
<path fill="none" stroke="#8b1a1a" d="M124.156,-82.931C175.679,-77.8181 247.573,-70.6836 289.908,-66.4824"/>
<polygon fill="#8b1a1a" stroke="#8b1a1a" points="123.744,-79.4547 114.138,-83.9252 124.435,-86.4205 123.744,-79.4547"/>
</g>
<!-- Node7 -->
<g id="node12" class="node"><title>Node7</title>
<a xlink:href="classstxxl_1_1atomic__counted__object.html" target="_top" xlink:title="Provides reference counting abilities for use with counting_ptr with mutex locking. ">
<polygon fill="none" stroke="black" points="554,-40 554,-74 670,-74 670,-40 554,-40"/>
<text text-anchor="start" x="562" y="-61" font-family="Helvetica,sans-Serif" font-size="10.00">stxxl::atomic_counted</text>
<text text-anchor="middle" x="612" y="-48" font-family="Helvetica,sans-Serif" font-size="10.00">_object</text>
</a>
</g>
<!-- Node7&#45;&gt;Node5 -->
<g id="edge12" class="edge"><title>Node7&#45;&gt;Node5</title>
<path fill="none" stroke="#9a32cd" stroke-dasharray="5,2" d="M680.288,-64.2619C705.406,-67.2074 734.048,-70.8886 760,-75 765.787,-75.9168 771.957,-77.0298 777.838,-78.1561"/>
<polygon fill="#9a32cd" stroke="#9a32cd" points="680.459,-60.7584 670.123,-63.087 679.655,-67.7121 680.459,-60.7584"/>
<text text-anchor="middle" x="724" y="-79" font-family="Helvetica,sans-Serif" font-size="10.00"> m_request_ref</text>
</g>
<!-- Node8&#45;&gt;Node7 -->
<g id="edge14" class="edge"><title>Node8&#45;&gt;Node7</title>
<path fill="none" stroke="#9a32cd" stroke-dasharray="5,2" d="M370.306,-62.0528C419.938,-61.0152 499.686,-59.348 553.889,-58.2149"/>
<polygon fill="#9a32cd" stroke="#9a32cd" points="370.116,-58.5559 360.192,-62.2643 370.263,-65.5544 370.116,-58.5559"/>
<text text-anchor="middle" x="471" y="-65" font-family="Helvetica,sans-Serif" font-size="10.00"> m_reference_count_mutex</text>
</g>
<!-- Node9 -->
<g id="node17" class="node"><title>Node9</title>
<a xlink:href="structstxxl_1_1choose__int__types.html" target="_top" xlink:title="stxxl::choose_int_types\l\&lt; my_pointer_size \&gt;">
<polygon fill="none" stroke="black" points="262.5,-0 262.5,-34 387.5,-34 387.5,-0 262.5,-0"/>
<text text-anchor="start" x="270.5" y="-21" font-family="Helvetica,sans-Serif" font-size="10.00">stxxl::choose_int_types</text>
<text text-anchor="middle" x="325" y="-8" font-family="Helvetica,sans-Serif" font-size="10.00">&lt; my_pointer_size &gt;</text>
</a>
</g>
<!-- Node9&#45;&gt;Node7 -->
<g id="edge18" class="edge"><title>Node9&#45;&gt;Node7</title>
<path fill="none" stroke="#9a32cd" stroke-dasharray="5,2" d="M397.655,-23.5584C438.446,-27.6673 490.202,-33.5914 536,-41 541.724,-41.9259 547.669,-42.9921 553.599,-44.1255"/>
<polygon fill="#9a32cd" stroke="#9a32cd" points="397.828,-20.0584 387.531,-22.5531 397.137,-27.0242 397.828,-20.0584"/>
<text text-anchor="middle" x="471" y="-45" font-family="Helvetica,sans-Serif" font-size="10.00"> m_reference_count</text>
</g>
<!-- Node10 -->
<g id="node19" class="node"><title>Node10</title>
<a xlink:href="structstxxl_1_1choose__int__types.html" target="_top" xlink:title="stxxl::choose_int_types\l\&lt; PtrSize \&gt;">
<polygon fill="none" stroke="black" points="0.5,-0 0.5,-34 125.5,-34 125.5,-0 0.5,-0"/>
<text text-anchor="start" x="8.5" y="-21" font-family="Helvetica,sans-Serif" font-size="10.00">stxxl::choose_int_types</text>
<text text-anchor="middle" x="63" y="-8" font-family="Helvetica,sans-Serif" font-size="10.00">&lt; PtrSize &gt;</text>
</a>
</g>
<!-- Node10&#45;&gt;Node9 -->
<g id="edge20" class="edge"><title>Node10&#45;&gt;Node9</title>
<path fill="none" stroke="orange" stroke-dasharray="5,2" d="M135.913,-17C175.636,-17 224.295,-17 262.303,-17"/>
<polygon fill="orange" stroke="orange" points="135.756,-13.5001 125.756,-17 135.755,-20.5001 135.756,-13.5001"/>
<text text-anchor="middle" x="194" y="-21" font-family="Helvetica,sans-Serif" font-size="10.00"> &lt; my_pointer_size &gt;</text>
</g>
<!-- Node11&#45;&gt;Node4 -->
<g id="edge22" class="edge"><title>Node11&#45;&gt;Node4</title>
<path fill="none" stroke="orange" stroke-dasharray="5,2" d="M1018.36,-59.7303C1048.28,-63.6274 1084.48,-68.3412 1114.43,-72.242"/>
<polygon fill="orange" stroke="orange" points="1018.42,-56.2095 1008.06,-58.3887 1017.52,-63.1509 1018.42,-56.2095"/>
<text text-anchor="middle" x="1058" y="-72" font-family="Helvetica,sans-Serif" font-size="10.00"> &lt; raw_size &gt;</text>
</g>
<!-- Node12&#45;&gt;Node2 -->
<g id="edge26" class="edge"><title>Node12&#45;&gt;Node2</title>
<path fill="none" stroke="orange" stroke-dasharray="5,2" d="M1464.3,-105.623C1466.89,-105.393 1469.46,-105.184 1472,-105 1518.28,-101.641 1570.02,-101.172 1612.31,-101.64"/>
<polygon fill="orange" stroke="orange" points="1463.83,-102.153 1454.21,-106.61 1464.51,-109.12 1463.83,-102.153"/>
<text text-anchor="start" x="1472.5" y="-148" font-family="Helvetica,sans-Serif" font-size="10.00"> &lt; Type,((RawSize&#45;sizeof</text>
<text text-anchor="start" x="1472.5" y="-135" font-family="Helvetica,sans-Serif" font-size="10.00">(BID&lt; RawSize &gt;)*NBids)</text>
<text text-anchor="start" x="1472.5" y="-122" font-family="Helvetica,sans-Serif" font-size="10.00">/sizeof(Type)), RawSize,</text>
<text text-anchor="middle" x="1533" y="-109" font-family="Helvetica,sans-Serif" font-size="10.00"> NBids &gt;</text>
</g>
</g>
</svg>
