<?xml version="1.0" encoding="UTF-8" standalone="no"?>
<!DOCTYPE svg PUBLIC "-//W3C//DTD SVG 1.1//EN"
 "http://www.w3.org/Graphics/SVG/1.1/DTD/svg11.dtd">
<!-- Generated by graphviz version 2.26.3 (20100126.1600)
 -->
<!-- Title: stxxl::mng_local::add_filler&lt; BaseType, FillSize &gt; Pages: 1 -->
<svg width="1336pt" height="159pt"
 viewBox="0.00 0.00 1336.00 159.00" xmlns="http://www.w3.org/2000/svg" xmlns:xlink="http://www.w3.org/1999/xlink">
<g id="graph1" class="graph" transform="scale(1 1) rotate(0) translate(4 155)">
<title>stxxl::mng_local::add_filler&lt; BaseType, FillSize &gt;</title>
<!-- Node1 -->
<g id="node1" class="node"><title>Node1</title>
<polygon fill="#bfbfbf" stroke="black" points="0,-65 0,-99 146,-99 146,-65 0,-65"/>
<text text-anchor="start" x="8" y="-86" font-family="Helvetica,sans-Serif" font-size="10.00">stxxl::mng_local::add</text>
<text text-anchor="middle" x="73" y="-73" font-family="Helvetica,sans-Serif" font-size="10.00">_filler&lt; BaseType, FillSize &gt;</text>
</g>
<!-- Node2 -->
<g id="node3" class="node"><title>Node2</title>
<a xlink:href="classstxxl_1_1mng__local_1_1add__filler.html" target="_top" xlink:title="stxxl::mng_local::add\l_filler\&lt; Type, RawSize\l&#45;sizeof(Type)\&gt;">
<polygon fill="none" stroke="black" points="330,-103.5 330,-150.5 452,-150.5 452,-103.5 330,-103.5"/>
<text text-anchor="start" x="338" y="-137.5" font-family="Helvetica,sans-Serif" font-size="10.00">stxxl::mng_local::add</text>
<text text-anchor="start" x="338" y="-124.5" font-family="Helvetica,sans-Serif" font-size="10.00">_filler&lt; Type, RawSize</text>
<text text-anchor="middle" x="391" y="-111.5" font-family="Helvetica,sans-Serif" font-size="10.00">&#45;sizeof(Type)&gt;</text>
</a>
</g>
<!-- Node1&#45;&gt;Node2 -->
<g id="edge2" class="edge"><title>Node1&#45;&gt;Node2</title>
<path fill="none" stroke="orange" stroke-dasharray="5,2" d="M129.07,-102.163C140.5,-105.621 152.538,-108.802 164,-111 219.485,-121.638 283.813,-125.384 329.792,-126.618"/>
<polygon fill="orange" stroke="orange" points="129.8,-98.724 119.21,-99.0709 127.705,-105.403 129.8,-98.724"/>
<text text-anchor="start" x="181" y="-142" font-family="Helvetica,sans-Serif" font-size="10.00"> &lt; Type, RawSize&#45;sizeof</text>
<text text-anchor="middle" x="238" y="-129" font-family="Helvetica,sans-Serif" font-size="10.00">(Type)&gt;</text>
</g>
<!-- Node6 -->
<g id="node11" class="node"><title>Node6</title>
<a xlink:href="classstxxl_1_1mng__local_1_1add__filler.html" target="_top" xlink:title="stxxl::mng_local::add\l_filler\&lt; mng_local::block\l_w_info\&lt; Type, RawSize,\l NRef, MetaInfoType \&gt;, RawSize\l&#45;sizeof(mng_local::block_w_info\l\&lt; Type, RawSize, NRef, MetaInfoType \&gt;)\&gt;">
<polygon fill="none" stroke="black" points="470.5,-0 470.5,-86 685.5,-86 685.5,-0 470.5,-0"/>
<text text-anchor="start" x="478.5" y="-73" font-family="Helvetica,sans-Serif" font-size="10.00">stxxl::mng_local::add</text>
<text text-anchor="start" x="478.5" y="-60" font-family="Helvetica,sans-Serif" font-size="10.00">_filler&lt; mng_local::block</text>
<text text-anchor="start" x="478.5" y="-47" font-family="Helvetica,sans-Serif" font-size="10.00">_w_info&lt; Type, RawSize,</text>
<text text-anchor="start" x="478.5" y="-34" font-family="Helvetica,sans-Serif" font-size="10.00"> NRef, MetaInfoType &gt;, RawSize</text>
<text text-anchor="start" x="478.5" y="-21" font-family="Helvetica,sans-Serif" font-size="10.00">&#45;sizeof(mng_local::block_w_info</text>
<text text-anchor="middle" x="578" y="-8" font-family="Helvetica,sans-Serif" font-size="10.00">&lt; Type, RawSize, NRef, MetaInfoType &gt;)&gt;</text>
</a>
</g>
<!-- Node1&#45;&gt;Node6 -->
<g id="edge10" class="edge"><title>Node1&#45;&gt;Node6</title>
<path fill="none" stroke="orange" stroke-dasharray="5,2" d="M103.041,-59.0622C119.962,-47.5954 142.055,-34.9248 164,-29 265.194,-1.67926 385.357,-10.0059 470.088,-22.2451"/>
<polygon fill="orange" stroke="orange" points="100.877,-56.3047 94.6916,-64.9067 104.891,-62.0393 100.877,-56.3047"/>
<text text-anchor="start" x="164" y="-98" font-family="Helvetica,sans-Serif" font-size="10.00"> &lt; mng_local::block</text>
<text text-anchor="start" x="164" y="-85" font-family="Helvetica,sans-Serif" font-size="10.00">_w_info&lt; Type, RawSize,</text>
<text text-anchor="start" x="164" y="-72" font-family="Helvetica,sans-Serif" font-size="10.00"> NRef, MetaInfoType &gt;,</text>
<text text-anchor="start" x="164" y="-59" font-family="Helvetica,sans-Serif" font-size="10.00"> RawSize&#45;sizeof(mng_local</text>
<text text-anchor="start" x="164" y="-46" font-family="Helvetica,sans-Serif" font-size="10.00">::block_w_info&lt; Type, RawSize,</text>
<text text-anchor="middle" x="238" y="-33" font-family="Helvetica,sans-Serif" font-size="10.00"> NRef, MetaInfoType &gt;)&gt;</text>
</g>
<!-- Node3 -->
<g id="node5" class="node"><title>Node3</title>
<a xlink:href="classstxxl_1_1mng__local_1_1expand__struct.html" target="_top" xlink:title="Helper to compute the size of the filler , not intended for direct use. ">
<polygon fill="none" stroke="black" points="704.5,-84 704.5,-118 841.5,-118 841.5,-84 704.5,-84"/>
<text text-anchor="start" x="712.5" y="-105" font-family="Helvetica,sans-Serif" font-size="10.00">stxxl::mng_local::expand</text>
<text text-anchor="middle" x="773" y="-92" font-family="Helvetica,sans-Serif" font-size="10.00">_struct&lt; Type, RawSize &gt;</text>
</a>
</g>
<!-- Node2&#45;&gt;Node3 -->
<g id="edge4" class="edge"><title>Node2&#45;&gt;Node3</title>
<path fill="none" stroke="midnightblue" d="M462.757,-122.116C532.021,-117.402 636.156,-110.314 704.353,-105.672"/>
<polygon fill="midnightblue" stroke="midnightblue" points="462.114,-118.652 452.375,-122.823 462.59,-125.635 462.114,-118.652"/>
</g>
<!-- Node4 -->
<g id="node7" class="node"><title>Node4</title>
<a xlink:href="classstxxl_1_1mng__local_1_1expand__struct.html" target="_top" xlink:title="stxxl::mng_local::expand\l_struct\&lt; mng_local::block\l_w_info\&lt; Type, RawSize, NRef,\l MetaInfoType \&gt;, RawSize \&gt;">
<polygon fill="none" stroke="black" points="998,-42 998,-102 1162,-102 1162,-42 998,-42"/>
<text text-anchor="start" x="1006" y="-89" font-family="Helvetica,sans-Serif" font-size="10.00">stxxl::mng_local::expand</text>
<text text-anchor="start" x="1006" y="-76" font-family="Helvetica,sans-Serif" font-size="10.00">_struct&lt; mng_local::block</text>
<text text-anchor="start" x="1006" y="-63" font-family="Helvetica,sans-Serif" font-size="10.00">_w_info&lt; Type, RawSize, NRef,</text>
<text text-anchor="middle" x="1080" y="-50" font-family="Helvetica,sans-Serif" font-size="10.00"> MetaInfoType &gt;, RawSize &gt;</text>
</a>
</g>
<!-- Node3&#45;&gt;Node4 -->
<g id="edge6" class="edge"><title>Node3&#45;&gt;Node4</title>
<path fill="none" stroke="orange" stroke-dasharray="5,2" d="M851.476,-93.587C896.274,-89.3552 952.379,-84.0554 997.785,-79.7662"/>
<polygon fill="orange" stroke="orange" points="851.141,-90.1029 841.515,-94.5279 851.8,-97.0719 851.141,-90.1029"/>
<text text-anchor="start" x="860.5" y="-135" font-family="Helvetica,sans-Serif" font-size="10.00"> &lt; mng_local::block</text>
<text text-anchor="start" x="860.5" y="-122" font-family="Helvetica,sans-Serif" font-size="10.00">_w_info&lt; Type, RawSize,</text>
<text text-anchor="start" x="860.5" y="-109" font-family="Helvetica,sans-Serif" font-size="10.00"> NRef, MetaInfoType &gt;,</text>
<text text-anchor="middle" x="920" y="-96" font-family="Helvetica,sans-Serif" font-size="10.00"> RawSize &gt;</text>
</g>
<!-- Node5 -->
<g id="node9" class="node"><title>Node5</title>
<a xlink:href="classstxxl_1_1typed__block.html" target="_top" xlink:title="Block containing elements of fixed length. ">
<polygon fill="none" stroke="black" points="1200,-48.5 1200,-95.5 1328,-95.5 1328,-48.5 1200,-48.5"/>
<text text-anchor="start" x="1208" y="-82.5" font-family="Helvetica,sans-Serif" font-size="10.00">stxxl::typed_block</text>
<text text-anchor="start" x="1208" y="-69.5" font-family="Helvetica,sans-Serif" font-size="10.00">&lt; RawSize, Type, NRef,</text>
<text text-anchor="middle" x="1264" y="-56.5" font-family="Helvetica,sans-Serif" font-size="10.00"> MetaInfoType &gt;</text>
</a>
</g>
<!-- Node4&#45;&gt;Node5 -->
<g id="edge8" class="edge"><title>Node4&#45;&gt;Node5</title>
<path fill="none" stroke="midnightblue" d="M1172.16,-72C1181.5,-72 1190.84,-72 1199.78,-72"/>
<polygon fill="midnightblue" stroke="midnightblue" points="1172.04,-68.5001 1162.04,-72 1172.04,-75.5001 1172.04,-68.5001"/>
</g>
<!-- Node6&#45;&gt;Node4 -->
<g id="edge12" class="edge"><title>Node6&#45;&gt;Node4</title>
<path fill="none" stroke="midnightblue" d="M695.696,-49.7991C788.496,-55.1601 915.546,-62.4997 997.701,-67.2457"/>
<polygon fill="midnightblue" stroke="midnightblue" points="695.877,-46.3039 685.692,-49.2212 695.473,-53.2922 695.877,-46.3039"/>
</g>
</g>
</svg>
