<?xml version="1.0" encoding="UTF-8" standalone="no"?>
<!DOCTYPE svg PUBLIC "-//W3C//DTD SVG 1.1//EN"
 "http://www.w3.org/Graphics/SVG/1.1/DTD/svg11.dtd">
<!-- Generated by graphviz version 2.26.3 (20100126.1600)
 -->
<!-- Title: stxxl::hash_map::hash_map_const_iterator&lt; HashMap &gt; Pages: 1 -->
<svg width="289pt" height="414pt"
 viewBox="0.00 0.00 289.00 414.00" xmlns="http://www.w3.org/2000/svg" xmlns:xlink="http://www.w3.org/1999/xlink">
<g id="graph1" class="graph" transform="scale(1 1) rotate(0) translate(4 410)">
<title>stxxl::hash_map::hash_map_const_iterator&lt; HashMap &gt;</title>
<!-- Node1 -->
<g id="node1" class="node"><title>Node1</title>
<polygon fill="#bfbfbf" stroke="black" points="32,-0.5 32,-47.5 152,-47.5 152,-0.5 32,-0.5"/>
<text text-anchor="start" x="40" y="-34.5" font-family="Helvetica,sans-Serif" font-size="10.00">stxxl::hash_map::hash</text>
<text text-anchor="start" x="40" y="-21.5" font-family="Helvetica,sans-Serif" font-size="10.00">_map_const_iterator&lt;</text>
<text text-anchor="middle" x="92" y="-8.5" font-family="Helvetica,sans-Serif" font-size="10.00"> HashMap &gt;</text>
</g>
<!-- Node2 -->
<g id="node2" class="node"><title>Node2</title>
<a xlink:href="classstxxl_1_1hash__map_1_1hash__map__iterator__base.html" target="_top" xlink:title="stxxl::hash_map::hash\l_map_iterator_base\&lt; HashMap \&gt;">
<polygon fill="none" stroke="black" points="4.5,-87 4.5,-121 179.5,-121 179.5,-87 4.5,-87"/>
<text text-anchor="start" x="12.5" y="-108" font-family="Helvetica,sans-Serif" font-size="10.00">stxxl::hash_map::hash</text>
<text text-anchor="middle" x="92" y="-95" font-family="Helvetica,sans-Serif" font-size="10.00">_map_iterator_base&lt; HashMap &gt;</text>
</a>
</g>
<!-- Node2&#45;&gt;Node1 -->
<g id="edge2" class="edge"><title>Node2&#45;&gt;Node1</title>
<path fill="none" stroke="midnightblue" d="M92,-76.5993C92,-67.2038 92,-56.7754 92,-47.6982"/>
<polygon fill="midnightblue" stroke="midnightblue" points="88.5001,-76.6412 92,-86.6412 95.5001,-76.6412 88.5001,-76.6412"/>
</g>
<!-- Node3 -->
<g id="node4" class="node"><title>Node3</title>
<a xlink:href="classstxxl_1_1hash__map_1_1buffered__reader.html" target="_top" xlink:title="Used to scan external memory with prefetching. ">
<polygon fill="none" stroke="black" points="1,-173 1,-207 183,-207 183,-173 1,-173"/>
<text text-anchor="start" x="9" y="-194" font-family="Helvetica,sans-Serif" font-size="10.00">stxxl::hash_map::buffered</text>
<text text-anchor="middle" x="92" y="-181" font-family="Helvetica,sans-Serif" font-size="10.00">_reader&lt; CacheType, BidIterator &gt;</text>
</a>
</g>
<!-- Node3&#45;&gt;Node2 -->
<g id="edge4" class="edge"><title>Node3&#45;&gt;Node2</title>
<path fill="none" stroke="#9a32cd" stroke-dasharray="5,2" d="M92,-162.342C92,-148.774 92,-132.861 92,-121.084"/>
<polygon fill="#9a32cd" stroke="#9a32cd" points="88.5001,-162.597 92,-172.597 95.5001,-162.597 88.5001,-162.597"/>
<text text-anchor="middle" x="112.5" y="-144.5" font-family="Helvetica,sans-Serif" font-size="10.00"> reader_</text>
</g>
<!-- Node4 -->
<g id="node6" class="node"><title>Node4</title>
<a xlink:href="classstxxl_1_1noncopyable.html" target="_top" xlink:title="stxxl::noncopyable">
<polygon fill="none" stroke="black" points="0,-291.5 0,-312.5 102,-312.5 102,-291.5 0,-291.5"/>
<text text-anchor="middle" x="51" y="-299.5" font-family="Helvetica,sans-Serif" font-size="10.00">stxxl::noncopyable</text>
</a>
</g>
<!-- Node4&#45;&gt;Node3 -->
<g id="edge6" class="edge"><title>Node4&#45;&gt;Node3</title>
<path fill="none" stroke="#8b1a1a" d="M58.3755,-281.852C66.193,-260.497 78.4043,-227.14 85.7604,-207.045"/>
<polygon fill="#8b1a1a" stroke="#8b1a1a" points="55.0822,-280.667 54.9313,-291.261 61.6556,-283.074 55.0822,-280.667"/>
</g>
<!-- Node5 -->
<g id="node8" class="node"><title>Node5</title>
<a xlink:href="structstxxl_1_1choose__int__types.html" target="_top" xlink:title="stxxl::choose_int_types\l\&lt; my_pointer_size \&gt;">
<polygon fill="none" stroke="black" points="119.5,-285 119.5,-319 244.5,-319 244.5,-285 119.5,-285"/>
<text text-anchor="start" x="127.5" y="-306" font-family="Helvetica,sans-Serif" font-size="10.00">stxxl::choose_int_types</text>
<text text-anchor="middle" x="182" y="-293" font-family="Helvetica,sans-Serif" font-size="10.00">&lt; my_pointer_size &gt;</text>
</a>
</g>
<!-- Node5&#45;&gt;Node3 -->
<g id="edge8" class="edge"><title>Node5&#45;&gt;Node3</title>
<path fill="none" stroke="#9a32cd" stroke-dasharray="5,2" d="M161.938,-277.035C144.862,-255.784 120.784,-225.82 105.798,-207.17"/>
<polygon fill="#9a32cd" stroke="#9a32cd" points="159.339,-279.387 168.331,-284.99 164.795,-275.002 159.339,-279.387"/>
<text text-anchor="middle" x="194" y="-256.5" font-family="Helvetica,sans-Serif" font-size="10.00"> prefetch_pages_</text>
<text text-anchor="middle" x="194" y="-243.5" font-family="Helvetica,sans-Serif" font-size="10.00">i_value_</text>
<text text-anchor="middle" x="194" y="-230.5" font-family="Helvetica,sans-Serif" font-size="10.00">page_size_</text>
</g>
<!-- Node6 -->
<g id="node10" class="node"><title>Node6</title>
<a xlink:href="structstxxl_1_1choose__int__types.html" target="_top" xlink:title="stxxl::choose_int_types\l\&lt; PtrSize \&gt;">
<polygon fill="none" stroke="black" points="119.5,-371 119.5,-405 244.5,-405 244.5,-371 119.5,-371"/>
<text text-anchor="start" x="127.5" y="-392" font-family="Helvetica,sans-Serif" font-size="10.00">stxxl::choose_int_types</text>
<text text-anchor="middle" x="182" y="-379" font-family="Helvetica,sans-Serif" font-size="10.00">&lt; PtrSize &gt;</text>
</a>
</g>
<!-- Node6&#45;&gt;Node5 -->
<g id="edge10" class="edge"><title>Node6&#45;&gt;Node5</title>
<path fill="none" stroke="orange" stroke-dasharray="5,2" d="M182,-360.342C182,-346.774 182,-330.861 182,-319.084"/>
<polygon fill="orange" stroke="orange" points="178.5,-360.597 182,-370.597 185.5,-360.597 178.5,-360.597"/>
<text text-anchor="middle" x="231.5" y="-342.5" font-family="Helvetica,sans-Serif" font-size="10.00"> &lt; my_pointer_size &gt;</text>
</g>
</g>
</svg>
