<?xml version="1.0" encoding="UTF-8" standalone="no"?>
<!DOCTYPE svg PUBLIC "-//W3C//DTD SVG 1.1//EN"
 "http://www.w3.org/Graphics/SVG/1.1/DTD/svg11.dtd">
<!-- Generated by graphviz version 2.26.3 (20100126.1600)
 -->
<!-- Title: stxxl::btree::node_cache&lt; NodeType, BTreeType &gt; Pages: 1 -->
<svg width="1612pt" height="438pt"
 viewBox="0.00 0.00 1612.00 438.16" xmlns="http://www.w3.org/2000/svg" xmlns:xlink="http://www.w3.org/1999/xlink">
<g id="graph1" class="graph" transform="scale(1 1) rotate(0) translate(4 434.16)">
<title>stxxl::btree::node_cache&lt; NodeType, BTreeType &gt;</title>
<!-- Node1 -->
<g id="node1" class="node"><title>Node1</title>
<polygon fill="#bfbfbf" stroke="black" points="1426.5,-214.16 1426.5,-248.16 1603.5,-248.16 1603.5,-214.16 1426.5,-214.16"/>
<text text-anchor="start" x="1434.5" y="-235.16" font-family="Helvetica,sans-Serif" font-size="10.00">stxxl::btree::node</text>
<text text-anchor="middle" x="1515" y="-222.16" font-family="Helvetica,sans-Serif" font-size="10.00">_cache&lt; NodeType, BTreeType &gt;</text>
</g>
<!-- Node2 -->
<g id="node2" class="node"><title>Node2</title>
<a xlink:href="classstxxl_1_1noncopyable.html" target="_top" xlink:title="stxxl::noncopyable">
<polygon fill="none" stroke="black" points="12,-149.66 12,-170.66 114,-170.66 114,-149.66 12,-149.66"/>
<text text-anchor="middle" x="63" y="-157.66" font-family="Helvetica,sans-Serif" font-size="10.00">stxxl::noncopyable</text>
</a>
</g>
<!-- Node2&#45;&gt;Node1 -->
<g id="edge2" class="edge"><title>Node2&#45;&gt;Node1</title>
<path fill="none" stroke="#8b1a1a" d="M70.5798,-180.382C82.2453,-208.969 107.178,-261.162 144,-292.16 214.526,-351.53 244.811,-368.16 337,-368.16 337,-368.16 337,-368.16 1301,-368.16 1389.01,-368.16 1469.81,-284.959 1501.19,-248.234"/>
<polygon fill="#8b1a1a" stroke="#8b1a1a" points="73.806,-179.022 66.8848,-171.001 67.293,-181.588 73.806,-179.022"/>
</g>
<!-- Node4 -->
<g id="node6" class="node"><title>Node4</title>
<a xlink:href="classstxxl_1_1singleton.html" target="_top" xlink:title="stxxl::singleton\&lt; block\l_manager \&gt;">
<polygon fill="none" stroke="black" points="578,-140.16 578,-174.16 696,-174.16 696,-140.16 578,-140.16"/>
<text text-anchor="start" x="586" y="-161.16" font-family="Helvetica,sans-Serif" font-size="10.00">stxxl::singleton&lt; block</text>
<text text-anchor="middle" x="637" y="-148.16" font-family="Helvetica,sans-Serif" font-size="10.00">_manager &gt;</text>
</a>
</g>
<!-- Node2&#45;&gt;Node4 -->
<g id="edge8" class="edge"><title>Node2&#45;&gt;Node4</title>
<path fill="none" stroke="#8b1a1a" d="M124.304,-150.056C163.548,-144.108 215.622,-137.177 262,-134.16 373.628,-126.898 503.99,-139.688 577.887,-148.923"/>
<polygon fill="#8b1a1a" stroke="#8b1a1a" points="123.712,-146.606 114.36,-151.584 124.775,-153.525 123.712,-146.606"/>
</g>
<!-- Node5 -->
<g id="node9" class="node"><title>Node5</title>
<a xlink:href="classstxxl_1_1singleton.html" target="_top" xlink:title="stxxl::singleton\&lt; INSTANCE,\l destroy_on_exit \&gt;">
<polygon fill="none" stroke="black" points="262.5,-143.16 262.5,-177.16 411.5,-177.16 411.5,-143.16 262.5,-143.16"/>
<text text-anchor="start" x="270.5" y="-164.16" font-family="Helvetica,sans-Serif" font-size="10.00">stxxl::singleton&lt; INSTANCE,</text>
<text text-anchor="middle" x="337" y="-151.16" font-family="Helvetica,sans-Serif" font-size="10.00"> destroy_on_exit &gt;</text>
</a>
</g>
<!-- Node2&#45;&gt;Node5 -->
<g id="edge12" class="edge"><title>Node2&#45;&gt;Node5</title>
<path fill="none" stroke="#8b1a1a" d="M124.291,-160.16C165.085,-160.16 218.933,-160.16 262.242,-160.16"/>
<polygon fill="#8b1a1a" stroke="#8b1a1a" points="124.216,-156.66 114.216,-160.16 124.216,-163.66 124.216,-156.66"/>
</g>
<!-- Node6 -->
<g id="node12" class="node"><title>Node6</title>
<a xlink:href="classstxxl_1_1file.html" target="_top" xlink:title="Defines interface of file. ">
<polygon fill="none" stroke="black" points="849,-225.66 849,-246.66 905,-246.66 905,-225.66 849,-225.66"/>
<text text-anchor="middle" x="877" y="-233.66" font-family="Helvetica,sans-Serif" font-size="10.00">stxxl::file</text>
</a>
</g>
<!-- Node2&#45;&gt;Node6 -->
<g id="edge16" class="edge"><title>Node2&#45;&gt;Node6</title>
<path fill="none" stroke="#8b1a1a" d="M124.57,-171.263C131.12,-172.306 137.691,-173.295 144,-174.16 196.226,-181.32 209.503,-181.374 262,-186.16 454.716,-203.728 503.128,-205.391 696,-221.16 750.054,-225.579 813.179,-230.831 848.785,-233.802"/>
<polygon fill="#8b1a1a" stroke="#8b1a1a" points="124.77,-167.749 114.336,-169.589 123.639,-174.657 124.77,-167.749"/>
</g>
<!-- Node8 -->
<g id="node17" class="node"><title>Node8</title>
<a xlink:href="classstxxl_1_1mutex.html" target="_top" xlink:title="stxxl::mutex">
<polygon fill="none" stroke="black" points="302,-236.66 302,-257.66 372,-257.66 372,-236.66 302,-236.66"/>
<text text-anchor="middle" x="337" y="-244.66" font-family="Helvetica,sans-Serif" font-size="10.00">stxxl::mutex</text>
</a>
</g>
<!-- Node2&#45;&gt;Node8 -->
<g id="edge22" class="edge"><title>Node2&#45;&gt;Node8</title>
<path fill="none" stroke="#8b1a1a" d="M81.4606,-177.711C96.9158,-191.329 120.209,-209.469 144,-219.16 196.208,-240.425 262.146,-245.873 301.869,-247.083"/>
<polygon fill="#8b1a1a" stroke="#8b1a1a" points="83.4847,-174.821 73.7274,-170.693 78.7803,-180.005 83.4847,-174.821"/>
</g>
<!-- Node11 -->
<g id="node24" class="node"><title>Node11</title>
<a xlink:href="classstxxl_1_1disk__allocator.html" target="_top" xlink:title="stxxl::disk_allocator">
<polygon fill="none" stroke="black" points="1026.5,-272.66 1026.5,-293.66 1133.5,-293.66 1133.5,-272.66 1026.5,-272.66"/>
<text text-anchor="middle" x="1080" y="-280.66" font-family="Helvetica,sans-Serif" font-size="10.00">stxxl::disk_allocator</text>
</a>
</g>
<!-- Node2&#45;&gt;Node11 -->
<g id="edge30" class="edge"><title>Node2&#45;&gt;Node11</title>
<path fill="none" stroke="#8b1a1a" d="M77.2709,-178.691C92.2741,-197.192 117.363,-225.488 144,-244.16 220.897,-298.063 243.092,-330.16 337,-330.16 337,-330.16 337,-330.16 877,-330.16 941.211,-330.16 1013.97,-307.565 1052.56,-293.707"/>
<polygon fill="#8b1a1a" stroke="#8b1a1a" points="79.896,-176.369 70.9355,-170.715 74.4147,-180.722 79.896,-176.369"/>
</g>
<!-- Node12 -->
<g id="node29" class="node"><title>Node12</title>
<a xlink:href="classstxxl_1_1lru__pager.html" target="_top" xlink:title="Pager with LRU replacement strategy. ">
<polygon fill="none" stroke="black" points="804,-44.6598 804,-65.6598 950,-65.6598 950,-44.6598 804,-44.6598"/>
<text text-anchor="middle" x="877" y="-52.6598" font-family="Helvetica,sans-Serif" font-size="10.00">stxxl::lru_pager&lt; npages_ &gt;</text>
</a>
</g>
<!-- Node2&#45;&gt;Node12 -->
<g id="edge38" class="edge"><title>Node2&#45;&gt;Node12</title>
<path fill="none" stroke="#8b1a1a" d="M69.8007,-139.765C80.6385,-110.588 104.709,-57.453 144,-30.1598 187.954,0.372461 208.751,-11.5201 262,-6.15978 470.079,14.7864 718.504,-24.722 824.692,-44.6527"/>
<polygon fill="#8b1a1a" stroke="#8b1a1a" points="66.4495,-138.743 66.4029,-149.338 73.0463,-141.085 66.4495,-138.743"/>
</g>
<!-- Node13 -->
<g id="node32" class="node"><title>Node13</title>
<a xlink:href="classstxxl_1_1simple__vector.html" target="_top" xlink:title="stxxl::simple_vector\l\&lt; list_type::iterator \&gt;">
<polygon fill="none" stroke="black" points="581,-38.1598 581,-72.1598 693,-72.1598 693,-38.1598 581,-38.1598"/>
<text text-anchor="start" x="589" y="-59.1598" font-family="Helvetica,sans-Serif" font-size="10.00">stxxl::simple_vector</text>
<text text-anchor="middle" x="637" y="-46.1598" font-family="Helvetica,sans-Serif" font-size="10.00">&lt; list_type::iterator &gt;</text>
</a>
</g>
<!-- Node2&#45;&gt;Node13 -->
<g id="edge42" class="edge"><title>Node2&#45;&gt;Node13</title>
<path fill="none" stroke="#8b1a1a" d="M97.8573,-146.032C111.992,-140.74 128.59,-135.068 144,-131.16 225.95,-110.376 469.674,-77.086 580.733,-62.4568"/>
<polygon fill="#8b1a1a" stroke="#8b1a1a" points="96.5987,-142.767 88.5105,-149.61 99.101,-149.304 96.5987,-142.767"/>
</g>
<!-- Node14 -->
<g id="node35" class="node"><title>Node14</title>
<a xlink:href="classstxxl_1_1simple__vector.html" target="_top" xlink:title="Simpler non&#45;growing vector without initialization. ">
<polygon fill="none" stroke="black" points="283.5,-15.1598 283.5,-49.1598 390.5,-49.1598 390.5,-15.1598 283.5,-15.1598"/>
<text text-anchor="start" x="291.5" y="-36.1598" font-family="Helvetica,sans-Serif" font-size="10.00">stxxl::simple_vector</text>
<text text-anchor="middle" x="337" y="-23.1598" font-family="Helvetica,sans-Serif" font-size="10.00">&lt; ValueType &gt;</text>
</a>
</g>
<!-- Node2&#45;&gt;Node14 -->
<g id="edge46" class="edge"><title>Node2&#45;&gt;Node14</title>
<path fill="none" stroke="#8b1a1a" d="M73.3639,-140.818C86.5723,-118.216 111.628,-81.5728 144,-63.1598 186.625,-38.915 242.622,-32.1634 283.314,-30.8815"/>
<polygon fill="#8b1a1a" stroke="#8b1a1a" points="70.3031,-139.12 68.4417,-149.55 76.4011,-142.557 70.3031,-139.12"/>
</g>
<!-- Node3 -->
<g id="node4" class="node"><title>Node3</title>
<a xlink:href="classstxxl_1_1block__manager.html" target="_top" xlink:title="Block manager class. ">
<polygon fill="none" stroke="black" points="1244,-220.66 1244,-241.66 1358,-241.66 1358,-220.66 1244,-220.66"/>
<text text-anchor="middle" x="1301" y="-228.66" font-family="Helvetica,sans-Serif" font-size="10.00">stxxl::block_manager</text>
</a>
</g>
<!-- Node3&#45;&gt;Node1 -->
<g id="edge4" class="edge"><title>Node3&#45;&gt;Node1</title>
<path fill="none" stroke="#9a32cd" stroke-dasharray="5,2" d="M1368.1,-231.16C1386.53,-231.16 1406.8,-231.16 1426.25,-231.16"/>
<polygon fill="#9a32cd" stroke="#9a32cd" points="1368.07,-227.66 1358.07,-231.16 1368.07,-234.66 1368.07,-227.66"/>
<text text-anchor="middle" x="1392" y="-235.16" font-family="Helvetica,sans-Serif" font-size="10.00"> m_bm</text>
</g>
<!-- Node4&#45;&gt;Node3 -->
<g id="edge6" class="edge"><title>Node4&#45;&gt;Node3</title>
<path fill="none" stroke="midnightblue" d="M706.188,-164.87C837.798,-179.538 1121.92,-211.202 1243.69,-224.773"/>
<polygon fill="midnightblue" stroke="midnightblue" points="706.544,-161.389 696.217,-163.759 705.768,-168.345 706.544,-161.389"/>
</g>
<!-- Node5&#45;&gt;Node4 -->
<g id="edge10" class="edge"><title>Node5&#45;&gt;Node4</title>
<path fill="none" stroke="orange" stroke-dasharray="5,2" d="M421.664,-159.313C471.506,-158.815 533.309,-158.197 577.903,-157.751"/>
<polygon fill="orange" stroke="orange" points="421.507,-155.814 411.543,-159.414 421.577,-162.814 421.507,-155.814"/>
<text text-anchor="middle" x="495" y="-163.16" font-family="Helvetica,sans-Serif" font-size="10.00"> &lt; block_manager &gt;</text>
</g>
<!-- Node6&#45;&gt;Node3 -->
<g id="edge14" class="edge"><title>Node6&#45;&gt;Node3</title>
<path fill="none" stroke="#9a32cd" stroke-dasharray="5,2" d="M915.522,-235.706C990.432,-234.822 1156.06,-232.869 1243.83,-231.834"/>
<polygon fill="#9a32cd" stroke="#9a32cd" points="915.106,-232.21 905.148,-235.828 915.189,-239.21 915.106,-232.21"/>
<text text-anchor="middle" x="1080" y="-238.16" font-family="Helvetica,sans-Serif" font-size="10.00"> disk_files</text>
</g>
<!-- Node6&#45;&gt;Node11 -->
<g id="edge32" class="edge"><title>Node6&#45;&gt;Node11</title>
<path fill="none" stroke="#9a32cd" stroke-dasharray="5,2" d="M915.057,-244.299C941.234,-249.968 976.775,-257.802 1008,-265.16 1017.91,-267.494 1028.56,-270.102 1038.55,-272.592"/>
<polygon fill="#9a32cd" stroke="#9a32cd" points="915.673,-240.852 905.16,-242.163 914.196,-247.694 915.673,-240.852"/>
<text text-anchor="middle" x="988" y="-269.16" font-family="Helvetica,sans-Serif" font-size="10.00"> storage</text>
</g>
<!-- Node7 -->
<g id="node15" class="node"><title>Node7</title>
<a xlink:href="classstxxl_1_1atomic__counted__object.html" target="_top" xlink:title="Provides reference counting abilities for use with counting_ptr with mutex locking. ">
<polygon fill="none" stroke="black" points="579,-230.16 579,-264.16 695,-264.16 695,-230.16 579,-230.16"/>
<text text-anchor="start" x="587" y="-251.16" font-family="Helvetica,sans-Serif" font-size="10.00">stxxl::atomic_counted</text>
<text text-anchor="middle" x="637" y="-238.16" font-family="Helvetica,sans-Serif" font-size="10.00">_object</text>
</a>
</g>
<!-- Node7&#45;&gt;Node6 -->
<g id="edge18" class="edge"><title>Node7&#45;&gt;Node6</title>
<path fill="none" stroke="#9a32cd" stroke-dasharray="5,2" d="M705.33,-244.028C752.869,-241.849 813.78,-239.057 848.796,-237.452"/>
<polygon fill="#9a32cd" stroke="#9a32cd" points="704.927,-240.543 695.097,-244.497 705.247,-247.535 704.927,-240.543"/>
<text text-anchor="middle" x="750" y="-247.16" font-family="Helvetica,sans-Serif" font-size="10.00"> m_request_ref</text>
</g>
<!-- Node8&#45;&gt;Node7 -->
<g id="edge20" class="edge"><title>Node8&#45;&gt;Node7</title>
<path fill="none" stroke="#9a32cd" stroke-dasharray="5,2" d="M382.017,-247.16C434.483,-247.16 521.319,-247.16 578.848,-247.16"/>
<polygon fill="#9a32cd" stroke="#9a32cd" points="382.001,-243.66 372.001,-247.16 382.001,-250.66 382.001,-243.66"/>
<text text-anchor="middle" x="495" y="-251.16" font-family="Helvetica,sans-Serif" font-size="10.00"> m_reference_count_mutex</text>
</g>
<!-- Node8&#45;&gt;Node11 -->
<g id="edge34" class="edge"><title>Node8&#45;&gt;Node11</title>
<path fill="none" stroke="#9a32cd" stroke-dasharray="5,2" d="M382.303,-256.567C397.414,-259.404 414.378,-262.264 430,-264.16 649.944,-290.852 914.66,-287.785 1026.25,-284.9"/>
<polygon fill="#9a32cd" stroke="#9a32cd" points="382.658,-253.072 372.177,-254.62 381.336,-259.946 382.658,-253.072"/>
<text text-anchor="middle" x="750" y="-289.16" font-family="Helvetica,sans-Serif" font-size="10.00"> mutex</text>
</g>
<!-- Node9 -->
<g id="node20" class="node"><title>Node9</title>
<a xlink:href="structstxxl_1_1choose__int__types.html" target="_top" xlink:title="stxxl::choose_int_types\l\&lt; my_pointer_size \&gt;">
<polygon fill="none" stroke="black" points="274.5,-396.16 274.5,-430.16 399.5,-430.16 399.5,-396.16 274.5,-396.16"/>
<text text-anchor="start" x="282.5" y="-417.16" font-family="Helvetica,sans-Serif" font-size="10.00">stxxl::choose_int_types</text>
<text text-anchor="middle" x="337" y="-404.16" font-family="Helvetica,sans-Serif" font-size="10.00">&lt; my_pointer_size &gt;</text>
</a>
</g>
<!-- Node9&#45;&gt;Node7 -->
<g id="edge24" class="edge"><title>Node9&#45;&gt;Node7</title>
<path fill="none" stroke="#9a32cd" stroke-dasharray="5,2" d="M376.871,-391.098C437.475,-357.564 551.492,-294.474 606.193,-264.206"/>
<polygon fill="#9a32cd" stroke="#9a32cd" points="375.031,-388.116 367.975,-396.02 378.42,-394.241 375.031,-388.116"/>
<text text-anchor="middle" x="495" y="-363.16" font-family="Helvetica,sans-Serif" font-size="10.00"> m_reference_count</text>
</g>
<!-- Node10 -->
<g id="node22" class="node"><title>Node10</title>
<a xlink:href="structstxxl_1_1choose__int__types.html" target="_top" xlink:title="stxxl::choose_int_types\l\&lt; PtrSize \&gt;">
<polygon fill="none" stroke="black" points="0.5,-396.16 0.5,-430.16 125.5,-430.16 125.5,-396.16 0.5,-396.16"/>
<text text-anchor="start" x="8.5" y="-417.16" font-family="Helvetica,sans-Serif" font-size="10.00">stxxl::choose_int_types</text>
<text text-anchor="middle" x="63" y="-404.16" font-family="Helvetica,sans-Serif" font-size="10.00">&lt; PtrSize &gt;</text>
</a>
</g>
<!-- Node10&#45;&gt;Node9 -->
<g id="edge26" class="edge"><title>Node10&#45;&gt;Node9</title>
<path fill="none" stroke="orange" stroke-dasharray="5,2" d="M135.672,-413.16C178.827,-413.16 232.999,-413.16 274.277,-413.16"/>
<polygon fill="orange" stroke="orange" points="135.518,-409.66 125.518,-413.16 135.518,-416.66 135.518,-409.66"/>
<text text-anchor="middle" x="194" y="-417.16" font-family="Helvetica,sans-Serif" font-size="10.00"> &lt; my_pointer_size &gt;</text>
</g>
<!-- Node11&#45;&gt;Node3 -->
<g id="edge28" class="edge"><title>Node11&#45;&gt;Node3</title>
<path fill="none" stroke="#9a32cd" stroke-dasharray="5,2" d="M1134.48,-270.342C1171.97,-261.52 1221.16,-249.945 1256.34,-241.667"/>
<polygon fill="#9a32cd" stroke="#9a32cd" points="1133.66,-266.939 1124.72,-272.637 1135.26,-273.753 1133.66,-266.939"/>
<text text-anchor="middle" x="1189" y="-268.16" font-family="Helvetica,sans-Serif" font-size="10.00"> disk_allocators</text>
</g>
<!-- Node12&#45;&gt;Node1 -->
<g id="edge36" class="edge"><title>Node12&#45;&gt;Node1</title>
<path fill="none" stroke="#9a32cd" stroke-dasharray="5,2" d="M925.339,-68.4947C1039.61,-100.017 1326.28,-179.099 1453.05,-214.07"/>
<polygon fill="#9a32cd" stroke="#9a32cd" points="926.044,-65.0584 915.473,-65.773 924.182,-71.8064 926.044,-65.0584"/>
<text text-anchor="middle" x="1189" y="-155.16" font-family="Helvetica,sans-Serif" font-size="10.00"> m_pager</text>
</g>
<!-- Node13&#45;&gt;Node12 -->
<g id="edge40" class="edge"><title>Node13&#45;&gt;Node12</title>
<path fill="none" stroke="#9a32cd" stroke-dasharray="5,2" d="M703.58,-55.1598C734.712,-55.1598 771.871,-55.1598 803.793,-55.1598"/>
<polygon fill="#9a32cd" stroke="#9a32cd" points="703.269,-51.6599 693.269,-55.1598 703.269,-58.6599 703.269,-51.6599"/>
<text text-anchor="middle" x="750" y="-59.1598" font-family="Helvetica,sans-Serif" font-size="10.00"> history_entry</text>
</g>
<!-- Node14&#45;&gt;Node13 -->
<g id="edge44" class="edge"><title>Node14&#45;&gt;Node13</title>
<path fill="none" stroke="orange" stroke-dasharray="5,2" d="M400.67,-37.0411C454.064,-41.1347 529.585,-46.9247 580.776,-50.8493"/>
<polygon fill="orange" stroke="orange" points="400.872,-33.5465 390.634,-36.2717 400.337,-40.526 400.872,-33.5465"/>
<text text-anchor="middle" x="495" y="-52.1598" font-family="Helvetica,sans-Serif" font-size="10.00"> &lt; list_type::iterator &gt;</text>
</g>
</g>
</svg>
