<?xml version="1.0" encoding="UTF-8" standalone="no"?>
<!DOCTYPE svg PUBLIC "-//W3C//DTD SVG 1.1//EN"
 "http://www.w3.org/Graphics/SVG/1.1/DTD/svg11.dtd">
<!-- Generated by graphviz version 2.26.3 (20100126.1600)
 -->
<!-- Title: stxxl::block_scheduler_algorithm_offline_lfd&lt; SwappableBlockType &gt; Pages: 1 -->
<svg width="2148pt" height="489pt"
 viewBox="0.00 0.00 2148.00 489.00" xmlns="http://www.w3.org/2000/svg" xmlns:xlink="http://www.w3.org/1999/xlink">
<g id="graph1" class="graph" transform="scale(1 1) rotate(0) translate(4 485)">
<title>stxxl::block_scheduler_algorithm_offline_lfd&lt; SwappableBlockType &gt;</title>
<!-- Node1 -->
<g id="node1" class="node"><title>Node1</title>
<polygon fill="#bfbfbf" stroke="black" points="2004,-54.5 2004,-101.5 2140,-101.5 2140,-54.5 2004,-54.5"/>
<text text-anchor="start" x="2012" y="-88.5" font-family="Helvetica,sans-Serif" font-size="10.00">stxxl::block_scheduler</text>
<text text-anchor="start" x="2012" y="-75.5" font-family="Helvetica,sans-Serif" font-size="10.00">_algorithm_offline_lfd</text>
<text text-anchor="middle" x="2072" y="-62.5" font-family="Helvetica,sans-Serif" font-size="10.00">&lt; SwappableBlockType &gt;</text>
</g>
<!-- Node2 -->
<g id="node2" class="node"><title>Node2</title>
<a xlink:href="classstxxl_1_1block__scheduler__algorithm.html" target="_top" xlink:title="Interface of a block scheduling algorithm. ">
<polygon fill="none" stroke="black" points="1702.5,-92 1702.5,-126 1887.5,-126 1887.5,-92 1702.5,-92"/>
<text text-anchor="start" x="1710.5" y="-113" font-family="Helvetica,sans-Serif" font-size="10.00">stxxl::block_scheduler</text>
<text text-anchor="middle" x="1795" y="-100" font-family="Helvetica,sans-Serif" font-size="10.00">_algorithm&lt; SwappableBlockType &gt;</text>
</a>
</g>
<!-- Node2&#45;&gt;Node1 -->
<g id="edge2" class="edge"><title>Node2&#45;&gt;Node1</title>
<path fill="none" stroke="midnightblue" d="M1897.95,-97.4781C1933.2,-93.5336 1971.74,-89.2204 2003.57,-85.6577"/>
<polygon fill="midnightblue" stroke="midnightblue" points="1897.17,-94.0438 1887.62,-98.6343 1897.95,-101 1897.17,-94.0438"/>
</g>
<!-- Node3 -->
<g id="node4" class="node"><title>Node3</title>
<a xlink:href="classstxxl_1_1noncopyable.html" target="_top" xlink:title="stxxl::noncopyable">
<polygon fill="none" stroke="black" points="12,-217.5 12,-238.5 114,-238.5 114,-217.5 12,-217.5"/>
<text text-anchor="middle" x="63" y="-225.5" font-family="Helvetica,sans-Serif" font-size="10.00">stxxl::noncopyable</text>
</a>
</g>
<!-- Node3&#45;&gt;Node2 -->
<g id="edge4" class="edge"><title>Node3&#45;&gt;Node2</title>
<path fill="none" stroke="#8b1a1a" d="M76.5364,-209.448C91.1139,-190.833 116.014,-162.733 144,-147 220.958,-103.737 248.715,-100 337,-100 337,-100 337,-100 1446,-100 1532.98,-100 1632.1,-102.828 1702.43,-105.313"/>
<polygon fill="#8b1a1a" stroke="#8b1a1a" points="73.6864,-207.413 70.416,-217.491 79.2569,-211.652 73.6864,-207.413"/>
</g>
<!-- Node4 -->
<g id="node6" class="node"><title>Node4</title>
<a xlink:href="classstxxl_1_1block__scheduler.html" target="_top" xlink:title="Schedules swapping of blocks and provides blocks for temporary storage. ">
<polygon fill="none" stroke="black" points="1378,-141 1378,-175 1514,-175 1514,-141 1378,-141"/>
<text text-anchor="start" x="1386" y="-162" font-family="Helvetica,sans-Serif" font-size="10.00">stxxl::block_scheduler</text>
<text text-anchor="middle" x="1446" y="-149" font-family="Helvetica,sans-Serif" font-size="10.00">&lt; SwappableBlockType &gt;</text>
</a>
</g>
<!-- Node3&#45;&gt;Node4 -->
<g id="edge8" class="edge"><title>Node3&#45;&gt;Node4</title>
<path fill="none" stroke="#8b1a1a" d="M90.106,-212.694C138.223,-187.007 242.415,-138 337,-138 337,-138 337,-138 1263,-138 1301.19,-138 1343.6,-142.358 1377.97,-147.005"/>
<polygon fill="#8b1a1a" stroke="#8b1a1a" points="88.3701,-209.654 81.2497,-217.5 91.7084,-215.807 88.3701,-209.654"/>
</g>
<!-- Node6 -->
<g id="node11" class="node"><title>Node6</title>
<a xlink:href="classstxxl_1_1singleton.html" target="_top" xlink:title="stxxl::singleton\&lt; block\l_manager \&gt;">
<polygon fill="none" stroke="black" points="578,-204 578,-238 696,-238 696,-204 578,-204"/>
<text text-anchor="start" x="586" y="-225" font-family="Helvetica,sans-Serif" font-size="10.00">stxxl::singleton&lt; block</text>
<text text-anchor="middle" x="637" y="-212" font-family="Helvetica,sans-Serif" font-size="10.00">_manager &gt;</text>
</a>
</g>
<!-- Node3&#45;&gt;Node6 -->
<g id="edge14" class="edge"><title>Node3&#45;&gt;Node6</title>
<path fill="none" stroke="#8b1a1a" d="M124.22,-227.253C235.199,-225.9 468.226,-223.058 577.745,-221.723"/>
<polygon fill="#8b1a1a" stroke="#8b1a1a" points="124.148,-223.754 114.191,-227.376 124.233,-230.753 124.148,-223.754"/>
</g>
<!-- Node7 -->
<g id="node14" class="node"><title>Node7</title>
<a xlink:href="classstxxl_1_1singleton.html" target="_top" xlink:title="stxxl::singleton\&lt; INSTANCE,\l destroy_on_exit \&gt;">
<polygon fill="none" stroke="black" points="262.5,-166 262.5,-200 411.5,-200 411.5,-166 262.5,-166"/>
<text text-anchor="start" x="270.5" y="-187" font-family="Helvetica,sans-Serif" font-size="10.00">stxxl::singleton&lt; INSTANCE,</text>
<text text-anchor="middle" x="337" y="-174" font-family="Helvetica,sans-Serif" font-size="10.00"> destroy_on_exit &gt;</text>
</a>
</g>
<!-- Node3&#45;&gt;Node7 -->
<g id="edge18" class="edge"><title>Node3&#45;&gt;Node7</title>
<path fill="none" stroke="#8b1a1a" d="M124.626,-217.27C131.165,-216.155 137.718,-215.047 144,-214 182.998,-207.498 226.471,-200.494 262.27,-194.791"/>
<polygon fill="#8b1a1a" stroke="#8b1a1a" points="123.67,-213.883 114.404,-219.021 124.851,-220.782 123.67,-213.883"/>
</g>
<!-- Node8 -->
<g id="node17" class="node"><title>Node8</title>
<a xlink:href="classstxxl_1_1file.html" target="_top" xlink:title="Defines interface of file. ">
<polygon fill="none" stroke="black" points="804,-354.5 804,-375.5 860,-375.5 860,-354.5 804,-354.5"/>
<text text-anchor="middle" x="832" y="-362.5" font-family="Helvetica,sans-Serif" font-size="10.00">stxxl::file</text>
</a>
</g>
<!-- Node3&#45;&gt;Node8 -->
<g id="edge22" class="edge"><title>Node3&#45;&gt;Node8</title>
<path fill="none" stroke="#8b1a1a" d="M77.2746,-246.551C91.989,-264.272 116.595,-290.257 144,-304 191.616,-327.879 209.454,-316.259 262,-325 336.531,-337.398 354.779,-343.895 430,-351 569.744,-364.2 737.867,-365.302 803.658,-365.167"/>
<polygon fill="#8b1a1a" stroke="#8b1a1a" points="79.8745,-244.199 70.8768,-238.605 74.4222,-248.589 79.8745,-244.199"/>
</g>
<!-- Node10 -->
<g id="node22" class="node"><title>Node10</title>
<a xlink:href="classstxxl_1_1mutex.html" target="_top" xlink:title="stxxl::mutex">
<polygon fill="none" stroke="black" points="302,-294.5 302,-315.5 372,-315.5 372,-294.5 302,-294.5"/>
<text text-anchor="middle" x="337" y="-302.5" font-family="Helvetica,sans-Serif" font-size="10.00">stxxl::mutex</text>
</a>
</g>
<!-- Node3&#45;&gt;Node10 -->
<g id="edge28" class="edge"><title>Node3&#45;&gt;Node10</title>
<path fill="none" stroke="#8b1a1a" d="M83.4244,-244.765C99.0356,-256.632 121.614,-271.834 144,-280 196.69,-299.219 262.199,-304.025 301.747,-305.029"/>
<polygon fill="#8b1a1a" stroke="#8b1a1a" points="85.548,-241.983 75.5138,-238.582 81.237,-247.498 85.548,-241.983"/>
</g>
<!-- Node13 -->
<g id="node29" class="node"><title>Node13</title>
<a xlink:href="classstxxl_1_1disk__allocator.html" target="_top" xlink:title="stxxl::disk_allocator">
<polygon fill="none" stroke="black" points="988.5,-285.5 988.5,-306.5 1095.5,-306.5 1095.5,-285.5 988.5,-285.5"/>
<text text-anchor="middle" x="1042" y="-293.5" font-family="Helvetica,sans-Serif" font-size="10.00">stxxl::disk_allocator</text>
</a>
</g>
<!-- Node3&#45;&gt;Node13 -->
<g id="edge36" class="edge"><title>Node3&#45;&gt;Node13</title>
<path fill="none" stroke="#8b1a1a" d="M120.184,-240.608C175.393,-251.669 261.498,-266 337,-266 337,-266 337,-266 832,-266 888.532,-266 952.771,-276.786 995.15,-285.423"/>
<polygon fill="#8b1a1a" stroke="#8b1a1a" points="120.741,-237.15 110.244,-238.585 119.345,-244.009 120.741,-237.15"/>
</g>
<!-- Node4&#45;&gt;Node2 -->
<g id="edge6" class="edge"><title>Node4&#45;&gt;Node2</title>
<path fill="none" stroke="#9a32cd" stroke-dasharray="5,2" d="M1524.1,-147.035C1576.84,-139.629 1646.72,-129.819 1702.29,-122.016"/>
<polygon fill="#9a32cd" stroke="#9a32cd" points="1523.54,-143.58 1514.12,-148.436 1524.51,-150.512 1523.54,-143.58"/>
<text text-anchor="middle" x="1610" y="-148" font-family="Helvetica,sans-Serif" font-size="10.00"> bs</text>
</g>
<!-- Node5 -->
<g id="node9" class="node"><title>Node5</title>
<a xlink:href="classstxxl_1_1block__manager.html" target="_top" xlink:title="Block manager class. ">
<polygon fill="none" stroke="black" points="1206,-235.5 1206,-256.5 1320,-256.5 1320,-235.5 1206,-235.5"/>
<text text-anchor="middle" x="1263" y="-243.5" font-family="Helvetica,sans-Serif" font-size="10.00">stxxl::block_manager</text>
</a>
</g>
<!-- Node5&#45;&gt;Node4 -->
<g id="edge10" class="edge"><title>Node5&#45;&gt;Node4</title>
<path fill="none" stroke="#9a32cd" stroke-dasharray="5,2" d="M1294.46,-230.87C1326.68,-215.38 1376.66,-191.342 1410.33,-175.154"/>
<polygon fill="#9a32cd" stroke="#9a32cd" points="1292.57,-227.897 1285.07,-235.385 1295.6,-234.206 1292.57,-227.897"/>
<text text-anchor="middle" x="1347" y="-213" font-family="Helvetica,sans-Serif" font-size="10.00"> bm</text>
</g>
<!-- Node6&#45;&gt;Node5 -->
<g id="edge12" class="edge"><title>Node6&#45;&gt;Node5</title>
<path fill="none" stroke="midnightblue" d="M706.357,-223.77C830.96,-228.746 1090.43,-239.108 1205.69,-243.711"/>
<polygon fill="midnightblue" stroke="midnightblue" points="706.306,-220.265 696.174,-223.363 706.027,-227.26 706.306,-220.265"/>
</g>
<!-- Node7&#45;&gt;Node6 -->
<g id="edge16" class="edge"><title>Node7&#45;&gt;Node6</title>
<path fill="none" stroke="orange" stroke-dasharray="5,2" d="M421.877,-186.382C463.682,-188.927 514.712,-193.35 560,-201 565.856,-201.989 571.917,-203.21 577.95,-204.558"/>
<polygon fill="orange" stroke="orange" points="421.92,-182.878 411.733,-185.79 421.512,-189.866 421.92,-182.878"/>
<text text-anchor="middle" x="495" y="-205" font-family="Helvetica,sans-Serif" font-size="10.00"> &lt; block_manager &gt;</text>
</g>
<!-- Node8&#45;&gt;Node5 -->
<g id="edge20" class="edge"><title>Node8&#45;&gt;Node5</title>
<path fill="none" stroke="#9a32cd" stroke-dasharray="5,2" d="M870.117,-362.983C937.094,-358.266 1079.12,-342.981 1188,-295 1211.2,-284.776 1235.26,-267.707 1249.68,-256.654"/>
<polygon fill="#9a32cd" stroke="#9a32cd" points="869.774,-359.498 860.028,-363.652 870.238,-366.482 869.774,-359.498"/>
<text text-anchor="middle" x="1042" y="-353" font-family="Helvetica,sans-Serif" font-size="10.00"> disk_files</text>
</g>
<!-- Node8&#45;&gt;Node13 -->
<g id="edge38" class="edge"><title>Node8&#45;&gt;Node13</title>
<path fill="none" stroke="#9a32cd" stroke-dasharray="5,2" d="M856.341,-348.973C863.15,-344.977 870.692,-340.986 878,-338 917.016,-322.059 929.179,-325.488 970,-315 980.518,-312.298 991.885,-309.323 1002.41,-306.546"/>
<polygon fill="#9a32cd" stroke="#9a32cd" points="854.296,-346.121 847.6,-354.331 857.954,-352.089 854.296,-346.121"/>
<text text-anchor="middle" x="924" y="-342" font-family="Helvetica,sans-Serif" font-size="10.00"> storage</text>
</g>
<!-- Node9 -->
<g id="node20" class="node"><title>Node9</title>
<a xlink:href="classstxxl_1_1atomic__counted__object.html" target="_top" xlink:title="Provides reference counting abilities for use with counting_ptr with mutex locking. ">
<polygon fill="none" stroke="black" points="579,-393 579,-427 695,-427 695,-393 579,-393"/>
<text text-anchor="start" x="587" y="-414" font-family="Helvetica,sans-Serif" font-size="10.00">stxxl::atomic_counted</text>
<text text-anchor="middle" x="637" y="-401" font-family="Helvetica,sans-Serif" font-size="10.00">_object</text>
</a>
</g>
<!-- Node9&#45;&gt;Node8 -->
<g id="edge24" class="edge"><title>Node9&#45;&gt;Node8</title>
<path fill="none" stroke="#9a32cd" stroke-dasharray="5,2" d="M705.237,-397.15C730.701,-392.002 759.785,-385.702 786,-379 791.823,-377.511 798.009,-375.753 803.894,-373.994"/>
<polygon fill="#9a32cd" stroke="#9a32cd" points="704.422,-393.744 695.303,-399.138 705.796,-400.608 704.422,-393.744"/>
<text text-anchor="middle" x="750" y="-398" font-family="Helvetica,sans-Serif" font-size="10.00"> m_request_ref</text>
</g>
<!-- Node10&#45;&gt;Node9 -->
<g id="edge26" class="edge"><title>Node10&#45;&gt;Node9</title>
<path fill="none" stroke="#9a32cd" stroke-dasharray="5,2" d="M376.812,-318.934C431.431,-338.051 529.514,-372.38 588.398,-392.989"/>
<polygon fill="#9a32cd" stroke="#9a32cd" points="377.734,-315.549 367.139,-315.549 375.421,-322.156 377.734,-315.549"/>
<text text-anchor="middle" x="495" y="-385" font-family="Helvetica,sans-Serif" font-size="10.00"> m_reference_count_mutex</text>
</g>
<!-- Node10&#45;&gt;Node13 -->
<g id="edge40" class="edge"><title>Node10&#45;&gt;Node13</title>
<path fill="none" stroke="#9a32cd" stroke-dasharray="5,2" d="M382.798,-304.415C507.798,-302.82 854.395,-298.395 988.267,-296.686"/>
<polygon fill="#9a32cd" stroke="#9a32cd" points="382.399,-300.92 372.444,-304.548 382.488,-307.919 382.399,-300.92"/>
<text text-anchor="middle" x="750" y="-304" font-family="Helvetica,sans-Serif" font-size="10.00"> mutex</text>
</g>
<!-- Node11 -->
<g id="node25" class="node"><title>Node11</title>
<a xlink:href="structstxxl_1_1choose__int__types.html" target="_top" xlink:title="stxxl::choose_int_types\l\&lt; my_pointer_size \&gt;">
<polygon fill="none" stroke="black" points="274.5,-393 274.5,-427 399.5,-427 399.5,-393 274.5,-393"/>
<text text-anchor="start" x="282.5" y="-414" font-family="Helvetica,sans-Serif" font-size="10.00">stxxl::choose_int_types</text>
<text text-anchor="middle" x="337" y="-401" font-family="Helvetica,sans-Serif" font-size="10.00">&lt; my_pointer_size &gt;</text>
</a>
</g>
<!-- Node11&#45;&gt;Node4 -->
<g id="edge42" class="edge"><title>Node11&#45;&gt;Node4</title>
<path fill="none" stroke="#9a32cd" stroke-dasharray="5,2" d="M409.342,-427.023C469.825,-439.764 558.55,-455 637,-455 637,-455 637,-455 1263,-455 1395.33,-455 1435.08,-238.639 1443.89,-175.252"/>
<polygon fill="#9a32cd" stroke="#9a32cd" points="410.021,-423.59 399.51,-424.922 408.557,-430.435 410.021,-423.59"/>
<text text-anchor="start" x="878.5" y="-472" font-family="Helvetica,sans-Serif" font-size="10.00"> remaining_internal</text>
<text text-anchor="middle" x="924" y="-459" font-family="Helvetica,sans-Serif" font-size="10.00">_blocks</text>
</g>
<!-- Node11&#45;&gt;Node9 -->
<g id="edge30" class="edge"><title>Node11&#45;&gt;Node9</title>
<path fill="none" stroke="#9a32cd" stroke-dasharray="5,2" d="M409.675,-410C461.617,-410 530.584,-410 578.881,-410"/>
<polygon fill="#9a32cd" stroke="#9a32cd" points="409.525,-406.5 399.525,-410 409.525,-413.5 409.525,-406.5"/>
<text text-anchor="middle" x="495" y="-414" font-family="Helvetica,sans-Serif" font-size="10.00"> m_reference_count</text>
</g>
<!-- Node12 -->
<g id="node27" class="node"><title>Node12</title>
<a xlink:href="structstxxl_1_1choose__int__types.html" target="_top" xlink:title="stxxl::choose_int_types\l\&lt; PtrSize \&gt;">
<polygon fill="none" stroke="black" points="0.5,-393 0.5,-427 125.5,-427 125.5,-393 0.5,-393"/>
<text text-anchor="start" x="8.5" y="-414" font-family="Helvetica,sans-Serif" font-size="10.00">stxxl::choose_int_types</text>
<text text-anchor="middle" x="63" y="-401" font-family="Helvetica,sans-Serif" font-size="10.00">&lt; PtrSize &gt;</text>
</a>
</g>
<!-- Node12&#45;&gt;Node11 -->
<g id="edge32" class="edge"><title>Node12&#45;&gt;Node11</title>
<path fill="none" stroke="orange" stroke-dasharray="5,2" d="M135.672,-410C178.827,-410 232.999,-410 274.277,-410"/>
<polygon fill="orange" stroke="orange" points="135.518,-406.5 125.518,-410 135.518,-413.5 135.518,-406.5"/>
<text text-anchor="middle" x="194" y="-414" font-family="Helvetica,sans-Serif" font-size="10.00"> &lt; my_pointer_size &gt;</text>
</g>
<!-- Node13&#45;&gt;Node5 -->
<g id="edge34" class="edge"><title>Node13&#45;&gt;Node5</title>
<path fill="none" stroke="#9a32cd" stroke-dasharray="5,2" d="M1098.61,-283.192C1135.15,-274.925 1182.1,-264.303 1216.47,-256.528"/>
<polygon fill="#9a32cd" stroke="#9a32cd" points="1097.58,-279.837 1088.6,-285.457 1099.12,-286.664 1097.58,-279.837"/>
<text text-anchor="middle" x="1151" y="-282" font-family="Helvetica,sans-Serif" font-size="10.00"> disk_allocators</text>
</g>
<!-- Node14 -->
<g id="node35" class="node"><title>Node14</title>
<a xlink:href="classstxxl_1_1addressable__priority__queue.html" target="_top" xlink:title="stxxl::addressable\l_priority_queue\&lt; swappable\l_block_identifier_type,\l stxxl::block_scheduler_algorithm\l_offline_lfd::priority \&gt;">
<polygon fill="none" stroke="black" points="1710,-0.5 1710,-73.5 1880,-73.5 1880,-0.5 1710,-0.5"/>
<text text-anchor="start" x="1718" y="-60.5" font-family="Helvetica,sans-Serif" font-size="10.00">stxxl::addressable</text>
<text text-anchor="start" x="1718" y="-47.5" font-family="Helvetica,sans-Serif" font-size="10.00">_priority_queue&lt; swappable</text>
<text text-anchor="start" x="1718" y="-34.5" font-family="Helvetica,sans-Serif" font-size="10.00">_block_identifier_type,</text>
<text text-anchor="start" x="1718" y="-21.5" font-family="Helvetica,sans-Serif" font-size="10.00"> stxxl::block_scheduler_algorithm</text>
<text text-anchor="middle" x="1795" y="-8.5" font-family="Helvetica,sans-Serif" font-size="10.00">_offline_lfd::priority &gt;</text>
</a>
</g>
<!-- Node14&#45;&gt;Node1 -->
<g id="edge44" class="edge"><title>Node14&#45;&gt;Node1</title>
<path fill="none" stroke="#9a32cd" stroke-dasharray="5,2" d="M1890.72,-51.1672C1927.86,-56.6651 1969.56,-62.8369 2003.59,-67.874"/>
<polygon fill="#9a32cd" stroke="#9a32cd" points="1890.77,-47.6379 1880.37,-49.6359 1889.75,-54.5625 1890.77,-47.6379"/>
<text text-anchor="middle" x="1946" y="-68" font-family="Helvetica,sans-Serif" font-size="10.00"> evictable_blocks</text>
</g>
<!-- Node15 -->
<g id="node37" class="node"><title>Node15</title>
<a xlink:href="classstxxl_1_1addressable__priority__queue.html" target="_top" xlink:title="An internal priority queue that allows removing elements addressed with (a copy of) themselves...">
<polygon fill="none" stroke="black" points="1374.5,-13.5 1374.5,-60.5 1517.5,-60.5 1517.5,-13.5 1374.5,-13.5"/>
<text text-anchor="start" x="1382.5" y="-47.5" font-family="Helvetica,sans-Serif" font-size="10.00">stxxl::addressable</text>
<text text-anchor="start" x="1382.5" y="-34.5" font-family="Helvetica,sans-Serif" font-size="10.00">_priority_queue&lt; KeyType,</text>
<text text-anchor="middle" x="1446" y="-21.5" font-family="Helvetica,sans-Serif" font-size="10.00"> PriorityType, Cmp &gt;</text>
</a>
</g>
<!-- Node15&#45;&gt;Node14 -->
<g id="edge46" class="edge"><title>Node15&#45;&gt;Node14</title>
<path fill="none" stroke="orange" stroke-dasharray="5,2" d="M1527.91,-37C1582.68,-37 1654.57,-37 1709.97,-37"/>
<polygon fill="orange" stroke="orange" points="1527.89,-33.5001 1517.89,-37 1527.89,-40.5001 1527.89,-33.5001"/>
<text text-anchor="start" x="1536" y="-67" font-family="Helvetica,sans-Serif" font-size="10.00"> &lt; swappable_block_identifier</text>
<text text-anchor="start" x="1536" y="-54" font-family="Helvetica,sans-Serif" font-size="10.00">_type, stxxl::block_scheduler</text>
<text text-anchor="middle" x="1610" y="-41" font-family="Helvetica,sans-Serif" font-size="10.00">_algorithm_offline_lfd::priority &gt;</text>
</g>
</g>
</svg>
