<?xml version="1.0" encoding="UTF-8" standalone="no"?>
<!DOCTYPE svg PUBLIC "-//W3C//DTD SVG 1.1//EN"
 "http://www.w3.org/Graphics/SVG/1.1/DTD/svg11.dtd">
<!-- Generated by graphviz version 2.26.3 (20100126.1600)
 -->
<!-- Title: stxxl::stream::basic_runs_creator&lt; Input, CompareType, BlockSize, AllocStr &gt; Pages: 1 -->
<svg width="978pt" height="152pt"
 viewBox="0.00 0.00 978.00 152.00" xmlns="http://www.w3.org/2000/svg" xmlns:xlink="http://www.w3.org/1999/xlink">
<g id="graph1" class="graph" transform="scale(1 1) rotate(0) translate(4 148)">
<title>stxxl::stream::basic_runs_creator&lt; Input, CompareType, BlockSize, AllocStr &gt;</title>
<!-- Node1 -->
<g id="node1" class="node"><title>Node1</title>
<polygon fill="#bfbfbf" stroke="black" points="140,-40 140,-100 280,-100 280,-40 140,-40"/>
<text text-anchor="start" x="148" y="-87" font-family="Helvetica,sans-Serif" font-size="10.00">stxxl::stream::basic</text>
<text text-anchor="start" x="148" y="-74" font-family="Helvetica,sans-Serif" font-size="10.00">_runs_creator&lt; Input,</text>
<text text-anchor="start" x="148" y="-61" font-family="Helvetica,sans-Serif" font-size="10.00"> CompareType, BlockSize,</text>
<text text-anchor="middle" x="210" y="-48" font-family="Helvetica,sans-Serif" font-size="10.00"> AllocStr &gt;</text>
</g>
<!-- Node3 -->
<g id="node5" class="node"><title>Node3</title>
<a xlink:href="classstxxl_1_1stream_1_1runs__creator.html" target="_top" xlink:title="Forms sorted runs of data from a stream. ">
<polygon fill="none" stroke="black" points="472,-92.5 472,-139.5 636,-139.5 636,-92.5 472,-92.5"/>
<text text-anchor="start" x="480" y="-126.5" font-family="Helvetica,sans-Serif" font-size="10.00">stxxl::stream::runs</text>
<text text-anchor="start" x="480" y="-113.5" font-family="Helvetica,sans-Serif" font-size="10.00">_creator&lt; Input, CompareType,</text>
<text text-anchor="middle" x="554" y="-100.5" font-family="Helvetica,sans-Serif" font-size="10.00"> BlockSize, AllocStr &gt;</text>
</a>
</g>
<!-- Node1&#45;&gt;Node3 -->
<g id="edge4" class="edge"><title>Node1&#45;&gt;Node3</title>
<path fill="none" stroke="midnightblue" d="M290.329,-93.5055C292.909,-94.0409 295.47,-94.5414 298,-95 355.591,-105.439 421.42,-110.694 471.901,-113.337"/>
<polygon fill="midnightblue" stroke="midnightblue" points="290.843,-90.0344 280.322,-91.2831 289.325,-96.8679 290.843,-90.0344"/>
</g>
<!-- Node5 -->
<g id="node9" class="node"><title>Node5</title>
<a xlink:href="classstxxl_1_1stream_1_1basic__runs__creator.html" target="_top" xlink:title="stxxl::stream::basic\l_runs_creator\&lt; stream\l::use_push\&lt; ValueType\l \&gt;, cmp_type, BlockSize,\l alloc_strategy_type \&gt;">
<polygon fill="none" stroke="black" points="489,-0.5 489,-73.5 619,-73.5 619,-0.5 489,-0.5"/>
<text text-anchor="start" x="497" y="-60.5" font-family="Helvetica,sans-Serif" font-size="10.00">stxxl::stream::basic</text>
<text text-anchor="start" x="497" y="-47.5" font-family="Helvetica,sans-Serif" font-size="10.00">_runs_creator&lt; stream</text>
<text text-anchor="start" x="497" y="-34.5" font-family="Helvetica,sans-Serif" font-size="10.00">::use_push&lt; ValueType</text>
<text text-anchor="start" x="497" y="-21.5" font-family="Helvetica,sans-Serif" font-size="10.00"> &gt;, cmp_type, BlockSize,</text>
<text text-anchor="middle" x="554" y="-8.5" font-family="Helvetica,sans-Serif" font-size="10.00"> alloc_strategy_type &gt;</text>
</a>
</g>
<!-- Node1&#45;&gt;Node5 -->
<g id="edge8" class="edge"><title>Node1&#45;&gt;Node5</title>
<path fill="none" stroke="orange" stroke-dasharray="5,2" d="M290.234,-56.9498C292.851,-56.6154 295.445,-56.2975 298,-56 362.741,-48.461 437.062,-43.3349 488.887,-40.3252"/>
<polygon fill="orange" stroke="orange" points="289.503,-53.5164 280.056,-58.3131 290.432,-60.4544 289.503,-53.5164"/>
<text text-anchor="start" x="298" y="-86" font-family="Helvetica,sans-Serif" font-size="10.00"> &lt; stream::use_push</text>
<text text-anchor="start" x="298" y="-73" font-family="Helvetica,sans-Serif" font-size="10.00">&lt; ValueType &gt;, cmp_type,</text>
<text text-anchor="middle" x="376" y="-60" font-family="Helvetica,sans-Serif" font-size="10.00"> BlockSize, alloc_strategy_type &gt;</text>
</g>
<!-- Node2 -->
<g id="node2" class="node"><title>Node2</title>
<a xlink:href="classstxxl_1_1noncopyable.html" target="_top" xlink:title="stxxl::noncopyable">
<polygon fill="none" stroke="black" points="0,-59.5 0,-80.5 102,-80.5 102,-59.5 0,-59.5"/>
<text text-anchor="middle" x="51" y="-67.5" font-family="Helvetica,sans-Serif" font-size="10.00">stxxl::noncopyable</text>
</a>
</g>
<!-- Node2&#45;&gt;Node1 -->
<g id="edge2" class="edge"><title>Node2&#45;&gt;Node1</title>
<path fill="none" stroke="#8b1a1a" d="M112.209,-70C121.237,-70 130.597,-70 139.79,-70"/>
<polygon fill="#8b1a1a" stroke="#8b1a1a" points="112.184,-66.5001 102.184,-70 112.184,-73.5001 112.184,-66.5001"/>
</g>
<!-- Node4 -->
<g id="node7" class="node"><title>Node4</title>
<a xlink:href="classstxxl_1_1stream_1_1runs__creator.html" target="_top" xlink:title="stxxl::stream::runs\l_creator\&lt; stream::use\l_push\&lt; ValueType \&gt;, cmp\l_type, block_size, alloc\l_strategy_type \&gt;">
<polygon fill="none" stroke="black" points="832,-45.5 832,-118.5 970,-118.5 970,-45.5 832,-45.5"/>
<text text-anchor="start" x="840" y="-105.5" font-family="Helvetica,sans-Serif" font-size="10.00">stxxl::stream::runs</text>
<text text-anchor="start" x="840" y="-92.5" font-family="Helvetica,sans-Serif" font-size="10.00">_creator&lt; stream::use</text>
<text text-anchor="start" x="840" y="-79.5" font-family="Helvetica,sans-Serif" font-size="10.00">_push&lt; ValueType &gt;, cmp</text>
<text text-anchor="start" x="840" y="-66.5" font-family="Helvetica,sans-Serif" font-size="10.00">_type, block_size, alloc</text>
<text text-anchor="middle" x="901" y="-53.5" font-family="Helvetica,sans-Serif" font-size="10.00">_strategy_type &gt;</text>
</a>
</g>
<!-- Node3&#45;&gt;Node4 -->
<g id="edge6" class="edge"><title>Node3&#45;&gt;Node4</title>
<path fill="none" stroke="orange" stroke-dasharray="5,2" d="M646.189,-106.967C704.508,-101.253 778.665,-93.9868 831.92,-88.7686"/>
<polygon fill="orange" stroke="orange" points="645.845,-103.484 636.234,-107.942 646.528,-110.451 645.845,-103.484"/>
<text text-anchor="start" x="654.5" y="-135" font-family="Helvetica,sans-Serif" font-size="10.00"> &lt; stream::use_push</text>
<text text-anchor="start" x="654.5" y="-122" font-family="Helvetica,sans-Serif" font-size="10.00">&lt; ValueType &gt;, cmp_type,</text>
<text text-anchor="middle" x="734" y="-109" font-family="Helvetica,sans-Serif" font-size="10.00"> block_size, alloc_strategy_type &gt;</text>
</g>
<!-- Node5&#45;&gt;Node4 -->
<g id="edge10" class="edge"><title>Node5&#45;&gt;Node4</title>
<path fill="none" stroke="midnightblue" d="M629.475,-46.7878C689.698,-54.5977 773.372,-65.4488 831.864,-73.0342"/>
<polygon fill="midnightblue" stroke="midnightblue" points="629.635,-43.2794 619.268,-45.4642 628.735,-50.2212 629.635,-43.2794"/>
</g>
</g>
</svg>
