<?xml version="1.0" encoding="UTF-8" standalone="no"?>
<!DOCTYPE svg PUBLIC "-//W3C//DTD SVG 1.1//EN"
 "http://www.w3.org/Graphics/SVG/1.1/DTD/svg11.dtd">
<!-- Generated by graphviz version 2.26.3 (20100126.1600)
 -->
<!-- Title: stxxl::mmap_file Pages: 1 -->
<svg width="250pt" height="204pt"
 viewBox="0.00 0.00 250.00 204.00" xmlns="http://www.w3.org/2000/svg" xmlns:xlink="http://www.w3.org/1999/xlink">
<g id="graph1" class="graph" transform="scale(1 1) rotate(0) translate(4 200)">
<title>stxxl::mmap_file</title>
<!-- Node1 -->
<g id="node1" class="node"><title>Node1</title>
<polygon fill="#bfbfbf" stroke="black" points="72,-0.5 72,-21.5 162,-21.5 162,-0.5 72,-0.5"/>
<text text-anchor="middle" x="117" y="-8.5" font-family="Helvetica,sans-Serif" font-size="10.00">stxxl::mmap_file</text>
</g>
<!-- Node2 -->
<g id="node2" class="node"><title>Node2</title>
<a xlink:href="classstxxl_1_1ufs__file__base.html" target="_top" xlink:title="Base for UNIX file system implementations. ">
<polygon fill="none" stroke="black" points="0,-58.5 0,-79.5 104,-79.5 104,-58.5 0,-58.5"/>
<text text-anchor="middle" x="52" y="-66.5" font-family="Helvetica,sans-Serif" font-size="10.00">stxxl::ufs_file_base</text>
</a>
</g>
<!-- Node2&#45;&gt;Node1 -->
<g id="edge2" class="edge"><title>Node2&#45;&gt;Node1</title>
<path fill="none" stroke="midnightblue" d="M71.3983,-51.6908C82.3711,-41.8996 95.7372,-29.973 105.154,-21.5707"/>
<polygon fill="midnightblue" stroke="midnightblue" points="69.0532,-49.0925 63.922,-58.3619 73.7137,-54.3155 69.0532,-49.0925"/>
</g>
<!-- Node3 -->
<g id="node4" class="node"><title>Node3</title>
<a xlink:href="classstxxl_1_1file.html" target="_top" xlink:title="Defines interface of file. ">
<polygon fill="none" stroke="black" points="89,-116.5 89,-137.5 145,-137.5 145,-116.5 89,-116.5"/>
<text text-anchor="middle" x="117" y="-124.5" font-family="Helvetica,sans-Serif" font-size="10.00">stxxl::file</text>
</a>
</g>
<!-- Node3&#45;&gt;Node2 -->
<g id="edge4" class="edge"><title>Node3&#45;&gt;Node2</title>
<path fill="none" stroke="midnightblue" d="M97.6017,-109.691C86.6289,-99.8996 73.2628,-87.973 63.8464,-79.5707"/>
<polygon fill="midnightblue" stroke="midnightblue" points="95.2863,-112.315 105.078,-116.362 99.9468,-107.092 95.2863,-112.315"/>
</g>
<!-- Node5 -->
<g id="node8" class="node"><title>Node5</title>
<a xlink:href="classstxxl_1_1disk__queued__file.html" target="_top" xlink:title="Implementation of some file methods based on serving_request. ">
<polygon fill="none" stroke="black" points="121.5,-58.5 121.5,-79.5 242.5,-79.5 242.5,-58.5 121.5,-58.5"/>
<text text-anchor="middle" x="182" y="-66.5" font-family="Helvetica,sans-Serif" font-size="10.00">stxxl::disk_queued_file</text>
</a>
</g>
<!-- Node3&#45;&gt;Node5 -->
<g id="edge10" class="edge"><title>Node3&#45;&gt;Node5</title>
<path fill="none" stroke="midnightblue" d="M136.398,-109.691C147.371,-99.8996 160.737,-87.973 170.154,-79.5707"/>
<polygon fill="midnightblue" stroke="midnightblue" points="134.053,-107.092 128.922,-116.362 138.714,-112.315 134.053,-107.092"/>
</g>
<!-- Node4 -->
<g id="node6" class="node"><title>Node4</title>
<a xlink:href="classstxxl_1_1noncopyable.html" target="_top" xlink:title="stxxl::noncopyable">
<polygon fill="none" stroke="black" points="66,-174.5 66,-195.5 168,-195.5 168,-174.5 66,-174.5"/>
<text text-anchor="middle" x="117" y="-182.5" font-family="Helvetica,sans-Serif" font-size="10.00">stxxl::noncopyable</text>
</a>
</g>
<!-- Node4&#45;&gt;Node3 -->
<g id="edge6" class="edge"><title>Node4&#45;&gt;Node3</title>
<path fill="none" stroke="#8b1a1a" d="M117,-164.191C117,-155.168 117,-144.994 117,-137.571"/>
<polygon fill="#8b1a1a" stroke="#8b1a1a" points="113.5,-164.362 117,-174.362 120.5,-164.362 113.5,-164.362"/>
</g>
<!-- Node5&#45;&gt;Node1 -->
<g id="edge8" class="edge"><title>Node5&#45;&gt;Node1</title>
<path fill="none" stroke="midnightblue" d="M162.602,-51.6908C151.629,-41.8996 138.263,-29.973 128.846,-21.5707"/>
<polygon fill="midnightblue" stroke="midnightblue" points="160.286,-54.3155 170.078,-58.3619 164.947,-49.0925 160.286,-54.3155"/>
</g>
</g>
</svg>
