<?xml version="1.0" encoding="UTF-8" standalone="no"?>
<!DOCTYPE svg PUBLIC "-//W3C//DTD SVG 1.1//EN"
 "http://www.w3.org/Graphics/SVG/1.1/DTD/svg11.dtd">
<!-- Generated by graphviz version 2.26.3 (20100126.1600)
 -->
<!-- Title: stxxl::hash_map::block_cache&lt; BlockType &gt; Pages: 1 -->
<svg width="1116pt" height="258pt"
 viewBox="0.00 0.00 1116.00 258.00" xmlns="http://www.w3.org/2000/svg" xmlns:xlink="http://www.w3.org/1999/xlink">
<g id="graph1" class="graph" transform="scale(1 1) rotate(0) translate(4 254)">
<title>stxxl::hash_map::block_cache&lt; BlockType &gt;</title>
<!-- Node1 -->
<g id="node1" class="node"><title>Node1</title>
<polygon fill="#bfbfbf" stroke="black" points="988,-110 988,-144 1108,-144 1108,-110 988,-110"/>
<text text-anchor="start" x="996" y="-131" font-family="Helvetica,sans-Serif" font-size="10.00">stxxl::hash_map::block</text>
<text text-anchor="middle" x="1048" y="-118" font-family="Helvetica,sans-Serif" font-size="10.00">_cache&lt; BlockType &gt;</text>
</g>
<!-- Node2 -->
<g id="node2" class="node"><title>Node2</title>
<a xlink:href="classstxxl_1_1noncopyable.html" target="_top" xlink:title="stxxl::noncopyable">
<polygon fill="none" stroke="black" points="0,-145.5 0,-166.5 102,-166.5 102,-145.5 0,-145.5"/>
<text text-anchor="middle" x="51" y="-153.5" font-family="Helvetica,sans-Serif" font-size="10.00">stxxl::noncopyable</text>
</a>
</g>
<!-- Node2&#45;&gt;Node1 -->
<g id="edge2" class="edge"><title>Node2&#45;&gt;Node1</title>
<path fill="none" stroke="#8b1a1a" d="M69.8638,-173.84C100.752,-201.101 165.19,-250 230,-250 230,-250 230,-250 829,-250 914.47,-250 997.438,-177.9 1031.63,-144.103"/>
<polygon fill="#8b1a1a" stroke="#8b1a1a" points="71.8315,-170.9 62.0691,-166.783 67.1335,-176.089 71.8315,-170.9"/>
</g>
<!-- Node5 -->
<g id="node8" class="node"><title>Node5</title>
<a xlink:href="classstxxl_1_1lru__pager.html" target="_top" xlink:title="Pager with LRU replacement strategy. ">
<polygon fill="none" stroke="black" points="756,-150.5 756,-171.5 902,-171.5 902,-150.5 756,-150.5"/>
<text text-anchor="middle" x="829" y="-158.5" font-family="Helvetica,sans-Serif" font-size="10.00">stxxl::lru_pager&lt; npages_ &gt;</text>
</a>
</g>
<!-- Node2&#45;&gt;Node5 -->
<g id="edge10" class="edge"><title>Node2&#45;&gt;Node5</title>
<path fill="none" stroke="#8b1a1a" d="M98.1103,-168.876C105.395,-170.498 112.867,-171.953 120,-173 128.806,-174.293 131.109,-173.595 140,-174 353.19,-183.715 406.743,-195.121 620,-187 672.559,-184.999 685.85,-184.839 738,-178 751.067,-176.286 765.1,-173.926 778.139,-171.51"/>
<polygon fill="#8b1a1a" stroke="#8b1a1a" points="98.8778,-165.461 88.3426,-166.583 97.2782,-172.276 98.8778,-165.461"/>
</g>
<!-- Node6 -->
<g id="node11" class="node"><title>Node6</title>
<a xlink:href="classstxxl_1_1simple__vector.html" target="_top" xlink:title="stxxl::simple_vector\l\&lt; list_type::iterator \&gt;">
<polygon fill="none" stroke="black" points="482,-144 482,-178 594,-178 594,-144 482,-144"/>
<text text-anchor="start" x="490" y="-165" font-family="Helvetica,sans-Serif" font-size="10.00">stxxl::simple_vector</text>
<text text-anchor="middle" x="538" y="-152" font-family="Helvetica,sans-Serif" font-size="10.00">&lt; list_type::iterator &gt;</text>
</a>
</g>
<!-- Node2&#45;&gt;Node6 -->
<g id="edge14" class="edge"><title>Node2&#45;&gt;Node6</title>
<path fill="none" stroke="#8b1a1a" d="M112.32,-158.789C114.914,-158.868 117.483,-158.939 120,-159 249.5,-162.124 401.631,-161.864 481.873,-161.42"/>
<polygon fill="#8b1a1a" stroke="#8b1a1a" points="112.35,-155.288 102.237,-158.448 112.113,-162.284 112.35,-155.288"/>
</g>
<!-- Node7 -->
<g id="node14" class="node"><title>Node7</title>
<a xlink:href="classstxxl_1_1simple__vector.html" target="_top" xlink:title="Simpler non&#45;growing vector without initialization. ">
<polygon fill="none" stroke="black" points="176.5,-112 176.5,-146 283.5,-146 283.5,-112 176.5,-112"/>
<text text-anchor="start" x="184.5" y="-133" font-family="Helvetica,sans-Serif" font-size="10.00">stxxl::simple_vector</text>
<text text-anchor="middle" x="230" y="-120" font-family="Helvetica,sans-Serif" font-size="10.00">&lt; ValueType &gt;</text>
</a>
</g>
<!-- Node2&#45;&gt;Node7 -->
<g id="edge18" class="edge"><title>Node2&#45;&gt;Node7</title>
<path fill="none" stroke="#8b1a1a" d="M112.283,-146.756C133.047,-143.624 156.067,-140.152 176.203,-137.115"/>
<polygon fill="#8b1a1a" stroke="#8b1a1a" points="111.66,-143.31 102.294,-148.263 112.704,-150.232 111.66,-143.31"/>
</g>
<!-- Node8 -->
<g id="node17" class="node"><title>Node8</title>
<a xlink:href="classstxxl_1_1hash__map_1_1block__cache__write__buffer.html" target="_top" xlink:title="stxxl::hash_map::block\l_cache_write_buffer\&lt; block\l_type \&gt;">
<polygon fill="none" stroke="black" points="465.5,-66.5 465.5,-113.5 610.5,-113.5 610.5,-66.5 465.5,-66.5"/>
<text text-anchor="start" x="473.5" y="-100.5" font-family="Helvetica,sans-Serif" font-size="10.00">stxxl::hash_map::block</text>
<text text-anchor="start" x="473.5" y="-87.5" font-family="Helvetica,sans-Serif" font-size="10.00">_cache_write_buffer&lt; block</text>
<text text-anchor="middle" x="538" y="-74.5" font-family="Helvetica,sans-Serif" font-size="10.00">_type &gt;</text>
</a>
</g>
<!-- Node2&#45;&gt;Node8 -->
<g id="edge22" class="edge"><title>Node2&#45;&gt;Node8</title>
<path fill="none" stroke="#8b1a1a" d="M72.053,-139.261C89.2346,-126.684 114.721,-110.403 140,-103 249.971,-70.7954 384.382,-74.8436 465.485,-81.7004"/>
<polygon fill="#8b1a1a" stroke="#8b1a1a" points="69.7458,-136.617 63.8702,-145.434 73.9613,-142.206 69.7458,-136.617"/>
</g>
<!-- Node9 -->
<g id="node20" class="node"><title>Node9</title>
<a xlink:href="classstxxl_1_1hash__map_1_1block__cache__write__buffer.html" target="_top" xlink:title="Used inside block_cache for buffering write requests of cached blocks. ">
<polygon fill="none" stroke="black" points="140.5,-22 140.5,-56 319.5,-56 319.5,-22 140.5,-22"/>
<text text-anchor="start" x="148.5" y="-43" font-family="Helvetica,sans-Serif" font-size="10.00">stxxl::hash_map::block</text>
<text text-anchor="middle" x="230" y="-30" font-family="Helvetica,sans-Serif" font-size="10.00">_cache_write_buffer&lt; BlockType &gt;</text>
</a>
</g>
<!-- Node2&#45;&gt;Node9 -->
<g id="edge26" class="edge"><title>Node2&#45;&gt;Node9</title>
<path fill="none" stroke="#8b1a1a" d="M61.7131,-136.493C73.4905,-116.846 94.2105,-87.069 120,-70 128.438,-64.4151 137.88,-59.8252 147.591,-56.0553"/>
<polygon fill="#8b1a1a" stroke="#8b1a1a" points="58.6407,-134.815 56.6667,-145.224 64.7012,-138.318 58.6407,-134.815"/>
</g>
<!-- Node3 -->
<g id="node4" class="node"><title>Node3</title>
<a xlink:href="structstxxl_1_1compat__hash__map.html" target="_top" xlink:title="stxxl::compat_hash\l_map\&lt; bid_type, unsigned\l_type, bid_hash \&gt;">
<polygon fill="none" stroke="black" points="759,-11.5 759,-58.5 899,-58.5 899,-11.5 759,-11.5"/>
<text text-anchor="start" x="767" y="-45.5" font-family="Helvetica,sans-Serif" font-size="10.00">stxxl::compat_hash</text>
<text text-anchor="start" x="767" y="-32.5" font-family="Helvetica,sans-Serif" font-size="10.00">_map&lt; bid_type, unsigned</text>
<text text-anchor="middle" x="829" y="-19.5" font-family="Helvetica,sans-Serif" font-size="10.00">_type, bid_hash &gt;</text>
</a>
</g>
<!-- Node3&#45;&gt;Node1 -->
<g id="edge4" class="edge"><title>Node3&#45;&gt;Node1</title>
<path fill="none" stroke="#9a32cd" stroke-dasharray="5,2" d="M909.043,-55.3936C929.325,-61.6442 950.795,-69.2281 970,-78 989.201,-86.7702 1009.34,-99.5237 1024.34,-109.821"/>
<polygon fill="#9a32cd" stroke="#9a32cd" points="909.782,-51.961 899.198,-52.4328 907.766,-58.6644 909.782,-51.961"/>
<text text-anchor="middle" x="945" y="-82" font-family="Helvetica,sans-Serif" font-size="10.00"> bid_map_</text>
</g>
<!-- Node4 -->
<g id="node6" class="node"><title>Node4</title>
<a xlink:href="structstxxl_1_1compat__hash__map.html" target="_top" xlink:title="stxxl::compat_hash\l_map\&lt; KeyType, MappedType,\l HashType \&gt;">
<polygon fill="none" stroke="black" points="456,-0.5 456,-47.5 620,-47.5 620,-0.5 456,-0.5"/>
<text text-anchor="start" x="464" y="-34.5" font-family="Helvetica,sans-Serif" font-size="10.00">stxxl::compat_hash</text>
<text text-anchor="start" x="464" y="-21.5" font-family="Helvetica,sans-Serif" font-size="10.00">_map&lt; KeyType, MappedType,</text>
<text text-anchor="middle" x="538" y="-8.5" font-family="Helvetica,sans-Serif" font-size="10.00"> HashType &gt;</text>
</a>
</g>
<!-- Node4&#45;&gt;Node3 -->
<g id="edge6" class="edge"><title>Node4&#45;&gt;Node3</title>
<path fill="none" stroke="orange" stroke-dasharray="5,2" d="M630.363,-27.4914C671.952,-29.0635 720.255,-30.8894 758.815,-32.347"/>
<polygon fill="orange" stroke="orange" points="630.347,-23.9884 620.222,-27.1081 630.083,-30.9834 630.347,-23.9884"/>
<text text-anchor="start" x="638" y="-49" font-family="Helvetica,sans-Serif" font-size="10.00"> &lt; bid_type, unsigned</text>
<text text-anchor="middle" x="688" y="-36" font-family="Helvetica,sans-Serif" font-size="10.00">_type, bid_hash &gt;</text>
</g>
<!-- Node5&#45;&gt;Node1 -->
<g id="edge8" class="edge"><title>Node5&#45;&gt;Node1</title>
<path fill="none" stroke="#9a32cd" stroke-dasharray="5,2" d="M906.861,-148.912C933.519,-144.773 962.913,-140.21 987.945,-136.324"/>
<polygon fill="#9a32cd" stroke="#9a32cd" points="906.138,-145.482 896.793,-150.475 907.212,-152.399 906.138,-145.482"/>
<text text-anchor="middle" x="945" y="-150" font-family="Helvetica,sans-Serif" font-size="10.00"> pager_</text>
</g>
<!-- Node6&#45;&gt;Node5 -->
<g id="edge12" class="edge"><title>Node6&#45;&gt;Node5</title>
<path fill="none" stroke="#9a32cd" stroke-dasharray="5,2" d="M604.39,-161C649.589,-161 709.422,-161 755.967,-161"/>
<polygon fill="#9a32cd" stroke="#9a32cd" points="604.108,-157.5 594.108,-161 604.108,-164.5 604.108,-157.5"/>
<text text-anchor="middle" x="688" y="-165" font-family="Helvetica,sans-Serif" font-size="10.00"> history_entry</text>
</g>
<!-- Node7&#45;&gt;Node6 -->
<g id="edge16" class="edge"><title>Node7&#45;&gt;Node6</title>
<path fill="none" stroke="orange" stroke-dasharray="5,2" d="M293.688,-133.636C334.903,-136.852 389.691,-141.532 438,-147 452.197,-148.607 467.489,-150.61 481.741,-152.593"/>
<polygon fill="orange" stroke="orange" points="293.754,-130.131 283.514,-132.85 293.215,-137.11 293.754,-130.131"/>
<text text-anchor="middle" x="388" y="-151" font-family="Helvetica,sans-Serif" font-size="10.00"> &lt; list_type::iterator &gt;</text>
</g>
<!-- Node8&#45;&gt;Node1 -->
<g id="edge20" class="edge"><title>Node8&#45;&gt;Node1</title>
<path fill="none" stroke="#9a32cd" stroke-dasharray="5,2" d="M620.558,-95.9895C723.352,-103.447 896.489,-116.008 987.667,-122.623"/>
<polygon fill="#9a32cd" stroke="#9a32cd" points="620.756,-92.4948 610.529,-95.2619 620.249,-99.4764 620.756,-92.4948"/>
<text text-anchor="middle" x="829" y="-120" font-family="Helvetica,sans-Serif" font-size="10.00"> write_buffer_</text>
</g>
<!-- Node9&#45;&gt;Node8 -->
<g id="edge24" class="edge"><title>Node9&#45;&gt;Node8</title>
<path fill="none" stroke="orange" stroke-dasharray="5,2" d="M329.818,-42.9173C364.334,-45.5162 403.1,-49.8331 438,-57 449.819,-59.4271 462.191,-62.7962 474.045,-66.4602"/>
<polygon fill="orange" stroke="orange" points="329.952,-39.418 319.728,-42.1968 329.453,-46.4003 329.952,-39.418"/>
<text text-anchor="middle" x="388" y="-61" font-family="Helvetica,sans-Serif" font-size="10.00"> &lt; block_type &gt;</text>
</g>
</g>
</svg>
