<?xml version="1.0" encoding="UTF-8" standalone="no"?>
<!DOCTYPE svg PUBLIC "-//W3C//DTD SVG 1.1//EN"
 "http://www.w3.org/Graphics/SVG/1.1/DTD/svg11.dtd">
<!-- Generated by graphviz version 2.26.3 (20100126.1600)
 -->
<!-- Title: stxxl::stream::sort&lt; Input, CompareType, BlockSize, AllocStr, RunsCreatorType &gt; Pages: 1 -->
<svg width="2044pt" height="498pt"
 viewBox="0.00 0.00 2044.00 498.00" xmlns="http://www.w3.org/2000/svg" xmlns:xlink="http://www.w3.org/1999/xlink">
<g id="graph1" class="graph" transform="scale(1 1) rotate(0) translate(4 494)">
<title>stxxl::stream::sort&lt; Input, CompareType, BlockSize, AllocStr, RunsCreatorType &gt;</title>
<!-- Node1 -->
<g id="node1" class="node"><title>Node1</title>
<polygon fill="#bfbfbf" stroke="black" points="1912,-424 1912,-484 2036,-484 2036,-424 1912,-424"/>
<text text-anchor="start" x="1920" y="-471" font-family="Helvetica,sans-Serif" font-size="10.00">stxxl::stream::sort</text>
<text text-anchor="start" x="1920" y="-458" font-family="Helvetica,sans-Serif" font-size="10.00">&lt; Input, CompareType,</text>
<text text-anchor="start" x="1920" y="-445" font-family="Helvetica,sans-Serif" font-size="10.00"> BlockSize, AllocStr,</text>
<text text-anchor="middle" x="1974" y="-432" font-family="Helvetica,sans-Serif" font-size="10.00"> RunsCreatorType &gt;</text>
</g>
<!-- Node2 -->
<g id="node2" class="node"><title>Node2</title>
<a xlink:href="classstxxl_1_1noncopyable.html" target="_top" xlink:title="stxxl::noncopyable">
<polygon fill="none" stroke="black" points="6,-296.5 6,-317.5 108,-317.5 108,-296.5 6,-296.5"/>
<text text-anchor="middle" x="57" y="-304.5" font-family="Helvetica,sans-Serif" font-size="10.00">stxxl::noncopyable</text>
</a>
</g>
<!-- Node2&#45;&gt;Node1 -->
<g id="edge2" class="edge"><title>Node2&#45;&gt;Node1</title>
<path fill="none" stroke="midnightblue" d="M64.683,-326.803C75.786,-352.982 98.7033,-398.946 132,-426 195.303,-477.435 222.435,-490 304,-490 304,-490 304,-490 1755,-490 1808.37,-490 1868.09,-479.463 1911.67,-469.79"/>
<polygon fill="midnightblue" stroke="midnightblue" points="67.9104,-325.448 60.8893,-317.514 61.43,-328.095 67.9104,-325.448"/>
</g>
<!-- Node4 -->
<g id="node6" class="node"><title>Node4</title>
<a xlink:href="classstxxl_1_1stream_1_1basic__runs__merger.html" target="_top" xlink:title="stxxl::stream::basic\l_runs_merger\&lt; sorted\l_runs_type, CompareType,\l AllocStr \&gt;">
<polygon fill="none" stroke="black" points="1361,-343 1361,-403 1505,-403 1505,-343 1361,-343"/>
<text text-anchor="start" x="1369" y="-390" font-family="Helvetica,sans-Serif" font-size="10.00">stxxl::stream::basic</text>
<text text-anchor="start" x="1369" y="-377" font-family="Helvetica,sans-Serif" font-size="10.00">_runs_merger&lt; sorted</text>
<text text-anchor="start" x="1369" y="-364" font-family="Helvetica,sans-Serif" font-size="10.00">_runs_type, CompareType,</text>
<text text-anchor="middle" x="1433" y="-351" font-family="Helvetica,sans-Serif" font-size="10.00"> AllocStr &gt;</text>
</a>
</g>
<!-- Node2&#45;&gt;Node4 -->
<g id="edge8" class="edge"><title>Node2&#45;&gt;Node4</title>
<path fill="none" stroke="#8b1a1a" d="M71.2748,-326.018C85.1496,-343.385 107.645,-368.755 132,-385 200.251,-430.523 221.961,-452 304,-452 304,-452 304,-452 1123,-452 1206.45,-452 1298.73,-424.787 1360.73,-402.304"/>
<polygon fill="#8b1a1a" stroke="#8b1a1a" points="73.7466,-323.496 64.8407,-317.757 68.224,-327.797 73.7466,-323.496"/>
</g>
<!-- Node5 -->
<g id="node9" class="node"><title>Node5</title>
<a xlink:href="classstxxl_1_1block__prefetcher.html" target="_top" xlink:title="Encapsulates asynchronous prefetching engine. ">
<polygon fill="none" stroke="black" points="754.5,-218 754.5,-252 917.5,-252 917.5,-218 754.5,-218"/>
<text text-anchor="start" x="762.5" y="-239" font-family="Helvetica,sans-Serif" font-size="10.00">stxxl::block_prefetcher</text>
<text text-anchor="middle" x="836" y="-226" font-family="Helvetica,sans-Serif" font-size="10.00">&lt; BlockType, BidIteratorType &gt;</text>
</a>
</g>
<!-- Node2&#45;&gt;Node5 -->
<g id="edge12" class="edge"><title>Node2&#45;&gt;Node5</title>
<path fill="none" stroke="#8b1a1a" d="M78.3185,-290.245C92.6517,-279.944 112.436,-267.51 132,-261 177.739,-245.779 191.917,-254.432 240,-251 425.54,-237.755 472.047,-234.668 658,-230 690.879,-229.175 699.121,-229.21 732,-230 739.228,-230.174 746.737,-230.415 754.262,-230.699"/>
<polygon fill="#8b1a1a" stroke="#8b1a1a" points="76.0913,-287.539 70.1492,-296.311 80.2644,-293.159 76.0913,-287.539"/>
</g>
<!-- Node8 -->
<g id="node16" class="node"><title>Node8</title>
<a xlink:href="classstxxl_1_1onoff__switch.html" target="_top" xlink:title="stxxl::onoff_switch">
<polygon fill="none" stroke="black" points="521.5,-251.5 521.5,-272.5 622.5,-272.5 622.5,-251.5 521.5,-251.5"/>
<text text-anchor="middle" x="572" y="-259.5" font-family="Helvetica,sans-Serif" font-size="10.00">stxxl::onoff_switch</text>
</a>
</g>
<!-- Node2&#45;&gt;Node8 -->
<g id="edge20" class="edge"><title>Node2&#45;&gt;Node8</title>
<path fill="none" stroke="#8b1a1a" d="M105.29,-293.803C114.158,-291.471 123.345,-289.115 132,-287 179.766,-275.329 191.131,-268.439 240,-263 339.247,-251.954 456.218,-255.401 521.468,-258.784"/>
<polygon fill="#8b1a1a" stroke="#8b1a1a" points="104.228,-290.464 95.4607,-296.412 106.024,-297.23 104.228,-290.464"/>
</g>
<!-- Node9 -->
<g id="node19" class="node"><title>Node9</title>
<a xlink:href="classstxxl_1_1mutex.html" target="_top" xlink:title="stxxl::mutex">
<polygon fill="none" stroke="black" points="269,-312.5 269,-333.5 339,-333.5 339,-312.5 269,-312.5"/>
<text text-anchor="middle" x="304" y="-320.5" font-family="Helvetica,sans-Serif" font-size="10.00">stxxl::mutex</text>
</a>
</g>
<!-- Node2&#45;&gt;Node9 -->
<g id="edge24" class="edge"><title>Node2&#45;&gt;Node9</title>
<path fill="none" stroke="#8b1a1a" d="M118.331,-310.973C165.739,-314.044 229.682,-318.186 268.816,-320.721"/>
<polygon fill="#8b1a1a" stroke="#8b1a1a" points="118.384,-307.469 108.179,-310.315 117.931,-314.454 118.384,-307.469"/>
</g>
<!-- Node10 -->
<g id="node22" class="node"><title>Node10</title>
<a xlink:href="classstxxl_1_1condition__variable.html" target="_top" xlink:title="stxxl::condition_variable">
<polygon fill="none" stroke="black" points="240,-272.5 240,-293.5 368,-293.5 368,-272.5 240,-272.5"/>
<text text-anchor="middle" x="304" y="-280.5" font-family="Helvetica,sans-Serif" font-size="10.00">stxxl::condition_variable</text>
</a>
</g>
<!-- Node2&#45;&gt;Node10 -->
<g id="edge28" class="edge"><title>Node2&#45;&gt;Node10</title>
<path fill="none" stroke="#8b1a1a" d="M118.313,-301.042C155.248,-297.454 202.222,-292.889 239.683,-289.249"/>
<polygon fill="#8b1a1a" stroke="#8b1a1a" points="117.793,-297.576 108.179,-302.027 118.47,-304.544 117.793,-297.576"/>
</g>
<!-- Node15 -->
<g id="node34" class="node"><title>Node15</title>
<a xlink:href="classstxxl_1_1loser__tree.html" target="_top" xlink:title="stxxl::loser_tree\&lt;\l RunCursorType, RunCursorCmp\lType \&gt;">
<polygon fill="none" stroke="black" points="750.5,-338.5 750.5,-385.5 921.5,-385.5 921.5,-338.5 750.5,-338.5"/>
<text text-anchor="start" x="758.5" y="-372.5" font-family="Helvetica,sans-Serif" font-size="10.00">stxxl::loser_tree&lt;</text>
<text text-anchor="start" x="758.5" y="-359.5" font-family="Helvetica,sans-Serif" font-size="10.00"> RunCursorType, RunCursorCmp</text>
<text text-anchor="middle" x="836" y="-346.5" font-family="Helvetica,sans-Serif" font-size="10.00">Type &gt;</text>
</a>
</g>
<!-- Node2&#45;&gt;Node15 -->
<g id="edge42" class="edge"><title>Node2&#45;&gt;Node15</title>
<path fill="none" stroke="#8b1a1a" d="M81.4817,-323.219C115.395,-344.616 179.364,-381.178 240,-395 418.081,-435.593 633.457,-404.649 750.364,-381.43"/>
<polygon fill="#8b1a1a" stroke="#8b1a1a" points="83.0491,-320.067 72.7412,-317.618 79.2721,-325.961 83.0491,-320.067"/>
</g>
<!-- Node16 -->
<g id="node38" class="node"><title>Node16</title>
<a xlink:href="classstxxl_1_1stream_1_1basic__runs__merger.html" target="_top" xlink:title="Merges sorted runs. ">
<polygon fill="none" stroke="black" points="1052,-232.5 1052,-279.5 1194,-279.5 1194,-232.5 1052,-232.5"/>
<text text-anchor="start" x="1060" y="-266.5" font-family="Helvetica,sans-Serif" font-size="10.00">stxxl::stream::basic</text>
<text text-anchor="start" x="1060" y="-253.5" font-family="Helvetica,sans-Serif" font-size="10.00">_runs_merger&lt; RunsType,</text>
<text text-anchor="middle" x="1123" y="-240.5" font-family="Helvetica,sans-Serif" font-size="10.00"> CompareType, AllocStr &gt;</text>
</a>
</g>
<!-- Node2&#45;&gt;Node16 -->
<g id="edge48" class="edge"><title>Node2&#45;&gt;Node16</title>
<path fill="none" stroke="#8b1a1a" d="M66.1422,-287.252C93.5359,-231.345 180.742,-76 304,-76 304,-76 304,-76 836,-76 952.454,-76 1060.45,-183.677 1103.41,-232.468"/>
<polygon fill="#8b1a1a" stroke="#8b1a1a" points="62.8885,-285.943 61.728,-296.474 69.2025,-288.965 62.8885,-285.943"/>
</g>
<!-- Node3 -->
<g id="node4" class="node"><title>Node3</title>
<a xlink:href="classstxxl_1_1stream_1_1runs__merger.html" target="_top" xlink:title="stxxl::stream::runs\l_merger\&lt; sorted_runs\l_type, CompareType, AllocStr \&gt;">
<polygon fill="none" stroke="black" points="1672,-349.5 1672,-396.5 1838,-396.5 1838,-349.5 1672,-349.5"/>
<text text-anchor="start" x="1680" y="-383.5" font-family="Helvetica,sans-Serif" font-size="10.00">stxxl::stream::runs</text>
<text text-anchor="start" x="1680" y="-370.5" font-family="Helvetica,sans-Serif" font-size="10.00">_merger&lt; sorted_runs</text>
<text text-anchor="middle" x="1755" y="-357.5" font-family="Helvetica,sans-Serif" font-size="10.00">_type, CompareType, AllocStr &gt;</text>
</a>
</g>
<!-- Node3&#45;&gt;Node1 -->
<g id="edge4" class="edge"><title>Node3&#45;&gt;Node1</title>
<path fill="none" stroke="#9a32cd" stroke-dasharray="5,2" d="M1828.07,-400.027C1855.18,-410.054 1885.66,-421.325 1911.71,-430.963"/>
<polygon fill="#9a32cd" stroke="#9a32cd" points="1829.23,-396.724 1818.64,-396.537 1826.8,-403.289 1829.23,-396.724"/>
<text text-anchor="middle" x="1875" y="-427" font-family="Helvetica,sans-Serif" font-size="10.00"> merger</text>
</g>
<!-- Node4&#45;&gt;Node3 -->
<g id="edge6" class="edge"><title>Node4&#45;&gt;Node3</title>
<path fill="none" stroke="midnightblue" d="M1515.31,-373C1563.33,-373 1623.74,-373 1671.89,-373"/>
<polygon fill="midnightblue" stroke="midnightblue" points="1515.26,-369.5 1505.26,-373 1515.26,-376.5 1515.26,-369.5"/>
</g>
<!-- Node5&#45;&gt;Node4 -->
<g id="edge10" class="edge"><title>Node5&#45;&gt;Node4</title>
<path fill="none" stroke="#9a32cd" stroke-dasharray="5,2" d="M887.467,-256.878C899.626,-263.513 911.96,-271.586 922,-281 933.066,-291.376 927.238,-301.799 940,-310 957.489,-321.24 1228.13,-351.269 1360.79,-365.421"/>
<polygon fill="#9a32cd" stroke="#9a32cd" points="888.731,-253.591 878.244,-252.087 885.504,-259.803 888.731,-253.591"/>
<text text-anchor="middle" x="1123" y="-350" font-family="Helvetica,sans-Serif" font-size="10.00"> m_prefetcher</text>
</g>
<!-- Node5&#45;&gt;Node16 -->
<g id="edge50" class="edge"><title>Node5&#45;&gt;Node16</title>
<path fill="none" stroke="#9a32cd" stroke-dasharray="5,2" d="M927.873,-231.349C961.371,-231.101 999.486,-232.082 1034,-236 1039.82,-236.661 1045.82,-237.549 1051.82,-238.584"/>
<polygon fill="#9a32cd" stroke="#9a32cd" points="927.595,-227.852 917.635,-231.463 927.674,-234.851 927.595,-227.852"/>
<text text-anchor="middle" x="987" y="-240" font-family="Helvetica,sans-Serif" font-size="10.00"> m_prefetcher</text>
</g>
<!-- Node6 -->
<g id="node12" class="node"><title>Node6</title>
<a xlink:href="structstxxl_1_1choose__int__types.html" target="_top" xlink:title="stxxl::choose_int_types\l\&lt; my_pointer_size \&gt;">
<polygon fill="none" stroke="black" points="509.5,-345 509.5,-379 634.5,-379 634.5,-345 509.5,-345"/>
<text text-anchor="start" x="517.5" y="-366" font-family="Helvetica,sans-Serif" font-size="10.00">stxxl::choose_int_types</text>
<text text-anchor="middle" x="572" y="-353" font-family="Helvetica,sans-Serif" font-size="10.00">&lt; my_pointer_size &gt;</text>
</a>
</g>
<!-- Node6&#45;&gt;Node4 -->
<g id="edge38" class="edge"><title>Node6&#45;&gt;Node4</title>
<path fill="none" stroke="#9a32cd" stroke-dasharray="5,2" d="M644.811,-378.618C676.88,-385.126 715.122,-391.794 750,-395 858.177,-404.943 1230.51,-391.118 1334,-384 1342.71,-383.401 1351.84,-382.61 1360.88,-381.726"/>
<polygon fill="#9a32cd" stroke="#9a32cd" points="645.129,-375.11 634.628,-376.515 643.713,-381.965 645.129,-375.11"/>
<text text-anchor="middle" x="987" y="-401" font-family="Helvetica,sans-Serif" font-size="10.00"> m_memory_to_use</text>
</g>
<!-- Node6&#45;&gt;Node5 -->
<g id="edge14" class="edge"><title>Node6&#45;&gt;Node5</title>
<path fill="none" stroke="#9a32cd" stroke-dasharray="5,2" d="M590.448,-337.032C606.233,-317.476 630.687,-291.131 658,-276 674.852,-266.664 715.803,-256.955 754.182,-249.329"/>
<polygon fill="#9a32cd" stroke="#9a32cd" points="587.657,-334.919 584.231,-344.945 593.161,-339.244 587.657,-334.919"/>
<text text-anchor="middle" x="695" y="-306" font-family="Helvetica,sans-Serif" font-size="10.00"> seq_length</text>
<text text-anchor="middle" x="695" y="-293" font-family="Helvetica,sans-Serif" font-size="10.00">nextconsume</text>
<text text-anchor="middle" x="695" y="-280" font-family="Helvetica,sans-Serif" font-size="10.00">nextread</text>
</g>
<!-- Node6&#45;&gt;Node15 -->
<g id="edge44" class="edge"><title>Node6&#45;&gt;Node15</title>
<path fill="none" stroke="#9a32cd" stroke-dasharray="5,2" d="M644.946,-362C677.621,-362 716.377,-362 750.415,-362"/>
<polygon fill="#9a32cd" stroke="#9a32cd" points="644.564,-358.5 634.564,-362 644.564,-365.5 644.564,-358.5"/>
<text text-anchor="middle" x="695" y="-366" font-family="Helvetica,sans-Serif" font-size="10.00"> k</text>
</g>
<!-- Node6&#45;&gt;Node16 -->
<g id="edge52" class="edge"><title>Node6&#45;&gt;Node16</title>
<path fill="none" stroke="#9a32cd" stroke-dasharray="5,2" d="M642.121,-342.265C674.75,-333.498 714.184,-323.491 750,-316 854.325,-294.179 976.498,-275.885 1051.83,-265.432"/>
<polygon fill="#9a32cd" stroke="#9a32cd" points="640.964,-338.952 632.225,-344.942 642.792,-345.709 640.964,-338.952"/>
<text text-anchor="middle" x="836" y="-320" font-family="Helvetica,sans-Serif" font-size="10.00"> m_memory_to_use</text>
</g>
<!-- Node7 -->
<g id="node14" class="node"><title>Node7</title>
<a xlink:href="structstxxl_1_1choose__int__types.html" target="_top" xlink:title="stxxl::choose_int_types\l\&lt; PtrSize \&gt;">
<polygon fill="none" stroke="black" points="241.5,-352 241.5,-386 366.5,-386 366.5,-352 241.5,-352"/>
<text text-anchor="start" x="249.5" y="-373" font-family="Helvetica,sans-Serif" font-size="10.00">stxxl::choose_int_types</text>
<text text-anchor="middle" x="304" y="-360" font-family="Helvetica,sans-Serif" font-size="10.00">&lt; PtrSize &gt;</text>
</a>
</g>
<!-- Node7&#45;&gt;Node6 -->
<g id="edge16" class="edge"><title>Node7&#45;&gt;Node6</title>
<path fill="none" stroke="orange" stroke-dasharray="5,2" d="M376.853,-367.097C418.223,-366.017 469.491,-364.677 509.096,-363.643"/>
<polygon fill="orange" stroke="orange" points="376.739,-363.599 366.834,-367.359 376.922,-370.596 376.739,-363.599"/>
<text text-anchor="middle" x="436" y="-370" font-family="Helvetica,sans-Serif" font-size="10.00"> &lt; my_pointer_size &gt;</text>
</g>
<!-- Node8&#45;&gt;Node5 -->
<g id="edge18" class="edge"><title>Node8&#45;&gt;Node5</title>
<path fill="none" stroke="#9a32cd" stroke-dasharray="5,2" d="M615.886,-248.771C629.281,-245.278 644.135,-241.943 658,-240 689.228,-235.623 723.829,-233.94 754.158,-233.499"/>
<polygon fill="#9a32cd" stroke="#9a32cd" points="614.706,-245.465 605.967,-251.454 616.534,-252.222 614.706,-245.465"/>
<text text-anchor="middle" x="695" y="-244" font-family="Helvetica,sans-Serif" font-size="10.00"> completed</text>
</g>
<!-- Node9&#45;&gt;Node8 -->
<g id="edge22" class="edge"><title>Node9&#45;&gt;Node8</title>
<path fill="none" stroke="#9a32cd" stroke-dasharray="5,2" d="M349.297,-317.87C386.414,-313.11 440.109,-304.946 486,-293 506.735,-287.602 529.517,-279.277 546.42,-272.612"/>
<polygon fill="#9a32cd" stroke="#9a32cd" points="348.776,-314.407 339.288,-319.122 349.645,-321.353 348.776,-314.407"/>
<text text-anchor="middle" x="436" y="-316" font-family="Helvetica,sans-Serif" font-size="10.00"> m_mutex</text>
</g>
<!-- Node10&#45;&gt;Node8 -->
<g id="edge26" class="edge"><title>Node10&#45;&gt;Node8</title>
<path fill="none" stroke="#9a32cd" stroke-dasharray="5,2" d="M378.313,-277.177C423.844,-273.609 480.93,-269.136 521.3,-265.973"/>
<polygon fill="#9a32cd" stroke="#9a32cd" points="377.889,-273.699 368.193,-277.97 378.436,-280.678 377.889,-273.699"/>
<text text-anchor="middle" x="436" y="-280" font-family="Helvetica,sans-Serif" font-size="10.00"> m_cond</text>
</g>
<!-- Node11 -->
<g id="node25" class="node"><title>Node11</title>
<a xlink:href="classstxxl_1_1counting__ptr.html" target="_top" xlink:title="High&#45;performance smart pointer used as a wrapping reference counting pointer. ">
<polygon fill="none" stroke="black" points="521.5,-144 521.5,-178 622.5,-178 622.5,-144 521.5,-144"/>
<text text-anchor="start" x="529.5" y="-165" font-family="Helvetica,sans-Serif" font-size="10.00">stxxl::counting_ptr</text>
<text text-anchor="middle" x="572" y="-152" font-family="Helvetica,sans-Serif" font-size="10.00">&lt; Type &gt;</text>
</a>
</g>
<!-- Node11&#45;&gt;Node5 -->
<g id="edge30" class="edge"><title>Node11&#45;&gt;Node5</title>
<path fill="none" stroke="#9a32cd" stroke-dasharray="5,2" d="M632.77,-162.395C663.141,-164.45 700.12,-169.034 732,-179 760.576,-187.933 790.384,-204.891 810.725,-217.815"/>
<polygon fill="#9a32cd" stroke="#9a32cd" points="632.933,-158.898 622.74,-161.791 632.512,-165.886 632.933,-158.898"/>
<text text-anchor="middle" x="695" y="-183" font-family="Helvetica,sans-Serif" font-size="10.00"> read_reqs</text>
</g>
<!-- Node12 -->
<g id="node27" class="node"><title>Node12</title>
<a xlink:href="classstxxl_1_1completion__handler.html" target="_top" xlink:title="Completion handler class (Loki&#45;style). ">
<polygon fill="none" stroke="black" points="504.5,-104.5 504.5,-125.5 639.5,-125.5 639.5,-104.5 504.5,-104.5"/>
<text text-anchor="middle" x="572" y="-112.5" font-family="Helvetica,sans-Serif" font-size="10.00">stxxl::completion_handler</text>
</a>
</g>
<!-- Node12&#45;&gt;Node5 -->
<g id="edge32" class="edge"><title>Node12&#45;&gt;Node5</title>
<path fill="none" stroke="#9a32cd" stroke-dasharray="5,2" d="M649.972,-122.541C676.908,-127.21 706.665,-134.767 732,-147 768.208,-164.483 802.189,-197.552 820.934,-217.798"/>
<polygon fill="#9a32cd" stroke="#9a32cd" points="650.233,-119.038 639.802,-120.89 649.111,-125.947 650.233,-119.038"/>
<text text-anchor="middle" x="695" y="-151" font-family="Helvetica,sans-Serif" font-size="10.00"> do_after_fetch</text>
</g>
<!-- Node13 -->
<g id="node29" class="node"><title>Node13</title>
<a xlink:href="structstxxl_1_1compat__unique__ptr.html" target="_top" xlink:title="stxxl::compat_unique\l_ptr\&lt; stxxl::completion\l_handler_impl \&gt;">
<polygon fill="none" stroke="black" points="243.5,-0.5 243.5,-47.5 364.5,-47.5 364.5,-0.5 243.5,-0.5"/>
<text text-anchor="start" x="251.5" y="-34.5" font-family="Helvetica,sans-Serif" font-size="10.00">stxxl::compat_unique</text>
<text text-anchor="start" x="251.5" y="-21.5" font-family="Helvetica,sans-Serif" font-size="10.00">_ptr&lt; stxxl::completion</text>
<text text-anchor="middle" x="304" y="-8.5" font-family="Helvetica,sans-Serif" font-size="10.00">_handler_impl &gt;</text>
</a>
</g>
<!-- Node13&#45;&gt;Node12 -->
<g id="edge34" class="edge"><title>Node13&#45;&gt;Node12</title>
<path fill="none" stroke="#9a32cd" stroke-dasharray="5,2" d="M374.345,-47.886C428.406,-66.2423 500.472,-90.7126 540.969,-104.463"/>
<polygon fill="#9a32cd" stroke="#9a32cd" points="375.408,-44.5504 364.813,-44.6493 373.157,-51.1788 375.408,-44.5504"/>
<text text-anchor="middle" x="436" y="-89" font-family="Helvetica,sans-Serif" font-size="10.00"> m_ptr</text>
</g>
<!-- Node14 -->
<g id="node31" class="node"><title>Node14</title>
<a xlink:href="structstxxl_1_1compat__unique__ptr.html" target="_top" xlink:title="stxxl::compat_unique\l_ptr\&lt; Type \&gt;">
<polygon fill="none" stroke="black" points="0.5,-7 0.5,-41 113.5,-41 113.5,-7 0.5,-7"/>
<text text-anchor="start" x="8.5" y="-28" font-family="Helvetica,sans-Serif" font-size="10.00">stxxl::compat_unique</text>
<text text-anchor="middle" x="57" y="-15" font-family="Helvetica,sans-Serif" font-size="10.00">_ptr&lt; Type &gt;</text>
</a>
</g>
<!-- Node14&#45;&gt;Node13 -->
<g id="edge36" class="edge"><title>Node14&#45;&gt;Node13</title>
<path fill="none" stroke="orange" stroke-dasharray="5,2" d="M123.917,-24C161.137,-24 207.104,-24 243.28,-24"/>
<polygon fill="orange" stroke="orange" points="123.667,-20.5001 113.667,-24 123.667,-27.5001 123.667,-20.5001"/>
<text text-anchor="start" x="132.5" y="-41" font-family="Helvetica,sans-Serif" font-size="10.00"> &lt; stxxl::completion</text>
<text text-anchor="middle" x="177" y="-28" font-family="Helvetica,sans-Serif" font-size="10.00">_handler_impl &gt;</text>
</g>
<!-- Node15&#45;&gt;Node4 -->
<g id="edge40" class="edge"><title>Node15&#45;&gt;Node4</title>
<path fill="none" stroke="#9a32cd" stroke-dasharray="5,2" d="M931.78,-363.765C1051.39,-365.969 1253.32,-369.689 1360.74,-371.669"/>
<polygon fill="#9a32cd" stroke="#9a32cd" points="931.598,-360.261 921.536,-363.576 931.469,-367.26 931.598,-360.261"/>
<text text-anchor="middle" x="1123" y="-372" font-family="Helvetica,sans-Serif" font-size="10.00"> m_losers</text>
</g>
<!-- Node15&#45;&gt;Node16 -->
<g id="edge54" class="edge"><title>Node15&#45;&gt;Node16</title>
<path fill="none" stroke="#9a32cd" stroke-dasharray="5,2" d="M909.352,-334.908C955.572,-317.837 1014.67,-296.011 1058.99,-279.642"/>
<polygon fill="#9a32cd" stroke="#9a32cd" points="907.863,-331.727 899.695,-338.475 910.288,-338.294 907.863,-331.727"/>
<text text-anchor="middle" x="987" y="-325" font-family="Helvetica,sans-Serif" font-size="10.00"> m_losers</text>
</g>
<!-- Node16&#45;&gt;Node4 -->
<g id="edge46" class="edge"><title>Node16&#45;&gt;Node4</title>
<path fill="none" stroke="orange" stroke-dasharray="5,2" d="M1204.12,-263.658C1258.71,-269.342 1322.71,-277.244 1334,-284 1345.75,-291.032 1342.54,-299.105 1352,-309 1363.52,-321.046 1377.36,-332.786 1390.31,-342.853"/>
<polygon fill="orange" stroke="orange" points="1204.35,-260.164 1194.05,-262.623 1203.64,-267.127 1204.35,-260.164"/>
<text text-anchor="start" x="1212.5" y="-301" font-family="Helvetica,sans-Serif" font-size="10.00"> &lt; sorted_runs_type,</text>
<text text-anchor="middle" x="1273" y="-288" font-family="Helvetica,sans-Serif" font-size="10.00"> CompareType, AllocStr &gt;</text>
</g>
<!-- Node17 -->
<g id="node44" class="node"><title>Node17</title>
<a xlink:href="classstxxl_1_1stream_1_1runs__merger.html" target="_top" xlink:title="Merges sorted runs. ">
<polygon fill="none" stroke="black" points="1352,-252.5 1352,-299.5 1514,-299.5 1514,-252.5 1352,-252.5"/>
<text text-anchor="start" x="1360" y="-286.5" font-family="Helvetica,sans-Serif" font-size="10.00">stxxl::stream::runs</text>
<text text-anchor="start" x="1360" y="-273.5" font-family="Helvetica,sans-Serif" font-size="10.00">_merger&lt; RunsType, Compare</text>
<text text-anchor="middle" x="1433" y="-260.5" font-family="Helvetica,sans-Serif" font-size="10.00">Type, AllocStr &gt;</text>
</a>
</g>
<!-- Node16&#45;&gt;Node17 -->
<g id="edge58" class="edge"><title>Node16&#45;&gt;Node17</title>
<path fill="none" stroke="midnightblue" d="M1204.42,-257.516C1243.64,-258.647 1291.31,-260.609 1334,-264 1339.78,-264.459 1345.75,-265.004 1351.74,-265.603"/>
<polygon fill="midnightblue" stroke="midnightblue" points="1204.48,-254.016 1194.38,-257.239 1204.28,-261.013 1204.48,-254.016"/>
</g>
<!-- Node17&#45;&gt;Node3 -->
<g id="edge56" class="edge"><title>Node17&#45;&gt;Node3</title>
<path fill="none" stroke="orange" stroke-dasharray="5,2" d="M1520.95,-302.494C1569.69,-317.176 1629.77,-335.274 1676.85,-349.458"/>
<polygon fill="orange" stroke="orange" points="1521.94,-299.138 1511.36,-299.605 1519.92,-305.841 1521.94,-299.138"/>
<text text-anchor="start" x="1532.5" y="-358" font-family="Helvetica,sans-Serif" font-size="10.00"> &lt; sorted_runs_type,</text>
<text text-anchor="middle" x="1593" y="-345" font-family="Helvetica,sans-Serif" font-size="10.00"> CompareType, AllocStr &gt;</text>
</g>
</g>
</svg>
