<?xml version="1.0" encoding="UTF-8" standalone="no"?>
<!DOCTYPE svg PUBLIC "-//W3C//DTD SVG 1.1//EN"
 "http://www.w3.org/Graphics/SVG/1.1/DTD/svg11.dtd">
<!-- Generated by graphviz version 2.26.3 (20100126.1600)
 -->
<!-- Title: stxxl::block_scheduler_algorithm_online_lru&lt; SwappableBlockType &gt; Pages: 1 -->
<svg width="2132pt" height="465pt"
 viewBox="0.00 0.00 2132.00 465.00" xmlns="http://www.w3.org/2000/svg" xmlns:xlink="http://www.w3.org/1999/xlink">
<g id="graph1" class="graph" transform="scale(1 1) rotate(0) translate(4 461)">
<title>stxxl::block_scheduler_algorithm_online_lru&lt; SwappableBlockType &gt;</title>
<!-- Node1 -->
<g id="node1" class="node"><title>Node1</title>
<polygon fill="#bfbfbf" stroke="black" points="1988,-33.5 1988,-80.5 2124,-80.5 2124,-33.5 1988,-33.5"/>
<text text-anchor="start" x="1996" y="-67.5" font-family="Helvetica,sans-Serif" font-size="10.00">stxxl::block_scheduler</text>
<text text-anchor="start" x="1996" y="-54.5" font-family="Helvetica,sans-Serif" font-size="10.00">_algorithm_online_lru</text>
<text text-anchor="middle" x="2056" y="-41.5" font-family="Helvetica,sans-Serif" font-size="10.00">&lt; SwappableBlockType &gt;</text>
</g>
<!-- Node2 -->
<g id="node2" class="node"><title>Node2</title>
<a xlink:href="classstxxl_1_1block__scheduler__algorithm.html" target="_top" xlink:title="Interface of a block scheduling algorithm. ">
<polygon fill="none" stroke="black" points="1686.5,-66 1686.5,-100 1871.5,-100 1871.5,-66 1686.5,-66"/>
<text text-anchor="start" x="1694.5" y="-87" font-family="Helvetica,sans-Serif" font-size="10.00">stxxl::block_scheduler</text>
<text text-anchor="middle" x="1779" y="-74" font-family="Helvetica,sans-Serif" font-size="10.00">_algorithm&lt; SwappableBlockType &gt;</text>
</a>
</g>
<!-- Node2&#45;&gt;Node1 -->
<g id="edge2" class="edge"><title>Node2&#45;&gt;Node1</title>
<path fill="none" stroke="midnightblue" d="M1881.95,-73.3365C1917.2,-70.0282 1955.74,-66.4107 1987.57,-63.4226"/>
<polygon fill="midnightblue" stroke="midnightblue" points="1881.25,-69.8869 1871.62,-74.3062 1881.91,-76.8563 1881.25,-69.8869"/>
</g>
<!-- Node3 -->
<g id="node4" class="node"><title>Node3</title>
<a xlink:href="classstxxl_1_1noncopyable.html" target="_top" xlink:title="stxxl::noncopyable">
<polygon fill="none" stroke="black" points="12,-193.5 12,-214.5 114,-214.5 114,-193.5 12,-193.5"/>
<text text-anchor="middle" x="63" y="-201.5" font-family="Helvetica,sans-Serif" font-size="10.00">stxxl::noncopyable</text>
</a>
</g>
<!-- Node3&#45;&gt;Node2 -->
<g id="edge4" class="edge"><title>Node3&#45;&gt;Node2</title>
<path fill="none" stroke="#8b1a1a" d="M76.5364,-185.448C91.1139,-166.833 116.014,-138.733 144,-123 220.958,-79.737 248.715,-76 337,-76 337,-76 337,-76 1442,-76 1524.66,-76 1618.7,-78.1311 1686.39,-80.0415"/>
<polygon fill="#8b1a1a" stroke="#8b1a1a" points="73.6864,-183.413 70.416,-193.491 79.2569,-187.652 73.6864,-183.413"/>
</g>
<!-- Node4 -->
<g id="node6" class="node"><title>Node4</title>
<a xlink:href="classstxxl_1_1block__scheduler.html" target="_top" xlink:title="Schedules swapping of blocks and provides blocks for temporary storage. ">
<polygon fill="none" stroke="black" points="1374,-117 1374,-151 1510,-151 1510,-117 1374,-117"/>
<text text-anchor="start" x="1382" y="-138" font-family="Helvetica,sans-Serif" font-size="10.00">stxxl::block_scheduler</text>
<text text-anchor="middle" x="1442" y="-125" font-family="Helvetica,sans-Serif" font-size="10.00">&lt; SwappableBlockType &gt;</text>
</a>
</g>
<!-- Node3&#45;&gt;Node4 -->
<g id="edge8" class="edge"><title>Node3&#45;&gt;Node4</title>
<path fill="none" stroke="#8b1a1a" d="M90.106,-188.694C138.223,-163.007 242.415,-114 337,-114 337,-114 337,-114 1263,-114 1299.74,-114 1340.47,-118.213 1373.77,-122.772"/>
<polygon fill="#8b1a1a" stroke="#8b1a1a" points="88.3701,-185.654 81.2497,-193.5 91.7084,-191.807 88.3701,-185.654"/>
</g>
<!-- Node6 -->
<g id="node11" class="node"><title>Node6</title>
<a xlink:href="classstxxl_1_1singleton.html" target="_top" xlink:title="stxxl::singleton\&lt; block\l_manager \&gt;">
<polygon fill="none" stroke="black" points="578,-180 578,-214 696,-214 696,-180 578,-180"/>
<text text-anchor="start" x="586" y="-201" font-family="Helvetica,sans-Serif" font-size="10.00">stxxl::singleton&lt; block</text>
<text text-anchor="middle" x="637" y="-188" font-family="Helvetica,sans-Serif" font-size="10.00">_manager &gt;</text>
</a>
</g>
<!-- Node3&#45;&gt;Node6 -->
<g id="edge14" class="edge"><title>Node3&#45;&gt;Node6</title>
<path fill="none" stroke="#8b1a1a" d="M124.22,-203.253C235.199,-201.9 468.226,-199.058 577.745,-197.723"/>
<polygon fill="#8b1a1a" stroke="#8b1a1a" points="124.148,-199.754 114.191,-203.376 124.233,-206.753 124.148,-199.754"/>
</g>
<!-- Node7 -->
<g id="node14" class="node"><title>Node7</title>
<a xlink:href="classstxxl_1_1singleton.html" target="_top" xlink:title="stxxl::singleton\&lt; INSTANCE,\l destroy_on_exit \&gt;">
<polygon fill="none" stroke="black" points="262.5,-142 262.5,-176 411.5,-176 411.5,-142 262.5,-142"/>
<text text-anchor="start" x="270.5" y="-163" font-family="Helvetica,sans-Serif" font-size="10.00">stxxl::singleton&lt; INSTANCE,</text>
<text text-anchor="middle" x="337" y="-150" font-family="Helvetica,sans-Serif" font-size="10.00"> destroy_on_exit &gt;</text>
</a>
</g>
<!-- Node3&#45;&gt;Node7 -->
<g id="edge18" class="edge"><title>Node3&#45;&gt;Node7</title>
<path fill="none" stroke="#8b1a1a" d="M124.626,-193.27C131.165,-192.155 137.718,-191.047 144,-190 182.998,-183.498 226.471,-176.494 262.27,-170.791"/>
<polygon fill="#8b1a1a" stroke="#8b1a1a" points="123.67,-189.883 114.404,-195.021 124.851,-196.782 123.67,-189.883"/>
</g>
<!-- Node8 -->
<g id="node17" class="node"><title>Node8</title>
<a xlink:href="classstxxl_1_1file.html" target="_top" xlink:title="Defines interface of file. ">
<polygon fill="none" stroke="black" points="804,-330.5 804,-351.5 860,-351.5 860,-330.5 804,-330.5"/>
<text text-anchor="middle" x="832" y="-338.5" font-family="Helvetica,sans-Serif" font-size="10.00">stxxl::file</text>
</a>
</g>
<!-- Node3&#45;&gt;Node8 -->
<g id="edge22" class="edge"><title>Node3&#45;&gt;Node8</title>
<path fill="none" stroke="#8b1a1a" d="M77.2746,-222.551C91.989,-240.272 116.595,-266.257 144,-280 191.616,-303.879 209.454,-292.259 262,-301 336.531,-313.398 354.779,-319.895 430,-327 569.744,-340.2 737.867,-341.302 803.658,-341.167"/>
<polygon fill="#8b1a1a" stroke="#8b1a1a" points="79.8745,-220.199 70.8768,-214.605 74.4222,-224.589 79.8745,-220.199"/>
</g>
<!-- Node10 -->
<g id="node22" class="node"><title>Node10</title>
<a xlink:href="classstxxl_1_1mutex.html" target="_top" xlink:title="stxxl::mutex">
<polygon fill="none" stroke="black" points="302,-270.5 302,-291.5 372,-291.5 372,-270.5 302,-270.5"/>
<text text-anchor="middle" x="337" y="-278.5" font-family="Helvetica,sans-Serif" font-size="10.00">stxxl::mutex</text>
</a>
</g>
<!-- Node3&#45;&gt;Node10 -->
<g id="edge28" class="edge"><title>Node3&#45;&gt;Node10</title>
<path fill="none" stroke="#8b1a1a" d="M83.4244,-220.765C99.0356,-232.632 121.614,-247.834 144,-256 196.69,-275.219 262.199,-280.025 301.747,-281.029"/>
<polygon fill="#8b1a1a" stroke="#8b1a1a" points="85.548,-217.983 75.5138,-214.582 81.237,-223.498 85.548,-217.983"/>
</g>
<!-- Node13 -->
<g id="node29" class="node"><title>Node13</title>
<a xlink:href="classstxxl_1_1disk__allocator.html" target="_top" xlink:title="stxxl::disk_allocator">
<polygon fill="none" stroke="black" points="988.5,-261.5 988.5,-282.5 1095.5,-282.5 1095.5,-261.5 988.5,-261.5"/>
<text text-anchor="middle" x="1042" y="-269.5" font-family="Helvetica,sans-Serif" font-size="10.00">stxxl::disk_allocator</text>
</a>
</g>
<!-- Node3&#45;&gt;Node13 -->
<g id="edge36" class="edge"><title>Node3&#45;&gt;Node13</title>
<path fill="none" stroke="#8b1a1a" d="M120.184,-216.608C175.393,-227.669 261.498,-242 337,-242 337,-242 337,-242 832,-242 888.532,-242 952.771,-252.786 995.15,-261.423"/>
<polygon fill="#8b1a1a" stroke="#8b1a1a" points="120.741,-213.15 110.244,-214.585 119.345,-220.009 120.741,-213.15"/>
</g>
<!-- Node4&#45;&gt;Node2 -->
<g id="edge6" class="edge"><title>Node4&#45;&gt;Node2</title>
<path fill="none" stroke="#9a32cd" stroke-dasharray="5,2" d="M1520.22,-122.162C1569.8,-114.659 1634.18,-104.917 1686.32,-97.0261"/>
<polygon fill="#9a32cd" stroke="#9a32cd" points="1519.56,-118.722 1510.2,-123.679 1520.61,-125.644 1519.56,-118.722"/>
<text text-anchor="middle" x="1598" y="-124" font-family="Helvetica,sans-Serif" font-size="10.00"> bs</text>
</g>
<!-- Node5 -->
<g id="node9" class="node"><title>Node5</title>
<a xlink:href="classstxxl_1_1block__manager.html" target="_top" xlink:title="Block manager class. ">
<polygon fill="none" stroke="black" points="1206,-211.5 1206,-232.5 1320,-232.5 1320,-211.5 1206,-211.5"/>
<text text-anchor="middle" x="1263" y="-219.5" font-family="Helvetica,sans-Serif" font-size="10.00">stxxl::block_manager</text>
</a>
</g>
<!-- Node5&#45;&gt;Node4 -->
<g id="edge10" class="edge"><title>Node5&#45;&gt;Node4</title>
<path fill="none" stroke="#9a32cd" stroke-dasharray="5,2" d="M1293.78,-206.87C1325.28,-191.38 1374.18,-167.342 1407.11,-151.154"/>
<polygon fill="#9a32cd" stroke="#9a32cd" points="1292.02,-203.832 1284.59,-211.385 1295.11,-210.114 1292.02,-203.832"/>
<text text-anchor="middle" x="1347" y="-187" font-family="Helvetica,sans-Serif" font-size="10.00"> bm</text>
</g>
<!-- Node6&#45;&gt;Node5 -->
<g id="edge12" class="edge"><title>Node6&#45;&gt;Node5</title>
<path fill="none" stroke="midnightblue" d="M706.357,-199.77C830.96,-204.746 1090.43,-215.108 1205.69,-219.711"/>
<polygon fill="midnightblue" stroke="midnightblue" points="706.306,-196.265 696.174,-199.363 706.027,-203.26 706.306,-196.265"/>
</g>
<!-- Node7&#45;&gt;Node6 -->
<g id="edge16" class="edge"><title>Node7&#45;&gt;Node6</title>
<path fill="none" stroke="orange" stroke-dasharray="5,2" d="M421.877,-162.382C463.682,-164.927 514.712,-169.35 560,-177 565.856,-177.989 571.917,-179.21 577.95,-180.558"/>
<polygon fill="orange" stroke="orange" points="421.92,-158.878 411.733,-161.79 421.512,-165.866 421.92,-158.878"/>
<text text-anchor="middle" x="495" y="-181" font-family="Helvetica,sans-Serif" font-size="10.00"> &lt; block_manager &gt;</text>
</g>
<!-- Node8&#45;&gt;Node5 -->
<g id="edge20" class="edge"><title>Node8&#45;&gt;Node5</title>
<path fill="none" stroke="#9a32cd" stroke-dasharray="5,2" d="M870.117,-338.983C937.094,-334.266 1079.12,-318.981 1188,-271 1211.2,-260.776 1235.26,-243.707 1249.68,-232.654"/>
<polygon fill="#9a32cd" stroke="#9a32cd" points="869.774,-335.498 860.028,-339.652 870.238,-342.482 869.774,-335.498"/>
<text text-anchor="middle" x="1042" y="-329" font-family="Helvetica,sans-Serif" font-size="10.00"> disk_files</text>
</g>
<!-- Node8&#45;&gt;Node13 -->
<g id="edge38" class="edge"><title>Node8&#45;&gt;Node13</title>
<path fill="none" stroke="#9a32cd" stroke-dasharray="5,2" d="M856.341,-324.973C863.15,-320.977 870.692,-316.986 878,-314 917.016,-298.059 929.179,-301.488 970,-291 980.518,-288.298 991.885,-285.323 1002.41,-282.546"/>
<polygon fill="#9a32cd" stroke="#9a32cd" points="854.296,-322.121 847.6,-330.331 857.954,-328.089 854.296,-322.121"/>
<text text-anchor="middle" x="924" y="-318" font-family="Helvetica,sans-Serif" font-size="10.00"> storage</text>
</g>
<!-- Node9 -->
<g id="node20" class="node"><title>Node9</title>
<a xlink:href="classstxxl_1_1atomic__counted__object.html" target="_top" xlink:title="Provides reference counting abilities for use with counting_ptr with mutex locking. ">
<polygon fill="none" stroke="black" points="579,-369 579,-403 695,-403 695,-369 579,-369"/>
<text text-anchor="start" x="587" y="-390" font-family="Helvetica,sans-Serif" font-size="10.00">stxxl::atomic_counted</text>
<text text-anchor="middle" x="637" y="-377" font-family="Helvetica,sans-Serif" font-size="10.00">_object</text>
</a>
</g>
<!-- Node9&#45;&gt;Node8 -->
<g id="edge24" class="edge"><title>Node9&#45;&gt;Node8</title>
<path fill="none" stroke="#9a32cd" stroke-dasharray="5,2" d="M705.237,-373.15C730.701,-368.002 759.785,-361.702 786,-355 791.823,-353.511 798.009,-351.753 803.894,-349.994"/>
<polygon fill="#9a32cd" stroke="#9a32cd" points="704.422,-369.744 695.303,-375.138 705.796,-376.608 704.422,-369.744"/>
<text text-anchor="middle" x="750" y="-374" font-family="Helvetica,sans-Serif" font-size="10.00"> m_request_ref</text>
</g>
<!-- Node10&#45;&gt;Node9 -->
<g id="edge26" class="edge"><title>Node10&#45;&gt;Node9</title>
<path fill="none" stroke="#9a32cd" stroke-dasharray="5,2" d="M376.812,-294.934C431.431,-314.051 529.514,-348.38 588.398,-368.989"/>
<polygon fill="#9a32cd" stroke="#9a32cd" points="377.734,-291.549 367.139,-291.549 375.421,-298.156 377.734,-291.549"/>
<text text-anchor="middle" x="495" y="-361" font-family="Helvetica,sans-Serif" font-size="10.00"> m_reference_count_mutex</text>
</g>
<!-- Node10&#45;&gt;Node13 -->
<g id="edge40" class="edge"><title>Node10&#45;&gt;Node13</title>
<path fill="none" stroke="#9a32cd" stroke-dasharray="5,2" d="M382.798,-280.415C507.798,-278.82 854.395,-274.395 988.267,-272.686"/>
<polygon fill="#9a32cd" stroke="#9a32cd" points="382.399,-276.92 372.444,-280.548 382.488,-283.919 382.399,-276.92"/>
<text text-anchor="middle" x="750" y="-280" font-family="Helvetica,sans-Serif" font-size="10.00"> mutex</text>
</g>
<!-- Node11 -->
<g id="node25" class="node"><title>Node11</title>
<a xlink:href="structstxxl_1_1choose__int__types.html" target="_top" xlink:title="stxxl::choose_int_types\l\&lt; my_pointer_size \&gt;">
<polygon fill="none" stroke="black" points="274.5,-369 274.5,-403 399.5,-403 399.5,-369 274.5,-369"/>
<text text-anchor="start" x="282.5" y="-390" font-family="Helvetica,sans-Serif" font-size="10.00">stxxl::choose_int_types</text>
<text text-anchor="middle" x="337" y="-377" font-family="Helvetica,sans-Serif" font-size="10.00">&lt; my_pointer_size &gt;</text>
</a>
</g>
<!-- Node11&#45;&gt;Node4 -->
<g id="edge42" class="edge"><title>Node11&#45;&gt;Node4</title>
<path fill="none" stroke="#9a32cd" stroke-dasharray="5,2" d="M409.342,-403.023C469.825,-415.764 558.55,-431 637,-431 637,-431 637,-431 1263,-431 1394.54,-431 1431.94,-214.639 1440.07,-151.252"/>
<polygon fill="#9a32cd" stroke="#9a32cd" points="410.021,-399.59 399.51,-400.922 408.557,-406.435 410.021,-399.59"/>
<text text-anchor="start" x="878.5" y="-448" font-family="Helvetica,sans-Serif" font-size="10.00"> remaining_internal</text>
<text text-anchor="middle" x="924" y="-435" font-family="Helvetica,sans-Serif" font-size="10.00">_blocks</text>
</g>
<!-- Node11&#45;&gt;Node9 -->
<g id="edge30" class="edge"><title>Node11&#45;&gt;Node9</title>
<path fill="none" stroke="#9a32cd" stroke-dasharray="5,2" d="M409.675,-386C461.617,-386 530.584,-386 578.881,-386"/>
<polygon fill="#9a32cd" stroke="#9a32cd" points="409.525,-382.5 399.525,-386 409.525,-389.5 409.525,-382.5"/>
<text text-anchor="middle" x="495" y="-390" font-family="Helvetica,sans-Serif" font-size="10.00"> m_reference_count</text>
</g>
<!-- Node12 -->
<g id="node27" class="node"><title>Node12</title>
<a xlink:href="structstxxl_1_1choose__int__types.html" target="_top" xlink:title="stxxl::choose_int_types\l\&lt; PtrSize \&gt;">
<polygon fill="none" stroke="black" points="0.5,-369 0.5,-403 125.5,-403 125.5,-369 0.5,-369"/>
<text text-anchor="start" x="8.5" y="-390" font-family="Helvetica,sans-Serif" font-size="10.00">stxxl::choose_int_types</text>
<text text-anchor="middle" x="63" y="-377" font-family="Helvetica,sans-Serif" font-size="10.00">&lt; PtrSize &gt;</text>
</a>
</g>
<!-- Node12&#45;&gt;Node11 -->
<g id="edge32" class="edge"><title>Node12&#45;&gt;Node11</title>
<path fill="none" stroke="orange" stroke-dasharray="5,2" d="M135.672,-386C178.827,-386 232.999,-386 274.277,-386"/>
<polygon fill="orange" stroke="orange" points="135.518,-382.5 125.518,-386 135.518,-389.5 135.518,-382.5"/>
<text text-anchor="middle" x="194" y="-390" font-family="Helvetica,sans-Serif" font-size="10.00"> &lt; my_pointer_size &gt;</text>
</g>
<!-- Node13&#45;&gt;Node5 -->
<g id="edge34" class="edge"><title>Node13&#45;&gt;Node5</title>
<path fill="none" stroke="#9a32cd" stroke-dasharray="5,2" d="M1098.61,-259.192C1135.15,-250.925 1182.1,-240.303 1216.47,-232.528"/>
<polygon fill="#9a32cd" stroke="#9a32cd" points="1097.58,-255.837 1088.6,-261.457 1099.12,-262.664 1097.58,-255.837"/>
<text text-anchor="middle" x="1151" y="-258" font-family="Helvetica,sans-Serif" font-size="10.00"> disk_allocators</text>
</g>
<!-- Node14 -->
<g id="node35" class="node"><title>Node14</title>
<a xlink:href="classstxxl_1_1addressable__fifo__queue.html" target="_top" xlink:title="stxxl::addressable\l_fifo_queue\&lt; swappable\l_block_identifier_type \&gt;">
<polygon fill="none" stroke="black" points="1713.5,-0.5 1713.5,-47.5 1844.5,-47.5 1844.5,-0.5 1713.5,-0.5"/>
<text text-anchor="start" x="1721.5" y="-34.5" font-family="Helvetica,sans-Serif" font-size="10.00">stxxl::addressable</text>
<text text-anchor="start" x="1721.5" y="-21.5" font-family="Helvetica,sans-Serif" font-size="10.00">_fifo_queue&lt; swappable</text>
<text text-anchor="middle" x="1779" y="-8.5" font-family="Helvetica,sans-Serif" font-size="10.00">_block_identifier_type &gt;</text>
</a>
</g>
<!-- Node14&#45;&gt;Node1 -->
<g id="edge44" class="edge"><title>Node14&#45;&gt;Node1</title>
<path fill="none" stroke="#9a32cd" stroke-dasharray="5,2" d="M1854.73,-33.0225C1896.36,-37.9817 1947.58,-44.0838 1987.93,-48.891"/>
<polygon fill="#9a32cd" stroke="#9a32cd" points="1854.99,-29.5282 1844.65,-31.8205 1854.16,-36.479 1854.99,-29.5282"/>
<text text-anchor="middle" x="1930" y="-50" font-family="Helvetica,sans-Serif" font-size="10.00"> evictable_blocks</text>
</g>
<!-- Node15 -->
<g id="node37" class="node"><title>Node15</title>
<a xlink:href="classstxxl_1_1addressable__fifo__queue.html" target="_top" xlink:title="An internal fifo queue that allows removing elements addressed with (a copy of) themselves. ">
<polygon fill="none" stroke="black" points="1376.5,-7 1376.5,-41 1507.5,-41 1507.5,-7 1376.5,-7"/>
<text text-anchor="start" x="1384.5" y="-28" font-family="Helvetica,sans-Serif" font-size="10.00">stxxl::addressable</text>
<text text-anchor="middle" x="1442" y="-15" font-family="Helvetica,sans-Serif" font-size="10.00">_fifo_queue&lt; KeyType &gt;</text>
</a>
</g>
<!-- Node15&#45;&gt;Node14 -->
<g id="edge46" class="edge"><title>Node15&#45;&gt;Node14</title>
<path fill="none" stroke="orange" stroke-dasharray="5,2" d="M1518.12,-24C1576.91,-24 1657.42,-24 1713.39,-24"/>
<polygon fill="orange" stroke="orange" points="1517.78,-20.5001 1507.78,-24 1517.78,-27.5001 1517.78,-20.5001"/>
<text text-anchor="start" x="1528.5" y="-41" font-family="Helvetica,sans-Serif" font-size="10.00"> &lt; swappable_block_identifier</text>
<text text-anchor="middle" x="1598" y="-28" font-family="Helvetica,sans-Serif" font-size="10.00">_type &gt;</text>
</g>
</g>
</svg>
