<?xml version="1.0" encoding="UTF-8" standalone="no"?>
<!DOCTYPE svg PUBLIC "-//W3C//DTD SVG 1.1//EN"
 "http://www.w3.org/Graphics/SVG/1.1/DTD/svg11.dtd">
<!-- Generated by graphviz version 2.26.3 (20100126.1600)
 -->
<!-- Title: stxxl::const_matrix_iterator&lt; ValueType, BlockSideLength &gt; Pages: 1 -->
<svg width="332pt" height="122pt"
 viewBox="0.00 0.00 332.00 122.00" xmlns="http://www.w3.org/2000/svg" xmlns:xlink="http://www.w3.org/1999/xlink">
<g id="graph1" class="graph" transform="scale(1 1) rotate(0) translate(4 118)">
<title>stxxl::const_matrix_iterator&lt; ValueType, BlockSideLength &gt;</title>
<!-- Node1 -->
<g id="node1" class="node"><title>Node1</title>
<polygon fill="#bfbfbf" stroke="black" points="0,-33.5 0,-80.5 118,-80.5 118,-33.5 0,-33.5"/>
<text text-anchor="start" x="8" y="-67.5" font-family="Helvetica,sans-Serif" font-size="10.00">stxxl::const_matrix</text>
<text text-anchor="start" x="8" y="-54.5" font-family="Helvetica,sans-Serif" font-size="10.00">_iterator&lt; ValueType,</text>
<text text-anchor="middle" x="59" y="-41.5" font-family="Helvetica,sans-Serif" font-size="10.00"> BlockSideLength &gt;</text>
</g>
<!-- Node2 -->
<g id="node3" class="node"><title>Node2</title>
<a xlink:href="classstxxl_1_1const__matrix__col__major__iterator.html" target="_top" xlink:title="column&#45;major const_iterator that points to single elements inside a matrix ">
<polygon fill="none" stroke="black" points="154,-66.5 154,-113.5 324,-113.5 324,-66.5 154,-66.5"/>
<text text-anchor="start" x="162" y="-100.5" font-family="Helvetica,sans-Serif" font-size="10.00">stxxl::const_matrix</text>
<text text-anchor="start" x="162" y="-87.5" font-family="Helvetica,sans-Serif" font-size="10.00">_col_major_iterator</text>
<text text-anchor="middle" x="239" y="-74.5" font-family="Helvetica,sans-Serif" font-size="10.00">&lt; ValueType, BlockSideLength &gt;</text>
</a>
</g>
<!-- Node1&#45;&gt;Node2 -->
<g id="edge2" class="edge"><title>Node1&#45;&gt;Node2</title>
<path fill="none" stroke="midnightblue" d="M128.459,-69.7341C136.793,-71.262 145.374,-72.8353 153.897,-74.3979"/>
<polygon fill="midnightblue" stroke="midnightblue" points="128.905,-66.2576 118.438,-67.8969 127.642,-73.1429 128.905,-66.2576"/>
</g>
<!-- Node3 -->
<g id="node5" class="node"><title>Node3</title>
<a xlink:href="classstxxl_1_1const__matrix__row__major__iterator.html" target="_top" xlink:title="row&#45;major const_iterator that points to single elements inside a matrix ">
<polygon fill="none" stroke="black" points="154,-0.5 154,-47.5 324,-47.5 324,-0.5 154,-0.5"/>
<text text-anchor="start" x="162" y="-34.5" font-family="Helvetica,sans-Serif" font-size="10.00">stxxl::const_matrix</text>
<text text-anchor="start" x="162" y="-21.5" font-family="Helvetica,sans-Serif" font-size="10.00">_row_major_iterator</text>
<text text-anchor="middle" x="239" y="-8.5" font-family="Helvetica,sans-Serif" font-size="10.00">&lt; ValueType, BlockSideLength &gt;</text>
</a>
</g>
<!-- Node1&#45;&gt;Node3 -->
<g id="edge4" class="edge"><title>Node1&#45;&gt;Node3</title>
<path fill="none" stroke="midnightblue" d="M128.459,-44.2659C136.793,-42.738 145.374,-41.1647 153.897,-39.6021"/>
<polygon fill="midnightblue" stroke="midnightblue" points="127.642,-40.8571 118.438,-46.1031 128.905,-47.7424 127.642,-40.8571"/>
</g>
</g>
</svg>
