<?xml version="1.0" encoding="UTF-8" standalone="no"?>
<!DOCTYPE svg PUBLIC "-//W3C//DTD SVG 1.1//EN"
 "http://www.w3.org/Graphics/SVG/1.1/DTD/svg11.dtd">
<!-- Generated by graphviz version 2.26.3 (20100126.1600)
 -->
<!-- Title: stxxl::mem_file Pages: 1 -->
<svg width="359pt" height="408pt"
 viewBox="0.00 0.00 359.00 408.00" xmlns="http://www.w3.org/2000/svg" xmlns:xlink="http://www.w3.org/1999/xlink">
<g id="graph1" class="graph" transform="scale(1 1) rotate(0) translate(4 404)">
<title>stxxl::mem_file</title>
<!-- Node1 -->
<g id="node1" class="node"><title>Node1</title>
<polygon fill="#bfbfbf" stroke="black" points="53,-0.5 53,-21.5 137,-21.5 137,-0.5 53,-0.5"/>
<text text-anchor="middle" x="95" y="-8.5" font-family="Helvetica,sans-Serif" font-size="10.00">stxxl::mem_file</text>
</g>
<!-- Node2 -->
<g id="node2" class="node"><title>Node2</title>
<a xlink:href="classstxxl_1_1disk__queued__file.html" target="_top" xlink:title="Implementation of some file methods based on serving_request. ">
<polygon fill="none" stroke="black" points="95.5,-60.5 95.5,-81.5 216.5,-81.5 216.5,-60.5 95.5,-60.5"/>
<text text-anchor="middle" x="156" y="-68.5" font-family="Helvetica,sans-Serif" font-size="10.00">stxxl::disk_queued_file</text>
</a>
</g>
<!-- Node2&#45;&gt;Node1 -->
<g id="edge2" class="edge"><title>Node2&#45;&gt;Node1</title>
<path fill="none" stroke="midnightblue" d="M137.686,-52.986C127.289,-42.7598 114.632,-30.3099 105.811,-21.6339"/>
<polygon fill="midnightblue" stroke="midnightblue" points="135.511,-55.756 145.094,-60.2732 140.419,-50.7655 135.511,-55.756"/>
</g>
<!-- Node3 -->
<g id="node4" class="node"><title>Node3</title>
<a xlink:href="classstxxl_1_1file.html" target="_top" xlink:title="Defines interface of file. ">
<polygon fill="none" stroke="black" points="131,-120.5 131,-141.5 187,-141.5 187,-120.5 131,-120.5"/>
<text text-anchor="middle" x="159" y="-128.5" font-family="Helvetica,sans-Serif" font-size="10.00">stxxl::file</text>
</a>
</g>
<!-- Node3&#45;&gt;Node2 -->
<g id="edge4" class="edge"><title>Node3&#45;&gt;Node2</title>
<path fill="none" stroke="midnightblue" d="M157.962,-110.231C157.48,-100.592 156.927,-89.5444 156.532,-81.6339"/>
<polygon fill="midnightblue" stroke="midnightblue" points="154.469,-110.46 158.464,-120.273 161.46,-110.111 154.469,-110.46"/>
</g>
<!-- Node4 -->
<g id="node6" class="node"><title>Node4</title>
<a xlink:href="classstxxl_1_1noncopyable.html" target="_top" xlink:title="stxxl::noncopyable">
<polygon fill="none" stroke="black" points="0,-371.5 0,-392.5 102,-392.5 102,-371.5 0,-371.5"/>
<text text-anchor="middle" x="51" y="-379.5" font-family="Helvetica,sans-Serif" font-size="10.00">stxxl::noncopyable</text>
</a>
</g>
<!-- Node4&#45;&gt;Node3 -->
<g id="edge6" class="edge"><title>Node4&#45;&gt;Node3</title>
<path fill="none" stroke="#8b1a1a" d="M46.7449,-361.202C42.1121,-333.682 37.2887,-284.196 53,-246 72.2124,-199.293 119.463,-159.749 143.867,-141.616"/>
<polygon fill="#8b1a1a" stroke="#8b1a1a" points="43.3401,-362.039 48.5947,-371.239 50.2242,-360.77 43.3401,-362.039"/>
</g>
<!-- Node6 -->
<g id="node10" class="node"><title>Node6</title>
<a xlink:href="classstxxl_1_1mutex.html" target="_top" xlink:title="stxxl::mutex">
<polygon fill="none" stroke="black" points="57,-285.5 57,-306.5 127,-306.5 127,-285.5 57,-285.5"/>
<text text-anchor="middle" x="92" y="-293.5" font-family="Helvetica,sans-Serif" font-size="10.00">stxxl::mutex</text>
</a>
</g>
<!-- Node4&#45;&gt;Node6 -->
<g id="edge12" class="edge"><title>Node4&#45;&gt;Node6</title>
<path fill="none" stroke="#8b1a1a" d="M60.4235,-362.234C68.6694,-344.937 80.3324,-320.474 86.9315,-306.632"/>
<polygon fill="#8b1a1a" stroke="#8b1a1a" points="57.1715,-360.922 56.0274,-371.455 63.4902,-363.934 57.1715,-360.922"/>
</g>
<!-- Node5 -->
<g id="node8" class="node"><title>Node5</title>
<a xlink:href="classstxxl_1_1atomic__counted__object.html" target="_top" xlink:title="Provides reference counting abilities for use with counting_ptr with mutex locking. ">
<polygon fill="none" stroke="black" points="101,-193 101,-227 217,-227 217,-193 101,-193"/>
<text text-anchor="start" x="109" y="-214" font-family="Helvetica,sans-Serif" font-size="10.00">stxxl::atomic_counted</text>
<text text-anchor="middle" x="159" y="-201" font-family="Helvetica,sans-Serif" font-size="10.00">_object</text>
</a>
</g>
<!-- Node5&#45;&gt;Node3 -->
<g id="edge8" class="edge"><title>Node5&#45;&gt;Node3</title>
<path fill="none" stroke="#9a32cd" stroke-dasharray="5,2" d="M159,-182.623C159,-168.473 159,-152.024 159,-141.567"/>
<polygon fill="#9a32cd" stroke="#9a32cd" points="155.5,-182.858 159,-192.858 162.5,-182.858 155.5,-182.858"/>
<text text-anchor="middle" x="195" y="-164.5" font-family="Helvetica,sans-Serif" font-size="10.00"> m_request_ref</text>
</g>
<!-- Node6&#45;&gt;Node1 -->
<g id="edge18" class="edge"><title>Node6&#45;&gt;Node1</title>
<path fill="none" stroke="#9a32cd" stroke-dasharray="5,2" d="M82.6754,-275.935C75.5706,-258.803 67,-233.306 67,-210 67,-210 67,-210 67,-71 67,-52.3779 78.2126,-33.2973 86.4469,-21.7957"/>
<polygon fill="#9a32cd" stroke="#9a32cd" points="79.6108,-277.663 86.82,-285.427 86.0259,-274.862 79.6108,-277.663"/>
<text text-anchor="middle" x="90" y="-128.5" font-family="Helvetica,sans-Serif" font-size="10.00"> m_mutex</text>
</g>
<!-- Node6&#45;&gt;Node5 -->
<g id="edge10" class="edge"><title>Node6&#45;&gt;Node5</title>
<path fill="none" stroke="#9a32cd" stroke-dasharray="5,2" d="M91.9962,-274.84C92.9054,-265.332 95.3005,-254.39 101,-246 106.128,-238.451 113.418,-232.187 121.106,-227.117"/>
<polygon fill="#9a32cd" stroke="#9a32cd" points="88.487,-274.948 91.5023,-285.104 95.4789,-275.284 88.487,-274.948"/>
<text text-anchor="middle" x="165.5" y="-250.5" font-family="Helvetica,sans-Serif" font-size="10.00"> m_reference_count_mutex</text>
</g>
<!-- Node7 -->
<g id="node13" class="node"><title>Node7</title>
<a xlink:href="structstxxl_1_1choose__int__types.html" target="_top" xlink:title="stxxl::choose_int_types\l\&lt; my_pointer_size \&gt;">
<polygon fill="none" stroke="black" points="189.5,-279 189.5,-313 314.5,-313 314.5,-279 189.5,-279"/>
<text text-anchor="start" x="197.5" y="-300" font-family="Helvetica,sans-Serif" font-size="10.00">stxxl::choose_int_types</text>
<text text-anchor="middle" x="252" y="-287" font-family="Helvetica,sans-Serif" font-size="10.00">&lt; my_pointer_size &gt;</text>
</a>
</g>
<!-- Node7&#45;&gt;Node5 -->
<g id="edge14" class="edge"><title>Node7&#45;&gt;Node5</title>
<path fill="none" stroke="#9a32cd" stroke-dasharray="5,2" d="M244.066,-269.01C240.708,-260.907 236.118,-252.463 230,-246 222.779,-238.372 213.588,-232.101 204.233,-227.052"/>
<polygon fill="#9a32cd" stroke="#9a32cd" points="240.843,-270.387 247.573,-278.57 247.415,-267.977 240.843,-270.387"/>
<text text-anchor="middle" x="286.5" y="-250.5" font-family="Helvetica,sans-Serif" font-size="10.00"> m_reference_count</text>
</g>
<!-- Node8 -->
<g id="node15" class="node"><title>Node8</title>
<a xlink:href="structstxxl_1_1choose__int__types.html" target="_top" xlink:title="stxxl::choose_int_types\l\&lt; PtrSize \&gt;">
<polygon fill="none" stroke="black" points="189.5,-365 189.5,-399 314.5,-399 314.5,-365 189.5,-365"/>
<text text-anchor="start" x="197.5" y="-386" font-family="Helvetica,sans-Serif" font-size="10.00">stxxl::choose_int_types</text>
<text text-anchor="middle" x="252" y="-373" font-family="Helvetica,sans-Serif" font-size="10.00">&lt; PtrSize &gt;</text>
</a>
</g>
<!-- Node8&#45;&gt;Node7 -->
<g id="edge16" class="edge"><title>Node8&#45;&gt;Node7</title>
<path fill="none" stroke="orange" stroke-dasharray="5,2" d="M252,-354.342C252,-340.774 252,-324.861 252,-313.084"/>
<polygon fill="orange" stroke="orange" points="248.5,-354.597 252,-364.597 255.5,-354.597 248.5,-354.597"/>
<text text-anchor="middle" x="301.5" y="-336.5" font-family="Helvetica,sans-Serif" font-size="10.00"> &lt; my_pointer_size &gt;</text>
</g>
</g>
</svg>
