<?xml version="1.0" encoding="UTF-8" standalone="no"?>
<!DOCTYPE svg PUBLIC "-//W3C//DTD SVG 1.1//EN"
 "http://www.w3.org/Graphics/SVG/1.1/DTD/svg11.dtd">
<!-- Generated by graphviz version 2.26.3 (20100126.1600)
 -->
<!-- Title: stxxl::priority_queue_local::loser_tree&lt; ValueType, CompareType, MaxArity &gt; Pages: 1 -->
<svg width="210pt" height="240pt"
 viewBox="0.00 0.00 210.00 240.00" xmlns="http://www.w3.org/2000/svg" xmlns:xlink="http://www.w3.org/1999/xlink">
<g id="graph1" class="graph" transform="scale(1 1) rotate(0) translate(4 236)">
<title>stxxl::priority_queue_local::loser_tree&lt; ValueType, CompareType, MaxArity &gt;</title>
<!-- Node1 -->
<g id="node1" class="node"><title>Node1</title>
<polygon fill="#bfbfbf" stroke="black" points="0,-124.5 0,-171.5 158,-171.5 158,-124.5 0,-124.5"/>
<text text-anchor="start" x="8" y="-158.5" font-family="Helvetica,sans-Serif" font-size="10.00">stxxl::priority_queue</text>
<text text-anchor="start" x="8" y="-145.5" font-family="Helvetica,sans-Serif" font-size="10.00">_local::loser_tree&lt; ValueType,</text>
<text text-anchor="middle" x="79" y="-132.5" font-family="Helvetica,sans-Serif" font-size="10.00"> CompareType, MaxArity &gt;</text>
</g>
<!-- Node3 -->
<g id="node5" class="node"><title>Node3</title>
<a xlink:href="classstxxl_1_1priority__queue__local_1_1loser__tree.html" target="_top" xlink:title="stxxl::priority_queue\l_local::loser_tree\&lt; value\l_type, comparator_type,\l IntKMAX \&gt;">
<polygon fill="none" stroke="black" points="13.5,-1 13.5,-61 144.5,-61 144.5,-1 13.5,-1"/>
<text text-anchor="start" x="21.5" y="-48" font-family="Helvetica,sans-Serif" font-size="10.00">stxxl::priority_queue</text>
<text text-anchor="start" x="21.5" y="-35" font-family="Helvetica,sans-Serif" font-size="10.00">_local::loser_tree&lt; value</text>
<text text-anchor="start" x="21.5" y="-22" font-family="Helvetica,sans-Serif" font-size="10.00">_type, comparator_type,</text>
<text text-anchor="middle" x="79" y="-9" font-family="Helvetica,sans-Serif" font-size="10.00"> IntKMAX &gt;</text>
</a>
</g>
<!-- Node1&#45;&gt;Node3 -->
<g id="edge4" class="edge"><title>Node1&#45;&gt;Node3</title>
<path fill="none" stroke="orange" stroke-dasharray="5,2" d="M79,-113.924C79,-97.2834 79,-77.4293 79,-61.3206"/>
<polygon fill="orange" stroke="orange" points="75.5001,-114.323 79,-124.323 82.5001,-114.323 75.5001,-114.323"/>
<text text-anchor="start" x="79" y="-97" font-family="Helvetica,sans-Serif" font-size="10.00"> &lt; value_type, comparator</text>
<text text-anchor="middle" x="140.5" y="-84" font-family="Helvetica,sans-Serif" font-size="10.00">_type, IntKMAX &gt;</text>
</g>
<!-- Node2 -->
<g id="node2" class="node"><title>Node2</title>
<a xlink:href="classstxxl_1_1noncopyable.html" target="_top" xlink:title="stxxl::noncopyable">
<polygon fill="none" stroke="black" points="28,-210.5 28,-231.5 130,-231.5 130,-210.5 28,-210.5"/>
<text text-anchor="middle" x="79" y="-218.5" font-family="Helvetica,sans-Serif" font-size="10.00">stxxl::noncopyable</text>
</a>
</g>
<!-- Node2&#45;&gt;Node1 -->
<g id="edge2" class="edge"><title>Node2&#45;&gt;Node1</title>
<path fill="none" stroke="#8b1a1a" d="M79,-200.053C79,-191.23 79,-180.915 79,-171.805"/>
<polygon fill="#8b1a1a" stroke="#8b1a1a" points="75.5001,-200.229 79,-210.229 82.5001,-200.229 75.5001,-200.229"/>
</g>
</g>
</svg>
