<?xml version="1.0" encoding="UTF-8" standalone="no"?>
<!DOCTYPE svg PUBLIC "-//W3C//DTD SVG 1.1//EN"
 "http://www.w3.org/Graphics/SVG/1.1/DTD/svg11.dtd">
<!-- Generated by graphviz version 2.26.3 (20100126.1600)
 -->
<!-- Title: stxxl::stats Pages: 1 -->
<svg width="248pt" height="274pt"
 viewBox="0.00 0.00 248.02 274.00" xmlns="http://www.w3.org/2000/svg" xmlns:xlink="http://www.w3.org/1999/xlink">
<g id="graph1" class="graph" transform="scale(1 1) rotate(0) translate(4 270)">
<title>stxxl::stats</title>
<!-- Node1 -->
<g id="node1" class="node"><title>Node1</title>
<polygon fill="#bfbfbf" stroke="black" points="129.518,-0.5 129.518,-21.5 194.518,-21.5 194.518,-0.5 129.518,-0.5"/>
<text text-anchor="middle" x="162.018" y="-8.5" font-family="Helvetica,sans-Serif" font-size="10.00">stxxl::stats</text>
</g>
<!-- Node2 -->
<g id="node2" class="node"><title>Node2</title>
<a xlink:href="classstxxl_1_1singleton.html" target="_top" xlink:title="stxxl::singleton\&lt; stats \&gt;">
<polygon fill="none" stroke="black" points="26.5179,-75.5 26.5179,-96.5 151.518,-96.5 151.518,-75.5 26.5179,-75.5"/>
<text text-anchor="middle" x="89.0179" y="-83.5" font-family="Helvetica,sans-Serif" font-size="10.00">stxxl::singleton&lt; stats &gt;</text>
</a>
</g>
<!-- Node2&#45;&gt;Node1 -->
<g id="edge2" class="edge"><title>Node2&#45;&gt;Node1</title>
<path fill="none" stroke="midnightblue" d="M106.67,-67.8648C120.71,-53.44 139.877,-33.747 151.578,-21.7257"/>
<polygon fill="midnightblue" stroke="midnightblue" points="103.944,-65.6471 99.477,-75.2543 108.96,-70.5295 103.944,-65.6471"/>
</g>
<!-- Node3 -->
<g id="node4" class="node"><title>Node3</title>
<a xlink:href="classstxxl_1_1noncopyable.html" target="_top" xlink:title="stxxl::noncopyable">
<polygon fill="none" stroke="black" points="38.0179,-244.5 38.0179,-265.5 140.018,-265.5 140.018,-244.5 38.0179,-244.5"/>
<text text-anchor="middle" x="89.0179" y="-252.5" font-family="Helvetica,sans-Serif" font-size="10.00">stxxl::noncopyable</text>
</a>
</g>
<!-- Node3&#45;&gt;Node2 -->
<g id="edge4" class="edge"><title>Node3&#45;&gt;Node2</title>
<path fill="none" stroke="#8b1a1a" d="M45.9817,-240.111C30.5536,-232.452 14.812,-221.404 6.0179,-206 -18.221,-163.543 41.2629,-116.898 72.0081,-96.5115"/>
<polygon fill="#8b1a1a" stroke="#8b1a1a" points="44.9321,-243.48 55.4824,-244.451 47.8404,-237.112 44.9321,-243.48"/>
</g>
<!-- Node4 -->
<g id="node6" class="node"><title>Node4</title>
<a xlink:href="classstxxl_1_1singleton.html" target="_top" xlink:title="stxxl::singleton\&lt; INSTANCE,\l destroy_on_exit \&gt;">
<polygon fill="none" stroke="black" points="14.5179,-171 14.5179,-205 163.518,-205 163.518,-171 14.5179,-171"/>
<text text-anchor="start" x="22.5179" y="-192" font-family="Helvetica,sans-Serif" font-size="10.00">stxxl::singleton&lt; INSTANCE,</text>
<text text-anchor="middle" x="89.0179" y="-179" font-family="Helvetica,sans-Serif" font-size="10.00"> destroy_on_exit &gt;</text>
</a>
</g>
<!-- Node3&#45;&gt;Node4 -->
<g id="edge8" class="edge"><title>Node3&#45;&gt;Node4</title>
<path fill="none" stroke="#8b1a1a" d="M89.0179,-234.165C89.0179,-224.797 89.0179,-213.88 89.0179,-205.014"/>
<polygon fill="#8b1a1a" stroke="#8b1a1a" points="85.518,-234.235 89.0179,-244.235 92.518,-234.235 85.518,-234.235"/>
</g>
<!-- Node5 -->
<g id="node9" class="node"><title>Node5</title>
<a xlink:href="classstxxl_1_1mutex.html" target="_top" xlink:title="stxxl::mutex">
<polygon fill="none" stroke="black" points="155.018,-130.5 155.018,-151.5 225.018,-151.5 225.018,-130.5 155.018,-130.5"/>
<text text-anchor="middle" x="190.018" y="-138.5" font-family="Helvetica,sans-Serif" font-size="10.00">stxxl::mutex</text>
</a>
</g>
<!-- Node3&#45;&gt;Node5 -->
<g id="edge12" class="edge"><title>Node3&#45;&gt;Node5</title>
<path fill="none" stroke="#8b1a1a" d="M127.432,-240.054C143.302,-232.118 160.617,-220.878 172.018,-206 184.41,-189.828 188.272,-165.611 189.475,-151.757"/>
<polygon fill="#8b1a1a" stroke="#8b1a1a" points="125.867,-236.922 118.31,-244.348 128.848,-243.256 125.867,-236.922"/>
</g>
<!-- Node4&#45;&gt;Node2 -->
<g id="edge6" class="edge"><title>Node4&#45;&gt;Node2</title>
<path fill="none" stroke="orange" stroke-dasharray="5,2" d="M89.0179,-160.691C89.0179,-139.581 89.0179,-111.511 89.0179,-96.5093"/>
<polygon fill="orange" stroke="orange" points="85.518,-160.697 89.0179,-170.697 92.518,-160.697 85.518,-160.697"/>
<text text-anchor="middle" x="111.018" y="-138.5" font-family="Helvetica,sans-Serif" font-size="10.00"> &lt; stats &gt;</text>
</g>
<!-- Node5&#45;&gt;Node1 -->
<g id="edge10" class="edge"><title>Node5&#45;&gt;Node1</title>
<path fill="none" stroke="#9a32cd" stroke-dasharray="5,2" d="M185.592,-120.45C179.567,-92.4795 169.003,-43.4308 164.341,-21.7854"/>
<polygon fill="#9a32cd" stroke="#9a32cd" points="182.199,-121.323 187.727,-130.362 189.042,-119.849 182.199,-121.323"/>
<text text-anchor="middle" x="211.518" y="-103" font-family="Helvetica,sans-Serif" font-size="10.00"> io_mutex</text>
<text text-anchor="middle" x="211.518" y="-90" font-family="Helvetica,sans-Serif" font-size="10.00">read_mutex</text>
<text text-anchor="middle" x="211.518" y="-77" font-family="Helvetica,sans-Serif" font-size="10.00">wait_mutex</text>
<text text-anchor="middle" x="211.518" y="-64" font-family="Helvetica,sans-Serif" font-size="10.00">write_mutex</text>
</g>
</g>
</svg>
