<?xml version="1.0" encoding="UTF-8" standalone="no"?>
<!DOCTYPE svg PUBLIC "-//W3C//DTD SVG 1.1//EN"
 "http://www.w3.org/Graphics/SVG/1.1/DTD/svg11.dtd">
<!-- Generated by graphviz version 2.26.3 (20100126.1600)
 -->
<!-- Title: stxxl::unordered_map&lt; KeyType, MappedType, HashType, CompareType, SubBlockSize, SubBlocksPerBlock, AllocType &gt; Pages: 1 -->
<svg width="2514pt" height="594pt"
 viewBox="0.00 0.00 2514.00 594.00" xmlns="http://www.w3.org/2000/svg" xmlns:xlink="http://www.w3.org/1999/xlink">
<g id="graph1" class="graph" transform="scale(1 1) rotate(0) translate(4 590)">
<title>stxxl::unordered_map&lt; KeyType, MappedType, HashType, CompareType, SubBlockSize, SubBlocksPerBlock, AllocType &gt;</title>
<!-- Node1 -->
<g id="node1" class="node"><title>Node1</title>
<polygon fill="#bfbfbf" stroke="black" points="2326,-478.5 2326,-551.5 2506,-551.5 2506,-478.5 2326,-478.5"/>
<text text-anchor="start" x="2334" y="-538.5" font-family="Helvetica,sans-Serif" font-size="10.00">stxxl::unordered_map</text>
<text text-anchor="start" x="2334" y="-525.5" font-family="Helvetica,sans-Serif" font-size="10.00">&lt; KeyType, MappedType,</text>
<text text-anchor="start" x="2334" y="-512.5" font-family="Helvetica,sans-Serif" font-size="10.00"> HashType, CompareType,</text>
<text text-anchor="start" x="2334" y="-499.5" font-family="Helvetica,sans-Serif" font-size="10.00"> SubBlockSize, SubBlocksPerBlock,</text>
<text text-anchor="middle" x="2416" y="-486.5" font-family="Helvetica,sans-Serif" font-size="10.00"> AllocType &gt;</text>
</g>
<!-- Node2 -->
<g id="node2" class="node"><title>Node2</title>
<a xlink:href="classstxxl_1_1noncopyable.html" target="_top" xlink:title="stxxl::noncopyable">
<polygon fill="none" stroke="black" points="307,-352.5 307,-373.5 409,-373.5 409,-352.5 307,-352.5"/>
<text text-anchor="middle" x="358" y="-360.5" font-family="Helvetica,sans-Serif" font-size="10.00">stxxl::noncopyable</text>
</a>
</g>
<!-- Node2&#45;&gt;Node1 -->
<g id="edge2" class="edge"><title>Node2&#45;&gt;Node1</title>
<path fill="none" stroke="#8b1a1a" d="M363.692,-383.616C373.193,-415.067 394.791,-475.624 430,-516 471.848,-563.99 491.326,-586 555,-586 555,-586 555,-586 2178,-586 2232.11,-586 2290.37,-568.937 2335.7,-551.54"/>
<polygon fill="#8b1a1a" stroke="#8b1a1a" points="366.987,-382.411 360.833,-373.787 360.265,-384.366 366.987,-382.411"/>
</g>
<!-- Node3 -->
<g id="node4" class="node"><title>Node3</title>
<a xlink:href="classstxxl_1_1hash__map_1_1hash__map.html" target="_top" xlink:title="stxxl::hash_map::hash\l_map\&lt; KeyType, MappedType,\l HashType, CompareType,\l SubBlockSize, SubBlocksPerBlock,\l AllocType \&gt;">
<polygon fill="none" stroke="black" points="2088,-292.5 2088,-365.5 2268,-365.5 2268,-292.5 2088,-292.5"/>
<text text-anchor="start" x="2096" y="-352.5" font-family="Helvetica,sans-Serif" font-size="10.00">stxxl::hash_map::hash</text>
<text text-anchor="start" x="2096" y="-339.5" font-family="Helvetica,sans-Serif" font-size="10.00">_map&lt; KeyType, MappedType,</text>
<text text-anchor="start" x="2096" y="-326.5" font-family="Helvetica,sans-Serif" font-size="10.00"> HashType, CompareType,</text>
<text text-anchor="start" x="2096" y="-313.5" font-family="Helvetica,sans-Serif" font-size="10.00"> SubBlockSize, SubBlocksPerBlock,</text>
<text text-anchor="middle" x="2178" y="-300.5" font-family="Helvetica,sans-Serif" font-size="10.00"> AllocType &gt;</text>
</a>
</g>
<!-- Node2&#45;&gt;Node3 -->
<g id="edge6" class="edge"><title>Node2&#45;&gt;Node3</title>
<path fill="none" stroke="#8b1a1a" d="M364.62,-342.567C374.742,-314.036 396.492,-262.057 430,-229 474.576,-185.023 492.382,-164 555,-164 555,-164 555,-164 1924,-164 2017.6,-164 2103.84,-243.771 2147.7,-292.381"/>
<polygon fill="#8b1a1a" stroke="#8b1a1a" points="361.228,-341.67 361.309,-352.265 367.852,-343.931 361.228,-341.67"/>
</g>
<!-- Node4 -->
<g id="node7" class="node"><title>Node4</title>
<a xlink:href="classstxxl_1_1hash__map_1_1iterator__map.html" target="_top" xlink:title="stxxl::hash_map::iterator\l_map\&lt; self_type \&gt;">
<polygon fill="none" stroke="black" points="853,-69 853,-103 983,-103 983,-69 853,-69"/>
<text text-anchor="start" x="861" y="-90" font-family="Helvetica,sans-Serif" font-size="10.00">stxxl::hash_map::iterator</text>
<text text-anchor="middle" x="918" y="-77" font-family="Helvetica,sans-Serif" font-size="10.00">_map&lt; self_type &gt;</text>
</a>
</g>
<!-- Node2&#45;&gt;Node4 -->
<g id="edge10" class="edge"><title>Node2&#45;&gt;Node4</title>
<path fill="none" stroke="#8b1a1a" d="M359.05,-342.224C362.324,-297.571 375.704,-191.149 430,-125 449.175,-101.639 460.741,-100.569 490,-93 615.187,-60.6133 767.924,-69.0184 852.926,-77.7259"/>
<polygon fill="#8b1a1a" stroke="#8b1a1a" points="355.544,-342.212 358.404,-352.414 362.53,-342.655 355.544,-342.212"/>
</g>
<!-- Node7 -->
<g id="node14" class="node"><title>Node7</title>
<a xlink:href="classstxxl_1_1hash__map_1_1iterator__map.html" target="_top" xlink:title="stxxl::hash_map::iterator\l_map\&lt; HashMap \&gt;">
<polygon fill="none" stroke="black" points="490,-102 490,-136 620,-136 620,-102 490,-102"/>
<text text-anchor="start" x="498" y="-123" font-family="Helvetica,sans-Serif" font-size="10.00">stxxl::hash_map::iterator</text>
<text text-anchor="middle" x="555" y="-110" font-family="Helvetica,sans-Serif" font-size="10.00">_map&lt; HashMap &gt;</text>
</a>
</g>
<!-- Node2&#45;&gt;Node7 -->
<g id="edge18" class="edge"><title>Node2&#45;&gt;Node7</title>
<path fill="none" stroke="#8b1a1a" d="M362.277,-342.636C372.736,-294.706 400.889,-176.793 430,-150 446.205,-135.086 468.445,-127.059 489.677,-122.828"/>
<polygon fill="#8b1a1a" stroke="#8b1a1a" points="358.839,-341.975 360.162,-352.487 365.683,-343.444 358.839,-341.975"/>
</g>
<!-- Node8 -->
<g id="node18" class="node"><title>Node8</title>
<a xlink:href="classstxxl_1_1hash__map_1_1block__cache.html" target="_top" xlink:title="stxxl::hash_map::block\l_cache\&lt; block_type \&gt;">
<polygon fill="none" stroke="black" points="1864,-312 1864,-346 1984,-346 1984,-312 1864,-312"/>
<text text-anchor="start" x="1872" y="-333" font-family="Helvetica,sans-Serif" font-size="10.00">stxxl::hash_map::block</text>
<text text-anchor="middle" x="1924" y="-320" font-family="Helvetica,sans-Serif" font-size="10.00">_cache&lt; block_type &gt;</text>
</a>
</g>
<!-- Node2&#45;&gt;Node8 -->
<g id="edge24" class="edge"><title>Node2&#45;&gt;Node8</title>
<path fill="none" stroke="#8b1a1a" d="M369.152,-343.779C395.539,-301.067 466.301,-202 555,-202 555,-202 555,-202 1604,-202 1721.75,-202 1847.77,-277.207 1899.61,-311.872"/>
<polygon fill="#8b1a1a" stroke="#8b1a1a" points="366.099,-342.064 363.938,-352.436 372.096,-345.676 366.099,-342.064"/>
</g>
<!-- Node11 -->
<g id="node25" class="node"><title>Node11</title>
<a xlink:href="classstxxl_1_1lru__pager.html" target="_top" xlink:title="Pager with LRU replacement strategy. ">
<polygon fill="none" stroke="black" points="1182,-446.5 1182,-467.5 1328,-467.5 1328,-446.5 1182,-446.5"/>
<text text-anchor="middle" x="1255" y="-454.5" font-family="Helvetica,sans-Serif" font-size="10.00">stxxl::lru_pager&lt; npages_ &gt;</text>
</a>
</g>
<!-- Node2&#45;&gt;Node11 -->
<g id="edge32" class="edge"><title>Node2&#45;&gt;Node11</title>
<path fill="none" stroke="#8b1a1a" d="M369.138,-382.648C388.65,-414.507 432.471,-475.447 490,-491 757.581,-563.34 1096.75,-495.292 1213.4,-467.549"/>
<polygon fill="#8b1a1a" stroke="#8b1a1a" points="371.987,-380.591 363.875,-373.777 365.967,-384.163 371.987,-380.591"/>
</g>
<!-- Node12 -->
<g id="node28" class="node"><title>Node12</title>
<a xlink:href="classstxxl_1_1simple__vector.html" target="_top" xlink:title="stxxl::simple_vector\l\&lt; list_type::iterator \&gt;">
<polygon fill="none" stroke="black" points="862,-440 862,-474 974,-474 974,-440 862,-440"/>
<text text-anchor="start" x="870" y="-461" font-family="Helvetica,sans-Serif" font-size="10.00">stxxl::simple_vector</text>
<text text-anchor="middle" x="918" y="-448" font-family="Helvetica,sans-Serif" font-size="10.00">&lt; list_type::iterator &gt;</text>
</a>
</g>
<!-- Node2&#45;&gt;Node12 -->
<g id="edge36" class="edge"><title>Node2&#45;&gt;Node12</title>
<path fill="none" stroke="#8b1a1a" d="M404.536,-376.047C412.974,-378.194 421.722,-380.277 430,-382 585.038,-414.276 770.461,-439.028 861.666,-450.305"/>
<polygon fill="#8b1a1a" stroke="#8b1a1a" points="405.38,-372.65 394.821,-373.516 403.615,-379.424 405.38,-372.65"/>
</g>
<!-- Node13 -->
<g id="node31" class="node"><title>Node13</title>
<a xlink:href="classstxxl_1_1simple__vector.html" target="_top" xlink:title="Simpler non&#45;growing vector without initialization. ">
<polygon fill="none" stroke="black" points="501.5,-448 501.5,-482 608.5,-482 608.5,-448 501.5,-448"/>
<text text-anchor="start" x="509.5" y="-469" font-family="Helvetica,sans-Serif" font-size="10.00">stxxl::simple_vector</text>
<text text-anchor="middle" x="555" y="-456" font-family="Helvetica,sans-Serif" font-size="10.00">&lt; ValueType &gt;</text>
</a>
</g>
<!-- Node2&#45;&gt;Node13 -->
<g id="edge40" class="edge"><title>Node2&#45;&gt;Node13</title>
<path fill="none" stroke="#8b1a1a" d="M372.281,-381.945C385.505,-398.158 406.611,-420.894 430,-434 451.748,-446.187 478.265,-453.638 501.27,-458.168"/>
<polygon fill="#8b1a1a" stroke="#8b1a1a" points="374.724,-379.392 365.781,-373.712 369.23,-383.729 374.724,-379.392"/>
</g>
<!-- Node14 -->
<g id="node34" class="node"><title>Node14</title>
<a xlink:href="classstxxl_1_1hash__map_1_1block__cache__write__buffer.html" target="_top" xlink:title="stxxl::hash_map::block\l_cache_write_buffer\&lt; block\l_type \&gt;">
<polygon fill="none" stroke="black" points="1018.5,-347.5 1018.5,-394.5 1163.5,-394.5 1163.5,-347.5 1018.5,-347.5"/>
<text text-anchor="start" x="1026.5" y="-381.5" font-family="Helvetica,sans-Serif" font-size="10.00">stxxl::hash_map::block</text>
<text text-anchor="start" x="1026.5" y="-368.5" font-family="Helvetica,sans-Serif" font-size="10.00">_cache_write_buffer&lt; block</text>
<text text-anchor="middle" x="1091" y="-355.5" font-family="Helvetica,sans-Serif" font-size="10.00">_type &gt;</text>
</a>
</g>
<!-- Node2&#45;&gt;Node14 -->
<g id="edge44" class="edge"><title>Node2&#45;&gt;Node14</title>
<path fill="none" stroke="#8b1a1a" d="M419.147,-361.277C507.284,-359.064 675.145,-355.862 818,-359 885.944,-360.493 963.33,-364.072 1018.32,-366.936"/>
<polygon fill="#8b1a1a" stroke="#8b1a1a" points="418.967,-357.78 409.059,-361.535 419.146,-364.778 418.967,-357.78"/>
</g>
<!-- Node15 -->
<g id="node37" class="node"><title>Node15</title>
<a xlink:href="classstxxl_1_1hash__map_1_1block__cache__write__buffer.html" target="_top" xlink:title="Used inside block_cache for buffering write requests of cached blocks. ">
<polygon fill="none" stroke="black" points="638.5,-368 638.5,-402 817.5,-402 817.5,-368 638.5,-368"/>
<text text-anchor="start" x="646.5" y="-389" font-family="Helvetica,sans-Serif" font-size="10.00">stxxl::hash_map::block</text>
<text text-anchor="middle" x="728" y="-376" font-family="Helvetica,sans-Serif" font-size="10.00">_cache_write_buffer&lt; BlockType &gt;</text>
</a>
</g>
<!-- Node2&#45;&gt;Node15 -->
<g id="edge48" class="edge"><title>Node2&#45;&gt;Node15</title>
<path fill="none" stroke="#8b1a1a" d="M419.092,-366.633C478.813,-370.183 570.419,-375.63 638.384,-379.671"/>
<polygon fill="#8b1a1a" stroke="#8b1a1a" points="419.249,-363.136 409.058,-366.036 418.833,-370.123 419.249,-363.136"/>
</g>
<!-- Node16 -->
<g id="node40" class="node"><title>Node16</title>
<a xlink:href="classstxxl_1_1hash__map_1_1block__cache.html" target="_top" xlink:title="Cache of blocks contained in an external memory hash map. Uses the stxxl::lru_pager as eviction algor...">
<polygon fill="none" stroke="black" points="1544,-312 1544,-346 1664,-346 1664,-312 1544,-312"/>
<text text-anchor="start" x="1552" y="-333" font-family="Helvetica,sans-Serif" font-size="10.00">stxxl::hash_map::block</text>
<text text-anchor="middle" x="1604" y="-320" font-family="Helvetica,sans-Serif" font-size="10.00">_cache&lt; BlockType &gt;</text>
</a>
</g>
<!-- Node2&#45;&gt;Node16 -->
<g id="edge52" class="edge"><title>Node2&#45;&gt;Node16</title>
<path fill="none" stroke="#8b1a1a" d="M389.077,-348.108C427.237,-331.22 494.372,-306 555,-306 555,-306 555,-306 1091,-306 1254.82,-306 1447.76,-317.85 1543.63,-324.538"/>
<polygon fill="#8b1a1a" stroke="#8b1a1a" points="387.233,-345.101 379.566,-352.412 390.119,-351.478 387.233,-345.101"/>
</g>
<!-- Node17 -->
<g id="node46" class="node"><title>Node17</title>
<a xlink:href="classstxxl_1_1hash__map_1_1hash__map.html" target="_top" xlink:title="Main implementation of external memory hash map. ">
<polygon fill="none" stroke="black" points="1346,-484.5 1346,-557.5 1526,-557.5 1526,-484.5 1346,-484.5"/>
<text text-anchor="start" x="1354" y="-544.5" font-family="Helvetica,sans-Serif" font-size="10.00">stxxl::hash_map::hash</text>
<text text-anchor="start" x="1354" y="-531.5" font-family="Helvetica,sans-Serif" font-size="10.00">_map&lt; KeyType, MappedType,</text>
<text text-anchor="start" x="1354" y="-518.5" font-family="Helvetica,sans-Serif" font-size="10.00"> HashType, KeyCompareType,</text>
<text text-anchor="start" x="1354" y="-505.5" font-family="Helvetica,sans-Serif" font-size="10.00"> SubBlockSize, SubBlocksPerBlock,</text>
<text text-anchor="middle" x="1436" y="-492.5" font-family="Helvetica,sans-Serif" font-size="10.00"> AllocatorType &gt;</text>
</a>
</g>
<!-- Node2&#45;&gt;Node17 -->
<g id="edge62" class="edge"><title>Node2&#45;&gt;Node17</title>
<path fill="none" stroke="#8b1a1a" d="M365.953,-383.242C377.019,-409.278 399.224,-454.632 430,-484 475.154,-527.088 492.586,-548 555,-548 555,-548 555,-548 1091,-548 1177.66,-548 1276.2,-539.427 1345.71,-531.943"/>
<polygon fill="#8b1a1a" stroke="#8b1a1a" points="369.059,-381.592 362.021,-373.673 362.585,-384.253 369.059,-381.592"/>
</g>
<!-- Node3&#45;&gt;Node1 -->
<g id="edge4" class="edge"><title>Node3&#45;&gt;Node1</title>
<path fill="none" stroke="#9a32cd" stroke-dasharray="5,2" d="M2232.77,-371.803C2273.95,-403.987 2329.79,-447.625 2368.96,-478.24"/>
<polygon fill="#9a32cd" stroke="#9a32cd" points="2234.77,-368.926 2224.74,-365.526 2230.46,-374.441 2234.77,-368.926"/>
<text text-anchor="middle" x="2297" y="-431" font-family="Helvetica,sans-Serif" font-size="10.00"> impl</text>
</g>
<!-- Node4&#45;&gt;Node3 -->
<g id="edge8" class="edge"><title>Node4&#45;&gt;Node3</title>
<path fill="none" stroke="#9a32cd" stroke-dasharray="5,2" d="M993.437,-90.575C1061.71,-94.3191 1165.06,-99 1255,-99 1255,-99 1255,-99 1924,-99 1992.73,-99 2016.64,-106.674 2070,-150 2116.77,-187.977 2148.3,-251.967 2164.68,-292.266"/>
<polygon fill="#9a32cd" stroke="#9a32cd" points="993.385,-87.0667 983.206,-90.0065 992.996,-94.056 993.385,-87.0667"/>
<text text-anchor="middle" x="1604" y="-103" font-family="Helvetica,sans-Serif" font-size="10.00"> iterator_map_</text>
</g>
<!-- Node5 -->
<g id="node10" class="node"><title>Node5</title>
<a xlink:href="structstxxl_1_1compat__hash__multimap.html" target="_top" xlink:title="stxxl::compat_hash\l_multimap\&lt; internal\l_size_type, iterator\l_base *, hasher \&gt;">
<polygon fill="none" stroke="black" points="304,-0 304,-60 412,-60 412,-0 304,-0"/>
<text text-anchor="start" x="312" y="-47" font-family="Helvetica,sans-Serif" font-size="10.00">stxxl::compat_hash</text>
<text text-anchor="start" x="312" y="-34" font-family="Helvetica,sans-Serif" font-size="10.00">_multimap&lt; internal</text>
<text text-anchor="start" x="312" y="-21" font-family="Helvetica,sans-Serif" font-size="10.00">_size_type, iterator</text>
<text text-anchor="middle" x="358" y="-8" font-family="Helvetica,sans-Serif" font-size="10.00">_base *, hasher &gt;</text>
</a>
</g>
<!-- Node5&#45;&gt;Node4 -->
<g id="edge12" class="edge"><title>Node5&#45;&gt;Node4</title>
<path fill="none" stroke="#9a32cd" stroke-dasharray="5,2" d="M422.44,-30.3615C511.804,-31.7335 678.16,-37.4377 818,-60 831.725,-62.2144 846.304,-65.4709 859.963,-68.9356"/>
<polygon fill="#9a32cd" stroke="#9a32cd" points="422.242,-26.8585 412.194,-30.2182 422.144,-33.8578 422.242,-26.8585"/>
<text text-anchor="middle" x="555" y="-43" font-family="Helvetica,sans-Serif" font-size="10.00"> it_map_</text>
</g>
<!-- Node5&#45;&gt;Node7 -->
<g id="edge20" class="edge"><title>Node5&#45;&gt;Node7</title>
<path fill="none" stroke="#9a32cd" stroke-dasharray="5,2" d="M421.28,-58.5886C452.911,-72.8784 490.121,-89.6891 517.247,-101.944"/>
<polygon fill="#9a32cd" stroke="#9a32cd" points="422.646,-55.3649 412.092,-54.4374 419.764,-61.7441 422.646,-55.3649"/>
<text text-anchor="middle" x="451" y="-84" font-family="Helvetica,sans-Serif" font-size="10.00"> it_map_</text>
</g>
<!-- Node6 -->
<g id="node12" class="node"><title>Node6</title>
<a xlink:href="structstxxl_1_1compat__hash__multimap.html" target="_top" xlink:title="stxxl::compat_hash\l_multimap\&lt; KeyType,\l MappedType, HashType \&gt;">
<polygon fill="none" stroke="black" points="0,-6.5 0,-53.5 146,-53.5 146,-6.5 0,-6.5"/>
<text text-anchor="start" x="8" y="-40.5" font-family="Helvetica,sans-Serif" font-size="10.00">stxxl::compat_hash</text>
<text text-anchor="start" x="8" y="-27.5" font-family="Helvetica,sans-Serif" font-size="10.00">_multimap&lt; KeyType,</text>
<text text-anchor="middle" x="73" y="-14.5" font-family="Helvetica,sans-Serif" font-size="10.00"> MappedType, HashType &gt;</text>
</a>
</g>
<!-- Node6&#45;&gt;Node5 -->
<g id="edge14" class="edge"><title>Node6&#45;&gt;Node5</title>
<path fill="none" stroke="orange" stroke-dasharray="5,2" d="M156.297,-30C203.798,-30 261.973,-30 303.619,-30"/>
<polygon fill="orange" stroke="orange" points="156.025,-26.5001 146.024,-30 156.024,-33.5001 156.025,-26.5001"/>
<text text-anchor="start" x="164.5" y="-47" font-family="Helvetica,sans-Serif" font-size="10.00"> &lt; internal_size_type,</text>
<text text-anchor="middle" x="225" y="-34" font-family="Helvetica,sans-Serif" font-size="10.00"> iterator_base *, hasher &gt;</text>
</g>
<!-- Node7&#45;&gt;Node4 -->
<g id="edge16" class="edge"><title>Node7&#45;&gt;Node4</title>
<path fill="none" stroke="orange" stroke-dasharray="5,2" d="M630.608,-112.127C696.313,-106.153 790.491,-97.5917 852.903,-91.9179"/>
<polygon fill="orange" stroke="orange" points="629.958,-108.671 620.316,-113.062 630.592,-115.642 629.958,-108.671"/>
<text text-anchor="middle" x="728" y="-116" font-family="Helvetica,sans-Serif" font-size="10.00"> &lt; self_type &gt;</text>
</g>
<!-- Node8&#45;&gt;Node3 -->
<g id="edge22" class="edge"><title>Node8&#45;&gt;Node3</title>
<path fill="none" stroke="#9a32cd" stroke-dasharray="5,2" d="M1994.22,-329C2023.2,-329 2057.13,-329 2087.9,-329"/>
<polygon fill="#9a32cd" stroke="#9a32cd" points="1994.19,-325.5 1984.19,-329 1994.19,-332.5 1994.19,-325.5"/>
<text text-anchor="middle" x="2036" y="-333" font-family="Helvetica,sans-Serif" font-size="10.00"> block_cache_</text>
</g>
<!-- Node9 -->
<g id="node21" class="node"><title>Node9</title>
<a xlink:href="structstxxl_1_1compat__hash__map.html" target="_top" xlink:title="stxxl::compat_hash\l_map\&lt; bid_type, unsigned\l_type, bid_hash \&gt;">
<polygon fill="none" stroke="black" points="1185,-230.5 1185,-277.5 1325,-277.5 1325,-230.5 1185,-230.5"/>
<text text-anchor="start" x="1193" y="-264.5" font-family="Helvetica,sans-Serif" font-size="10.00">stxxl::compat_hash</text>
<text text-anchor="start" x="1193" y="-251.5" font-family="Helvetica,sans-Serif" font-size="10.00">_map&lt; bid_type, unsigned</text>
<text text-anchor="middle" x="1255" y="-238.5" font-family="Helvetica,sans-Serif" font-size="10.00">_type, bid_hash &gt;</text>
</a>
</g>
<!-- Node9&#45;&gt;Node8 -->
<g id="edge26" class="edge"><title>Node9&#45;&gt;Node8</title>
<path fill="none" stroke="#9a32cd" stroke-dasharray="5,2" d="M1335.28,-253.487C1389.31,-253.849 1462.08,-255.706 1526,-262 1646.81,-273.895 1786.39,-300.376 1864,-316.253"/>
<polygon fill="#9a32cd" stroke="#9a32cd" points="1335.09,-249.986 1325.07,-253.435 1335.05,-256.986 1335.09,-249.986"/>
<text text-anchor="middle" x="1604" y="-283" font-family="Helvetica,sans-Serif" font-size="10.00"> bid_map_</text>
</g>
<!-- Node9&#45;&gt;Node16 -->
<g id="edge54" class="edge"><title>Node9&#45;&gt;Node16</title>
<path fill="none" stroke="#9a32cd" stroke-dasharray="5,2" d="M1335.4,-258.429C1402.26,-262.825 1491.81,-270.571 1526,-282 1546.24,-288.767 1566.83,-301.467 1581.76,-311.961"/>
<polygon fill="#9a32cd" stroke="#9a32cd" points="1335.49,-254.928 1325.29,-257.778 1335.04,-261.913 1335.49,-254.928"/>
<text text-anchor="middle" x="1436" y="-286" font-family="Helvetica,sans-Serif" font-size="10.00"> bid_map_</text>
</g>
<!-- Node10 -->
<g id="node23" class="node"><title>Node10</title>
<a xlink:href="structstxxl_1_1compat__hash__map.html" target="_top" xlink:title="stxxl::compat_hash\l_map\&lt; KeyType, MappedType,\l HashType \&gt;">
<polygon fill="none" stroke="black" points="836,-230.5 836,-277.5 1000,-277.5 1000,-230.5 836,-230.5"/>
<text text-anchor="start" x="844" y="-264.5" font-family="Helvetica,sans-Serif" font-size="10.00">stxxl::compat_hash</text>
<text text-anchor="start" x="844" y="-251.5" font-family="Helvetica,sans-Serif" font-size="10.00">_map&lt; KeyType, MappedType,</text>
<text text-anchor="middle" x="918" y="-238.5" font-family="Helvetica,sans-Serif" font-size="10.00"> HashType &gt;</text>
</a>
</g>
<!-- Node10&#45;&gt;Node9 -->
<g id="edge28" class="edge"><title>Node10&#45;&gt;Node9</title>
<path fill="none" stroke="orange" stroke-dasharray="5,2" d="M1010.13,-254C1065.26,-254 1134.22,-254 1184.9,-254"/>
<polygon fill="orange" stroke="orange" points="1010.01,-250.5 1000.01,-254 1010.01,-257.5 1010.01,-250.5"/>
<text text-anchor="start" x="1041" y="-271" font-family="Helvetica,sans-Serif" font-size="10.00"> &lt; bid_type, unsigned</text>
<text text-anchor="middle" x="1091" y="-258" font-family="Helvetica,sans-Serif" font-size="10.00">_type, bid_hash &gt;</text>
</g>
<!-- Node11&#45;&gt;Node8 -->
<g id="edge30" class="edge"><title>Node11&#45;&gt;Node8</title>
<path fill="none" stroke="#9a32cd" stroke-dasharray="5,2" d="M1338.56,-457.184C1479.73,-456.304 1758.6,-449.081 1846,-407 1874.64,-393.209 1898.94,-364.507 1912.48,-346.03"/>
<polygon fill="#9a32cd" stroke="#9a32cd" points="1338.21,-453.686 1328.23,-457.239 1338.25,-460.686 1338.21,-453.686"/>
<text text-anchor="middle" x="1604" y="-455" font-family="Helvetica,sans-Serif" font-size="10.00"> pager_</text>
</g>
<!-- Node11&#45;&gt;Node16 -->
<g id="edge56" class="edge"><title>Node11&#45;&gt;Node16</title>
<path fill="none" stroke="#9a32cd" stroke-dasharray="5,2" d="M1295.7,-443.397C1311.29,-438.591 1329.33,-433.513 1346,-430 1424.92,-413.364 1453.6,-442.533 1526,-407 1554.37,-393.078 1578.57,-364.7 1592.19,-346.283"/>
<polygon fill="#9a32cd" stroke="#9a32cd" points="1294.34,-440.157 1285.85,-446.497 1296.44,-446.834 1294.34,-440.157"/>
<text text-anchor="middle" x="1436" y="-434" font-family="Helvetica,sans-Serif" font-size="10.00"> pager_</text>
</g>
<!-- Node12&#45;&gt;Node11 -->
<g id="edge34" class="edge"><title>Node12&#45;&gt;Node11</title>
<path fill="none" stroke="#9a32cd" stroke-dasharray="5,2" d="M984.341,-457C1041.19,-457 1122.97,-457 1181.73,-457"/>
<polygon fill="#9a32cd" stroke="#9a32cd" points="984.027,-453.5 974.027,-457 984.027,-460.5 984.027,-453.5"/>
<text text-anchor="middle" x="1091" y="-461" font-family="Helvetica,sans-Serif" font-size="10.00"> history_entry</text>
</g>
<!-- Node13&#45;&gt;Node12 -->
<g id="edge38" class="edge"><title>Node13&#45;&gt;Node12</title>
<path fill="none" stroke="orange" stroke-dasharray="5,2" d="M618.836,-463.593C687.655,-462.076 796.141,-459.686 861.829,-458.238"/>
<polygon fill="orange" stroke="orange" points="618.482,-460.1 608.562,-463.82 618.637,-467.098 618.482,-460.1"/>
<text text-anchor="middle" x="728" y="-467" font-family="Helvetica,sans-Serif" font-size="10.00"> &lt; list_type::iterator &gt;</text>
</g>
<!-- Node14&#45;&gt;Node8 -->
<g id="edge42" class="edge"><title>Node14&#45;&gt;Node8</title>
<path fill="none" stroke="#9a32cd" stroke-dasharray="5,2" d="M1174.2,-378.612C1176.83,-378.757 1179.44,-378.887 1182,-379 1246.83,-381.844 1263.14,-381.064 1328,-379 1558.57,-371.663 1617.54,-377.987 1846,-346 1851.76,-345.193 1857.74,-344.193 1863.69,-343.085"/>
<polygon fill="#9a32cd" stroke="#9a32cd" points="1174.17,-375.103 1163.98,-377.982 1173.74,-382.09 1174.17,-375.103"/>
<text text-anchor="middle" x="1436" y="-382" font-family="Helvetica,sans-Serif" font-size="10.00"> write_buffer_</text>
</g>
<!-- Node14&#45;&gt;Node16 -->
<g id="edge58" class="edge"><title>Node14&#45;&gt;Node16</title>
<path fill="none" stroke="#9a32cd" stroke-dasharray="5,2" d="M1173.78,-364.223C1277.26,-355.75 1451.92,-341.451 1543.63,-333.943"/>
<polygon fill="#9a32cd" stroke="#9a32cd" points="1173.36,-360.745 1163.68,-365.049 1173.94,-367.722 1173.36,-360.745"/>
<text text-anchor="middle" x="1255" y="-367" font-family="Helvetica,sans-Serif" font-size="10.00"> write_buffer_</text>
</g>
<!-- Node15&#45;&gt;Node14 -->
<g id="edge46" class="edge"><title>Node15&#45;&gt;Node14</title>
<path fill="none" stroke="orange" stroke-dasharray="5,2" d="M828.04,-381.142C888.363,-378.815 963.832,-375.905 1018.43,-373.799"/>
<polygon fill="orange" stroke="orange" points="827.588,-377.656 817.73,-381.539 827.858,-384.651 827.588,-377.656"/>
<text text-anchor="middle" x="918" y="-384" font-family="Helvetica,sans-Serif" font-size="10.00"> &lt; block_type &gt;</text>
</g>
<!-- Node16&#45;&gt;Node8 -->
<g id="edge50" class="edge"><title>Node16&#45;&gt;Node8</title>
<path fill="none" stroke="orange" stroke-dasharray="5,2" d="M1674.51,-329C1731.22,-329 1810.04,-329 1863.81,-329"/>
<polygon fill="orange" stroke="orange" points="1674.19,-325.5 1664.19,-329 1674.19,-332.5 1674.19,-325.5"/>
<text text-anchor="middle" x="1764" y="-333" font-family="Helvetica,sans-Serif" font-size="10.00"> &lt; block_type &gt;</text>
</g>
<!-- Node17&#45;&gt;Node3 -->
<g id="edge60" class="edge"><title>Node17&#45;&gt;Node3</title>
<path fill="none" stroke="orange" stroke-dasharray="5,2" d="M1536.27,-504.101C1619.75,-489.222 1741.42,-465.65 1846,-438 1928.99,-416.058 2021.67,-385.071 2087.97,-361.741"/>
<polygon fill="orange" stroke="orange" points="1535.51,-500.68 1526.28,-505.873 1536.74,-507.572 1535.51,-500.68"/>
<text text-anchor="start" x="1682" y="-518" font-family="Helvetica,sans-Serif" font-size="10.00"> &lt; KeyType, MappedType,</text>
<text text-anchor="start" x="1682" y="-505" font-family="Helvetica,sans-Serif" font-size="10.00"> HashType, CompareType,</text>
<text text-anchor="start" x="1682" y="-492" font-family="Helvetica,sans-Serif" font-size="10.00"> SubBlockSize, SubBlocksPerBlock,</text>
<text text-anchor="middle" x="1764" y="-479" font-family="Helvetica,sans-Serif" font-size="10.00"> AllocType &gt;</text>
</g>
</g>
</svg>
