<?xml version="1.0" encoding="UTF-8" standalone="no"?>
<!DOCTYPE svg PUBLIC "-//W3C//DTD SVG 1.1//EN"
 "http://www.w3.org/Graphics/SVG/1.1/DTD/svg11.dtd">
<!-- Generated by graphviz version 2.26.3 (20100126.1600)
 -->
<!-- Title: stxxl::stream::make_tuple&lt; Input1, Input2, Stopper, Stopper, Stopper, Stopper &gt; Pages: 1 -->
<svg width="228pt" height="292pt"
 viewBox="0.00 0.00 228.00 292.00" xmlns="http://www.w3.org/2000/svg" xmlns:xlink="http://www.w3.org/1999/xlink">
<g id="graph1" class="graph" transform="scale(1 1) rotate(0) translate(4 288)">
<title>stxxl::stream::make_tuple&lt; Input1, Input2, Stopper, Stopper, Stopper, Stopper &gt;</title>
<!-- Node1 -->
<g id="node1" class="node"><title>Node1</title>
<polygon fill="#bfbfbf" stroke="black" points="9.5,-1 9.5,-61 154.5,-61 154.5,-1 9.5,-1"/>
<text text-anchor="start" x="17.5" y="-48" font-family="Helvetica,sans-Serif" font-size="10.00">stxxl::stream::make</text>
<text text-anchor="start" x="17.5" y="-35" font-family="Helvetica,sans-Serif" font-size="10.00">_tuple&lt; Input1, Input2,</text>
<text text-anchor="start" x="17.5" y="-22" font-family="Helvetica,sans-Serif" font-size="10.00"> Stopper, Stopper, Stopper,</text>
<text text-anchor="middle" x="82" y="-9" font-family="Helvetica,sans-Serif" font-size="10.00"> Stopper &gt;</text>
</g>
<!-- Node2 -->
<g id="node2" class="node"><title>Node2</title>
<a xlink:href="structstxxl_1_1tuple.html" target="_top" xlink:title="stxxl::tuple\&lt; typename\l Input1::value_type, typename\l Input2::value_type \&gt;">
<polygon fill="none" stroke="black" points="4,-112.5 4,-159.5 160,-159.5 160,-112.5 4,-112.5"/>
<text text-anchor="start" x="12" y="-146.5" font-family="Helvetica,sans-Serif" font-size="10.00">stxxl::tuple&lt; typename</text>
<text text-anchor="start" x="12" y="-133.5" font-family="Helvetica,sans-Serif" font-size="10.00"> Input1::value_type, typename</text>
<text text-anchor="middle" x="82" y="-120.5" font-family="Helvetica,sans-Serif" font-size="10.00"> Input2::value_type &gt;</text>
</a>
</g>
<!-- Node2&#45;&gt;Node1 -->
<g id="edge2" class="edge"><title>Node2&#45;&gt;Node1</title>
<path fill="none" stroke="#9a32cd" stroke-dasharray="5,2" d="M82,-102.326C82,-89.135 82,-74.1168 82,-61.2746"/>
<polygon fill="#9a32cd" stroke="#9a32cd" points="78.5001,-102.436 82,-112.436 85.5001,-102.436 78.5001,-102.436"/>
<text text-anchor="middle" x="100.5" y="-84.5" font-family="Helvetica,sans-Serif" font-size="10.00"> current</text>
</g>
<!-- Node3 -->
<g id="node4" class="node"><title>Node3</title>
<a xlink:href="structstxxl_1_1Plug.html" target="_top" xlink:title="stxxl::Plug">
<polygon fill="none" stroke="black" points="0,-255.5 0,-276.5 62,-276.5 62,-255.5 0,-255.5"/>
<text text-anchor="middle" x="31" y="-263.5" font-family="Helvetica,sans-Serif" font-size="10.00">stxxl::Plug</text>
</a>
</g>
<!-- Node3&#45;&gt;Node2 -->
<g id="edge4" class="edge"><title>Node3&#45;&gt;Node2</title>
<path fill="none" stroke="#9a32cd" stroke-dasharray="5,2" d="M38.918,-245.817C48.054,-222.529 63.0572,-184.286 72.7296,-159.63"/>
<polygon fill="#9a32cd" stroke="#9a32cd" points="35.5675,-244.774 35.1735,-255.362 42.0839,-247.331 35.5675,-244.774"/>
<text text-anchor="middle" x="80" y="-221" font-family="Helvetica,sans-Serif" font-size="10.00"> third</text>
<text text-anchor="middle" x="80" y="-208" font-family="Helvetica,sans-Serif" font-size="10.00">fifth</text>
<text text-anchor="middle" x="80" y="-195" font-family="Helvetica,sans-Serif" font-size="10.00">fourth</text>
<text text-anchor="middle" x="80" y="-182" font-family="Helvetica,sans-Serif" font-size="10.00">sixth</text>
</g>
<!-- Node4 -->
<g id="node6" class="node"><title>Node4</title>
<a xlink:href="structstxxl_1_1tuple.html" target="_top" xlink:title="k&#45;Tuple data type ">
<polygon fill="none" stroke="black" points="79.5,-249 79.5,-283 186.5,-283 186.5,-249 79.5,-249"/>
<text text-anchor="start" x="87.5" y="-270" font-family="Helvetica,sans-Serif" font-size="10.00">stxxl::tuple&lt; T1, T2,</text>
<text text-anchor="middle" x="133" y="-257" font-family="Helvetica,sans-Serif" font-size="10.00"> T3, T4, T5, T6 &gt;</text>
</a>
</g>
<!-- Node4&#45;&gt;Node2 -->
<g id="edge6" class="edge"><title>Node4&#45;&gt;Node2</title>
<path fill="none" stroke="orange" stroke-dasharray="5,2" d="M122.554,-239.374C113.342,-215.89 100.045,-181.998 91.22,-159.502"/>
<polygon fill="orange" stroke="orange" points="119.317,-240.706 126.228,-248.737 125.834,-238.149 119.317,-240.706"/>
<text text-anchor="start" x="117" y="-214.5" font-family="Helvetica,sans-Serif" font-size="10.00"> &lt; typename Input1::</text>
<text text-anchor="start" x="117" y="-201.5" font-family="Helvetica,sans-Serif" font-size="10.00">value_type, typename</text>
<text text-anchor="middle" x="168.5" y="-188.5" font-family="Helvetica,sans-Serif" font-size="10.00"> Input2::value_type &gt;</text>
</g>
</g>
</svg>
