<?xml version="1.0" encoding="UTF-8" standalone="no"?>
<!DOCTYPE svg PUBLIC "-//W3C//DTD SVG 1.1//EN"
 "http://www.w3.org/Graphics/SVG/1.1/DTD/svg11.dtd">
<!-- Generated by graphviz version 2.26.3 (20100126.1600)
 -->
<!-- Title: stxxl::stream::basic_runs_merger&lt; RunsType, CompareType, AllocStr &gt; Pages: 1 -->
<svg width="1002pt" height="226pt"
 viewBox="0.00 0.00 1002.00 226.00" xmlns="http://www.w3.org/2000/svg" xmlns:xlink="http://www.w3.org/1999/xlink">
<g id="graph1" class="graph" transform="scale(1 1) rotate(0) translate(4 222)">
<title>stxxl::stream::basic_runs_merger&lt; RunsType, CompareType, AllocStr &gt;</title>
<!-- Node1 -->
<g id="node1" class="node"><title>Node1</title>
<polygon fill="#bfbfbf" stroke="black" points="140,-92.5 140,-139.5 282,-139.5 282,-92.5 140,-92.5"/>
<text text-anchor="start" x="148" y="-126.5" font-family="Helvetica,sans-Serif" font-size="10.00">stxxl::stream::basic</text>
<text text-anchor="start" x="148" y="-113.5" font-family="Helvetica,sans-Serif" font-size="10.00">_runs_merger&lt; RunsType,</text>
<text text-anchor="middle" x="211" y="-100.5" font-family="Helvetica,sans-Serif" font-size="10.00"> CompareType, AllocStr &gt;</text>
</g>
<!-- Node3 -->
<g id="node5" class="node"><title>Node3</title>
<a xlink:href="classstxxl_1_1stream_1_1runs__merger.html" target="_top" xlink:title="Merges sorted runs. ">
<polygon fill="none" stroke="black" points="474,-92.5 474,-139.5 636,-139.5 636,-92.5 474,-92.5"/>
<text text-anchor="start" x="482" y="-126.5" font-family="Helvetica,sans-Serif" font-size="10.00">stxxl::stream::runs</text>
<text text-anchor="start" x="482" y="-113.5" font-family="Helvetica,sans-Serif" font-size="10.00">_merger&lt; RunsType, Compare</text>
<text text-anchor="middle" x="555" y="-100.5" font-family="Helvetica,sans-Serif" font-size="10.00">Type, AllocStr &gt;</text>
</a>
</g>
<!-- Node1&#45;&gt;Node3 -->
<g id="edge4" class="edge"><title>Node1&#45;&gt;Node3</title>
<path fill="none" stroke="midnightblue" d="M292.301,-116C347.098,-116 419.1,-116 473.863,-116"/>
<polygon fill="midnightblue" stroke="midnightblue" points="292.277,-112.5 282.277,-116 292.277,-119.5 292.277,-112.5"/>
</g>
<!-- Node6 -->
<g id="node11" class="node"><title>Node6</title>
<a xlink:href="classstxxl_1_1stream_1_1basic__runs__merger.html" target="_top" xlink:title="stxxl::stream::basic\l_runs_merger\&lt; sorted\l_runs_type, CompareType,\l AllocStr \&gt;">
<polygon fill="none" stroke="black" points="483,-158 483,-218 627,-218 627,-158 483,-158"/>
<text text-anchor="start" x="491" y="-205" font-family="Helvetica,sans-Serif" font-size="10.00">stxxl::stream::basic</text>
<text text-anchor="start" x="491" y="-192" font-family="Helvetica,sans-Serif" font-size="10.00">_runs_merger&lt; sorted</text>
<text text-anchor="start" x="491" y="-179" font-family="Helvetica,sans-Serif" font-size="10.00">_runs_type, CompareType,</text>
<text text-anchor="middle" x="555" y="-166" font-family="Helvetica,sans-Serif" font-size="10.00"> AllocStr &gt;</text>
</a>
</g>
<!-- Node1&#45;&gt;Node6 -->
<g id="edge10" class="edge"><title>Node1&#45;&gt;Node6</title>
<path fill="none" stroke="orange" stroke-dasharray="5,2" d="M292.124,-132.979C350.021,-145.097 427.191,-161.249 482.927,-172.915"/>
<polygon fill="orange" stroke="orange" points="292.782,-129.541 282.277,-130.918 291.348,-136.393 292.782,-129.541"/>
<text text-anchor="start" x="317.5" y="-183" font-family="Helvetica,sans-Serif" font-size="10.00"> &lt; sorted_runs_type,</text>
<text text-anchor="middle" x="378" y="-170" font-family="Helvetica,sans-Serif" font-size="10.00"> CompareType, AllocStr &gt;</text>
</g>
<!-- Node7 -->
<g id="node14" class="node"><title>Node7</title>
<a xlink:href="classstxxl_1_1stream_1_1basic__runs__merger.html" target="_top" xlink:title="stxxl::stream::basic\l_runs_merger\&lt; typename\l runs_creator_type::sorted\l_runs_type, cmp_type, alloc\l_strategy_type \&gt;">
<polygon fill="none" stroke="black" points="481.5,-0.5 481.5,-73.5 628.5,-73.5 628.5,-0.5 481.5,-0.5"/>
<text text-anchor="start" x="489.5" y="-60.5" font-family="Helvetica,sans-Serif" font-size="10.00">stxxl::stream::basic</text>
<text text-anchor="start" x="489.5" y="-47.5" font-family="Helvetica,sans-Serif" font-size="10.00">_runs_merger&lt; typename</text>
<text text-anchor="start" x="489.5" y="-34.5" font-family="Helvetica,sans-Serif" font-size="10.00"> runs_creator_type::sorted</text>
<text text-anchor="start" x="489.5" y="-21.5" font-family="Helvetica,sans-Serif" font-size="10.00">_runs_type, cmp_type, alloc</text>
<text text-anchor="middle" x="555" y="-8.5" font-family="Helvetica,sans-Serif" font-size="10.00">_strategy_type &gt;</text>
</a>
</g>
<!-- Node1&#45;&gt;Node7 -->
<g id="edge14" class="edge"><title>Node1&#45;&gt;Node7</title>
<path fill="none" stroke="orange" stroke-dasharray="5,2" d="M262.006,-88.034C274.168,-82.3072 287.309,-76.8585 300,-73 359.566,-54.8894 429.779,-45.8296 481.433,-41.3328"/>
<polygon fill="orange" stroke="orange" points="260.387,-84.9294 252.92,-92.4458 263.444,-91.2264 260.387,-84.9294"/>
<text text-anchor="start" x="300" y="-103" font-family="Helvetica,sans-Serif" font-size="10.00"> &lt; typename runs_creator</text>
<text text-anchor="start" x="300" y="-90" font-family="Helvetica,sans-Serif" font-size="10.00">_type::sorted_runs_type,</text>
<text text-anchor="middle" x="378" y="-77" font-family="Helvetica,sans-Serif" font-size="10.00"> cmp_type, alloc_strategy_type &gt;</text>
</g>
<!-- Node2 -->
<g id="node2" class="node"><title>Node2</title>
<a xlink:href="classstxxl_1_1noncopyable.html" target="_top" xlink:title="stxxl::noncopyable">
<polygon fill="none" stroke="black" points="0,-105.5 0,-126.5 102,-126.5 102,-105.5 0,-105.5"/>
<text text-anchor="middle" x="51" y="-113.5" font-family="Helvetica,sans-Serif" font-size="10.00">stxxl::noncopyable</text>
</a>
</g>
<!-- Node2&#45;&gt;Node1 -->
<g id="edge2" class="edge"><title>Node2&#45;&gt;Node1</title>
<path fill="none" stroke="#8b1a1a" d="M112.091,-116C121.123,-116 130.496,-116 139.712,-116"/>
<polygon fill="#8b1a1a" stroke="#8b1a1a" points="112.065,-112.5 102.065,-116 112.065,-119.5 112.065,-112.5"/>
</g>
<!-- Node4 -->
<g id="node7" class="node"><title>Node4</title>
<a xlink:href="classstxxl_1_1stream_1_1runs__merger.html" target="_top" xlink:title="stxxl::stream::runs\l_merger\&lt; sorted_runs\l_type, CompareType, AllocStr \&gt;">
<polygon fill="none" stroke="black" points="828,-134.5 828,-181.5 994,-181.5 994,-134.5 828,-134.5"/>
<text text-anchor="start" x="836" y="-168.5" font-family="Helvetica,sans-Serif" font-size="10.00">stxxl::stream::runs</text>
<text text-anchor="start" x="836" y="-155.5" font-family="Helvetica,sans-Serif" font-size="10.00">_merger&lt; sorted_runs</text>
<text text-anchor="middle" x="911" y="-142.5" font-family="Helvetica,sans-Serif" font-size="10.00">_type, CompareType, AllocStr &gt;</text>
</a>
</g>
<!-- Node3&#45;&gt;Node4 -->
<g id="edge6" class="edge"><title>Node3&#45;&gt;Node4</title>
<path fill="none" stroke="orange" stroke-dasharray="5,2" d="M646.258,-124.726C694.922,-129.615 755.782,-136.107 810,-143 815.803,-143.738 821.789,-144.535 827.813,-145.363"/>
<polygon fill="orange" stroke="orange" points="646.364,-121.219 636.066,-123.707 645.668,-128.185 646.364,-121.219"/>
<text text-anchor="start" x="671.5" y="-160" font-family="Helvetica,sans-Serif" font-size="10.00"> &lt; sorted_runs_type,</text>
<text text-anchor="middle" x="732" y="-147" font-family="Helvetica,sans-Serif" font-size="10.00"> CompareType, AllocStr &gt;</text>
</g>
<!-- Node5 -->
<g id="node9" class="node"><title>Node5</title>
<a xlink:href="classstxxl_1_1stream_1_1runs__merger.html" target="_top" xlink:title="stxxl::stream::runs\l_merger\&lt; typename runs\l_creator_type::sorted\l_runs_type, cmp_type, alloc\l_strategy_type \&gt;">
<polygon fill="none" stroke="black" points="837.5,-31.5 837.5,-104.5 984.5,-104.5 984.5,-31.5 837.5,-31.5"/>
<text text-anchor="start" x="845.5" y="-91.5" font-family="Helvetica,sans-Serif" font-size="10.00">stxxl::stream::runs</text>
<text text-anchor="start" x="845.5" y="-78.5" font-family="Helvetica,sans-Serif" font-size="10.00">_merger&lt; typename runs</text>
<text text-anchor="start" x="845.5" y="-65.5" font-family="Helvetica,sans-Serif" font-size="10.00">_creator_type::sorted</text>
<text text-anchor="start" x="845.5" y="-52.5" font-family="Helvetica,sans-Serif" font-size="10.00">_runs_type, cmp_type, alloc</text>
<text text-anchor="middle" x="911" y="-39.5" font-family="Helvetica,sans-Serif" font-size="10.00">_strategy_type &gt;</text>
</a>
</g>
<!-- Node3&#45;&gt;Node5 -->
<g id="edge8" class="edge"><title>Node3&#45;&gt;Node5</title>
<path fill="none" stroke="orange" stroke-dasharray="5,2" d="M624.652,-89.4091C634.395,-86.4774 644.368,-83.8786 654,-82 714.962,-70.1102 785.491,-67.0045 837.225,-66.6493"/>
<polygon fill="orange" stroke="orange" points="623.501,-86.1022 615.008,-92.4374 625.598,-92.7807 623.501,-86.1022"/>
<text text-anchor="start" x="654" y="-112" font-family="Helvetica,sans-Serif" font-size="10.00"> &lt; typename runs_creator</text>
<text text-anchor="start" x="654" y="-99" font-family="Helvetica,sans-Serif" font-size="10.00">_type::sorted_runs_type,</text>
<text text-anchor="middle" x="732" y="-86" font-family="Helvetica,sans-Serif" font-size="10.00"> cmp_type, alloc_strategy_type &gt;</text>
</g>
<!-- Node6&#45;&gt;Node4 -->
<g id="edge12" class="edge"><title>Node6&#45;&gt;Node4</title>
<path fill="none" stroke="midnightblue" d="M637.251,-185.014C687.285,-182.738 752.43,-178.956 810,-173 815.819,-172.398 821.816,-171.702 827.848,-170.946"/>
<polygon fill="midnightblue" stroke="midnightblue" points="636.967,-181.523 627.132,-185.464 637.277,-188.517 636.967,-181.523"/>
</g>
<!-- Node7&#45;&gt;Node5 -->
<g id="edge16" class="edge"><title>Node7&#45;&gt;Node5</title>
<path fill="none" stroke="midnightblue" d="M638.724,-44.1635C688.489,-48.4364 752.851,-53.9885 810,-59 818.856,-59.7766 828.149,-60.597 837.36,-61.4138"/>
<polygon fill="midnightblue" stroke="midnightblue" points="638.916,-40.6672 628.653,-43.2992 638.317,-47.6416 638.916,-40.6672"/>
</g>
</g>
</svg>
