<?xml version="1.0" encoding="UTF-8" standalone="no"?>
<!DOCTYPE svg PUBLIC "-//W3C//DTD SVG 1.1//EN"
 "http://www.w3.org/Graphics/SVG/1.1/DTD/svg11.dtd">
<!-- Generated by graphviz version 2.26.3 (20100126.1600)
 -->
<!-- Title: stxxl::request_with_waiters Pages: 1 -->
<svg width="1304pt" height="302pt"
 viewBox="0.00 0.00 1304.00 302.21" xmlns="http://www.w3.org/2000/svg" xmlns:xlink="http://www.w3.org/1999/xlink">
<g id="graph1" class="graph" transform="scale(1 1) rotate(0) translate(4 298.211)">
<title>stxxl::request_with_waiters</title>
<!-- Node1 -->
<g id="node1" class="node"><title>Node1</title>
<polygon fill="#bfbfbf" stroke="black" points="1194,-185 1194,-219 1296,-219 1296,-185 1194,-185"/>
<text text-anchor="start" x="1202" y="-206" font-family="Helvetica,sans-Serif" font-size="10.00">stxxl::request_with</text>
<text text-anchor="middle" x="1245" y="-193" font-family="Helvetica,sans-Serif" font-size="10.00">_waiters</text>
</g>
<!-- Node2 -->
<g id="node2" class="node"><title>Node2</title>
<a xlink:href="classstxxl_1_1request.html" target="_top" xlink:title="Request object encapsulating basic properties like file and offset. ">
<polygon fill="none" stroke="black" points="1078.5,-125.5 1078.5,-146.5 1155.5,-146.5 1155.5,-125.5 1078.5,-125.5"/>
<text text-anchor="middle" x="1117" y="-133.5" font-family="Helvetica,sans-Serif" font-size="10.00">stxxl::request</text>
</a>
</g>
<!-- Node2&#45;&gt;Node1 -->
<g id="edge2" class="edge"><title>Node2&#45;&gt;Node1</title>
<path fill="none" stroke="midnightblue" d="M1146.62,-151.274C1166.17,-161.353 1191.8,-174.569 1212,-184.985"/>
<polygon fill="midnightblue" stroke="midnightblue" points="1148.06,-148.076 1137.57,-146.604 1144.85,-154.298 1148.06,-148.076"/>
</g>
<!-- Node3 -->
<g id="node4" class="node"><title>Node3</title>
<a xlink:href="classstxxl_1_1request__interface.html" target="_top" xlink:title="Functional interface of a request. ">
<polygon fill="none" stroke="black" points="408.5,-261.5 408.5,-282.5 533.5,-282.5 533.5,-261.5 408.5,-261.5"/>
<text text-anchor="middle" x="471" y="-269.5" font-family="Helvetica,sans-Serif" font-size="10.00">stxxl::request_interface</text>
</a>
</g>
<!-- Node3&#45;&gt;Node2 -->
<g id="edge4" class="edge"><title>Node3&#45;&gt;Node2</title>
<path fill="none" stroke="midnightblue" d="M543.874,-283.236C642.108,-295.381 820.95,-306.8 962,-256 1026.68,-232.706 1085.79,-171.459 1107.85,-146.656"/>
<polygon fill="midnightblue" stroke="midnightblue" points="544.115,-279.739 533.753,-281.947 543.23,-286.683 544.115,-279.739"/>
</g>
<!-- Node4 -->
<g id="node6" class="node"><title>Node4</title>
<a xlink:href="classstxxl_1_1noncopyable.html" target="_top" xlink:title="stxxl::noncopyable">
<polygon fill="none" stroke="black" points="12,-214.5 12,-235.5 114,-235.5 114,-214.5 12,-214.5"/>
<text text-anchor="middle" x="63" y="-222.5" font-family="Helvetica,sans-Serif" font-size="10.00">stxxl::noncopyable</text>
</a>
</g>
<!-- Node4&#45;&gt;Node3 -->
<g id="edge6" class="edge"><title>Node4&#45;&gt;Node3</title>
<path fill="none" stroke="#8b1a1a" d="M124.569,-236.108C131.119,-237.15 137.69,-238.137 144,-239 235.725,-251.539 342.534,-261.44 408.461,-267.009"/>
<polygon fill="#8b1a1a" stroke="#8b1a1a" points="124.769,-232.594 114.335,-234.435 123.639,-239.502 124.769,-232.594"/>
</g>
<!-- Node6 -->
<g id="node10" class="node"><title>Node6</title>
<a xlink:href="classstxxl_1_1mutex.html" target="_top" xlink:title="stxxl::mutex">
<polygon fill="none" stroke="black" points="290,-214.5 290,-235.5 360,-235.5 360,-214.5 290,-214.5"/>
<text text-anchor="middle" x="325" y="-222.5" font-family="Helvetica,sans-Serif" font-size="10.00">stxxl::mutex</text>
</a>
</g>
<!-- Node4&#45;&gt;Node6 -->
<g id="edge12" class="edge"><title>Node4&#45;&gt;Node6</title>
<path fill="none" stroke="#8b1a1a" d="M124.156,-225C175.679,-225 247.573,-225 289.908,-225"/>
<polygon fill="#8b1a1a" stroke="#8b1a1a" points="124.138,-221.5 114.138,-225 124.138,-228.5 124.138,-221.5"/>
</g>
<!-- Node9 -->
<g id="node17" class="node"><title>Node9</title>
<a xlink:href="classstxxl_1_1file.html" target="_top" xlink:title="Defines interface of file. ">
<polygon fill="none" stroke="black" points="866,-145.5 866,-166.5 922,-166.5 922,-145.5 866,-145.5"/>
<text text-anchor="middle" x="894" y="-153.5" font-family="Helvetica,sans-Serif" font-size="10.00">stxxl::file</text>
</a>
</g>
<!-- Node4&#45;&gt;Node9 -->
<g id="edge20" class="edge"><title>Node4&#45;&gt;Node9</title>
<path fill="none" stroke="#8b1a1a" d="M124.084,-218.699C163.448,-214.679 215.734,-209.413 262,-205 325.97,-198.898 341.944,-197.122 406,-192 584.53,-177.725 629.49,-178.518 808,-164 827.28,-162.432 848.967,-160.413 865.739,-158.795"/>
<polygon fill="#8b1a1a" stroke="#8b1a1a" points="123.703,-215.22 114.111,-219.719 124.415,-222.184 123.703,-215.22"/>
</g>
<!-- Node5 -->
<g id="node8" class="node"><title>Node5</title>
<a xlink:href="classstxxl_1_1atomic__counted__object.html" target="_top" xlink:title="Provides reference counting abilities for use with counting_ptr with mutex locking. ">
<polygon fill="none" stroke="black" points="557,-116 557,-150 673,-150 673,-116 557,-116"/>
<text text-anchor="start" x="565" y="-137" font-family="Helvetica,sans-Serif" font-size="10.00">stxxl::atomic_counted</text>
<text text-anchor="middle" x="615" y="-124" font-family="Helvetica,sans-Serif" font-size="10.00">_object</text>
</a>
</g>
<!-- Node5&#45;&gt;Node2 -->
<g id="edge8" class="edge"><title>Node5&#45;&gt;Node2</title>
<path fill="none" stroke="midnightblue" d="M683.107,-133.407C789.956,-134.046 993.527,-135.262 1078.37,-135.769"/>
<polygon fill="midnightblue" stroke="midnightblue" points="683.097,-129.907 673.076,-133.347 683.055,-136.907 683.097,-129.907"/>
</g>
<!-- Node5&#45;&gt;Node9 -->
<g id="edge22" class="edge"><title>Node5&#45;&gt;Node9</title>
<path fill="none" stroke="#9a32cd" stroke-dasharray="5,2" d="M683.435,-138.642C741.985,-143.468 823.325,-150.174 865.73,-153.67"/>
<polygon fill="#9a32cd" stroke="#9a32cd" points="683.402,-135.127 673.148,-137.794 682.827,-142.103 683.402,-135.127"/>
<text text-anchor="middle" x="751" y="-152" font-family="Helvetica,sans-Serif" font-size="10.00"> m_request_ref</text>
</g>
<!-- Node6&#45;&gt;Node1 -->
<g id="edge34" class="edge"><title>Node6&#45;&gt;Node1</title>
<path fill="none" stroke="#9a32cd" stroke-dasharray="5,2" d="M370.368,-228.547C427.421,-232.694 528.399,-239 615,-239 615,-239 615,-239 1117,-239 1148.11,-239 1181.87,-228.787 1206.9,-219.092"/>
<polygon fill="#9a32cd" stroke="#9a32cd" points="370.47,-225.045 360.24,-227.799 369.955,-232.026 370.47,-225.045"/>
<text text-anchor="middle" x="894" y="-243" font-family="Helvetica,sans-Serif" font-size="10.00"> m_waiters_mutex</text>
</g>
<!-- Node6&#45;&gt;Node5 -->
<g id="edge10" class="edge"><title>Node6&#45;&gt;Node5</title>
<path fill="none" stroke="#9a32cd" stroke-dasharray="5,2" d="M368.07,-211.337C419.487,-195.025 505.505,-167.736 561.236,-150.056"/>
<polygon fill="#9a32cd" stroke="#9a32cd" points="366.74,-208.086 358.267,-214.446 368.857,-214.759 366.74,-208.086"/>
<text text-anchor="middle" x="471" y="-201" font-family="Helvetica,sans-Serif" font-size="10.00"> m_reference_count_mutex</text>
</g>
<!-- Node7 -->
<g id="node13" class="node"><title>Node7</title>
<a xlink:href="structstxxl_1_1choose__int__types.html" target="_top" xlink:title="stxxl::choose_int_types\l\&lt; my_pointer_size \&gt;">
<polygon fill="none" stroke="black" points="262.5,-116 262.5,-150 387.5,-150 387.5,-116 262.5,-116"/>
<text text-anchor="start" x="270.5" y="-137" font-family="Helvetica,sans-Serif" font-size="10.00">stxxl::choose_int_types</text>
<text text-anchor="middle" x="325" y="-124" font-family="Helvetica,sans-Serif" font-size="10.00">&lt; my_pointer_size &gt;</text>
</a>
</g>
<!-- Node7&#45;&gt;Node5 -->
<g id="edge14" class="edge"><title>Node7&#45;&gt;Node5</title>
<path fill="none" stroke="#9a32cd" stroke-dasharray="5,2" d="M397.836,-133C447.07,-133 511.202,-133 556.983,-133"/>
<polygon fill="#9a32cd" stroke="#9a32cd" points="397.569,-129.5 387.569,-133 397.569,-136.5 397.569,-129.5"/>
<text text-anchor="middle" x="471" y="-137" font-family="Helvetica,sans-Serif" font-size="10.00"> m_reference_count</text>
</g>
<!-- Node8 -->
<g id="node15" class="node"><title>Node8</title>
<a xlink:href="structstxxl_1_1choose__int__types.html" target="_top" xlink:title="stxxl::choose_int_types\l\&lt; PtrSize \&gt;">
<polygon fill="none" stroke="black" points="0.5,-116 0.5,-150 125.5,-150 125.5,-116 0.5,-116"/>
<text text-anchor="start" x="8.5" y="-137" font-family="Helvetica,sans-Serif" font-size="10.00">stxxl::choose_int_types</text>
<text text-anchor="middle" x="63" y="-124" font-family="Helvetica,sans-Serif" font-size="10.00">&lt; PtrSize &gt;</text>
</a>
</g>
<!-- Node8&#45;&gt;Node7 -->
<g id="edge16" class="edge"><title>Node8&#45;&gt;Node7</title>
<path fill="none" stroke="orange" stroke-dasharray="5,2" d="M135.913,-133C175.636,-133 224.295,-133 262.303,-133"/>
<polygon fill="orange" stroke="orange" points="135.756,-129.5 125.756,-133 135.755,-136.5 135.756,-129.5"/>
<text text-anchor="middle" x="194" y="-137" font-family="Helvetica,sans-Serif" font-size="10.00"> &lt; my_pointer_size &gt;</text>
</g>
<!-- Node9&#45;&gt;Node2 -->
<g id="edge18" class="edge"><title>Node9&#45;&gt;Node2</title>
<path fill="none" stroke="#9a32cd" stroke-dasharray="5,2" d="M932.324,-152.563C973.076,-148.908 1037.18,-143.159 1078.14,-139.485"/>
<polygon fill="#9a32cd" stroke="#9a32cd" points="931.89,-149.088 922.243,-153.467 932.516,-156.06 931.89,-149.088"/>
<text text-anchor="middle" x="1020" y="-151" font-family="Helvetica,sans-Serif" font-size="10.00"> m_file</text>
</g>
<!-- Node10 -->
<g id="node21" class="node"><title>Node10</title>
<a xlink:href="structstxxl_1_1compat__unique__ptr.html" target="_top" xlink:title="stxxl::compat_unique\l_ptr\&lt; stxxl::stxxl::io\l_error \&gt;">
<polygon fill="none" stroke="black" points="694.5,-0.5 694.5,-47.5 807.5,-47.5 807.5,-0.5 694.5,-0.5"/>
<text text-anchor="start" x="702.5" y="-34.5" font-family="Helvetica,sans-Serif" font-size="10.00">stxxl::compat_unique</text>
<text text-anchor="start" x="702.5" y="-21.5" font-family="Helvetica,sans-Serif" font-size="10.00">_ptr&lt; stxxl::stxxl::io</text>
<text text-anchor="middle" x="751" y="-8.5" font-family="Helvetica,sans-Serif" font-size="10.00">_error &gt;</text>
</a>
</g>
<!-- Node10&#45;&gt;Node2 -->
<g id="edge24" class="edge"><title>Node10&#45;&gt;Node2</title>
<path fill="none" stroke="#9a32cd" stroke-dasharray="5,2" d="M817.893,-18.9934C884.352,-17.2634 986.67,-23.6532 1060,-70 1082.78,-84.3981 1101.44,-110.682 1110.69,-125.362"/>
<polygon fill="#9a32cd" stroke="#9a32cd" points="817.423,-15.5069 807.545,-19.3359 817.655,-22.5031 817.423,-15.5069"/>
<text text-anchor="middle" x="894" y="-35" font-family="Helvetica,sans-Serif" font-size="10.00"> m_error</text>
</g>
<!-- Node11 -->
<g id="node23" class="node"><title>Node11</title>
<a xlink:href="structstxxl_1_1compat__unique__ptr.html" target="_top" xlink:title="stxxl::compat_unique\l_ptr\&lt; Type \&gt;">
<polygon fill="none" stroke="black" points="268.5,-31 268.5,-65 381.5,-65 381.5,-31 268.5,-31"/>
<text text-anchor="start" x="276.5" y="-52" font-family="Helvetica,sans-Serif" font-size="10.00">stxxl::compat_unique</text>
<text text-anchor="middle" x="325" y="-39" font-family="Helvetica,sans-Serif" font-size="10.00">_ptr&lt; Type &gt;</text>
</a>
</g>
<!-- Node11&#45;&gt;Node10 -->
<g id="edge26" class="edge"><title>Node11&#45;&gt;Node10</title>
<path fill="none" stroke="orange" stroke-dasharray="5,2" d="M390.421,-28.6929C395.659,-27.6187 400.897,-26.6957 406,-26 506.743,-12.265 625.574,-15.8656 694.21,-19.8509"/>
<polygon fill="orange" stroke="orange" points="389.384,-25.3379 380.382,-30.9251 390.903,-32.171 389.384,-25.3379"/>
<text text-anchor="start" x="435" y="-43" font-family="Helvetica,sans-Serif" font-size="10.00"> &lt; stxxl::stxxl::io</text>
<text text-anchor="middle" x="471" y="-30" font-family="Helvetica,sans-Serif" font-size="10.00">_error &gt;</text>
</g>
<!-- Node13 -->
<g id="node27" class="node"><title>Node13</title>
<a xlink:href="structstxxl_1_1compat__unique__ptr.html" target="_top" xlink:title="stxxl::compat_unique\l_ptr\&lt; stxxl::completion\l_handler_impl \&gt;">
<polygon fill="none" stroke="black" points="554.5,-50.5 554.5,-97.5 675.5,-97.5 675.5,-50.5 554.5,-50.5"/>
<text text-anchor="start" x="562.5" y="-84.5" font-family="Helvetica,sans-Serif" font-size="10.00">stxxl::compat_unique</text>
<text text-anchor="start" x="562.5" y="-71.5" font-family="Helvetica,sans-Serif" font-size="10.00">_ptr&lt; stxxl::completion</text>
<text text-anchor="middle" x="615" y="-58.5" font-family="Helvetica,sans-Serif" font-size="10.00">_handler_impl &gt;</text>
</a>
</g>
<!-- Node11&#45;&gt;Node13 -->
<g id="edge32" class="edge"><title>Node11&#45;&gt;Node13</title>
<path fill="none" stroke="orange" stroke-dasharray="5,2" d="M391.788,-53.9879C440.783,-58.3806 506.781,-64.2976 554.287,-68.5568"/>
<polygon fill="orange" stroke="orange" points="391.876,-50.4818 381.603,-53.0748 391.251,-57.4539 391.876,-50.4818"/>
<text text-anchor="start" x="426.5" y="-84" font-family="Helvetica,sans-Serif" font-size="10.00"> &lt; stxxl::completion</text>
<text text-anchor="middle" x="471" y="-71" font-family="Helvetica,sans-Serif" font-size="10.00">_handler_impl &gt;</text>
</g>
<!-- Node12 -->
<g id="node25" class="node"><title>Node12</title>
<a xlink:href="classstxxl_1_1completion__handler.html" target="_top" xlink:title="Completion handler class (Loki&#45;style). ">
<polygon fill="none" stroke="black" points="826.5,-65.5 826.5,-86.5 961.5,-86.5 961.5,-65.5 826.5,-65.5"/>
<text text-anchor="middle" x="894" y="-73.5" font-family="Helvetica,sans-Serif" font-size="10.00">stxxl::completion_handler</text>
</a>
</g>
<!-- Node12&#45;&gt;Node2 -->
<g id="edge28" class="edge"><title>Node12&#45;&gt;Node2</title>
<path fill="none" stroke="#9a32cd" stroke-dasharray="5,2" d="M971.865,-73.1605C1000.44,-74.5241 1032.51,-78.9693 1060,-90 1079.35,-97.7659 1097.3,-114.46 1107.71,-125.456"/>
<polygon fill="#9a32cd" stroke="#9a32cd" points="971.627,-69.6499 961.509,-72.7911 971.378,-76.6454 971.627,-69.6499"/>
<text text-anchor="middle" x="1020" y="-94" font-family="Helvetica,sans-Serif" font-size="10.00"> m_on_complete</text>
</g>
<!-- Node13&#45;&gt;Node12 -->
<g id="edge30" class="edge"><title>Node13&#45;&gt;Node12</title>
<path fill="none" stroke="#9a32cd" stroke-dasharray="5,2" d="M685.674,-74.5066C728.805,-74.8158 783.648,-75.2089 826.237,-75.5142"/>
<polygon fill="#9a32cd" stroke="#9a32cd" points="685.564,-71.0058 675.539,-74.434 685.513,-78.0057 685.564,-71.0058"/>
<text text-anchor="middle" x="751" y="-80" font-family="Helvetica,sans-Serif" font-size="10.00"> m_ptr</text>
</g>
</g>
</svg>
