<?xml version="1.0" encoding="UTF-8" standalone="no"?>
<!DOCTYPE svg PUBLIC "-//W3C//DTD SVG 1.1//EN"
 "http://www.w3.org/Graphics/SVG/1.1/DTD/svg11.dtd">
<!-- Generated by graphviz version 2.26.3 (20100126.1600)
 -->
<!-- Title: stxxl::onoff_switch Pages: 1 -->
<svg width="240pt" height="162pt"
 viewBox="0.00 0.00 240.00 162.00" xmlns="http://www.w3.org/2000/svg" xmlns:xlink="http://www.w3.org/1999/xlink">
<g id="graph1" class="graph" transform="scale(1 1) rotate(0) translate(4 158)">
<title>stxxl::onoff_switch</title>
<!-- Node1 -->
<g id="node1" class="node"><title>Node1</title>
<polygon fill="#bfbfbf" stroke="black" points="0.5,-0.5 0.5,-21.5 101.5,-21.5 101.5,-0.5 0.5,-0.5"/>
<text text-anchor="middle" x="51" y="-8.5" font-family="Helvetica,sans-Serif" font-size="10.00">stxxl::onoff_switch</text>
</g>
<!-- Node2 -->
<g id="node2" class="node"><title>Node2</title>
<a xlink:href="classstxxl_1_1noncopyable.html" target="_top" xlink:title="stxxl::noncopyable">
<polygon fill="none" stroke="black" points="0,-132.5 0,-153.5 102,-153.5 102,-132.5 0,-132.5"/>
<text text-anchor="middle" x="51" y="-140.5" font-family="Helvetica,sans-Serif" font-size="10.00">stxxl::noncopyable</text>
</a>
</g>
<!-- Node2&#45;&gt;Node1 -->
<g id="edge2" class="edge"><title>Node2&#45;&gt;Node1</title>
<path fill="none" stroke="#8b1a1a" d="M29.4588,-125.489C20.7238,-117.01 11.6186,-106.056 7,-94 3.50213,-84.8693 3.99446,-81.3044 7,-72 13.422,-52.119 29.004,-33.2611 39.7874,-21.9135"/>
<polygon fill="#8b1a1a" stroke="#8b1a1a" points="27.1633,-128.132 36.9177,-132.268 31.8714,-122.952 27.1633,-128.132"/>
</g>
<!-- Node3 -->
<g id="node4" class="node"><title>Node3</title>
<a xlink:href="classstxxl_1_1mutex.html" target="_top" xlink:title="stxxl::mutex">
<polygon fill="none" stroke="black" points="16,-72.5 16,-93.5 86,-93.5 86,-72.5 16,-72.5"/>
<text text-anchor="middle" x="51" y="-80.5" font-family="Helvetica,sans-Serif" font-size="10.00">stxxl::mutex</text>
</a>
</g>
<!-- Node2&#45;&gt;Node3 -->
<g id="edge6" class="edge"><title>Node2&#45;&gt;Node3</title>
<path fill="none" stroke="#8b1a1a" d="M51,-122.231C51,-112.592 51,-101.544 51,-93.6339"/>
<polygon fill="#8b1a1a" stroke="#8b1a1a" points="47.5001,-122.273 51,-132.273 54.5001,-122.273 47.5001,-122.273"/>
</g>
<!-- Node4 -->
<g id="node7" class="node"><title>Node4</title>
<a xlink:href="classstxxl_1_1condition__variable.html" target="_top" xlink:title="stxxl::condition_variable">
<polygon fill="none" stroke="black" points="104,-72.5 104,-93.5 232,-93.5 232,-72.5 104,-72.5"/>
<text text-anchor="middle" x="168" y="-80.5" font-family="Helvetica,sans-Serif" font-size="10.00">stxxl::condition_variable</text>
</a>
</g>
<!-- Node2&#45;&gt;Node4 -->
<g id="edge10" class="edge"><title>Node2&#45;&gt;Node4</title>
<path fill="none" stroke="#8b1a1a" d="M80.6804,-127.779C101.447,-117.13 128.674,-103.167 147.165,-93.6846"/>
<polygon fill="#8b1a1a" stroke="#8b1a1a" points="78.949,-124.734 71.6479,-132.411 82.1432,-130.962 78.949,-124.734"/>
</g>
<!-- Node3&#45;&gt;Node1 -->
<g id="edge4" class="edge"><title>Node3&#45;&gt;Node1</title>
<path fill="none" stroke="#9a32cd" stroke-dasharray="5,2" d="M51,-62.2348C51,-48.969 51,-32.3188 51,-21.6674"/>
<polygon fill="#9a32cd" stroke="#9a32cd" points="47.5001,-62.3761 51,-72.3762 54.5001,-62.3762 47.5001,-62.3761"/>
<text text-anchor="middle" x="74" y="-44.5" font-family="Helvetica,sans-Serif" font-size="10.00"> m_mutex</text>
</g>
<!-- Node4&#45;&gt;Node1 -->
<g id="edge8" class="edge"><title>Node4&#45;&gt;Node1</title>
<path fill="none" stroke="#9a32cd" stroke-dasharray="5,2" d="M143.317,-66.7833C130.736,-58.6135 115.144,-48.6347 101,-40 90.7219,-33.7255 79.0932,-26.9613 69.6384,-21.5451"/>
<polygon fill="#9a32cd" stroke="#9a32cd" points="141.594,-69.8378 151.882,-72.3673 145.417,-63.9739 141.594,-69.8378"/>
<text text-anchor="middle" x="143.5" y="-44.5" font-family="Helvetica,sans-Serif" font-size="10.00"> m_cond</text>
</g>
</g>
</svg>
