<?xml version="1.0" encoding="UTF-8" standalone="no"?>
<!DOCTYPE svg PUBLIC "-//W3C//DTD SVG 1.1//EN"
 "http://www.w3.org/Graphics/SVG/1.1/DTD/svg11.dtd">
<!-- Generated by graphviz version 2.26.3 (20100126.1600)
 -->
<!-- Title: stxxl::hash_map::hash_map_iterator&lt; HashMap &gt; Pages: 1 -->
<svg width="289pt" height="402pt"
 viewBox="0.00 0.00 289.00 402.00" xmlns="http://www.w3.org/2000/svg" xmlns:xlink="http://www.w3.org/1999/xlink">
<g id="graph1" class="graph" transform="scale(1 1) rotate(0) translate(4 398)">
<title>stxxl::hash_map::hash_map_iterator&lt; HashMap &gt;</title>
<!-- Node1 -->
<g id="node1" class="node"><title>Node1</title>
<polygon fill="#bfbfbf" stroke="black" points="19,-1 19,-35 165,-35 165,-1 19,-1"/>
<text text-anchor="start" x="27" y="-22" font-family="Helvetica,sans-Serif" font-size="10.00">stxxl::hash_map::hash</text>
<text text-anchor="middle" x="92" y="-9" font-family="Helvetica,sans-Serif" font-size="10.00">_map_iterator&lt; HashMap &gt;</text>
</g>
<!-- Node2 -->
<g id="node2" class="node"><title>Node2</title>
<a xlink:href="classstxxl_1_1hash__map_1_1hash__map__iterator__base.html" target="_top" xlink:title="stxxl::hash_map::hash\l_map_iterator_base\&lt; HashMap \&gt;">
<polygon fill="none" stroke="black" points="4.5,-75 4.5,-109 179.5,-109 179.5,-75 4.5,-75"/>
<text text-anchor="start" x="12.5" y="-96" font-family="Helvetica,sans-Serif" font-size="10.00">stxxl::hash_map::hash</text>
<text text-anchor="middle" x="92" y="-83" font-family="Helvetica,sans-Serif" font-size="10.00">_map_iterator_base&lt; HashMap &gt;</text>
</a>
</g>
<!-- Node2&#45;&gt;Node1 -->
<g id="edge2" class="edge"><title>Node2&#45;&gt;Node1</title>
<path fill="none" stroke="midnightblue" d="M92,-64.6275C92,-54.7253 92,-43.8344 92,-35.07"/>
<polygon fill="midnightblue" stroke="midnightblue" points="88.5001,-64.8369 92,-74.8369 95.5001,-64.8369 88.5001,-64.8369"/>
</g>
<!-- Node3 -->
<g id="node4" class="node"><title>Node3</title>
<a xlink:href="classstxxl_1_1hash__map_1_1buffered__reader.html" target="_top" xlink:title="Used to scan external memory with prefetching. ">
<polygon fill="none" stroke="black" points="1,-161 1,-195 183,-195 183,-161 1,-161"/>
<text text-anchor="start" x="9" y="-182" font-family="Helvetica,sans-Serif" font-size="10.00">stxxl::hash_map::buffered</text>
<text text-anchor="middle" x="92" y="-169" font-family="Helvetica,sans-Serif" font-size="10.00">_reader&lt; CacheType, BidIterator &gt;</text>
</a>
</g>
<!-- Node3&#45;&gt;Node2 -->
<g id="edge4" class="edge"><title>Node3&#45;&gt;Node2</title>
<path fill="none" stroke="#9a32cd" stroke-dasharray="5,2" d="M92,-150.342C92,-136.774 92,-120.861 92,-109.084"/>
<polygon fill="#9a32cd" stroke="#9a32cd" points="88.5001,-150.597 92,-160.597 95.5001,-150.597 88.5001,-150.597"/>
<text text-anchor="middle" x="112.5" y="-132.5" font-family="Helvetica,sans-Serif" font-size="10.00"> reader_</text>
</g>
<!-- Node4 -->
<g id="node6" class="node"><title>Node4</title>
<a xlink:href="classstxxl_1_1noncopyable.html" target="_top" xlink:title="stxxl::noncopyable">
<polygon fill="none" stroke="black" points="0,-279.5 0,-300.5 102,-300.5 102,-279.5 0,-279.5"/>
<text text-anchor="middle" x="51" y="-287.5" font-family="Helvetica,sans-Serif" font-size="10.00">stxxl::noncopyable</text>
</a>
</g>
<!-- Node4&#45;&gt;Node3 -->
<g id="edge6" class="edge"><title>Node4&#45;&gt;Node3</title>
<path fill="none" stroke="#8b1a1a" d="M58.3755,-269.852C66.193,-248.497 78.4043,-215.14 85.7604,-195.045"/>
<polygon fill="#8b1a1a" stroke="#8b1a1a" points="55.0822,-268.667 54.9313,-279.261 61.6556,-271.074 55.0822,-268.667"/>
</g>
<!-- Node5 -->
<g id="node8" class="node"><title>Node5</title>
<a xlink:href="structstxxl_1_1choose__int__types.html" target="_top" xlink:title="stxxl::choose_int_types\l\&lt; my_pointer_size \&gt;">
<polygon fill="none" stroke="black" points="119.5,-273 119.5,-307 244.5,-307 244.5,-273 119.5,-273"/>
<text text-anchor="start" x="127.5" y="-294" font-family="Helvetica,sans-Serif" font-size="10.00">stxxl::choose_int_types</text>
<text text-anchor="middle" x="182" y="-281" font-family="Helvetica,sans-Serif" font-size="10.00">&lt; my_pointer_size &gt;</text>
</a>
</g>
<!-- Node5&#45;&gt;Node3 -->
<g id="edge8" class="edge"><title>Node5&#45;&gt;Node3</title>
<path fill="none" stroke="#9a32cd" stroke-dasharray="5,2" d="M161.938,-265.035C144.862,-243.784 120.784,-213.82 105.798,-195.17"/>
<polygon fill="#9a32cd" stroke="#9a32cd" points="159.339,-267.387 168.331,-272.99 164.795,-263.002 159.339,-267.387"/>
<text text-anchor="middle" x="194" y="-244.5" font-family="Helvetica,sans-Serif" font-size="10.00"> prefetch_pages_</text>
<text text-anchor="middle" x="194" y="-231.5" font-family="Helvetica,sans-Serif" font-size="10.00">i_value_</text>
<text text-anchor="middle" x="194" y="-218.5" font-family="Helvetica,sans-Serif" font-size="10.00">page_size_</text>
</g>
<!-- Node6 -->
<g id="node10" class="node"><title>Node6</title>
<a xlink:href="structstxxl_1_1choose__int__types.html" target="_top" xlink:title="stxxl::choose_int_types\l\&lt; PtrSize \&gt;">
<polygon fill="none" stroke="black" points="119.5,-359 119.5,-393 244.5,-393 244.5,-359 119.5,-359"/>
<text text-anchor="start" x="127.5" y="-380" font-family="Helvetica,sans-Serif" font-size="10.00">stxxl::choose_int_types</text>
<text text-anchor="middle" x="182" y="-367" font-family="Helvetica,sans-Serif" font-size="10.00">&lt; PtrSize &gt;</text>
</a>
</g>
<!-- Node6&#45;&gt;Node5 -->
<g id="edge10" class="edge"><title>Node6&#45;&gt;Node5</title>
<path fill="none" stroke="orange" stroke-dasharray="5,2" d="M182,-348.342C182,-334.774 182,-318.861 182,-307.084"/>
<polygon fill="orange" stroke="orange" points="178.5,-348.597 182,-358.597 185.5,-348.597 178.5,-348.597"/>
<text text-anchor="middle" x="231.5" y="-330.5" font-family="Helvetica,sans-Serif" font-size="10.00"> &lt; my_pointer_size &gt;</text>
</g>
</g>
</svg>
