<?xml version="1.0" encoding="UTF-8" standalone="no"?>
<!DOCTYPE svg PUBLIC "-//W3C//DTD SVG 1.1//EN"
 "http://www.w3.org/Graphics/SVG/1.1/DTD/svg11.dtd">
<!-- Generated by graphviz version 2.26.3 (20100126.1600)
 -->
<!-- Title: stxxl::sequence&lt; ValueType, BlockSize, AllocStr, SizeType &gt;::reverse_stream Pages: 1 -->
<svg width="3714pt" height="562pt"
 viewBox="0.00 0.00 3714.00 561.87" xmlns="http://www.w3.org/2000/svg" xmlns:xlink="http://www.w3.org/1999/xlink">
<g id="graph1" class="graph" transform="scale(1 1) rotate(0) translate(4 557.868)">
<title>stxxl::sequence&lt; ValueType, BlockSize, AllocStr, SizeType &gt;::reverse_stream</title>
<!-- Node1 -->
<g id="node1" class="node"><title>Node1</title>
<polygon fill="#bfbfbf" stroke="black" points="3550,-39.5 3550,-86.5 3706,-86.5 3706,-39.5 3550,-39.5"/>
<text text-anchor="start" x="3558" y="-73.5" font-family="Helvetica,sans-Serif" font-size="10.00">stxxl::sequence&lt; ValueType,</text>
<text text-anchor="start" x="3558" y="-60.5" font-family="Helvetica,sans-Serif" font-size="10.00"> BlockSize, AllocStr, SizeType</text>
<text text-anchor="middle" x="3628" y="-47.5" font-family="Helvetica,sans-Serif" font-size="10.00"> &gt;::reverse_stream</text>
</g>
<!-- Node2 -->
<g id="node2" class="node"><title>Node2</title>
<a xlink:href="classstxxl_1_1sequence.html" target="_top" xlink:title="External sequence or deque container without random access. &#160;&#160;Introduction &#160;to sequence container: se...">
<polygon fill="none" stroke="black" points="3284.5,-290 3284.5,-324 3449.5,-324 3449.5,-290 3284.5,-290"/>
<text text-anchor="start" x="3292.5" y="-311" font-family="Helvetica,sans-Serif" font-size="10.00">stxxl::sequence&lt; ValueType,</text>
<text text-anchor="middle" x="3367" y="-298" font-family="Helvetica,sans-Serif" font-size="10.00"> BlockSize, AllocStr, SizeType &gt;</text>
</a>
</g>
<!-- Node2&#45;&gt;Node1 -->
<g id="edge2" class="edge"><title>Node2&#45;&gt;Node1</title>
<path fill="none" stroke="#9a32cd" stroke-dasharray="5,2" d="M3392.87,-282.818C3442.99,-235.96 3552.78,-133.321 3602.56,-86.7825"/>
<polygon fill="#9a32cd" stroke="#9a32cd" points="3390.27,-280.456 3385.35,-289.842 3395.05,-285.57 3390.27,-280.456"/>
<text text-anchor="middle" x="3500" y="-210" font-family="Helvetica,sans-Serif" font-size="10.00"> m_sequence</text>
</g>
<!-- Node3 -->
<g id="node4" class="node"><title>Node3</title>
<a xlink:href="classstxxl_1_1noncopyable.html" target="_top" xlink:title="stxxl::noncopyable">
<polygon fill="none" stroke="black" points="31,-371.5 31,-392.5 133,-392.5 133,-371.5 31,-371.5"/>
<text text-anchor="middle" x="82" y="-379.5" font-family="Helvetica,sans-Serif" font-size="10.00">stxxl::noncopyable</text>
</a>
</g>
<!-- Node3&#45;&gt;Node2 -->
<g id="edge4" class="edge"><title>Node3&#45;&gt;Node2</title>
<path fill="none" stroke="#8b1a1a" d="M142.642,-394.372C203.982,-405.794 301.667,-421 387,-421 387,-421 387,-421 800,-421 936.163,-421 967.837,-459 1104,-459 1104,-459 1104,-459 3114,-459 3217.76,-459 3315.67,-363.893 3352.06,-324.141"/>
<polygon fill="#8b1a1a" stroke="#8b1a1a" points="143.22,-390.919 132.744,-392.503 141.921,-397.797 143.22,-390.919"/>
</g>
<!-- Node4 -->
<g id="node6" class="node"><title>Node4</title>
<a xlink:href="classstxxl_1_1read__write__pool.html" target="_top" xlink:title="Implements dynamically resizable buffered writing and prefetched reading pool. ">
<polygon fill="none" stroke="black" points="854.5,-188 854.5,-222 973.5,-222 973.5,-188 854.5,-188"/>
<text text-anchor="start" x="862.5" y="-209" font-family="Helvetica,sans-Serif" font-size="10.00">stxxl::read_write_pool</text>
<text text-anchor="middle" x="914" y="-196" font-family="Helvetica,sans-Serif" font-size="10.00">&lt; BlockType &gt;</text>
</a>
</g>
<!-- Node3&#45;&gt;Node4 -->
<g id="edge8" class="edge"><title>Node3&#45;&gt;Node4</title>
<path fill="none" stroke="#8b1a1a" d="M97.3356,-363.502C115.435,-342.904 147.466,-310.131 182,-292 234.591,-264.39 253.921,-273.449 312,-261 386.321,-245.069 404.553,-238.23 480,-229 613.142,-212.712 770.626,-207.472 854.461,-205.791"/>
<polygon fill="#8b1a1a" stroke="#8b1a1a" points="94.5392,-361.386 90.678,-371.252 99.8491,-365.947 94.5392,-361.386"/>
</g>
<!-- Node5 -->
<g id="node9" class="node"><title>Node5</title>
<a xlink:href="classstxxl_1_1prefetch__pool.html" target="_top" xlink:title="Implements dynamically resizable prefetching pool. ">
<polygon fill="none" stroke="black" points="633.5,-109 633.5,-143 740.5,-143 740.5,-109 633.5,-109"/>
<text text-anchor="start" x="641.5" y="-130" font-family="Helvetica,sans-Serif" font-size="10.00">stxxl::prefetch_pool</text>
<text text-anchor="middle" x="687" y="-117" font-family="Helvetica,sans-Serif" font-size="10.00">&lt; BlockType &gt;</text>
</a>
</g>
<!-- Node3&#45;&gt;Node5 -->
<g id="edge12" class="edge"><title>Node3&#45;&gt;Node5</title>
<path fill="none" stroke="#8b1a1a" d="M86.1687,-361.55C95.5169,-321.419 122.196,-232.642 182,-191 218.544,-165.554 510.428,-139.896 633.05,-130.124"/>
<polygon fill="#8b1a1a" stroke="#8b1a1a" points="82.7103,-360.981 83.9785,-371.5 89.5466,-362.486 82.7103,-360.981"/>
</g>
<!-- Node10 -->
<g id="node20" class="node"><title>Node10</title>
<a xlink:href="classstxxl_1_1write__pool.html" target="_top" xlink:title="Implements dynamically resizable buffered writing pool. ">
<polygon fill="none" stroke="black" points="496.5,-238 496.5,-272 593.5,-272 593.5,-238 496.5,-238"/>
<text text-anchor="start" x="504.5" y="-259" font-family="Helvetica,sans-Serif" font-size="10.00">stxxl::write_pool&lt;</text>
<text text-anchor="middle" x="545" y="-246" font-family="Helvetica,sans-Serif" font-size="10.00"> BlockType &gt;</text>
</a>
</g>
<!-- Node3&#45;&gt;Node10 -->
<g id="edge24" class="edge"><title>Node3&#45;&gt;Node10</title>
<path fill="none" stroke="#8b1a1a" d="M106.959,-366.179C126.649,-354.348 155.175,-338.617 182,-329 290.676,-290.039 425.417,-269.333 496.241,-260.437"/>
<polygon fill="#8b1a1a" stroke="#8b1a1a" points="105.016,-363.264 98.3102,-371.467 108.668,-369.236 105.016,-363.264"/>
</g>
<!-- Node12 -->
<g id="node25" class="node"><title>Node12</title>
<a xlink:href="classstxxl_1_1singleton.html" target="_top" xlink:title="stxxl::singleton\&lt; block\l_manager \&gt;">
<polygon fill="none" stroke="black" points="628,-487 628,-521 746,-521 746,-487 628,-487"/>
<text text-anchor="start" x="636" y="-508" font-family="Helvetica,sans-Serif" font-size="10.00">stxxl::singleton&lt; block</text>
<text text-anchor="middle" x="687" y="-495" font-family="Helvetica,sans-Serif" font-size="10.00">_manager &gt;</text>
</a>
</g>
<!-- Node3&#45;&gt;Node12 -->
<g id="edge30" class="edge"><title>Node3&#45;&gt;Node12</title>
<path fill="none" stroke="#8b1a1a" d="M92.725,-401.41C108.589,-428.209 140.913,-476.051 182,-501 323.826,-587.12 531.944,-547.55 630.831,-521.059"/>
<polygon fill="#8b1a1a" stroke="#8b1a1a" points="95.66,-399.493 87.6394,-392.57 89.5925,-402.984 95.66,-399.493"/>
</g>
<!-- Node13 -->
<g id="node28" class="node"><title>Node13</title>
<a xlink:href="classstxxl_1_1singleton.html" target="_top" xlink:title="stxxl::singleton\&lt; INSTANCE,\l destroy_on_exit \&gt;">
<polygon fill="none" stroke="black" points="312.5,-487 312.5,-521 461.5,-521 461.5,-487 312.5,-487"/>
<text text-anchor="start" x="320.5" y="-508" font-family="Helvetica,sans-Serif" font-size="10.00">stxxl::singleton&lt; INSTANCE,</text>
<text text-anchor="middle" x="387" y="-495" font-family="Helvetica,sans-Serif" font-size="10.00"> destroy_on_exit &gt;</text>
</a>
</g>
<!-- Node3&#45;&gt;Node13 -->
<g id="edge34" class="edge"><title>Node3&#45;&gt;Node13</title>
<path fill="none" stroke="#8b1a1a" d="M96.4656,-400.574C114.168,-421.856 146.233,-455.978 182,-473 222.465,-492.258 272.057,-500.116 312.328,-503.109"/>
<polygon fill="#8b1a1a" stroke="#8b1a1a" points="99.0093,-398.154 89.9946,-392.587 93.5704,-402.561 99.0093,-398.154"/>
</g>
<!-- Node14 -->
<g id="node31" class="node"><title>Node14</title>
<a xlink:href="classstxxl_1_1file.html" target="_top" xlink:title="Defines interface of file. ">
<polygon fill="none" stroke="black" points="886,-308.5 886,-329.5 942,-329.5 942,-308.5 886,-308.5"/>
<text text-anchor="middle" x="914" y="-316.5" font-family="Helvetica,sans-Serif" font-size="10.00">stxxl::file</text>
</a>
</g>
<!-- Node3&#45;&gt;Node14 -->
<g id="edge38" class="edge"><title>Node3&#45;&gt;Node14</title>
<path fill="none" stroke="#8b1a1a" d="M143.305,-376.301C189.623,-372.084 254.78,-366.344 312,-362 544.709,-344.335 603.562,-348.938 836,-328 852.563,-326.508 871.055,-324.394 885.874,-322.59"/>
<polygon fill="#8b1a1a" stroke="#8b1a1a" points="142.77,-372.835 133.13,-377.23 143.407,-379.806 142.77,-372.835"/>
</g>
<!-- Node16 -->
<g id="node36" class="node"><title>Node16</title>
<a xlink:href="classstxxl_1_1mutex.html" target="_top" xlink:title="stxxl::mutex">
<polygon fill="none" stroke="black" points="352,-371.5 352,-392.5 422,-392.5 422,-371.5 352,-371.5"/>
<text text-anchor="middle" x="387" y="-379.5" font-family="Helvetica,sans-Serif" font-size="10.00">stxxl::mutex</text>
</a>
</g>
<!-- Node3&#45;&gt;Node16 -->
<g id="edge44" class="edge"><title>Node3&#45;&gt;Node16</title>
<path fill="none" stroke="#8b1a1a" d="M143.198,-382C205.854,-382 301.051,-382 351.968,-382"/>
<polygon fill="#8b1a1a" stroke="#8b1a1a" points="143.05,-378.5 133.05,-382 143.05,-385.5 143.05,-378.5"/>
</g>
<!-- Node17 -->
<g id="node40" class="node"><title>Node17</title>
<a xlink:href="classstxxl_1_1disk__allocator.html" target="_top" xlink:title="stxxl::disk_allocator">
<polygon fill="none" stroke="black" points="1050.5,-372.5 1050.5,-393.5 1157.5,-393.5 1157.5,-372.5 1050.5,-372.5"/>
<text text-anchor="middle" x="1104" y="-380.5" font-family="Helvetica,sans-Serif" font-size="10.00">stxxl::disk_allocator</text>
</a>
</g>
<!-- Node3&#45;&gt;Node17 -->
<g id="edge50" class="edge"><title>Node3&#45;&gt;Node17</title>
<path fill="none" stroke="#8b1a1a" d="M106.048,-398.032C125.639,-410.263 154.469,-426.425 182,-435 269.583,-462.28 295.267,-459 387,-459 387,-459 387,-459 800,-459 906.628,-459 1028.18,-414.45 1079.3,-393.567"/>
<polygon fill="#8b1a1a" stroke="#8b1a1a" points="107.789,-394.991 97.4765,-392.562 104.023,-400.892 107.789,-394.991"/>
</g>
<!-- Node4&#45;&gt;Node2 -->
<g id="edge6" class="edge"><title>Node4&#45;&gt;Node2</title>
<path fill="none" stroke="#9a32cd" stroke-dasharray="5,2" d="M983.636,-189.702C1083.16,-171.741 1268.56,-153.096 1400,-228 1436.52,-248.812 1415.4,-286.333 1452,-307 1599.57,-390.32 2044.54,-337 2214,-337 2214,-337 2214,-337 3114,-337 3171.17,-337 3235.1,-329.353 3284.4,-321.78"/>
<polygon fill="#9a32cd" stroke="#9a32cd" points="982.885,-186.282 973.691,-191.546 984.162,-193.164 982.885,-186.282"/>
<text text-anchor="middle" x="2065" y="-350" font-family="Helvetica,sans-Serif" font-size="10.00"> m_pool</text>
</g>
<!-- Node5&#45;&gt;Node4 -->
<g id="edge10" class="edge"><title>Node5&#45;&gt;Node4</title>
<path fill="none" stroke="#9a32cd" stroke-dasharray="5,2" d="M745.653,-146.412C782.726,-159.314 830.077,-175.793 865.112,-187.986"/>
<polygon fill="#9a32cd" stroke="#9a32cd" points="746.571,-143.026 735.976,-143.045 744.27,-149.637 746.571,-143.026"/>
<text text-anchor="middle" x="800" y="-181" font-family="Helvetica,sans-Serif" font-size="10.00"> p_pool</text>
</g>
<!-- Node6 -->
<g id="node12" class="node"><title>Node6</title>
<a xlink:href="structstxxl_1_1choose__int__types.html" target="_top" xlink:title="stxxl::choose_int_types\l\&lt; my_pointer_size \&gt;">
<polygon fill="none" stroke="black" points="324.5,-82 324.5,-116 449.5,-116 449.5,-82 324.5,-82"/>
<text text-anchor="start" x="332.5" y="-103" font-family="Helvetica,sans-Serif" font-size="10.00">stxxl::choose_int_types</text>
<text text-anchor="middle" x="387" y="-90" font-family="Helvetica,sans-Serif" font-size="10.00">&lt; my_pointer_size &gt;</text>
</a>
</g>
<!-- Node6&#45;&gt;Node2 -->
<g id="edge56" class="edge"><title>Node6&#45;&gt;Node2</title>
<path fill="none" stroke="#9a32cd" stroke-dasharray="5,2" d="M454.866,-77.3238C457.323,-75.9594 459.711,-74.5191 462,-73 471.965,-66.388 469.769,-59.1927 480,-53 561.243,-3.82245 592.032,-0 687,-0 687,-0 687,-0 3114,-0 3189.63,-0 3321.01,-224.671 3357.41,-289.615"/>
<polygon fill="#9a32cd" stroke="#9a32cd" points="453.072,-74.3087 445.72,-81.9377 456.225,-80.5585 453.072,-74.3087"/>
<text text-anchor="middle" x="1850" y="-17" font-family="Helvetica,sans-Serif" font-size="10.00"> m_blocks2prefetch</text>
<text text-anchor="middle" x="1850" y="-4" font-family="Helvetica,sans-Serif" font-size="10.00">m_alloc_count</text>
</g>
<!-- Node6&#45;&gt;Node5 -->
<g id="edge14" class="edge"><title>Node6&#45;&gt;Node5</title>
<path fill="none" stroke="#9a32cd" stroke-dasharray="5,2" d="M459.763,-104.212C503.371,-107.5 559.902,-112.052 610,-117 617.501,-117.741 625.404,-118.588 633.176,-119.46"/>
<polygon fill="#9a32cd" stroke="#9a32cd" points="459.767,-100.703 449.534,-103.446 459.244,-107.683 459.767,-100.703"/>
<text text-anchor="middle" x="545" y="-121" font-family="Helvetica,sans-Serif" font-size="10.00"> free_blocks_size</text>
</g>
<!-- Node15 -->
<g id="node34" class="node"><title>Node15</title>
<a xlink:href="classstxxl_1_1atomic__counted__object.html" target="_top" xlink:title="Provides reference counting abilities for use with counting_ptr with mutex locking. ">
<polygon fill="none" stroke="black" points="629,-282 629,-316 745,-316 745,-282 629,-282"/>
<text text-anchor="start" x="637" y="-303" font-family="Helvetica,sans-Serif" font-size="10.00">stxxl::atomic_counted</text>
<text text-anchor="middle" x="687" y="-290" font-family="Helvetica,sans-Serif" font-size="10.00">_object</text>
</a>
</g>
<!-- Node6&#45;&gt;Node15 -->
<g id="edge46" class="edge"><title>Node6&#45;&gt;Node15</title>
<path fill="none" stroke="#9a32cd" stroke-dasharray="5,2" d="M437.35,-120.187C495.342,-145.46 585.759,-187.822 610,-216 625.95,-234.54 612.056,-249.455 628,-268 632.677,-273.44 638.549,-278.063 644.763,-281.946"/>
<polygon fill="#9a32cd" stroke="#9a32cd" points="438.551,-116.893 427.984,-116.131 435.769,-123.316 438.551,-116.893"/>
<text text-anchor="middle" x="545" y="-220" font-family="Helvetica,sans-Serif" font-size="10.00"> m_reference_count</text>
</g>
<!-- Node7 -->
<g id="node14" class="node"><title>Node7</title>
<a xlink:href="structstxxl_1_1choose__int__types.html" target="_top" xlink:title="stxxl::choose_int_types\l\&lt; PtrSize \&gt;">
<polygon fill="none" stroke="black" points="19.5,-82 19.5,-116 144.5,-116 144.5,-82 19.5,-82"/>
<text text-anchor="start" x="27.5" y="-103" font-family="Helvetica,sans-Serif" font-size="10.00">stxxl::choose_int_types</text>
<text text-anchor="middle" x="82" y="-90" font-family="Helvetica,sans-Serif" font-size="10.00">&lt; PtrSize &gt;</text>
</a>
</g>
<!-- Node7&#45;&gt;Node6 -->
<g id="edge16" class="edge"><title>Node7&#45;&gt;Node6</title>
<path fill="none" stroke="orange" stroke-dasharray="5,2" d="M154.915,-99C206.539,-99 275.067,-99 324.255,-99"/>
<polygon fill="orange" stroke="orange" points="154.826,-95.5001 144.826,-99 154.826,-102.5 154.826,-95.5001"/>
<text text-anchor="middle" x="238" y="-103" font-family="Helvetica,sans-Serif" font-size="10.00"> &lt; my_pointer_size &gt;</text>
</g>
<!-- Node8 -->
<g id="node16" class="node"><title>Node8</title>
<a xlink:href="structstxxl_1_1compat__hash__map.html" target="_top" xlink:title="stxxl::compat_hash\l_map\&lt; bid_type, busy\l_entry, bid_hash \&gt;">
<polygon fill="none" stroke="black" points="328,-16.5 328,-63.5 446,-63.5 446,-16.5 328,-16.5"/>
<text text-anchor="start" x="336" y="-50.5" font-family="Helvetica,sans-Serif" font-size="10.00">stxxl::compat_hash</text>
<text text-anchor="start" x="336" y="-37.5" font-family="Helvetica,sans-Serif" font-size="10.00">_map&lt; bid_type, busy</text>
<text text-anchor="middle" x="387" y="-24.5" font-family="Helvetica,sans-Serif" font-size="10.00">_entry, bid_hash &gt;</text>
</a>
</g>
<!-- Node8&#45;&gt;Node5 -->
<g id="edge18" class="edge"><title>Node8&#45;&gt;Node5</title>
<path fill="none" stroke="#9a32cd" stroke-dasharray="5,2" d="M456.115,-50.9176C500.743,-59.0042 559.659,-71.6378 610,-89 625.423,-94.3193 641.808,-101.899 655.482,-108.814"/>
<polygon fill="#9a32cd" stroke="#9a32cd" points="456.703,-47.4673 446.244,-49.1608 455.476,-54.359 456.703,-47.4673"/>
<text text-anchor="middle" x="545" y="-93" font-family="Helvetica,sans-Serif" font-size="10.00"> busy_blocks</text>
</g>
<!-- Node9 -->
<g id="node18" class="node"><title>Node9</title>
<a xlink:href="structstxxl_1_1compat__hash__map.html" target="_top" xlink:title="stxxl::compat_hash\l_map\&lt; KeyType, MappedType,\l HashType \&gt;">
<polygon fill="none" stroke="black" points="0,-16.5 0,-63.5 164,-63.5 164,-16.5 0,-16.5"/>
<text text-anchor="start" x="8" y="-50.5" font-family="Helvetica,sans-Serif" font-size="10.00">stxxl::compat_hash</text>
<text text-anchor="start" x="8" y="-37.5" font-family="Helvetica,sans-Serif" font-size="10.00">_map&lt; KeyType, MappedType,</text>
<text text-anchor="middle" x="82" y="-24.5" font-family="Helvetica,sans-Serif" font-size="10.00"> HashType &gt;</text>
</a>
</g>
<!-- Node9&#45;&gt;Node8 -->
<g id="edge20" class="edge"><title>Node9&#45;&gt;Node8</title>
<path fill="none" stroke="orange" stroke-dasharray="5,2" d="M174.295,-40C224.199,-40 284.348,-40 327.932,-40"/>
<polygon fill="orange" stroke="orange" points="174.136,-36.5001 164.136,-40 174.136,-43.5001 174.136,-36.5001"/>
<text text-anchor="start" x="182.5" y="-57" font-family="Helvetica,sans-Serif" font-size="10.00"> &lt; bid_type, busy_entry,</text>
<text text-anchor="middle" x="238" y="-44" font-family="Helvetica,sans-Serif" font-size="10.00"> bid_hash &gt;</text>
</g>
<!-- Node10&#45;&gt;Node4 -->
<g id="edge22" class="edge"><title>Node10&#45;&gt;Node4</title>
<path fill="none" stroke="#9a32cd" stroke-dasharray="5,2" d="M603.733,-248.685C662.599,-242.133 755.757,-231.156 836,-219 841.985,-218.093 848.217,-217.085 854.434,-216.036"/>
<polygon fill="#9a32cd" stroke="#9a32cd" points="603.065,-245.238 593.511,-249.817 603.835,-252.195 603.065,-245.238"/>
<text text-anchor="middle" x="687" y="-249" font-family="Helvetica,sans-Serif" font-size="10.00"> w_pool</text>
</g>
<!-- Node11 -->
<g id="node23" class="node"><title>Node11</title>
<a xlink:href="classstxxl_1_1block__manager.html" target="_top" xlink:title="Block manager class. ">
<polygon fill="none" stroke="black" points="1277,-372.5 1277,-393.5 1391,-393.5 1391,-372.5 1277,-372.5"/>
<text text-anchor="middle" x="1334" y="-380.5" font-family="Helvetica,sans-Serif" font-size="10.00">stxxl::block_manager</text>
</a>
</g>
<!-- Node11&#45;&gt;Node2 -->
<g id="edge26" class="edge"><title>Node11&#45;&gt;Node2</title>
<path fill="none" stroke="#9a32cd" stroke-dasharray="5,2" d="M1401.12,-383C1439.7,-383 1489.08,-383 1533,-383 1533,-383 1533,-383 3114,-383 3195.41,-383 3285.55,-346.463 3333.19,-324.056"/>
<polygon fill="#9a32cd" stroke="#9a32cd" points="1401.04,-379.5 1391.04,-383 1401.04,-386.5 1401.04,-379.5"/>
<text text-anchor="middle" x="2364" y="-387" font-family="Helvetica,sans-Serif" font-size="10.00"> m_bm</text>
</g>
<!-- Node12&#45;&gt;Node11 -->
<g id="edge28" class="edge"><title>Node12&#45;&gt;Node11</title>
<path fill="none" stroke="midnightblue" d="M756.36,-499.193C814.724,-494.507 900.226,-486.142 974,-473 1094.67,-451.505 1234.81,-412.252 1298.84,-393.507"/>
<polygon fill="midnightblue" stroke="midnightblue" points="755.844,-495.723 746.15,-499.997 756.394,-502.701 755.844,-495.723"/>
</g>
<!-- Node13&#45;&gt;Node12 -->
<g id="edge32" class="edge"><title>Node13&#45;&gt;Node12</title>
<path fill="none" stroke="orange" stroke-dasharray="5,2" d="M471.664,-504C521.506,-504 583.309,-504 627.903,-504"/>
<polygon fill="orange" stroke="orange" points="471.543,-500.5 461.543,-504 471.543,-507.5 471.543,-500.5"/>
<text text-anchor="middle" x="545" y="-508" font-family="Helvetica,sans-Serif" font-size="10.00"> &lt; block_manager &gt;</text>
</g>
<!-- Node14&#45;&gt;Node11 -->
<g id="edge36" class="edge"><title>Node14&#45;&gt;Node11</title>
<path fill="none" stroke="#9a32cd" stroke-dasharray="5,2" d="M952.23,-323.151C1000.35,-328.537 1085.49,-338.606 1158,-350 1199.92,-356.587 1247.17,-365.532 1282.16,-372.447"/>
<polygon fill="#9a32cd" stroke="#9a32cd" points="952.581,-319.668 942.255,-322.042 951.807,-326.625 952.581,-319.668"/>
<text text-anchor="middle" x="1104" y="-354" font-family="Helvetica,sans-Serif" font-size="10.00"> disk_files</text>
</g>
<!-- Node14&#45;&gt;Node17 -->
<g id="edge52" class="edge"><title>Node14&#45;&gt;Node17</title>
<path fill="none" stroke="#9a32cd" stroke-dasharray="5,2" d="M952.082,-330.361C975.284,-337.426 1005.47,-346.875 1032,-356 1046.9,-361.124 1063.36,-367.261 1076.78,-372.388"/>
<polygon fill="#9a32cd" stroke="#9a32cd" points="952.861,-326.939 942.276,-327.389 950.831,-333.639 952.861,-326.939"/>
<text text-anchor="middle" x="1012" y="-360" font-family="Helvetica,sans-Serif" font-size="10.00"> storage</text>
</g>
<!-- Node24 -->
<g id="node58" class="node"><title>Node24</title>
<a xlink:href="structstxxl_1_1BID.html" target="_top" xlink:title="stxxl::BID\&lt; raw_size \&gt;">
<polygon fill="none" stroke="black" points="1274.5,-237.5 1274.5,-258.5 1393.5,-258.5 1393.5,-237.5 1274.5,-237.5"/>
<text text-anchor="middle" x="1334" y="-245.5" font-family="Helvetica,sans-Serif" font-size="10.00">stxxl::BID&lt; raw_size &gt;</text>
</a>
</g>
<!-- Node14&#45;&gt;Node24 -->
<g id="edge72" class="edge"><title>Node14&#45;&gt;Node24</title>
<path fill="none" stroke="#9a32cd" stroke-dasharray="5,2" d="M941.745,-303.344C968.524,-289.123 1010.68,-269.031 1050,-260 1125.99,-242.545 1216.36,-242.065 1274.42,-244.255"/>
<polygon fill="#9a32cd" stroke="#9a32cd" points="939.739,-300.45 932.609,-308.287 943.07,-306.607 939.739,-300.45"/>
<text text-anchor="middle" x="1104" y="-264" font-family="Helvetica,sans-Serif" font-size="10.00"> storage</text>
</g>
<!-- Node25 -->
<g id="node61" class="node"><title>Node25</title>
<a xlink:href="structstxxl_1_1BID.html" target="_top" xlink:title="Block identifier class. ">
<polygon fill="none" stroke="black" points="1055,-282.5 1055,-303.5 1153,-303.5 1153,-282.5 1055,-282.5"/>
<text text-anchor="middle" x="1104" y="-290.5" font-family="Helvetica,sans-Serif" font-size="10.00">stxxl::BID&lt; Size &gt;</text>
</a>
</g>
<!-- Node14&#45;&gt;Node25 -->
<g id="edge76" class="edge"><title>Node14&#45;&gt;Node25</title>
<path fill="none" stroke="#9a32cd" stroke-dasharray="5,2" d="M951.475,-305.138C964.162,-301.075 978.531,-297.148 992,-295 1012.45,-291.738 1035.27,-290.843 1054.95,-290.912"/>
<polygon fill="#9a32cd" stroke="#9a32cd" points="950.089,-301.911 941.71,-308.395 952.303,-308.551 950.089,-301.911"/>
<text text-anchor="middle" x="1012" y="-299" font-family="Helvetica,sans-Serif" font-size="10.00"> storage</text>
</g>
<!-- Node15&#45;&gt;Node14 -->
<g id="edge40" class="edge"><title>Node15&#45;&gt;Node14</title>
<path fill="none" stroke="#9a32cd" stroke-dasharray="5,2" d="M755.187,-305.008C798.988,-308.867 853.56,-313.675 885.991,-316.532"/>
<polygon fill="#9a32cd" stroke="#9a32cd" points="755.432,-301.516 745.163,-304.125 754.818,-308.489 755.432,-301.516"/>
<text text-anchor="middle" x="800" y="-315" font-family="Helvetica,sans-Serif" font-size="10.00"> m_request_ref</text>
</g>
<!-- Node16&#45;&gt;Node15 -->
<g id="edge42" class="edge"><title>Node16&#45;&gt;Node15</title>
<path fill="none" stroke="#9a32cd" stroke-dasharray="5,2" d="M432.024,-369.375C447.255,-365.114 464.363,-360.339 480,-356 530.285,-342.048 587.479,-326.308 628.986,-314.91"/>
<polygon fill="#9a32cd" stroke="#9a32cd" points="431.007,-366.025 422.32,-372.091 432.893,-372.766 431.007,-366.025"/>
<text text-anchor="middle" x="545" y="-360" font-family="Helvetica,sans-Serif" font-size="10.00"> m_reference_count_mutex</text>
</g>
<!-- Node16&#45;&gt;Node17 -->
<g id="edge54" class="edge"><title>Node16&#45;&gt;Node17</title>
<path fill="none" stroke="#9a32cd" stroke-dasharray="5,2" d="M432.158,-382.063C558.382,-382.239 914.505,-382.736 1050.4,-382.925"/>
<polygon fill="#9a32cd" stroke="#9a32cd" points="432.073,-378.563 422.068,-382.049 432.063,-385.563 432.073,-378.563"/>
<text text-anchor="middle" x="800" y="-386" font-family="Helvetica,sans-Serif" font-size="10.00"> mutex</text>
</g>
<!-- Node17&#45;&gt;Node11 -->
<g id="edge48" class="edge"><title>Node17&#45;&gt;Node11</title>
<path fill="none" stroke="#9a32cd" stroke-dasharray="5,2" d="M1167.95,-383C1202.04,-383 1243.63,-383 1276.66,-383"/>
<polygon fill="#9a32cd" stroke="#9a32cd" points="1167.63,-379.5 1157.63,-383 1167.63,-386.5 1167.63,-379.5"/>
<text text-anchor="middle" x="1213" y="-387" font-family="Helvetica,sans-Serif" font-size="10.00"> disk_allocators</text>
</g>
<!-- Node18 -->
<g id="node46" class="node"><title>Node18</title>
<a xlink:href="classstxxl_1_1typed__block.html" target="_top" xlink:title="Block containing elements of fixed length. ">
<polygon fill="none" stroke="black" points="3050,-165.5 3050,-212.5 3178,-212.5 3178,-165.5 3050,-165.5"/>
<text text-anchor="start" x="3058" y="-199.5" font-family="Helvetica,sans-Serif" font-size="10.00">stxxl::typed_block</text>
<text text-anchor="start" x="3058" y="-186.5" font-family="Helvetica,sans-Serif" font-size="10.00">&lt; RawSize, Type, NRef,</text>
<text text-anchor="middle" x="3114" y="-173.5" font-family="Helvetica,sans-Serif" font-size="10.00"> MetaInfoType &gt;</text>
</a>
</g>
<!-- Node18&#45;&gt;Node1 -->
<g id="edge104" class="edge"><title>Node18&#45;&gt;Node1</title>
<path fill="none" stroke="#9a32cd" stroke-dasharray="5,2" d="M3188,-170.861C3284.17,-147.285 3451.4,-106.291 3549.66,-82.2041"/>
<polygon fill="#9a32cd" stroke="#9a32cd" points="3186.94,-167.516 3178.06,-173.297 3188.6,-174.315 3186.94,-167.516"/>
<text text-anchor="middle" x="3367" y="-151" font-family="Helvetica,sans-Serif" font-size="10.00"> m_current_block</text>
</g>
<!-- Node18&#45;&gt;Node2 -->
<g id="edge58" class="edge"><title>Node18&#45;&gt;Node2</title>
<path fill="none" stroke="#9a32cd" stroke-dasharray="5,2" d="M3173.75,-216.867C3222.37,-239.545 3289.43,-270.822 3330.42,-289.938"/>
<polygon fill="#9a32cd" stroke="#9a32cd" points="3175.13,-213.65 3164.59,-212.595 3172.17,-219.994 3175.13,-213.65"/>
<text text-anchor="middle" x="3231" y="-275" font-family="Helvetica,sans-Serif" font-size="10.00"> m_front_block</text>
<text text-anchor="middle" x="3231" y="-262" font-family="Helvetica,sans-Serif" font-size="10.00">m_back_block</text>
</g>
<!-- Node19 -->
<g id="node48" class="node"><title>Node19</title>
<a xlink:href="classstxxl_1_1mng__local_1_1expand__struct.html" target="_top" xlink:title="stxxl::mng_local::expand\l_struct\&lt; mng_local::block\l_w_info\&lt; Type, RawSize, NRef,\l MetaInfoType \&gt;, RawSize \&gt;">
<polygon fill="none" stroke="black" points="2848,-159 2848,-219 3012,-219 3012,-159 2848,-159"/>
<text text-anchor="start" x="2856" y="-206" font-family="Helvetica,sans-Serif" font-size="10.00">stxxl::mng_local::expand</text>
<text text-anchor="start" x="2856" y="-193" font-family="Helvetica,sans-Serif" font-size="10.00">_struct&lt; mng_local::block</text>
<text text-anchor="start" x="2856" y="-180" font-family="Helvetica,sans-Serif" font-size="10.00">_w_info&lt; Type, RawSize, NRef,</text>
<text text-anchor="middle" x="2930" y="-167" font-family="Helvetica,sans-Serif" font-size="10.00"> MetaInfoType &gt;, RawSize &gt;</text>
</a>
</g>
<!-- Node19&#45;&gt;Node18 -->
<g id="edge60" class="edge"><title>Node19&#45;&gt;Node18</title>
<path fill="none" stroke="midnightblue" d="M3022.16,-189C3031.5,-189 3040.84,-189 3049.78,-189"/>
<polygon fill="midnightblue" stroke="midnightblue" points="3022.04,-185.5 3012.04,-189 3022.04,-192.5 3022.04,-185.5"/>
</g>
<!-- Node20 -->
<g id="node50" class="node"><title>Node20</title>
<a xlink:href="classstxxl_1_1mng__local_1_1add__filler.html" target="_top" xlink:title="stxxl::mng_local::add\l_filler\&lt; mng_local::block\l_w_info\&lt; Type, RawSize,\l NRef, MetaInfoType \&gt;, RawSize\l&#45;sizeof(mng_local::block_w_info\l\&lt; Type, RawSize, NRef, MetaInfoType \&gt;)\&gt;">
<polygon fill="none" stroke="black" points="2476.5,-99 2476.5,-185 2691.5,-185 2691.5,-99 2476.5,-99"/>
<text text-anchor="start" x="2484.5" y="-172" font-family="Helvetica,sans-Serif" font-size="10.00">stxxl::mng_local::add</text>
<text text-anchor="start" x="2484.5" y="-159" font-family="Helvetica,sans-Serif" font-size="10.00">_filler&lt; mng_local::block</text>
<text text-anchor="start" x="2484.5" y="-146" font-family="Helvetica,sans-Serif" font-size="10.00">_w_info&lt; Type, RawSize,</text>
<text text-anchor="start" x="2484.5" y="-133" font-family="Helvetica,sans-Serif" font-size="10.00"> NRef, MetaInfoType &gt;, RawSize</text>
<text text-anchor="start" x="2484.5" y="-120" font-family="Helvetica,sans-Serif" font-size="10.00">&#45;sizeof(mng_local::block_w_info</text>
<text text-anchor="middle" x="2584" y="-107" font-family="Helvetica,sans-Serif" font-size="10.00">&lt; Type, RawSize, NRef, MetaInfoType &gt;)&gt;</text>
</a>
</g>
<!-- Node20&#45;&gt;Node19 -->
<g id="edge62" class="edge"><title>Node20&#45;&gt;Node19</title>
<path fill="none" stroke="midnightblue" d="M2701.73,-157.992C2749.76,-164.516 2804.14,-171.904 2847.78,-177.831"/>
<polygon fill="midnightblue" stroke="midnightblue" points="2701.96,-154.491 2691.58,-156.613 2701.02,-161.428 2701.96,-154.491"/>
</g>
<!-- Node21 -->
<g id="node52" class="node"><title>Node21</title>
<a xlink:href="classstxxl_1_1mng__local_1_1block__w__info.html" target="_top" xlink:title="stxxl::mng_local::block\l_w_info\&lt; Type, RawSize,\l NRef, MetaInfoType \&gt;">
<polygon fill="none" stroke="black" points="2296.5,-43.5 2296.5,-90.5 2431.5,-90.5 2431.5,-43.5 2296.5,-43.5"/>
<text text-anchor="start" x="2304.5" y="-77.5" font-family="Helvetica,sans-Serif" font-size="10.00">stxxl::mng_local::block</text>
<text text-anchor="start" x="2304.5" y="-64.5" font-family="Helvetica,sans-Serif" font-size="10.00">_w_info&lt; Type, RawSize,</text>
<text text-anchor="middle" x="2364" y="-51.5" font-family="Helvetica,sans-Serif" font-size="10.00"> NRef, MetaInfoType &gt;</text>
</a>
</g>
<!-- Node21&#45;&gt;Node20 -->
<g id="edge64" class="edge"><title>Node21&#45;&gt;Node20</title>
<path fill="none" stroke="midnightblue" d="M2441.27,-93.3437C2452.56,-97.1904 2464.35,-101.209 2476.1,-105.218"/>
<polygon fill="midnightblue" stroke="midnightblue" points="2442.1,-89.9262 2431.5,-90.0122 2439.84,-96.5518 2442.1,-89.9262"/>
</g>
<!-- Node22 -->
<g id="node54" class="node"><title>Node22</title>
<a xlink:href="classstxxl_1_1mng__local_1_1block__w__bids.html" target="_top" xlink:title="stxxl::mng_local::block\l_w_bids\&lt; Type,((RawSize\l&#45;sizeof(BID\&lt; RawSize \&gt;)*NBids\l&#45;sizeof(MetaInfoType))/sizeof\l(Type)), RawSize, NBids \&gt;">
<polygon fill="none" stroke="black" points="1768,-67.5 1768,-140.5 1932,-140.5 1932,-67.5 1768,-67.5"/>
<text text-anchor="start" x="1776" y="-127.5" font-family="Helvetica,sans-Serif" font-size="10.00">stxxl::mng_local::block</text>
<text text-anchor="start" x="1776" y="-114.5" font-family="Helvetica,sans-Serif" font-size="10.00">_w_bids&lt; Type,((RawSize</text>
<text text-anchor="start" x="1776" y="-101.5" font-family="Helvetica,sans-Serif" font-size="10.00">&#45;sizeof(BID&lt; RawSize &gt;)*NBids</text>
<text text-anchor="start" x="1776" y="-88.5" font-family="Helvetica,sans-Serif" font-size="10.00">&#45;sizeof(MetaInfoType))/sizeof</text>
<text text-anchor="middle" x="1850" y="-75.5" font-family="Helvetica,sans-Serif" font-size="10.00">(Type)), RawSize, NBids &gt;</text>
</a>
</g>
<!-- Node22&#45;&gt;Node21 -->
<g id="edge66" class="edge"><title>Node22&#45;&gt;Node21</title>
<path fill="none" stroke="midnightblue" d="M1942.37,-106.533C2028.19,-107.565 2159.34,-105.77 2272,-90 2279.99,-88.8817 2288.29,-87.3489 2296.49,-85.6011"/>
<polygon fill="midnightblue" stroke="midnightblue" points="1942.18,-103.03 1932.13,-106.394 1942.08,-110.03 1942.18,-103.03"/>
</g>
<!-- Node27 -->
<g id="node68" class="node"><title>Node27</title>
<a xlink:href="classstxxl_1_1mng__local_1_1block__w__info.html" target="_top" xlink:title="Contains per block information for stxxl::typed_block , not intended for direct use. ">
<polygon fill="none" stroke="black" points="1997.5,-28.5 1997.5,-75.5 2132.5,-75.5 2132.5,-28.5 1997.5,-28.5"/>
<text text-anchor="start" x="2005.5" y="-62.5" font-family="Helvetica,sans-Serif" font-size="10.00">stxxl::mng_local::block</text>
<text text-anchor="start" x="2005.5" y="-49.5" font-family="Helvetica,sans-Serif" font-size="10.00">_w_info&lt; Type, RawSize,</text>
<text text-anchor="middle" x="2065" y="-36.5" font-family="Helvetica,sans-Serif" font-size="10.00"> NBids, MetaInfoType &gt;</text>
</a>
</g>
<!-- Node22&#45;&gt;Node27 -->
<g id="edge86" class="edge"><title>Node22&#45;&gt;Node27</title>
<path fill="none" stroke="midnightblue" d="M1942.1,-81.7258C1960.58,-77.2554 1979.68,-72.6349 1997.16,-68.4078"/>
<polygon fill="midnightblue" stroke="midnightblue" points="1941.1,-78.3656 1932.2,-84.1184 1942.75,-85.1695 1941.1,-78.3656"/>
</g>
<!-- Node23 -->
<g id="node56" class="node"><title>Node23</title>
<a xlink:href="classstxxl_1_1mng__local_1_1element__block.html" target="_top" xlink:title="Contains data elements for stxxl::typed_block , not intended for direct use. ">
<polygon fill="none" stroke="black" points="1268,-124 1268,-158 1400,-158 1400,-124 1268,-124"/>
<text text-anchor="start" x="1276" y="-145" font-family="Helvetica,sans-Serif" font-size="10.00">stxxl::mng_local::element</text>
<text text-anchor="middle" x="1334" y="-132" font-family="Helvetica,sans-Serif" font-size="10.00">_block&lt; Type, Size &gt;</text>
</a>
</g>
<!-- Node23&#45;&gt;Node22 -->
<g id="edge68" class="edge"><title>Node23&#45;&gt;Node22</title>
<path fill="none" stroke="midnightblue" d="M1386.24,-161.28C1396.61,-164.487 1407.54,-167.302 1418,-169 1563.65,-192.636 1608.53,-210.938 1750,-169 1769.65,-163.174 1789.06,-152.133 1805.47,-140.782"/>
<polygon fill="midnightblue" stroke="midnightblue" points="1387.09,-157.875 1376.5,-158.109 1384.92,-164.531 1387.09,-157.875"/>
</g>
<!-- Node26 -->
<g id="node64" class="node"><title>Node26</title>
<a xlink:href="classstxxl_1_1mng__local_1_1block__w__bids.html" target="_top" xlink:title="Contains BID references for stxxl::typed_block , not intended for direct use. ">
<polygon fill="none" stroke="black" points="1452,-98.5 1452,-145.5 1614,-145.5 1614,-98.5 1452,-98.5"/>
<text text-anchor="start" x="1460" y="-132.5" font-family="Helvetica,sans-Serif" font-size="10.00">stxxl::mng_local::block</text>
<text text-anchor="start" x="1460" y="-119.5" font-family="Helvetica,sans-Serif" font-size="10.00">_w_bids&lt; Type, Size, RawSize,</text>
<text text-anchor="middle" x="1533" y="-106.5" font-family="Helvetica,sans-Serif" font-size="10.00"> NBids &gt;</text>
</a>
</g>
<!-- Node23&#45;&gt;Node26 -->
<g id="edge80" class="edge"><title>Node23&#45;&gt;Node26</title>
<path fill="none" stroke="midnightblue" d="M1410.48,-133.698C1424.01,-132.406 1438.14,-131.057 1451.79,-129.753"/>
<polygon fill="midnightblue" stroke="midnightblue" points="1409.89,-130.239 1400.26,-134.673 1410.55,-137.207 1409.89,-130.239"/>
</g>
<!-- Node24&#45;&gt;Node22 -->
<g id="edge70" class="edge"><title>Node24&#45;&gt;Node22</title>
<path fill="none" stroke="#9a32cd" stroke-dasharray="5,2" d="M1403.9,-243.958C1505.91,-237.215 1689.95,-221.611 1750,-194 1776.74,-181.706 1801.38,-159.712 1819.51,-140.544"/>
<polygon fill="#9a32cd" stroke="#9a32cd" points="1403.44,-240.481 1393.69,-244.622 1403.9,-247.466 1403.44,-240.481"/>
<text text-anchor="middle" x="1533" y="-244" font-family="Helvetica,sans-Serif" font-size="10.00"> ref</text>
</g>
<!-- Node24&#45;&gt;Node26 -->
<g id="edge82" class="edge"><title>Node24&#45;&gt;Node26</title>
<path fill="none" stroke="#9a32cd" stroke-dasharray="5,2" d="M1359.18,-232.059C1393.69,-210.206 1455.95,-170.785 1495.84,-145.531"/>
<polygon fill="#9a32cd" stroke="#9a32cd" points="1357.2,-229.167 1350.62,-237.474 1360.95,-235.082 1357.2,-229.167"/>
<text text-anchor="middle" x="1426" y="-196" font-family="Helvetica,sans-Serif" font-size="10.00"> ref</text>
</g>
<!-- Node25&#45;&gt;Node24 -->
<g id="edge74" class="edge"><title>Node25&#45;&gt;Node24</title>
<path fill="none" stroke="orange" stroke-dasharray="5,2" d="M1162.95,-281.837C1189.55,-276.762 1221.37,-270.642 1250,-265 1260.51,-262.929 1271.75,-260.678 1282.49,-258.512"/>
<polygon fill="orange" stroke="orange" points="1162.19,-278.418 1153.02,-283.727 1163.5,-285.294 1162.19,-278.418"/>
<text text-anchor="middle" x="1213" y="-282" font-family="Helvetica,sans-Serif" font-size="10.00"> &lt; raw_size &gt;</text>
</g>
<!-- Node26&#45;&gt;Node22 -->
<g id="edge78" class="edge"><title>Node26&#45;&gt;Node22</title>
<path fill="none" stroke="orange" stroke-dasharray="5,2" d="M1624.26,-104.783C1626.87,-104.493 1629.45,-104.23 1632,-104 1676.76,-99.9638 1726.9,-99.6721 1767.8,-100.52"/>
<polygon fill="orange" stroke="orange" points="1623.64,-101.333 1614.15,-106.035 1624.5,-108.28 1623.64,-101.333"/>
<text text-anchor="start" x="1632" y="-160" font-family="Helvetica,sans-Serif" font-size="10.00"> &lt; Type,((RawSize&#45;sizeof</text>
<text text-anchor="start" x="1632" y="-147" font-family="Helvetica,sans-Serif" font-size="10.00">(BID&lt; RawSize &gt;)*NBids</text>
<text text-anchor="start" x="1632" y="-134" font-family="Helvetica,sans-Serif" font-size="10.00">&#45;sizeof(MetaInfoType))</text>
<text text-anchor="start" x="1632" y="-121" font-family="Helvetica,sans-Serif" font-size="10.00">/sizeof(Type)), RawSize,</text>
<text text-anchor="middle" x="1691" y="-108" font-family="Helvetica,sans-Serif" font-size="10.00"> NBids &gt;</text>
</g>
<!-- Node27&#45;&gt;Node21 -->
<g id="edge84" class="edge"><title>Node27&#45;&gt;Node21</title>
<path fill="none" stroke="orange" stroke-dasharray="5,2" d="M2143.11,-55.9185C2190.69,-58.3057 2250.89,-61.3256 2296.42,-63.6097"/>
<polygon fill="orange" stroke="orange" points="2143.01,-52.4093 2132.85,-55.4037 2142.66,-59.4005 2143.01,-52.4093"/>
<text text-anchor="start" x="2156.5" y="-80" font-family="Helvetica,sans-Serif" font-size="10.00"> &lt; Type, RawSize, NRef,</text>
<text text-anchor="middle" x="2214" y="-67" font-family="Helvetica,sans-Serif" font-size="10.00"> MetaInfoType &gt;</text>
</g>
<!-- Node28 -->
<g id="node71" class="node"><title>Node28</title>
<a xlink:href="classstxxl_1_1mng__local_1_1filler__struct.html" target="_top" xlink:title="stxxl::mng_local::filler\l_struct\&lt; FillSize \&gt;">
<polygon fill="none" stroke="black" points="1793,-240 1793,-274 1907,-274 1907,-240 1793,-240"/>
<text text-anchor="start" x="1801" y="-261" font-family="Helvetica,sans-Serif" font-size="10.00">stxxl::mng_local::filler</text>
<text text-anchor="middle" x="1850" y="-248" font-family="Helvetica,sans-Serif" font-size="10.00">_struct&lt; FillSize &gt;</text>
</a>
</g>
<!-- Node28&#45;&gt;Node20 -->
<g id="edge88" class="edge"><title>Node28&#45;&gt;Node20</title>
<path fill="none" stroke="#9a32cd" stroke-dasharray="5,2" d="M1904.23,-236.497C1930.57,-226.801 1962.78,-215.333 1992,-206 2064.11,-182.969 2081.44,-173.104 2156,-160 2214.82,-149.662 2230.36,-153.035 2290,-150 2351.7,-146.86 2420.76,-144.901 2476.43,-143.708"/>
<polygon fill="#9a32cd" stroke="#9a32cd" points="1902.97,-233.23 1894.81,-239.981 1905.4,-239.796 1902.97,-233.23"/>
<text text-anchor="middle" x="2214" y="-164" font-family="Helvetica,sans-Serif" font-size="10.00"> filler</text>
</g>
<!-- Node30 -->
<g id="node75" class="node"><title>Node30</title>
<a xlink:href="classstxxl_1_1mng__local_1_1add__filler.html" target="_top" xlink:title="Contains per block filler for stxxl::typed_block , not intended for direct use. ">
<polygon fill="none" stroke="black" points="1992,-215 1992,-249 2138,-249 2138,-215 1992,-215"/>
<text text-anchor="start" x="2000" y="-236" font-family="Helvetica,sans-Serif" font-size="10.00">stxxl::mng_local::add</text>
<text text-anchor="middle" x="2065" y="-223" font-family="Helvetica,sans-Serif" font-size="10.00">_filler&lt; BaseType, FillSize &gt;</text>
</a>
</g>
<!-- Node28&#45;&gt;Node30 -->
<g id="edge94" class="edge"><title>Node28&#45;&gt;Node30</title>
<path fill="none" stroke="#9a32cd" stroke-dasharray="5,2" d="M1917.02,-249.207C1940.77,-246.445 1967.61,-243.325 1991.84,-240.507"/>
<polygon fill="#9a32cd" stroke="#9a32cd" points="1916.58,-245.734 1907.05,-250.366 1917.39,-252.688 1916.58,-245.734"/>
<text text-anchor="middle" x="1962" y="-249" font-family="Helvetica,sans-Serif" font-size="10.00"> filler</text>
</g>
<!-- Node32 -->
<g id="node80" class="node"><title>Node32</title>
<a xlink:href="classstxxl_1_1mng__local_1_1add__filler.html" target="_top" xlink:title="stxxl::mng_local::add\l_filler\&lt; Type, RawSize\l&#45;sizeof(Type)\&gt;">
<polygon fill="none" stroke="black" points="2303,-261.5 2303,-308.5 2425,-308.5 2425,-261.5 2303,-261.5"/>
<text text-anchor="start" x="2311" y="-295.5" font-family="Helvetica,sans-Serif" font-size="10.00">stxxl::mng_local::add</text>
<text text-anchor="start" x="2311" y="-282.5" font-family="Helvetica,sans-Serif" font-size="10.00">_filler&lt; Type, RawSize</text>
<text text-anchor="middle" x="2364" y="-269.5" font-family="Helvetica,sans-Serif" font-size="10.00">&#45;sizeof(Type)&gt;</text>
</a>
</g>
<!-- Node28&#45;&gt;Node32 -->
<g id="edge100" class="edge"><title>Node28&#45;&gt;Node32</title>
<path fill="none" stroke="#9a32cd" stroke-dasharray="5,2" d="M1917.52,-260.678C2018.2,-266.162 2206.14,-276.401 2302.93,-281.673"/>
<polygon fill="#9a32cd" stroke="#9a32cd" points="1917.64,-257.18 1907.47,-260.13 1917.26,-264.169 1917.64,-257.18"/>
<text text-anchor="middle" x="2065" y="-276" font-family="Helvetica,sans-Serif" font-size="10.00"> filler</text>
</g>
<!-- Node29 -->
<g id="node73" class="node"><title>Node29</title>
<a xlink:href="classstxxl_1_1mng__local_1_1filler__struct.html" target="_top" xlink:title="stxxl::mng_local::filler\l_struct\&lt; Bytes \&gt;">
<polygon fill="none" stroke="black" points="1476,-264 1476,-298 1590,-298 1590,-264 1476,-264"/>
<text text-anchor="start" x="1484" y="-285" font-family="Helvetica,sans-Serif" font-size="10.00">stxxl::mng_local::filler</text>
<text text-anchor="middle" x="1533" y="-272" font-family="Helvetica,sans-Serif" font-size="10.00">_struct&lt; Bytes &gt;</text>
</a>
</g>
<!-- Node29&#45;&gt;Node28 -->
<g id="edge90" class="edge"><title>Node29&#45;&gt;Node28</title>
<path fill="none" stroke="orange" stroke-dasharray="5,2" d="M1600.08,-275.922C1657.31,-271.588 1738.71,-265.426 1792.88,-261.324"/>
<polygon fill="orange" stroke="orange" points="1599.75,-272.437 1590.04,-276.682 1600.28,-279.417 1599.75,-272.437"/>
<text text-anchor="middle" x="1691" y="-277" font-family="Helvetica,sans-Serif" font-size="10.00"> &lt; FillSize &gt;</text>
</g>
<!-- Node30&#45;&gt;Node20 -->
<g id="edge92" class="edge"><title>Node30&#45;&gt;Node20</title>
<path fill="none" stroke="orange" stroke-dasharray="5,2" d="M2131.65,-212.128C2176.14,-199.533 2236.13,-183.822 2290,-174 2351.24,-162.833 2420.43,-155.066 2476.29,-149.983"/>
<polygon fill="orange" stroke="orange" points="2130.49,-208.82 2121.83,-214.928 2132.41,-215.551 2130.49,-208.82"/>
<text text-anchor="start" x="2290" y="-243" font-family="Helvetica,sans-Serif" font-size="10.00"> &lt; mng_local::block</text>
<text text-anchor="start" x="2290" y="-230" font-family="Helvetica,sans-Serif" font-size="10.00">_w_info&lt; Type, RawSize,</text>
<text text-anchor="start" x="2290" y="-217" font-family="Helvetica,sans-Serif" font-size="10.00"> NRef, MetaInfoType &gt;,</text>
<text text-anchor="start" x="2290" y="-204" font-family="Helvetica,sans-Serif" font-size="10.00"> RawSize&#45;sizeof(mng_local</text>
<text text-anchor="start" x="2290" y="-191" font-family="Helvetica,sans-Serif" font-size="10.00">::block_w_info&lt; Type, RawSize,</text>
<text text-anchor="middle" x="2364" y="-178" font-family="Helvetica,sans-Serif" font-size="10.00"> NRef, MetaInfoType &gt;)&gt;</text>
</g>
<!-- Node30&#45;&gt;Node32 -->
<g id="edge102" class="edge"><title>Node30&#45;&gt;Node32</title>
<path fill="none" stroke="orange" stroke-dasharray="5,2" d="M2148.29,-230.679C2186.45,-231.737 2231.99,-235.361 2272,-245 2287.58,-248.753 2303.84,-254.975 2318.28,-261.406"/>
<polygon fill="orange" stroke="orange" points="2148.32,-227.179 2138.24,-230.455 2148.16,-234.177 2148.32,-227.179"/>
<text text-anchor="start" x="2157" y="-262" font-family="Helvetica,sans-Serif" font-size="10.00"> &lt; Type, RawSize&#45;sizeof</text>
<text text-anchor="middle" x="2214" y="-249" font-family="Helvetica,sans-Serif" font-size="10.00">(Type)&gt;</text>
</g>
<!-- Node31 -->
<g id="node78" class="node"><title>Node31</title>
<a xlink:href="classstxxl_1_1mng__local_1_1expand__struct.html" target="_top" xlink:title="Helper to compute the size of the filler , not intended for direct use. ">
<polygon fill="none" stroke="black" points="2515.5,-220 2515.5,-254 2652.5,-254 2652.5,-220 2515.5,-220"/>
<text text-anchor="start" x="2523.5" y="-241" font-family="Helvetica,sans-Serif" font-size="10.00">stxxl::mng_local::expand</text>
<text text-anchor="middle" x="2584" y="-228" font-family="Helvetica,sans-Serif" font-size="10.00">_struct&lt; Type, RawSize &gt;</text>
</a>
</g>
<!-- Node31&#45;&gt;Node19 -->
<g id="edge96" class="edge"><title>Node31&#45;&gt;Node19</title>
<path fill="none" stroke="orange" stroke-dasharray="5,2" d="M2662.88,-226.057C2718.19,-218.384 2791.96,-208.15 2847.96,-200.381"/>
<polygon fill="orange" stroke="orange" points="2662.2,-222.618 2652.77,-227.459 2663.16,-229.552 2662.2,-222.618"/>
<text text-anchor="start" x="2710.5" y="-261" font-family="Helvetica,sans-Serif" font-size="10.00"> &lt; mng_local::block</text>
<text text-anchor="start" x="2710.5" y="-248" font-family="Helvetica,sans-Serif" font-size="10.00">_w_info&lt; Type, RawSize,</text>
<text text-anchor="start" x="2710.5" y="-235" font-family="Helvetica,sans-Serif" font-size="10.00"> NRef, MetaInfoType &gt;,</text>
<text text-anchor="middle" x="2770" y="-222" font-family="Helvetica,sans-Serif" font-size="10.00"> RawSize &gt;</text>
</g>
<!-- Node32&#45;&gt;Node31 -->
<g id="edge98" class="edge"><title>Node32&#45;&gt;Node31</title>
<path fill="none" stroke="midnightblue" d="M2435.32,-269.44C2460.98,-263.84 2489.87,-257.538 2515.3,-251.988"/>
<polygon fill="midnightblue" stroke="midnightblue" points="2434.31,-266.078 2425.28,-271.629 2435.8,-272.917 2434.31,-266.078"/>
</g>
</g>
</svg>
