<?xml version="1.0" encoding="UTF-8" standalone="no"?>
<!DOCTYPE svg PUBLIC "-//W3C//DTD SVG 1.1//EN"
 "http://www.w3.org/Graphics/SVG/1.1/DTD/svg11.dtd">
<!-- Generated by graphviz version 2.26.3 (20100126.1600)
 -->
<!-- Title: stxxl::loser_tree&lt; RunCursorType, RunCursorCmpType &gt; Pages: 1 -->
<svg width="289pt" height="228pt"
 viewBox="0.00 0.00 289.00 228.00" xmlns="http://www.w3.org/2000/svg" xmlns:xlink="http://www.w3.org/1999/xlink">
<g id="graph1" class="graph" transform="scale(1 1) rotate(0) translate(4 224)">
<title>stxxl::loser_tree&lt; RunCursorType, RunCursorCmpType &gt;</title>
<!-- Node1 -->
<g id="node1" class="node"><title>Node1</title>
<polygon fill="#bfbfbf" stroke="black" points="6.5,-0.5 6.5,-47.5 177.5,-47.5 177.5,-0.5 6.5,-0.5"/>
<text text-anchor="start" x="14.5" y="-34.5" font-family="Helvetica,sans-Serif" font-size="10.00">stxxl::loser_tree&lt;</text>
<text text-anchor="start" x="14.5" y="-21.5" font-family="Helvetica,sans-Serif" font-size="10.00"> RunCursorType, RunCursorCmp</text>
<text text-anchor="middle" x="92" y="-8.5" font-family="Helvetica,sans-Serif" font-size="10.00">Type &gt;</text>
</g>
<!-- Node2 -->
<g id="node2" class="node"><title>Node2</title>
<a xlink:href="classstxxl_1_1noncopyable.html" target="_top" xlink:title="stxxl::noncopyable">
<polygon fill="none" stroke="black" points="0,-105.5 0,-126.5 102,-126.5 102,-105.5 0,-105.5"/>
<text text-anchor="middle" x="51" y="-113.5" font-family="Helvetica,sans-Serif" font-size="10.00">stxxl::noncopyable</text>
</a>
</g>
<!-- Node2&#45;&gt;Node1 -->
<g id="edge2" class="edge"><title>Node2&#45;&gt;Node1</title>
<path fill="none" stroke="#8b1a1a" d="M59.8578,-96.124C66.1793,-81.9391 74.7103,-62.7964 81.3948,-47.797"/>
<polygon fill="#8b1a1a" stroke="#8b1a1a" points="56.577,-94.8877 55.7032,-105.446 62.9708,-97.7371 56.577,-94.8877"/>
</g>
<!-- Node3 -->
<g id="node4" class="node"><title>Node3</title>
<a xlink:href="structstxxl_1_1choose__int__types.html" target="_top" xlink:title="stxxl::choose_int_types\l\&lt; my_pointer_size \&gt;">
<polygon fill="none" stroke="black" points="119.5,-99 119.5,-133 244.5,-133 244.5,-99 119.5,-99"/>
<text text-anchor="start" x="127.5" y="-120" font-family="Helvetica,sans-Serif" font-size="10.00">stxxl::choose_int_types</text>
<text text-anchor="middle" x="182" y="-107" font-family="Helvetica,sans-Serif" font-size="10.00">&lt; my_pointer_size &gt;</text>
</a>
</g>
<!-- Node3&#45;&gt;Node1 -->
<g id="edge4" class="edge"><title>Node3&#45;&gt;Node1</title>
<path fill="none" stroke="#9a32cd" stroke-dasharray="5,2" d="M157.71,-91.1707C144.534,-77.701 128.326,-61.1338 115.305,-47.8232"/>
<polygon fill="#9a32cd" stroke="#9a32cd" points="155.577,-93.9947 165.072,-98.6955 160.581,-89.0996 155.577,-93.9947"/>
<text text-anchor="middle" x="149.5" y="-70.5" font-family="Helvetica,sans-Serif" font-size="10.00"> k</text>
</g>
<!-- Node4 -->
<g id="node6" class="node"><title>Node4</title>
<a xlink:href="structstxxl_1_1choose__int__types.html" target="_top" xlink:title="stxxl::choose_int_types\l\&lt; PtrSize \&gt;">
<polygon fill="none" stroke="black" points="119.5,-185 119.5,-219 244.5,-219 244.5,-185 119.5,-185"/>
<text text-anchor="start" x="127.5" y="-206" font-family="Helvetica,sans-Serif" font-size="10.00">stxxl::choose_int_types</text>
<text text-anchor="middle" x="182" y="-193" font-family="Helvetica,sans-Serif" font-size="10.00">&lt; PtrSize &gt;</text>
</a>
</g>
<!-- Node4&#45;&gt;Node3 -->
<g id="edge6" class="edge"><title>Node4&#45;&gt;Node3</title>
<path fill="none" stroke="orange" stroke-dasharray="5,2" d="M182,-174.342C182,-160.774 182,-144.861 182,-133.084"/>
<polygon fill="orange" stroke="orange" points="178.5,-174.597 182,-184.597 185.5,-174.597 178.5,-174.597"/>
<text text-anchor="middle" x="231.5" y="-156.5" font-family="Helvetica,sans-Serif" font-size="10.00"> &lt; my_pointer_size &gt;</text>
</g>
</g>
</svg>
