<?xml version="1.0" encoding="UTF-8" standalone="no"?>
<!DOCTYPE svg PUBLIC "-//W3C//DTD SVG 1.1//EN"
 "http://www.w3.org/Graphics/SVG/1.1/DTD/svg11.dtd">
<!-- Generated by graphviz version 2.26.3 (20100126.1600)
 -->
<!-- Title: stxxl::row_vector&lt; ValueType &gt; Pages: 1 -->
<svg width="2048pt" height="388pt"
 viewBox="0.00 0.00 2048.00 388.29" xmlns="http://www.w3.org/2000/svg" xmlns:xlink="http://www.w3.org/1999/xlink">
<g id="graph1" class="graph" transform="scale(1 1) rotate(0) translate(4 384.289)">
<title>stxxl::row_vector&lt; ValueType &gt;</title>
<!-- Node1 -->
<g id="node1" class="node"><title>Node1</title>
<polygon fill="#bfbfbf" stroke="black" points="1938.5,-199.289 1938.5,-233.289 2039.5,-233.289 2039.5,-199.289 1938.5,-199.289"/>
<text text-anchor="start" x="1946.5" y="-220.289" font-family="Helvetica,sans-Serif" font-size="10.00">stxxl::row_vector&lt;</text>
<text text-anchor="middle" x="1989" y="-207.289" font-family="Helvetica,sans-Serif" font-size="10.00"> ValueType &gt;</text>
</g>
<!-- Node2 -->
<g id="node2" class="node"><title>Node2</title>
<a xlink:href="classstxxl_1_1vector.html" target="_top" xlink:title="stxxl::vector\&lt; ValueType \&gt;">
<polygon fill="none" stroke="black" points="1760,-205.789 1760,-226.789 1900,-226.789 1900,-205.789 1760,-205.789"/>
<text text-anchor="middle" x="1830" y="-213.789" font-family="Helvetica,sans-Serif" font-size="10.00">stxxl::vector&lt; ValueType &gt;</text>
</a>
</g>
<!-- Node2&#45;&gt;Node1 -->
<g id="edge2" class="edge"><title>Node2&#45;&gt;Node1</title>
<path fill="none" stroke="midnightblue" d="M1910.46,-216.289C1919.92,-216.289 1929.37,-216.289 1938.26,-216.289"/>
<polygon fill="midnightblue" stroke="midnightblue" points="1910.2,-212.789 1900.2,-216.289 1910.2,-219.789 1910.2,-212.789"/>
</g>
<!-- Node3 -->
<g id="node4" class="node"><title>Node3</title>
<a xlink:href="classstxxl_1_1file.html" target="_top" xlink:title="Defines interface of file. ">
<polygon fill="none" stroke="black" points="804,-267.789 804,-288.789 860,-288.789 860,-267.789 804,-267.789"/>
<text text-anchor="middle" x="832" y="-275.789" font-family="Helvetica,sans-Serif" font-size="10.00">stxxl::file</text>
</a>
</g>
<!-- Node3&#45;&gt;Node2 -->
<g id="edge4" class="edge"><title>Node3&#45;&gt;Node2</title>
<path fill="none" stroke="#9a32cd" stroke-dasharray="5,2" d="M849.187,-295.898C876.44,-321.839 932.405,-367.289 990,-367.289 990,-367.289 990,-367.289 1564,-367.289 1677.64,-367.289 1787.17,-261.772 1820.05,-227.149"/>
<polygon fill="#9a32cd" stroke="#9a32cd" points="851.578,-293.34 841.982,-288.848 846.682,-298.343 851.578,-293.34"/>
<text text-anchor="middle" x="1272" y="-371.289" font-family="Helvetica,sans-Serif" font-size="10.00"> m_from</text>
</g>
<!-- Node9 -->
<g id="node17" class="node"><title>Node9</title>
<a xlink:href="classstxxl_1_1block__manager.html" target="_top" xlink:title="Block manager class. ">
<polygon fill="none" stroke="black" points="1215,-193.789 1215,-214.789 1329,-214.789 1329,-193.789 1215,-193.789"/>
<text text-anchor="middle" x="1272" y="-201.789" font-family="Helvetica,sans-Serif" font-size="10.00">stxxl::block_manager</text>
</a>
</g>
<!-- Node3&#45;&gt;Node9 -->
<g id="edge28" class="edge"><title>Node3&#45;&gt;Node9</title>
<path fill="none" stroke="#9a32cd" stroke-dasharray="5,2" d="M870.481,-271.817C948.141,-258.756 1123.95,-229.188 1214.98,-213.878"/>
<polygon fill="#9a32cd" stroke="#9a32cd" points="869.474,-268.437 860.193,-273.547 870.635,-275.34 869.474,-268.437"/>
<text text-anchor="middle" x="990" y="-263.289" font-family="Helvetica,sans-Serif" font-size="10.00"> disk_files</text>
</g>
<!-- Node12 -->
<g id="node26" class="node"><title>Node12</title>
<a xlink:href="classstxxl_1_1disk__allocator.html" target="_top" xlink:title="stxxl::disk_allocator">
<polygon fill="none" stroke="black" points="936.5,-193.789 936.5,-214.789 1043.5,-214.789 1043.5,-193.789 936.5,-193.789"/>
<text text-anchor="middle" x="990" y="-201.789" font-family="Helvetica,sans-Serif" font-size="10.00">stxxl::disk_allocator</text>
</a>
</g>
<!-- Node3&#45;&gt;Node12 -->
<g id="edge34" class="edge"><title>Node3&#45;&gt;Node12</title>
<path fill="none" stroke="#9a32cd" stroke-dasharray="5,2" d="M849.847,-260.839C857.926,-253.686 867.913,-245.809 878,-240.289 898.515,-229.063 923.084,-220.677 943.976,-214.837"/>
<polygon fill="#9a32cd" stroke="#9a32cd" points="847.454,-258.285 842.472,-267.636 852.198,-263.432 847.454,-258.285"/>
<text text-anchor="middle" x="898" y="-244.289" font-family="Helvetica,sans-Serif" font-size="10.00"> storage</text>
</g>
<!-- Node17 -->
<g id="node43" class="node"><title>Node17</title>
<a xlink:href="classstxxl_1_1vector.html" target="_top" xlink:title="External vector container. &#160;Introduction to vector container: see STXXL Vector tutorial. &#160;Design and Internals of vector container: see Vector. ">
<polygon fill="none" stroke="black" points="1476,-225.789 1476,-272.789 1652,-272.789 1652,-225.789 1476,-225.789"/>
<text text-anchor="start" x="1484" y="-259.789" font-family="Helvetica,sans-Serif" font-size="10.00">stxxl::vector&lt; ValueType,</text>
<text text-anchor="start" x="1484" y="-246.789" font-family="Helvetica,sans-Serif" font-size="10.00"> PageSize, PagerType, BlockSize,</text>
<text text-anchor="middle" x="1564" y="-233.789" font-family="Helvetica,sans-Serif" font-size="10.00"> AllocStr, SizeType &gt;</text>
</a>
</g>
<!-- Node3&#45;&gt;Node17 -->
<g id="edge56" class="edge"><title>Node3&#45;&gt;Node17</title>
<path fill="none" stroke="#9a32cd" stroke-dasharray="5,2" d="M870.298,-278.49C912.766,-278.582 983.297,-278.346 1044,-276.289 1195.78,-271.146 1372.3,-261.125 1475.71,-254.844"/>
<polygon fill="#9a32cd" stroke="#9a32cd" points="870.14,-274.99 860.129,-278.461 870.119,-281.99 870.14,-274.99"/>
<text text-anchor="middle" x="1114" y="-279.289" font-family="Helvetica,sans-Serif" font-size="10.00"> m_from</text>
</g>
<!-- Node4 -->
<g id="node6" class="node"><title>Node4</title>
<a xlink:href="classstxxl_1_1noncopyable.html" target="_top" xlink:title="stxxl::noncopyable">
<polygon fill="none" stroke="black" points="12,-129.789 12,-150.789 114,-150.789 114,-129.789 12,-129.789"/>
<text text-anchor="middle" x="63" y="-137.789" font-family="Helvetica,sans-Serif" font-size="10.00">stxxl::noncopyable</text>
</a>
</g>
<!-- Node4&#45;&gt;Node3 -->
<g id="edge6" class="edge"><title>Node4&#45;&gt;Node3</title>
<path fill="none" stroke="#8b1a1a" d="M71.2693,-160.089C83.2286,-186.068 107.944,-230.971 144,-253.289 359.885,-386.918 460.106,-290.356 714,-291.289 746,-291.407 754.303,-295.682 786,-291.289 791.754,-290.492 797.801,-289.158 803.55,-287.642"/>
<polygon fill="#8b1a1a" stroke="#8b1a1a" points="74.4263,-158.574 67.1843,-150.841 68.0231,-161.402 74.4263,-158.574"/>
</g>
<!-- Node6 -->
<g id="node10" class="node"><title>Node6</title>
<a xlink:href="classstxxl_1_1mutex.html" target="_top" xlink:title="stxxl::mutex">
<polygon fill="none" stroke="black" points="302,-241.789 302,-262.789 372,-262.789 372,-241.789 302,-241.789"/>
<text text-anchor="middle" x="337" y="-249.789" font-family="Helvetica,sans-Serif" font-size="10.00">stxxl::mutex</text>
</a>
</g>
<!-- Node4&#45;&gt;Node6 -->
<g id="edge12" class="edge"><title>Node4&#45;&gt;Node6</title>
<path fill="none" stroke="#8b1a1a" d="M75.0086,-159.638C88.8929,-180.167 113.761,-211.74 144,-227.289 194.329,-253.169 261.422,-255.885 301.796,-254.67"/>
<polygon fill="#8b1a1a" stroke="#8b1a1a" points="77.8193,-157.541 69.4223,-151.08 71.9576,-161.367 77.8193,-157.541"/>
</g>
<!-- Node10 -->
<g id="node19" class="node"><title>Node10</title>
<a xlink:href="classstxxl_1_1singleton.html" target="_top" xlink:title="stxxl::singleton\&lt; block\l_manager \&gt;">
<polygon fill="none" stroke="black" points="578,-119.289 578,-153.289 696,-153.289 696,-119.289 578,-119.289"/>
<text text-anchor="start" x="586" y="-140.289" font-family="Helvetica,sans-Serif" font-size="10.00">stxxl::singleton&lt; block</text>
<text text-anchor="middle" x="637" y="-127.289" font-family="Helvetica,sans-Serif" font-size="10.00">_manager &gt;</text>
</a>
</g>
<!-- Node4&#45;&gt;Node10 -->
<g id="edge22" class="edge"><title>Node4&#45;&gt;Node10</title>
<path fill="none" stroke="#8b1a1a" d="M124.22,-139.862C235.199,-139.089 468.226,-137.465 577.745,-136.702"/>
<polygon fill="#8b1a1a" stroke="#8b1a1a" points="124.166,-136.363 114.191,-139.932 124.215,-143.362 124.166,-136.363"/>
</g>
<!-- Node11 -->
<g id="node22" class="node"><title>Node11</title>
<a xlink:href="classstxxl_1_1singleton.html" target="_top" xlink:title="stxxl::singleton\&lt; INSTANCE,\l destroy_on_exit \&gt;">
<polygon fill="none" stroke="black" points="262.5,-151.289 262.5,-185.289 411.5,-185.289 411.5,-151.289 262.5,-151.289"/>
<text text-anchor="start" x="270.5" y="-172.289" font-family="Helvetica,sans-Serif" font-size="10.00">stxxl::singleton&lt; INSTANCE,</text>
<text text-anchor="middle" x="337" y="-159.289" font-family="Helvetica,sans-Serif" font-size="10.00"> destroy_on_exit &gt;</text>
</a>
</g>
<!-- Node4&#45;&gt;Node11 -->
<g id="edge26" class="edge"><title>Node4&#45;&gt;Node11</title>
<path fill="none" stroke="#8b1a1a" d="M124.291,-146.552C165.085,-150.721 218.933,-156.224 262.242,-160.65"/>
<polygon fill="#8b1a1a" stroke="#8b1a1a" points="124.52,-143.058 114.216,-145.523 123.808,-150.021 124.52,-143.058"/>
</g>
<!-- Node4&#45;&gt;Node12 -->
<g id="edge32" class="edge"><title>Node4&#45;&gt;Node12</title>
<path fill="none" stroke="#8b1a1a" d="M100.991,-154.161C140.559,-167.758 204.659,-187.413 262,-194.289 328.163,-202.223 779.296,-203.871 936.283,-204.206"/>
<polygon fill="#8b1a1a" stroke="#8b1a1a" points="102.074,-150.832 91.4789,-150.846 99.7701,-157.442 102.074,-150.832"/>
</g>
<!-- Node14 -->
<g id="node33" class="node"><title>Node14</title>
<a xlink:href="classstxxl_1_1simple__vector.html" target="_top" xlink:title="stxxl::simple_vector\l\&lt; stxxl::typed_block \&gt;">
<polygon fill="none" stroke="black" points="1214,-80.2891 1214,-114.289 1330,-114.289 1330,-80.2891 1214,-80.2891"/>
<text text-anchor="start" x="1222" y="-101.289" font-family="Helvetica,sans-Serif" font-size="10.00">stxxl::simple_vector</text>
<text text-anchor="middle" x="1272" y="-88.2891" font-family="Helvetica,sans-Serif" font-size="10.00">&lt; stxxl::typed_block &gt;</text>
</a>
</g>
<!-- Node4&#45;&gt;Node14 -->
<g id="edge42" class="edge"><title>Node4&#45;&gt;Node14</title>
<path fill="none" stroke="#8b1a1a" d="M124.631,-135.603C131.169,-135.142 137.721,-134.695 144,-134.289 336.781,-121.82 384.949,-117.433 578,-110.289 813.732,-101.566 1094.73,-98.5823 1213.94,-97.6609"/>
<polygon fill="#8b1a1a" stroke="#8b1a1a" points="124.134,-132.13 114.409,-136.336 124.634,-139.112 124.134,-132.13"/>
</g>
<!-- Node15 -->
<g id="node36" class="node"><title>Node15</title>
<a xlink:href="classstxxl_1_1simple__vector.html" target="_top" xlink:title="Simpler non&#45;growing vector without initialization. ">
<polygon fill="none" stroke="black" points="936.5,-30.2891 936.5,-64.2891 1043.5,-64.2891 1043.5,-30.2891 936.5,-30.2891"/>
<text text-anchor="start" x="944.5" y="-51.2891" font-family="Helvetica,sans-Serif" font-size="10.00">stxxl::simple_vector</text>
<text text-anchor="middle" x="990" y="-38.2891" font-family="Helvetica,sans-Serif" font-size="10.00">&lt; ValueType &gt;</text>
</a>
</g>
<!-- Node4&#45;&gt;Node15 -->
<g id="edge46" class="edge"><title>Node4&#45;&gt;Node15</title>
<path fill="none" stroke="#8b1a1a" d="M78.6424,-121.925C93.632,-105.681 117.796,-82.8232 144,-71.2891 223.114,-36.4663 250.562,-47.2891 337,-47.2891 337,-47.2891 337,-47.2891 832,-47.2891 866.7,-47.2891 905.686,-47.2891 936.25,-47.2891"/>
<polygon fill="#8b1a1a" stroke="#8b1a1a" points="75.7298,-119.932 71.6779,-129.721 80.9502,-124.595 75.7298,-119.932"/>
</g>
<!-- Node16 -->
<g id="node39" class="node"><title>Node16</title>
<a xlink:href="classstxxl_1_1simple__vector.html" target="_top" xlink:title="stxxl::simple_vector\l\&lt; int_type \&gt;">
<polygon fill="none" stroke="black" points="1218.5,-22.2891 1218.5,-56.2891 1325.5,-56.2891 1325.5,-22.2891 1218.5,-22.2891"/>
<text text-anchor="start" x="1226.5" y="-43.2891" font-family="Helvetica,sans-Serif" font-size="10.00">stxxl::simple_vector</text>
<text text-anchor="middle" x="1272" y="-30.2891" font-family="Helvetica,sans-Serif" font-size="10.00">&lt; int_type &gt;</text>
</a>
</g>
<!-- Node4&#45;&gt;Node16 -->
<g id="edge50" class="edge"><title>Node4&#45;&gt;Node16</title>
<path fill="none" stroke="#8b1a1a" d="M73.4251,-120.828C86.6934,-98.0338 111.807,-60.9026 144,-41.2891 218.888,4.33649 249.308,-0.289099 337,-0.289099 337,-0.289099 337,-0.289099 990,-0.289099 1070.07,-0.289099 1161.73,-15.9067 1218.24,-27.3759"/>
<polygon fill="#8b1a1a" stroke="#8b1a1a" points="70.3285,-119.194 68.4778,-129.626 76.43,-122.625 70.3285,-119.194"/>
</g>
<!-- Node5 -->
<g id="node8" class="node"><title>Node5</title>
<a xlink:href="classstxxl_1_1atomic__counted__object.html" target="_top" xlink:title="Provides reference counting abilities for use with counting_ptr with mutex locking. ">
<polygon fill="none" stroke="black" points="579,-247.289 579,-281.289 695,-281.289 695,-247.289 579,-247.289"/>
<text text-anchor="start" x="587" y="-268.289" font-family="Helvetica,sans-Serif" font-size="10.00">stxxl::atomic_counted</text>
<text text-anchor="middle" x="637" y="-255.289" font-family="Helvetica,sans-Serif" font-size="10.00">_object</text>
</a>
</g>
<!-- Node5&#45;&gt;Node3 -->
<g id="edge8" class="edge"><title>Node5&#45;&gt;Node3</title>
<path fill="none" stroke="#9a32cd" stroke-dasharray="5,2" d="M705.547,-269.21C739.346,-271.637 778.249,-274.43 803.88,-276.27"/>
<polygon fill="#9a32cd" stroke="#9a32cd" points="705.467,-265.696 695.242,-268.471 704.966,-272.678 705.467,-265.696"/>
<text text-anchor="middle" x="750" y="-278.289" font-family="Helvetica,sans-Serif" font-size="10.00"> m_request_ref</text>
</g>
<!-- Node6&#45;&gt;Node5 -->
<g id="edge10" class="edge"><title>Node6&#45;&gt;Node5</title>
<path fill="none" stroke="#9a32cd" stroke-dasharray="5,2" d="M382.017,-254.09C434.483,-256.188 521.319,-259.662 578.848,-261.963"/>
<polygon fill="#9a32cd" stroke="#9a32cd" points="382.133,-250.592 372.001,-253.689 381.853,-257.586 382.133,-250.592"/>
<text text-anchor="middle" x="495" y="-264.289" font-family="Helvetica,sans-Serif" font-size="10.00"> m_reference_count_mutex</text>
</g>
<!-- Node6&#45;&gt;Node12 -->
<g id="edge36" class="edge"><title>Node6&#45;&gt;Node12</title>
<path fill="none" stroke="#9a32cd" stroke-dasharray="5,2" d="M382.138,-248.971C498.909,-240.388 810.572,-217.478 936.302,-208.236"/>
<polygon fill="#9a32cd" stroke="#9a32cd" points="381.825,-245.485 372.108,-249.708 382.338,-252.466 381.825,-245.485"/>
<text text-anchor="middle" x="750" y="-228.289" font-family="Helvetica,sans-Serif" font-size="10.00"> mutex</text>
</g>
<!-- Node7 -->
<g id="node13" class="node"><title>Node7</title>
<a xlink:href="structstxxl_1_1choose__int__types.html" target="_top" xlink:title="stxxl::choose_int_types\l\&lt; my_pointer_size \&gt;">
<polygon fill="none" stroke="black" points="274.5,-337.289 274.5,-371.289 399.5,-371.289 399.5,-337.289 274.5,-337.289"/>
<text text-anchor="start" x="282.5" y="-358.289" font-family="Helvetica,sans-Serif" font-size="10.00">stxxl::choose_int_types</text>
<text text-anchor="middle" x="337" y="-345.289" font-family="Helvetica,sans-Serif" font-size="10.00">&lt; my_pointer_size &gt;</text>
</a>
</g>
<!-- Node7&#45;&gt;Node5 -->
<g id="edge14" class="edge"><title>Node7&#45;&gt;Node5</title>
<path fill="none" stroke="#9a32cd" stroke-dasharray="5,2" d="M403.43,-334.36C456.438,-318.458 529.897,-296.42 580.197,-281.33"/>
<polygon fill="#9a32cd" stroke="#9a32cd" points="402.353,-331.029 393.78,-337.255 404.364,-337.734 402.353,-331.029"/>
<text text-anchor="middle" x="495" y="-328.289" font-family="Helvetica,sans-Serif" font-size="10.00"> m_reference_count</text>
</g>
<!-- Node8 -->
<g id="node15" class="node"><title>Node8</title>
<a xlink:href="structstxxl_1_1choose__int__types.html" target="_top" xlink:title="stxxl::choose_int_types\l\&lt; PtrSize \&gt;">
<polygon fill="none" stroke="black" points="0.5,-337.289 0.5,-371.289 125.5,-371.289 125.5,-337.289 0.5,-337.289"/>
<text text-anchor="start" x="8.5" y="-358.289" font-family="Helvetica,sans-Serif" font-size="10.00">stxxl::choose_int_types</text>
<text text-anchor="middle" x="63" y="-345.289" font-family="Helvetica,sans-Serif" font-size="10.00">&lt; PtrSize &gt;</text>
</a>
</g>
<!-- Node8&#45;&gt;Node7 -->
<g id="edge16" class="edge"><title>Node8&#45;&gt;Node7</title>
<path fill="none" stroke="orange" stroke-dasharray="5,2" d="M135.672,-354.289C178.827,-354.289 232.999,-354.289 274.277,-354.289"/>
<polygon fill="orange" stroke="orange" points="135.518,-350.789 125.518,-354.289 135.518,-357.789 135.518,-350.789"/>
<text text-anchor="middle" x="194" y="-358.289" font-family="Helvetica,sans-Serif" font-size="10.00"> &lt; my_pointer_size &gt;</text>
</g>
<!-- Node9&#45;&gt;Node2 -->
<g id="edge18" class="edge"><title>Node9&#45;&gt;Node2</title>
<path fill="none" stroke="#9a32cd" stroke-dasharray="5,2" d="M1339.7,-202.517C1415.72,-200.898 1542.75,-199.305 1652,-203.289 1687.61,-204.588 1727.15,-207.343 1759.9,-209.984"/>
<polygon fill="#9a32cd" stroke="#9a32cd" points="1339.24,-199.026 1329.32,-202.745 1339.39,-206.024 1339.24,-199.026"/>
<text text-anchor="middle" x="1564" y="-207.289" font-family="Helvetica,sans-Serif" font-size="10.00"> m_bm</text>
</g>
<!-- Node9&#45;&gt;Node17 -->
<g id="edge58" class="edge"><title>Node9&#45;&gt;Node17</title>
<path fill="none" stroke="#9a32cd" stroke-dasharray="5,2" d="M1339.35,-211.872C1374.75,-216.137 1418.81,-221.886 1458,-228.289 1463.83,-229.242 1469.83,-230.278 1475.88,-231.363"/>
<polygon fill="#9a32cd" stroke="#9a32cd" points="1339.47,-208.362 1329.13,-210.653 1338.64,-215.313 1339.47,-208.362"/>
<text text-anchor="middle" x="1418" y="-232.289" font-family="Helvetica,sans-Serif" font-size="10.00"> m_bm</text>
</g>
<!-- Node10&#45;&gt;Node9 -->
<g id="edge20" class="edge"><title>Node10&#45;&gt;Node9</title>
<path fill="none" stroke="midnightblue" d="M706.487,-143.73C832.8,-157.257 1097.76,-185.631 1214.59,-198.141"/>
<polygon fill="midnightblue" stroke="midnightblue" points="706.485,-140.21 696.169,-142.625 705.739,-147.17 706.485,-140.21"/>
</g>
<!-- Node11&#45;&gt;Node10 -->
<g id="edge24" class="edge"><title>Node11&#45;&gt;Node10</title>
<path fill="none" stroke="orange" stroke-dasharray="5,2" d="M421.664,-159.258C471.506,-153.942 533.309,-147.349 577.903,-142.593"/>
<polygon fill="orange" stroke="orange" points="421.115,-155.797 411.543,-160.338 421.858,-162.757 421.115,-155.797"/>
<text text-anchor="middle" x="495" y="-161.289" font-family="Helvetica,sans-Serif" font-size="10.00"> &lt; block_manager &gt;</text>
</g>
<!-- Node12&#45;&gt;Node9 -->
<g id="edge30" class="edge"><title>Node12&#45;&gt;Node9</title>
<path fill="none" stroke="#9a32cd" stroke-dasharray="5,2" d="M1053.74,-204.289C1102.07,-204.289 1167.92,-204.289 1214.62,-204.289"/>
<polygon fill="#9a32cd" stroke="#9a32cd" points="1053.71,-200.789 1043.71,-204.289 1053.71,-207.789 1053.71,-200.789"/>
<text text-anchor="middle" x="1114" y="-208.289" font-family="Helvetica,sans-Serif" font-size="10.00"> disk_allocators</text>
</g>
<!-- Node13 -->
<g id="node31" class="node"><title>Node13</title>
<a xlink:href="classstxxl_1_1vector_1_1bid__vector.html" target="_top" xlink:title="stxxl::vector\&lt; ValueType,\l PageSize, PagerType, BlockSize,\l AllocStr, SizeType \&gt;::bid_vector">
<polygon fill="none" stroke="black" points="1184,-283.789 1184,-330.789 1360,-330.789 1360,-283.789 1184,-283.789"/>
<text text-anchor="start" x="1192" y="-317.789" font-family="Helvetica,sans-Serif" font-size="10.00">stxxl::vector&lt; ValueType,</text>
<text text-anchor="start" x="1192" y="-304.789" font-family="Helvetica,sans-Serif" font-size="10.00"> PageSize, PagerType, BlockSize,</text>
<text text-anchor="middle" x="1272" y="-291.789" font-family="Helvetica,sans-Serif" font-size="10.00"> AllocStr, SizeType &gt;::bid_vector</text>
</a>
</g>
<!-- Node13&#45;&gt;Node2 -->
<g id="edge38" class="edge"><title>Node13&#45;&gt;Node2</title>
<path fill="none" stroke="#9a32cd" stroke-dasharray="5,2" d="M1370.35,-305.318C1398.66,-304.425 1429.57,-303.138 1458,-301.289 1544.45,-295.667 1567.26,-300.323 1652,-282.289 1693.24,-273.512 1702.47,-266.946 1742,-252.289 1763.67,-244.256 1787.96,-234.242 1805.52,-226.817"/>
<polygon fill="#9a32cd" stroke="#9a32cd" points="1369.94,-301.828 1360.05,-305.629 1370.15,-308.825 1369.94,-301.828"/>
<text text-anchor="middle" x="1564" y="-303.289" font-family="Helvetica,sans-Serif" font-size="10.00"> m_bids</text>
</g>
<!-- Node13&#45;&gt;Node17 -->
<g id="edge60" class="edge"><title>Node13&#45;&gt;Node17</title>
<path fill="none" stroke="#9a32cd" stroke-dasharray="5,2" d="M1370.03,-287.818C1404.29,-281.012 1442.52,-273.419 1475.92,-266.784"/>
<polygon fill="#9a32cd" stroke="#9a32cd" points="1369.13,-284.427 1360.01,-289.809 1370.5,-291.293 1369.13,-284.427"/>
<text text-anchor="middle" x="1418" y="-288.289" font-family="Helvetica,sans-Serif" font-size="10.00"> m_bids</text>
</g>
<!-- Node14&#45;&gt;Node2 -->
<g id="edge40" class="edge"><title>Node14&#45;&gt;Node2</title>
<path fill="none" stroke="#9a32cd" stroke-dasharray="5,2" d="M1340.39,-99.1653C1375.72,-100.959 1419.4,-104.46 1458,-111.289 1587.85,-134.263 1737.53,-183.832 1800.1,-205.633"/>
<polygon fill="#9a32cd" stroke="#9a32cd" points="1340.34,-95.659 1330.18,-98.6825 1340.01,-102.651 1340.34,-95.659"/>
<text text-anchor="middle" x="1564" y="-161.289" font-family="Helvetica,sans-Serif" font-size="10.00"> m_cache</text>
</g>
<!-- Node14&#45;&gt;Node17 -->
<g id="edge62" class="edge"><title>Node14&#45;&gt;Node17</title>
<path fill="none" stroke="#9a32cd" stroke-dasharray="5,2" d="M1314.33,-119.163C1352.42,-139.159 1409.65,-169.993 1458,-199.289 1466.22,-204.272 1467.55,-206.698 1476,-211.289 1485.21,-216.295 1495.22,-221.139 1505.07,-225.597"/>
<polygon fill="#9a32cd" stroke="#9a32cd" points="1315.56,-115.856 1305.08,-114.321 1312.31,-122.058 1315.56,-115.856"/>
<text text-anchor="middle" x="1418" y="-203.289" font-family="Helvetica,sans-Serif" font-size="10.00"> m_cache</text>
</g>
<!-- Node15&#45;&gt;Node14 -->
<g id="edge44" class="edge"><title>Node15&#45;&gt;Node14</title>
<path fill="none" stroke="orange" stroke-dasharray="5,2" d="M1053.93,-53.7813C1087.45,-57.655 1129.11,-63.2072 1166,-70.2891 1181.67,-73.2967 1198.46,-77.2376 1213.96,-81.1754"/>
<polygon fill="orange" stroke="orange" points="1054.13,-50.2818 1043.8,-52.6331 1053.34,-57.2372 1054.13,-50.2818"/>
<text text-anchor="middle" x="1114" y="-74.2891" font-family="Helvetica,sans-Serif" font-size="10.00"> &lt; stxxl::typed_block &gt;</text>
</g>
<!-- Node15&#45;&gt;Node16 -->
<g id="edge52" class="edge"><title>Node15&#45;&gt;Node16</title>
<path fill="none" stroke="orange" stroke-dasharray="5,2" d="M1053.79,-35.1525C1056.56,-34.8215 1059.31,-34.5304 1062,-34.2891 1115.03,-29.5399 1175.88,-31.834 1218.38,-34.6824"/>
<polygon fill="orange" stroke="orange" points="1053.16,-31.7055 1043.72,-36.5075 1054.1,-38.643 1053.16,-31.7055"/>
<text text-anchor="middle" x="1114" y="-38.2891" font-family="Helvetica,sans-Serif" font-size="10.00"> &lt; int_type &gt;</text>
</g>
<!-- Node16&#45;&gt;Node2 -->
<g id="edge48" class="edge"><title>Node16&#45;&gt;Node2</title>
<path fill="none" stroke="#9a32cd" stroke-dasharray="5,2" d="M1335.86,-40.8979C1413.15,-44.6996 1546.1,-57.2496 1652,-98.2891 1721.14,-125.085 1790.89,-182.034 1818.1,-205.667"/>
<polygon fill="#9a32cd" stroke="#9a32cd" points="1335.94,-37.3981 1325.79,-40.4369 1335.62,-44.3908 1335.94,-37.3981"/>
<text text-anchor="middle" x="1564" y="-102.289" font-family="Helvetica,sans-Serif" font-size="10.00"> m_slot_to_page</text>
</g>
<!-- Node16&#45;&gt;Node17 -->
<g id="edge64" class="edge"><title>Node16&#45;&gt;Node17</title>
<path fill="none" stroke="#9a32cd" stroke-dasharray="5,2" d="M1335.09,-60.0374C1343.61,-63.4708 1352.12,-67.2438 1360,-71.2891 1406.94,-95.3828 1427.93,-94.9355 1458,-138.289 1477.05,-165.747 1454.41,-185.784 1476,-211.289 1480.73,-216.878 1486.44,-221.668 1492.64,-225.769"/>
<polygon fill="#9a32cd" stroke="#9a32cd" points="1336.09,-56.6715 1325.5,-56.3089 1333.55,-63.1955 1336.09,-56.6715"/>
<text text-anchor="middle" x="1418" y="-142.289" font-family="Helvetica,sans-Serif" font-size="10.00"> m_slot_to_page</text>
</g>
<!-- Node17&#45;&gt;Node2 -->
<g id="edge54" class="edge"><title>Node17&#45;&gt;Node2</title>
<path fill="none" stroke="orange" stroke-dasharray="5,2" d="M1662.14,-237.113C1694.51,-233.099 1729.83,-228.716 1759.69,-225.012"/>
<polygon fill="orange" stroke="orange" points="1661.7,-233.642 1652.2,-238.346 1662.56,-240.589 1661.7,-233.642"/>
<text text-anchor="middle" x="1706" y="-239.289" font-family="Helvetica,sans-Serif" font-size="10.00"> &lt; ValueType &gt;</text>
</g>
</g>
</svg>
