<?xml version="1.0" encoding="UTF-8" standalone="no"?>
<!DOCTYPE svg PUBLIC "-//W3C//DTD SVG 1.1//EN"
 "http://www.w3.org/Graphics/SVG/1.1/DTD/svg11.dtd">
<!-- Generated by graphviz version 2.26.3 (20100126.1600)
 -->
<!-- Title: stxxl::mng_local::block_w_bids&lt; Type, Size, RawSize, NBids &gt; Pages: 1 -->
<svg width="483pt" height="544pt"
 viewBox="0.00 0.00 483.00 544.00" xmlns="http://www.w3.org/2000/svg" xmlns:xlink="http://www.w3.org/1999/xlink">
<g id="graph1" class="graph" transform="scale(1 1) rotate(0) translate(4 540)">
<title>stxxl::mng_local::block_w_bids&lt; Type, Size, RawSize, NBids &gt;</title>
<!-- Node1 -->
<g id="node1" class="node"><title>Node1</title>
<polygon fill="#bfbfbf" stroke="black" points="29,-0.5 29,-47.5 191,-47.5 191,-0.5 29,-0.5"/>
<text text-anchor="start" x="37" y="-34.5" font-family="Helvetica,sans-Serif" font-size="10.00">stxxl::mng_local::block</text>
<text text-anchor="start" x="37" y="-21.5" font-family="Helvetica,sans-Serif" font-size="10.00">_w_bids&lt; Type, Size, RawSize,</text>
<text text-anchor="middle" x="110" y="-8.5" font-family="Helvetica,sans-Serif" font-size="10.00"> NBids &gt;</text>
</g>
<!-- Node2 -->
<g id="node2" class="node"><title>Node2</title>
<a xlink:href="classstxxl_1_1mng__local_1_1element__block.html" target="_top" xlink:title="Contains data elements for stxxl::typed_block , not intended for direct use. ">
<polygon fill="none" stroke="black" points="0,-99 0,-133 132,-133 132,-99 0,-99"/>
<text text-anchor="start" x="8" y="-120" font-family="Helvetica,sans-Serif" font-size="10.00">stxxl::mng_local::element</text>
<text text-anchor="middle" x="66" y="-107" font-family="Helvetica,sans-Serif" font-size="10.00">_block&lt; Type, Size &gt;</text>
</a>
</g>
<!-- Node2&#45;&gt;Node1 -->
<g id="edge2" class="edge"><title>Node2&#45;&gt;Node1</title>
<path fill="none" stroke="midnightblue" d="M78.6034,-89.6474C84.9072,-76.4668 92.4784,-60.6362 98.6063,-47.8232"/>
<polygon fill="midnightblue" stroke="midnightblue" points="75.4332,-88.164 74.2761,-98.6955 81.7481,-91.1843 75.4332,-88.164"/>
</g>
<!-- Node3 -->
<g id="node4" class="node"><title>Node3</title>
<a xlink:href="structstxxl_1_1BID.html" target="_top" xlink:title="stxxl::BID\&lt; raw_size \&gt;">
<polygon fill="none" stroke="black" points="149.5,-105.5 149.5,-126.5 268.5,-126.5 268.5,-105.5 149.5,-105.5"/>
<text text-anchor="middle" x="209" y="-113.5" font-family="Helvetica,sans-Serif" font-size="10.00">stxxl::BID&lt; raw_size &gt;</text>
</a>
</g>
<!-- Node3&#45;&gt;Node1 -->
<g id="edge4" class="edge"><title>Node3&#45;&gt;Node1</title>
<path fill="none" stroke="#9a32cd" stroke-dasharray="5,2" d="M190.223,-98.5506C174.763,-84.1834 152.688,-63.6701 135.608,-47.797"/>
<polygon fill="#9a32cd" stroke="#9a32cd" points="187.936,-101.203 197.643,-105.446 192.701,-96.0752 187.936,-101.203"/>
<text text-anchor="middle" x="177" y="-70.5" font-family="Helvetica,sans-Serif" font-size="10.00"> ref</text>
</g>
<!-- Node4 -->
<g id="node6" class="node"><title>Node4</title>
<a xlink:href="classstxxl_1_1file.html" target="_top" xlink:title="Defines interface of file. ">
<polygon fill="none" stroke="black" points="162,-256.5 162,-277.5 218,-277.5 218,-256.5 162,-256.5"/>
<text text-anchor="middle" x="190" y="-264.5" font-family="Helvetica,sans-Serif" font-size="10.00">stxxl::file</text>
</a>
</g>
<!-- Node4&#45;&gt;Node3 -->
<g id="edge6" class="edge"><title>Node4&#45;&gt;Node3</title>
<path fill="none" stroke="#9a32cd" stroke-dasharray="5,2" d="M185.269,-246.548C182.08,-229.656 179.101,-205.114 183,-184 186.902,-162.871 197.087,-139.817 203.49,-126.713"/>
<polygon fill="#9a32cd" stroke="#9a32cd" points="181.862,-247.353 187.326,-256.43 188.715,-245.927 181.862,-247.353"/>
<text text-anchor="middle" x="203" y="-192.5" font-family="Helvetica,sans-Serif" font-size="10.00"> storage</text>
</g>
<!-- Node10 -->
<g id="node19" class="node"><title>Node10</title>
<a xlink:href="structstxxl_1_1BID.html" target="_top" xlink:title="Block identifier class. ">
<polygon fill="none" stroke="black" points="232,-184.5 232,-205.5 330,-205.5 330,-184.5 232,-184.5"/>
<text text-anchor="middle" x="281" y="-192.5" font-family="Helvetica,sans-Serif" font-size="10.00">stxxl::BID&lt; Size &gt;</text>
</a>
</g>
<!-- Node4&#45;&gt;Node10 -->
<g id="edge22" class="edge"><title>Node4&#45;&gt;Node10</title>
<path fill="none" stroke="#9a32cd" stroke-dasharray="5,2" d="M211.355,-250.104C228.727,-236.359 252.709,-217.384 267.518,-205.667"/>
<polygon fill="#9a32cd" stroke="#9a32cd" points="209.098,-247.427 203.427,-256.376 213.441,-252.916 209.098,-247.427"/>
<text text-anchor="middle" x="263" y="-228.5" font-family="Helvetica,sans-Serif" font-size="10.00"> storage</text>
</g>
<!-- Node5 -->
<g id="node8" class="node"><title>Node5</title>
<a xlink:href="classstxxl_1_1noncopyable.html" target="_top" xlink:title="stxxl::noncopyable">
<polygon fill="none" stroke="black" points="132,-507.5 132,-528.5 234,-528.5 234,-507.5 132,-507.5"/>
<text text-anchor="middle" x="183" y="-515.5" font-family="Helvetica,sans-Serif" font-size="10.00">stxxl::noncopyable</text>
</a>
</g>
<!-- Node5&#45;&gt;Node4 -->
<g id="edge8" class="edge"><title>Node5&#45;&gt;Node4</title>
<path fill="none" stroke="#8b1a1a" d="M181.332,-496.856C178.859,-461.728 175.021,-389.152 180,-328 181.446,-310.244 185.221,-289.867 187.697,-277.733"/>
<polygon fill="#8b1a1a" stroke="#8b1a1a" points="177.873,-497.549 182.103,-507.263 184.854,-497.032 177.873,-497.549"/>
</g>
<!-- Node7 -->
<g id="node12" class="node"><title>Node7</title>
<a xlink:href="classstxxl_1_1mutex.html" target="_top" xlink:title="stxxl::mutex">
<polygon fill="none" stroke="black" points="189,-421.5 189,-442.5 259,-442.5 259,-421.5 189,-421.5"/>
<text text-anchor="middle" x="224" y="-429.5" font-family="Helvetica,sans-Serif" font-size="10.00">stxxl::mutex</text>
</a>
</g>
<!-- Node5&#45;&gt;Node7 -->
<g id="edge14" class="edge"><title>Node5&#45;&gt;Node7</title>
<path fill="none" stroke="#8b1a1a" d="M192.424,-498.234C200.669,-480.937 212.332,-456.474 218.931,-442.632"/>
<polygon fill="#8b1a1a" stroke="#8b1a1a" points="189.172,-496.922 188.027,-507.455 195.49,-499.934 189.172,-496.922"/>
</g>
<!-- Node6 -->
<g id="node10" class="node"><title>Node6</title>
<a xlink:href="classstxxl_1_1atomic__counted__object.html" target="_top" xlink:title="Provides reference counting abilities for use with counting_ptr with mutex locking. ">
<polygon fill="none" stroke="black" points="189,-329 189,-363 305,-363 305,-329 189,-329"/>
<text text-anchor="start" x="197" y="-350" font-family="Helvetica,sans-Serif" font-size="10.00">stxxl::atomic_counted</text>
<text text-anchor="middle" x="247" y="-337" font-family="Helvetica,sans-Serif" font-size="10.00">_object</text>
</a>
</g>
<!-- Node6&#45;&gt;Node4 -->
<g id="edge10" class="edge"><title>Node6&#45;&gt;Node4</title>
<path fill="none" stroke="#9a32cd" stroke-dasharray="5,2" d="M228.736,-320.686C218.211,-306.1 205.539,-288.537 197.624,-277.567"/>
<polygon fill="#9a32cd" stroke="#9a32cd" points="225.942,-322.797 234.632,-328.858 231.619,-318.701 225.942,-322.797"/>
<text text-anchor="middle" x="256" y="-300.5" font-family="Helvetica,sans-Serif" font-size="10.00"> m_request_ref</text>
</g>
<!-- Node7&#45;&gt;Node6 -->
<g id="edge12" class="edge"><title>Node7&#45;&gt;Node6</title>
<path fill="none" stroke="#9a32cd" stroke-dasharray="5,2" d="M222.007,-411.277C221.737,-402.134 222.265,-391.361 225,-382 226.931,-375.391 230.41,-368.782 234.04,-363.064"/>
<polygon fill="#9a32cd" stroke="#9a32cd" points="218.523,-411.653 222.636,-421.417 225.51,-411.219 218.523,-411.653"/>
<text text-anchor="middle" x="289.5" y="-386.5" font-family="Helvetica,sans-Serif" font-size="10.00"> m_reference_count_mutex</text>
</g>
<!-- Node8 -->
<g id="node15" class="node"><title>Node8</title>
<a xlink:href="structstxxl_1_1choose__int__types.html" target="_top" xlink:title="stxxl::choose_int_types\l\&lt; my_pointer_size \&gt;">
<polygon fill="none" stroke="black" points="313.5,-415 313.5,-449 438.5,-449 438.5,-415 313.5,-415"/>
<text text-anchor="start" x="321.5" y="-436" font-family="Helvetica,sans-Serif" font-size="10.00">stxxl::choose_int_types</text>
<text text-anchor="middle" x="376" y="-423" font-family="Helvetica,sans-Serif" font-size="10.00">&lt; my_pointer_size &gt;</text>
</a>
</g>
<!-- Node8&#45;&gt;Node6 -->
<g id="edge16" class="edge"><title>Node8&#45;&gt;Node6</title>
<path fill="none" stroke="#9a32cd" stroke-dasharray="5,2" d="M368.869,-405.099C365.526,-396.764 360.743,-388.162 354,-382 340.472,-369.638 322.553,-361.503 305.254,-356.158"/>
<polygon fill="#9a32cd" stroke="#9a32cd" points="365.58,-406.297 372.164,-414.598 372.194,-404.003 365.58,-406.297"/>
<text text-anchor="middle" x="410.5" y="-386.5" font-family="Helvetica,sans-Serif" font-size="10.00"> m_reference_count</text>
</g>
<!-- Node9 -->
<g id="node17" class="node"><title>Node9</title>
<a xlink:href="structstxxl_1_1choose__int__types.html" target="_top" xlink:title="stxxl::choose_int_types\l\&lt; PtrSize \&gt;">
<polygon fill="none" stroke="black" points="313.5,-501 313.5,-535 438.5,-535 438.5,-501 313.5,-501"/>
<text text-anchor="start" x="321.5" y="-522" font-family="Helvetica,sans-Serif" font-size="10.00">stxxl::choose_int_types</text>
<text text-anchor="middle" x="376" y="-509" font-family="Helvetica,sans-Serif" font-size="10.00">&lt; PtrSize &gt;</text>
</a>
</g>
<!-- Node9&#45;&gt;Node8 -->
<g id="edge18" class="edge"><title>Node9&#45;&gt;Node8</title>
<path fill="none" stroke="orange" stroke-dasharray="5,2" d="M376,-490.342C376,-476.774 376,-460.861 376,-449.084"/>
<polygon fill="orange" stroke="orange" points="372.5,-490.597 376,-500.597 379.5,-490.597 372.5,-490.597"/>
<text text-anchor="middle" x="425.5" y="-472.5" font-family="Helvetica,sans-Serif" font-size="10.00"> &lt; my_pointer_size &gt;</text>
</g>
<!-- Node10&#45;&gt;Node3 -->
<g id="edge20" class="edge"><title>Node10&#45;&gt;Node3</title>
<path fill="none" stroke="orange" stroke-dasharray="5,2" d="M264.501,-176.897C250.379,-161.402 230.523,-139.616 218.786,-126.738"/>
<polygon fill="orange" stroke="orange" points="261.967,-179.312 271.29,-184.346 267.141,-174.597 261.967,-179.312"/>
<text text-anchor="middle" x="285" y="-156.5" font-family="Helvetica,sans-Serif" font-size="10.00"> &lt; raw_size &gt;</text>
</g>
</g>
</svg>
