<?xml version="1.0" encoding="UTF-8" standalone="no"?>
<!DOCTYPE svg PUBLIC "-//W3C//DTD SVG 1.1//EN"
 "http://www.w3.org/Graphics/SVG/1.1/DTD/svg11.dtd">
<!-- Generated by graphviz version 2.26.3 (20100126.1600)
 -->
<!-- Title: stxxl::buf_istream_reverse&lt; BlockType, BidIteratorType &gt; Pages: 1 -->
<svg width="1382pt" height="420pt"
 viewBox="0.00 0.00 1382.00 419.58" xmlns="http://www.w3.org/2000/svg" xmlns:xlink="http://www.w3.org/1999/xlink">
<g id="graph1" class="graph" transform="scale(1 1) rotate(0) translate(4 415.583)">
<title>stxxl::buf_istream_reverse&lt; BlockType, BidIteratorType &gt;</title>
<!-- Node1 -->
<g id="node1" class="node"><title>Node1</title>
<polygon fill="#bfbfbf" stroke="black" points="1254.5,-213.083 1254.5,-260.083 1373.5,-260.083 1373.5,-213.083 1254.5,-213.083"/>
<text text-anchor="start" x="1262.5" y="-247.083" font-family="Helvetica,sans-Serif" font-size="10.00">stxxl::buf_istream</text>
<text text-anchor="start" x="1262.5" y="-234.083" font-family="Helvetica,sans-Serif" font-size="10.00">_reverse&lt; BlockType,</text>
<text text-anchor="middle" x="1314" y="-221.083" font-family="Helvetica,sans-Serif" font-size="10.00"> BidIteratorType &gt;</text>
</g>
<!-- Node2 -->
<g id="node2" class="node"><title>Node2</title>
<a xlink:href="classstxxl_1_1noncopyable.html" target="_top" xlink:title="stxxl::noncopyable">
<polygon fill="none" stroke="black" points="6,-120.083 6,-141.083 108,-141.083 108,-120.083 6,-120.083"/>
<text text-anchor="middle" x="57" y="-128.083" font-family="Helvetica,sans-Serif" font-size="10.00">stxxl::noncopyable</text>
</a>
</g>
<!-- Node2&#45;&gt;Node1 -->
<g id="edge2" class="edge"><title>Node2&#45;&gt;Node1</title>
<path fill="none" stroke="#8b1a1a" d="M63.8051,-151.124C74.2412,-179.721 96.769,-231.508 132,-262.583 194.023,-317.288 221.299,-333.583 304,-333.583 304,-333.583 304,-333.583 1131,-333.583 1193.39,-333.583 1255.27,-289.028 1288.67,-260.312"/>
<polygon fill="#8b1a1a" stroke="#8b1a1a" points="67.0051,-149.671 60.3962,-141.39 60.3985,-151.985 67.0051,-149.671"/>
</g>
<!-- Node3 -->
<g id="node4" class="node"><title>Node3</title>
<a xlink:href="classstxxl_1_1block__prefetcher.html" target="_top" xlink:title="Encapsulates asynchronous prefetching engine. ">
<polygon fill="none" stroke="black" points="754.5,-130.583 754.5,-164.583 917.5,-164.583 917.5,-130.583 754.5,-130.583"/>
<text text-anchor="start" x="762.5" y="-151.583" font-family="Helvetica,sans-Serif" font-size="10.00">stxxl::block_prefetcher</text>
<text text-anchor="middle" x="836" y="-138.583" font-family="Helvetica,sans-Serif" font-size="10.00">&lt; BlockType, BidIteratorType &gt;</text>
</a>
</g>
<!-- Node2&#45;&gt;Node3 -->
<g id="edge6" class="edge"><title>Node2&#45;&gt;Node3</title>
<path fill="none" stroke="#8b1a1a" d="M118.171,-131.918C257.256,-134.953 597.282,-142.373 754.197,-145.797"/>
<polygon fill="#8b1a1a" stroke="#8b1a1a" points="118.186,-128.417 108.112,-131.698 118.034,-135.416 118.186,-128.417"/>
</g>
<!-- Node6 -->
<g id="node11" class="node"><title>Node6</title>
<a xlink:href="classstxxl_1_1onoff__switch.html" target="_top" xlink:title="stxxl::onoff_switch">
<polygon fill="none" stroke="black" points="525.5,-81.0827 525.5,-102.083 626.5,-102.083 626.5,-81.0827 525.5,-81.0827"/>
<text text-anchor="middle" x="576" y="-89.0827" font-family="Helvetica,sans-Serif" font-size="10.00">stxxl::onoff_switch</text>
</a>
</g>
<!-- Node2&#45;&gt;Node6 -->
<g id="edge14" class="edge"><title>Node2&#45;&gt;Node6</title>
<path fill="none" stroke="#8b1a1a" d="M89.5266,-116.03C125.477,-100.918 185.519,-78.5302 240,-71.5827 340.718,-58.7389 459.497,-72.5425 525.425,-82.7382"/>
<polygon fill="#8b1a1a" stroke="#8b1a1a" points="87.8699,-112.931 80.0502,-120.08 90.6211,-119.368 87.8699,-112.931"/>
</g>
<!-- Node7 -->
<g id="node14" class="node"><title>Node7</title>
<a xlink:href="classstxxl_1_1mutex.html" target="_top" xlink:title="stxxl::mutex">
<polygon fill="none" stroke="black" points="269,-3.08265 269,-24.0827 339,-24.0827 339,-3.08265 269,-3.08265"/>
<text text-anchor="middle" x="304" y="-11.0827" font-family="Helvetica,sans-Serif" font-size="10.00">stxxl::mutex</text>
</a>
</g>
<!-- Node2&#45;&gt;Node7 -->
<g id="edge18" class="edge"><title>Node2&#45;&gt;Node7</title>
<path fill="none" stroke="#8b1a1a" d="M67.1457,-110.914C79.4024,-89.328 102.149,-55.4996 132,-38.5827 174.66,-14.4064 232.465,-10.8494 269,-11.4762"/>
<polygon fill="#8b1a1a" stroke="#8b1a1a" points="63.9791,-109.41 62.2646,-119.865 70.1248,-112.761 63.9791,-109.41"/>
</g>
<!-- Node8 -->
<g id="node17" class="node"><title>Node8</title>
<a xlink:href="classstxxl_1_1condition__variable.html" target="_top" xlink:title="stxxl::condition_variable">
<polygon fill="none" stroke="black" points="240,-81.0827 240,-102.083 368,-102.083 368,-81.0827 240,-81.0827"/>
<text text-anchor="middle" x="304" y="-89.0827" font-family="Helvetica,sans-Serif" font-size="10.00">stxxl::condition_variable</text>
</a>
</g>
<!-- Node2&#45;&gt;Node8 -->
<g id="edge22" class="edge"><title>Node2&#45;&gt;Node8</title>
<path fill="none" stroke="#8b1a1a" d="M118.315,-118.929C122.942,-118.113 127.543,-117.322 132,-116.583 167.573,-110.68 207.413,-104.84 239.787,-100.291"/>
<polygon fill="#8b1a1a" stroke="#8b1a1a" points="117.415,-115.534 108.189,-120.744 118.649,-122.425 117.415,-115.534"/>
</g>
<!-- Node14 -->
<g id="node31" class="node"><title>Node14</title>
<a xlink:href="classstxxl_1_1simple__vector.html" target="_top" xlink:title="stxxl::simple_vector\l\&lt; BID\&lt; BlockSize \&gt; \&gt;">
<polygon fill="none" stroke="black" points="518,-243.583 518,-277.583 634,-277.583 634,-243.583 518,-243.583"/>
<text text-anchor="start" x="526" y="-264.583" font-family="Helvetica,sans-Serif" font-size="10.00">stxxl::simple_vector</text>
<text text-anchor="middle" x="576" y="-251.583" font-family="Helvetica,sans-Serif" font-size="10.00">&lt; BID&lt; BlockSize &gt; &gt;</text>
</a>
</g>
<!-- Node2&#45;&gt;Node14 -->
<g id="edge38" class="edge"><title>Node2&#45;&gt;Node14</title>
<path fill="none" stroke="#8b1a1a" d="M89.4073,-145.397C125.481,-161.353 185.841,-186.479 240,-201.583 335.7,-228.271 450.253,-245.316 517.86,-253.897"/>
<polygon fill="#8b1a1a" stroke="#8b1a1a" points="90.4605,-142.034 79.9022,-141.155 87.608,-148.426 90.4605,-142.034"/>
</g>
<!-- Node15 -->
<g id="node34" class="node"><title>Node15</title>
<a xlink:href="classstxxl_1_1simple__vector.html" target="_top" xlink:title="Simpler non&#45;growing vector without initialization. ">
<polygon fill="none" stroke="black" points="250.5,-248.583 250.5,-282.583 357.5,-282.583 357.5,-248.583 250.5,-248.583"/>
<text text-anchor="start" x="258.5" y="-269.583" font-family="Helvetica,sans-Serif" font-size="10.00">stxxl::simple_vector</text>
<text text-anchor="middle" x="304" y="-256.583" font-family="Helvetica,sans-Serif" font-size="10.00">&lt; ValueType &gt;</text>
</a>
</g>
<!-- Node2&#45;&gt;Node15 -->
<g id="edge42" class="edge"><title>Node2&#45;&gt;Node15</title>
<path fill="none" stroke="#8b1a1a" d="M65.5617,-150.444C77.016,-174.474 99.698,-214.233 132,-234.583 167.3,-256.821 214.3,-264.113 250.248,-266.1"/>
<polygon fill="#8b1a1a" stroke="#8b1a1a" points="68.6829,-148.853 61.3448,-141.211 62.3155,-151.761 68.6829,-148.853"/>
</g>
<!-- Node3&#45;&gt;Node1 -->
<g id="edge4" class="edge"><title>Node3&#45;&gt;Node1</title>
<path fill="none" stroke="#9a32cd" stroke-dasharray="5,2" d="M928.137,-154.842C999.948,-161.445 1101.92,-172.897 1190,-190.583 1214.2,-195.442 1239.94,-204.331 1261.66,-213.01"/>
<polygon fill="#9a32cd" stroke="#9a32cd" points="928.041,-151.319 917.766,-153.903 927.41,-158.291 928.041,-151.319"/>
<text text-anchor="middle" x="1131" y="-194.583" font-family="Helvetica,sans-Serif" font-size="10.00"> prefetcher</text>
</g>
<!-- Node4 -->
<g id="node7" class="node"><title>Node4</title>
<a xlink:href="structstxxl_1_1choose__int__types.html" target="_top" xlink:title="stxxl::choose_int_types\l\&lt; my_pointer_size \&gt;">
<polygon fill="none" stroke="black" points="513.5,-158.583 513.5,-192.583 638.5,-192.583 638.5,-158.583 513.5,-158.583"/>
<text text-anchor="start" x="521.5" y="-179.583" font-family="Helvetica,sans-Serif" font-size="10.00">stxxl::choose_int_types</text>
<text text-anchor="middle" x="576" y="-166.583" font-family="Helvetica,sans-Serif" font-size="10.00">&lt; my_pointer_size &gt;</text>
</a>
</g>
<!-- Node4&#45;&gt;Node1 -->
<g id="edge32" class="edge"><title>Node4&#45;&gt;Node1</title>
<path fill="none" stroke="#9a32cd" stroke-dasharray="5,2" d="M630.64,-195.752C640.935,-198.869 651.703,-201.681 662,-203.583 774.638,-224.389 1115.86,-232.912 1254.49,-235.578"/>
<polygon fill="#9a32cd" stroke="#9a32cd" points="631.535,-192.364 620.945,-192.689 629.426,-199.039 631.535,-192.364"/>
<text text-anchor="middle" x="995" y="-233.583" font-family="Helvetica,sans-Serif" font-size="10.00"> current_elem</text>
</g>
<!-- Node4&#45;&gt;Node3 -->
<g id="edge8" class="edge"><title>Node4&#45;&gt;Node3</title>
<path fill="none" stroke="#9a32cd" stroke-dasharray="5,2" d="M649.114,-166.08C653.473,-165.56 657.793,-165.057 662,-164.583 692.01,-161.198 724.978,-157.876 754.07,-155.08"/>
<polygon fill="#9a32cd" stroke="#9a32cd" points="648.418,-162.638 638.912,-167.316 649.26,-169.587 648.418,-162.638"/>
<text text-anchor="middle" x="699" y="-194.583" font-family="Helvetica,sans-Serif" font-size="10.00"> seq_length</text>
<text text-anchor="middle" x="699" y="-181.583" font-family="Helvetica,sans-Serif" font-size="10.00">nextconsume</text>
<text text-anchor="middle" x="699" y="-168.583" font-family="Helvetica,sans-Serif" font-size="10.00">nextread</text>
</g>
<!-- Node5 -->
<g id="node9" class="node"><title>Node5</title>
<a xlink:href="structstxxl_1_1choose__int__types.html" target="_top" xlink:title="stxxl::choose_int_types\l\&lt; PtrSize \&gt;">
<polygon fill="none" stroke="black" points="241.5,-158.583 241.5,-192.583 366.5,-192.583 366.5,-158.583 241.5,-158.583"/>
<text text-anchor="start" x="249.5" y="-179.583" font-family="Helvetica,sans-Serif" font-size="10.00">stxxl::choose_int_types</text>
<text text-anchor="middle" x="304" y="-166.583" font-family="Helvetica,sans-Serif" font-size="10.00">&lt; PtrSize &gt;</text>
</a>
</g>
<!-- Node5&#45;&gt;Node4 -->
<g id="edge10" class="edge"><title>Node5&#45;&gt;Node4</title>
<path fill="none" stroke="orange" stroke-dasharray="5,2" d="M376.753,-175.583C419.272,-175.583 472.401,-175.583 513.101,-175.583"/>
<polygon fill="orange" stroke="orange" points="376.744,-172.083 366.744,-175.583 376.744,-179.083 376.744,-172.083"/>
<text text-anchor="middle" x="438" y="-179.583" font-family="Helvetica,sans-Serif" font-size="10.00"> &lt; my_pointer_size &gt;</text>
</g>
<!-- Node6&#45;&gt;Node3 -->
<g id="edge12" class="edge"><title>Node6&#45;&gt;Node3</title>
<path fill="none" stroke="#9a32cd" stroke-dasharray="5,2" d="M637.153,-91.3281C667.299,-92.4202 703.967,-95.5845 736,-103.583 759.923,-109.556 785.337,-120.809 804.558,-130.439"/>
<polygon fill="#9a32cd" stroke="#9a32cd" points="636.879,-87.8187 626.781,-91.0237 636.674,-94.8156 636.879,-87.8187"/>
<text text-anchor="middle" x="699" y="-107.583" font-family="Helvetica,sans-Serif" font-size="10.00"> completed</text>
</g>
<!-- Node7&#45;&gt;Node6 -->
<g id="edge16" class="edge"><title>Node7&#45;&gt;Node6</title>
<path fill="none" stroke="#9a32cd" stroke-dasharray="5,2" d="M349.2,-3.87813C389.957,2.17132 449.538,3.98799 490,-25.5827 507.725,-38.5365 491.816,-56.7481 508,-71.5827 512.989,-76.1559 518.973,-79.6873 525.295,-82.4133"/>
<polygon fill="#9a32cd" stroke="#9a32cd" points="348.576,-0.433447 339.266,-5.49079 349.698,-7.34298 348.576,-0.433447"/>
<text text-anchor="middle" x="438" y="-29.5827" font-family="Helvetica,sans-Serif" font-size="10.00"> m_mutex</text>
</g>
<!-- Node8&#45;&gt;Node6 -->
<g id="edge20" class="edge"><title>Node8&#45;&gt;Node6</title>
<path fill="none" stroke="#9a32cd" stroke-dasharray="5,2" d="M378.196,-91.5827C424.949,-91.5827 484.081,-91.5827 525.463,-91.5827"/>
<polygon fill="#9a32cd" stroke="#9a32cd" points="378.116,-88.0828 368.116,-91.5827 378.116,-95.0828 378.116,-88.0828"/>
<text text-anchor="middle" x="438" y="-95.5827" font-family="Helvetica,sans-Serif" font-size="10.00"> m_cond</text>
</g>
<!-- Node9 -->
<g id="node20" class="node"><title>Node9</title>
<a xlink:href="classstxxl_1_1counting__ptr.html" target="_top" xlink:title="High&#45;performance smart pointer used as a wrapping reference counting pointer. ">
<polygon fill="none" stroke="black" points="525.5,-28.5827 525.5,-62.5827 626.5,-62.5827 626.5,-28.5827 525.5,-28.5827"/>
<text text-anchor="start" x="533.5" y="-49.5827" font-family="Helvetica,sans-Serif" font-size="10.00">stxxl::counting_ptr</text>
<text text-anchor="middle" x="576" y="-36.5827" font-family="Helvetica,sans-Serif" font-size="10.00">&lt; Type &gt;</text>
</a>
</g>
<!-- Node9&#45;&gt;Node3 -->
<g id="edge24" class="edge"><title>Node9&#45;&gt;Node3</title>
<path fill="none" stroke="#9a32cd" stroke-dasharray="5,2" d="M636.763,-51.1805C667.437,-55.5272 704.684,-63.1799 736,-76.5827 767.124,-89.9029 798.162,-114.066 817.214,-130.464"/>
<polygon fill="#9a32cd" stroke="#9a32cd" points="637.005,-47.6819 626.63,-49.8296 636.08,-54.6205 637.005,-47.6819"/>
<text text-anchor="middle" x="699" y="-80.5827" font-family="Helvetica,sans-Serif" font-size="10.00"> read_reqs</text>
</g>
<!-- Node10 -->
<g id="node22" class="node"><title>Node10</title>
<a xlink:href="classstxxl_1_1completion__handler.html" target="_top" xlink:title="Completion handler class (Loki&#45;style). ">
<polygon fill="none" stroke="black" points="508.5,-365.083 508.5,-386.083 643.5,-386.083 643.5,-365.083 508.5,-365.083"/>
<text text-anchor="middle" x="576" y="-373.083" font-family="Helvetica,sans-Serif" font-size="10.00">stxxl::completion_handler</text>
</a>
</g>
<!-- Node10&#45;&gt;Node3 -->
<g id="edge26" class="edge"><title>Node10&#45;&gt;Node3</title>
<path fill="none" stroke="#9a32cd" stroke-dasharray="5,2" d="M595.811,-358.21C644.256,-315.727 768.255,-206.99 816.439,-164.736"/>
<polygon fill="#9a32cd" stroke="#9a32cd" points="593.403,-355.667 588.192,-364.892 598.018,-360.93 593.403,-355.667"/>
<text text-anchor="middle" x="699" y="-298.583" font-family="Helvetica,sans-Serif" font-size="10.00"> do_after_fetch</text>
</g>
<!-- Node11 -->
<g id="node24" class="node"><title>Node11</title>
<a xlink:href="structstxxl_1_1compat__unique__ptr.html" target="_top" xlink:title="stxxl::compat_unique\l_ptr\&lt; stxxl::completion\l_handler_impl \&gt;">
<polygon fill="none" stroke="black" points="243.5,-362.083 243.5,-409.083 364.5,-409.083 364.5,-362.083 243.5,-362.083"/>
<text text-anchor="start" x="251.5" y="-396.083" font-family="Helvetica,sans-Serif" font-size="10.00">stxxl::compat_unique</text>
<text text-anchor="start" x="251.5" y="-383.083" font-family="Helvetica,sans-Serif" font-size="10.00">_ptr&lt; stxxl::completion</text>
<text text-anchor="middle" x="304" y="-370.083" font-family="Helvetica,sans-Serif" font-size="10.00">_handler_impl &gt;</text>
</a>
</g>
<!-- Node11&#45;&gt;Node10 -->
<g id="edge28" class="edge"><title>Node11&#45;&gt;Node10</title>
<path fill="none" stroke="#9a32cd" stroke-dasharray="5,2" d="M374.935,-382.975C416.114,-381.461 467.704,-379.564 508.316,-378.071"/>
<polygon fill="#9a32cd" stroke="#9a32cd" points="374.568,-379.486 364.704,-383.351 374.825,-386.481 374.568,-379.486"/>
<text text-anchor="middle" x="438" y="-385.583" font-family="Helvetica,sans-Serif" font-size="10.00"> m_ptr</text>
</g>
<!-- Node12 -->
<g id="node26" class="node"><title>Node12</title>
<a xlink:href="structstxxl_1_1compat__unique__ptr.html" target="_top" xlink:title="stxxl::compat_unique\l_ptr\&lt; Type \&gt;">
<polygon fill="none" stroke="black" points="0.5,-368.583 0.5,-402.583 113.5,-402.583 113.5,-368.583 0.5,-368.583"/>
<text text-anchor="start" x="8.5" y="-389.583" font-family="Helvetica,sans-Serif" font-size="10.00">stxxl::compat_unique</text>
<text text-anchor="middle" x="57" y="-376.583" font-family="Helvetica,sans-Serif" font-size="10.00">_ptr&lt; Type &gt;</text>
</a>
</g>
<!-- Node12&#45;&gt;Node11 -->
<g id="edge30" class="edge"><title>Node12&#45;&gt;Node11</title>
<path fill="none" stroke="orange" stroke-dasharray="5,2" d="M123.917,-385.583C161.137,-385.583 207.104,-385.583 243.28,-385.583"/>
<polygon fill="orange" stroke="orange" points="123.667,-382.083 113.667,-385.583 123.667,-389.083 123.667,-382.083"/>
<text text-anchor="start" x="132.5" y="-402.583" font-family="Helvetica,sans-Serif" font-size="10.00"> &lt; stxxl::completion</text>
<text text-anchor="middle" x="177" y="-389.583" font-family="Helvetica,sans-Serif" font-size="10.00">_handler_impl &gt;</text>
</g>
<!-- Node13 -->
<g id="node29" class="node"><title>Node13</title>
<a xlink:href="classstxxl_1_1BIDArray.html" target="_top" xlink:title="stxxl::BIDArray\&lt; block\l_type::raw_size \&gt;">
<polygon fill="none" stroke="black" points="1072,-245.583 1072,-279.583 1190,-279.583 1190,-245.583 1072,-245.583"/>
<text text-anchor="start" x="1080" y="-266.583" font-family="Helvetica,sans-Serif" font-size="10.00">stxxl::BIDArray&lt; block</text>
<text text-anchor="middle" x="1131" y="-253.583" font-family="Helvetica,sans-Serif" font-size="10.00">_type::raw_size &gt;</text>
</a>
</g>
<!-- Node13&#45;&gt;Node1 -->
<g id="edge34" class="edge"><title>Node13&#45;&gt;Node1</title>
<path fill="none" stroke="#9a32cd" stroke-dasharray="5,2" d="M1200.47,-252.713C1218.24,-250.188 1237.19,-247.496 1254.41,-245.048"/>
<polygon fill="#9a32cd" stroke="#9a32cd" points="1199.57,-249.305 1190.16,-254.177 1200.56,-256.236 1199.57,-249.305"/>
<text text-anchor="middle" x="1222" y="-254.583" font-family="Helvetica,sans-Serif" font-size="10.00"> bids_</text>
</g>
<!-- Node14&#45;&gt;Node13 -->
<g id="edge36" class="edge"><title>Node14&#45;&gt;Node13</title>
<path fill="none" stroke="midnightblue" d="M644.379,-260.829C754.178,-261.225 967.964,-261.995 1071.7,-262.369"/>
<polygon fill="midnightblue" stroke="midnightblue" points="644.097,-257.328 634.085,-260.792 644.072,-264.328 644.097,-257.328"/>
</g>
<!-- Node16 -->
<g id="node37" class="node"><title>Node16</title>
<a xlink:href="classstxxl_1_1BIDArray.html" target="_top" xlink:title="stxxl::BIDArray\&lt; BlockSize \&gt;">
<polygon fill="none" stroke="black" points="761.5,-284.083 761.5,-305.083 910.5,-305.083 910.5,-284.083 761.5,-284.083"/>
<text text-anchor="middle" x="836" y="-292.083" font-family="Helvetica,sans-Serif" font-size="10.00">stxxl::BIDArray&lt; BlockSize &gt;</text>
</a>
</g>
<!-- Node14&#45;&gt;Node16 -->
<g id="edge46" class="edge"><title>Node14&#45;&gt;Node16</title>
<path fill="none" stroke="midnightblue" d="M643.957,-269.469C679.995,-274.182 724.344,-279.981 761.34,-284.819"/>
<polygon fill="midnightblue" stroke="midnightblue" points="644.395,-265.997 634.025,-268.171 643.487,-272.938 644.395,-265.997"/>
</g>
<!-- Node15&#45;&gt;Node14 -->
<g id="edge40" class="edge"><title>Node15&#45;&gt;Node14</title>
<path fill="none" stroke="orange" stroke-dasharray="5,2" d="M367.757,-264.411C413.115,-263.577 473.579,-262.465 517.665,-261.655"/>
<polygon fill="orange" stroke="orange" points="367.672,-260.912 357.738,-264.595 367.801,-267.91 367.672,-260.912"/>
<text text-anchor="middle" x="438" y="-267.583" font-family="Helvetica,sans-Serif" font-size="10.00"> &lt; BID&lt; BlockSize &gt; &gt;</text>
</g>
<!-- Node16&#45;&gt;Node13 -->
<g id="edge44" class="edge"><title>Node16&#45;&gt;Node13</title>
<path fill="none" stroke="orange" stroke-dasharray="5,2" d="M920.938,-285.369C969.165,-280.138 1028.35,-273.718 1071.59,-269.027"/>
<polygon fill="orange" stroke="orange" points="920.387,-281.908 910.822,-286.466 921.141,-288.867 920.387,-281.908"/>
<text text-anchor="middle" x="995" y="-286.583" font-family="Helvetica,sans-Serif" font-size="10.00"> &lt; block_type::raw_size &gt;</text>
</g>
</g>
</svg>
