<?xml version="1.0" encoding="UTF-8" standalone="no"?>
<!DOCTYPE svg PUBLIC "-//W3C//DTD SVG 1.1//EN"
 "http://www.w3.org/Graphics/SVG/1.1/DTD/svg11.dtd">
<!-- Generated by graphviz version 2.26.3 (20100126.1600)
 -->
<!-- Title: stxxl::priority_queue_local::ext_merger&lt; BlockType, Cmp, Arity, AllocStr &gt; Pages: 1 -->
<svg width="1584pt" height="370pt"
 viewBox="0.00 0.00 1584.00 370.00" xmlns="http://www.w3.org/2000/svg" xmlns:xlink="http://www.w3.org/1999/xlink">
<g id="graph1" class="graph" transform="scale(1 1) rotate(0) translate(4 366)">
<title>stxxl::priority_queue_local::ext_merger&lt; BlockType, Cmp, Arity, AllocStr &gt;</title>
<!-- Node1 -->
<g id="node1" class="node"><title>Node1</title>
<polygon fill="#bfbfbf" stroke="black" points="1140,-108.5 1140,-155.5 1304,-155.5 1304,-108.5 1140,-108.5"/>
<text text-anchor="start" x="1148" y="-142.5" font-family="Helvetica,sans-Serif" font-size="10.00">stxxl::priority_queue</text>
<text text-anchor="start" x="1148" y="-129.5" font-family="Helvetica,sans-Serif" font-size="10.00">_local::ext_merger&lt; BlockType,</text>
<text text-anchor="middle" x="1222" y="-116.5" font-family="Helvetica,sans-Serif" font-size="10.00"> Cmp, Arity, AllocStr &gt;</text>
</g>
<!-- Node12 -->
<g id="node26" class="node"><title>Node12</title>
<a xlink:href="structstxxl_1_1priority__queue__local_1_1ext__merger_1_1sequence__state.html" target="_top" xlink:title="stxxl::priority_queue\l_local::ext_merger\&lt; BlockType,\l Cmp, Arity, AllocStr \&gt;::sequence_state">
<polygon fill="none" stroke="black" points="1378.5,-108.5 1378.5,-155.5 1575.5,-155.5 1575.5,-108.5 1378.5,-108.5"/>
<text text-anchor="start" x="1386.5" y="-142.5" font-family="Helvetica,sans-Serif" font-size="10.00">stxxl::priority_queue</text>
<text text-anchor="start" x="1386.5" y="-129.5" font-family="Helvetica,sans-Serif" font-size="10.00">_local::ext_merger&lt; BlockType,</text>
<text text-anchor="middle" x="1477" y="-116.5" font-family="Helvetica,sans-Serif" font-size="10.00"> Cmp, Arity, AllocStr &gt;::sequence_state</text>
</a>
</g>
<!-- Node1&#45;&gt;Node12 -->
<g id="edge34" class="edge"><title>Node1&#45;&gt;Node12</title>
<path fill="none" stroke="#9a32cd" stroke-dasharray="5,2" d="M1314.17,-132C1334.95,-132 1357.09,-132 1378.13,-132"/>
<polygon fill="#9a32cd" stroke="#9a32cd" points="1314.09,-128.5 1304.09,-132 1314.09,-135.5 1314.09,-128.5"/>
<text text-anchor="middle" x="1341" y="-136" font-family="Helvetica,sans-Serif" font-size="10.00"> merger</text>
</g>
<!-- Node2 -->
<g id="node2" class="node"><title>Node2</title>
<a xlink:href="classstxxl_1_1noncopyable.html" target="_top" xlink:title="stxxl::noncopyable">
<polygon fill="none" stroke="black" points="324,-138.5 324,-159.5 426,-159.5 426,-138.5 324,-138.5"/>
<text text-anchor="middle" x="375" y="-146.5" font-family="Helvetica,sans-Serif" font-size="10.00">stxxl::noncopyable</text>
</a>
</g>
<!-- Node2&#45;&gt;Node1 -->
<g id="edge2" class="edge"><title>Node2&#45;&gt;Node1</title>
<path fill="none" stroke="#8b1a1a" d="M398.552,-132.4C431.791,-110.093 495.212,-71.5623 556,-57 620.88,-41.4574 959.335,-55.251 1030,-68 1076.85,-76.4531 1127.9,-93.8878 1165.57,-108.428"/>
<polygon fill="#8b1a1a" stroke="#8b1a1a" points="396.295,-129.703 390.005,-138.228 400.239,-135.487 396.295,-129.703"/>
</g>
<!-- Node3 -->
<g id="node4" class="node"><title>Node3</title>
<a xlink:href="classstxxl_1_1read__write__pool.html" target="_top" xlink:title="Implements dynamically resizable buffered writing and prefetched reading pool. ">
<polygon fill="none" stroke="black" points="890.5,-155 890.5,-189 1009.5,-189 1009.5,-155 890.5,-155"/>
<text text-anchor="start" x="898.5" y="-176" font-family="Helvetica,sans-Serif" font-size="10.00">stxxl::read_write_pool</text>
<text text-anchor="middle" x="950" y="-163" font-family="Helvetica,sans-Serif" font-size="10.00">&lt; BlockType &gt;</text>
</a>
</g>
<!-- Node2&#45;&gt;Node3 -->
<g id="edge6" class="edge"><title>Node2&#45;&gt;Node3</title>
<path fill="none" stroke="#8b1a1a" d="M436.586,-159.986C443.133,-161.052 449.699,-162.078 456,-163 630.306,-188.504 675.984,-187.172 852,-180 864.451,-179.493 877.77,-178.624 890.449,-177.642"/>
<polygon fill="#8b1a1a" stroke="#8b1a1a" points="436.794,-156.473 426.356,-158.288 435.647,-163.378 436.794,-156.473"/>
</g>
<!-- Node4 -->
<g id="node7" class="node"><title>Node4</title>
<a xlink:href="classstxxl_1_1prefetch__pool.html" target="_top" xlink:title="Implements dynamically resizable prefetching pool. ">
<polygon fill="none" stroke="black" points="583.5,-222 583.5,-256 690.5,-256 690.5,-222 583.5,-222"/>
<text text-anchor="start" x="591.5" y="-243" font-family="Helvetica,sans-Serif" font-size="10.00">stxxl::prefetch_pool</text>
<text text-anchor="middle" x="637" y="-230" font-family="Helvetica,sans-Serif" font-size="10.00">&lt; BlockType &gt;</text>
</a>
</g>
<!-- Node2&#45;&gt;Node4 -->
<g id="edge10" class="edge"><title>Node2&#45;&gt;Node4</title>
<path fill="none" stroke="#8b1a1a" d="M401.125,-164.883C416.644,-173.8 436.954,-184.59 456,-192 497.603,-208.186 546.731,-220.544 583.299,-228.516"/>
<polygon fill="#8b1a1a" stroke="#8b1a1a" points="402.534,-161.652 392.136,-159.62 398.997,-167.693 402.534,-161.652"/>
</g>
<!-- Node9 -->
<g id="node18" class="node"><title>Node9</title>
<a xlink:href="classstxxl_1_1write__pool.html" target="_top" xlink:title="Implements dynamically resizable buffered writing pool. ">
<polygon fill="none" stroke="black" points="588.5,-132 588.5,-166 685.5,-166 685.5,-132 588.5,-132"/>
<text text-anchor="start" x="596.5" y="-153" font-family="Helvetica,sans-Serif" font-size="10.00">stxxl::write_pool&lt;</text>
<text text-anchor="middle" x="637" y="-140" font-family="Helvetica,sans-Serif" font-size="10.00"> BlockType &gt;</text>
</a>
</g>
<!-- Node2&#45;&gt;Node9 -->
<g id="edge22" class="edge"><title>Node2&#45;&gt;Node9</title>
<path fill="none" stroke="#8b1a1a" d="M436.345,-149C482.638,-149 545.296,-149 588.206,-149"/>
<polygon fill="#8b1a1a" stroke="#8b1a1a" points="436.138,-145.5 426.138,-149 436.138,-152.5 436.138,-145.5"/>
</g>
<!-- Node2&#45;&gt;Node12 -->
<g id="edge32" class="edge"><title>Node2&#45;&gt;Node12</title>
<path fill="none" stroke="#8b1a1a" d="M387.467,-130.049C401.75,-109.74 426.963,-77.881 456,-59 526.933,-12.8764 552.39,-0 637,-0 637,-0 637,-0 1222,-0 1315.22,-0 1408.32,-70.4332 1451.73,-108.401"/>
<polygon fill="#8b1a1a" stroke="#8b1a1a" points="384.457,-128.25 381.699,-138.48 390.234,-132.203 384.457,-128.25"/>
</g>
<!-- Node3&#45;&gt;Node1 -->
<g id="edge4" class="edge"><title>Node3&#45;&gt;Node1</title>
<path fill="none" stroke="#9a32cd" stroke-dasharray="5,2" d="M1019.78,-161.738C1056.38,-156.355 1101.46,-149.727 1139.75,-144.095"/>
<polygon fill="#9a32cd" stroke="#9a32cd" points="1019.08,-158.304 1009.69,-163.222 1020.09,-165.23 1019.08,-158.304"/>
<text text-anchor="middle" x="1085" y="-160" font-family="Helvetica,sans-Serif" font-size="10.00"> pool</text>
</g>
<!-- Node4&#45;&gt;Node3 -->
<g id="edge8" class="edge"><title>Node4&#45;&gt;Node3</title>
<path fill="none" stroke="#9a32cd" stroke-dasharray="5,2" d="M700.696,-233.343C743.844,-228.653 801.904,-220.665 852,-208 871.33,-203.113 892.142,-195.779 909.594,-189.003"/>
<polygon fill="#9a32cd" stroke="#9a32cd" points="700.194,-229.876 690.617,-234.408 700.93,-236.837 700.194,-229.876"/>
<text text-anchor="middle" x="794" y="-232" font-family="Helvetica,sans-Serif" font-size="10.00"> p_pool</text>
</g>
<!-- Node5 -->
<g id="node10" class="node"><title>Node5</title>
<a xlink:href="structstxxl_1_1choose__int__types.html" target="_top" xlink:title="stxxl::choose_int_types\l\&lt; my_pointer_size \&gt;">
<polygon fill="none" stroke="black" points="312.5,-286 312.5,-320 437.5,-320 437.5,-286 312.5,-286"/>
<text text-anchor="start" x="320.5" y="-307" font-family="Helvetica,sans-Serif" font-size="10.00">stxxl::choose_int_types</text>
<text text-anchor="middle" x="375" y="-294" font-family="Helvetica,sans-Serif" font-size="10.00">&lt; my_pointer_size &gt;</text>
</a>
</g>
<!-- Node5&#45;&gt;Node1 -->
<g id="edge28" class="edge"><title>Node5&#45;&gt;Node1</title>
<path fill="none" stroke="#9a32cd" stroke-dasharray="5,2" d="M447.933,-297.47C476.103,-295.142 508.579,-292.223 538,-289 678.081,-273.654 713.979,-273.432 852,-245 932.14,-228.491 950.964,-219.173 1030,-198 1070.93,-187.036 1081.88,-186.619 1122,-173 1137.1,-167.874 1153.2,-161.632 1167.97,-155.58"/>
<polygon fill="#9a32cd" stroke="#9a32cd" points="447.445,-293.998 437.764,-298.301 448.015,-300.975 447.445,-293.998"/>
<text text-anchor="middle" x="794" y="-283" font-family="Helvetica,sans-Serif" font-size="10.00"> k</text>
<text text-anchor="middle" x="794" y="-270" font-family="Helvetica,sans-Serif" font-size="10.00">log_k</text>
</g>
<!-- Node5&#45;&gt;Node4 -->
<g id="edge12" class="edge"><title>Node5&#45;&gt;Node4</title>
<path fill="none" stroke="#9a32cd" stroke-dasharray="5,2" d="M432.824,-282.79C440.572,-280.357 448.449,-278.022 456,-276 498.29,-264.673 546.941,-254.906 583.146,-248.256"/>
<polygon fill="#9a32cd" stroke="#9a32cd" points="431.563,-279.519 423.112,-285.908 433.703,-286.184 431.563,-279.519"/>
<text text-anchor="middle" x="497" y="-280" font-family="Helvetica,sans-Serif" font-size="10.00"> free_blocks_size</text>
</g>
<!-- Node5&#45;&gt;Node12 -->
<g id="edge36" class="edge"><title>Node5&#45;&gt;Node12</title>
<path fill="none" stroke="#9a32cd" stroke-dasharray="5,2" d="M446.521,-322.467C498.859,-335.015 571.813,-349 637,-349 637,-349 637,-349 1222,-349 1340.3,-349 1431.65,-211.878 1464.15,-155.636"/>
<polygon fill="#9a32cd" stroke="#9a32cd" points="447.21,-319.033 436.666,-320.063 445.551,-325.834 447.21,-319.033"/>
<text text-anchor="middle" x="950" y="-353" font-family="Helvetica,sans-Serif" font-size="10.00"> current</text>
</g>
<!-- Node6 -->
<g id="node12" class="node"><title>Node6</title>
<a xlink:href="structstxxl_1_1choose__int__types.html" target="_top" xlink:title="stxxl::choose_int_types\l\&lt; PtrSize \&gt;">
<polygon fill="none" stroke="black" points="19.5,-286 19.5,-320 144.5,-320 144.5,-286 19.5,-286"/>
<text text-anchor="start" x="27.5" y="-307" font-family="Helvetica,sans-Serif" font-size="10.00">stxxl::choose_int_types</text>
<text text-anchor="middle" x="82" y="-294" font-family="Helvetica,sans-Serif" font-size="10.00">&lt; PtrSize &gt;</text>
</a>
</g>
<!-- Node6&#45;&gt;Node5 -->
<g id="edge14" class="edge"><title>Node6&#45;&gt;Node5</title>
<path fill="none" stroke="orange" stroke-dasharray="5,2" d="M154.946,-303C203.312,-303 266.12,-303 312.248,-303"/>
<polygon fill="orange" stroke="orange" points="154.856,-299.5 144.856,-303 154.856,-306.5 154.856,-299.5"/>
<text text-anchor="middle" x="238" y="-307" font-family="Helvetica,sans-Serif" font-size="10.00"> &lt; my_pointer_size &gt;</text>
</g>
<!-- Node7 -->
<g id="node14" class="node"><title>Node7</title>
<a xlink:href="structstxxl_1_1compat__hash__map.html" target="_top" xlink:title="stxxl::compat_hash\l_map\&lt; bid_type, busy\l_entry, bid_hash \&gt;">
<polygon fill="none" stroke="black" points="316,-215.5 316,-262.5 434,-262.5 434,-215.5 316,-215.5"/>
<text text-anchor="start" x="324" y="-249.5" font-family="Helvetica,sans-Serif" font-size="10.00">stxxl::compat_hash</text>
<text text-anchor="start" x="324" y="-236.5" font-family="Helvetica,sans-Serif" font-size="10.00">_map&lt; bid_type, busy</text>
<text text-anchor="middle" x="375" y="-223.5" font-family="Helvetica,sans-Serif" font-size="10.00">_entry, bid_hash &gt;</text>
</a>
</g>
<!-- Node7&#45;&gt;Node4 -->
<g id="edge16" class="edge"><title>Node7&#45;&gt;Node4</title>
<path fill="none" stroke="#9a32cd" stroke-dasharray="5,2" d="M444.36,-239C487.92,-239 543.257,-239 583.435,-239"/>
<polygon fill="#9a32cd" stroke="#9a32cd" points="444.125,-235.5 434.125,-239 444.125,-242.5 444.125,-235.5"/>
<text text-anchor="middle" x="497" y="-243" font-family="Helvetica,sans-Serif" font-size="10.00"> busy_blocks</text>
</g>
<!-- Node8 -->
<g id="node16" class="node"><title>Node8</title>
<a xlink:href="structstxxl_1_1compat__hash__map.html" target="_top" xlink:title="stxxl::compat_hash\l_map\&lt; KeyType, MappedType,\l HashType \&gt;">
<polygon fill="none" stroke="black" points="0,-215.5 0,-262.5 164,-262.5 164,-215.5 0,-215.5"/>
<text text-anchor="start" x="8" y="-249.5" font-family="Helvetica,sans-Serif" font-size="10.00">stxxl::compat_hash</text>
<text text-anchor="start" x="8" y="-236.5" font-family="Helvetica,sans-Serif" font-size="10.00">_map&lt; KeyType, MappedType,</text>
<text text-anchor="middle" x="82" y="-223.5" font-family="Helvetica,sans-Serif" font-size="10.00"> HashType &gt;</text>
</a>
</g>
<!-- Node8&#45;&gt;Node7 -->
<g id="edge18" class="edge"><title>Node8&#45;&gt;Node7</title>
<path fill="none" stroke="orange" stroke-dasharray="5,2" d="M174.056,-239C220.371,-239 275.149,-239 315.806,-239"/>
<polygon fill="orange" stroke="orange" points="174.006,-235.5 164.006,-239 174.006,-242.5 174.006,-235.5"/>
<text text-anchor="start" x="182.5" y="-256" font-family="Helvetica,sans-Serif" font-size="10.00"> &lt; bid_type, busy_entry,</text>
<text text-anchor="middle" x="238" y="-243" font-family="Helvetica,sans-Serif" font-size="10.00"> bid_hash &gt;</text>
</g>
<!-- Node9&#45;&gt;Node3 -->
<g id="edge20" class="edge"><title>Node9&#45;&gt;Node3</title>
<path fill="none" stroke="#9a32cd" stroke-dasharray="5,2" d="M695.613,-153.307C751.226,-157.394 834.392,-163.505 890.345,-167.616"/>
<polygon fill="#9a32cd" stroke="#9a32cd" points="695.792,-149.811 685.563,-152.569 695.279,-156.792 695.792,-149.811"/>
<text text-anchor="middle" x="794" y="-168" font-family="Helvetica,sans-Serif" font-size="10.00"> w_pool</text>
</g>
<!-- Node10 -->
<g id="node21" class="node"><title>Node10</title>
<a xlink:href="classstxxl_1_1priority__queue__local_1_1internal__bounded__stack.html" target="_top" xlink:title="stxxl::priority_queue\l_local::internal_bounded\l_stack\&lt; unsigned_type, arity \&gt;">
<polygon fill="none" stroke="black" points="870,-77.5 870,-124.5 1030,-124.5 1030,-77.5 870,-77.5"/>
<text text-anchor="start" x="878" y="-111.5" font-family="Helvetica,sans-Serif" font-size="10.00">stxxl::priority_queue</text>
<text text-anchor="start" x="878" y="-98.5" font-family="Helvetica,sans-Serif" font-size="10.00">_local::internal_bounded</text>
<text text-anchor="middle" x="950" y="-85.5" font-family="Helvetica,sans-Serif" font-size="10.00">_stack&lt; unsigned_type, arity &gt;</text>
</a>
</g>
<!-- Node10&#45;&gt;Node1 -->
<g id="edge24" class="edge"><title>Node10&#45;&gt;Node1</title>
<path fill="none" stroke="#9a32cd" stroke-dasharray="5,2" d="M1040.08,-110.789C1066.48,-113.702 1095.4,-116.935 1122,-120 1127.82,-120.671 1133.83,-121.371 1139.88,-122.082"/>
<polygon fill="#9a32cd" stroke="#9a32cd" points="1040.41,-107.305 1030.09,-109.689 1039.64,-114.262 1040.41,-107.305"/>
<text text-anchor="middle" x="1085" y="-124" font-family="Helvetica,sans-Serif" font-size="10.00"> free_segments</text>
</g>
<!-- Node11 -->
<g id="node23" class="node"><title>Node11</title>
<a xlink:href="classstxxl_1_1priority__queue__local_1_1internal__bounded__stack.html" target="_top" xlink:title="Similar to std::stack, with the following differences: ">
<polygon fill="none" stroke="black" points="556.5,-66.5 556.5,-113.5 717.5,-113.5 717.5,-66.5 556.5,-66.5"/>
<text text-anchor="start" x="564.5" y="-100.5" font-family="Helvetica,sans-Serif" font-size="10.00">stxxl::priority_queue</text>
<text text-anchor="start" x="564.5" y="-87.5" font-family="Helvetica,sans-Serif" font-size="10.00">_local::internal_bounded</text>
<text text-anchor="middle" x="637" y="-74.5" font-family="Helvetica,sans-Serif" font-size="10.00">_stack&lt; ValueType, MaxSize &gt;</text>
</a>
</g>
<!-- Node11&#45;&gt;Node10 -->
<g id="edge26" class="edge"><title>Node11&#45;&gt;Node10</title>
<path fill="none" stroke="orange" stroke-dasharray="5,2" d="M727.651,-93.1858C772.635,-94.7667 826.495,-96.6596 869.939,-98.1864"/>
<polygon fill="orange" stroke="orange" points="727.722,-89.6862 717.605,-92.8328 727.476,-96.6819 727.722,-89.6862"/>
<text text-anchor="middle" x="794" y="-101" font-family="Helvetica,sans-Serif" font-size="10.00"> &lt; unsigned_type, arity &gt;</text>
</g>
<!-- Node12&#45;&gt;Node1 -->
<g id="edge30" class="edge"><title>Node12&#45;&gt;Node1</title>
<path fill="none" stroke="#9a32cd" stroke-dasharray="5,2" d="M1368.14,-114.719C1352.66,-113.819 1336.94,-113.739 1322,-115 1316.21,-115.489 1310.25,-116.134 1304.26,-116.887"/>
<polygon fill="#9a32cd" stroke="#9a32cd" points="1368.04,-118.221 1378.26,-115.423 1368.53,-111.238 1368.04,-118.221"/>
<text text-anchor="middle" x="1341" y="-119" font-family="Helvetica,sans-Serif" font-size="10.00"> states</text>
</g>
</g>
</svg>
