<?xml version="1.0" encoding="UTF-8" standalone="no"?>
<!DOCTYPE svg PUBLIC "-//W3C//DTD SVG 1.1//EN"
 "http://www.w3.org/Graphics/SVG/1.1/DTD/svg11.dtd">
<!-- Generated by graphviz version 2.26.3 (20100126.1600)
 -->
<!-- Title: stxxl::state&lt; ValueType &gt; Pages: 1 -->
<svg width="256pt" height="162pt"
 viewBox="0.00 0.00 256.00 162.00" xmlns="http://www.w3.org/2000/svg" xmlns:xlink="http://www.w3.org/1999/xlink">
<g id="graph1" class="graph" transform="scale(1 1) rotate(0) translate(4 158)">
<title>stxxl::state&lt; ValueType &gt;</title>
<!-- Node1 -->
<g id="node1" class="node"><title>Node1</title>
<polygon fill="#bfbfbf" stroke="black" points="0,-0.5 0,-21.5 134,-21.5 134,-0.5 0,-0.5"/>
<text text-anchor="middle" x="67" y="-8.5" font-family="Helvetica,sans-Serif" font-size="10.00">stxxl::state&lt; ValueType &gt;</text>
</g>
<!-- Node2 -->
<g id="node2" class="node"><title>Node2</title>
<a xlink:href="classstxxl_1_1noncopyable.html" target="_top" xlink:title="stxxl::noncopyable">
<polygon fill="none" stroke="black" points="16,-132.5 16,-153.5 118,-153.5 118,-132.5 16,-132.5"/>
<text text-anchor="middle" x="67" y="-140.5" font-family="Helvetica,sans-Serif" font-size="10.00">stxxl::noncopyable</text>
</a>
</g>
<!-- Node2&#45;&gt;Node1 -->
<g id="edge2" class="edge"><title>Node2&#45;&gt;Node1</title>
<path fill="none" stroke="#8b1a1a" d="M45.4588,-125.489C36.7238,-117.01 27.6186,-106.056 23,-94 19.5021,-84.8693 19.9945,-81.3044 23,-72 29.422,-52.119 45.004,-33.2611 55.7874,-21.9135"/>
<polygon fill="#8b1a1a" stroke="#8b1a1a" points="43.1633,-128.132 52.9177,-132.268 47.8714,-122.952 43.1633,-128.132"/>
</g>
<!-- Node3 -->
<g id="node4" class="node"><title>Node3</title>
<a xlink:href="classstxxl_1_1mutex.html" target="_top" xlink:title="stxxl::mutex">
<polygon fill="none" stroke="black" points="32,-72.5 32,-93.5 102,-93.5 102,-72.5 32,-72.5"/>
<text text-anchor="middle" x="67" y="-80.5" font-family="Helvetica,sans-Serif" font-size="10.00">stxxl::mutex</text>
</a>
</g>
<!-- Node2&#45;&gt;Node3 -->
<g id="edge6" class="edge"><title>Node2&#45;&gt;Node3</title>
<path fill="none" stroke="#8b1a1a" d="M67,-122.231C67,-112.592 67,-101.544 67,-93.6339"/>
<polygon fill="#8b1a1a" stroke="#8b1a1a" points="63.5001,-122.273 67,-132.273 70.5001,-122.273 63.5001,-122.273"/>
</g>
<!-- Node4 -->
<g id="node7" class="node"><title>Node4</title>
<a xlink:href="classstxxl_1_1condition__variable.html" target="_top" xlink:title="stxxl::condition_variable">
<polygon fill="none" stroke="black" points="120,-72.5 120,-93.5 248,-93.5 248,-72.5 120,-72.5"/>
<text text-anchor="middle" x="184" y="-80.5" font-family="Helvetica,sans-Serif" font-size="10.00">stxxl::condition_variable</text>
</a>
</g>
<!-- Node2&#45;&gt;Node4 -->
<g id="edge10" class="edge"><title>Node2&#45;&gt;Node4</title>
<path fill="none" stroke="#8b1a1a" d="M96.6804,-127.779C117.447,-117.13 144.674,-103.167 163.165,-93.6846"/>
<polygon fill="#8b1a1a" stroke="#8b1a1a" points="94.949,-124.734 87.6479,-132.411 98.1432,-130.962 94.949,-124.734"/>
</g>
<!-- Node3&#45;&gt;Node1 -->
<g id="edge4" class="edge"><title>Node3&#45;&gt;Node1</title>
<path fill="none" stroke="#9a32cd" stroke-dasharray="5,2" d="M67,-62.2348C67,-48.969 67,-32.3188 67,-21.6674"/>
<polygon fill="#9a32cd" stroke="#9a32cd" points="63.5001,-62.3761 67,-72.3762 70.5001,-62.3762 63.5001,-62.3761"/>
<text text-anchor="middle" x="90" y="-44.5" font-family="Helvetica,sans-Serif" font-size="10.00"> m_mutex</text>
</g>
<!-- Node4&#45;&gt;Node1 -->
<g id="edge8" class="edge"><title>Node4&#45;&gt;Node1</title>
<path fill="none" stroke="#9a32cd" stroke-dasharray="5,2" d="M159.317,-66.7833C146.736,-58.6135 131.144,-48.6347 117,-40 106.722,-33.7255 95.0932,-26.9613 85.6384,-21.5451"/>
<polygon fill="#9a32cd" stroke="#9a32cd" points="157.594,-69.8378 167.882,-72.3673 161.417,-63.9739 157.594,-69.8378"/>
<text text-anchor="middle" x="159.5" y="-44.5" font-family="Helvetica,sans-Serif" font-size="10.00"> m_cond</text>
</g>
</g>
</svg>
