<?xml version="1.0" encoding="UTF-8" standalone="no"?>
<!DOCTYPE svg PUBLIC "-//W3C//DTD SVG 1.1//EN"
 "http://www.w3.org/Graphics/SVG/1.1/DTD/svg11.dtd">
<!-- Generated by graphviz version 2.26.3 (20100126.1600)
 -->
<!-- Title: stxxl::fileperblock_file&lt; base_file_type &gt; Pages: 1 -->
<svg width="354pt" height="422pt"
 viewBox="0.00 0.00 354.00 422.00" xmlns="http://www.w3.org/2000/svg" xmlns:xlink="http://www.w3.org/1999/xlink">
<g id="graph1" class="graph" transform="scale(1 1) rotate(0) translate(4 418)">
<title>stxxl::fileperblock_file&lt; base_file_type &gt;</title>
<!-- Node1 -->
<g id="node1" class="node"><title>Node1</title>
<polygon fill="#bfbfbf" stroke="black" points="0,-1 0,-35 122,-35 122,-1 0,-1"/>
<text text-anchor="start" x="8" y="-22" font-family="Helvetica,sans-Serif" font-size="10.00">stxxl::fileperblock</text>
<text text-anchor="middle" x="61" y="-9" font-family="Helvetica,sans-Serif" font-size="10.00">_file&lt; base_file_type &gt;</text>
</g>
<!-- Node2 -->
<g id="node2" class="node"><title>Node2</title>
<a xlink:href="classstxxl_1_1disk__queued__file.html" target="_top" xlink:title="Implementation of some file methods based on serving_request. ">
<polygon fill="none" stroke="black" points="0.5,-74.5 0.5,-95.5 121.5,-95.5 121.5,-74.5 0.5,-74.5"/>
<text text-anchor="middle" x="61" y="-82.5" font-family="Helvetica,sans-Serif" font-size="10.00">stxxl::disk_queued_file</text>
</a>
</g>
<!-- Node2&#45;&gt;Node1 -->
<g id="edge2" class="edge"><title>Node2&#45;&gt;Node1</title>
<path fill="none" stroke="midnightblue" d="M61,-64.1655C61,-54.7973 61,-43.8796 61,-35.0139"/>
<polygon fill="midnightblue" stroke="midnightblue" points="57.5001,-64.2353 61,-74.2353 64.5001,-64.2353 57.5001,-64.2353"/>
</g>
<!-- Node3 -->
<g id="node4" class="node"><title>Node3</title>
<a xlink:href="classstxxl_1_1file.html" target="_top" xlink:title="Defines interface of file. ">
<polygon fill="none" stroke="black" points="33,-134.5 33,-155.5 89,-155.5 89,-134.5 33,-134.5"/>
<text text-anchor="middle" x="61" y="-142.5" font-family="Helvetica,sans-Serif" font-size="10.00">stxxl::file</text>
</a>
</g>
<!-- Node3&#45;&gt;Node2 -->
<g id="edge4" class="edge"><title>Node3&#45;&gt;Node2</title>
<path fill="none" stroke="midnightblue" d="M61,-124.231C61,-114.592 61,-103.544 61,-95.6339"/>
<polygon fill="midnightblue" stroke="midnightblue" points="57.5001,-124.273 61,-134.273 64.5001,-124.273 57.5001,-124.273"/>
</g>
<!-- Node4 -->
<g id="node6" class="node"><title>Node4</title>
<a xlink:href="classstxxl_1_1noncopyable.html" target="_top" xlink:title="stxxl::noncopyable">
<polygon fill="none" stroke="black" points="3,-385.5 3,-406.5 105,-406.5 105,-385.5 3,-385.5"/>
<text text-anchor="middle" x="54" y="-393.5" font-family="Helvetica,sans-Serif" font-size="10.00">stxxl::noncopyable</text>
</a>
</g>
<!-- Node4&#45;&gt;Node3 -->
<g id="edge6" class="edge"><title>Node4&#45;&gt;Node3</title>
<path fill="none" stroke="#8b1a1a" d="M52.3318,-374.856C49.8594,-339.728 46.0208,-267.152 51,-206 52.4457,-188.244 56.2212,-167.867 58.6972,-155.733"/>
<polygon fill="#8b1a1a" stroke="#8b1a1a" points="48.8735,-375.549 53.1032,-385.263 55.8543,-375.032 48.8735,-375.549"/>
</g>
<!-- Node6 -->
<g id="node10" class="node"><title>Node6</title>
<a xlink:href="classstxxl_1_1mutex.html" target="_top" xlink:title="stxxl::mutex">
<polygon fill="none" stroke="black" points="60,-299.5 60,-320.5 130,-320.5 130,-299.5 60,-299.5"/>
<text text-anchor="middle" x="95" y="-307.5" font-family="Helvetica,sans-Serif" font-size="10.00">stxxl::mutex</text>
</a>
</g>
<!-- Node4&#45;&gt;Node6 -->
<g id="edge12" class="edge"><title>Node4&#45;&gt;Node6</title>
<path fill="none" stroke="#8b1a1a" d="M63.4235,-376.234C71.6694,-358.937 83.3324,-334.474 89.9315,-320.632"/>
<polygon fill="#8b1a1a" stroke="#8b1a1a" points="60.1715,-374.922 59.0274,-385.455 66.4902,-377.934 60.1715,-374.922"/>
</g>
<!-- Node5 -->
<g id="node8" class="node"><title>Node5</title>
<a xlink:href="classstxxl_1_1atomic__counted__object.html" target="_top" xlink:title="Provides reference counting abilities for use with counting_ptr with mutex locking. ">
<polygon fill="none" stroke="black" points="60,-207 60,-241 176,-241 176,-207 60,-207"/>
<text text-anchor="start" x="68" y="-228" font-family="Helvetica,sans-Serif" font-size="10.00">stxxl::atomic_counted</text>
<text text-anchor="middle" x="118" y="-215" font-family="Helvetica,sans-Serif" font-size="10.00">_object</text>
</a>
</g>
<!-- Node5&#45;&gt;Node3 -->
<g id="edge8" class="edge"><title>Node5&#45;&gt;Node3</title>
<path fill="none" stroke="#9a32cd" stroke-dasharray="5,2" d="M99.7356,-198.686C89.2112,-184.1 76.5393,-166.537 68.6244,-155.567"/>
<polygon fill="#9a32cd" stroke="#9a32cd" points="96.9423,-200.797 105.632,-206.858 102.619,-196.701 96.9423,-200.797"/>
<text text-anchor="middle" x="128" y="-178.5" font-family="Helvetica,sans-Serif" font-size="10.00"> m_request_ref</text>
</g>
<!-- Node6&#45;&gt;Node5 -->
<g id="edge10" class="edge"><title>Node6&#45;&gt;Node5</title>
<path fill="none" stroke="#9a32cd" stroke-dasharray="5,2" d="M93.0069,-289.277C92.7373,-280.134 93.2648,-269.361 96,-260 97.931,-253.391 101.41,-246.782 105.04,-241.064"/>
<polygon fill="#9a32cd" stroke="#9a32cd" points="89.5234,-289.653 93.636,-299.417 96.5099,-289.219 89.5234,-289.653"/>
<text text-anchor="middle" x="160.5" y="-264.5" font-family="Helvetica,sans-Serif" font-size="10.00"> m_reference_count_mutex</text>
</g>
<!-- Node7 -->
<g id="node13" class="node"><title>Node7</title>
<a xlink:href="structstxxl_1_1choose__int__types.html" target="_top" xlink:title="stxxl::choose_int_types\l\&lt; my_pointer_size \&gt;">
<polygon fill="none" stroke="black" points="184.5,-293 184.5,-327 309.5,-327 309.5,-293 184.5,-293"/>
<text text-anchor="start" x="192.5" y="-314" font-family="Helvetica,sans-Serif" font-size="10.00">stxxl::choose_int_types</text>
<text text-anchor="middle" x="247" y="-301" font-family="Helvetica,sans-Serif" font-size="10.00">&lt; my_pointer_size &gt;</text>
</a>
</g>
<!-- Node7&#45;&gt;Node5 -->
<g id="edge14" class="edge"><title>Node7&#45;&gt;Node5</title>
<path fill="none" stroke="#9a32cd" stroke-dasharray="5,2" d="M239.869,-283.099C236.526,-274.764 231.743,-266.162 225,-260 211.472,-247.638 193.553,-239.503 176.254,-234.158"/>
<polygon fill="#9a32cd" stroke="#9a32cd" points="236.58,-284.297 243.164,-292.598 243.194,-282.003 236.58,-284.297"/>
<text text-anchor="middle" x="281.5" y="-264.5" font-family="Helvetica,sans-Serif" font-size="10.00"> m_reference_count</text>
</g>
<!-- Node8 -->
<g id="node15" class="node"><title>Node8</title>
<a xlink:href="structstxxl_1_1choose__int__types.html" target="_top" xlink:title="stxxl::choose_int_types\l\&lt; PtrSize \&gt;">
<polygon fill="none" stroke="black" points="184.5,-379 184.5,-413 309.5,-413 309.5,-379 184.5,-379"/>
<text text-anchor="start" x="192.5" y="-400" font-family="Helvetica,sans-Serif" font-size="10.00">stxxl::choose_int_types</text>
<text text-anchor="middle" x="247" y="-387" font-family="Helvetica,sans-Serif" font-size="10.00">&lt; PtrSize &gt;</text>
</a>
</g>
<!-- Node8&#45;&gt;Node7 -->
<g id="edge16" class="edge"><title>Node8&#45;&gt;Node7</title>
<path fill="none" stroke="orange" stroke-dasharray="5,2" d="M247,-368.342C247,-354.774 247,-338.861 247,-327.084"/>
<polygon fill="orange" stroke="orange" points="243.5,-368.597 247,-378.597 250.5,-368.597 243.5,-368.597"/>
<text text-anchor="middle" x="296.5" y="-350.5" font-family="Helvetica,sans-Serif" font-size="10.00"> &lt; my_pointer_size &gt;</text>
</g>
</g>
</svg>
