<?xml version="1.0" encoding="UTF-8" standalone="no"?>
<!DOCTYPE svg PUBLIC "-//W3C//DTD SVG 1.1//EN"
 "http://www.w3.org/Graphics/SVG/1.1/DTD/svg11.dtd">
<!-- Generated by graphviz version 2.26.3 (20100126.1600)
 -->
<!-- Title: stxxl::atomic_counted_object Pages: 1 -->
<svg width="310pt" height="216pt"
 viewBox="0.00 0.00 310.00 216.00" xmlns="http://www.w3.org/2000/svg" xmlns:xlink="http://www.w3.org/1999/xlink">
<g id="graph1" class="graph" transform="scale(1 1) rotate(0) translate(4 212)">
<title>stxxl::atomic_counted_object</title>
<!-- Node1 -->
<g id="node1" class="node"><title>Node1</title>
<polygon fill="#bfbfbf" stroke="black" points="69,-1 69,-35 185,-35 185,-1 69,-1"/>
<text text-anchor="start" x="77" y="-22" font-family="Helvetica,sans-Serif" font-size="10.00">stxxl::atomic_counted</text>
<text text-anchor="middle" x="127" y="-9" font-family="Helvetica,sans-Serif" font-size="10.00">_object</text>
</g>
<!-- Node2 -->
<g id="node2" class="node"><title>Node2</title>
<a xlink:href="classstxxl_1_1mutex.html" target="_top" xlink:title="stxxl::mutex">
<polygon fill="none" stroke="black" points="16,-93.5 16,-114.5 86,-114.5 86,-93.5 16,-93.5"/>
<text text-anchor="middle" x="51" y="-101.5" font-family="Helvetica,sans-Serif" font-size="10.00">stxxl::mutex</text>
</a>
</g>
<!-- Node2&#45;&gt;Node1 -->
<g id="edge2" class="edge"><title>Node2&#45;&gt;Node1</title>
<path fill="none" stroke="#9a32cd" stroke-dasharray="5,2" d="M46.6869,-83.1562C45.832,-73.5781 46.5395,-62.4885 52,-54 57.079,-46.1045 64.414,-39.8976 72.5319,-35.0307"/>
<polygon fill="#9a32cd" stroke="#9a32cd" points="43.2323,-83.7219 48.1458,-93.1085 50.1583,-82.7066 43.2323,-83.7219"/>
<text text-anchor="middle" x="116.5" y="-58.5" font-family="Helvetica,sans-Serif" font-size="10.00"> m_reference_count_mutex</text>
</g>
<!-- Node3 -->
<g id="node4" class="node"><title>Node3</title>
<a xlink:href="classstxxl_1_1noncopyable.html" target="_top" xlink:title="stxxl::noncopyable">
<polygon fill="none" stroke="black" points="0,-179.5 0,-200.5 102,-200.5 102,-179.5 0,-179.5"/>
<text text-anchor="middle" x="51" y="-187.5" font-family="Helvetica,sans-Serif" font-size="10.00">stxxl::noncopyable</text>
</a>
</g>
<!-- Node3&#45;&gt;Node2 -->
<g id="edge4" class="edge"><title>Node3&#45;&gt;Node2</title>
<path fill="none" stroke="#8b1a1a" d="M51,-169.256C51,-152.026 51,-128.215 51,-114.632"/>
<polygon fill="#8b1a1a" stroke="#8b1a1a" points="47.5001,-169.455 51,-179.455 54.5001,-169.455 47.5001,-169.455"/>
</g>
<!-- Node4 -->
<g id="node6" class="node"><title>Node4</title>
<a xlink:href="structstxxl_1_1choose__int__types.html" target="_top" xlink:title="stxxl::choose_int_types\l\&lt; my_pointer_size \&gt;">
<polygon fill="none" stroke="black" points="140.5,-87 140.5,-121 265.5,-121 265.5,-87 140.5,-87"/>
<text text-anchor="start" x="148.5" y="-108" font-family="Helvetica,sans-Serif" font-size="10.00">stxxl::choose_int_types</text>
<text text-anchor="middle" x="203" y="-95" font-family="Helvetica,sans-Serif" font-size="10.00">&lt; my_pointer_size &gt;</text>
</a>
</g>
<!-- Node4&#45;&gt;Node1 -->
<g id="edge6" class="edge"><title>Node4&#45;&gt;Node1</title>
<path fill="none" stroke="#9a32cd" stroke-dasharray="5,2" d="M194.592,-77.4335C191.208,-69.3521 186.724,-60.8147 181,-54 174.913,-46.7529 167.006,-40.3857 159.13,-35.1013"/>
<polygon fill="#9a32cd" stroke="#9a32cd" points="191.369,-78.8055 198.183,-86.9183 197.915,-76.3269 191.369,-78.8055"/>
<text text-anchor="middle" x="236.5" y="-58.5" font-family="Helvetica,sans-Serif" font-size="10.00"> m_reference_count</text>
</g>
<!-- Node5 -->
<g id="node8" class="node"><title>Node5</title>
<a xlink:href="structstxxl_1_1choose__int__types.html" target="_top" xlink:title="stxxl::choose_int_types\l\&lt; PtrSize \&gt;">
<polygon fill="none" stroke="black" points="140.5,-173 140.5,-207 265.5,-207 265.5,-173 140.5,-173"/>
<text text-anchor="start" x="148.5" y="-194" font-family="Helvetica,sans-Serif" font-size="10.00">stxxl::choose_int_types</text>
<text text-anchor="middle" x="203" y="-181" font-family="Helvetica,sans-Serif" font-size="10.00">&lt; PtrSize &gt;</text>
</a>
</g>
<!-- Node5&#45;&gt;Node4 -->
<g id="edge8" class="edge"><title>Node5&#45;&gt;Node4</title>
<path fill="none" stroke="orange" stroke-dasharray="5,2" d="M203,-162.342C203,-148.774 203,-132.861 203,-121.084"/>
<polygon fill="orange" stroke="orange" points="199.5,-162.597 203,-172.597 206.5,-162.597 199.5,-162.597"/>
<text text-anchor="middle" x="252.5" y="-144.5" font-family="Helvetica,sans-Serif" font-size="10.00"> &lt; my_pointer_size &gt;</text>
</g>
</g>
</svg>
