<?xml version="1.0" encoding="UTF-8" standalone="no"?>
<!DOCTYPE svg PUBLIC "-//W3C//DTD SVG 1.1//EN"
 "http://www.w3.org/Graphics/SVG/1.1/DTD/svg11.dtd">
<!-- Generated by graphviz version 2.26.3 (20100126.1600)
 -->
<!-- Title: stxxl::BIDArray&lt; BlockSize &gt; Pages: 1 -->
<svg width="221pt" height="250pt"
 viewBox="0.00 0.00 221.00 250.00" xmlns="http://www.w3.org/2000/svg" xmlns:xlink="http://www.w3.org/1999/xlink">
<g id="graph1" class="graph" transform="scale(1 1) rotate(0) translate(4 246)">
<title>stxxl::BIDArray&lt; BlockSize &gt;</title>
<!-- Node1 -->
<g id="node1" class="node"><title>Node1</title>
<polygon fill="#bfbfbf" stroke="black" points="-0.5,-0.5 -0.5,-21.5 148.5,-21.5 148.5,-0.5 -0.5,-0.5"/>
<text text-anchor="middle" x="74" y="-8.5" font-family="Helvetica,sans-Serif" font-size="10.00">stxxl::BIDArray&lt; BlockSize &gt;</text>
</g>
<!-- Node2 -->
<g id="node2" class="node"><title>Node2</title>
<a xlink:href="classstxxl_1_1simple__vector.html" target="_top" xlink:title="stxxl::simple_vector\l\&lt; BID\&lt; BlockSize \&gt; \&gt;">
<polygon fill="none" stroke="black" points="16,-61 16,-95 132,-95 132,-61 16,-61"/>
<text text-anchor="start" x="24" y="-82" font-family="Helvetica,sans-Serif" font-size="10.00">stxxl::simple_vector</text>
<text text-anchor="middle" x="74" y="-69" font-family="Helvetica,sans-Serif" font-size="10.00">&lt; BID&lt; BlockSize &gt; &gt;</text>
</a>
</g>
<!-- Node2&#45;&gt;Node1 -->
<g id="edge2" class="edge"><title>Node2&#45;&gt;Node1</title>
<path fill="none" stroke="midnightblue" d="M74,-50.5344C74,-40.3057 74,-29.3007 74,-21.5056"/>
<polygon fill="midnightblue" stroke="midnightblue" points="70.5001,-50.7458 74,-60.7458 77.5001,-50.7459 70.5001,-50.7458"/>
</g>
<!-- Node3 -->
<g id="node4" class="node"><title>Node3</title>
<a xlink:href="classstxxl_1_1noncopyable.html" target="_top" xlink:title="stxxl::noncopyable">
<polygon fill="none" stroke="black" points="33,-220.5 33,-241.5 135,-241.5 135,-220.5 33,-220.5"/>
<text text-anchor="middle" x="84" y="-228.5" font-family="Helvetica,sans-Serif" font-size="10.00">stxxl::noncopyable</text>
</a>
</g>
<!-- Node3&#45;&gt;Node2 -->
<g id="edge4" class="edge"><title>Node3&#45;&gt;Node2</title>
<path fill="none" stroke="#8b1a1a" d="M80.4901,-210.144C79.1679,-201.466 77.7934,-191.271 77,-182 74.3972,-151.585 73.9235,-116.003 73.9021,-95.3317"/>
<polygon fill="#8b1a1a" stroke="#8b1a1a" points="77.0537,-210.82 82.0891,-220.142 83.9658,-209.715 77.0537,-210.82"/>
</g>
<!-- Node4 -->
<g id="node6" class="node"><title>Node4</title>
<a xlink:href="classstxxl_1_1simple__vector.html" target="_top" xlink:title="Simpler non&#45;growing vector without initialization. ">
<polygon fill="none" stroke="black" points="85.5,-147 85.5,-181 192.5,-181 192.5,-147 85.5,-147"/>
<text text-anchor="start" x="93.5" y="-168" font-family="Helvetica,sans-Serif" font-size="10.00">stxxl::simple_vector</text>
<text text-anchor="middle" x="139" y="-155" font-family="Helvetica,sans-Serif" font-size="10.00">&lt; ValueType &gt;</text>
</a>
</g>
<!-- Node3&#45;&gt;Node4 -->
<g id="edge8" class="edge"><title>Node3&#45;&gt;Node4</title>
<path fill="none" stroke="#8b1a1a" d="M99.371,-212.275C107.42,-202.471 117.202,-190.554 125.033,-181.014"/>
<polygon fill="#8b1a1a" stroke="#8b1a1a" points="96.4764,-210.285 92.8367,-220.235 101.887,-214.727 96.4764,-210.285"/>
</g>
<!-- Node4&#45;&gt;Node2 -->
<g id="edge6" class="edge"><title>Node4&#45;&gt;Node2</title>
<path fill="none" stroke="orange" stroke-dasharray="5,2" d="M119.605,-138.339C109.039,-124.36 96.254,-107.444 86.9123,-95.084"/>
<polygon fill="orange" stroke="orange" points="117.024,-140.729 125.846,-146.597 122.609,-136.509 117.024,-140.729"/>
<text text-anchor="middle" x="161.5" y="-118.5" font-family="Helvetica,sans-Serif" font-size="10.00"> &lt; BID&lt; BlockSize &gt; &gt;</text>
</g>
</g>
</svg>
