<?xml version="1.0" encoding="UTF-8" standalone="no"?>
<!DOCTYPE svg PUBLIC "-//W3C//DTD SVG 1.1//EN"
 "http://www.w3.org/Graphics/SVG/1.1/DTD/svg11.dtd">
<!-- Generated by graphviz version 2.26.3 (20100126.1600)
 -->
<!-- Title: stxxl::syscall_file Pages: 1 -->
<svg width="359pt" height="408pt"
 viewBox="0.00 0.00 359.00 408.00" xmlns="http://www.w3.org/2000/svg" xmlns:xlink="http://www.w3.org/1999/xlink">
<g id="graph1" class="graph" transform="scale(1 1) rotate(0) translate(4 404)">
<title>stxxl::syscall_file</title>
<!-- Node1 -->
<g id="node1" class="node"><title>Node1</title>
<polygon fill="#bfbfbf" stroke="black" points="97.5,-0.5 97.5,-21.5 190.5,-21.5 190.5,-0.5 97.5,-0.5"/>
<text text-anchor="middle" x="144" y="-8.5" font-family="Helvetica,sans-Serif" font-size="10.00">stxxl::syscall_file</text>
</g>
<!-- Node2 -->
<g id="node2" class="node"><title>Node2</title>
<a xlink:href="classstxxl_1_1ufs__file__base.html" target="_top" xlink:title="Base for UNIX file system implementations. ">
<polygon fill="none" stroke="black" points="15,-60.5 15,-81.5 119,-81.5 119,-60.5 15,-60.5"/>
<text text-anchor="middle" x="67" y="-68.5" font-family="Helvetica,sans-Serif" font-size="10.00">stxxl::ufs_file_base</text>
</a>
</g>
<!-- Node2&#45;&gt;Node1 -->
<g id="edge2" class="edge"><title>Node2&#45;&gt;Node1</title>
<path fill="none" stroke="midnightblue" d="M88.9676,-53.8824C102.298,-43.4954 118.891,-30.5651 130.353,-21.6339"/>
<polygon fill="midnightblue" stroke="midnightblue" points="86.5028,-51.3659 80.7661,-60.2732 90.8054,-56.8875 86.5028,-51.3659"/>
</g>
<!-- Node3 -->
<g id="node4" class="node"><title>Node3</title>
<a xlink:href="classstxxl_1_1file.html" target="_top" xlink:title="Defines interface of file. ">
<polygon fill="none" stroke="black" points="105,-120.5 105,-141.5 161,-141.5 161,-120.5 105,-120.5"/>
<text text-anchor="middle" x="133" y="-128.5" font-family="Helvetica,sans-Serif" font-size="10.00">stxxl::file</text>
</a>
</g>
<!-- Node3&#45;&gt;Node2 -->
<g id="edge4" class="edge"><title>Node3&#45;&gt;Node2</title>
<path fill="none" stroke="midnightblue" d="M113.515,-113.286C102.205,-103.004 88.3345,-90.395 78.6973,-81.6339"/>
<polygon fill="midnightblue" stroke="midnightblue" points="111.447,-116.136 121.201,-120.273 116.155,-110.957 111.447,-116.136"/>
</g>
<!-- Node9 -->
<g id="node18" class="node"><title>Node9</title>
<a xlink:href="classstxxl_1_1disk__queued__file.html" target="_top" xlink:title="Implementation of some file methods based on serving_request. ">
<polygon fill="none" stroke="black" points="136.5,-60.5 136.5,-81.5 257.5,-81.5 257.5,-60.5 136.5,-60.5"/>
<text text-anchor="middle" x="197" y="-68.5" font-family="Helvetica,sans-Serif" font-size="10.00">stxxl::disk_queued_file</text>
</a>
</g>
<!-- Node3&#45;&gt;Node9 -->
<g id="edge22" class="edge"><title>Node3&#45;&gt;Node9</title>
<path fill="none" stroke="midnightblue" d="M151.895,-113.286C162.862,-103.004 176.312,-90.395 185.657,-81.6339"/>
<polygon fill="midnightblue" stroke="midnightblue" points="149.344,-110.88 144.442,-120.273 154.131,-115.987 149.344,-110.88"/>
</g>
<!-- Node4 -->
<g id="node6" class="node"><title>Node4</title>
<a xlink:href="classstxxl_1_1noncopyable.html" target="_top" xlink:title="stxxl::noncopyable">
<polygon fill="none" stroke="black" points="0,-371.5 0,-392.5 102,-392.5 102,-371.5 0,-371.5"/>
<text text-anchor="middle" x="51" y="-379.5" font-family="Helvetica,sans-Serif" font-size="10.00">stxxl::noncopyable</text>
</a>
</g>
<!-- Node4&#45;&gt;Node3 -->
<g id="edge6" class="edge"><title>Node4&#45;&gt;Node3</title>
<path fill="none" stroke="#8b1a1a" d="M46.3986,-361.27C38.2107,-318.588 26.0711,-219.887 73,-160 80.9925,-149.801 93.4759,-142.975 104.991,-138.523"/>
<polygon fill="#8b1a1a" stroke="#8b1a1a" points="43.0181,-362.208 48.4541,-371.302 49.8757,-360.803 43.0181,-362.208"/>
</g>
<!-- Node6 -->
<g id="node10" class="node"><title>Node6</title>
<a xlink:href="classstxxl_1_1mutex.html" target="_top" xlink:title="stxxl::mutex">
<polygon fill="none" stroke="black" points="57,-285.5 57,-306.5 127,-306.5 127,-285.5 57,-285.5"/>
<text text-anchor="middle" x="92" y="-293.5" font-family="Helvetica,sans-Serif" font-size="10.00">stxxl::mutex</text>
</a>
</g>
<!-- Node4&#45;&gt;Node6 -->
<g id="edge12" class="edge"><title>Node4&#45;&gt;Node6</title>
<path fill="none" stroke="#8b1a1a" d="M60.4235,-362.234C68.6694,-344.937 80.3324,-320.474 86.9315,-306.632"/>
<polygon fill="#8b1a1a" stroke="#8b1a1a" points="57.1715,-360.922 56.0274,-371.455 63.4902,-363.934 57.1715,-360.922"/>
</g>
<!-- Node5 -->
<g id="node8" class="node"><title>Node5</title>
<a xlink:href="classstxxl_1_1atomic__counted__object.html" target="_top" xlink:title="Provides reference counting abilities for use with counting_ptr with mutex locking. ">
<polygon fill="none" stroke="black" points="95,-193 95,-227 211,-227 211,-193 95,-193"/>
<text text-anchor="start" x="103" y="-214" font-family="Helvetica,sans-Serif" font-size="10.00">stxxl::atomic_counted</text>
<text text-anchor="middle" x="153" y="-201" font-family="Helvetica,sans-Serif" font-size="10.00">_object</text>
</a>
</g>
<!-- Node5&#45;&gt;Node3 -->
<g id="edge8" class="edge"><title>Node5&#45;&gt;Node3</title>
<path fill="none" stroke="#9a32cd" stroke-dasharray="5,2" d="M146.174,-183.038C142.569,-168.796 138.349,-152.127 135.675,-141.567"/>
<polygon fill="#9a32cd" stroke="#9a32cd" points="142.813,-184.023 148.66,-192.858 149.599,-182.305 142.813,-184.023"/>
<text text-anchor="middle" x="180" y="-164.5" font-family="Helvetica,sans-Serif" font-size="10.00"> m_request_ref</text>
</g>
<!-- Node6&#45;&gt;Node2 -->
<g id="edge18" class="edge"><title>Node6&#45;&gt;Node2</title>
<path fill="none" stroke="#9a32cd" stroke-dasharray="5,2" d="M89.7018,-275.317C84.5139,-228.625 72.0454,-116.409 68.1697,-81.5276"/>
<polygon fill="#9a32cd" stroke="#9a32cd" points="86.2447,-275.897 90.8277,-285.45 93.2019,-275.124 86.2447,-275.897"/>
<text text-anchor="middle" x="102" y="-164.5" font-family="Helvetica,sans-Serif" font-size="10.00"> fd_mutex</text>
</g>
<!-- Node6&#45;&gt;Node5 -->
<g id="edge10" class="edge"><title>Node6&#45;&gt;Node5</title>
<path fill="none" stroke="#9a32cd" stroke-dasharray="5,2" d="M92.1889,-274.968C93.1387,-265.487 95.5122,-254.53 101,-246 105.753,-238.613 112.613,-232.327 119.8,-227.175"/>
<polygon fill="#9a32cd" stroke="#9a32cd" points="88.6814,-275.009 91.6266,-285.187 95.6708,-275.394 88.6814,-275.009"/>
<text text-anchor="middle" x="165.5" y="-250.5" font-family="Helvetica,sans-Serif" font-size="10.00"> m_reference_count_mutex</text>
</g>
<!-- Node7 -->
<g id="node13" class="node"><title>Node7</title>
<a xlink:href="structstxxl_1_1choose__int__types.html" target="_top" xlink:title="stxxl::choose_int_types\l\&lt; my_pointer_size \&gt;">
<polygon fill="none" stroke="black" points="189.5,-279 189.5,-313 314.5,-313 314.5,-279 189.5,-279"/>
<text text-anchor="start" x="197.5" y="-300" font-family="Helvetica,sans-Serif" font-size="10.00">stxxl::choose_int_types</text>
<text text-anchor="middle" x="252" y="-287" font-family="Helvetica,sans-Serif" font-size="10.00">&lt; my_pointer_size &gt;</text>
</a>
</g>
<!-- Node7&#45;&gt;Node5 -->
<g id="edge14" class="edge"><title>Node7&#45;&gt;Node5</title>
<path fill="none" stroke="#9a32cd" stroke-dasharray="5,2" d="M244.451,-269.531C241.079,-261.226 236.385,-252.532 230,-246 222.47,-238.296 212.973,-232.059 203.244,-227.078"/>
<polygon fill="#9a32cd" stroke="#9a32cd" points="241.158,-270.715 247.825,-278.949 247.748,-268.354 241.158,-270.715"/>
<text text-anchor="middle" x="286.5" y="-250.5" font-family="Helvetica,sans-Serif" font-size="10.00"> m_reference_count</text>
</g>
<!-- Node8 -->
<g id="node15" class="node"><title>Node8</title>
<a xlink:href="structstxxl_1_1choose__int__types.html" target="_top" xlink:title="stxxl::choose_int_types\l\&lt; PtrSize \&gt;">
<polygon fill="none" stroke="black" points="189.5,-365 189.5,-399 314.5,-399 314.5,-365 189.5,-365"/>
<text text-anchor="start" x="197.5" y="-386" font-family="Helvetica,sans-Serif" font-size="10.00">stxxl::choose_int_types</text>
<text text-anchor="middle" x="252" y="-373" font-family="Helvetica,sans-Serif" font-size="10.00">&lt; PtrSize &gt;</text>
</a>
</g>
<!-- Node8&#45;&gt;Node7 -->
<g id="edge16" class="edge"><title>Node8&#45;&gt;Node7</title>
<path fill="none" stroke="orange" stroke-dasharray="5,2" d="M252,-354.342C252,-340.774 252,-324.861 252,-313.084"/>
<polygon fill="orange" stroke="orange" points="248.5,-354.597 252,-364.597 255.5,-354.597 248.5,-354.597"/>
<text text-anchor="middle" x="301.5" y="-336.5" font-family="Helvetica,sans-Serif" font-size="10.00"> &lt; my_pointer_size &gt;</text>
</g>
<!-- Node9&#45;&gt;Node1 -->
<g id="edge20" class="edge"><title>Node9&#45;&gt;Node1</title>
<path fill="none" stroke="midnightblue" d="M180.821,-52.6846C171.839,-42.5161 160.982,-30.2249 153.393,-21.6339"/>
<polygon fill="midnightblue" stroke="midnightblue" points="178.281,-55.0956 187.525,-60.2732 183.527,-50.4613 178.281,-55.0956"/>
</g>
</g>
</svg>
