<?xml version="1.0" encoding="UTF-8" standalone="no"?>
<!DOCTYPE svg PUBLIC "-//W3C//DTD SVG 1.1//EN"
 "http://www.w3.org/Graphics/SVG/1.1/DTD/svg11.dtd">
<!-- Generated by graphviz version 2.26.3 (20100126.1600)
 -->
<!-- Title: stxxl::vector&lt; ValueType, PageSize, PagerType, BlockSize, AllocStr, SizeType &gt; Pages: 1 -->
<svg width="236pt" height="202pt"
 viewBox="0.00 0.00 236.00 202.00" xmlns="http://www.w3.org/2000/svg" xmlns:xlink="http://www.w3.org/1999/xlink">
<g id="graph1" class="graph" transform="scale(1 1) rotate(0) translate(4 198)">
<title>stxxl::vector&lt; ValueType, PageSize, PagerType, BlockSize, AllocStr, SizeType &gt;</title>
<!-- Node1 -->
<g id="node1" class="node"><title>Node1</title>
<polygon fill="#bfbfbf" stroke="black" points="28,-146.5 28,-193.5 204,-193.5 204,-146.5 28,-146.5"/>
<text text-anchor="start" x="36" y="-180.5" font-family="Helvetica,sans-Serif" font-size="10.00">stxxl::vector&lt; ValueType,</text>
<text text-anchor="start" x="36" y="-167.5" font-family="Helvetica,sans-Serif" font-size="10.00"> PageSize, PagerType, BlockSize,</text>
<text text-anchor="middle" x="116" y="-154.5" font-family="Helvetica,sans-Serif" font-size="10.00"> AllocStr, SizeType &gt;</text>
</g>
<!-- Node2 -->
<g id="node3" class="node"><title>Node2</title>
<a xlink:href="classstxxl_1_1vector.html" target="_top" xlink:title="stxxl::vector\&lt; ValueType \&gt;">
<polygon fill="none" stroke="black" points="46,-74.5 46,-95.5 186,-95.5 186,-74.5 46,-74.5"/>
<text text-anchor="middle" x="116" y="-82.5" font-family="Helvetica,sans-Serif" font-size="10.00">stxxl::vector&lt; ValueType &gt;</text>
</a>
</g>
<!-- Node1&#45;&gt;Node2 -->
<g id="edge2" class="edge"><title>Node1&#45;&gt;Node2</title>
<path fill="none" stroke="orange" stroke-dasharray="5,2" d="M116,-136.208C116,-121.844 116,-106.093 116,-95.9057"/>
<polygon fill="orange" stroke="orange" points="112.5,-136.323 116,-146.323 119.5,-136.323 112.5,-136.323"/>
<text text-anchor="middle" x="152" y="-118.5" font-family="Helvetica,sans-Serif" font-size="10.00"> &lt; ValueType &gt;</text>
</g>
<!-- Node3 -->
<g id="node5" class="node"><title>Node3</title>
<a xlink:href="classstxxl_1_1column__vector.html" target="_top" xlink:title="external column&#45;vector container for matrix multiplication ">
<polygon fill="none" stroke="black" points="0,-1 0,-35 110,-35 110,-1 0,-1"/>
<text text-anchor="start" x="8" y="-22" font-family="Helvetica,sans-Serif" font-size="10.00">stxxl::column_vector</text>
<text text-anchor="middle" x="55" y="-9" font-family="Helvetica,sans-Serif" font-size="10.00">&lt; ValueType &gt;</text>
</a>
</g>
<!-- Node2&#45;&gt;Node3 -->
<g id="edge4" class="edge"><title>Node2&#45;&gt;Node3</title>
<path fill="none" stroke="midnightblue" d="M99.2221,-66.5718C90.2449,-56.7116 79.2639,-44.6505 70.4902,-35.0139"/>
<polygon fill="midnightblue" stroke="midnightblue" points="96.879,-69.1971 106.199,-74.2353 102.055,-64.4846 96.879,-69.1971"/>
</g>
<!-- Node4 -->
<g id="node7" class="node"><title>Node4</title>
<a xlink:href="classstxxl_1_1row__vector.html" target="_top" xlink:title="external row&#45;vector container for matrix multiplication ">
<polygon fill="none" stroke="black" points="127.5,-1 127.5,-35 228.5,-35 228.5,-1 127.5,-1"/>
<text text-anchor="start" x="135.5" y="-22" font-family="Helvetica,sans-Serif" font-size="10.00">stxxl::row_vector&lt;</text>
<text text-anchor="middle" x="178" y="-9" font-family="Helvetica,sans-Serif" font-size="10.00"> ValueType &gt;</text>
</a>
</g>
<!-- Node2&#45;&gt;Node4 -->
<g id="edge6" class="edge"><title>Node2&#45;&gt;Node4</title>
<path fill="none" stroke="midnightblue" d="M132.78,-66.867C141.954,-56.9531 153.249,-44.7468 162.256,-35.0139"/>
<polygon fill="midnightblue" stroke="midnightblue" points="130.184,-64.5185 125.961,-74.2353 135.322,-69.2728 130.184,-64.5185"/>
</g>
</g>
</svg>
