<?xml version="1.0" encoding="UTF-8" standalone="no"?>
<!DOCTYPE svg PUBLIC "-//W3C//DTD SVG 1.1//EN"
 "http://www.w3.org/Graphics/SVG/1.1/DTD/svg11.dtd">
<!-- Generated by graphviz version 2.26.3 (20100126.1600)
 -->
<!-- Title: stxxl::mng_local::expand_struct&lt; Type, RawSize &gt; Pages: 1 -->
<svg width="982pt" height="81pt"
 viewBox="0.00 0.00 982.00 81.00" xmlns="http://www.w3.org/2000/svg" xmlns:xlink="http://www.w3.org/1999/xlink">
<g id="graph1" class="graph" transform="scale(1 1) rotate(0) translate(4 77)">
<title>stxxl::mng_local::expand_struct&lt; Type, RawSize &gt;</title>
<!-- Node1 -->
<g id="node1" class="node"><title>Node1</title>
<polygon fill="#bfbfbf" stroke="black" points="836.5,-29 836.5,-63 973.5,-63 973.5,-29 836.5,-29"/>
<text text-anchor="start" x="844.5" y="-50" font-family="Helvetica,sans-Serif" font-size="10.00">stxxl::mng_local::expand</text>
<text text-anchor="middle" x="905" y="-37" font-family="Helvetica,sans-Serif" font-size="10.00">_struct&lt; Type, RawSize &gt;</text>
</g>
<!-- Node2 -->
<g id="node2" class="node"><title>Node2</title>
<a xlink:href="classstxxl_1_1mng__local_1_1add__filler.html" target="_top" xlink:title="stxxl::mng_local::add\l_filler\&lt; Type, RawSize\l&#45;sizeof(Type)\&gt;">
<polygon fill="none" stroke="black" points="676,-22.5 676,-69.5 798,-69.5 798,-22.5 676,-22.5"/>
<text text-anchor="start" x="684" y="-56.5" font-family="Helvetica,sans-Serif" font-size="10.00">stxxl::mng_local::add</text>
<text text-anchor="start" x="684" y="-43.5" font-family="Helvetica,sans-Serif" font-size="10.00">_filler&lt; Type, RawSize</text>
<text text-anchor="middle" x="737" y="-30.5" font-family="Helvetica,sans-Serif" font-size="10.00">&#45;sizeof(Type)&gt;</text>
</a>
</g>
<!-- Node2&#45;&gt;Node1 -->
<g id="edge2" class="edge"><title>Node2&#45;&gt;Node1</title>
<path fill="none" stroke="midnightblue" d="M808.423,-46C817.641,-46 827.066,-46 836.24,-46"/>
<polygon fill="midnightblue" stroke="midnightblue" points="808.127,-42.5001 798.127,-46 808.127,-49.5001 808.127,-42.5001"/>
</g>
<!-- Node3 -->
<g id="node4" class="node"><title>Node3</title>
<a xlink:href="classstxxl_1_1mng__local_1_1filler__struct.html" target="_top" xlink:title="stxxl::mng_local::filler\l_struct\&lt; FillSize \&gt;">
<polygon fill="none" stroke="black" points="206,-38 206,-72 320,-72 320,-38 206,-38"/>
<text text-anchor="start" x="214" y="-59" font-family="Helvetica,sans-Serif" font-size="10.00">stxxl::mng_local::filler</text>
<text text-anchor="middle" x="263" y="-46" font-family="Helvetica,sans-Serif" font-size="10.00">_struct&lt; FillSize &gt;</text>
</a>
</g>
<!-- Node3&#45;&gt;Node2 -->
<g id="edge4" class="edge"><title>Node3&#45;&gt;Node2</title>
<path fill="none" stroke="#9a32cd" stroke-dasharray="5,2" d="M330.57,-57.8563C409.286,-60.5615 543.211,-63.2362 658,-56 663.795,-55.6347 669.815,-55.1201 675.83,-54.515"/>
<polygon fill="#9a32cd" stroke="#9a32cd" points="330.426,-54.3491 320.308,-57.4926 330.178,-61.3447 330.426,-54.3491"/>
<text text-anchor="middle" x="453" y="-64" font-family="Helvetica,sans-Serif" font-size="10.00"> filler</text>
</g>
<!-- Node5 -->
<g id="node8" class="node"><title>Node5</title>
<a xlink:href="classstxxl_1_1mng__local_1_1add__filler.html" target="_top" xlink:title="Contains per block filler for stxxl::typed_block , not intended for direct use. ">
<polygon fill="none" stroke="black" points="380,-0 380,-34 526,-34 526,-0 380,-0"/>
<text text-anchor="start" x="388" y="-21" font-family="Helvetica,sans-Serif" font-size="10.00">stxxl::mng_local::add</text>
<text text-anchor="middle" x="453" y="-8" font-family="Helvetica,sans-Serif" font-size="10.00">_filler&lt; BaseType, FillSize &gt;</text>
</a>
</g>
<!-- Node3&#45;&gt;Node5 -->
<g id="edge10" class="edge"><title>Node3&#45;&gt;Node5</title>
<path fill="none" stroke="#9a32cd" stroke-dasharray="5,2" d="M329.892,-41.6215C346.048,-38.3905 363.395,-34.9211 379.821,-31.6357"/>
<polygon fill="#9a32cd" stroke="#9a32cd" points="329.126,-38.2055 320.006,-43.5987 330.499,-45.0695 329.126,-38.2055"/>
<text text-anchor="middle" x="350" y="-44" font-family="Helvetica,sans-Serif" font-size="10.00"> filler</text>
</g>
<!-- Node4 -->
<g id="node6" class="node"><title>Node4</title>
<a xlink:href="classstxxl_1_1mng__local_1_1filler__struct.html" target="_top" xlink:title="stxxl::mng_local::filler\l_struct\&lt; Bytes \&gt;">
<polygon fill="none" stroke="black" points="0,-38 0,-72 114,-72 114,-38 0,-38"/>
<text text-anchor="start" x="8" y="-59" font-family="Helvetica,sans-Serif" font-size="10.00">stxxl::mng_local::filler</text>
<text text-anchor="middle" x="57" y="-46" font-family="Helvetica,sans-Serif" font-size="10.00">_struct&lt; Bytes &gt;</text>
</a>
</g>
<!-- Node4&#45;&gt;Node3 -->
<g id="edge6" class="edge"><title>Node4&#45;&gt;Node3</title>
<path fill="none" stroke="orange" stroke-dasharray="5,2" d="M124.381,-55C150.691,-55 180.538,-55 205.78,-55"/>
<polygon fill="orange" stroke="orange" points="124.109,-51.5001 114.109,-55 124.109,-58.5001 124.109,-51.5001"/>
<text text-anchor="middle" x="160" y="-59" font-family="Helvetica,sans-Serif" font-size="10.00"> &lt; FillSize &gt;</text>
</g>
<!-- Node5&#45;&gt;Node2 -->
<g id="edge8" class="edge"><title>Node5&#45;&gt;Node2</title>
<path fill="none" stroke="orange" stroke-dasharray="5,2" d="M536.606,-19.7167C573.877,-21.5923 618.252,-24.7396 658,-30 663.827,-30.7711 669.868,-31.7199 675.896,-32.7672"/>
<polygon fill="orange" stroke="orange" points="536.448,-16.2051 526.291,-19.2207 536.112,-23.1971 536.448,-16.2051"/>
<text text-anchor="start" x="544" y="-47" font-family="Helvetica,sans-Serif" font-size="10.00"> &lt; Type, RawSize&#45;sizeof</text>
<text text-anchor="middle" x="601" y="-34" font-family="Helvetica,sans-Serif" font-size="10.00">(Type)&gt;</text>
</g>
</g>
</svg>
