<?xml version="1.0" encoding="UTF-8" standalone="no"?>
<!DOCTYPE svg PUBLIC "-//W3C//DTD SVG 1.1//EN"
 "http://www.w3.org/Graphics/SVG/1.1/DTD/svg11.dtd">
<!-- Generated by graphviz version 2.26.3 (20100126.1600)
 -->
<!-- Title: stxxl::block_scheduler_algorithm&lt; SwappableBlockType &gt; Pages: 1 -->
<svg width="564pt" height="254pt"
 viewBox="0.00 0.00 564.00 254.00" xmlns="http://www.w3.org/2000/svg" xmlns:xlink="http://www.w3.org/1999/xlink">
<g id="graph1" class="graph" transform="scale(1 1) rotate(0) translate(4 250)">
<title>stxxl::block_scheduler_algorithm&lt; SwappableBlockType &gt;</title>
<!-- Node1 -->
<g id="node1" class="node"><title>Node1</title>
<polygon fill="#bfbfbf" stroke="black" points="138.5,-106 138.5,-140 323.5,-140 323.5,-106 138.5,-106"/>
<text text-anchor="start" x="146.5" y="-127" font-family="Helvetica,sans-Serif" font-size="10.00">stxxl::block_scheduler</text>
<text text-anchor="middle" x="231" y="-114" font-family="Helvetica,sans-Serif" font-size="10.00">_algorithm&lt; SwappableBlockType &gt;</text>
</g>
<!-- Node3 -->
<g id="node5" class="node"><title>Node3</title>
<a xlink:href="classstxxl_1_1block__scheduler__algorithm__offline__lfd.html" target="_top" xlink:title="Block scheduling algorithm caching via the longest forward distance policy (offline). ">
<polygon fill="none" stroke="black" points="390,-198.5 390,-245.5 526,-245.5 526,-198.5 390,-198.5"/>
<text text-anchor="start" x="398" y="-232.5" font-family="Helvetica,sans-Serif" font-size="10.00">stxxl::block_scheduler</text>
<text text-anchor="start" x="398" y="-219.5" font-family="Helvetica,sans-Serif" font-size="10.00">_algorithm_offline_lfd</text>
<text text-anchor="middle" x="458" y="-206.5" font-family="Helvetica,sans-Serif" font-size="10.00">&lt; SwappableBlockType &gt;</text>
</a>
</g>
<!-- Node1&#45;&gt;Node3 -->
<g id="edge4" class="edge"><title>Node1&#45;&gt;Node3</title>
<path fill="none" stroke="midnightblue" d="M270.033,-144.886C295.253,-158.545 329.03,-175.948 360,-189 369.512,-193.009 379.696,-196.882 389.769,-200.478"/>
<polygon fill="midnightblue" stroke="midnightblue" points="271.604,-141.756 261.149,-140.038 268.251,-147.901 271.604,-141.756"/>
</g>
<!-- Node4 -->
<g id="node7" class="node"><title>Node4</title>
<a xlink:href="classstxxl_1_1block__scheduler__algorithm__offline__lru__prefetching.html" target="_top" xlink:title="Block scheduling algorithm caching via the least recently used policy (offline), and prefetching in a...">
<polygon fill="none" stroke="black" points="360.5,-132.5 360.5,-179.5 555.5,-179.5 555.5,-132.5 360.5,-132.5"/>
<text text-anchor="start" x="368.5" y="-166.5" font-family="Helvetica,sans-Serif" font-size="10.00">stxxl::block_scheduler</text>
<text text-anchor="start" x="368.5" y="-153.5" font-family="Helvetica,sans-Serif" font-size="10.00">_algorithm_offline_lru</text>
<text text-anchor="middle" x="458" y="-140.5" font-family="Helvetica,sans-Serif" font-size="10.00">_prefetching&lt; SwappableBlockType &gt;</text>
</a>
</g>
<!-- Node1&#45;&gt;Node4 -->
<g id="edge6" class="edge"><title>Node1&#45;&gt;Node4</title>
<path fill="none" stroke="midnightblue" d="M333.675,-137.926C342.592,-139.223 351.6,-140.532 360.474,-141.822"/>
<polygon fill="midnightblue" stroke="midnightblue" points="334.057,-134.445 323.657,-136.47 333.049,-141.372 334.057,-134.445"/>
</g>
<!-- Node5 -->
<g id="node9" class="node"><title>Node5</title>
<a xlink:href="classstxxl_1_1block__scheduler__algorithm__online__lru.html" target="_top" xlink:title="Block scheduling algorithm caching via the least recently used policy (online). ">
<polygon fill="none" stroke="black" points="390,-66.5 390,-113.5 526,-113.5 526,-66.5 390,-66.5"/>
<text text-anchor="start" x="398" y="-100.5" font-family="Helvetica,sans-Serif" font-size="10.00">stxxl::block_scheduler</text>
<text text-anchor="start" x="398" y="-87.5" font-family="Helvetica,sans-Serif" font-size="10.00">_algorithm_online_lru</text>
<text text-anchor="middle" x="458" y="-74.5" font-family="Helvetica,sans-Serif" font-size="10.00">&lt; SwappableBlockType &gt;</text>
</a>
</g>
<!-- Node1&#45;&gt;Node5 -->
<g id="edge8" class="edge"><title>Node1&#45;&gt;Node5</title>
<path fill="none" stroke="midnightblue" d="M333.599,-108.085C352.707,-105.307 372.23,-102.469 389.976,-99.8889"/>
<polygon fill="midnightblue" stroke="midnightblue" points="333.049,-104.628 323.657,-109.53 334.057,-111.555 333.049,-104.628"/>
</g>
<!-- Node6 -->
<g id="node11" class="node"><title>Node6</title>
<a xlink:href="classstxxl_1_1block__scheduler__algorithm__simulation.html" target="_top" xlink:title="Pseudo block scheduling algorithm only recording the request sequence. ">
<polygon fill="none" stroke="black" points="390,-0.5 390,-47.5 526,-47.5 526,-0.5 390,-0.5"/>
<text text-anchor="start" x="398" y="-34.5" font-family="Helvetica,sans-Serif" font-size="10.00">stxxl::block_scheduler</text>
<text text-anchor="start" x="398" y="-21.5" font-family="Helvetica,sans-Serif" font-size="10.00">_algorithm_simulation</text>
<text text-anchor="middle" x="458" y="-8.5" font-family="Helvetica,sans-Serif" font-size="10.00">&lt; SwappableBlockType &gt;</text>
</a>
</g>
<!-- Node1&#45;&gt;Node6 -->
<g id="edge10" class="edge"><title>Node1&#45;&gt;Node6</title>
<path fill="none" stroke="midnightblue" d="M270.033,-101.114C295.253,-87.4554 329.03,-70.0522 360,-57 369.512,-52.991 379.696,-49.1181 389.769,-45.5224"/>
<polygon fill="midnightblue" stroke="midnightblue" points="268.251,-98.0992 261.149,-105.962 271.604,-104.244 268.251,-98.0992"/>
</g>
<!-- Node2 -->
<g id="node2" class="node"><title>Node2</title>
<a xlink:href="classstxxl_1_1noncopyable.html" target="_top" xlink:title="stxxl::noncopyable">
<polygon fill="none" stroke="black" points="0,-112.5 0,-133.5 102,-133.5 102,-112.5 0,-112.5"/>
<text text-anchor="middle" x="51" y="-120.5" font-family="Helvetica,sans-Serif" font-size="10.00">stxxl::noncopyable</text>
</a>
</g>
<!-- Node2&#45;&gt;Node1 -->
<g id="edge2" class="edge"><title>Node2&#45;&gt;Node1</title>
<path fill="none" stroke="#8b1a1a" d="M112.156,-123C120.573,-123 129.366,-123 138.195,-123"/>
<polygon fill="#8b1a1a" stroke="#8b1a1a" points="112.099,-119.5 102.099,-123 112.099,-126.5 112.099,-119.5"/>
</g>
</g>
</svg>
