<?xml version="1.0" encoding="UTF-8" standalone="no"?>
<!DOCTYPE svg PUBLIC "-//W3C//DTD SVG 1.1//EN"
 "http://www.w3.org/Graphics/SVG/1.1/DTD/svg11.dtd">
<!-- Generated by graphviz version 2.26.3 (20100126.1600)
 -->
<!-- Title: stxxl::random_pager&lt; npages_ &gt; Pages: 1 -->
<svg width="328pt" height="312pt"
 viewBox="0.00 0.00 328.00 312.00" xmlns="http://www.w3.org/2000/svg" xmlns:xlink="http://www.w3.org/1999/xlink">
<g id="graph1" class="graph" transform="scale(1 1) rotate(0) translate(4 308)">
<title>stxxl::random_pager&lt; npages_ &gt;</title>
<!-- Node1 -->
<g id="node1" class="node"><title>Node1</title>
<polygon fill="#bfbfbf" stroke="black" points="126,-1 126,-35 238,-35 238,-1 126,-1"/>
<text text-anchor="start" x="134" y="-22" font-family="Helvetica,sans-Serif" font-size="10.00">stxxl::random_pager</text>
<text text-anchor="middle" x="182" y="-9" font-family="Helvetica,sans-Serif" font-size="10.00">&lt; npages_ &gt;</text>
</g>
<!-- Node2 -->
<g id="node2" class="node"><title>Node2</title>
<a xlink:href="structstxxl_1_1random__number.html" target="_top" xlink:title="stxxl::random_number\l\&lt; stxxl::random_uniform\l_fast \&gt;">
<polygon fill="none" stroke="black" points="118,-86.5 118,-133.5 246,-133.5 246,-86.5 118,-86.5"/>
<text text-anchor="start" x="126" y="-120.5" font-family="Helvetica,sans-Serif" font-size="10.00">stxxl::random_number</text>
<text text-anchor="start" x="126" y="-107.5" font-family="Helvetica,sans-Serif" font-size="10.00">&lt; stxxl::random_uniform</text>
<text text-anchor="middle" x="182" y="-94.5" font-family="Helvetica,sans-Serif" font-size="10.00">_fast &gt;</text>
</a>
</g>
<!-- Node2&#45;&gt;Node1 -->
<g id="edge2" class="edge"><title>Node2&#45;&gt;Node1</title>
<path fill="none" stroke="#9a32cd" stroke-dasharray="5,2" d="M182,-76.0812C182,-62.1835 182,-46.7024 182,-35.2202"/>
<polygon fill="#9a32cd" stroke="#9a32cd" points="178.5,-76.3077 182,-86.3077 185.5,-76.3077 178.5,-76.3077"/>
<text text-anchor="middle" x="191.5" y="-58.5" font-family="Helvetica,sans-Serif" font-size="10.00"> rnd</text>
</g>
<!-- Node3 -->
<g id="node4" class="node"><title>Node3</title>
<a xlink:href="structstxxl_1_1random__uniform__fast.html" target="_top" xlink:title="Fast uniform [0.0, 1.0) pseudo&#45;random generator. ">
<polygon fill="none" stroke="black" points="0,-203.5 0,-224.5 142,-224.5 142,-203.5 0,-203.5"/>
<text text-anchor="middle" x="71" y="-211.5" font-family="Helvetica,sans-Serif" font-size="10.00">stxxl::random_uniform_fast</text>
</a>
</g>
<!-- Node3&#45;&gt;Node2 -->
<g id="edge4" class="edge"><title>Node3&#45;&gt;Node2</title>
<path fill="none" stroke="#9a32cd" stroke-dasharray="5,2" d="M90.1814,-196.028C108.572,-178.798 136.447,-152.681 156.658,-133.744"/>
<polygon fill="#9a32cd" stroke="#9a32cd" points="87.3653,-193.871 82.4609,-203.262 92.1514,-198.979 87.3653,-193.871"/>
<text text-anchor="middle" x="156" y="-162.5" font-family="Helvetica,sans-Serif" font-size="10.00"> uniform</text>
</g>
<!-- Node4 -->
<g id="node6" class="node"><title>Node4</title>
<a xlink:href="structstxxl_1_1random__number32.html" target="_top" xlink:title="Fast uniform [0, 2^32) pseudo&#45;random generator with period 2^32, random bits: 32. ...">
<polygon fill="none" stroke="black" points="5.5,-282.5 5.5,-303.5 136.5,-303.5 136.5,-282.5 5.5,-282.5"/>
<text text-anchor="middle" x="71" y="-290.5" font-family="Helvetica,sans-Serif" font-size="10.00">stxxl::random_number32</text>
</a>
</g>
<!-- Node4&#45;&gt;Node3 -->
<g id="edge6" class="edge"><title>Node4&#45;&gt;Node3</title>
<path fill="none" stroke="#9a32cd" stroke-dasharray="5,2" d="M71,-272.284C71,-257.031 71,-236.907 71,-224.738"/>
<polygon fill="#9a32cd" stroke="#9a32cd" points="67.5001,-272.346 71,-282.346 74.5001,-272.346 67.5001,-272.346"/>
<text text-anchor="middle" x="86.5" y="-254.5" font-family="Helvetica,sans-Serif" font-size="10.00"> rnd32</text>
</g>
<!-- Node5 -->
<g id="node8" class="node"><title>Node5</title>
<a xlink:href="structstxxl_1_1random__number.html" target="_top" xlink:title="Uniform [0, N) pseudo&#45;random generator. ">
<polygon fill="none" stroke="black" points="159.5,-197 159.5,-231 278.5,-231 278.5,-197 159.5,-197"/>
<text text-anchor="start" x="167.5" y="-218" font-family="Helvetica,sans-Serif" font-size="10.00">stxxl::random_number</text>
<text text-anchor="middle" x="219" y="-205" font-family="Helvetica,sans-Serif" font-size="10.00">&lt; UniformRGen &gt;</text>
</a>
</g>
<!-- Node5&#45;&gt;Node2 -->
<g id="edge8" class="edge"><title>Node5&#45;&gt;Node2</title>
<path fill="none" stroke="orange" stroke-dasharray="5,2" d="M209.47,-187.214C203.599,-170.71 196.137,-149.737 190.473,-133.815"/>
<polygon fill="orange" stroke="orange" points="206.241,-188.578 212.89,-196.827 212.836,-186.232 206.241,-188.578"/>
<text text-anchor="start" x="205" y="-169" font-family="Helvetica,sans-Serif" font-size="10.00"> &lt; stxxl::random_uniform</text>
<text text-anchor="middle" x="262.5" y="-156" font-family="Helvetica,sans-Serif" font-size="10.00">_fast &gt;</text>
</g>
</g>
</svg>
