<?xml version="1.0" encoding="UTF-8" standalone="no"?>
<!DOCTYPE svg PUBLIC "-//W3C//DTD SVG 1.1//EN"
 "http://www.w3.org/Graphics/SVG/1.1/DTD/svg11.dtd">
<!-- Generated by graphviz version 2.26.3 (20100126.1600)
 -->
<!-- Title: stxxl::request_queue_impl_worker Pages: 1 -->
<svg width="380pt" height="232pt"
 viewBox="0.00 0.00 380.00 232.00" xmlns="http://www.w3.org/2000/svg" xmlns:xlink="http://www.w3.org/1999/xlink">
<g id="graph1" class="graph" transform="scale(1 1) rotate(0) translate(4 228)">
<title>stxxl::request_queue_impl_worker</title>
<!-- Node1 -->
<g id="node1" class="node"><title>Node1</title>
<polygon fill="#bfbfbf" stroke="black" points="130,-73 130,-107 242,-107 242,-73 130,-73"/>
<text text-anchor="start" x="138" y="-94" font-family="Helvetica,sans-Serif" font-size="10.00">stxxl::request_queue</text>
<text text-anchor="middle" x="186" y="-81" font-family="Helvetica,sans-Serif" font-size="10.00">_impl_worker</text>
</g>
<!-- Node4 -->
<g id="node7" class="node"><title>Node4</title>
<a xlink:href="classstxxl_1_1linuxaio__queue.html" target="_top" xlink:title="Queue for linuxaio_file(s) ">
<polygon fill="none" stroke="black" points="0,-7.5 0,-28.5 112,-28.5 112,-7.5 0,-7.5"/>
<text text-anchor="middle" x="56" y="-15.5" font-family="Helvetica,sans-Serif" font-size="10.00">stxxl::linuxaio_queue</text>
</a>
</g>
<!-- Node1&#45;&gt;Node4 -->
<g id="edge6" class="edge"><title>Node1&#45;&gt;Node4</title>
<path fill="none" stroke="midnightblue" d="M146.135,-67.9209C122.613,-54.8935 93.9008,-38.9912 75.2979,-28.688"/>
<polygon fill="midnightblue" stroke="midnightblue" points="144.748,-71.1537 155.192,-72.937 148.14,-65.0302 144.748,-71.1537"/>
</g>
<!-- Node5 -->
<g id="node9" class="node"><title>Node5</title>
<a xlink:href="classstxxl_1_1request__queue__impl__1q.html" target="_top" xlink:title="Implementation of a local request queue having only one queue for both read and write requests...">
<polygon fill="none" stroke="black" points="130,-1 130,-35 242,-35 242,-1 130,-1"/>
<text text-anchor="start" x="138" y="-22" font-family="Helvetica,sans-Serif" font-size="10.00">stxxl::request_queue</text>
<text text-anchor="middle" x="186" y="-9" font-family="Helvetica,sans-Serif" font-size="10.00">_impl_1q</text>
</a>
</g>
<!-- Node1&#45;&gt;Node5 -->
<g id="edge8" class="edge"><title>Node1&#45;&gt;Node5</title>
<path fill="none" stroke="midnightblue" d="M186,-62.7193C186,-53.572 186,-43.6255 186,-35.4407"/>
<polygon fill="midnightblue" stroke="midnightblue" points="182.5,-62.937 186,-72.937 189.5,-62.937 182.5,-62.937"/>
</g>
<!-- Node6 -->
<g id="node11" class="node"><title>Node6</title>
<a xlink:href="classstxxl_1_1request__queue__impl__qwqr.html" target="_top" xlink:title="Implementation of a local request queue having two queues, one for read and one for write requests...">
<polygon fill="none" stroke="black" points="260,-1 260,-35 372,-35 372,-1 260,-1"/>
<text text-anchor="start" x="268" y="-22" font-family="Helvetica,sans-Serif" font-size="10.00">stxxl::request_queue</text>
<text text-anchor="middle" x="316" y="-9" font-family="Helvetica,sans-Serif" font-size="10.00">_impl_qwqr</text>
</a>
</g>
<!-- Node1&#45;&gt;Node6 -->
<g id="edge10" class="edge"><title>Node1&#45;&gt;Node6</title>
<path fill="none" stroke="midnightblue" d="M225.572,-68.0832C244.635,-57.5254 267.161,-45.049 284.962,-35.19"/>
<polygon fill="midnightblue" stroke="midnightblue" points="223.86,-65.0302 216.808,-72.937 227.252,-71.1537 223.86,-65.0302"/>
</g>
<!-- Node2 -->
<g id="node2" class="node"><title>Node2</title>
<a xlink:href="classstxxl_1_1request__queue.html" target="_top" xlink:title="Interface of a request_queue to which requests can be added and canceled. ">
<polygon fill="none" stroke="black" points="130,-144.5 130,-165.5 242,-165.5 242,-144.5 130,-144.5"/>
<text text-anchor="middle" x="186" y="-152.5" font-family="Helvetica,sans-Serif" font-size="10.00">stxxl::request_queue</text>
</a>
</g>
<!-- Node2&#45;&gt;Node1 -->
<g id="edge2" class="edge"><title>Node2&#45;&gt;Node1</title>
<path fill="none" stroke="midnightblue" d="M186,-134.131C186,-125.405 186,-115.391 186,-107.11"/>
<polygon fill="midnightblue" stroke="midnightblue" points="182.5,-134.267 186,-144.267 189.5,-134.267 182.5,-134.267"/>
</g>
<!-- Node3 -->
<g id="node4" class="node"><title>Node3</title>
<a xlink:href="classstxxl_1_1noncopyable.html" target="_top" xlink:title="stxxl::noncopyable">
<polygon fill="none" stroke="black" points="135,-202.5 135,-223.5 237,-223.5 237,-202.5 135,-202.5"/>
<text text-anchor="middle" x="186" y="-210.5" font-family="Helvetica,sans-Serif" font-size="10.00">stxxl::noncopyable</text>
</a>
</g>
<!-- Node3&#45;&gt;Node2 -->
<g id="edge4" class="edge"><title>Node3&#45;&gt;Node2</title>
<path fill="none" stroke="#8b1a1a" d="M186,-192.191C186,-183.168 186,-172.994 186,-165.571"/>
<polygon fill="#8b1a1a" stroke="#8b1a1a" points="182.5,-192.362 186,-202.362 189.5,-192.362 182.5,-192.362"/>
</g>
</g>
</svg>
