<?xml version="1.0" encoding="UTF-8" standalone="no"?>
<!DOCTYPE svg PUBLIC "-//W3C//DTD SVG 1.1//EN"
 "http://www.w3.org/Graphics/SVG/1.1/DTD/svg11.dtd">
<!-- Generated by graphviz version 2.26.3 (20100126.1600)
 -->
<!-- Title: stxxl::mng_local::element_block&lt; Type, Size &gt; Pages: 1 -->
<svg width="1798pt" height="337pt"
 viewBox="0.00 0.00 1798.00 337.00" xmlns="http://www.w3.org/2000/svg" xmlns:xlink="http://www.w3.org/1999/xlink">
<g id="graph1" class="graph" transform="scale(1 1) rotate(0) translate(4 333)">
<title>stxxl::mng_local::element_block&lt; Type, Size &gt;</title>
<!-- Node1 -->
<g id="node1" class="node"><title>Node1</title>
<polygon fill="#bfbfbf" stroke="black" points="0,-85 0,-119 132,-119 132,-85 0,-85"/>
<text text-anchor="start" x="8" y="-106" font-family="Helvetica,sans-Serif" font-size="10.00">stxxl::mng_local::element</text>
<text text-anchor="middle" x="66" y="-93" font-family="Helvetica,sans-Serif" font-size="10.00">_block&lt; Type, Size &gt;</text>
</g>
<!-- Node2 -->
<g id="node3" class="node"><title>Node2</title>
<a xlink:href="classstxxl_1_1mng__local_1_1block__w__bids.html" target="_top" xlink:title="block_w_bids\&lt; Type,\l((RawSize&#45;sizeof(BID\l\&lt; RawSize \&gt;)*NBids)/sizeof\l(Type)), RawSize, NBids \&gt;">
<polygon fill="none" stroke="black" points="368.5,-269 368.5,-329 515.5,-329 515.5,-269 368.5,-269"/>
<text text-anchor="start" x="376.5" y="-316" font-family="Helvetica,sans-Serif" font-size="10.00">block_w_bids&lt; Type,</text>
<text text-anchor="start" x="376.5" y="-303" font-family="Helvetica,sans-Serif" font-size="10.00">((RawSize&#45;sizeof(BID</text>
<text text-anchor="start" x="376.5" y="-290" font-family="Helvetica,sans-Serif" font-size="10.00">&lt; RawSize &gt;)*NBids)/sizeof</text>
<text text-anchor="middle" x="442" y="-277" font-family="Helvetica,sans-Serif" font-size="10.00">(Type)), RawSize, NBids &gt;</text>
</a>
</g>
<!-- Node1&#45;&gt;Node2 -->
<g id="edge2" class="edge"><title>Node1&#45;&gt;Node2</title>
<path fill="none" stroke="midnightblue" d="M105.688,-124.119C163.105,-155.927 272.889,-216.036 368,-264 371.172,-265.6 374.431,-267.221 377.728,-268.844"/>
<polygon fill="midnightblue" stroke="midnightblue" points="107.04,-120.866 96.5978,-119.076 103.645,-126.987 107.04,-120.866"/>
</g>
<!-- Node4 -->
<g id="node7" class="node"><title>Node4</title>
<a xlink:href="classstxxl_1_1mng__local_1_1block__w__bids.html" target="_top" xlink:title="block_w_bids\&lt; Type,\l((RawSize&#45;sizeof(BID\l\&lt; RawSize \&gt;)*NBids&#45;sizeof\l(MetaInfoType))/sizeof(Type)\l), RawSize, NBids \&gt;">
<polygon fill="none" stroke="black" points="542,-0.5 542,-73.5 698,-73.5 698,-0.5 542,-0.5"/>
<text text-anchor="start" x="550" y="-60.5" font-family="Helvetica,sans-Serif" font-size="10.00">block_w_bids&lt; Type,</text>
<text text-anchor="start" x="550" y="-47.5" font-family="Helvetica,sans-Serif" font-size="10.00">((RawSize&#45;sizeof(BID</text>
<text text-anchor="start" x="550" y="-34.5" font-family="Helvetica,sans-Serif" font-size="10.00">&lt; RawSize &gt;)*NBids&#45;sizeof</text>
<text text-anchor="start" x="550" y="-21.5" font-family="Helvetica,sans-Serif" font-size="10.00">(MetaInfoType))/sizeof(Type)</text>
<text text-anchor="middle" x="620" y="-8.5" font-family="Helvetica,sans-Serif" font-size="10.00">), RawSize, NBids &gt;</text>
</a>
</g>
<!-- Node1&#45;&gt;Node4 -->
<g id="edge6" class="edge"><title>Node1&#45;&gt;Node4</title>
<path fill="none" stroke="midnightblue" d="M142.221,-93.0571C247.364,-80.7208 435.909,-58.5992 541.989,-46.1529"/>
<polygon fill="midnightblue" stroke="midnightblue" points="141.525,-89.6147 132.001,-94.2562 142.34,-96.567 141.525,-89.6147"/>
</g>
<!-- Node10 -->
<g id="node20" class="node"><title>Node10</title>
<a xlink:href="classstxxl_1_1mng__local_1_1block__w__bids.html" target="_top" xlink:title="Contains BID references for stxxl::typed_block , not intended for direct use. ">
<polygon fill="none" stroke="black" points="199,-113 199,-147 321,-147 321,-113 199,-113"/>
<text text-anchor="start" x="207" y="-134" font-family="Helvetica,sans-Serif" font-size="10.00">stxxl::mng_local::block</text>
<text text-anchor="middle" x="260" y="-121" font-family="Helvetica,sans-Serif" font-size="10.00">_w_bids&lt; Type, Size &gt;</text>
</a>
</g>
<!-- Node1&#45;&gt;Node10 -->
<g id="edge20" class="edge"><title>Node1&#45;&gt;Node10</title>
<path fill="none" stroke="midnightblue" d="M142.245,-113.004C161.065,-115.721 180.979,-118.595 198.97,-121.192"/>
<polygon fill="midnightblue" stroke="midnightblue" points="142.619,-109.522 132.221,-111.558 141.619,-116.45 142.619,-109.522"/>
</g>
<!-- Node13 -->
<g id="node29" class="node"><title>Node13</title>
<a xlink:href="classstxxl_1_1mng__local_1_1block__w__bids_3_01Type_00_01Size_00_01RawSize_00_010_01_4.html" target="_top" xlink:title="stxxl::mng_local::block\l_w_bids\&lt; Type, Size, RawSize, 0 \&gt;">
<polygon fill="none" stroke="black" points="170,-23 170,-57 350,-57 350,-23 170,-23"/>
<text text-anchor="start" x="178" y="-44" font-family="Helvetica,sans-Serif" font-size="10.00">stxxl::mng_local::block</text>
<text text-anchor="middle" x="260" y="-31" font-family="Helvetica,sans-Serif" font-size="10.00">_w_bids&lt; Type, Size, RawSize, 0 &gt;</text>
</a>
</g>
<!-- Node1&#45;&gt;Node13 -->
<g id="edge32" class="edge"><title>Node1&#45;&gt;Node13</title>
<path fill="none" stroke="midnightblue" d="M119.694,-81.4697C129.718,-77.8409 140.141,-74.203 150,-71 164.908,-66.1569 181.09,-61.3508 196.34,-57.0201"/>
<polygon fill="midnightblue" stroke="midnightblue" points="118.425,-78.2072 110.238,-84.9316 120.832,-84.7805 118.425,-78.2072"/>
</g>
<!-- Node3 -->
<g id="node5" class="node"><title>Node3</title>
<a xlink:href="classstxxl_1_1mng__local_1_1block__w__info_3_01Type_00_01RawSize_00_01NBids_00_01void_01_4.html" target="_top" xlink:title="stxxl::mng_local::block\l_w_info\&lt; Type, RawSize,\l NBids, void \&gt;">
<polygon fill="none" stroke="black" points="744.5,-245.5 744.5,-292.5 879.5,-292.5 879.5,-245.5 744.5,-245.5"/>
<text text-anchor="start" x="752.5" y="-279.5" font-family="Helvetica,sans-Serif" font-size="10.00">stxxl::mng_local::block</text>
<text text-anchor="start" x="752.5" y="-266.5" font-family="Helvetica,sans-Serif" font-size="10.00">_w_info&lt; Type, RawSize,</text>
<text text-anchor="middle" x="812" y="-253.5" font-family="Helvetica,sans-Serif" font-size="10.00"> NBids, void &gt;</text>
</a>
</g>
<!-- Node2&#45;&gt;Node3 -->
<g id="edge4" class="edge"><title>Node2&#45;&gt;Node3</title>
<path fill="none" stroke="midnightblue" d="M525.51,-292.229C591.565,-286.873 682.619,-279.49 744.207,-274.497"/>
<polygon fill="midnightblue" stroke="midnightblue" points="525.227,-288.74 515.542,-293.037 525.793,-295.717 525.227,-288.74"/>
</g>
<!-- Node5 -->
<g id="node9" class="node"><title>Node5</title>
<a xlink:href="classstxxl_1_1mng__local_1_1block__w__info.html" target="_top" xlink:title="stxxl::mng_local::block\l_w_info\&lt; Type, RawSize,\l NRef, MetaInfoType \&gt;">
<polygon fill="none" stroke="black" points="1032.5,-59.5 1032.5,-106.5 1167.5,-106.5 1167.5,-59.5 1032.5,-59.5"/>
<text text-anchor="start" x="1040.5" y="-93.5" font-family="Helvetica,sans-Serif" font-size="10.00">stxxl::mng_local::block</text>
<text text-anchor="start" x="1040.5" y="-80.5" font-family="Helvetica,sans-Serif" font-size="10.00">_w_info&lt; Type, RawSize,</text>
<text text-anchor="middle" x="1100" y="-67.5" font-family="Helvetica,sans-Serif" font-size="10.00"> NRef, MetaInfoType &gt;</text>
</a>
</g>
<!-- Node4&#45;&gt;Node5 -->
<g id="edge8" class="edge"><title>Node4&#45;&gt;Node5</title>
<path fill="none" stroke="midnightblue" d="M708.294,-39.2462C758.688,-41.0707 822.99,-44.3131 880,-50 931.305,-55.1179 988.929,-63.8722 1032.33,-71.0784"/>
<polygon fill="midnightblue" stroke="midnightblue" points="708.2,-35.7409 698.083,-38.889 707.955,-42.7366 708.2,-35.7409"/>
</g>
<!-- Node9 -->
<g id="node17" class="node"><title>Node9</title>
<a xlink:href="classstxxl_1_1mng__local_1_1block__w__info.html" target="_top" xlink:title="Contains per block information for stxxl::typed_block , not intended for direct use. ">
<polygon fill="none" stroke="black" points="744.5,-59.5 744.5,-106.5 879.5,-106.5 879.5,-59.5 744.5,-59.5"/>
<text text-anchor="start" x="752.5" y="-93.5" font-family="Helvetica,sans-Serif" font-size="10.00">stxxl::mng_local::block</text>
<text text-anchor="start" x="752.5" y="-80.5" font-family="Helvetica,sans-Serif" font-size="10.00">_w_info&lt; Type, RawSize,</text>
<text text-anchor="middle" x="812" y="-67.5" font-family="Helvetica,sans-Serif" font-size="10.00"> NBids, MetaInfoType &gt;</text>
</a>
</g>
<!-- Node4&#45;&gt;Node9 -->
<g id="edge16" class="edge"><title>Node4&#45;&gt;Node9</title>
<path fill="none" stroke="midnightblue" d="M707.886,-58.0561C720.164,-60.9976 732.62,-63.9818 744.443,-66.8145"/>
<polygon fill="midnightblue" stroke="midnightblue" points="708.634,-54.6363 698.094,-55.71 707.003,-61.4436 708.634,-54.6363"/>
</g>
<!-- Node6 -->
<g id="node11" class="node"><title>Node6</title>
<a xlink:href="classstxxl_1_1mng__local_1_1add__filler.html" target="_top" xlink:title="stxxl::mng_local::add\l_filler\&lt; mng_local::block\l_w_info\&lt; Type, RawSize,\l NRef, MetaInfoType \&gt;, RawSize\l&#45;sizeof(mng_local::block_w_info\l\&lt; Type, RawSize, NRef, MetaInfoType \&gt;)\&gt;">
<polygon fill="none" stroke="black" points="1206.5,-40 1206.5,-126 1421.5,-126 1421.5,-40 1206.5,-40"/>
<text text-anchor="start" x="1214.5" y="-113" font-family="Helvetica,sans-Serif" font-size="10.00">stxxl::mng_local::add</text>
<text text-anchor="start" x="1214.5" y="-100" font-family="Helvetica,sans-Serif" font-size="10.00">_filler&lt; mng_local::block</text>
<text text-anchor="start" x="1214.5" y="-87" font-family="Helvetica,sans-Serif" font-size="10.00">_w_info&lt; Type, RawSize,</text>
<text text-anchor="start" x="1214.5" y="-74" font-family="Helvetica,sans-Serif" font-size="10.00"> NRef, MetaInfoType &gt;, RawSize</text>
<text text-anchor="start" x="1214.5" y="-61" font-family="Helvetica,sans-Serif" font-size="10.00">&#45;sizeof(mng_local::block_w_info</text>
<text text-anchor="middle" x="1314" y="-48" font-family="Helvetica,sans-Serif" font-size="10.00">&lt; Type, RawSize, NRef, MetaInfoType &gt;)&gt;</text>
</a>
</g>
<!-- Node5&#45;&gt;Node6 -->
<g id="edge10" class="edge"><title>Node5&#45;&gt;Node6</title>
<path fill="none" stroke="midnightblue" d="M1177.72,-83C1187.08,-83 1196.76,-83 1206.45,-83"/>
<polygon fill="midnightblue" stroke="midnightblue" points="1177.71,-79.5001 1167.71,-83 1177.71,-86.5001 1177.71,-79.5001"/>
</g>
<!-- Node7 -->
<g id="node13" class="node"><title>Node7</title>
<a xlink:href="classstxxl_1_1mng__local_1_1expand__struct.html" target="_top" xlink:title="stxxl::mng_local::expand\l_struct\&lt; mng_local::block\l_w_info\&lt; Type, RawSize, NRef,\l MetaInfoType \&gt;, RawSize \&gt;">
<polygon fill="none" stroke="black" points="1460,-53 1460,-113 1624,-113 1624,-53 1460,-53"/>
<text text-anchor="start" x="1468" y="-100" font-family="Helvetica,sans-Serif" font-size="10.00">stxxl::mng_local::expand</text>
<text text-anchor="start" x="1468" y="-87" font-family="Helvetica,sans-Serif" font-size="10.00">_struct&lt; mng_local::block</text>
<text text-anchor="start" x="1468" y="-74" font-family="Helvetica,sans-Serif" font-size="10.00">_w_info&lt; Type, RawSize, NRef,</text>
<text text-anchor="middle" x="1542" y="-61" font-family="Helvetica,sans-Serif" font-size="10.00"> MetaInfoType &gt;, RawSize &gt;</text>
</a>
</g>
<!-- Node6&#45;&gt;Node7 -->
<g id="edge12" class="edge"><title>Node6&#45;&gt;Node7</title>
<path fill="none" stroke="midnightblue" d="M1431.87,-83C1441.27,-83 1450.65,-83 1459.73,-83"/>
<polygon fill="midnightblue" stroke="midnightblue" points="1431.66,-79.5001 1421.66,-83 1431.66,-86.5001 1431.66,-79.5001"/>
</g>
<!-- Node8 -->
<g id="node15" class="node"><title>Node8</title>
<a xlink:href="classstxxl_1_1typed__block.html" target="_top" xlink:title="Block containing elements of fixed length. ">
<polygon fill="none" stroke="black" points="1662,-59.5 1662,-106.5 1790,-106.5 1790,-59.5 1662,-59.5"/>
<text text-anchor="start" x="1670" y="-93.5" font-family="Helvetica,sans-Serif" font-size="10.00">stxxl::typed_block</text>
<text text-anchor="start" x="1670" y="-80.5" font-family="Helvetica,sans-Serif" font-size="10.00">&lt; RawSize, Type, NRef,</text>
<text text-anchor="middle" x="1726" y="-67.5" font-family="Helvetica,sans-Serif" font-size="10.00"> MetaInfoType &gt;</text>
</a>
</g>
<!-- Node7&#45;&gt;Node8 -->
<g id="edge14" class="edge"><title>Node7&#45;&gt;Node8</title>
<path fill="none" stroke="midnightblue" d="M1634.16,-83C1643.5,-83 1652.84,-83 1661.78,-83"/>
<polygon fill="midnightblue" stroke="midnightblue" points="1634.04,-79.5001 1624.04,-83 1634.04,-86.5001 1634.04,-79.5001"/>
</g>
<!-- Node9&#45;&gt;Node5 -->
<g id="edge18" class="edge"><title>Node9&#45;&gt;Node5</title>
<path fill="none" stroke="orange" stroke-dasharray="5,2" d="M889.727,-83C934.281,-83 989.661,-83 1032.4,-83"/>
<polygon fill="orange" stroke="orange" points="889.523,-79.5001 879.523,-83 889.523,-86.5001 889.523,-79.5001"/>
<text text-anchor="start" x="898.5" y="-100" font-family="Helvetica,sans-Serif" font-size="10.00"> &lt; Type, RawSize, NRef,</text>
<text text-anchor="middle" x="956" y="-87" font-family="Helvetica,sans-Serif" font-size="10.00"> MetaInfoType &gt;</text>
</g>
<!-- Node11 -->
<g id="node22" class="node"><title>Node11</title>
<a xlink:href="classstxxl_1_1mng__local_1_1block__w__bids.html" target="_top" xlink:title="stxxl::mng_local::block\l_w_bids\&lt; Type,((RawSize\l&#45;sizeof(BID\&lt; RawSize \&gt;)*NBids)\l/sizeof(Type)), RawSize, NBids \&gt;">
<polygon fill="none" stroke="black" points="534.5,-193 534.5,-253 705.5,-253 705.5,-193 534.5,-193"/>
<text text-anchor="start" x="542.5" y="-240" font-family="Helvetica,sans-Serif" font-size="10.00">stxxl::mng_local::block</text>
<text text-anchor="start" x="542.5" y="-227" font-family="Helvetica,sans-Serif" font-size="10.00">_w_bids&lt; Type,((RawSize</text>
<text text-anchor="start" x="542.5" y="-214" font-family="Helvetica,sans-Serif" font-size="10.00">&#45;sizeof(BID&lt; RawSize &gt;)*NBids)</text>
<text text-anchor="middle" x="620" y="-201" font-family="Helvetica,sans-Serif" font-size="10.00">/sizeof(Type)), RawSize, NBids &gt;</text>
</a>
</g>
<!-- Node10&#45;&gt;Node11 -->
<g id="edge22" class="edge"><title>Node10&#45;&gt;Node11</title>
<path fill="none" stroke="orange" stroke-dasharray="5,2" d="M293.146,-152.837C313.764,-165.891 341.344,-181.342 368,-190 431.021,-210.47 450.315,-199.27 516,-208 521.968,-208.793 528.125,-209.631 534.323,-210.489"/>
<polygon fill="orange" stroke="orange" points="294.774,-149.722 284.476,-147.23 290.972,-155.6 294.774,-149.722"/>
<text text-anchor="start" x="381.5" y="-251" font-family="Helvetica,sans-Serif" font-size="10.00"> &lt; Type,((RawSize&#45;sizeof</text>
<text text-anchor="start" x="381.5" y="-238" font-family="Helvetica,sans-Serif" font-size="10.00">(BID&lt; RawSize &gt;)*NBids)</text>
<text text-anchor="start" x="381.5" y="-225" font-family="Helvetica,sans-Serif" font-size="10.00">/sizeof(Type)), RawSize,</text>
<text text-anchor="middle" x="442" y="-212" font-family="Helvetica,sans-Serif" font-size="10.00"> NBids &gt;</text>
</g>
<!-- Node12 -->
<g id="node25" class="node"><title>Node12</title>
<a xlink:href="classstxxl_1_1mng__local_1_1block__w__bids.html" target="_top" xlink:title="stxxl::mng_local::block\l_w_bids\&lt; Type,((RawSize\l&#45;sizeof(BID\&lt; RawSize \&gt;)*NBids\l&#45;sizeof(MetaInfoType))/sizeof\l(Type)), RawSize, NBids \&gt;">
<polygon fill="none" stroke="black" points="538,-92.5 538,-165.5 702,-165.5 702,-92.5 538,-92.5"/>
<text text-anchor="start" x="546" y="-152.5" font-family="Helvetica,sans-Serif" font-size="10.00">stxxl::mng_local::block</text>
<text text-anchor="start" x="546" y="-139.5" font-family="Helvetica,sans-Serif" font-size="10.00">_w_bids&lt; Type,((RawSize</text>
<text text-anchor="start" x="546" y="-126.5" font-family="Helvetica,sans-Serif" font-size="10.00">&#45;sizeof(BID&lt; RawSize &gt;)*NBids</text>
<text text-anchor="start" x="546" y="-113.5" font-family="Helvetica,sans-Serif" font-size="10.00">&#45;sizeof(MetaInfoType))/sizeof</text>
<text text-anchor="middle" x="620" y="-100.5" font-family="Helvetica,sans-Serif" font-size="10.00">(Type)), RawSize, NBids &gt;</text>
</a>
</g>
<!-- Node10&#45;&gt;Node12 -->
<g id="edge26" class="edge"><title>Node10&#45;&gt;Node12</title>
<path fill="none" stroke="orange" stroke-dasharray="5,2" d="M331.276,-126.233C343.522,-125.719 356.125,-125.275 368,-125 433.76,-123.479 450.234,-123.736 516,-125 523.136,-125.137 530.546,-125.327 537.975,-125.551"/>
<polygon fill="orange" stroke="orange" points="330.934,-122.744 321.097,-126.678 331.24,-129.737 330.934,-122.744"/>
<text text-anchor="start" x="383" y="-181" font-family="Helvetica,sans-Serif" font-size="10.00"> &lt; Type,((RawSize&#45;sizeof</text>
<text text-anchor="start" x="383" y="-168" font-family="Helvetica,sans-Serif" font-size="10.00">(BID&lt; RawSize &gt;)*NBids</text>
<text text-anchor="start" x="383" y="-155" font-family="Helvetica,sans-Serif" font-size="10.00">&#45;sizeof(MetaInfoType))</text>
<text text-anchor="start" x="383" y="-142" font-family="Helvetica,sans-Serif" font-size="10.00">/sizeof(Type)), RawSize,</text>
<text text-anchor="middle" x="442" y="-129" font-family="Helvetica,sans-Serif" font-size="10.00"> NBids &gt;</text>
</g>
<!-- Node11&#45;&gt;Node3 -->
<g id="edge24" class="edge"><title>Node11&#45;&gt;Node3</title>
<path fill="none" stroke="midnightblue" d="M715.395,-245.855C725.196,-248.203 735.005,-250.553 744.415,-252.808"/>
<polygon fill="midnightblue" stroke="midnightblue" points="716.152,-242.437 705.612,-243.511 714.521,-249.245 716.152,-242.437"/>
</g>
<!-- Node12&#45;&gt;Node5 -->
<g id="edge28" class="edge"><title>Node12&#45;&gt;Node5</title>
<path fill="none" stroke="midnightblue" d="M712.395,-132.873C792.801,-134.439 912.101,-132.398 1014,-113 1022.39,-111.403 1031.06,-109.145 1039.53,-106.576"/>
<polygon fill="midnightblue" stroke="midnightblue" points="712.37,-129.372 702.296,-132.654 712.217,-136.37 712.37,-129.372"/>
</g>
<!-- Node12&#45;&gt;Node9 -->
<g id="edge30" class="edge"><title>Node12&#45;&gt;Node9</title>
<path fill="none" stroke="midnightblue" d="M712.187,-106.914C723.033,-104.315 733.943,-101.701 744.364,-99.2045"/>
<polygon fill="midnightblue" stroke="midnightblue" points="711.17,-103.558 702.261,-109.292 712.801,-110.365 711.17,-103.558"/>
</g>
</g>
</svg>
