<?xml version="1.0" encoding="UTF-8" standalone="no"?>
<!DOCTYPE svg PUBLIC "-//W3C//DTD SVG 1.1//EN"
 "http://www.w3.org/Graphics/SVG/1.1/DTD/svg11.dtd">
<!-- Generated by graphviz version 2.26.3 (20100126.1600)
 -->
<!-- Title: stxxl::request_queue_impl_worker Pages: 1 -->
<svg width="120pt" height="160pt"
 viewBox="0.00 0.00 120.00 160.00" xmlns="http://www.w3.org/2000/svg" xmlns:xlink="http://www.w3.org/1999/xlink">
<g id="graph1" class="graph" transform="scale(1 1) rotate(0) translate(4 156)">
<title>stxxl::request_queue_impl_worker</title>
<!-- Node1 -->
<g id="node1" class="node"><title>Node1</title>
<polygon fill="#bfbfbf" stroke="black" points="0,-1 0,-35 112,-35 112,-1 0,-1"/>
<text text-anchor="start" x="8" y="-22" font-family="Helvetica,sans-Serif" font-size="10.00">stxxl::request_queue</text>
<text text-anchor="middle" x="56" y="-9" font-family="Helvetica,sans-Serif" font-size="10.00">_impl_worker</text>
</g>
<!-- Node2 -->
<g id="node2" class="node"><title>Node2</title>
<a xlink:href="classstxxl_1_1request__queue.html" target="_top" xlink:title="Interface of a request_queue to which requests can be added and canceled. ">
<polygon fill="none" stroke="black" points="0,-72.5 0,-93.5 112,-93.5 112,-72.5 0,-72.5"/>
<text text-anchor="middle" x="56" y="-80.5" font-family="Helvetica,sans-Serif" font-size="10.00">stxxl::request_queue</text>
</a>
</g>
<!-- Node2&#45;&gt;Node1 -->
<g id="edge2" class="edge"><title>Node2&#45;&gt;Node1</title>
<path fill="none" stroke="midnightblue" d="M56,-62.1306C56,-53.4049 56,-43.3908 56,-35.1099"/>
<polygon fill="midnightblue" stroke="midnightblue" points="52.5001,-62.2665 56,-72.2666 59.5001,-62.2666 52.5001,-62.2665"/>
</g>
<!-- Node3 -->
<g id="node4" class="node"><title>Node3</title>
<a xlink:href="classstxxl_1_1noncopyable.html" target="_top" xlink:title="stxxl::noncopyable">
<polygon fill="none" stroke="black" points="5,-130.5 5,-151.5 107,-151.5 107,-130.5 5,-130.5"/>
<text text-anchor="middle" x="56" y="-138.5" font-family="Helvetica,sans-Serif" font-size="10.00">stxxl::noncopyable</text>
</a>
</g>
<!-- Node3&#45;&gt;Node2 -->
<g id="edge4" class="edge"><title>Node3&#45;&gt;Node2</title>
<path fill="none" stroke="#8b1a1a" d="M56,-120.191C56,-111.168 56,-100.994 56,-93.5707"/>
<polygon fill="#8b1a1a" stroke="#8b1a1a" points="52.5001,-120.362 56,-130.362 59.5001,-120.362 52.5001,-120.362"/>
</g>
</g>
</svg>
