<?xml version="1.0" encoding="UTF-8" standalone="no"?>
<!DOCTYPE svg PUBLIC "-//W3C//DTD SVG 1.1//EN"
 "http://www.w3.org/Graphics/SVG/1.1/DTD/svg11.dtd">
<!-- Generated by graphviz version 2.26.3 (20100126.1600)
 -->
<!-- Title: stxxl::grow_shrink_stack&lt; StackConfig &gt; Pages: 1 -->
<svg width="776pt" height="191pt"
 viewBox="0.00 0.00 776.00 191.26" xmlns="http://www.w3.org/2000/svg" xmlns:xlink="http://www.w3.org/1999/xlink">
<g id="graph1" class="graph" transform="scale(1 1) rotate(0) translate(4 187.264)">
<title>stxxl::grow_shrink_stack&lt; StackConfig &gt;</title>
<!-- Node1 -->
<g id="node1" class="node"><title>Node1</title>
<polygon fill="#bfbfbf" stroke="black" points="646,-99 646,-133 768,-133 768,-99 646,-99"/>
<text text-anchor="start" x="654" y="-120" font-family="Helvetica,sans-Serif" font-size="10.00">stxxl::grow_shrink</text>
<text text-anchor="middle" x="707" y="-107" font-family="Helvetica,sans-Serif" font-size="10.00">_stack&lt; StackConfig &gt;</text>
</g>
<!-- Node2 -->
<g id="node2" class="node"><title>Node2</title>
<a xlink:href="classstxxl_1_1noncopyable.html" target="_top" xlink:title="stxxl::noncopyable">
<polygon fill="none" stroke="black" points="0,-130.5 0,-151.5 102,-151.5 102,-130.5 0,-130.5"/>
<text text-anchor="middle" x="51" y="-138.5" font-family="Helvetica,sans-Serif" font-size="10.00">stxxl::noncopyable</text>
</a>
</g>
<!-- Node2&#45;&gt;Node1 -->
<g id="edge2" class="edge"><title>Node2&#45;&gt;Node1</title>
<path fill="none" stroke="#8b1a1a" d="M104.556,-153.491C109.756,-154.448 114.967,-155.309 120,-156 302.442,-181.061 350.856,-192.268 534,-173 576.479,-168.531 587.507,-166.591 628,-153 643.937,-147.651 660.906,-139.984 675.016,-133.016"/>
<polygon fill="#8b1a1a" stroke="#8b1a1a" points="105.105,-150.032 94.6195,-151.552 103.764,-156.903 105.105,-150.032"/>
</g>
<!-- Node5 -->
<g id="node8" class="node"><title>Node5</title>
<a xlink:href="classstxxl_1_1simple__vector.html" target="_top" xlink:title="stxxl::simple_vector\l\&lt; stxxl::counting_ptr \&gt;">
<polygon fill="none" stroke="black" points="411.5,-130 411.5,-164 530.5,-164 530.5,-130 411.5,-130"/>
<text text-anchor="start" x="419.5" y="-151" font-family="Helvetica,sans-Serif" font-size="10.00">stxxl::simple_vector</text>
<text text-anchor="middle" x="471" y="-138" font-family="Helvetica,sans-Serif" font-size="10.00">&lt; stxxl::counting_ptr &gt;</text>
</a>
</g>
<!-- Node2&#45;&gt;Node5 -->
<g id="edge10" class="edge"><title>Node2&#45;&gt;Node5</title>
<path fill="none" stroke="#8b1a1a" d="M112.38,-142.162C159.363,-143.025 225.772,-144.189 284,-145 326.528,-145.592 374.498,-146.102 411.205,-146.459"/>
<polygon fill="#8b1a1a" stroke="#8b1a1a" points="112.426,-138.662 102.363,-141.977 112.297,-145.661 112.426,-138.662"/>
</g>
<!-- Node6 -->
<g id="node11" class="node"><title>Node6</title>
<a xlink:href="classstxxl_1_1simple__vector.html" target="_top" xlink:title="Simpler non&#45;growing vector without initialization. ">
<polygon fill="none" stroke="black" points="149.5,-97 149.5,-131 256.5,-131 256.5,-97 149.5,-97"/>
<text text-anchor="start" x="157.5" y="-118" font-family="Helvetica,sans-Serif" font-size="10.00">stxxl::simple_vector</text>
<text text-anchor="middle" x="203" y="-105" font-family="Helvetica,sans-Serif" font-size="10.00">&lt; ValueType &gt;</text>
</a>
</g>
<!-- Node2&#45;&gt;Node6 -->
<g id="edge14" class="edge"><title>Node2&#45;&gt;Node6</title>
<path fill="none" stroke="#8b1a1a" d="M112.242,-130.122C124.577,-127.93 137.452,-125.643 149.498,-123.504"/>
<polygon fill="#8b1a1a" stroke="#8b1a1a" points="111.27,-126.739 102.037,-131.934 112.495,-133.631 111.27,-126.739"/>
</g>
<!-- Node7 -->
<g id="node14" class="node"><title>Node7</title>
<a xlink:href="classstxxl_1_1simple__vector.html" target="_top" xlink:title="stxxl::simple_vector\l\&lt; stxxl::typed_block \&gt;">
<polygon fill="none" stroke="black" points="413,-68 413,-102 529,-102 529,-68 413,-68"/>
<text text-anchor="start" x="421" y="-89" font-family="Helvetica,sans-Serif" font-size="10.00">stxxl::simple_vector</text>
<text text-anchor="middle" x="471" y="-76" font-family="Helvetica,sans-Serif" font-size="10.00">&lt; stxxl::typed_block &gt;</text>
</a>
</g>
<!-- Node2&#45;&gt;Node7 -->
<g id="edge18" class="edge"><title>Node2&#45;&gt;Node7</title>
<path fill="none" stroke="#8b1a1a" d="M72.0572,-124.275C89.2412,-111.706 114.729,-95.4288 140,-88 232.351,-60.8524 345.554,-67.9456 412.787,-76.0944"/>
<polygon fill="#8b1a1a" stroke="#8b1a1a" points="69.7524,-121.63 63.8731,-130.444 73.9656,-127.22 69.7524,-121.63"/>
</g>
<!-- Node3 -->
<g id="node4" class="node"><title>Node3</title>
<a xlink:href="structstxxl_1_1choose__int__types.html" target="_top" xlink:title="stxxl::choose_int_types\l\&lt; my_pointer_size \&gt;">
<polygon fill="none" stroke="black" points="408.5,-6 408.5,-40 533.5,-40 533.5,-6 408.5,-6"/>
<text text-anchor="start" x="416.5" y="-27" font-family="Helvetica,sans-Serif" font-size="10.00">stxxl::choose_int_types</text>
<text text-anchor="middle" x="471" y="-14" font-family="Helvetica,sans-Serif" font-size="10.00">&lt; my_pointer_size &gt;</text>
</a>
</g>
<!-- Node3&#45;&gt;Node1 -->
<g id="edge4" class="edge"><title>Node3&#45;&gt;Node1</title>
<path fill="none" stroke="#9a32cd" stroke-dasharray="5,2" d="M543.437,-34.0085C570.711,-39.7026 601.517,-48.0449 628,-60 650.065,-69.9607 672.303,-86.4344 687.538,-98.9423"/>
<polygon fill="#9a32cd" stroke="#9a32cd" points="544.055,-30.563 533.562,-32.0287 542.679,-37.4264 544.055,-30.563"/>
<text text-anchor="middle" x="590" y="-64" font-family="Helvetica,sans-Serif" font-size="10.00"> cache_offset</text>
</g>
<!-- Node4 -->
<g id="node6" class="node"><title>Node4</title>
<a xlink:href="structstxxl_1_1choose__int__types.html" target="_top" xlink:title="stxxl::choose_int_types\l\&lt; PtrSize \&gt;">
<polygon fill="none" stroke="black" points="140.5,-0 140.5,-34 265.5,-34 265.5,-0 140.5,-0"/>
<text text-anchor="start" x="148.5" y="-21" font-family="Helvetica,sans-Serif" font-size="10.00">stxxl::choose_int_types</text>
<text text-anchor="middle" x="203" y="-8" font-family="Helvetica,sans-Serif" font-size="10.00">&lt; PtrSize &gt;</text>
</a>
</g>
<!-- Node4&#45;&gt;Node3 -->
<g id="edge6" class="edge"><title>Node4&#45;&gt;Node3</title>
<path fill="none" stroke="orange" stroke-dasharray="5,2" d="M275.853,-18.631C317.223,-19.5572 368.491,-20.705 408.096,-21.5917"/>
<polygon fill="orange" stroke="orange" points="275.91,-15.1315 265.834,-18.4067 275.753,-22.1298 275.91,-15.1315"/>
<text text-anchor="middle" x="337" y="-26" font-family="Helvetica,sans-Serif" font-size="10.00"> &lt; my_pointer_size &gt;</text>
</g>
<!-- Node5&#45;&gt;Node1 -->
<g id="edge8" class="edge"><title>Node5&#45;&gt;Node1</title>
<path fill="none" stroke="#9a32cd" stroke-dasharray="5,2" d="M540.691,-137.846C574.052,-133.463 613.64,-128.263 645.821,-124.036"/>
<polygon fill="#9a32cd" stroke="#9a32cd" points="540.012,-134.405 530.553,-139.177 540.923,-141.345 540.012,-134.405"/>
<text text-anchor="middle" x="590" y="-140" font-family="Helvetica,sans-Serif" font-size="10.00"> requests</text>
</g>
<!-- Node6&#45;&gt;Node5 -->
<g id="edge12" class="edge"><title>Node6&#45;&gt;Node5</title>
<path fill="none" stroke="orange" stroke-dasharray="5,2" d="M267.159,-118.785C303.326,-121.831 349.286,-126.282 390,-132 396.94,-132.975 404.19,-134.126 411.379,-135.35"/>
<polygon fill="orange" stroke="orange" points="267.004,-115.26 256.75,-117.924 266.427,-122.237 267.004,-115.26"/>
<text text-anchor="middle" x="337" y="-136" font-family="Helvetica,sans-Serif" font-size="10.00"> &lt; stxxl::counting_ptr &gt;</text>
</g>
<!-- Node6&#45;&gt;Node7 -->
<g id="edge20" class="edge"><title>Node6&#45;&gt;Node7</title>
<path fill="none" stroke="orange" stroke-dasharray="5,2" d="M267.05,-98.78C272.761,-97.7224 278.471,-96.7718 284,-96 326.838,-90.0194 375.638,-87.284 412.643,-86.0361"/>
<polygon fill="orange" stroke="orange" points="265.95,-95.4286 256.809,-100.784 267.295,-102.298 265.95,-95.4286"/>
<text text-anchor="middle" x="337" y="-100" font-family="Helvetica,sans-Serif" font-size="10.00"> &lt; stxxl::typed_block &gt;</text>
</g>
<!-- Node7&#45;&gt;Node1 -->
<g id="edge16" class="edge"><title>Node7&#45;&gt;Node1</title>
<path fill="none" stroke="#9a32cd" stroke-dasharray="5,2" d="M539.332,-77.9411C567.09,-76.6723 599.316,-77.2498 628,-83 643.74,-86.1553 660.259,-92.5216 674.1,-98.8281"/>
<polygon fill="#9a32cd" stroke="#9a32cd" points="539.118,-74.4475 529.323,-78.4859 539.499,-81.4371 539.118,-74.4475"/>
<text text-anchor="middle" x="590" y="-113" font-family="Helvetica,sans-Serif" font-size="10.00"> overlap_buffers</text>
<text text-anchor="middle" x="590" y="-100" font-family="Helvetica,sans-Serif" font-size="10.00">cache_buffers</text>
<text text-anchor="middle" x="590" y="-87" font-family="Helvetica,sans-Serif" font-size="10.00">cache</text>
</g>
</g>
</svg>
