<?xml version="1.0" encoding="UTF-8" standalone="no"?>
<!DOCTYPE svg PUBLIC "-//W3C//DTD SVG 1.1//EN"
 "http://www.w3.org/Graphics/SVG/1.1/DTD/svg11.dtd">
<!-- Generated by graphviz version 2.26.3 (20100126.1600)
 -->
<!-- Title: stxxl::buffered_writer&lt; BlockType &gt; Pages: 1 -->
<svg width="256pt" height="190pt"
 viewBox="0.00 0.00 256.00 190.00" xmlns="http://www.w3.org/2000/svg" xmlns:xlink="http://www.w3.org/1999/xlink">
<g id="graph1" class="graph" transform="scale(1 1) rotate(0) translate(4 186)">
<title>stxxl::buffered_writer&lt; BlockType &gt;</title>
<!-- Node1 -->
<g id="node1" class="node"><title>Node1</title>
<polygon fill="#bfbfbf" stroke="black" points="67.5,-87 67.5,-121 180.5,-121 180.5,-87 67.5,-87"/>
<text text-anchor="start" x="75.5" y="-108" font-family="Helvetica,sans-Serif" font-size="10.00">stxxl::buffered_writer</text>
<text text-anchor="middle" x="124" y="-95" font-family="Helvetica,sans-Serif" font-size="10.00">&lt; BlockType &gt;</text>
</g>
<!-- Node3 -->
<g id="node5" class="node"><title>Node3</title>
<a xlink:href="classstxxl_1_1buffered__writer.html" target="_top" xlink:title="stxxl::buffered_writer\l\&lt; stxxl::typed_block \&gt;">
<polygon fill="none" stroke="black" points="0,-1 0,-35 116,-35 116,-1 0,-1"/>
<text text-anchor="start" x="8" y="-22" font-family="Helvetica,sans-Serif" font-size="10.00">stxxl::buffered_writer</text>
<text text-anchor="middle" x="58" y="-9" font-family="Helvetica,sans-Serif" font-size="10.00">&lt; stxxl::typed_block &gt;</text>
</a>
</g>
<!-- Node1&#45;&gt;Node3 -->
<g id="edge4" class="edge"><title>Node1&#45;&gt;Node3</title>
<path fill="none" stroke="orange" stroke-dasharray="5,2" d="M76.5654,-80.7394C72.1271,-77.0001 68.1284,-72.7644 65,-68 58.6495,-58.3285 56.9869,-45.3373 56.8661,-35.0211"/>
<polygon fill="orange" stroke="orange" points="74.8175,-83.8003 84.9362,-86.9408 78.9845,-78.1756 74.8175,-83.8003"/>
<text text-anchor="middle" x="116.5" y="-58.5" font-family="Helvetica,sans-Serif" font-size="10.00"> &lt; stxxl::typed_block &gt;</text>
</g>
<!-- Node4 -->
<g id="node7" class="node"><title>Node4</title>
<a xlink:href="classstxxl_1_1buffered__writer.html" target="_top" xlink:title="stxxl::buffered_writer\l\&lt; block_type \&gt;">
<polygon fill="none" stroke="black" points="133.5,-1 133.5,-35 246.5,-35 246.5,-1 133.5,-1"/>
<text text-anchor="start" x="141.5" y="-22" font-family="Helvetica,sans-Serif" font-size="10.00">stxxl::buffered_writer</text>
<text text-anchor="middle" x="190" y="-9" font-family="Helvetica,sans-Serif" font-size="10.00">&lt; block_type &gt;</text>
</a>
</g>
<!-- Node1&#45;&gt;Node4 -->
<g id="edge6" class="edge"><title>Node1&#45;&gt;Node4</title>
<path fill="none" stroke="orange" stroke-dasharray="5,2" d="M157.013,-79.9778C161.006,-76.2424 164.798,-72.2141 168,-68 175.459,-58.1837 181.016,-45.4434 184.679,-35.2801"/>
<polygon fill="orange" stroke="orange" points="154.444,-77.5732 149.188,-86.772 159.033,-82.8591 154.444,-77.5732"/>
<text text-anchor="middle" x="212" y="-58.5" font-family="Helvetica,sans-Serif" font-size="10.00"> &lt; block_type &gt;</text>
</g>
<!-- Node2 -->
<g id="node2" class="node"><title>Node2</title>
<a xlink:href="classstxxl_1_1noncopyable.html" target="_top" xlink:title="stxxl::noncopyable">
<polygon fill="none" stroke="black" points="73,-160.5 73,-181.5 175,-181.5 175,-160.5 73,-160.5"/>
<text text-anchor="middle" x="124" y="-168.5" font-family="Helvetica,sans-Serif" font-size="10.00">stxxl::noncopyable</text>
</a>
</g>
<!-- Node2&#45;&gt;Node1 -->
<g id="edge2" class="edge"><title>Node2&#45;&gt;Node1</title>
<path fill="none" stroke="#8b1a1a" d="M124,-150.165C124,-140.797 124,-129.88 124,-121.014"/>
<polygon fill="#8b1a1a" stroke="#8b1a1a" points="120.5,-150.235 124,-160.235 127.5,-150.235 120.5,-150.235"/>
</g>
</g>
</svg>
