<?xml version="1.0" encoding="UTF-8" standalone="no"?>
<!DOCTYPE svg PUBLIC "-//W3C//DTD SVG 1.1//EN"
 "http://www.w3.org/Graphics/SVG/1.1/DTD/svg11.dtd">
<!-- Generated by graphviz version 2.26.3 (20100126.1600)
 -->
<!-- Title: stxxl::mng_local::block_w_bids&lt; Type, Size, RawSize, NBids &gt; Pages: 1 -->
<svg width="1754pt" height="198pt"
 viewBox="0.00 0.00 1754.00 198.00" xmlns="http://www.w3.org/2000/svg" xmlns:xlink="http://www.w3.org/1999/xlink">
<g id="graph1" class="graph" transform="scale(1 1) rotate(0) translate(4 194)">
<title>stxxl::mng_local::block_w_bids&lt; Type, Size, RawSize, NBids &gt;</title>
<!-- Node1 -->
<g id="node1" class="node"><title>Node1</title>
<polygon fill="#bfbfbf" stroke="black" points="170,-78.5 170,-125.5 332,-125.5 332,-78.5 170,-78.5"/>
<text text-anchor="start" x="178" y="-112.5" font-family="Helvetica,sans-Serif" font-size="10.00">stxxl::mng_local::block</text>
<text text-anchor="start" x="178" y="-99.5" font-family="Helvetica,sans-Serif" font-size="10.00">_w_bids&lt; Type, Size, RawSize,</text>
<text text-anchor="middle" x="251" y="-86.5" font-family="Helvetica,sans-Serif" font-size="10.00"> NBids &gt;</text>
</g>
<!-- Node3 -->
<g id="node5" class="node"><title>Node3</title>
<a xlink:href="classstxxl_1_1mng__local_1_1block__w__bids.html" target="_top" xlink:title="stxxl::mng_local::block\l_w_bids\&lt; Type,((RawSize\l&#45;sizeof(BID\&lt; RawSize \&gt;)*NBids)\l/sizeof(Type)), RawSize, NBids \&gt;">
<polygon fill="none" stroke="black" points="490.5,-116 490.5,-176 661.5,-176 661.5,-116 490.5,-116"/>
<text text-anchor="start" x="498.5" y="-163" font-family="Helvetica,sans-Serif" font-size="10.00">stxxl::mng_local::block</text>
<text text-anchor="start" x="498.5" y="-150" font-family="Helvetica,sans-Serif" font-size="10.00">_w_bids&lt; Type,((RawSize</text>
<text text-anchor="start" x="498.5" y="-137" font-family="Helvetica,sans-Serif" font-size="10.00">&#45;sizeof(BID&lt; RawSize &gt;)*NBids)</text>
<text text-anchor="middle" x="576" y="-124" font-family="Helvetica,sans-Serif" font-size="10.00">/sizeof(Type)), RawSize, NBids &gt;</text>
</a>
</g>
<!-- Node1&#45;&gt;Node3 -->
<g id="edge4" class="edge"><title>Node1&#45;&gt;Node3</title>
<path fill="none" stroke="orange" stroke-dasharray="5,2" d="M342.269,-122.71C344.87,-123.163 347.452,-123.594 350,-124 396.134,-131.344 447.982,-136.602 490.37,-140.133"/>
<polygon fill="orange" stroke="orange" points="342.623,-119.217 332.157,-120.867 341.367,-126.104 342.623,-119.217"/>
<text text-anchor="start" x="350.5" y="-181" font-family="Helvetica,sans-Serif" font-size="10.00"> &lt; Type,((RawSize&#45;sizeof</text>
<text text-anchor="start" x="350.5" y="-168" font-family="Helvetica,sans-Serif" font-size="10.00">(BID&lt; RawSize &gt;)*NBids)</text>
<text text-anchor="start" x="350.5" y="-155" font-family="Helvetica,sans-Serif" font-size="10.00">/sizeof(Type)), RawSize,</text>
<text text-anchor="middle" x="411" y="-142" font-family="Helvetica,sans-Serif" font-size="10.00"> NBids &gt;</text>
</g>
<!-- Node5 -->
<g id="node9" class="node"><title>Node5</title>
<a xlink:href="classstxxl_1_1mng__local_1_1block__w__bids.html" target="_top" xlink:title="stxxl::mng_local::block\l_w_bids\&lt; Type,((RawSize\l&#45;sizeof(BID\&lt; RawSize \&gt;)*NBids\l&#45;sizeof(MetaInfoType))/sizeof\l(Type)), RawSize, NBids \&gt;">
<polygon fill="none" stroke="black" points="494,-21.5 494,-94.5 658,-94.5 658,-21.5 494,-21.5"/>
<text text-anchor="start" x="502" y="-81.5" font-family="Helvetica,sans-Serif" font-size="10.00">stxxl::mng_local::block</text>
<text text-anchor="start" x="502" y="-68.5" font-family="Helvetica,sans-Serif" font-size="10.00">_w_bids&lt; Type,((RawSize</text>
<text text-anchor="start" x="502" y="-55.5" font-family="Helvetica,sans-Serif" font-size="10.00">&#45;sizeof(BID&lt; RawSize &gt;)*NBids</text>
<text text-anchor="start" x="502" y="-42.5" font-family="Helvetica,sans-Serif" font-size="10.00">&#45;sizeof(MetaInfoType))/sizeof</text>
<text text-anchor="middle" x="576" y="-29.5" font-family="Helvetica,sans-Serif" font-size="10.00">(Type)), RawSize, NBids &gt;</text>
</a>
</g>
<!-- Node1&#45;&gt;Node5 -->
<g id="edge8" class="edge"><title>Node1&#45;&gt;Node5</title>
<path fill="none" stroke="orange" stroke-dasharray="5,2" d="M299.409,-73.7797C315.034,-66.1227 332.778,-58.8806 350,-55 396.893,-44.434 450.657,-44.6669 493.978,-47.7832"/>
<polygon fill="orange" stroke="orange" points="297.808,-70.6673 290.475,-78.3137 300.976,-76.9095 297.808,-70.6673"/>
<text text-anchor="start" x="352" y="-111" font-family="Helvetica,sans-Serif" font-size="10.00"> &lt; Type,((RawSize&#45;sizeof</text>
<text text-anchor="start" x="352" y="-98" font-family="Helvetica,sans-Serif" font-size="10.00">(BID&lt; RawSize &gt;)*NBids</text>
<text text-anchor="start" x="352" y="-85" font-family="Helvetica,sans-Serif" font-size="10.00">&#45;sizeof(MetaInfoType))</text>
<text text-anchor="start" x="352" y="-72" font-family="Helvetica,sans-Serif" font-size="10.00">/sizeof(Type)), RawSize,</text>
<text text-anchor="middle" x="411" y="-59" font-family="Helvetica,sans-Serif" font-size="10.00"> NBids &gt;</text>
</g>
<!-- Node2 -->
<g id="node2" class="node"><title>Node2</title>
<a xlink:href="classstxxl_1_1mng__local_1_1element__block.html" target="_top" xlink:title="Contains data elements for stxxl::typed_block , not intended for direct use. ">
<polygon fill="none" stroke="black" points="0,-85 0,-119 132,-119 132,-85 0,-85"/>
<text text-anchor="start" x="8" y="-106" font-family="Helvetica,sans-Serif" font-size="10.00">stxxl::mng_local::element</text>
<text text-anchor="middle" x="66" y="-93" font-family="Helvetica,sans-Serif" font-size="10.00">_block&lt; Type, Size &gt;</text>
</a>
</g>
<!-- Node2&#45;&gt;Node1 -->
<g id="edge2" class="edge"><title>Node2&#45;&gt;Node1</title>
<path fill="none" stroke="midnightblue" d="M142.182,-102C151.295,-102 160.626,-102 169.807,-102"/>
<polygon fill="midnightblue" stroke="midnightblue" points="142.006,-98.5001 132.006,-102 142.006,-105.5 142.006,-98.5001"/>
</g>
<!-- Node4 -->
<g id="node7" class="node"><title>Node4</title>
<a xlink:href="classstxxl_1_1mng__local_1_1block__w__info_3_01Type_00_01RawSize_00_01NBids_00_01void_01_4.html" target="_top" xlink:title="stxxl::mng_local::block\l_w_info\&lt; Type, RawSize,\l NBids, void \&gt;">
<polygon fill="none" stroke="black" points="700.5,-122.5 700.5,-169.5 835.5,-169.5 835.5,-122.5 700.5,-122.5"/>
<text text-anchor="start" x="708.5" y="-156.5" font-family="Helvetica,sans-Serif" font-size="10.00">stxxl::mng_local::block</text>
<text text-anchor="start" x="708.5" y="-143.5" font-family="Helvetica,sans-Serif" font-size="10.00">_w_info&lt; Type, RawSize,</text>
<text text-anchor="middle" x="768" y="-130.5" font-family="Helvetica,sans-Serif" font-size="10.00"> NBids, void &gt;</text>
</a>
</g>
<!-- Node3&#45;&gt;Node4 -->
<g id="edge6" class="edge"><title>Node3&#45;&gt;Node4</title>
<path fill="none" stroke="midnightblue" d="M671.701,-146C681.4,-146 691.103,-146 700.415,-146"/>
<polygon fill="midnightblue" stroke="midnightblue" points="671.612,-142.5 661.612,-146 671.612,-149.5 671.612,-142.5"/>
</g>
<!-- Node6 -->
<g id="node11" class="node"><title>Node6</title>
<a xlink:href="classstxxl_1_1mng__local_1_1block__w__info.html" target="_top" xlink:title="stxxl::mng_local::block\l_w_info\&lt; Type, RawSize,\l NRef, MetaInfoType \&gt;">
<polygon fill="none" stroke="black" points="988.5,-29.5 988.5,-76.5 1123.5,-76.5 1123.5,-29.5 988.5,-29.5"/>
<text text-anchor="start" x="996.5" y="-63.5" font-family="Helvetica,sans-Serif" font-size="10.00">stxxl::mng_local::block</text>
<text text-anchor="start" x="996.5" y="-50.5" font-family="Helvetica,sans-Serif" font-size="10.00">_w_info&lt; Type, RawSize,</text>
<text text-anchor="middle" x="1056" y="-37.5" font-family="Helvetica,sans-Serif" font-size="10.00"> NRef, MetaInfoType &gt;</text>
</a>
</g>
<!-- Node5&#45;&gt;Node6 -->
<g id="edge10" class="edge"><title>Node5&#45;&gt;Node6</title>
<path fill="none" stroke="midnightblue" d="M668.35,-62.1811C748.241,-65.0227 866.819,-67.3843 970,-62 975.997,-61.6871 982.219,-61.2522 988.45,-60.7412"/>
<polygon fill="midnightblue" stroke="midnightblue" points="668.438,-58.6821 658.316,-61.8145 668.182,-65.6774 668.438,-58.6821"/>
</g>
<!-- Node10 -->
<g id="node19" class="node"><title>Node10</title>
<a xlink:href="classstxxl_1_1mng__local_1_1block__w__info.html" target="_top" xlink:title="Contains per block information for stxxl::typed_block , not intended for direct use. ">
<polygon fill="none" stroke="black" points="700.5,-0.5 700.5,-47.5 835.5,-47.5 835.5,-0.5 700.5,-0.5"/>
<text text-anchor="start" x="708.5" y="-34.5" font-family="Helvetica,sans-Serif" font-size="10.00">stxxl::mng_local::block</text>
<text text-anchor="start" x="708.5" y="-21.5" font-family="Helvetica,sans-Serif" font-size="10.00">_w_info&lt; Type, RawSize,</text>
<text text-anchor="middle" x="768" y="-8.5" font-family="Helvetica,sans-Serif" font-size="10.00"> NBids, MetaInfoType &gt;</text>
</a>
</g>
<!-- Node5&#45;&gt;Node10 -->
<g id="edge18" class="edge"><title>Node5&#45;&gt;Node10</title>
<path fill="none" stroke="midnightblue" d="M668.187,-41.6752C679.033,-39.7547 689.943,-37.8226 700.364,-35.9772"/>
<polygon fill="midnightblue" stroke="midnightblue" points="667.497,-38.2428 658.261,-43.433 668.718,-45.1356 667.497,-38.2428"/>
</g>
<!-- Node7 -->
<g id="node13" class="node"><title>Node7</title>
<a xlink:href="classstxxl_1_1mng__local_1_1add__filler.html" target="_top" xlink:title="stxxl::mng_local::add\l_filler\&lt; mng_local::block\l_w_info\&lt; Type, RawSize,\l NRef, MetaInfoType \&gt;, RawSize\l&#45;sizeof(mng_local::block_w_info\l\&lt; Type, RawSize, NRef, MetaInfoType \&gt;)\&gt;">
<polygon fill="none" stroke="black" points="1162.5,-10 1162.5,-96 1377.5,-96 1377.5,-10 1162.5,-10"/>
<text text-anchor="start" x="1170.5" y="-83" font-family="Helvetica,sans-Serif" font-size="10.00">stxxl::mng_local::add</text>
<text text-anchor="start" x="1170.5" y="-70" font-family="Helvetica,sans-Serif" font-size="10.00">_filler&lt; mng_local::block</text>
<text text-anchor="start" x="1170.5" y="-57" font-family="Helvetica,sans-Serif" font-size="10.00">_w_info&lt; Type, RawSize,</text>
<text text-anchor="start" x="1170.5" y="-44" font-family="Helvetica,sans-Serif" font-size="10.00"> NRef, MetaInfoType &gt;, RawSize</text>
<text text-anchor="start" x="1170.5" y="-31" font-family="Helvetica,sans-Serif" font-size="10.00">&#45;sizeof(mng_local::block_w_info</text>
<text text-anchor="middle" x="1270" y="-18" font-family="Helvetica,sans-Serif" font-size="10.00">&lt; Type, RawSize, NRef, MetaInfoType &gt;)&gt;</text>
</a>
</g>
<!-- Node6&#45;&gt;Node7 -->
<g id="edge12" class="edge"><title>Node6&#45;&gt;Node7</title>
<path fill="none" stroke="midnightblue" d="M1133.72,-53C1143.08,-53 1152.76,-53 1162.45,-53"/>
<polygon fill="midnightblue" stroke="midnightblue" points="1133.71,-49.5001 1123.71,-53 1133.71,-56.5001 1133.71,-49.5001"/>
</g>
<!-- Node8 -->
<g id="node15" class="node"><title>Node8</title>
<a xlink:href="classstxxl_1_1mng__local_1_1expand__struct.html" target="_top" xlink:title="stxxl::mng_local::expand\l_struct\&lt; mng_local::block\l_w_info\&lt; Type, RawSize, NRef,\l MetaInfoType \&gt;, RawSize \&gt;">
<polygon fill="none" stroke="black" points="1416,-23 1416,-83 1580,-83 1580,-23 1416,-23"/>
<text text-anchor="start" x="1424" y="-70" font-family="Helvetica,sans-Serif" font-size="10.00">stxxl::mng_local::expand</text>
<text text-anchor="start" x="1424" y="-57" font-family="Helvetica,sans-Serif" font-size="10.00">_struct&lt; mng_local::block</text>
<text text-anchor="start" x="1424" y="-44" font-family="Helvetica,sans-Serif" font-size="10.00">_w_info&lt; Type, RawSize, NRef,</text>
<text text-anchor="middle" x="1498" y="-31" font-family="Helvetica,sans-Serif" font-size="10.00"> MetaInfoType &gt;, RawSize &gt;</text>
</a>
</g>
<!-- Node7&#45;&gt;Node8 -->
<g id="edge14" class="edge"><title>Node7&#45;&gt;Node8</title>
<path fill="none" stroke="midnightblue" d="M1387.87,-53C1397.27,-53 1406.65,-53 1415.73,-53"/>
<polygon fill="midnightblue" stroke="midnightblue" points="1387.66,-49.5001 1377.66,-53 1387.66,-56.5001 1387.66,-49.5001"/>
</g>
<!-- Node9 -->
<g id="node17" class="node"><title>Node9</title>
<a xlink:href="classstxxl_1_1typed__block.html" target="_top" xlink:title="Block containing elements of fixed length. ">
<polygon fill="none" stroke="black" points="1618,-29.5 1618,-76.5 1746,-76.5 1746,-29.5 1618,-29.5"/>
<text text-anchor="start" x="1626" y="-63.5" font-family="Helvetica,sans-Serif" font-size="10.00">stxxl::typed_block</text>
<text text-anchor="start" x="1626" y="-50.5" font-family="Helvetica,sans-Serif" font-size="10.00">&lt; RawSize, Type, NRef,</text>
<text text-anchor="middle" x="1682" y="-37.5" font-family="Helvetica,sans-Serif" font-size="10.00"> MetaInfoType &gt;</text>
</a>
</g>
<!-- Node8&#45;&gt;Node9 -->
<g id="edge16" class="edge"><title>Node8&#45;&gt;Node9</title>
<path fill="none" stroke="midnightblue" d="M1590.16,-53C1599.5,-53 1608.84,-53 1617.78,-53"/>
<polygon fill="midnightblue" stroke="midnightblue" points="1590.04,-49.5001 1580.04,-53 1590.04,-56.5001 1590.04,-49.5001"/>
</g>
<!-- Node10&#45;&gt;Node6 -->
<g id="edge20" class="edge"><title>Node10&#45;&gt;Node6</title>
<path fill="none" stroke="orange" stroke-dasharray="5,2" d="M845.928,-26.1581C883.532,-27.829 929.229,-30.7838 970,-36 975.888,-36.7533 981.977,-37.6715 988.071,-38.6871"/>
<polygon fill="orange" stroke="orange" points="845.685,-22.6448 835.547,-25.72 845.39,-29.6386 845.685,-22.6448"/>
<text text-anchor="start" x="854.5" y="-53" font-family="Helvetica,sans-Serif" font-size="10.00"> &lt; Type, RawSize, NRef,</text>
<text text-anchor="middle" x="912" y="-40" font-family="Helvetica,sans-Serif" font-size="10.00"> MetaInfoType &gt;</text>
</g>
</g>
</svg>
