<?xml version="1.0" encoding="UTF-8" standalone="no"?>
<!DOCTYPE svg PUBLIC "-//W3C//DTD SVG 1.1//EN"
 "http://www.w3.org/Graphics/SVG/1.1/DTD/svg11.dtd">
<!-- Generated by graphviz version 2.26.3 (20100126.1600)
 -->
<!-- Title: stxxl::hash_map::hash_map_iterator_base&lt; HashMap &gt; Pages: 1 -->
<svg width="366pt" height="108pt"
 viewBox="0.00 0.00 366.00 108.00" xmlns="http://www.w3.org/2000/svg" xmlns:xlink="http://www.w3.org/1999/xlink">
<g id="graph1" class="graph" transform="scale(1 1) rotate(0) translate(4 104)">
<title>stxxl::hash_map::hash_map_iterator_base&lt; HashMap &gt;</title>
<!-- Node1 -->
<g id="node1" class="node"><title>Node1</title>
<polygon fill="#bfbfbf" stroke="black" points="0.5,-29 0.5,-63 175.5,-63 175.5,-29 0.5,-29"/>
<text text-anchor="start" x="8.5" y="-50" font-family="Helvetica,sans-Serif" font-size="10.00">stxxl::hash_map::hash</text>
<text text-anchor="middle" x="88" y="-37" font-family="Helvetica,sans-Serif" font-size="10.00">_map_iterator_base&lt; HashMap &gt;</text>
</g>
<!-- Node2 -->
<g id="node3" class="node"><title>Node2</title>
<a xlink:href="classstxxl_1_1hash__map_1_1hash__map__const__iterator.html" target="_top" xlink:title="stxxl::hash_map::hash\l_map_const_iterator\&lt;\l HashMap \&gt;">
<polygon fill="none" stroke="black" points="225,-52.5 225,-99.5 345,-99.5 345,-52.5 225,-52.5"/>
<text text-anchor="start" x="233" y="-86.5" font-family="Helvetica,sans-Serif" font-size="10.00">stxxl::hash_map::hash</text>
<text text-anchor="start" x="233" y="-73.5" font-family="Helvetica,sans-Serif" font-size="10.00">_map_const_iterator&lt;</text>
<text text-anchor="middle" x="285" y="-60.5" font-family="Helvetica,sans-Serif" font-size="10.00"> HashMap &gt;</text>
</a>
</g>
<!-- Node1&#45;&gt;Node2 -->
<g id="edge2" class="edge"><title>Node1&#45;&gt;Node2</title>
<path fill="none" stroke="midnightblue" d="M185.735,-60.8835C199.074,-62.9148 212.432,-64.949 224.829,-66.837"/>
<polygon fill="midnightblue" stroke="midnightblue" points="185.967,-57.3786 175.554,-59.3331 184.913,-64.2988 185.967,-57.3786"/>
</g>
<!-- Node3 -->
<g id="node5" class="node"><title>Node3</title>
<a xlink:href="classstxxl_1_1hash__map_1_1hash__map__iterator.html" target="_top" xlink:title="stxxl::hash_map::hash\l_map_iterator\&lt; HashMap \&gt;">
<polygon fill="none" stroke="black" points="212,-0 212,-34 358,-34 358,-0 212,-0"/>
<text text-anchor="start" x="220" y="-21" font-family="Helvetica,sans-Serif" font-size="10.00">stxxl::hash_map::hash</text>
<text text-anchor="middle" x="285" y="-8" font-family="Helvetica,sans-Serif" font-size="10.00">_map_iterator&lt; HashMap &gt;</text>
</a>
</g>
<!-- Node1&#45;&gt;Node3 -->
<g id="edge4" class="edge"><title>Node1&#45;&gt;Node3</title>
<path fill="none" stroke="midnightblue" d="M185.536,-31.6419C194.395,-30.3378 203.264,-29.0322 211.857,-27.7673"/>
<polygon fill="midnightblue" stroke="midnightblue" points="184.938,-28.1921 175.554,-33.1113 185.957,-35.1175 184.938,-28.1921"/>
</g>
</g>
</svg>
