<?xml version="1.0" encoding="UTF-8" standalone="no"?>
<!DOCTYPE svg PUBLIC "-//W3C//DTD SVG 1.1//EN"
 "http://www.w3.org/Graphics/SVG/1.1/DTD/svg11.dtd">
<!-- Generated by graphviz version 2.26.3 (20100126.1600)
 -->
<!-- Title: stxxl::btree::btree_iterator_base&lt; BTreeType &gt; Pages: 1 -->
<svg width="642pt" height="160pt"
 viewBox="0.00 0.00 642.00 160.00" xmlns="http://www.w3.org/2000/svg" xmlns:xlink="http://www.w3.org/1999/xlink">
<g id="graph1" class="graph" transform="scale(1 1) rotate(0) translate(4 156)">
<title>stxxl::btree::btree_iterator_base&lt; BTreeType &gt;</title>
<!-- Node1 -->
<g id="node1" class="node"><title>Node1</title>
<polygon fill="#bfbfbf" stroke="black" points="0,-66 0,-100 156,-100 156,-66 0,-66"/>
<text text-anchor="start" x="8" y="-87" font-family="Helvetica,sans-Serif" font-size="10.00">stxxl::btree::btree</text>
<text text-anchor="middle" x="78" y="-74" font-family="Helvetica,sans-Serif" font-size="10.00">_iterator_base&lt; BTreeType &gt;</text>
</g>
<!-- Node2 -->
<g id="node3" class="node"><title>Node2</title>
<a xlink:href="classstxxl_1_1btree_1_1btree__const__iterator.html" target="_top" xlink:title="stxxl::btree::btree\l_const_iterator\&lt; BTreeType \&gt;">
<polygon fill="none" stroke="black" points="256.5,-118 256.5,-152 415.5,-152 415.5,-118 256.5,-118"/>
<text text-anchor="start" x="264.5" y="-139" font-family="Helvetica,sans-Serif" font-size="10.00">stxxl::btree::btree</text>
<text text-anchor="middle" x="336" y="-126" font-family="Helvetica,sans-Serif" font-size="10.00">_const_iterator&lt; BTreeType &gt;</text>
</a>
</g>
<!-- Node1&#45;&gt;Node2 -->
<g id="edge2" class="edge"><title>Node1&#45;&gt;Node2</title>
<path fill="none" stroke="midnightblue" d="M165.92,-100.72C195.24,-106.63 227.72,-113.176 256.374,-118.951"/>
<polygon fill="midnightblue" stroke="midnightblue" points="166.603,-97.2877 156.109,-98.7428 165.22,-104.15 166.603,-97.2877"/>
</g>
<!-- Node3 -->
<g id="node5" class="node"><title>Node3</title>
<a xlink:href="classstxxl_1_1btree_1_1btree__iterator.html" target="_top" xlink:title="stxxl::btree::btree\l_iterator\&lt; BTreeType \&gt;">
<polygon fill="none" stroke="black" points="272,-66 272,-100 400,-100 400,-66 272,-66"/>
<text text-anchor="start" x="280" y="-87" font-family="Helvetica,sans-Serif" font-size="10.00">stxxl::btree::btree</text>
<text text-anchor="middle" x="336" y="-74" font-family="Helvetica,sans-Serif" font-size="10.00">_iterator&lt; BTreeType &gt;</text>
</a>
</g>
<!-- Node1&#45;&gt;Node3 -->
<g id="edge4" class="edge"><title>Node1&#45;&gt;Node3</title>
<path fill="none" stroke="midnightblue" d="M166.212,-83C200.796,-83 239.74,-83 271.599,-83"/>
<polygon fill="midnightblue" stroke="midnightblue" points="166.109,-79.5001 156.109,-83 166.109,-86.5001 166.109,-79.5001"/>
</g>
<!-- Node5 -->
<g id="node9" class="node"><title>Node5</title>
<a xlink:href="classstxxl_1_1btree_1_1btree__iterator__base.html" target="_top" xlink:title="stxxl::btree::btree\l_iterator_base\&lt; self\l_type \&gt;">
<polygon fill="none" stroke="black" points="281,-0.5 281,-47.5 391,-47.5 391,-0.5 281,-0.5"/>
<text text-anchor="start" x="289" y="-34.5" font-family="Helvetica,sans-Serif" font-size="10.00">stxxl::btree::btree</text>
<text text-anchor="start" x="289" y="-21.5" font-family="Helvetica,sans-Serif" font-size="10.00">_iterator_base&lt; self</text>
<text text-anchor="middle" x="336" y="-8.5" font-family="Helvetica,sans-Serif" font-size="10.00">_type &gt;</text>
</a>
</g>
<!-- Node1&#45;&gt;Node5 -->
<g id="edge8" class="edge"><title>Node1&#45;&gt;Node5</title>
<path fill="none" stroke="orange" stroke-dasharray="5,2" d="M162.865,-63.593C201.647,-54.724 246.482,-44.4712 280.808,-36.6213"/>
<polygon fill="orange" stroke="orange" points="161.592,-60.2935 152.624,-65.9348 163.153,-67.1173 161.592,-60.2935"/>
<text text-anchor="middle" x="206" y="-64" font-family="Helvetica,sans-Serif" font-size="10.00"> &lt; self_type &gt;</text>
</g>
<!-- Node4 -->
<g id="node7" class="node"><title>Node4</title>
<a xlink:href="classstxxl_1_1btree_1_1btree__iterator.html" target="_top" xlink:title="stxxl::btree::btree\l_iterator\&lt; self_type \&gt;">
<polygon fill="none" stroke="black" points="516.5,-39 516.5,-73 633.5,-73 633.5,-39 516.5,-39"/>
<text text-anchor="start" x="524.5" y="-60" font-family="Helvetica,sans-Serif" font-size="10.00">stxxl::btree::btree</text>
<text text-anchor="middle" x="575" y="-47" font-family="Helvetica,sans-Serif" font-size="10.00">_iterator&lt; self_type &gt;</text>
</a>
</g>
<!-- Node3&#45;&gt;Node4 -->
<g id="edge6" class="edge"><title>Node3&#45;&gt;Node4</title>
<path fill="none" stroke="orange" stroke-dasharray="5,2" d="M410.411,-74.5937C444.445,-70.7489 484.196,-66.2582 516.106,-62.6533"/>
<polygon fill="orange" stroke="orange" points="409.591,-71.164 400.048,-75.7645 410.377,-78.1197 409.591,-71.164"/>
<text text-anchor="middle" x="466" y="-75" font-family="Helvetica,sans-Serif" font-size="10.00"> &lt; self_type &gt;</text>
</g>
<!-- Node5&#45;&gt;Node4 -->
<g id="edge10" class="edge"><title>Node5&#45;&gt;Node4</title>
<path fill="none" stroke="midnightblue" d="M401.051,-32.7097C437.061,-37.5312 481.461,-43.476 516.391,-48.1527"/>
<polygon fill="midnightblue" stroke="midnightblue" points="401.508,-29.2397 391.132,-31.3816 400.579,-36.1778 401.508,-29.2397"/>
</g>
</g>
</svg>
