<?xml version="1.0" encoding="UTF-8" standalone="no"?>
<!DOCTYPE svg PUBLIC "-//W3C//DTD SVG 1.1//EN"
 "http://www.w3.org/Graphics/SVG/1.1/DTD/svg11.dtd">
<!-- Generated by graphviz version 2.26.3 (20100126.1600)
 -->
<!-- Title: stxxl::wbtl_file Pages: 1 -->
<svg width="1650pt" height="313pt"
 viewBox="0.00 0.00 1650.00 313.00" xmlns="http://www.w3.org/2000/svg" xmlns:xlink="http://www.w3.org/1999/xlink">
<g id="graph1" class="graph" transform="scale(1 1) rotate(0) translate(4 309)">
<title>stxxl::wbtl_file</title>
<!-- Node1 -->
<g id="node1" class="node"><title>Node1</title>
<polygon fill="#bfbfbf" stroke="black" points="1562,-211.5 1562,-232.5 1642,-232.5 1642,-211.5 1562,-211.5"/>
<text text-anchor="middle" x="1602" y="-219.5" font-family="Helvetica,sans-Serif" font-size="10.00">stxxl::wbtl_file</text>
</g>
<!-- Node2 -->
<g id="node2" class="node"><title>Node2</title>
<a xlink:href="classstxxl_1_1disk__queued__file.html" target="_top" xlink:title="Implementation of some file methods based on serving_request. ">
<polygon fill="none" stroke="black" points="1198.5,-192.5 1198.5,-213.5 1319.5,-213.5 1319.5,-192.5 1198.5,-192.5"/>
<text text-anchor="middle" x="1259" y="-200.5" font-family="Helvetica,sans-Serif" font-size="10.00">stxxl::disk_queued_file</text>
</a>
</g>
<!-- Node2&#45;&gt;Node1 -->
<g id="edge2" class="edge"><title>Node2&#45;&gt;Node1</title>
<path fill="none" stroke="midnightblue" d="M1329.62,-206.912C1399.8,-210.8 1504.95,-216.624 1561.89,-219.778"/>
<polygon fill="midnightblue" stroke="midnightblue" points="1329.71,-203.412 1319.53,-206.353 1329.32,-210.401 1329.71,-203.412"/>
</g>
<!-- Node3 -->
<g id="node4" class="node"><title>Node3</title>
<a xlink:href="classstxxl_1_1file.html" target="_top" xlink:title="Defines interface of file. ">
<polygon fill="none" stroke="black" points="866,-192.5 866,-213.5 922,-213.5 922,-192.5 866,-192.5"/>
<text text-anchor="middle" x="894" y="-200.5" font-family="Helvetica,sans-Serif" font-size="10.00">stxxl::file</text>
</a>
</g>
<!-- Node3&#45;&gt;Node1 -->
<g id="edge18" class="edge"><title>Node3&#45;&gt;Node1</title>
<path fill="none" stroke="#9a32cd" stroke-dasharray="5,2" d="M932.036,-210.371C946.934,-212.949 964.211,-215.557 980,-217 1191.61,-236.341 1245.52,-224.778 1458,-227 1496.22,-227.4 1505.81,-228.643 1544,-227 1549.76,-226.752 1555.82,-226.367 1561.78,-225.918"/>
<polygon fill="#9a32cd" stroke="#9a32cd" points="932.608,-206.918 922.148,-208.607 931.378,-213.809 932.608,-206.918"/>
<text text-anchor="middle" x="1259" y="-232" font-family="Helvetica,sans-Serif" font-size="10.00"> storage</text>
</g>
<!-- Node3&#45;&gt;Node2 -->
<g id="edge4" class="edge"><title>Node3&#45;&gt;Node2</title>
<path fill="none" stroke="midnightblue" d="M932.373,-203C995.75,-203 1122.79,-203 1198.4,-203"/>
<polygon fill="midnightblue" stroke="midnightblue" points="932.035,-199.5 922.035,-203 932.035,-206.5 932.035,-199.5"/>
</g>
<!-- Node10 -->
<g id="node21" class="node"><title>Node10</title>
<a xlink:href="classstxxl_1_1request.html" target="_top" xlink:title="Request object encapsulating basic properties like file and offset. ">
<polygon fill="none" stroke="black" points="1090.5,-119.5 1090.5,-140.5 1167.5,-140.5 1167.5,-119.5 1090.5,-119.5"/>
<text text-anchor="middle" x="1129" y="-127.5" font-family="Helvetica,sans-Serif" font-size="10.00">stxxl::request</text>
</a>
</g>
<!-- Node3&#45;&gt;Node10 -->
<g id="edge32" class="edge"><title>Node3&#45;&gt;Node10</title>
<path fill="none" stroke="#9a32cd" stroke-dasharray="5,2" d="M932.121,-190.814C947.031,-186.104 964.292,-180.723 980,-176 1015.43,-165.347 1024.67,-163.963 1060,-153 1072.54,-149.108 1086.28,-144.583 1098.18,-140.581"/>
<polygon fill="#9a32cd" stroke="#9a32cd" points="930.698,-187.593 922.223,-193.95 932.813,-194.266 930.698,-187.593"/>
<text text-anchor="middle" x="1020" y="-180" font-family="Helvetica,sans-Serif" font-size="10.00"> m_file</text>
</g>
<!-- Node4 -->
<g id="node6" class="node"><title>Node4</title>
<a xlink:href="classstxxl_1_1noncopyable.html" target="_top" xlink:title="stxxl::noncopyable">
<polygon fill="none" stroke="black" points="12,-204.5 12,-225.5 114,-225.5 114,-204.5 12,-204.5"/>
<text text-anchor="middle" x="63" y="-212.5" font-family="Helvetica,sans-Serif" font-size="10.00">stxxl::noncopyable</text>
</a>
</g>
<!-- Node4&#45;&gt;Node3 -->
<g id="edge6" class="edge"><title>Node4&#45;&gt;Node3</title>
<path fill="none" stroke="#8b1a1a" d="M124.529,-226.43C131.087,-227.41 137.671,-228.295 144,-229 196.189,-234.816 209.505,-233.666 262,-235 495.658,-240.937 777.443,-214.905 865.986,-205.94"/>
<polygon fill="#8b1a1a" stroke="#8b1a1a" points="124.708,-222.915 114.287,-224.823 123.623,-229.83 124.708,-222.915"/>
</g>
<!-- Node6 -->
<g id="node10" class="node"><title>Node6</title>
<a xlink:href="classstxxl_1_1mutex.html" target="_top" xlink:title="stxxl::mutex">
<polygon fill="none" stroke="black" points="290,-204.5 290,-225.5 360,-225.5 360,-204.5 290,-204.5"/>
<text text-anchor="middle" x="325" y="-212.5" font-family="Helvetica,sans-Serif" font-size="10.00">stxxl::mutex</text>
</a>
</g>
<!-- Node4&#45;&gt;Node6 -->
<g id="edge12" class="edge"><title>Node4&#45;&gt;Node6</title>
<path fill="none" stroke="#8b1a1a" d="M124.156,-215C175.679,-215 247.573,-215 289.908,-215"/>
<polygon fill="#8b1a1a" stroke="#8b1a1a" points="124.138,-211.5 114.138,-215 124.138,-218.5 124.138,-211.5"/>
</g>
<!-- Node11 -->
<g id="node23" class="node"><title>Node11</title>
<a xlink:href="classstxxl_1_1request__interface.html" target="_top" xlink:title="Functional interface of a request. ">
<polygon fill="none" stroke="black" points="408.5,-107.5 408.5,-128.5 533.5,-128.5 533.5,-107.5 408.5,-107.5"/>
<text text-anchor="middle" x="471" y="-115.5" font-family="Helvetica,sans-Serif" font-size="10.00">stxxl::request_interface</text>
</a>
</g>
<!-- Node4&#45;&gt;Node11 -->
<g id="edge28" class="edge"><title>Node4&#45;&gt;Node11</title>
<path fill="none" stroke="#8b1a1a" d="M124.424,-209.301C205.917,-200.854 344.554,-183.142 388,-157 399.122,-150.308 395.1,-141.049 406,-134 409.22,-131.917 412.691,-130.106 416.293,-128.53"/>
<polygon fill="#8b1a1a" stroke="#8b1a1a" points="123.886,-205.837 114.293,-210.334 124.596,-212.801 123.886,-205.837"/>
</g>
<!-- Node5 -->
<g id="node8" class="node"><title>Node5</title>
<a xlink:href="classstxxl_1_1atomic__counted__object.html" target="_top" xlink:title="Provides reference counting abilities for use with counting_ptr with mutex locking. ">
<polygon fill="none" stroke="black" points="557,-150 557,-184 673,-184 673,-150 557,-150"/>
<text text-anchor="start" x="565" y="-171" font-family="Helvetica,sans-Serif" font-size="10.00">stxxl::atomic_counted</text>
<text text-anchor="middle" x="615" y="-158" font-family="Helvetica,sans-Serif" font-size="10.00">_object</text>
</a>
</g>
<!-- Node5&#45;&gt;Node3 -->
<g id="edge8" class="edge"><title>Node5&#45;&gt;Node3</title>
<path fill="none" stroke="#9a32cd" stroke-dasharray="5,2" d="M683.071,-175.783C741.648,-183.342 823.237,-193.869 865.73,-199.352"/>
<polygon fill="#9a32cd" stroke="#9a32cd" points="683.514,-172.312 673.148,-174.503 682.618,-179.254 683.514,-172.312"/>
<text text-anchor="middle" x="751" y="-195" font-family="Helvetica,sans-Serif" font-size="10.00"> m_request_ref</text>
</g>
<!-- Node5&#45;&gt;Node10 -->
<g id="edge30" class="edge"><title>Node5&#45;&gt;Node10</title>
<path fill="none" stroke="midnightblue" d="M683.733,-162.052C793.205,-154.172 1003.63,-139.025 1090.27,-132.788"/>
<polygon fill="midnightblue" stroke="midnightblue" points="683.185,-158.583 673.462,-162.792 683.687,-165.565 683.185,-158.583"/>
</g>
<!-- Node6&#45;&gt;Node1 -->
<g id="edge20" class="edge"><title>Node6&#45;&gt;Node1</title>
<path fill="none" stroke="#9a32cd" stroke-dasharray="5,2" d="M370.078,-223.549C466.054,-240.981 697.858,-279 894,-279 894,-279 894,-279 1389,-279 1460.01,-279 1539.95,-249.072 1578.59,-232.588"/>
<polygon fill="#9a32cd" stroke="#9a32cd" points="370.603,-220.087 360.136,-221.728 369.342,-226.972 370.603,-220.087"/>
<text text-anchor="middle" x="1020" y="-296" font-family="Helvetica,sans-Serif" font-size="10.00"> buffer_mutex</text>
<text text-anchor="middle" x="1020" y="-283" font-family="Helvetica,sans-Serif" font-size="10.00">mapping_mutex</text>
</g>
<!-- Node6&#45;&gt;Node5 -->
<g id="edge10" class="edge"><title>Node6&#45;&gt;Node5</title>
<path fill="none" stroke="#9a32cd" stroke-dasharray="5,2" d="M362.567,-201.166C376.095,-196.659 391.58,-192.039 406,-189 456.338,-178.39 514.628,-172.793 556.839,-169.907"/>
<polygon fill="#9a32cd" stroke="#9a32cd" points="361.433,-197.855 353.105,-204.404 363.699,-204.478 361.433,-197.855"/>
<text text-anchor="middle" x="471" y="-193" font-family="Helvetica,sans-Serif" font-size="10.00"> m_reference_count_mutex</text>
</g>
<!-- Node7 -->
<g id="node13" class="node"><title>Node7</title>
<a xlink:href="structstxxl_1_1choose__int__types.html" target="_top" xlink:title="stxxl::choose_int_types\l\&lt; my_pointer_size \&gt;">
<polygon fill="none" stroke="black" points="262.5,-114 262.5,-148 387.5,-148 387.5,-114 262.5,-114"/>
<text text-anchor="start" x="270.5" y="-135" font-family="Helvetica,sans-Serif" font-size="10.00">stxxl::choose_int_types</text>
<text text-anchor="middle" x="325" y="-122" font-family="Helvetica,sans-Serif" font-size="10.00">&lt; my_pointer_size &gt;</text>
</a>
</g>
<!-- Node7&#45;&gt;Node5 -->
<g id="edge14" class="edge"><title>Node7&#45;&gt;Node5</title>
<path fill="none" stroke="#9a32cd" stroke-dasharray="5,2" d="M398.029,-137.318C438.727,-141.164 490.273,-146.573 536,-153 542.759,-153.95 549.824,-155.049 556.832,-156.206"/>
<polygon fill="#9a32cd" stroke="#9a32cd" points="398.208,-133.82 387.926,-136.374 397.557,-140.789 398.208,-133.82"/>
<text text-anchor="middle" x="471" y="-157" font-family="Helvetica,sans-Serif" font-size="10.00"> m_reference_count</text>
</g>
<!-- Node8 -->
<g id="node15" class="node"><title>Node8</title>
<a xlink:href="structstxxl_1_1choose__int__types.html" target="_top" xlink:title="stxxl::choose_int_types\l\&lt; PtrSize \&gt;">
<polygon fill="none" stroke="black" points="0.5,-114 0.5,-148 125.5,-148 125.5,-114 0.5,-114"/>
<text text-anchor="start" x="8.5" y="-135" font-family="Helvetica,sans-Serif" font-size="10.00">stxxl::choose_int_types</text>
<text text-anchor="middle" x="63" y="-122" font-family="Helvetica,sans-Serif" font-size="10.00">&lt; PtrSize &gt;</text>
</a>
</g>
<!-- Node8&#45;&gt;Node7 -->
<g id="edge16" class="edge"><title>Node8&#45;&gt;Node7</title>
<path fill="none" stroke="orange" stroke-dasharray="5,2" d="M135.913,-131C175.636,-131 224.295,-131 262.303,-131"/>
<polygon fill="orange" stroke="orange" points="135.756,-127.5 125.756,-131 135.755,-134.5 135.756,-127.5"/>
<text text-anchor="middle" x="194" y="-135" font-family="Helvetica,sans-Serif" font-size="10.00"> &lt; my_pointer_size &gt;</text>
</g>
<!-- Node9 -->
<g id="node19" class="node"><title>Node9</title>
<a xlink:href="classstxxl_1_1counting__ptr.html" target="_top" xlink:title="stxxl::counting_ptr\l\&lt; request \&gt;">
<polygon fill="none" stroke="black" points="1338.5,-113 1338.5,-147 1439.5,-147 1439.5,-113 1338.5,-113"/>
<text text-anchor="start" x="1346.5" y="-134" font-family="Helvetica,sans-Serif" font-size="10.00">stxxl::counting_ptr</text>
<text text-anchor="middle" x="1389" y="-121" font-family="Helvetica,sans-Serif" font-size="10.00">&lt; request &gt;</text>
</a>
</g>
<!-- Node9&#45;&gt;Node1 -->
<g id="edge22" class="edge"><title>Node9&#45;&gt;Node1</title>
<path fill="none" stroke="#9a32cd" stroke-dasharray="5,2" d="M1449.5,-142.257C1479.03,-149.642 1514.47,-160.642 1544,-176 1562.24,-185.487 1580.34,-201.084 1591.35,-211.447"/>
<polygon fill="#9a32cd" stroke="#9a32cd" points="1450.27,-138.843 1439.73,-139.891 1448.63,-145.647 1450.27,-138.843"/>
<text text-anchor="middle" x="1501" y="-180" font-family="Helvetica,sans-Serif" font-size="10.00"> backend_request</text>
</g>
<!-- Node10&#45;&gt;Node9 -->
<g id="edge24" class="edge"><title>Node10&#45;&gt;Node9</title>
<path fill="none" stroke="#9a32cd" stroke-dasharray="5,2" d="M1177.91,-130C1223.64,-130 1291.67,-130 1338.06,-130"/>
<polygon fill="#9a32cd" stroke="#9a32cd" points="1177.64,-126.5 1167.64,-130 1177.64,-133.5 1177.64,-126.5"/>
<text text-anchor="middle" x="1259" y="-134" font-family="Helvetica,sans-Serif" font-size="10.00"> m_ptr</text>
</g>
<!-- Node11&#45;&gt;Node10 -->
<g id="edge26" class="edge"><title>Node11&#45;&gt;Node10</title>
<path fill="none" stroke="midnightblue" d="M543.953,-119.33C683.359,-121.873 983.236,-127.342 1090.15,-129.292"/>
<polygon fill="midnightblue" stroke="midnightblue" points="543.856,-115.828 533.794,-119.145 543.728,-122.827 543.856,-115.828"/>
</g>
<!-- Node12 -->
<g id="node28" class="node"><title>Node12</title>
<a xlink:href="structstxxl_1_1compat__unique__ptr.html" target="_top" xlink:title="stxxl::compat_unique\l_ptr\&lt; stxxl::stxxl::io\l_error \&gt;">
<polygon fill="none" stroke="black" points="694.5,-52.5 694.5,-99.5 807.5,-99.5 807.5,-52.5 694.5,-52.5"/>
<text text-anchor="start" x="702.5" y="-86.5" font-family="Helvetica,sans-Serif" font-size="10.00">stxxl::compat_unique</text>
<text text-anchor="start" x="702.5" y="-73.5" font-family="Helvetica,sans-Serif" font-size="10.00">_ptr&lt; stxxl::stxxl::io</text>
<text text-anchor="middle" x="751" y="-60.5" font-family="Helvetica,sans-Serif" font-size="10.00">_error &gt;</text>
</a>
</g>
<!-- Node12&#45;&gt;Node10 -->
<g id="edge34" class="edge"><title>Node12&#45;&gt;Node10</title>
<path fill="none" stroke="#9a32cd" stroke-dasharray="5,2" d="M818.013,-75.5304C881.335,-76.5612 978.5,-81.9781 1060,-103 1060.28,-103.073 1082.69,-111.845 1101.89,-119.369"/>
<polygon fill="#9a32cd" stroke="#9a32cd" points="817.806,-72.0275 807.761,-75.397 817.715,-79.0269 817.806,-72.0275"/>
<text text-anchor="middle" x="894" y="-89" font-family="Helvetica,sans-Serif" font-size="10.00"> m_error</text>
</g>
<!-- Node13 -->
<g id="node30" class="node"><title>Node13</title>
<a xlink:href="structstxxl_1_1compat__unique__ptr.html" target="_top" xlink:title="stxxl::compat_unique\l_ptr\&lt; Type \&gt;">
<polygon fill="none" stroke="black" points="268.5,-34 268.5,-68 381.5,-68 381.5,-34 268.5,-34"/>
<text text-anchor="start" x="276.5" y="-55" font-family="Helvetica,sans-Serif" font-size="10.00">stxxl::compat_unique</text>
<text text-anchor="middle" x="325" y="-42" font-family="Helvetica,sans-Serif" font-size="10.00">_ptr&lt; Type &gt;</text>
</a>
</g>
<!-- Node13&#45;&gt;Node12 -->
<g id="edge36" class="edge"><title>Node13&#45;&gt;Node12</title>
<path fill="none" stroke="orange" stroke-dasharray="5,2" d="M391.675,-54.9129C474.914,-59.7978 615.856,-68.069 694.197,-72.6665"/>
<polygon fill="orange" stroke="orange" points="391.757,-51.4118 381.57,-54.3198 391.347,-58.3997 391.757,-51.4118"/>
<text text-anchor="start" x="435" y="-80" font-family="Helvetica,sans-Serif" font-size="10.00"> &lt; stxxl::stxxl::io</text>
<text text-anchor="middle" x="471" y="-67" font-family="Helvetica,sans-Serif" font-size="10.00">_error &gt;</text>
</g>
<!-- Node15 -->
<g id="node34" class="node"><title>Node15</title>
<a xlink:href="structstxxl_1_1compat__unique__ptr.html" target="_top" xlink:title="stxxl::compat_unique\l_ptr\&lt; stxxl::completion\l_handler_impl \&gt;">
<polygon fill="none" stroke="black" points="554.5,-0.5 554.5,-47.5 675.5,-47.5 675.5,-0.5 554.5,-0.5"/>
<text text-anchor="start" x="562.5" y="-34.5" font-family="Helvetica,sans-Serif" font-size="10.00">stxxl::compat_unique</text>
<text text-anchor="start" x="562.5" y="-21.5" font-family="Helvetica,sans-Serif" font-size="10.00">_ptr&lt; stxxl::completion</text>
<text text-anchor="middle" x="615" y="-8.5" font-family="Helvetica,sans-Serif" font-size="10.00">_handler_impl &gt;</text>
</a>
</g>
<!-- Node13&#45;&gt;Node15 -->
<g id="edge42" class="edge"><title>Node13&#45;&gt;Node15</title>
<path fill="none" stroke="orange" stroke-dasharray="5,2" d="M387.444,-31.5509C393.667,-30.1318 399.927,-28.9048 406,-28 455.535,-20.6197 512.398,-20.0339 554.294,-21.062"/>
<polygon fill="orange" stroke="orange" points="386.614,-28.1506 377.728,-33.9203 388.273,-34.9512 386.614,-28.1506"/>
<text text-anchor="start" x="426.5" y="-45" font-family="Helvetica,sans-Serif" font-size="10.00"> &lt; stxxl::completion</text>
<text text-anchor="middle" x="471" y="-32" font-family="Helvetica,sans-Serif" font-size="10.00">_handler_impl &gt;</text>
</g>
<!-- Node14 -->
<g id="node32" class="node"><title>Node14</title>
<a xlink:href="classstxxl_1_1completion__handler.html" target="_top" xlink:title="Completion handler class (Loki&#45;style). ">
<polygon fill="none" stroke="black" points="826.5,-16.5 826.5,-37.5 961.5,-37.5 961.5,-16.5 826.5,-16.5"/>
<text text-anchor="middle" x="894" y="-24.5" font-family="Helvetica,sans-Serif" font-size="10.00">stxxl::completion_handler</text>
</a>
</g>
<!-- Node14&#45;&gt;Node10 -->
<g id="edge38" class="edge"><title>Node14&#45;&gt;Node10</title>
<path fill="none" stroke="#9a32cd" stroke-dasharray="5,2" d="M971.774,-20.062C1002.43,-21.3884 1035.99,-28.4521 1060,-49 1081.48,-67.3783 1058.9,-89.1641 1078,-110 1081.47,-113.786 1085.75,-116.864 1090.33,-119.365"/>
<polygon fill="#9a32cd" stroke="#9a32cd" points="971.584,-16.5567 961.504,-19.821 971.42,-23.5548 971.584,-16.5567"/>
<text text-anchor="middle" x="1020" y="-53" font-family="Helvetica,sans-Serif" font-size="10.00"> m_on_complete</text>
</g>
<!-- Node15&#45;&gt;Node14 -->
<g id="edge40" class="edge"><title>Node15&#45;&gt;Node14</title>
<path fill="none" stroke="#9a32cd" stroke-dasharray="5,2" d="M685.674,-24.7599C728.805,-25.2237 783.648,-25.8134 826.237,-26.2714"/>
<polygon fill="#9a32cd" stroke="#9a32cd" points="685.576,-21.2588 675.539,-24.651 685.501,-28.2584 685.576,-21.2588"/>
<text text-anchor="middle" x="751" y="-31" font-family="Helvetica,sans-Serif" font-size="10.00"> m_ptr</text>
</g>
<!-- Node16 -->
<g id="node37" class="node"><title>Node16</title>
<a xlink:href="classstxxl_1_1counting__ptr.html" target="_top" xlink:title="High&#45;performance smart pointer used as a wrapping reference counting pointer. ">
<polygon fill="none" stroke="black" points="1078.5,-67 1078.5,-101 1179.5,-101 1179.5,-67 1078.5,-67"/>
<text text-anchor="start" x="1086.5" y="-88" font-family="Helvetica,sans-Serif" font-size="10.00">stxxl::counting_ptr</text>
<text text-anchor="middle" x="1129" y="-75" font-family="Helvetica,sans-Serif" font-size="10.00">&lt; Type &gt;</text>
</a>
</g>
<!-- Node16&#45;&gt;Node9 -->
<g id="edge44" class="edge"><title>Node16&#45;&gt;Node9</title>
<path fill="none" stroke="orange" stroke-dasharray="5,2" d="M1190.17,-91.8464C1227.78,-97.0259 1276.85,-104.427 1320,-113 1325.93,-114.178 1332.12,-115.528 1338.25,-116.941"/>
<polygon fill="orange" stroke="orange" points="1190.27,-88.3271 1179.89,-90.4453 1189.32,-95.263 1190.27,-88.3271"/>
<text text-anchor="middle" x="1259" y="-117" font-family="Helvetica,sans-Serif" font-size="10.00"> &lt; request &gt;</text>
</g>
</g>
</svg>
