<?xml version="1.0" encoding="UTF-8" standalone="no"?>
<!DOCTYPE svg PUBLIC "-//W3C//DTD SVG 1.1//EN"
 "http://www.w3.org/Graphics/SVG/1.1/DTD/svg11.dtd">
<!-- Generated by graphviz version 2.26.3 (20100126.1600)
 -->
<!-- Title: stxxl::prefetch_pool&lt; BlockType &gt; Pages: 1 -->
<svg width="672pt" height="148pt"
 viewBox="0.00 0.00 672.00 148.00" xmlns="http://www.w3.org/2000/svg" xmlns:xlink="http://www.w3.org/1999/xlink">
<g id="graph1" class="graph" transform="scale(1 1) rotate(0) translate(4 144)">
<title>stxxl::prefetch_pool&lt; BlockType &gt;</title>
<!-- Node1 -->
<g id="node1" class="node"><title>Node1</title>
<polygon fill="#bfbfbf" stroke="black" points="556.5,-66 556.5,-100 663.5,-100 663.5,-66 556.5,-66"/>
<text text-anchor="start" x="564.5" y="-87" font-family="Helvetica,sans-Serif" font-size="10.00">stxxl::prefetch_pool</text>
<text text-anchor="middle" x="610" y="-74" font-family="Helvetica,sans-Serif" font-size="10.00">&lt; BlockType &gt;</text>
</g>
<!-- Node2 -->
<g id="node2" class="node"><title>Node2</title>
<a xlink:href="classstxxl_1_1noncopyable.html" target="_top" xlink:title="stxxl::noncopyable">
<polygon fill="none" stroke="black" points="324,-118.5 324,-139.5 426,-139.5 426,-118.5 324,-118.5"/>
<text text-anchor="middle" x="375" y="-126.5" font-family="Helvetica,sans-Serif" font-size="10.00">stxxl::noncopyable</text>
</a>
</g>
<!-- Node2&#45;&gt;Node1 -->
<g id="edge2" class="edge"><title>Node2&#45;&gt;Node1</title>
<path fill="none" stroke="#8b1a1a" d="M436.27,-118.932C466.902,-113.687 504.493,-106.931 538,-100 543.911,-98.7773 550.079,-97.4305 556.21,-96.0464"/>
<polygon fill="#8b1a1a" stroke="#8b1a1a" points="435.436,-115.523 426.165,-120.65 436.61,-122.424 435.436,-115.523"/>
</g>
<!-- Node3 -->
<g id="node4" class="node"><title>Node3</title>
<a xlink:href="structstxxl_1_1choose__int__types.html" target="_top" xlink:title="stxxl::choose_int_types\l\&lt; my_pointer_size \&gt;">
<polygon fill="none" stroke="black" points="312.5,-66 312.5,-100 437.5,-100 437.5,-66 312.5,-66"/>
<text text-anchor="start" x="320.5" y="-87" font-family="Helvetica,sans-Serif" font-size="10.00">stxxl::choose_int_types</text>
<text text-anchor="middle" x="375" y="-74" font-family="Helvetica,sans-Serif" font-size="10.00">&lt; my_pointer_size &gt;</text>
</a>
</g>
<!-- Node3&#45;&gt;Node1 -->
<g id="edge4" class="edge"><title>Node3&#45;&gt;Node1</title>
<path fill="none" stroke="#9a32cd" stroke-dasharray="5,2" d="M447.847,-83C482.885,-83 524.147,-83 556.28,-83"/>
<polygon fill="#9a32cd" stroke="#9a32cd" points="447.667,-79.5001 437.667,-83 447.667,-86.5001 447.667,-79.5001"/>
<text text-anchor="middle" x="497" y="-87" font-family="Helvetica,sans-Serif" font-size="10.00"> free_blocks_size</text>
</g>
<!-- Node4 -->
<g id="node6" class="node"><title>Node4</title>
<a xlink:href="structstxxl_1_1choose__int__types.html" target="_top" xlink:title="stxxl::choose_int_types\l\&lt; PtrSize \&gt;">
<polygon fill="none" stroke="black" points="19.5,-66 19.5,-100 144.5,-100 144.5,-66 19.5,-66"/>
<text text-anchor="start" x="27.5" y="-87" font-family="Helvetica,sans-Serif" font-size="10.00">stxxl::choose_int_types</text>
<text text-anchor="middle" x="82" y="-74" font-family="Helvetica,sans-Serif" font-size="10.00">&lt; PtrSize &gt;</text>
</a>
</g>
<!-- Node4&#45;&gt;Node3 -->
<g id="edge6" class="edge"><title>Node4&#45;&gt;Node3</title>
<path fill="none" stroke="orange" stroke-dasharray="5,2" d="M154.946,-83C203.312,-83 266.12,-83 312.248,-83"/>
<polygon fill="orange" stroke="orange" points="154.856,-79.5001 144.856,-83 154.856,-86.5001 154.856,-79.5001"/>
<text text-anchor="middle" x="238" y="-87" font-family="Helvetica,sans-Serif" font-size="10.00"> &lt; my_pointer_size &gt;</text>
</g>
<!-- Node5 -->
<g id="node8" class="node"><title>Node5</title>
<a xlink:href="structstxxl_1_1compat__hash__map.html" target="_top" xlink:title="stxxl::compat_hash\l_map\&lt; bid_type, busy\l_entry, bid_hash \&gt;">
<polygon fill="none" stroke="black" points="316,-0.5 316,-47.5 434,-47.5 434,-0.5 316,-0.5"/>
<text text-anchor="start" x="324" y="-34.5" font-family="Helvetica,sans-Serif" font-size="10.00">stxxl::compat_hash</text>
<text text-anchor="start" x="324" y="-21.5" font-family="Helvetica,sans-Serif" font-size="10.00">_map&lt; bid_type, busy</text>
<text text-anchor="middle" x="375" y="-8.5" font-family="Helvetica,sans-Serif" font-size="10.00">_entry, bid_hash &gt;</text>
</a>
</g>
<!-- Node5&#45;&gt;Node1 -->
<g id="edge8" class="edge"><title>Node5&#45;&gt;Node1</title>
<path fill="none" stroke="#9a32cd" stroke-dasharray="5,2" d="M444.196,-41.3727C480.013,-50.365 523.08,-61.1775 556.344,-69.5289"/>
<polygon fill="#9a32cd" stroke="#9a32cd" points="444.852,-37.9287 434.3,-38.8882 443.147,-44.718 444.852,-37.9287"/>
<text text-anchor="middle" x="497" y="-67" font-family="Helvetica,sans-Serif" font-size="10.00"> busy_blocks</text>
</g>
<!-- Node6 -->
<g id="node10" class="node"><title>Node6</title>
<a xlink:href="structstxxl_1_1compat__hash__map.html" target="_top" xlink:title="stxxl::compat_hash\l_map\&lt; KeyType, MappedType,\l HashType \&gt;">
<polygon fill="none" stroke="black" points="0,-0.5 0,-47.5 164,-47.5 164,-0.5 0,-0.5"/>
<text text-anchor="start" x="8" y="-34.5" font-family="Helvetica,sans-Serif" font-size="10.00">stxxl::compat_hash</text>
<text text-anchor="start" x="8" y="-21.5" font-family="Helvetica,sans-Serif" font-size="10.00">_map&lt; KeyType, MappedType,</text>
<text text-anchor="middle" x="82" y="-8.5" font-family="Helvetica,sans-Serif" font-size="10.00"> HashType &gt;</text>
</a>
</g>
<!-- Node6&#45;&gt;Node5 -->
<g id="edge10" class="edge"><title>Node6&#45;&gt;Node5</title>
<path fill="none" stroke="orange" stroke-dasharray="5,2" d="M174.056,-24C220.371,-24 275.149,-24 315.806,-24"/>
<polygon fill="orange" stroke="orange" points="174.006,-20.5001 164.006,-24 174.006,-27.5001 174.006,-20.5001"/>
<text text-anchor="start" x="182.5" y="-41" font-family="Helvetica,sans-Serif" font-size="10.00"> &lt; bid_type, busy_entry,</text>
<text text-anchor="middle" x="238" y="-28" font-family="Helvetica,sans-Serif" font-size="10.00"> bid_hash &gt;</text>
</g>
</g>
</svg>
