<?xml version="1.0" encoding="UTF-8" standalone="no"?>
<!DOCTYPE svg PUBLIC "-//W3C//DTD SVG 1.1//EN"
 "http://www.w3.org/Graphics/SVG/1.1/DTD/svg11.dtd">
<!-- Generated by graphviz version 2.26.3 (20100126.1600)
 -->
<!-- Title: stxxl::disk_queues Pages: 1 -->
<svg width="224pt" height="250pt"
 viewBox="0.00 0.00 224.00 250.00" xmlns="http://www.w3.org/2000/svg" xmlns:xlink="http://www.w3.org/1999/xlink">
<g id="graph1" class="graph" transform="scale(1 1) rotate(0) translate(4 246)">
<title>stxxl::disk_queues</title>
<!-- Node1 -->
<g id="node1" class="node"><title>Node1</title>
<polygon fill="#bfbfbf" stroke="black" points="5.5,-0.5 5.5,-21.5 106.5,-21.5 106.5,-0.5 5.5,-0.5"/>
<text text-anchor="middle" x="56" y="-8.5" font-family="Helvetica,sans-Serif" font-size="10.00">stxxl::disk_queues</text>
</g>
<!-- Node2 -->
<g id="node2" class="node"><title>Node2</title>
<a xlink:href="classstxxl_1_1singleton.html" target="_top" xlink:title="stxxl::singleton\&lt; disk\l_queues \&gt;">
<polygon fill="none" stroke="black" points="-0.5,-61 -0.5,-95 112.5,-95 112.5,-61 -0.5,-61"/>
<text text-anchor="start" x="7.5" y="-82" font-family="Helvetica,sans-Serif" font-size="10.00">stxxl::singleton&lt; disk</text>
<text text-anchor="middle" x="56" y="-69" font-family="Helvetica,sans-Serif" font-size="10.00">_queues &gt;</text>
</a>
</g>
<!-- Node2&#45;&gt;Node1 -->
<g id="edge2" class="edge"><title>Node2&#45;&gt;Node1</title>
<path fill="none" stroke="midnightblue" d="M56,-50.5344C56,-40.3057 56,-29.3007 56,-21.5056"/>
<polygon fill="midnightblue" stroke="midnightblue" points="52.5001,-50.7458 56,-60.7458 59.5001,-50.7459 52.5001,-50.7458"/>
</g>
<!-- Node3 -->
<g id="node4" class="node"><title>Node3</title>
<a xlink:href="classstxxl_1_1noncopyable.html" target="_top" xlink:title="stxxl::noncopyable">
<polygon fill="none" stroke="black" points="20,-220.5 20,-241.5 122,-241.5 122,-220.5 20,-220.5"/>
<text text-anchor="middle" x="71" y="-228.5" font-family="Helvetica,sans-Serif" font-size="10.00">stxxl::noncopyable</text>
</a>
</g>
<!-- Node3&#45;&gt;Node2 -->
<g id="edge4" class="edge"><title>Node3&#45;&gt;Node2</title>
<path fill="none" stroke="#8b1a1a" d="M64.9708,-210.559C62.6667,-201.839 60.2859,-191.502 59,-182 54.8822,-151.57 54.9104,-115.693 55.3941,-95.0224"/>
<polygon fill="#8b1a1a" stroke="#8b1a1a" points="61.6091,-211.534 67.6644,-220.228 68.3523,-209.655 61.6091,-211.534"/>
</g>
<!-- Node4 -->
<g id="node6" class="node"><title>Node4</title>
<a xlink:href="classstxxl_1_1singleton.html" target="_top" xlink:title="stxxl::singleton\&lt; INSTANCE,\l destroy_on_exit \&gt;">
<polygon fill="none" stroke="black" points="67.5,-147 67.5,-181 216.5,-181 216.5,-147 67.5,-147"/>
<text text-anchor="start" x="75.5" y="-168" font-family="Helvetica,sans-Serif" font-size="10.00">stxxl::singleton&lt; INSTANCE,</text>
<text text-anchor="middle" x="142" y="-155" font-family="Helvetica,sans-Serif" font-size="10.00"> destroy_on_exit &gt;</text>
</a>
</g>
<!-- Node3&#45;&gt;Node4 -->
<g id="edge8" class="edge"><title>Node3&#45;&gt;Node4</title>
<path fill="none" stroke="#8b1a1a" d="M89.9042,-213.161C100.465,-203.195 113.554,-190.843 123.97,-181.014"/>
<polygon fill="#8b1a1a" stroke="#8b1a1a" points="87.2782,-210.826 82.4074,-220.235 92.0825,-215.918 87.2782,-210.826"/>
</g>
<!-- Node4&#45;&gt;Node2 -->
<g id="edge6" class="edge"><title>Node4&#45;&gt;Node2</title>
<path fill="none" stroke="orange" stroke-dasharray="5,2" d="M117.519,-139.519C103.321,-125.321 85.7935,-107.794 73.084,-95.084"/>
<polygon fill="orange" stroke="orange" points="115.051,-142 124.597,-146.597 120,-137.051 115.051,-142"/>
<text text-anchor="middle" x="144" y="-118.5" font-family="Helvetica,sans-Serif" font-size="10.00"> &lt; disk_queues &gt;</text>
</g>
</g>
</svg>
