<?xml version="1.0" encoding="UTF-8" standalone="no"?>
<!DOCTYPE svg PUBLIC "-//W3C//DTD SVG 1.1//EN"
 "http://www.w3.org/Graphics/SVG/1.1/DTD/svg11.dtd">
<!-- Generated by graphviz version 2.26.3 (20100126.1600)
 -->
<!-- Title: stxxl::linuxaio_queue Pages: 1 -->
<svg width="120pt" height="218pt"
 viewBox="0.00 0.00 120.00 218.00" xmlns="http://www.w3.org/2000/svg" xmlns:xlink="http://www.w3.org/1999/xlink">
<g id="graph1" class="graph" transform="scale(1 1) rotate(0) translate(4 214)">
<title>stxxl::linuxaio_queue</title>
<!-- Node1 -->
<g id="node1" class="node"><title>Node1</title>
<polygon fill="#bfbfbf" stroke="black" points="0,-0.5 0,-21.5 112,-21.5 112,-0.5 0,-0.5"/>
<text text-anchor="middle" x="56" y="-8.5" font-family="Helvetica,sans-Serif" font-size="10.00">stxxl::linuxaio_queue</text>
</g>
<!-- Node2 -->
<g id="node2" class="node"><title>Node2</title>
<a xlink:href="classstxxl_1_1request__queue__impl__worker.html" target="_top" xlink:title="Implementation of request queue worker threads. Worker threads can be started by start_thread and sto...">
<polygon fill="none" stroke="black" points="0,-59 0,-93 112,-93 112,-59 0,-59"/>
<text text-anchor="start" x="8" y="-80" font-family="Helvetica,sans-Serif" font-size="10.00">stxxl::request_queue</text>
<text text-anchor="middle" x="56" y="-67" font-family="Helvetica,sans-Serif" font-size="10.00">_impl_worker</text>
</a>
</g>
<!-- Node2&#45;&gt;Node1 -->
<g id="edge2" class="edge"><title>Node2&#45;&gt;Node1</title>
<path fill="none" stroke="midnightblue" d="M56,-48.6879C56,-39.2415 56,-29.1949 56,-21.8521"/>
<polygon fill="midnightblue" stroke="midnightblue" points="52.5001,-48.922 56,-58.922 59.5001,-48.922 52.5001,-48.922"/>
</g>
<!-- Node3 -->
<g id="node4" class="node"><title>Node3</title>
<a xlink:href="classstxxl_1_1request__queue.html" target="_top" xlink:title="Interface of a request_queue to which requests can be added and canceled. ">
<polygon fill="none" stroke="black" points="0,-130.5 0,-151.5 112,-151.5 112,-130.5 0,-130.5"/>
<text text-anchor="middle" x="56" y="-138.5" font-family="Helvetica,sans-Serif" font-size="10.00">stxxl::request_queue</text>
</a>
</g>
<!-- Node3&#45;&gt;Node2 -->
<g id="edge4" class="edge"><title>Node3&#45;&gt;Node2</title>
<path fill="none" stroke="midnightblue" d="M56,-120.131C56,-111.405 56,-101.391 56,-93.1099"/>
<polygon fill="midnightblue" stroke="midnightblue" points="52.5001,-120.267 56,-130.267 59.5001,-120.267 52.5001,-120.267"/>
</g>
<!-- Node4 -->
<g id="node6" class="node"><title>Node4</title>
<a xlink:href="classstxxl_1_1noncopyable.html" target="_top" xlink:title="stxxl::noncopyable">
<polygon fill="none" stroke="black" points="5,-188.5 5,-209.5 107,-209.5 107,-188.5 5,-188.5"/>
<text text-anchor="middle" x="56" y="-196.5" font-family="Helvetica,sans-Serif" font-size="10.00">stxxl::noncopyable</text>
</a>
</g>
<!-- Node4&#45;&gt;Node3 -->
<g id="edge6" class="edge"><title>Node4&#45;&gt;Node3</title>
<path fill="none" stroke="#8b1a1a" d="M56,-178.191C56,-169.168 56,-158.994 56,-151.571"/>
<polygon fill="#8b1a1a" stroke="#8b1a1a" points="52.5001,-178.362 56,-188.362 59.5001,-178.362 52.5001,-178.362"/>
</g>
</g>
</svg>
