<?xml version="1.0" encoding="UTF-8" standalone="no"?>
<!DOCTYPE svg PUBLIC "-//W3C//DTD SVG 1.1//EN"
 "http://www.w3.org/Graphics/SVG/1.1/DTD/svg11.dtd">
<!-- Generated by graphviz version 2.26.3 (20100126.1600)
 -->
<!-- Title: stxxl::read_write_pool&lt; BlockType &gt; Pages: 1 -->
<svg width="866pt" height="202pt"
 viewBox="0.00 0.00 866.00 202.00" xmlns="http://www.w3.org/2000/svg" xmlns:xlink="http://www.w3.org/1999/xlink">
<g id="graph1" class="graph" transform="scale(1 1) rotate(0) translate(4 198)">
<title>stxxl::read_write_pool&lt; BlockType &gt;</title>
<!-- Node1 -->
<g id="node1" class="node"><title>Node1</title>
<polygon fill="#bfbfbf" stroke="black" points="738.5,-115 738.5,-149 857.5,-149 857.5,-115 738.5,-115"/>
<text text-anchor="start" x="746.5" y="-136" font-family="Helvetica,sans-Serif" font-size="10.00">stxxl::read_write_pool</text>
<text text-anchor="middle" x="798" y="-123" font-family="Helvetica,sans-Serif" font-size="10.00">&lt; BlockType &gt;</text>
</g>
<!-- Node2 -->
<g id="node2" class="node"><title>Node2</title>
<a xlink:href="classstxxl_1_1noncopyable.html" target="_top" xlink:title="stxxl::noncopyable">
<polygon fill="none" stroke="black" points="324,-121.5 324,-142.5 426,-142.5 426,-121.5 324,-121.5"/>
<text text-anchor="middle" x="375" y="-129.5" font-family="Helvetica,sans-Serif" font-size="10.00">stxxl::noncopyable</text>
</a>
</g>
<!-- Node2&#45;&gt;Node1 -->
<g id="edge2" class="edge"><title>Node2&#45;&gt;Node1</title>
<path fill="none" stroke="#8b1a1a" d="M436.042,-132C516.789,-132 658.212,-132 738.287,-132"/>
<polygon fill="#8b1a1a" stroke="#8b1a1a" points="436.024,-128.5 426.024,-132 436.024,-135.5 436.024,-128.5"/>
</g>
<!-- Node3 -->
<g id="node4" class="node"><title>Node3</title>
<a xlink:href="classstxxl_1_1prefetch__pool.html" target="_top" xlink:title="Implements dynamically resizable prefetching pool. ">
<polygon fill="none" stroke="black" points="556.5,-66 556.5,-100 663.5,-100 663.5,-66 556.5,-66"/>
<text text-anchor="start" x="564.5" y="-87" font-family="Helvetica,sans-Serif" font-size="10.00">stxxl::prefetch_pool</text>
<text text-anchor="middle" x="610" y="-74" font-family="Helvetica,sans-Serif" font-size="10.00">&lt; BlockType &gt;</text>
</a>
</g>
<!-- Node2&#45;&gt;Node3 -->
<g id="edge6" class="edge"><title>Node2&#45;&gt;Node3</title>
<path fill="none" stroke="#8b1a1a" d="M435.661,-119.352C473.006,-111.565 520.441,-101.674 556.402,-94.1759"/>
<polygon fill="#8b1a1a" stroke="#8b1a1a" points="434.488,-116.021 425.413,-121.488 435.917,-122.873 434.488,-116.021"/>
</g>
<!-- Node8 -->
<g id="node15" class="node"><title>Node8</title>
<a xlink:href="classstxxl_1_1write__pool.html" target="_top" xlink:title="Implements dynamically resizable buffered writing pool. ">
<polygon fill="none" stroke="black" points="561.5,-160 561.5,-194 658.5,-194 658.5,-160 561.5,-160"/>
<text text-anchor="start" x="569.5" y="-181" font-family="Helvetica,sans-Serif" font-size="10.00">stxxl::write_pool&lt;</text>
<text text-anchor="middle" x="610" y="-168" font-family="Helvetica,sans-Serif" font-size="10.00"> BlockType &gt;</text>
</a>
</g>
<!-- Node2&#45;&gt;Node8 -->
<g id="edge18" class="edge"><title>Node2&#45;&gt;Node8</title>
<path fill="none" stroke="#8b1a1a" d="M436.444,-143.766C475.373,-151.22 525.023,-160.728 561.238,-167.663"/>
<polygon fill="#8b1a1a" stroke="#8b1a1a" points="436.761,-140.263 426.281,-141.82 435.445,-147.138 436.761,-140.263"/>
</g>
<!-- Node3&#45;&gt;Node1 -->
<g id="edge4" class="edge"><title>Node3&#45;&gt;Node1</title>
<path fill="none" stroke="#9a32cd" stroke-dasharray="5,2" d="M673.654,-94.2032C688.928,-97.3114 705.123,-100.957 720,-105 730.51,-107.856 741.654,-111.396 752.129,-114.962"/>
<polygon fill="#9a32cd" stroke="#9a32cd" points="674.263,-90.7558 663.772,-92.2395 672.898,-97.6216 674.263,-90.7558"/>
<text text-anchor="middle" x="701" y="-109" font-family="Helvetica,sans-Serif" font-size="10.00"> p_pool</text>
</g>
<!-- Node4 -->
<g id="node7" class="node"><title>Node4</title>
<a xlink:href="structstxxl_1_1choose__int__types.html" target="_top" xlink:title="stxxl::choose_int_types\l\&lt; my_pointer_size \&gt;">
<polygon fill="none" stroke="black" points="312.5,-66 312.5,-100 437.5,-100 437.5,-66 312.5,-66"/>
<text text-anchor="start" x="320.5" y="-87" font-family="Helvetica,sans-Serif" font-size="10.00">stxxl::choose_int_types</text>
<text text-anchor="middle" x="375" y="-74" font-family="Helvetica,sans-Serif" font-size="10.00">&lt; my_pointer_size &gt;</text>
</a>
</g>
<!-- Node4&#45;&gt;Node3 -->
<g id="edge8" class="edge"><title>Node4&#45;&gt;Node3</title>
<path fill="none" stroke="#9a32cd" stroke-dasharray="5,2" d="M447.841,-80.1747C450.595,-80.1083 453.322,-80.0496 456,-80 492.438,-79.3254 501.563,-79.2412 538,-80 543.879,-80.1224 550.026,-80.301 556.145,-80.511"/>
<polygon fill="#9a32cd" stroke="#9a32cd" points="447.689,-76.6774 437.787,-80.4451 447.877,-83.6749 447.689,-76.6774"/>
<text text-anchor="middle" x="497" y="-84" font-family="Helvetica,sans-Serif" font-size="10.00"> free_blocks_size</text>
</g>
<!-- Node5 -->
<g id="node9" class="node"><title>Node5</title>
<a xlink:href="structstxxl_1_1choose__int__types.html" target="_top" xlink:title="stxxl::choose_int_types\l\&lt; PtrSize \&gt;">
<polygon fill="none" stroke="black" points="19.5,-66 19.5,-100 144.5,-100 144.5,-66 19.5,-66"/>
<text text-anchor="start" x="27.5" y="-87" font-family="Helvetica,sans-Serif" font-size="10.00">stxxl::choose_int_types</text>
<text text-anchor="middle" x="82" y="-74" font-family="Helvetica,sans-Serif" font-size="10.00">&lt; PtrSize &gt;</text>
</a>
</g>
<!-- Node5&#45;&gt;Node4 -->
<g id="edge10" class="edge"><title>Node5&#45;&gt;Node4</title>
<path fill="none" stroke="orange" stroke-dasharray="5,2" d="M154.946,-83C203.312,-83 266.12,-83 312.248,-83"/>
<polygon fill="orange" stroke="orange" points="154.856,-79.5001 144.856,-83 154.856,-86.5001 154.856,-79.5001"/>
<text text-anchor="middle" x="238" y="-87" font-family="Helvetica,sans-Serif" font-size="10.00"> &lt; my_pointer_size &gt;</text>
</g>
<!-- Node6 -->
<g id="node11" class="node"><title>Node6</title>
<a xlink:href="structstxxl_1_1compat__hash__map.html" target="_top" xlink:title="stxxl::compat_hash\l_map\&lt; bid_type, busy\l_entry, bid_hash \&gt;">
<polygon fill="none" stroke="black" points="316,-0.5 316,-47.5 434,-47.5 434,-0.5 316,-0.5"/>
<text text-anchor="start" x="324" y="-34.5" font-family="Helvetica,sans-Serif" font-size="10.00">stxxl::compat_hash</text>
<text text-anchor="start" x="324" y="-21.5" font-family="Helvetica,sans-Serif" font-size="10.00">_map&lt; bid_type, busy</text>
<text text-anchor="middle" x="375" y="-8.5" font-family="Helvetica,sans-Serif" font-size="10.00">_entry, bid_hash &gt;</text>
</a>
</g>
<!-- Node6&#45;&gt;Node3 -->
<g id="edge12" class="edge"><title>Node6&#45;&gt;Node3</title>
<path fill="none" stroke="#9a32cd" stroke-dasharray="5,2" d="M444.39,-40.0194C473.381,-46.8636 507.381,-55.0872 538,-63 543.903,-64.5256 550.066,-66.1652 556.194,-67.8255"/>
<polygon fill="#9a32cd" stroke="#9a32cd" points="444.893,-36.5425 434.358,-37.6588 443.29,-43.3564 444.893,-36.5425"/>
<text text-anchor="middle" x="497" y="-67" font-family="Helvetica,sans-Serif" font-size="10.00"> busy_blocks</text>
</g>
<!-- Node7 -->
<g id="node13" class="node"><title>Node7</title>
<a xlink:href="structstxxl_1_1compat__hash__map.html" target="_top" xlink:title="stxxl::compat_hash\l_map\&lt; KeyType, MappedType,\l HashType \&gt;">
<polygon fill="none" stroke="black" points="0,-0.5 0,-47.5 164,-47.5 164,-0.5 0,-0.5"/>
<text text-anchor="start" x="8" y="-34.5" font-family="Helvetica,sans-Serif" font-size="10.00">stxxl::compat_hash</text>
<text text-anchor="start" x="8" y="-21.5" font-family="Helvetica,sans-Serif" font-size="10.00">_map&lt; KeyType, MappedType,</text>
<text text-anchor="middle" x="82" y="-8.5" font-family="Helvetica,sans-Serif" font-size="10.00"> HashType &gt;</text>
</a>
</g>
<!-- Node7&#45;&gt;Node6 -->
<g id="edge14" class="edge"><title>Node7&#45;&gt;Node6</title>
<path fill="none" stroke="orange" stroke-dasharray="5,2" d="M174.056,-24C220.371,-24 275.149,-24 315.806,-24"/>
<polygon fill="orange" stroke="orange" points="174.006,-20.5001 164.006,-24 174.006,-27.5001 174.006,-20.5001"/>
<text text-anchor="start" x="182.5" y="-41" font-family="Helvetica,sans-Serif" font-size="10.00"> &lt; bid_type, busy_entry,</text>
<text text-anchor="middle" x="238" y="-28" font-family="Helvetica,sans-Serif" font-size="10.00"> bid_hash &gt;</text>
</g>
<!-- Node8&#45;&gt;Node1 -->
<g id="edge16" class="edge"><title>Node8&#45;&gt;Node1</title>
<path fill="none" stroke="#9a32cd" stroke-dasharray="5,2" d="M668.827,-162.919C690.936,-157.627 716.078,-151.609 738.268,-146.297"/>
<polygon fill="#9a32cd" stroke="#9a32cd" points="667.815,-159.562 658.904,-165.294 669.444,-166.37 667.815,-159.562"/>
<text text-anchor="middle" x="701" y="-162" font-family="Helvetica,sans-Serif" font-size="10.00"> w_pool</text>
</g>
</g>
</svg>
