<?xml version="1.0" encoding="UTF-8" standalone="no"?>
<!DOCTYPE svg PUBLIC "-//W3C//DTD SVG 1.1//EN"
 "http://www.w3.org/Graphics/SVG/1.1/DTD/svg11.dtd">
<!-- Generated by graphviz version 2.26.3 (20100126.1600)
 -->
<!-- Title: stxxl::normal_stack&lt; StackConfig &gt; Pages: 1 -->
<svg width="746pt" height="146pt"
 viewBox="0.00 0.00 746.00 145.64" xmlns="http://www.w3.org/2000/svg" xmlns:xlink="http://www.w3.org/1999/xlink">
<g id="graph1" class="graph" transform="scale(1 1) rotate(0) translate(4 141.644)">
<title>stxxl::normal_stack&lt; StackConfig &gt;</title>
<!-- Node1 -->
<g id="node1" class="node"><title>Node1</title>
<polygon fill="#bfbfbf" stroke="black" points="632.5,-74 632.5,-108 737.5,-108 737.5,-74 632.5,-74"/>
<text text-anchor="start" x="640.5" y="-95" font-family="Helvetica,sans-Serif" font-size="10.00">stxxl::normal_stack</text>
<text text-anchor="middle" x="685" y="-82" font-family="Helvetica,sans-Serif" font-size="10.00">&lt; StackConfig &gt;</text>
</g>
<!-- Node2 -->
<g id="node2" class="node"><title>Node2</title>
<a xlink:href="classstxxl_1_1noncopyable.html" target="_top" xlink:title="stxxl::noncopyable">
<polygon fill="none" stroke="black" points="0,-103.5 0,-124.5 102,-124.5 102,-103.5 0,-103.5"/>
<text text-anchor="middle" x="51" y="-111.5" font-family="Helvetica,sans-Serif" font-size="10.00">stxxl::noncopyable</text>
</a>
</g>
<!-- Node2&#45;&gt;Node1 -->
<g id="edge2" class="edge"><title>Node2&#45;&gt;Node1</title>
<path fill="none" stroke="#8b1a1a" d="M112.258,-125.156C114.869,-125.473 117.458,-125.757 120,-126 310.275,-144.207 358.864,-132.222 550,-134 578.443,-134.265 586.603,-141.649 614,-134 632.183,-128.923 650.348,-117.782 663.753,-108.113"/>
<polygon fill="#8b1a1a" stroke="#8b1a1a" points="112.504,-121.658 102.126,-123.792 111.57,-128.595 112.504,-121.658"/>
</g>
<!-- Node5 -->
<g id="node8" class="node"><title>Node5</title>
<a xlink:href="classstxxl_1_1simple__vector.html" target="_top" xlink:title="stxxl::simple_vector\l\&lt; stxxl::typed_block \&gt;">
<polygon fill="none" stroke="black" points="411,-74 411,-108 527,-108 527,-74 411,-74"/>
<text text-anchor="start" x="419" y="-95" font-family="Helvetica,sans-Serif" font-size="10.00">stxxl::simple_vector</text>
<text text-anchor="middle" x="469" y="-82" font-family="Helvetica,sans-Serif" font-size="10.00">&lt; stxxl::typed_block &gt;</text>
</a>
</g>
<!-- Node2&#45;&gt;Node5 -->
<g id="edge10" class="edge"><title>Node2&#45;&gt;Node5</title>
<path fill="none" stroke="#8b1a1a" d="M112.212,-112.728C179.796,-111.028 291.782,-107.335 388,-100 395.336,-99.4407 403.034,-98.7373 410.644,-97.9714"/>
<polygon fill="#8b1a1a" stroke="#8b1a1a" points="112.074,-109.23 102.163,-112.975 112.246,-116.228 112.074,-109.23"/>
</g>
<!-- Node6 -->
<g id="node11" class="node"><title>Node6</title>
<a xlink:href="classstxxl_1_1simple__vector.html" target="_top" xlink:title="Simpler non&#45;growing vector without initialization. ">
<polygon fill="none" stroke="black" points="149.5,-52 149.5,-86 256.5,-86 256.5,-52 149.5,-52"/>
<text text-anchor="start" x="157.5" y="-73" font-family="Helvetica,sans-Serif" font-size="10.00">stxxl::simple_vector</text>
<text text-anchor="middle" x="203" y="-60" font-family="Helvetica,sans-Serif" font-size="10.00">&lt; ValueType &gt;</text>
</a>
</g>
<!-- Node2&#45;&gt;Node6 -->
<g id="edge14" class="edge"><title>Node2&#45;&gt;Node6</title>
<path fill="none" stroke="#8b1a1a" d="M96.6452,-100.487C113.256,-95.5688 132.183,-89.9656 149.42,-84.8626"/>
<polygon fill="#8b1a1a" stroke="#8b1a1a" points="95.2323,-97.2547 86.6372,-103.449 97.2194,-103.967 95.2323,-97.2547"/>
</g>
<!-- Node3 -->
<g id="node4" class="node"><title>Node3</title>
<a xlink:href="structstxxl_1_1choose__int__types.html" target="_top" xlink:title="stxxl::choose_int_types\l\&lt; my_pointer_size \&gt;">
<polygon fill="none" stroke="black" points="406.5,-8 406.5,-42 531.5,-42 531.5,-8 406.5,-8"/>
<text text-anchor="start" x="414.5" y="-29" font-family="Helvetica,sans-Serif" font-size="10.00">stxxl::choose_int_types</text>
<text text-anchor="middle" x="469" y="-16" font-family="Helvetica,sans-Serif" font-size="10.00">&lt; my_pointer_size &gt;</text>
</a>
</g>
<!-- Node3&#45;&gt;Node1 -->
<g id="edge4" class="edge"><title>Node3&#45;&gt;Node1</title>
<path fill="none" stroke="#9a32cd" stroke-dasharray="5,2" d="M534.84,-45.1179C566.093,-54.6672 602.932,-65.9237 632.3,-74.8973"/>
<polygon fill="#9a32cd" stroke="#9a32cd" points="535.493,-41.6575 524.906,-42.0825 533.447,-48.352 535.493,-41.6575"/>
<text text-anchor="middle" x="582" y="-72" font-family="Helvetica,sans-Serif" font-size="10.00"> cache_offset</text>
</g>
<!-- Node4 -->
<g id="node6" class="node"><title>Node4</title>
<a xlink:href="structstxxl_1_1choose__int__types.html" target="_top" xlink:title="stxxl::choose_int_types\l\&lt; PtrSize \&gt;">
<polygon fill="none" stroke="black" points="140.5,-0 140.5,-34 265.5,-34 265.5,-0 140.5,-0"/>
<text text-anchor="start" x="148.5" y="-21" font-family="Helvetica,sans-Serif" font-size="10.00">stxxl::choose_int_types</text>
<text text-anchor="middle" x="203" y="-8" font-family="Helvetica,sans-Serif" font-size="10.00">&lt; PtrSize &gt;</text>
</a>
</g>
<!-- Node4&#45;&gt;Node3 -->
<g id="edge6" class="edge"><title>Node4&#45;&gt;Node3</title>
<path fill="none" stroke="orange" stroke-dasharray="5,2" d="M275.869,-19.1916C316.726,-20.4203 367.171,-21.9375 406.259,-23.1131"/>
<polygon fill="orange" stroke="orange" points="275.802,-15.6881 265.701,-18.8858 275.592,-22.6849 275.802,-15.6881"/>
<text text-anchor="middle" x="336" y="-27" font-family="Helvetica,sans-Serif" font-size="10.00"> &lt; my_pointer_size &gt;</text>
</g>
<!-- Node5&#45;&gt;Node1 -->
<g id="edge8" class="edge"><title>Node5&#45;&gt;Node1</title>
<path fill="none" stroke="#9a32cd" stroke-dasharray="5,2" d="M537.368,-91C568.055,-91 603.698,-91 632.274,-91"/>
<polygon fill="#9a32cd" stroke="#9a32cd" points="537.168,-87.5001 527.168,-91 537.168,-94.5001 537.168,-87.5001"/>
<text text-anchor="middle" x="582" y="-121" font-family="Helvetica,sans-Serif" font-size="10.00"> back_page</text>
<text text-anchor="middle" x="582" y="-108" font-family="Helvetica,sans-Serif" font-size="10.00">front_page</text>
<text text-anchor="middle" x="582" y="-95" font-family="Helvetica,sans-Serif" font-size="10.00">cache</text>
</g>
<!-- Node6&#45;&gt;Node5 -->
<g id="edge12" class="edge"><title>Node6&#45;&gt;Node5</title>
<path fill="none" stroke="orange" stroke-dasharray="5,2" d="M266.495,-74.2515C310.381,-77.8812 368.31,-82.6722 410.963,-86.2"/>
<polygon fill="orange" stroke="orange" points="266.764,-70.7618 256.509,-73.4256 266.187,-77.738 266.764,-70.7618"/>
<text text-anchor="middle" x="336" y="-87" font-family="Helvetica,sans-Serif" font-size="10.00"> &lt; stxxl::typed_block &gt;</text>
</g>
</g>
</svg>
