<?xml version="1.0" encoding="UTF-8" standalone="no"?>
<!DOCTYPE svg PUBLIC "-//W3C//DTD SVG 1.1//EN"
 "http://www.w3.org/Graphics/SVG/1.1/DTD/svg11.dtd">
<!-- Generated by graphviz version 2.26.3 (20100126.1600)
 -->
<!-- Title: stxxl::buf_istream&lt; BlockType, BidIteratorType &gt; Pages: 1 -->
<svg width="1174pt" height="366pt"
 viewBox="0.00 0.00 1174.00 366.00" xmlns="http://www.w3.org/2000/svg" xmlns:xlink="http://www.w3.org/1999/xlink">
<g id="graph1" class="graph" transform="scale(1 1) rotate(0) translate(4 362)">
<title>stxxl::buf_istream&lt; BlockType, BidIteratorType &gt;</title>
<!-- Node1 -->
<g id="node1" class="node"><title>Node1</title>
<polygon fill="#bfbfbf" stroke="black" points="1002.5,-300 1002.5,-334 1165.5,-334 1165.5,-300 1002.5,-300"/>
<text text-anchor="start" x="1010.5" y="-321" font-family="Helvetica,sans-Serif" font-size="10.00">stxxl::buf_istream</text>
<text text-anchor="middle" x="1084" y="-308" font-family="Helvetica,sans-Serif" font-size="10.00">&lt; BlockType, BidIteratorType &gt;</text>
</g>
<!-- Node2 -->
<g id="node2" class="node"><title>Node2</title>
<a xlink:href="classstxxl_1_1noncopyable.html" target="_top" xlink:title="stxxl::noncopyable">
<polygon fill="none" stroke="black" points="6,-144.5 6,-165.5 108,-165.5 108,-144.5 6,-144.5"/>
<text text-anchor="middle" x="57" y="-152.5" font-family="Helvetica,sans-Serif" font-size="10.00">stxxl::noncopyable</text>
</a>
</g>
<!-- Node2&#45;&gt;Node1 -->
<g id="edge2" class="edge"><title>Node2&#45;&gt;Node1</title>
<path fill="none" stroke="#8b1a1a" d="M67.9892,-174.355C98.3905,-225.082 189.019,-358 304,-358 304,-358 304,-358 832,-358 895.164,-358 966.09,-345.296 1016.57,-334.032"/>
<polygon fill="#8b1a1a" stroke="#8b1a1a" points="70.9495,-172.484 62.8713,-165.628 64.9113,-176.025 70.9495,-172.484"/>
</g>
<!-- Node3 -->
<g id="node4" class="node"><title>Node3</title>
<a xlink:href="classstxxl_1_1block__prefetcher.html" target="_top" xlink:title="Encapsulates asynchronous prefetching engine. ">
<polygon fill="none" stroke="black" points="750.5,-194 750.5,-228 913.5,-228 913.5,-194 750.5,-194"/>
<text text-anchor="start" x="758.5" y="-215" font-family="Helvetica,sans-Serif" font-size="10.00">stxxl::block_prefetcher</text>
<text text-anchor="middle" x="832" y="-202" font-family="Helvetica,sans-Serif" font-size="10.00">&lt; BlockType, BidIteratorType &gt;</text>
</a>
</g>
<!-- Node2&#45;&gt;Node3 -->
<g id="edge6" class="edge"><title>Node2&#45;&gt;Node3</title>
<path fill="none" stroke="#8b1a1a" d="M118.254,-167.079C122.895,-167.796 127.516,-168.449 132,-169 354.644,-196.351 619.407,-206.088 750.329,-209.397"/>
<polygon fill="#8b1a1a" stroke="#8b1a1a" points="118.539,-163.579 108.105,-165.419 117.409,-170.487 118.539,-163.579"/>
</g>
<!-- Node6 -->
<g id="node11" class="node"><title>Node6</title>
<a xlink:href="classstxxl_1_1onoff__switch.html" target="_top" xlink:title="stxxl::onoff_switch">
<polygon fill="none" stroke="black" points="521.5,-123.5 521.5,-144.5 622.5,-144.5 622.5,-123.5 521.5,-123.5"/>
<text text-anchor="middle" x="572" y="-131.5" font-family="Helvetica,sans-Serif" font-size="10.00">stxxl::onoff_switch</text>
</a>
</g>
<!-- Node2&#45;&gt;Node6 -->
<g id="edge14" class="edge"><title>Node2&#45;&gt;Node6</title>
<path fill="none" stroke="#8b1a1a" d="M89.5168,-140.34C125.459,-125.093 185.493,-102.43 240,-95 348.507,-80.2096 378.683,-87.1904 486,-109 504.285,-112.716 524.324,-118.441 540.455,-123.476"/>
<polygon fill="#8b1a1a" stroke="#8b1a1a" points="87.8398,-137.251 80.0428,-144.425 90.6114,-143.679 87.8398,-137.251"/>
</g>
<!-- Node7 -->
<g id="node14" class="node"><title>Node7</title>
<a xlink:href="classstxxl_1_1mutex.html" target="_top" xlink:title="stxxl::mutex">
<polygon fill="none" stroke="black" points="269,-144.5 269,-165.5 339,-165.5 339,-144.5 269,-144.5"/>
<text text-anchor="middle" x="304" y="-152.5" font-family="Helvetica,sans-Serif" font-size="10.00">stxxl::mutex</text>
</a>
</g>
<!-- Node2&#45;&gt;Node7 -->
<g id="edge18" class="edge"><title>Node2&#45;&gt;Node7</title>
<path fill="none" stroke="#8b1a1a" d="M118.331,-155C165.739,-155 229.682,-155 268.816,-155"/>
<polygon fill="#8b1a1a" stroke="#8b1a1a" points="118.179,-151.5 108.179,-155 118.179,-158.5 118.179,-151.5"/>
</g>
<!-- Node8 -->
<g id="node17" class="node"><title>Node8</title>
<a xlink:href="classstxxl_1_1condition__variable.html" target="_top" xlink:title="stxxl::condition_variable">
<polygon fill="none" stroke="black" points="240,-104.5 240,-125.5 368,-125.5 368,-104.5 240,-104.5"/>
<text text-anchor="middle" x="304" y="-112.5" font-family="Helvetica,sans-Serif" font-size="10.00">stxxl::condition_variable</text>
</a>
</g>
<!-- Node2&#45;&gt;Node8 -->
<g id="edge22" class="edge"><title>Node2&#45;&gt;Node8</title>
<path fill="none" stroke="#8b1a1a" d="M118.313,-145.071C155.248,-139.089 202.222,-131.482 239.683,-125.416"/>
<polygon fill="#8b1a1a" stroke="#8b1a1a" points="117.49,-141.658 108.179,-146.712 118.609,-148.568 117.49,-141.658"/>
</g>
<!-- Node3&#45;&gt;Node1 -->
<g id="edge4" class="edge"><title>Node3&#45;&gt;Node1</title>
<path fill="none" stroke="#9a32cd" stroke-dasharray="5,2" d="M881.911,-231.994C929.151,-251.865 999.204,-281.332 1043.19,-299.836"/>
<polygon fill="#9a32cd" stroke="#9a32cd" points="883.063,-228.682 872.488,-228.031 880.349,-235.134 883.063,-228.682"/>
<text text-anchor="middle" x="958" y="-277" font-family="Helvetica,sans-Serif" font-size="10.00"> prefetcher</text>
</g>
<!-- Node4 -->
<g id="node7" class="node"><title>Node4</title>
<a xlink:href="structstxxl_1_1choose__int__types.html" target="_top" xlink:title="stxxl::choose_int_types\l\&lt; my_pointer_size \&gt;">
<polygon fill="none" stroke="black" points="509.5,-285 509.5,-319 634.5,-319 634.5,-285 509.5,-285"/>
<text text-anchor="start" x="517.5" y="-306" font-family="Helvetica,sans-Serif" font-size="10.00">stxxl::choose_int_types</text>
<text text-anchor="middle" x="572" y="-293" font-family="Helvetica,sans-Serif" font-size="10.00">&lt; my_pointer_size &gt;</text>
</a>
</g>
<!-- Node4&#45;&gt;Node1 -->
<g id="edge32" class="edge"><title>Node4&#45;&gt;Node1</title>
<path fill="none" stroke="#9a32cd" stroke-dasharray="5,2" d="M644.567,-304.126C739.049,-306.894 903.739,-311.719 1002.44,-314.611"/>
<polygon fill="#9a32cd" stroke="#9a32cd" points="644.623,-300.626 634.525,-303.832 644.418,-307.623 644.623,-300.626"/>
<text text-anchor="middle" x="832" y="-315" font-family="Helvetica,sans-Serif" font-size="10.00"> current_elem</text>
</g>
<!-- Node4&#45;&gt;Node3 -->
<g id="edge8" class="edge"><title>Node4&#45;&gt;Node3</title>
<path fill="none" stroke="#9a32cd" stroke-dasharray="5,2" d="M617.233,-280.792C630.26,-275.019 644.58,-268.988 658,-264 663.754,-261.861 726.717,-242.766 775.266,-228.103"/>
<polygon fill="#9a32cd" stroke="#9a32cd" points="615.698,-277.645 608.007,-284.932 618.563,-284.032 615.698,-277.645"/>
<text text-anchor="middle" x="695" y="-294" font-family="Helvetica,sans-Serif" font-size="10.00"> seq_length</text>
<text text-anchor="middle" x="695" y="-281" font-family="Helvetica,sans-Serif" font-size="10.00">nextconsume</text>
<text text-anchor="middle" x="695" y="-268" font-family="Helvetica,sans-Serif" font-size="10.00">nextread</text>
</g>
<!-- Node5 -->
<g id="node9" class="node"><title>Node5</title>
<a xlink:href="structstxxl_1_1choose__int__types.html" target="_top" xlink:title="stxxl::choose_int_types\l\&lt; PtrSize \&gt;">
<polygon fill="none" stroke="black" points="241.5,-285 241.5,-319 366.5,-319 366.5,-285 241.5,-285"/>
<text text-anchor="start" x="249.5" y="-306" font-family="Helvetica,sans-Serif" font-size="10.00">stxxl::choose_int_types</text>
<text text-anchor="middle" x="304" y="-293" font-family="Helvetica,sans-Serif" font-size="10.00">&lt; PtrSize &gt;</text>
</a>
</g>
<!-- Node5&#45;&gt;Node4 -->
<g id="edge10" class="edge"><title>Node5&#45;&gt;Node4</title>
<path fill="none" stroke="orange" stroke-dasharray="5,2" d="M376.853,-302C418.223,-302 469.491,-302 509.096,-302"/>
<polygon fill="orange" stroke="orange" points="376.834,-298.5 366.834,-302 376.834,-305.5 376.834,-298.5"/>
<text text-anchor="middle" x="436" y="-306" font-family="Helvetica,sans-Serif" font-size="10.00"> &lt; my_pointer_size &gt;</text>
</g>
<!-- Node6&#45;&gt;Node3 -->
<g id="edge12" class="edge"><title>Node6&#45;&gt;Node3</title>
<path fill="none" stroke="#9a32cd" stroke-dasharray="5,2" d="M632.766,-143.414C662.987,-148.88 699.835,-156.734 732,-167 754.587,-174.209 778.958,-184.868 797.986,-193.89"/>
<polygon fill="#9a32cd" stroke="#9a32cd" points="633.243,-139.944 622.787,-141.652 632.026,-146.838 633.243,-139.944"/>
<text text-anchor="middle" x="695" y="-171" font-family="Helvetica,sans-Serif" font-size="10.00"> completed</text>
</g>
<!-- Node7&#45;&gt;Node6 -->
<g id="edge16" class="edge"><title>Node7&#45;&gt;Node6</title>
<path fill="none" stroke="#9a32cd" stroke-dasharray="5,2" d="M349.064,-151.469C396.72,-147.735 471.737,-141.856 521.394,-137.965"/>
<polygon fill="#9a32cd" stroke="#9a32cd" points="348.732,-147.984 339.036,-152.255 349.279,-154.963 348.732,-147.984"/>
<text text-anchor="middle" x="436" y="-152" font-family="Helvetica,sans-Serif" font-size="10.00"> m_mutex</text>
</g>
<!-- Node8&#45;&gt;Node6 -->
<g id="edge20" class="edge"><title>Node8&#45;&gt;Node6</title>
<path fill="none" stroke="#9a32cd" stroke-dasharray="5,2" d="M378.215,-113.418C411.283,-113.435 450.666,-114.447 486,-118 498.088,-119.215 511.02,-121.234 523.087,-123.434"/>
<polygon fill="#9a32cd" stroke="#9a32cd" points="378.157,-109.918 368.166,-113.443 378.175,-116.918 378.157,-109.918"/>
<text text-anchor="middle" x="436" y="-122" font-family="Helvetica,sans-Serif" font-size="10.00"> m_cond</text>
</g>
<!-- Node9 -->
<g id="node20" class="node"><title>Node9</title>
<a xlink:href="classstxxl_1_1counting__ptr.html" target="_top" xlink:title="High&#45;performance smart pointer used as a wrapping reference counting pointer. ">
<polygon fill="none" stroke="black" points="521.5,-222 521.5,-256 622.5,-256 622.5,-222 521.5,-222"/>
<text text-anchor="start" x="529.5" y="-243" font-family="Helvetica,sans-Serif" font-size="10.00">stxxl::counting_ptr</text>
<text text-anchor="middle" x="572" y="-230" font-family="Helvetica,sans-Serif" font-size="10.00">&lt; Type &gt;</text>
</a>
</g>
<!-- Node9&#45;&gt;Node3 -->
<g id="edge24" class="edge"><title>Node9&#45;&gt;Node3</title>
<path fill="none" stroke="#9a32cd" stroke-dasharray="5,2" d="M633.033,-230.965C641.417,-229.928 649.918,-228.911 658,-228 688.01,-224.615 720.978,-221.294 750.07,-218.497"/>
<polygon fill="#9a32cd" stroke="#9a32cd" points="632.389,-227.518 622.902,-232.234 633.259,-234.464 632.389,-227.518"/>
<text text-anchor="middle" x="695" y="-232" font-family="Helvetica,sans-Serif" font-size="10.00"> read_reqs</text>
</g>
<!-- Node10 -->
<g id="node22" class="node"><title>Node10</title>
<a xlink:href="classstxxl_1_1completion__handler.html" target="_top" xlink:title="Completion handler class (Loki&#45;style). ">
<polygon fill="none" stroke="black" points="504.5,-63.5 504.5,-84.5 639.5,-84.5 639.5,-63.5 504.5,-63.5"/>
<text text-anchor="middle" x="572" y="-71.5" font-family="Helvetica,sans-Serif" font-size="10.00">stxxl::completion_handler</text>
</a>
</g>
<!-- Node10&#45;&gt;Node3 -->
<g id="edge26" class="edge"><title>Node10&#45;&gt;Node3</title>
<path fill="none" stroke="#9a32cd" stroke-dasharray="5,2" d="M622.773,-87.3634C655.187,-97.0196 697.453,-111.745 732,-131 763.655,-148.644 795.54,-176.252 814.53,-193.983"/>
<polygon fill="#9a32cd" stroke="#9a32cd" points="623.629,-83.9673 613.049,-84.53 621.67,-90.6878 623.629,-83.9673"/>
<text text-anchor="middle" x="695" y="-135" font-family="Helvetica,sans-Serif" font-size="10.00"> do_after_fetch</text>
</g>
<!-- Node11 -->
<g id="node24" class="node"><title>Node11</title>
<a xlink:href="structstxxl_1_1compat__unique__ptr.html" target="_top" xlink:title="stxxl::compat_unique\l_ptr\&lt; stxxl::completion\l_handler_impl \&gt;">
<polygon fill="none" stroke="black" points="243.5,-0.5 243.5,-47.5 364.5,-47.5 364.5,-0.5 243.5,-0.5"/>
<text text-anchor="start" x="251.5" y="-34.5" font-family="Helvetica,sans-Serif" font-size="10.00">stxxl::compat_unique</text>
<text text-anchor="start" x="251.5" y="-21.5" font-family="Helvetica,sans-Serif" font-size="10.00">_ptr&lt; stxxl::completion</text>
<text text-anchor="middle" x="304" y="-8.5" font-family="Helvetica,sans-Serif" font-size="10.00">_handler_impl &gt;</text>
</a>
</g>
<!-- Node11&#45;&gt;Node10 -->
<g id="edge28" class="edge"><title>Node11&#45;&gt;Node10</title>
<path fill="none" stroke="#9a32cd" stroke-dasharray="5,2" d="M374.897,-31.2946C408.734,-35.3975 449.672,-41.2682 486,-49 504.098,-52.8518 523.953,-58.5246 540.021,-63.4932"/>
<polygon fill="#9a32cd" stroke="#9a32cd" points="374.979,-27.7799 364.637,-30.0779 374.155,-34.7312 374.979,-27.7799"/>
<text text-anchor="middle" x="436" y="-53" font-family="Helvetica,sans-Serif" font-size="10.00"> m_ptr</text>
</g>
<!-- Node12 -->
<g id="node26" class="node"><title>Node12</title>
<a xlink:href="structstxxl_1_1compat__unique__ptr.html" target="_top" xlink:title="stxxl::compat_unique\l_ptr\&lt; Type \&gt;">
<polygon fill="none" stroke="black" points="0.5,-7 0.5,-41 113.5,-41 113.5,-7 0.5,-7"/>
<text text-anchor="start" x="8.5" y="-28" font-family="Helvetica,sans-Serif" font-size="10.00">stxxl::compat_unique</text>
<text text-anchor="middle" x="57" y="-15" font-family="Helvetica,sans-Serif" font-size="10.00">_ptr&lt; Type &gt;</text>
</a>
</g>
<!-- Node12&#45;&gt;Node11 -->
<g id="edge30" class="edge"><title>Node12&#45;&gt;Node11</title>
<path fill="none" stroke="orange" stroke-dasharray="5,2" d="M123.917,-24C161.137,-24 207.104,-24 243.28,-24"/>
<polygon fill="orange" stroke="orange" points="123.667,-20.5001 113.667,-24 123.667,-27.5001 123.667,-20.5001"/>
<text text-anchor="start" x="132.5" y="-41" font-family="Helvetica,sans-Serif" font-size="10.00"> &lt; stxxl::completion</text>
<text text-anchor="middle" x="177" y="-28" font-family="Helvetica,sans-Serif" font-size="10.00">_handler_impl &gt;</text>
</g>
</g>
</svg>
