<?xml version="1.0" encoding="UTF-8" standalone="no"?>
<!DOCTYPE svg PUBLIC "-//W3C//DTD SVG 1.1//EN"
 "http://www.w3.org/Graphics/SVG/1.1/DTD/svg11.dtd">
<!-- Generated by graphviz version 2.26.3 (20100126.1600)
 -->
<!-- Title: stxxl::block_prefetcher&lt; BlockType, BidIteratorType &gt; Pages: 1 -->
<svg width="922pt" height="229pt"
 viewBox="0.00 0.00 922.00 229.26" xmlns="http://www.w3.org/2000/svg" xmlns:xlink="http://www.w3.org/1999/xlink">
<g id="graph1" class="graph" transform="scale(1 1) rotate(0) translate(4 225.259)">
<title>stxxl::block_prefetcher&lt; BlockType, BidIteratorType &gt;</title>
<!-- Node1 -->
<g id="node1" class="node"><title>Node1</title>
<polygon fill="#bfbfbf" stroke="black" points="750.5,-97 750.5,-131 913.5,-131 913.5,-97 750.5,-97"/>
<text text-anchor="start" x="758.5" y="-118" font-family="Helvetica,sans-Serif" font-size="10.00">stxxl::block_prefetcher</text>
<text text-anchor="middle" x="832" y="-105" font-family="Helvetica,sans-Serif" font-size="10.00">&lt; BlockType, BidIteratorType &gt;</text>
</g>
<!-- Node2 -->
<g id="node2" class="node"><title>Node2</title>
<a xlink:href="classstxxl_1_1noncopyable.html" target="_top" xlink:title="stxxl::noncopyable">
<polygon fill="none" stroke="black" points="6,-191.5 6,-212.5 108,-212.5 108,-191.5 6,-191.5"/>
<text text-anchor="middle" x="57" y="-199.5" font-family="Helvetica,sans-Serif" font-size="10.00">stxxl::noncopyable</text>
</a>
</g>
<!-- Node2&#45;&gt;Node1 -->
<g id="edge2" class="edge"><title>Node2&#45;&gt;Node1</title>
<path fill="none" stroke="#8b1a1a" d="M105.964,-214.743C114.584,-216.513 123.512,-218.05 132,-219 171.752,-223.449 182,-219.137 222,-219 286.89,-218.778 303.145,-220.144 368,-218 489.217,-213.992 519.424,-209.079 640,-196 680.94,-191.559 693.58,-199.822 732,-185 763.784,-172.738 794.9,-148.069 813.768,-131.292"/>
<polygon fill="#8b1a1a" stroke="#8b1a1a" points="106.549,-211.288 96.0325,-212.577 105.057,-218.127 106.549,-211.288"/>
</g>
<!-- Node5 -->
<g id="node8" class="node"><title>Node5</title>
<a xlink:href="classstxxl_1_1onoff__switch.html" target="_top" xlink:title="stxxl::onoff_switch">
<polygon fill="none" stroke="black" points="521.5,-165.5 521.5,-186.5 622.5,-186.5 622.5,-165.5 521.5,-165.5"/>
<text text-anchor="middle" x="572" y="-173.5" font-family="Helvetica,sans-Serif" font-size="10.00">stxxl::onoff_switch</text>
</a>
</g>
<!-- Node2&#45;&gt;Node5 -->
<g id="edge10" class="edge"><title>Node2&#45;&gt;Node5</title>
<path fill="none" stroke="#8b1a1a" d="M118.114,-204.228C201.538,-206.469 355.607,-207.761 486,-193 499.006,-191.528 512.979,-189.126 525.801,-186.586"/>
<polygon fill="#8b1a1a" stroke="#8b1a1a" points="118.146,-200.727 108.051,-203.943 117.948,-207.724 118.146,-200.727"/>
</g>
<!-- Node6 -->
<g id="node11" class="node"><title>Node6</title>
<a xlink:href="classstxxl_1_1mutex.html" target="_top" xlink:title="stxxl::mutex">
<polygon fill="none" stroke="black" points="269,-165.5 269,-186.5 339,-186.5 339,-165.5 269,-165.5"/>
<text text-anchor="middle" x="304" y="-173.5" font-family="Helvetica,sans-Serif" font-size="10.00">stxxl::mutex</text>
</a>
</g>
<!-- Node2&#45;&gt;Node6 -->
<g id="edge14" class="edge"><title>Node2&#45;&gt;Node6</title>
<path fill="none" stroke="#8b1a1a" d="M118.331,-195.544C165.739,-190.554 229.682,-183.823 268.816,-179.704"/>
<polygon fill="#8b1a1a" stroke="#8b1a1a" points="117.757,-192.085 108.179,-196.613 118.49,-199.047 117.757,-192.085"/>
</g>
<!-- Node7 -->
<g id="node14" class="node"><title>Node7</title>
<a xlink:href="classstxxl_1_1condition__variable.html" target="_top" xlink:title="stxxl::condition_variable">
<polygon fill="none" stroke="black" points="240,-125.5 240,-146.5 368,-146.5 368,-125.5 240,-125.5"/>
<text text-anchor="middle" x="304" y="-133.5" font-family="Helvetica,sans-Serif" font-size="10.00">stxxl::condition_variable</text>
</a>
</g>
<!-- Node2&#45;&gt;Node7 -->
<g id="edge18" class="edge"><title>Node2&#45;&gt;Node7</title>
<path fill="none" stroke="#8b1a1a" d="M104.163,-188.662C113.386,-186.091 122.99,-183.44 132,-181 176.69,-168.898 228.06,-155.529 262.939,-146.532"/>
<polygon fill="#8b1a1a" stroke="#8b1a1a" points="103.039,-185.342 94.3512,-191.406 104.924,-192.083 103.039,-185.342"/>
</g>
<!-- Node3 -->
<g id="node4" class="node"><title>Node3</title>
<a xlink:href="structstxxl_1_1choose__int__types.html" target="_top" xlink:title="stxxl::choose_int_types\l\&lt; my_pointer_size \&gt;">
<polygon fill="none" stroke="black" points="509.5,-105 509.5,-139 634.5,-139 634.5,-105 509.5,-105"/>
<text text-anchor="start" x="517.5" y="-126" font-family="Helvetica,sans-Serif" font-size="10.00">stxxl::choose_int_types</text>
<text text-anchor="middle" x="572" y="-113" font-family="Helvetica,sans-Serif" font-size="10.00">&lt; my_pointer_size &gt;</text>
</a>
</g>
<!-- Node3&#45;&gt;Node1 -->
<g id="edge4" class="edge"><title>Node3&#45;&gt;Node1</title>
<path fill="none" stroke="#9a32cd" stroke-dasharray="5,2" d="M645.109,-115.67C649.469,-115.411 653.791,-115.183 658,-115 688.029,-113.693 721.001,-113.251 750.091,-113.199"/>
<polygon fill="#9a32cd" stroke="#9a32cd" points="644.657,-112.192 634.904,-116.329 645.108,-119.177 644.657,-112.192"/>
<text text-anchor="middle" x="695" y="-145" font-family="Helvetica,sans-Serif" font-size="10.00"> seq_length</text>
<text text-anchor="middle" x="695" y="-132" font-family="Helvetica,sans-Serif" font-size="10.00">nextconsume</text>
<text text-anchor="middle" x="695" y="-119" font-family="Helvetica,sans-Serif" font-size="10.00">nextread</text>
</g>
<!-- Node4 -->
<g id="node6" class="node"><title>Node4</title>
<a xlink:href="structstxxl_1_1choose__int__types.html" target="_top" xlink:title="stxxl::choose_int_types\l\&lt; PtrSize \&gt;">
<polygon fill="none" stroke="black" points="241.5,-73 241.5,-107 366.5,-107 366.5,-73 241.5,-73"/>
<text text-anchor="start" x="249.5" y="-94" font-family="Helvetica,sans-Serif" font-size="10.00">stxxl::choose_int_types</text>
<text text-anchor="middle" x="304" y="-81" font-family="Helvetica,sans-Serif" font-size="10.00">&lt; PtrSize &gt;</text>
</a>
</g>
<!-- Node4&#45;&gt;Node3 -->
<g id="edge6" class="edge"><title>Node4&#45;&gt;Node3</title>
<path fill="none" stroke="orange" stroke-dasharray="5,2" d="M376.719,-92.7571C410.132,-94.6479 450.204,-97.7959 486,-103 493.566,-104.1 501.457,-105.495 509.257,-107.028"/>
<polygon fill="orange" stroke="orange" points="376.75,-89.2538 366.576,-92.2098 376.373,-96.2436 376.75,-89.2538"/>
<text text-anchor="middle" x="436" y="-107" font-family="Helvetica,sans-Serif" font-size="10.00"> &lt; my_pointer_size &gt;</text>
</g>
<!-- Node5&#45;&gt;Node1 -->
<g id="edge8" class="edge"><title>Node5&#45;&gt;Node1</title>
<path fill="none" stroke="#9a32cd" stroke-dasharray="5,2" d="M632.676,-171.176C662.875,-167.889 699.731,-162.535 732,-154 753.692,-148.262 777.021,-139.115 795.685,-131.015"/>
<polygon fill="#9a32cd" stroke="#9a32cd" points="632.29,-167.697 622.706,-172.213 633.015,-174.659 632.29,-167.697"/>
<text text-anchor="middle" x="695" y="-172" font-family="Helvetica,sans-Serif" font-size="10.00"> completed</text>
</g>
<!-- Node6&#45;&gt;Node5 -->
<g id="edge12" class="edge"><title>Node6&#45;&gt;Node5</title>
<path fill="none" stroke="#9a32cd" stroke-dasharray="5,2" d="M349.064,-176C396.72,-176 471.737,-176 521.394,-176"/>
<polygon fill="#9a32cd" stroke="#9a32cd" points="349.036,-172.5 339.036,-176 349.036,-179.5 349.036,-172.5"/>
<text text-anchor="middle" x="436" y="-180" font-family="Helvetica,sans-Serif" font-size="10.00"> m_mutex</text>
</g>
<!-- Node7&#45;&gt;Node5 -->
<g id="edge16" class="edge"><title>Node7&#45;&gt;Node5</title>
<path fill="none" stroke="#9a32cd" stroke-dasharray="5,2" d="M378.218,-144.197C411.287,-148.153 450.67,-153.283 486,-159 497.568,-160.872 509.958,-163.156 521.628,-165.435"/>
<polygon fill="#9a32cd" stroke="#9a32cd" points="378.512,-140.707 368.169,-143.007 377.689,-147.658 378.512,-140.707"/>
<text text-anchor="middle" x="436" y="-163" font-family="Helvetica,sans-Serif" font-size="10.00"> m_cond</text>
</g>
<!-- Node8 -->
<g id="node17" class="node"><title>Node8</title>
<a xlink:href="classstxxl_1_1counting__ptr.html" target="_top" xlink:title="High&#45;performance smart pointer used as a wrapping reference counting pointer. ">
<polygon fill="none" stroke="black" points="521.5,-53 521.5,-87 622.5,-87 622.5,-53 521.5,-53"/>
<text text-anchor="start" x="529.5" y="-74" font-family="Helvetica,sans-Serif" font-size="10.00">stxxl::counting_ptr</text>
<text text-anchor="middle" x="572" y="-61" font-family="Helvetica,sans-Serif" font-size="10.00">&lt; Type &gt;</text>
</a>
</g>
<!-- Node8&#45;&gt;Node1 -->
<g id="edge20" class="edge"><title>Node8&#45;&gt;Node1</title>
<path fill="none" stroke="#9a32cd" stroke-dasharray="5,2" d="M633.103,-79.6793C662.946,-84.4706 699.371,-90.4127 732,-96 737.999,-97.0272 744.196,-98.1044 750.431,-99.1995"/>
<polygon fill="#9a32cd" stroke="#9a32cd" points="633.266,-76.1609 622.838,-78.0351 632.159,-83.0728 633.266,-76.1609"/>
<text text-anchor="middle" x="695" y="-100" font-family="Helvetica,sans-Serif" font-size="10.00"> read_reqs</text>
</g>
<!-- Node9 -->
<g id="node19" class="node"><title>Node9</title>
<a xlink:href="classstxxl_1_1completion__handler.html" target="_top" xlink:title="Completion handler class (Loki&#45;style). ">
<polygon fill="none" stroke="black" points="504.5,-13.5 504.5,-34.5 639.5,-34.5 639.5,-13.5 504.5,-13.5"/>
<text text-anchor="middle" x="572" y="-21.5" font-family="Helvetica,sans-Serif" font-size="10.00">stxxl::completion_handler</text>
</a>
</g>
<!-- Node9&#45;&gt;Node1 -->
<g id="edge22" class="edge"><title>Node9&#45;&gt;Node1</title>
<path fill="none" stroke="#9a32cd" stroke-dasharray="5,2" d="M630.056,-36.977C660.77,-44.4967 698.876,-54.8728 732,-67 755.058,-75.4416 780.058,-87.1916 799.293,-96.8312"/>
<polygon fill="#9a32cd" stroke="#9a32cd" points="630.484,-33.4798 619.942,-34.5379 628.843,-40.2847 630.484,-33.4798"/>
<text text-anchor="middle" x="695" y="-71" font-family="Helvetica,sans-Serif" font-size="10.00"> do_after_fetch</text>
</g>
<!-- Node10 -->
<g id="node21" class="node"><title>Node10</title>
<a xlink:href="structstxxl_1_1compat__unique__ptr.html" target="_top" xlink:title="stxxl::compat_unique\l_ptr\&lt; stxxl::completion\l_handler_impl \&gt;">
<polygon fill="none" stroke="black" points="243.5,-0.5 243.5,-47.5 364.5,-47.5 364.5,-0.5 243.5,-0.5"/>
<text text-anchor="start" x="251.5" y="-34.5" font-family="Helvetica,sans-Serif" font-size="10.00">stxxl::compat_unique</text>
<text text-anchor="start" x="251.5" y="-21.5" font-family="Helvetica,sans-Serif" font-size="10.00">_ptr&lt; stxxl::completion</text>
<text text-anchor="middle" x="304" y="-8.5" font-family="Helvetica,sans-Serif" font-size="10.00">_handler_impl &gt;</text>
</a>
</g>
<!-- Node10&#45;&gt;Node9 -->
<g id="edge24" class="edge"><title>Node10&#45;&gt;Node9</title>
<path fill="none" stroke="#9a32cd" stroke-dasharray="5,2" d="M375.041,-24C415.1,-24 464.875,-24 504.364,-24"/>
<polygon fill="#9a32cd" stroke="#9a32cd" points="374.813,-20.5001 364.813,-24 374.813,-27.5001 374.813,-20.5001"/>
<text text-anchor="middle" x="436" y="-28" font-family="Helvetica,sans-Serif" font-size="10.00"> m_ptr</text>
</g>
<!-- Node11 -->
<g id="node23" class="node"><title>Node11</title>
<a xlink:href="structstxxl_1_1compat__unique__ptr.html" target="_top" xlink:title="stxxl::compat_unique\l_ptr\&lt; Type \&gt;">
<polygon fill="none" stroke="black" points="0.5,-7 0.5,-41 113.5,-41 113.5,-7 0.5,-7"/>
<text text-anchor="start" x="8.5" y="-28" font-family="Helvetica,sans-Serif" font-size="10.00">stxxl::compat_unique</text>
<text text-anchor="middle" x="57" y="-15" font-family="Helvetica,sans-Serif" font-size="10.00">_ptr&lt; Type &gt;</text>
</a>
</g>
<!-- Node11&#45;&gt;Node10 -->
<g id="edge26" class="edge"><title>Node11&#45;&gt;Node10</title>
<path fill="none" stroke="orange" stroke-dasharray="5,2" d="M123.917,-24C161.137,-24 207.104,-24 243.28,-24"/>
<polygon fill="orange" stroke="orange" points="123.667,-20.5001 113.667,-24 123.667,-27.5001 123.667,-20.5001"/>
<text text-anchor="start" x="132.5" y="-41" font-family="Helvetica,sans-Serif" font-size="10.00"> &lt; stxxl::completion</text>
<text text-anchor="middle" x="177" y="-28" font-family="Helvetica,sans-Serif" font-size="10.00">_handler_impl &gt;</text>
</g>
</g>
</svg>
