<?xml version="1.0" encoding="UTF-8" standalone="no"?>
<!DOCTYPE svg PUBLIC "-//W3C//DTD SVG 1.1//EN"
 "http://www.w3.org/Graphics/SVG/1.1/DTD/svg11.dtd">
<!-- Generated by graphviz version 2.26.3 (20100126.1600)
 -->
<!-- Title: stxxl::buffered_writer&lt; BlockType &gt; Pages: 1 -->
<svg width="228pt" height="130pt"
 viewBox="0.00 0.00 228.00 130.00" xmlns="http://www.w3.org/2000/svg" xmlns:xlink="http://www.w3.org/1999/xlink">
<g id="graph1" class="graph" transform="scale(1 1) rotate(0) translate(4 126)">
<title>stxxl::buffered_writer&lt; BlockType &gt;</title>
<!-- Node1 -->
<g id="node1" class="node"><title>Node1</title>
<polygon fill="#bfbfbf" stroke="black" points="53.5,-1 53.5,-35 166.5,-35 166.5,-1 53.5,-1"/>
<text text-anchor="start" x="61.5" y="-22" font-family="Helvetica,sans-Serif" font-size="10.00">stxxl::buffered_writer</text>
<text text-anchor="middle" x="110" y="-9" font-family="Helvetica,sans-Serif" font-size="10.00">&lt; BlockType &gt;</text>
</g>
<!-- Node2 -->
<g id="node2" class="node"><title>Node2</title>
<a xlink:href="classstxxl_1_1noncopyable.html" target="_top" xlink:title="stxxl::noncopyable">
<polygon fill="none" stroke="black" points="0,-93.5 0,-114.5 102,-114.5 102,-93.5 0,-93.5"/>
<text text-anchor="middle" x="51" y="-101.5" font-family="Helvetica,sans-Serif" font-size="10.00">stxxl::noncopyable</text>
</a>
</g>
<!-- Node2&#45;&gt;Node1 -->
<g id="edge2" class="edge"><title>Node2&#45;&gt;Node1</title>
<path fill="none" stroke="#8b1a1a" d="M64.0217,-85.0192C74.2382,-70.1274 88.3369,-49.5768 98.22,-35.1709"/>
<polygon fill="#8b1a1a" stroke="#8b1a1a" points="61.0056,-83.2287 58.2346,-93.4547 66.7779,-87.1887 61.0056,-83.2287"/>
</g>
<!-- Node3 -->
<g id="node4" class="node"><title>Node3</title>
<a xlink:href="classstxxl_1_1counting__ptr.html" target="_top" xlink:title="High&#45;performance smart pointer used as a wrapping reference counting pointer. ">
<polygon fill="none" stroke="black" points="119.5,-87 119.5,-121 220.5,-121 220.5,-87 119.5,-87"/>
<text text-anchor="start" x="127.5" y="-108" font-family="Helvetica,sans-Serif" font-size="10.00">stxxl::counting_ptr</text>
<text text-anchor="middle" x="170" y="-95" font-family="Helvetica,sans-Serif" font-size="10.00">&lt; Type &gt;</text>
</a>
</g>
<!-- Node3&#45;&gt;Node1 -->
<g id="edge4" class="edge"><title>Node3&#45;&gt;Node1</title>
<path fill="none" stroke="#9a32cd" stroke-dasharray="5,2" d="M152.097,-78.3391C142.344,-64.3598 130.542,-47.4437 121.919,-35.084"/>
<polygon fill="#9a32cd" stroke="#9a32cd" points="149.266,-80.398 157.858,-86.5966 155.007,-76.3927 149.266,-80.398"/>
<text text-anchor="middle" x="169.5" y="-58.5" font-family="Helvetica,sans-Serif" font-size="10.00"> write_reqs</text>
</g>
</g>
</svg>
