<?xml version="1.0" encoding="UTF-8" standalone="no"?>
<!DOCTYPE svg PUBLIC "-//W3C//DTD SVG 1.1//EN"
 "http://www.w3.org/Graphics/SVG/1.1/DTD/svg11.dtd">
<!-- Generated by graphviz version 2.26.3 (20100126.1600)
 -->
<!-- Title: stxxl::btree::btree_iterator&lt; BTreeType &gt; Pages: 1 -->
<svg width="185pt" height="290pt"
 viewBox="0.00 0.00 185.00 290.00" xmlns="http://www.w3.org/2000/svg" xmlns:xlink="http://www.w3.org/1999/xlink">
<g id="graph1" class="graph" transform="scale(1 1) rotate(0) translate(4 286)">
<title>stxxl::btree::btree_iterator&lt; BTreeType &gt;</title>
<!-- Node1 -->
<g id="node1" class="node"><title>Node1</title>
<polygon fill="#bfbfbf" stroke="black" points="14,-1 14,-35 142,-35 142,-1 14,-1"/>
<text text-anchor="start" x="22" y="-22" font-family="Helvetica,sans-Serif" font-size="10.00">stxxl::btree::btree</text>
<text text-anchor="middle" x="78" y="-9" font-family="Helvetica,sans-Serif" font-size="10.00">_iterator&lt; BTreeType &gt;</text>
</g>
<!-- Node2 -->
<g id="node2" class="node"><title>Node2</title>
<a xlink:href="classstxxl_1_1btree_1_1btree__iterator__base.html" target="_top" xlink:title="stxxl::btree::btree\l_iterator_base\&lt; BTreeType \&gt;">
<polygon fill="none" stroke="black" points="0,-75 0,-109 156,-109 156,-75 0,-75"/>
<text text-anchor="start" x="8" y="-96" font-family="Helvetica,sans-Serif" font-size="10.00">stxxl::btree::btree</text>
<text text-anchor="middle" x="78" y="-83" font-family="Helvetica,sans-Serif" font-size="10.00">_iterator_base&lt; BTreeType &gt;</text>
</a>
</g>
<!-- Node2&#45;&gt;Node1 -->
<g id="edge2" class="edge"><title>Node2&#45;&gt;Node1</title>
<path fill="none" stroke="midnightblue" d="M78,-64.6275C78,-54.7253 78,-43.8344 78,-35.07"/>
<polygon fill="midnightblue" stroke="midnightblue" points="74.5001,-64.8369 78,-74.8369 81.5001,-64.8369 74.5001,-64.8369"/>
</g>
<!-- Node3 -->
<g id="node4" class="node"><title>Node3</title>
<a xlink:href="structstxxl_1_1choose__int__types.html" target="_top" xlink:title="stxxl::choose_int_types\l\&lt; my_pointer_size \&gt;">
<polygon fill="none" stroke="black" points="15.5,-161 15.5,-195 140.5,-195 140.5,-161 15.5,-161"/>
<text text-anchor="start" x="23.5" y="-182" font-family="Helvetica,sans-Serif" font-size="10.00">stxxl::choose_int_types</text>
<text text-anchor="middle" x="78" y="-169" font-family="Helvetica,sans-Serif" font-size="10.00">&lt; my_pointer_size &gt;</text>
</a>
</g>
<!-- Node3&#45;&gt;Node2 -->
<g id="edge4" class="edge"><title>Node3&#45;&gt;Node2</title>
<path fill="none" stroke="#9a32cd" stroke-dasharray="5,2" d="M78,-150.342C78,-136.774 78,-120.861 78,-109.084"/>
<polygon fill="#9a32cd" stroke="#9a32cd" points="74.5001,-150.597 78,-160.597 81.5001,-150.597 74.5001,-150.597"/>
<text text-anchor="middle" x="88.5" y="-132.5" font-family="Helvetica,sans-Serif" font-size="10.00"> pos</text>
</g>
<!-- Node4 -->
<g id="node6" class="node"><title>Node4</title>
<a xlink:href="structstxxl_1_1choose__int__types.html" target="_top" xlink:title="stxxl::choose_int_types\l\&lt; PtrSize \&gt;">
<polygon fill="none" stroke="black" points="15.5,-247 15.5,-281 140.5,-281 140.5,-247 15.5,-247"/>
<text text-anchor="start" x="23.5" y="-268" font-family="Helvetica,sans-Serif" font-size="10.00">stxxl::choose_int_types</text>
<text text-anchor="middle" x="78" y="-255" font-family="Helvetica,sans-Serif" font-size="10.00">&lt; PtrSize &gt;</text>
</a>
</g>
<!-- Node4&#45;&gt;Node3 -->
<g id="edge6" class="edge"><title>Node4&#45;&gt;Node3</title>
<path fill="none" stroke="orange" stroke-dasharray="5,2" d="M78,-236.342C78,-222.774 78,-206.861 78,-195.084"/>
<polygon fill="orange" stroke="orange" points="74.5001,-236.597 78,-246.597 81.5001,-236.597 74.5001,-236.597"/>
<text text-anchor="middle" x="127.5" y="-218.5" font-family="Helvetica,sans-Serif" font-size="10.00"> &lt; my_pointer_size &gt;</text>
</g>
</g>
</svg>
