<?xml version="1.0" encoding="UTF-8" standalone="no"?>
<!DOCTYPE svg PUBLIC "-//W3C//DTD SVG 1.1//EN"
 "http://www.w3.org/Graphics/SVG/1.1/DTD/svg11.dtd">
<!-- Generated by graphviz version 2.26.3 (20100126.1600)
 -->
<!-- Title: Graph Legend Pages: 1 -->
<svg width="528pt" height="174pt"
 viewBox="0.00 0.00 528.00 174.00" xmlns="http://www.w3.org/2000/svg" xmlns:xlink="http://www.w3.org/1999/xlink">
<g id="graph1" class="graph" transform="scale(1 1) rotate(0) translate(4 170)">
<title>Graph Legend</title>
<!-- Node9 -->
<g id="node1" class="node"><title>Node9</title>
<polygon fill="#bfbfbf" stroke="black" points="305,-21.5 247,-21.5 247,-0.5 305,-0.5 305,-21.5"/>
<text text-anchor="middle" x="276" y="-8.5" font-family="Helvetica,sans-Serif" font-size="10.00">Inherited</text>
</g>
<!-- Node10 -->
<g id="node2" class="node"><title>Node10</title>
<a xlink:href="$classPublicBase.html" xlink:title="PublicBase">
<polygon fill="none" stroke="black" points="68,-93.5 3.55271e-14,-93.5 0,-72.5 68,-72.5 68,-93.5"/>
<text text-anchor="middle" x="34" y="-80.5" font-family="Helvetica,sans-Serif" font-size="10.00">PublicBase</text>
</a>
</g>
<!-- Node10&#45;&gt;Node9 -->
<g id="edge2" class="edge"><title>Node10&#45;&gt;Node9</title>
<path fill="none" stroke="midnightblue" d="M77.8603,-69.9506C126.897,-55.3611 204.925,-32.1463 246.938,-19.6466"/>
<polygon fill="midnightblue" stroke="midnightblue" points="76.7461,-66.6305 68.1594,-72.8369 78.7423,-73.3398 76.7461,-66.6305"/>
</g>
<!-- Node11 -->
<g id="node4" class="node"><title>Node11</title>
<a xlink:href="$classTruncated.html" xlink:title="Truncated">
<polygon fill="none" stroke="red" points="66,-165.5 2,-165.5 2,-144.5 66,-144.5 66,-165.5"/>
<text text-anchor="middle" x="34" y="-152.5" font-family="Helvetica,sans-Serif" font-size="10.00">Truncated</text>
</a>
</g>
<!-- Node11&#45;&gt;Node10 -->
<g id="edge4" class="edge"><title>Node11&#45;&gt;Node10</title>
<path fill="none" stroke="midnightblue" d="M34,-134.235C34,-120.969 34,-104.319 34,-93.6674"/>
<polygon fill="midnightblue" stroke="midnightblue" points="30.5001,-134.376 34,-144.376 37.5001,-134.376 30.5001,-134.376"/>
</g>
<!-- Node13 -->
<g id="node6" class="node"><title>Node13</title>
<a xlink:href="$classProtectedBase.html" xlink:title="ProtectedBase">
<polygon fill="none" stroke="black" points="172,-93.5 86,-93.5 86,-72.5 172,-72.5 172,-93.5"/>
<text text-anchor="middle" x="129" y="-80.5" font-family="Helvetica,sans-Serif" font-size="10.00">ProtectedBase</text>
</a>
</g>
<!-- Node13&#45;&gt;Node9 -->
<g id="edge6" class="edge"><title>Node13&#45;&gt;Node9</title>
<path fill="none" stroke="darkgreen" d="M159.739,-67.9443C188.006,-54.099 229.212,-33.9165 254.221,-21.6674"/>
<polygon fill="darkgreen" stroke="darkgreen" points="158.131,-64.8342 150.69,-72.3762 161.211,-71.1206 158.131,-64.8342"/>
</g>
<!-- Node14 -->
<g id="node8" class="node"><title>Node14</title>
<a xlink:href="$classPrivateBase.html" xlink:title="PrivateBase">
<polygon fill="none" stroke="black" points="264,-93.5 190,-93.5 190,-72.5 264,-72.5 264,-93.5"/>
<text text-anchor="middle" x="227" y="-80.5" font-family="Helvetica,sans-Serif" font-size="10.00">PrivateBase</text>
</a>
</g>
<!-- Node14&#45;&gt;Node9 -->
<g id="edge8" class="edge"><title>Node14&#45;&gt;Node9</title>
<path fill="none" stroke="#8b1a1a" d="M240.06,-63.8099C249.247,-50.3106 261.201,-32.7449 268.74,-21.6674"/>
<polygon fill="#8b1a1a" stroke="#8b1a1a" points="236.963,-62.1398 234.23,-72.3762 242.75,-66.0782 236.963,-62.1398"/>
</g>
<!-- Node15 -->
<g id="node10" class="node"><title>Node15</title>
<polygon fill="none" stroke="#bfbfbf" points="370,-93.5 282,-93.5 282,-72.5 370,-72.5 370,-93.5"/>
<text text-anchor="middle" x="326" y="-80.5" font-family="Helvetica,sans-Serif" font-size="10.00">Undocumented</text>
</g>
<!-- Node15&#45;&gt;Node9 -->
<g id="edge10" class="edge"><title>Node15&#45;&gt;Node9</title>
<path fill="none" stroke="midnightblue" d="M312.674,-63.8099C303.299,-50.3106 291.101,-32.7449 283.408,-21.6674"/>
<polygon fill="midnightblue" stroke="midnightblue" points="310.044,-66.1588 318.622,-72.3762 315.793,-62.166 310.044,-66.1588"/>
</g>
<!-- Node16 -->
<g id="node12" class="node"><title>Node16</title>
<a xlink:href="$classTempl.html" xlink:title="Templ&lt; int &gt;">
<polygon fill="none" stroke="black" points="462,-93.5 388,-93.5 388,-72.5 462,-72.5 462,-93.5"/>
<text text-anchor="middle" x="425" y="-80.5" font-family="Helvetica,sans-Serif" font-size="10.00">Templ&lt; int &gt;</text>
</a>
</g>
<!-- Node16&#45;&gt;Node9 -->
<g id="edge12" class="edge"><title>Node16&#45;&gt;Node9</title>
<path fill="none" stroke="midnightblue" d="M393.843,-67.9443C365.191,-54.099 323.424,-33.9165 298.076,-21.6674"/>
<polygon fill="midnightblue" stroke="midnightblue" points="392.488,-71.1766 403.015,-72.3762 395.533,-64.8739 392.488,-71.1766"/>
</g>
<!-- Node17 -->
<g id="node14" class="node"><title>Node17</title>
<a xlink:href="$classTempl.html" xlink:title="Templ&lt; T &gt;">
<polygon fill="none" stroke="black" points="460,-165.5 390,-165.5 390,-144.5 460,-144.5 460,-165.5"/>
<text text-anchor="middle" x="425" y="-152.5" font-family="Helvetica,sans-Serif" font-size="10.00">Templ&lt; T &gt;</text>
</a>
</g>
<!-- Node17&#45;&gt;Node16 -->
<g id="edge14" class="edge"><title>Node17&#45;&gt;Node16</title>
<path fill="none" stroke="orange" stroke-dasharray="5,2" d="M425,-134.235C425,-120.969 425,-104.319 425,-93.6674"/>
<polygon fill="orange" stroke="orange" points="421.5,-134.376 425,-144.376 428.5,-134.376 421.5,-134.376"/>
<text text-anchor="middle" x="440" y="-116.5" font-family="Helvetica,sans-Serif" font-size="10.00">&lt; int &gt;</text>
</g>
<!-- Node18 -->
<g id="node16" class="node"><title>Node18</title>
<a xlink:href="$classUsed.html" xlink:title="Used">
<polygon fill="none" stroke="black" points="520,-93.5 480,-93.5 480,-72.5 520,-72.5 520,-93.5"/>
<text text-anchor="middle" x="500" y="-80.5" font-family="Helvetica,sans-Serif" font-size="10.00">Used</text>
</a>
</g>
<!-- Node18&#45;&gt;Node9 -->
<g id="edge16" class="edge"><title>Node18&#45;&gt;Node9</title>
<path fill="none" stroke="#9a32cd" stroke-dasharray="5,2" d="M469.934,-71.7548C405.99,-49.8114 341.675,-30.3461 305.249,-19.5589"/>
<polygon fill="#9a32cd" stroke="#9a32cd" points="469.18,-75.1972 479.774,-75.1529 471.464,-68.5806 469.18,-75.1972"/>
<text text-anchor="middle" x="444" y="-44.5" font-family="Helvetica,sans-Serif" font-size="10.00">m_usedClass</text>
</g>
</g>
</svg>
