<?xml version="1.0" encoding="UTF-8" standalone="no"?>
<!DOCTYPE svg PUBLIC "-//W3C//DTD SVG 1.1//EN"
 "http://www.w3.org/Graphics/SVG/1.1/DTD/svg11.dtd">
<!-- Generated by graphviz version 2.26.3 (20100126.1600)
 -->
<!-- Title: Containers Pages: 1 -->
<svg width="298pt" height="150pt"
 viewBox="0.00 0.00 298.00 150.00" xmlns="http://www.w3.org/2000/svg" xmlns:xlink="http://www.w3.org/1999/xlink">
<g id="graph1" class="graph" transform="scale(1 1) rotate(0) translate(4 146)">
<title>Containers</title>
<!-- Node0 -->
<g id="node1" class="node"><title>Node0</title>
<polygon fill="#bfbfbf" stroke="black" points="128,-60.5 128,-81.5 196,-81.5 196,-60.5 128,-60.5"/>
<text text-anchor="middle" x="162" y="-68.5" font-family="Helvetica,sans-Serif" font-size="10.00">Containers</text>
</g>
<!-- Node2 -->
<g id="node2" class="node"><title>Node2</title>
<a xlink:href="group__matrix.html" target="_top" xlink:title="Efficient external memory matrix operations. ">
<polygon fill="none" stroke="black" points="238.5,-120.5 238.5,-141.5 283.5,-141.5 283.5,-120.5 238.5,-120.5"/>
<text text-anchor="middle" x="261" y="-128.5" font-family="Helvetica,sans-Serif" font-size="10.00">matrix</text>
</a>
</g>
<!-- Node0&#45;&gt;Node2 -->
<g id="edge4" class="edge"><title>Node0&#45;&gt;Node2</title>
<path fill="none" stroke="midnightblue" d="M188.304,-86.942C205.747,-97.5136 228.156,-111.095 243.454,-120.366"/>
<polygon fill="midnightblue" stroke="midnightblue" points="190.065,-83.9167 179.699,-81.7268 186.437,-89.9031 190.065,-83.9167"/>
</g>
<!-- Node4 -->
<g id="node3" class="node"><title>Node4</title>
<a xlink:href="group__stlcont__stack.html" target="_top" xlink:title="External stack implementations. ">
<polygon fill="none" stroke="black" points="240.5,-80.5 240.5,-101.5 281.5,-101.5 281.5,-80.5 240.5,-80.5"/>
<text text-anchor="middle" x="261" y="-88.5" font-family="Helvetica,sans-Serif" font-size="10.00">stack</text>
</a>
</g>
<!-- Node0&#45;&gt;Node4 -->
<g id="edge8" class="edge"><title>Node0&#45;&gt;Node4</title>
<path fill="none" stroke="midnightblue" d="M205.99,-79.8868C217.996,-82.3123 230.44,-84.8263 240.45,-86.8484"/>
<polygon fill="midnightblue" stroke="midnightblue" points="206.565,-76.4324 196.07,-77.8829 205.179,-83.2938 206.565,-76.4324"/>
</g>
<!-- Node5 -->
<g id="node5" class="node"><title>Node5</title>
<a xlink:href="group__stlcont__vector.html" target="_top" xlink:title="Vector and support classes. ">
<polygon fill="none" stroke="black" points="238,-40.5 238,-61.5 284,-61.5 284,-40.5 238,-40.5"/>
<text text-anchor="middle" x="261" y="-48.5" font-family="Helvetica,sans-Serif" font-size="10.00">vector</text>
</a>
</g>
<!-- Node0&#45;&gt;Node5 -->
<g id="edge10" class="edge"><title>Node0&#45;&gt;Node5</title>
<path fill="none" stroke="midnightblue" d="M205.973,-62.1165C216.937,-59.9017 228.267,-57.6128 237.775,-55.6919"/>
<polygon fill="midnightblue" stroke="midnightblue" points="205.179,-58.7062 196.07,-64.1171 206.565,-65.5676 205.179,-58.7062"/>
</g>
<!-- Node3 -->
<g id="node6" class="node"><title>Node3</title>
<a xlink:href="group__stlcontinternals.html" target="_top" xlink:title="Supporting internal classes. ">
<polygon fill="none" stroke="black" points="232.5,-0.5 232.5,-21.5 289.5,-21.5 289.5,-0.5 232.5,-0.5"/>
<text text-anchor="middle" x="261" y="-8.5" font-family="Helvetica,sans-Serif" font-size="10.00">internals</text>
</a>
</g>
<!-- Node0&#45;&gt;Node3 -->
<g id="edge6" class="edge"><title>Node0&#45;&gt;Node3</title>
<path fill="none" stroke="midnightblue" d="M188.304,-55.058C205.747,-44.4864 228.156,-30.9053 243.454,-21.6339"/>
<polygon fill="midnightblue" stroke="midnightblue" points="186.437,-52.0969 179.699,-60.2732 190.065,-58.0833 186.437,-52.0969"/>
</g>
<!-- Node1 -->
<g id="node4" class="node"><title>Node1</title>
<a xlink:href="group__stllayer.html" target="_top" xlink:title="Layer which groups STL compatible algorithms and containers. ">
<polygon fill="none" stroke="black" points="0,-60.5 0,-81.5 92,-81.5 92,-60.5 0,-60.5"/>
<text text-anchor="middle" x="46" y="-68.5" font-family="Helvetica,sans-Serif" font-size="10.00">STL&#45;User Layer</text>
</a>
</g>
<!-- Node1&#45;&gt;Node0 -->
<g id="edge2" class="edge"><title>Node1&#45;&gt;Node0</title>
<path fill="none" stroke="midnightblue" d="M102.319,-71C111.015,-71 119.763,-71 127.777,-71"/>
<polygon fill="midnightblue" stroke="midnightblue" points="102.18,-67.5001 92.1796,-71 102.18,-74.5001 102.18,-67.5001"/>
</g>
</g>
</svg>
