<?xml version="1.0" encoding="UTF-8" standalone="no"?>
<!DOCTYPE svg PUBLIC "-//W3C//DTD SVG 1.1//EN"
 "http://www.w3.org/Graphics/SVG/1.1/DTD/svg11.dtd">
<!-- Generated by graphviz version 2.26.3 (20100126.1600)
 -->
<!-- Title: STL&#45;User Layer Pages: 1 -->
<svg width="204pt" height="70pt"
 viewBox="0.00 0.00 204.00 70.00" xmlns="http://www.w3.org/2000/svg" xmlns:xlink="http://www.w3.org/1999/xlink">
<g id="graph1" class="graph" transform="scale(1 1) rotate(0) translate(4 66)">
<title>STL&#45;User Layer</title>
<!-- Node2 -->
<g id="node1" class="node"><title>Node2</title>
<a xlink:href="group__stlcont.html" target="_top" xlink:title="Containers with STL&#45;compatible interface. ">
<polygon fill="none" stroke="black" points="128,-40.5 128,-61.5 196,-61.5 196,-40.5 128,-40.5"/>
<text text-anchor="middle" x="162" y="-48.5" font-family="Helvetica,sans-Serif" font-size="10.00">Containers</text>
</a>
</g>
<!-- Node1 -->
<g id="node2" class="node"><title>Node1</title>
<a xlink:href="group__stlalgo.html" target="_top" xlink:title="Algorithms with STL&#45;compatible interface. ">
<polygon fill="none" stroke="black" points="129,-0.5 129,-21.5 195,-21.5 195,-0.5 129,-0.5"/>
<text text-anchor="middle" x="162" y="-8.5" font-family="Helvetica,sans-Serif" font-size="10.00">Algorithms</text>
</a>
</g>
<!-- Node0 -->
<g id="node3" class="node"><title>Node0</title>
<polygon fill="#bfbfbf" stroke="black" points="0,-20.5 0,-41.5 92,-41.5 92,-20.5 0,-20.5"/>
<text text-anchor="middle" x="46" y="-28.5" font-family="Helvetica,sans-Serif" font-size="10.00">STL&#45;User Layer</text>
</g>
<!-- Node0&#45;&gt;Node2 -->
<g id="edge4" class="edge"><title>Node0&#45;&gt;Node2</title>
<path fill="none" stroke="midnightblue" d="M102.035,-40.6612C110.825,-42.1767 119.675,-43.7027 127.777,-45.0995"/>
<polygon fill="midnightblue" stroke="midnightblue" points="102.629,-37.212 92.1796,-38.962 101.439,-44.1103 102.629,-37.212"/>
</g>
<!-- Node0&#45;&gt;Node1 -->
<g id="edge2" class="edge"><title>Node0&#45;&gt;Node1</title>
<path fill="none" stroke="midnightblue" d="M102.059,-21.3346C111.227,-19.7539 120.46,-18.162 128.84,-16.7172"/>
<polygon fill="midnightblue" stroke="midnightblue" points="101.439,-17.8897 92.1796,-23.038 102.629,-24.788 101.439,-17.8897"/>
</g>
</g>
</svg>
