<?xml version="1.0" encoding="UTF-8" standalone="no"?>
<!DOCTYPE svg PUBLIC "-//W3C//DTD SVG 1.1//EN"
 "http://www.w3.org/Graphics/SVG/1.1/DTD/svg11.dtd">
<!-- Generated by graphviz version 2.26.3 (20100126.1600)
 -->
<!-- Title: Block Management Layer Pages: 1 -->
<svg width="322pt" height="110pt"
 viewBox="0.00 0.00 322.00 110.00" xmlns="http://www.w3.org/2000/svg" xmlns:xlink="http://www.w3.org/1999/xlink">
<g id="graph1" class="graph" transform="scale(1 1) rotate(0) translate(4 106)">
<title>Block Management Layer</title>
<!-- Node3 -->
<g id="node1" class="node"><title>Node3</title>
<a xlink:href="group__mnglayer__internals.html" target="_top" xlink:title="Internals and support classes. ">
<polygon fill="none" stroke="black" points="215,-80.5 215,-101.5 273,-101.5 273,-80.5 215,-80.5"/>
<text text-anchor="middle" x="244" y="-88.5" font-family="Helvetica,sans-Serif" font-size="10.00">Internals</text>
</a>
</g>
<!-- Node2 -->
<g id="node2" class="node"><title>Node2</title>
<a xlink:href="group__schedlayer.html" target="_top" xlink:title="Group of classes which help in scheduling sequences of read and write requests via prefetching and bu...">
<polygon fill="none" stroke="black" points="174,-40.5 174,-61.5 314,-61.5 314,-40.5 174,-40.5"/>
<text text-anchor="middle" x="244" y="-48.5" font-family="Helvetica,sans-Serif" font-size="10.00">Block Scheduling Sublayer</text>
</a>
</g>
<!-- Node0 -->
<g id="node3" class="node"><title>Node0</title>
<polygon fill="#bfbfbf" stroke="black" points="0.5,-40.5 0.5,-61.5 137.5,-61.5 137.5,-40.5 0.5,-40.5"/>
<text text-anchor="middle" x="69" y="-48.5" font-family="Helvetica,sans-Serif" font-size="10.00">Block Management Layer</text>
</g>
<!-- Node0&#45;&gt;Node3 -->
<g id="edge6" class="edge"><title>Node0&#45;&gt;Node3</title>
<path fill="none" stroke="midnightblue" d="M124.873,-63.7709C154.761,-70.6024 190.337,-78.7342 214.783,-84.3218"/>
<polygon fill="midnightblue" stroke="midnightblue" points="125.508,-60.3258 114.979,-61.5095 123.948,-67.1499 125.508,-60.3258"/>
</g>
<!-- Node0&#45;&gt;Node2 -->
<g id="edge4" class="edge"><title>Node0&#45;&gt;Node2</title>
<path fill="none" stroke="midnightblue" d="M147.775,-51C156.453,-51 165.247,-51 173.809,-51"/>
<polygon fill="midnightblue" stroke="midnightblue" points="147.662,-47.5001 137.662,-51 147.662,-54.5001 147.662,-47.5001"/>
</g>
<!-- Node1 -->
<g id="node4" class="node"><title>Node1</title>
<a xlink:href="group__alloc.html" target="_top" xlink:title="Standard allocation strategies encapsulated in functors. ">
<polygon fill="none" stroke="black" points="191,-0.5 191,-21.5 297,-21.5 297,-0.5 191,-0.5"/>
<text text-anchor="middle" x="244" y="-8.5" font-family="Helvetica,sans-Serif" font-size="10.00">Allocation Functors</text>
</a>
</g>
<!-- Node0&#45;&gt;Node1 -->
<g id="edge2" class="edge"><title>Node0&#45;&gt;Node1</title>
<path fill="none" stroke="midnightblue" d="M124.853,-38.2337C148.454,-32.839 175.607,-26.6328 198.024,-21.5087"/>
<polygon fill="midnightblue" stroke="midnightblue" points="123.948,-34.8501 114.979,-40.4905 125.508,-41.6742 123.948,-34.8501"/>
</g>
</g>
</svg>
