<?xml version="1.0" encoding="UTF-8" standalone="no"?>
<!DOCTYPE svg PUBLIC "-//W3C//DTD SVG 1.1//EN"
 "http://www.w3.org/Graphics/SVG/1.1/DTD/svg11.dtd">
<!-- Generated by graphviz version 2.26.3 (20100126.1600)
 -->
<!-- Title: I/O Primitives Layer Pages: 1 -->
<svg width="292pt" height="70pt"
 viewBox="0.00 0.00 292.00 70.00" xmlns="http://www.w3.org/2000/svg" xmlns:xlink="http://www.w3.org/1999/xlink">
<g id="graph1" class="graph" transform="scale(1 1) rotate(0) translate(4 66)">
<title>I/O Primitives Layer</title>
<!-- Node2 -->
<g id="node1" class="node"><title>Node2</title>
<a xlink:href="group__reqlayer.html" target="_top" xlink:title="Encapsulation of an I/O request, queues for requests and threads to process them. ...">
<polygon fill="none" stroke="black" points="146,-40.5 146,-61.5 284,-61.5 284,-40.5 146,-40.5"/>
<text text-anchor="middle" x="215" y="-48.5" font-family="Helvetica,sans-Serif" font-size="10.00">I/O Requests and Queues</text>
</a>
</g>
<!-- Node1 -->
<g id="node2" class="node"><title>Node1</title>
<a xlink:href="group__fileimpl.html" target="_top" xlink:title="Implementations of stxxl::file for various file access methods and operating systems. ">
<polygon fill="none" stroke="black" points="149.5,-0.5 149.5,-21.5 280.5,-21.5 280.5,-0.5 149.5,-0.5"/>
<text text-anchor="middle" x="215" y="-8.5" font-family="Helvetica,sans-Serif" font-size="10.00">File I/O Implementations</text>
</a>
</g>
<!-- Node0 -->
<g id="node3" class="node"><title>Node0</title>
<polygon fill="#bfbfbf" stroke="black" points="0.5,-20.5 0.5,-41.5 109.5,-41.5 109.5,-20.5 0.5,-20.5"/>
<text text-anchor="middle" x="55" y="-28.5" font-family="Helvetica,sans-Serif" font-size="10.00">I/O Primitives Layer</text>
</g>
<!-- Node0&#45;&gt;Node2 -->
<g id="edge4" class="edge"><title>Node0&#45;&gt;Node2</title>
<path fill="none" stroke="midnightblue" d="M119.634,-39.0793C128.288,-40.1611 137.192,-41.274 145.918,-42.3648"/>
<polygon fill="midnightblue" stroke="midnightblue" points="119.972,-35.5944 109.615,-37.8269 119.104,-42.5403 119.972,-35.5944"/>
</g>
<!-- Node0&#45;&gt;Node1 -->
<g id="edge2" class="edge"><title>Node0&#45;&gt;Node1</title>
<path fill="none" stroke="midnightblue" d="M119.654,-22.9182C129.422,-21.6972 139.507,-20.4366 149.297,-19.2129"/>
<polygon fill="midnightblue" stroke="midnightblue" points="119.104,-19.4597 109.615,-24.1731 119.972,-26.4056 119.104,-19.4597"/>
</g>
</g>
</svg>
