<?xml version="1.0" encoding="UTF-8" standalone="no"?>
<!DOCTYPE svg PUBLIC "-//W3C//DTD SVG 1.1//EN"
 "http://www.w3.org/Graphics/SVG/1.1/DTD/svg11.dtd">
<!-- Generated by graphviz version 2.26.3 (20100126.1600)
 -->
<!-- Title: stxxl::btree::normal_leaf&lt; KeyType, DataType, KeyCmp, LogNElem, BTreeType &gt;::metainfo_type Pages: 1 -->
<svg width="360pt" height="570pt"
 viewBox="0.00 0.00 360.00 570.00" xmlns="http://www.w3.org/2000/svg" xmlns:xlink="http://www.w3.org/1999/xlink">
<g id="graph1" class="graph" transform="scale(1 1) rotate(0) translate(4 566)">
<title>stxxl::btree::normal_leaf&lt; KeyType, DataType, KeyCmp, LogNElem, BTreeType &gt;::metainfo_type</title>
<!-- Node1 -->
<g id="node1" class="node"><title>Node1</title>
<polygon fill="#bfbfbf" stroke="black" points="0,-1 0,-61 172,-61 172,-1 0,-1"/>
<text text-anchor="start" x="8" y="-48" font-family="Helvetica,sans-Serif" font-size="10.00">stxxl::btree::normal</text>
<text text-anchor="start" x="8" y="-35" font-family="Helvetica,sans-Serif" font-size="10.00">_leaf&lt; KeyType, DataType,</text>
<text text-anchor="start" x="8" y="-22" font-family="Helvetica,sans-Serif" font-size="10.00"> KeyCmp, LogNElem, BTreeType</text>
<text text-anchor="middle" x="86" y="-9" font-family="Helvetica,sans-Serif" font-size="10.00"> &gt;::metainfo_type</text>
</g>
<!-- Node2 -->
<g id="node2" class="node"><title>Node2</title>
<a xlink:href="structstxxl_1_1BID.html" target="_top" xlink:title="stxxl::BID\&lt; raw_size \&gt;">
<polygon fill="none" stroke="black" points="26.5,-138.5 26.5,-159.5 145.5,-159.5 145.5,-138.5 26.5,-138.5"/>
<text text-anchor="middle" x="86" y="-146.5" font-family="Helvetica,sans-Serif" font-size="10.00">stxxl::BID&lt; raw_size &gt;</text>
</a>
</g>
<!-- Node2&#45;&gt;Node1 -->
<g id="edge2" class="edge"><title>Node2&#45;&gt;Node1</title>
<path fill="none" stroke="#9a32cd" stroke-dasharray="5,2" d="M86,-128.043C86,-109.436 86,-82.0286 86,-61.0817"/>
<polygon fill="#9a32cd" stroke="#9a32cd" points="82.5001,-128.11 86,-138.11 89.5001,-128.11 82.5001,-128.11"/>
<text text-anchor="middle" x="98.5" y="-110.5" font-family="Helvetica,sans-Serif" font-size="10.00"> pred</text>
<text text-anchor="middle" x="98.5" y="-97.5" font-family="Helvetica,sans-Serif" font-size="10.00">succ</text>
<text text-anchor="middle" x="98.5" y="-84.5" font-family="Helvetica,sans-Serif" font-size="10.00">me</text>
</g>
<!-- Node3 -->
<g id="node4" class="node"><title>Node3</title>
<a xlink:href="classstxxl_1_1file.html" target="_top" xlink:title="Defines interface of file. ">
<polygon fill="none" stroke="black" points="39,-282.5 39,-303.5 95,-303.5 95,-282.5 39,-282.5"/>
<text text-anchor="middle" x="67" y="-290.5" font-family="Helvetica,sans-Serif" font-size="10.00">stxxl::file</text>
</a>
</g>
<!-- Node3&#45;&gt;Node2 -->
<g id="edge4" class="edge"><title>Node3&#45;&gt;Node2</title>
<path fill="none" stroke="#9a32cd" stroke-dasharray="5,2" d="M62.059,-272.507C58.7457,-255.591 55.7037,-231.037 60,-210 63.7778,-191.502 73.3857,-171.67 79.8035,-159.805"/>
<polygon fill="#9a32cd" stroke="#9a32cd" points="58.6651,-273.372 64.201,-282.406 65.5068,-271.892 58.6651,-273.372"/>
<text text-anchor="middle" x="80" y="-218.5" font-family="Helvetica,sans-Serif" font-size="10.00"> storage</text>
</g>
<!-- Node9 -->
<g id="node17" class="node"><title>Node9</title>
<a xlink:href="structstxxl_1_1BID.html" target="_top" xlink:title="Block identifier class. ">
<polygon fill="none" stroke="black" points="109,-210.5 109,-231.5 207,-231.5 207,-210.5 109,-210.5"/>
<text text-anchor="middle" x="158" y="-218.5" font-family="Helvetica,sans-Serif" font-size="10.00">stxxl::BID&lt; Size &gt;</text>
</a>
</g>
<!-- Node3&#45;&gt;Node9 -->
<g id="edge20" class="edge"><title>Node3&#45;&gt;Node9</title>
<path fill="none" stroke="#9a32cd" stroke-dasharray="5,2" d="M88.3551,-276.104C105.727,-262.359 129.709,-243.384 144.518,-231.667"/>
<polygon fill="#9a32cd" stroke="#9a32cd" points="86.0979,-273.427 80.4274,-282.376 90.4413,-278.916 86.0979,-273.427"/>
<text text-anchor="middle" x="141" y="-254.5" font-family="Helvetica,sans-Serif" font-size="10.00"> storage</text>
</g>
<!-- Node4 -->
<g id="node6" class="node"><title>Node4</title>
<a xlink:href="classstxxl_1_1noncopyable.html" target="_top" xlink:title="stxxl::noncopyable">
<polygon fill="none" stroke="black" points="9,-533.5 9,-554.5 111,-554.5 111,-533.5 9,-533.5"/>
<text text-anchor="middle" x="60" y="-541.5" font-family="Helvetica,sans-Serif" font-size="10.00">stxxl::noncopyable</text>
</a>
</g>
<!-- Node4&#45;&gt;Node3 -->
<g id="edge6" class="edge"><title>Node4&#45;&gt;Node3</title>
<path fill="none" stroke="#8b1a1a" d="M58.3318,-522.856C55.8594,-487.728 52.0208,-415.152 57,-354 58.4457,-336.244 62.2212,-315.867 64.6972,-303.733"/>
<polygon fill="#8b1a1a" stroke="#8b1a1a" points="54.8735,-523.549 59.1032,-533.263 61.8543,-523.032 54.8735,-523.549"/>
</g>
<!-- Node6 -->
<g id="node10" class="node"><title>Node6</title>
<a xlink:href="classstxxl_1_1mutex.html" target="_top" xlink:title="stxxl::mutex">
<polygon fill="none" stroke="black" points="66,-447.5 66,-468.5 136,-468.5 136,-447.5 66,-447.5"/>
<text text-anchor="middle" x="101" y="-455.5" font-family="Helvetica,sans-Serif" font-size="10.00">stxxl::mutex</text>
</a>
</g>
<!-- Node4&#45;&gt;Node6 -->
<g id="edge12" class="edge"><title>Node4&#45;&gt;Node6</title>
<path fill="none" stroke="#8b1a1a" d="M69.4235,-524.234C77.6694,-506.937 89.3324,-482.474 95.9315,-468.632"/>
<polygon fill="#8b1a1a" stroke="#8b1a1a" points="66.1715,-522.922 65.0274,-533.455 72.4902,-525.934 66.1715,-522.922"/>
</g>
<!-- Node5 -->
<g id="node8" class="node"><title>Node5</title>
<a xlink:href="classstxxl_1_1atomic__counted__object.html" target="_top" xlink:title="Provides reference counting abilities for use with counting_ptr with mutex locking. ">
<polygon fill="none" stroke="black" points="66,-355 66,-389 182,-389 182,-355 66,-355"/>
<text text-anchor="start" x="74" y="-376" font-family="Helvetica,sans-Serif" font-size="10.00">stxxl::atomic_counted</text>
<text text-anchor="middle" x="124" y="-363" font-family="Helvetica,sans-Serif" font-size="10.00">_object</text>
</a>
</g>
<!-- Node5&#45;&gt;Node3 -->
<g id="edge8" class="edge"><title>Node5&#45;&gt;Node3</title>
<path fill="none" stroke="#9a32cd" stroke-dasharray="5,2" d="M105.736,-346.686C95.2112,-332.1 82.5393,-314.537 74.6244,-303.567"/>
<polygon fill="#9a32cd" stroke="#9a32cd" points="102.942,-348.797 111.632,-354.858 108.619,-344.701 102.942,-348.797"/>
<text text-anchor="middle" x="134" y="-326.5" font-family="Helvetica,sans-Serif" font-size="10.00"> m_request_ref</text>
</g>
<!-- Node6&#45;&gt;Node5 -->
<g id="edge10" class="edge"><title>Node6&#45;&gt;Node5</title>
<path fill="none" stroke="#9a32cd" stroke-dasharray="5,2" d="M99.0069,-437.277C98.7373,-428.134 99.2648,-417.361 102,-408 103.931,-401.391 107.41,-394.782 111.04,-389.064"/>
<polygon fill="#9a32cd" stroke="#9a32cd" points="95.5234,-437.653 99.636,-447.417 102.51,-437.219 95.5234,-437.653"/>
<text text-anchor="middle" x="166.5" y="-412.5" font-family="Helvetica,sans-Serif" font-size="10.00"> m_reference_count_mutex</text>
</g>
<!-- Node7 -->
<g id="node13" class="node"><title>Node7</title>
<a xlink:href="structstxxl_1_1choose__int__types.html" target="_top" xlink:title="stxxl::choose_int_types\l\&lt; my_pointer_size \&gt;">
<polygon fill="none" stroke="black" points="190.5,-441 190.5,-475 315.5,-475 315.5,-441 190.5,-441"/>
<text text-anchor="start" x="198.5" y="-462" font-family="Helvetica,sans-Serif" font-size="10.00">stxxl::choose_int_types</text>
<text text-anchor="middle" x="253" y="-449" font-family="Helvetica,sans-Serif" font-size="10.00">&lt; my_pointer_size &gt;</text>
</a>
</g>
<!-- Node7&#45;&gt;Node5 -->
<g id="edge14" class="edge"><title>Node7&#45;&gt;Node5</title>
<path fill="none" stroke="#9a32cd" stroke-dasharray="5,2" d="M245.869,-431.099C242.526,-422.764 237.743,-414.162 231,-408 217.472,-395.638 199.553,-387.503 182.254,-382.158"/>
<polygon fill="#9a32cd" stroke="#9a32cd" points="242.58,-432.297 249.164,-440.598 249.194,-430.003 242.58,-432.297"/>
<text text-anchor="middle" x="287.5" y="-412.5" font-family="Helvetica,sans-Serif" font-size="10.00"> m_reference_count</text>
</g>
<!-- Node8 -->
<g id="node15" class="node"><title>Node8</title>
<a xlink:href="structstxxl_1_1choose__int__types.html" target="_top" xlink:title="stxxl::choose_int_types\l\&lt; PtrSize \&gt;">
<polygon fill="none" stroke="black" points="190.5,-527 190.5,-561 315.5,-561 315.5,-527 190.5,-527"/>
<text text-anchor="start" x="198.5" y="-548" font-family="Helvetica,sans-Serif" font-size="10.00">stxxl::choose_int_types</text>
<text text-anchor="middle" x="253" y="-535" font-family="Helvetica,sans-Serif" font-size="10.00">&lt; PtrSize &gt;</text>
</a>
</g>
<!-- Node8&#45;&gt;Node7 -->
<g id="edge16" class="edge"><title>Node8&#45;&gt;Node7</title>
<path fill="none" stroke="orange" stroke-dasharray="5,2" d="M253,-516.342C253,-502.774 253,-486.861 253,-475.084"/>
<polygon fill="orange" stroke="orange" points="249.5,-516.597 253,-526.597 256.5,-516.597 249.5,-516.597"/>
<text text-anchor="middle" x="302.5" y="-498.5" font-family="Helvetica,sans-Serif" font-size="10.00"> &lt; my_pointer_size &gt;</text>
</g>
<!-- Node9&#45;&gt;Node2 -->
<g id="edge18" class="edge"><title>Node9&#45;&gt;Node2</title>
<path fill="none" stroke="orange" stroke-dasharray="5,2" d="M139.968,-202.968C126.329,-189.329 108.064,-171.064 96.6674,-159.667"/>
<polygon fill="orange" stroke="orange" points="137.83,-205.78 147.376,-210.376 142.78,-200.83 137.83,-205.78"/>
<text text-anchor="middle" x="161" y="-182.5" font-family="Helvetica,sans-Serif" font-size="10.00"> &lt; raw_size &gt;</text>
</g>
</g>
</svg>
