<?xml version="1.0" encoding="UTF-8" standalone="no"?>
<!DOCTYPE svg PUBLIC "-//W3C//DTD SVG 1.1//EN"
 "http://www.w3.org/Graphics/SVG/1.1/DTD/svg11.dtd">
<!-- Generated by graphviz version 2.26.3 (20100126.1600)
 -->
<!-- Title: stxxl::matrix_local::matrix_operations&lt; ValueType, BlockSideLength &gt;::swappable_block_matrix_quarterer Pages: 1 -->
<svg width="1940pt" height="374pt"
 viewBox="0.00 0.00 1940.00 374.00" xmlns="http://www.w3.org/2000/svg" xmlns:xlink="http://www.w3.org/1999/xlink">
<g id="graph1" class="graph" transform="scale(1 1) rotate(0) translate(4 370)">
<title>stxxl::matrix_local::matrix_operations&lt; ValueType, BlockSideLength &gt;::swappable_block_matrix_quarterer</title>
<!-- Node1 -->
<g id="node1" class="node"><title>Node1</title>
<polygon fill="#bfbfbf" stroke="black" points="1770.5,-222.5 1770.5,-295.5 1931.5,-295.5 1931.5,-222.5 1770.5,-222.5"/>
<text text-anchor="start" x="1778.5" y="-282.5" font-family="Helvetica,sans-Serif" font-size="10.00">stxxl::matrix_local</text>
<text text-anchor="start" x="1778.5" y="-269.5" font-family="Helvetica,sans-Serif" font-size="10.00">::matrix_operations</text>
<text text-anchor="start" x="1778.5" y="-256.5" font-family="Helvetica,sans-Serif" font-size="10.00">&lt; ValueType, BlockSideLength</text>
<text text-anchor="start" x="1778.5" y="-243.5" font-family="Helvetica,sans-Serif" font-size="10.00"> &gt;::swappable_block_matrix</text>
<text text-anchor="middle" x="1851" y="-230.5" font-family="Helvetica,sans-Serif" font-size="10.00">_quarterer</text>
</g>
<!-- Node2 -->
<g id="node2" class="node"><title>Node2</title>
<a xlink:href="classstxxl_1_1swappable__block__matrix.html" target="_top" xlink:title="External container for a (sub)matrix. Not intended for direct use. ">
<polygon fill="none" stroke="black" points="1560,-235.5 1560,-282.5 1722,-282.5 1722,-235.5 1560,-235.5"/>
<text text-anchor="start" x="1568" y="-269.5" font-family="Helvetica,sans-Serif" font-size="10.00">stxxl::swappable_block</text>
<text text-anchor="start" x="1568" y="-256.5" font-family="Helvetica,sans-Serif" font-size="10.00">_matrix&lt; ValueType, BlockSide</text>
<text text-anchor="middle" x="1641" y="-243.5" font-family="Helvetica,sans-Serif" font-size="10.00">Length &gt;</text>
</a>
</g>
<!-- Node2&#45;&gt;Node1 -->
<g id="edge2" class="edge"><title>Node2&#45;&gt;Node1</title>
<path fill="none" stroke="#9a32cd" stroke-dasharray="5,2" d="M1732.28,-259C1744.96,-259 1757.91,-259 1770.37,-259"/>
<polygon fill="#9a32cd" stroke="#9a32cd" points="1732.19,-255.5 1722.19,-259 1732.19,-262.5 1732.19,-255.5"/>
<text text-anchor="middle" x="1746" y="-302" font-family="Helvetica,sans-Serif" font-size="10.00"> dl</text>
<text text-anchor="middle" x="1746" y="-289" font-family="Helvetica,sans-Serif" font-size="10.00">ul</text>
<text text-anchor="middle" x="1746" y="-276" font-family="Helvetica,sans-Serif" font-size="10.00">dr</text>
<text text-anchor="middle" x="1746" y="-263" font-family="Helvetica,sans-Serif" font-size="10.00">ur</text>
</g>
<!-- Node3 -->
<g id="node4" class="node"><title>Node3</title>
<a xlink:href="classstxxl_1_1atomic__counted__object.html" target="_top" xlink:title="Provides reference counting abilities for use with counting_ptr with mutex locking. ">
<polygon fill="none" stroke="black" points="579,-228 579,-262 695,-262 695,-228 579,-228"/>
<text text-anchor="start" x="587" y="-249" font-family="Helvetica,sans-Serif" font-size="10.00">stxxl::atomic_counted</text>
<text text-anchor="middle" x="637" y="-236" font-family="Helvetica,sans-Serif" font-size="10.00">_object</text>
</a>
</g>
<!-- Node3&#45;&gt;Node2 -->
<g id="edge4" class="edge"><title>Node3&#45;&gt;Node2</title>
<path fill="none" stroke="midnightblue" d="M705.282,-241.349C742.693,-239.651 789.888,-238 832,-238 832,-238 832,-238 1442,-238 1480.91,-238 1523.86,-242.02 1559.87,-246.542"/>
<polygon fill="midnightblue" stroke="midnightblue" points="704.828,-237.866 695.002,-241.828 705.154,-244.858 704.828,-237.866"/>
</g>
<!-- Node12 -->
<g id="node25" class="node"><title>Node12</title>
<a xlink:href="classstxxl_1_1file.html" target="_top" xlink:title="Defines interface of file. ">
<polygon fill="none" stroke="black" points="804,-128.5 804,-149.5 860,-149.5 860,-128.5 804,-128.5"/>
<text text-anchor="middle" x="832" y="-136.5" font-family="Helvetica,sans-Serif" font-size="10.00">stxxl::file</text>
</a>
</g>
<!-- Node3&#45;&gt;Node12 -->
<g id="edge32" class="edge"><title>Node3&#45;&gt;Node12</title>
<path fill="none" stroke="#9a32cd" stroke-dasharray="5,2" d="M655.062,-219.419C669.1,-201.464 690.153,-178.36 714,-165 742,-149.312 778.68,-143.089 803.664,-140.621"/>
<polygon fill="#9a32cd" stroke="#9a32cd" points="651.998,-217.668 648.753,-227.754 657.579,-221.893 651.998,-217.668"/>
<text text-anchor="middle" x="750" y="-169" font-family="Helvetica,sans-Serif" font-size="10.00"> m_request_ref</text>
</g>
<!-- Node4 -->
<g id="node6" class="node"><title>Node4</title>
<a xlink:href="classstxxl_1_1mutex.html" target="_top" xlink:title="stxxl::mutex">
<polygon fill="none" stroke="black" points="302,-189.5 302,-210.5 372,-210.5 372,-189.5 302,-189.5"/>
<text text-anchor="middle" x="337" y="-197.5" font-family="Helvetica,sans-Serif" font-size="10.00">stxxl::mutex</text>
</a>
</g>
<!-- Node4&#45;&gt;Node3 -->
<g id="edge6" class="edge"><title>Node4&#45;&gt;Node3</title>
<path fill="none" stroke="#9a32cd" stroke-dasharray="5,2" d="M382.017,-206.753C434.483,-214.623 521.319,-227.648 578.848,-236.277"/>
<polygon fill="#9a32cd" stroke="#9a32cd" points="382.41,-203.272 372.001,-205.25 381.371,-210.195 382.41,-203.272"/>
<text text-anchor="middle" x="495" y="-237" font-family="Helvetica,sans-Serif" font-size="10.00"> m_reference_count_mutex</text>
</g>
<!-- Node13 -->
<g id="node29" class="node"><title>Node13</title>
<a xlink:href="classstxxl_1_1disk__allocator.html" target="_top" xlink:title="stxxl::disk_allocator">
<polygon fill="none" stroke="black" points="988.5,-117.5 988.5,-138.5 1095.5,-138.5 1095.5,-117.5 988.5,-117.5"/>
<text text-anchor="middle" x="1042" y="-125.5" font-family="Helvetica,sans-Serif" font-size="10.00">stxxl::disk_allocator</text>
</a>
</g>
<!-- Node4&#45;&gt;Node13 -->
<g id="edge40" class="edge"><title>Node4&#45;&gt;Node13</title>
<path fill="none" stroke="#9a32cd" stroke-dasharray="5,2" d="M382.528,-201.783C487.689,-204.807 754.935,-206.202 970,-154 986.015,-150.113 1003.41,-143.891 1017.09,-138.509"/>
<polygon fill="#9a32cd" stroke="#9a32cd" points="382.379,-198.277 372.276,-201.468 382.164,-205.274 382.379,-198.277"/>
<text text-anchor="middle" x="750" y="-197" font-family="Helvetica,sans-Serif" font-size="10.00"> mutex</text>
</g>
<!-- Node5 -->
<g id="node8" class="node"><title>Node5</title>
<a xlink:href="classstxxl_1_1noncopyable.html" target="_top" xlink:title="stxxl::noncopyable">
<polygon fill="none" stroke="black" points="12,-108.5 12,-129.5 114,-129.5 114,-108.5 12,-108.5"/>
<text text-anchor="middle" x="63" y="-116.5" font-family="Helvetica,sans-Serif" font-size="10.00">stxxl::noncopyable</text>
</a>
</g>
<!-- Node5&#45;&gt;Node4 -->
<g id="edge8" class="edge"><title>Node5&#45;&gt;Node4</title>
<path fill="none" stroke="#8b1a1a" d="M95.976,-133.685C110.522,-139.836 127.931,-146.758 144,-152 198.162,-169.668 262.682,-184.501 301.708,-192.814"/>
<polygon fill="#8b1a1a" stroke="#8b1a1a" points="96.9847,-130.309 86.415,-129.581 94.2233,-136.742 96.9847,-130.309"/>
</g>
<!-- Node8 -->
<g id="node14" class="node"><title>Node8</title>
<a xlink:href="classstxxl_1_1block__scheduler.html" target="_top" xlink:title="Schedules swapping of blocks and provides blocks for temporary storage. ">
<polygon fill="none" stroke="black" points="1374,-274 1374,-308 1510,-308 1510,-274 1374,-274"/>
<text text-anchor="start" x="1382" y="-295" font-family="Helvetica,sans-Serif" font-size="10.00">stxxl::block_scheduler</text>
<text text-anchor="middle" x="1442" y="-282" font-family="Helvetica,sans-Serif" font-size="10.00">&lt; SwappableBlockType &gt;</text>
</a>
</g>
<!-- Node5&#45;&gt;Node8 -->
<g id="edge16" class="edge"><title>Node5&#45;&gt;Node8</title>
<path fill="none" stroke="#8b1a1a" d="M77.5079,-137.719C115.014,-183.799 220.436,-299 337,-299 337,-299 337,-299 1263,-299 1299.55,-299 1340.26,-297.315 1373.61,-295.491"/>
<polygon fill="#8b1a1a" stroke="#8b1a1a" points="80.094,-135.349 71.1178,-129.721 74.625,-139.718 80.094,-135.349"/>
</g>
<!-- Node10 -->
<g id="node19" class="node"><title>Node10</title>
<a xlink:href="classstxxl_1_1singleton.html" target="_top" xlink:title="stxxl::singleton\&lt; block\l_manager \&gt;">
<polygon fill="none" stroke="black" points="578,-14 578,-48 696,-48 696,-14 578,-14"/>
<text text-anchor="start" x="586" y="-35" font-family="Helvetica,sans-Serif" font-size="10.00">stxxl::singleton&lt; block</text>
<text text-anchor="middle" x="637" y="-22" font-family="Helvetica,sans-Serif" font-size="10.00">_manager &gt;</text>
</a>
</g>
<!-- Node5&#45;&gt;Node10 -->
<g id="edge22" class="edge"><title>Node5&#45;&gt;Node10</title>
<path fill="none" stroke="#8b1a1a" d="M93.3383,-104.204C108.257,-97.5647 126.709,-90.2783 144,-86 324.346,-41.377 376.008,-70.7496 560,-45 565.786,-44.1902 571.801,-43.2575 577.804,-42.266"/>
<polygon fill="#8b1a1a" stroke="#8b1a1a" points="91.729,-101.091 84.0926,-108.436 94.6421,-107.457 91.729,-101.091"/>
</g>
<!-- Node11 -->
<g id="node22" class="node"><title>Node11</title>
<a xlink:href="classstxxl_1_1singleton.html" target="_top" xlink:title="stxxl::singleton\&lt; INSTANCE,\l destroy_on_exit \&gt;">
<polygon fill="none" stroke="black" points="262.5,-0 262.5,-34 411.5,-34 411.5,-0 262.5,-0"/>
<text text-anchor="start" x="270.5" y="-21" font-family="Helvetica,sans-Serif" font-size="10.00">stxxl::singleton&lt; INSTANCE,</text>
<text text-anchor="middle" x="337" y="-8" font-family="Helvetica,sans-Serif" font-size="10.00"> destroy_on_exit &gt;</text>
</a>
</g>
<!-- Node5&#45;&gt;Node11 -->
<g id="edge26" class="edge"><title>Node5&#45;&gt;Node11</title>
<path fill="none" stroke="#8b1a1a" d="M78.6313,-100.32C93.6132,-83.7543 117.772,-60.3311 144,-48 180.7,-30.7454 225.192,-22.8447 262.204,-19.325"/>
<polygon fill="#8b1a1a" stroke="#8b1a1a" points="75.6295,-98.4344 71.6709,-108.262 80.894,-103.048 75.6295,-98.4344"/>
</g>
<!-- Node5&#45;&gt;Node12 -->
<g id="edge30" class="edge"><title>Node5&#45;&gt;Node12</title>
<path fill="none" stroke="#8b1a1a" d="M124.458,-120.598C281.361,-124.679 692.211,-135.364 803.724,-138.265"/>
<polygon fill="#8b1a1a" stroke="#8b1a1a" points="124.139,-117.089 114.052,-120.328 123.957,-124.087 124.139,-117.089"/>
</g>
<!-- Node5&#45;&gt;Node13 -->
<g id="edge36" class="edge"><title>Node5&#45;&gt;Node13</title>
<path fill="none" stroke="#8b1a1a" d="M124.2,-112.321C179.674,-106.848 263.718,-100 337,-100 337,-100 337,-100 750,-100 833.52,-100 929.867,-111.491 988.33,-119.751"/>
<polygon fill="#8b1a1a" stroke="#8b1a1a" points="123.785,-108.845 114.184,-113.325 124.483,-115.81 123.785,-108.845"/>
</g>
<!-- Node6 -->
<g id="node10" class="node"><title>Node6</title>
<a xlink:href="structstxxl_1_1choose__int__types.html" target="_top" xlink:title="stxxl::choose_int_types\l\&lt; my_pointer_size \&gt;">
<polygon fill="none" stroke="black" points="274.5,-327 274.5,-361 399.5,-361 399.5,-327 274.5,-327"/>
<text text-anchor="start" x="282.5" y="-348" font-family="Helvetica,sans-Serif" font-size="10.00">stxxl::choose_int_types</text>
<text text-anchor="middle" x="337" y="-335" font-family="Helvetica,sans-Serif" font-size="10.00">&lt; my_pointer_size &gt;</text>
</a>
</g>
<!-- Node6&#45;&gt;Node3 -->
<g id="edge10" class="edge"><title>Node6&#45;&gt;Node3</title>
<path fill="none" stroke="#9a32cd" stroke-dasharray="5,2" d="M397.863,-323.67C408.569,-320.106 419.609,-316.439 430,-313 482.611,-295.59 542.797,-275.837 584.659,-262.125"/>
<polygon fill="#9a32cd" stroke="#9a32cd" points="396.533,-320.424 388.152,-326.905 398.746,-327.065 396.533,-320.424"/>
<text text-anchor="middle" x="495" y="-317" font-family="Helvetica,sans-Serif" font-size="10.00"> m_reference_count</text>
</g>
<!-- Node6&#45;&gt;Node8 -->
<g id="edge42" class="edge"><title>Node6&#45;&gt;Node8</title>
<path fill="none" stroke="#9a32cd" stroke-dasharray="5,2" d="M409.88,-342.485C470.629,-341.353 559.448,-340 637,-340 637,-340 637,-340 1263,-340 1312.78,-340 1367.67,-322.153 1403.37,-308"/>
<polygon fill="#9a32cd" stroke="#9a32cd" points="409.559,-338.991 399.627,-342.679 409.691,-345.989 409.559,-338.991"/>
<text text-anchor="start" x="878.5" y="-357" font-family="Helvetica,sans-Serif" font-size="10.00"> remaining_internal</text>
<text text-anchor="middle" x="924" y="-344" font-family="Helvetica,sans-Serif" font-size="10.00">_blocks</text>
</g>
<!-- Node7 -->
<g id="node12" class="node"><title>Node7</title>
<a xlink:href="structstxxl_1_1choose__int__types.html" target="_top" xlink:title="stxxl::choose_int_types\l\&lt; PtrSize \&gt;">
<polygon fill="none" stroke="black" points="0.5,-327 0.5,-361 125.5,-361 125.5,-327 0.5,-327"/>
<text text-anchor="start" x="8.5" y="-348" font-family="Helvetica,sans-Serif" font-size="10.00">stxxl::choose_int_types</text>
<text text-anchor="middle" x="63" y="-335" font-family="Helvetica,sans-Serif" font-size="10.00">&lt; PtrSize &gt;</text>
</a>
</g>
<!-- Node7&#45;&gt;Node6 -->
<g id="edge12" class="edge"><title>Node7&#45;&gt;Node6</title>
<path fill="none" stroke="orange" stroke-dasharray="5,2" d="M135.672,-344C178.827,-344 232.999,-344 274.277,-344"/>
<polygon fill="orange" stroke="orange" points="135.518,-340.5 125.518,-344 135.518,-347.5 135.518,-340.5"/>
<text text-anchor="middle" x="194" y="-348" font-family="Helvetica,sans-Serif" font-size="10.00"> &lt; my_pointer_size &gt;</text>
</g>
<!-- Node8&#45;&gt;Node2 -->
<g id="edge14" class="edge"><title>Node8&#45;&gt;Node2</title>
<path fill="none" stroke="#9a32cd" stroke-dasharray="5,2" d="M1520.46,-278.384C1533.4,-276.303 1546.83,-274.142 1559.84,-272.051"/>
<polygon fill="#9a32cd" stroke="#9a32cd" points="1519.52,-274.989 1510.21,-280.032 1520.63,-281.9 1519.52,-274.989"/>
<text text-anchor="middle" x="1535" y="-281" font-family="Helvetica,sans-Serif" font-size="10.00"> bs</text>
</g>
<!-- Node9 -->
<g id="node17" class="node"><title>Node9</title>
<a xlink:href="classstxxl_1_1block__manager.html" target="_top" xlink:title="Block manager class. ">
<polygon fill="none" stroke="black" points="1206,-83.5 1206,-104.5 1320,-104.5 1320,-83.5 1206,-83.5"/>
<text text-anchor="middle" x="1263" y="-91.5" font-family="Helvetica,sans-Serif" font-size="10.00">stxxl::block_manager</text>
</a>
</g>
<!-- Node9&#45;&gt;Node8 -->
<g id="edge18" class="edge"><title>Node9&#45;&gt;Node8</title>
<path fill="none" stroke="#9a32cd" stroke-dasharray="5,2" d="M1279.65,-112.325C1314.15,-150.29 1392.99,-237.062 1426.49,-273.926"/>
<polygon fill="#9a32cd" stroke="#9a32cd" points="1281.94,-109.639 1272.62,-104.592 1276.76,-114.346 1281.94,-109.639"/>
<text text-anchor="middle" x="1347" y="-197" font-family="Helvetica,sans-Serif" font-size="10.00"> bm</text>
</g>
<!-- Node10&#45;&gt;Node9 -->
<g id="edge20" class="edge"><title>Node10&#45;&gt;Node9</title>
<path fill="none" stroke="midnightblue" d="M706.297,-36.8447C810.817,-45.8458 1014.98,-64.1513 1188,-84 1193.74,-84.6588 1199.73,-85.3865 1205.7,-86.14"/>
<polygon fill="midnightblue" stroke="midnightblue" points="706.455,-33.3454 696.192,-35.9767 705.856,-40.3197 706.455,-33.3454"/>
</g>
<!-- Node11&#45;&gt;Node10 -->
<g id="edge24" class="edge"><title>Node11&#45;&gt;Node10</title>
<path fill="none" stroke="orange" stroke-dasharray="5,2" d="M421.664,-20.951C471.506,-23.2769 533.309,-26.1611 577.903,-28.2421"/>
<polygon fill="orange" stroke="orange" points="421.695,-17.4487 411.543,-20.4787 421.369,-24.4411 421.695,-17.4487"/>
<text text-anchor="middle" x="495" y="-32" font-family="Helvetica,sans-Serif" font-size="10.00"> &lt; block_manager &gt;</text>
</g>
<!-- Node12&#45;&gt;Node9 -->
<g id="edge28" class="edge"><title>Node12&#45;&gt;Node9</title>
<path fill="none" stroke="#9a32cd" stroke-dasharray="5,2" d="M869.856,-125.198C901.07,-114.581 946.76,-100.781 988,-95 1062.7,-84.5279 1149.95,-86.6014 1205.8,-89.7235"/>
<polygon fill="#9a32cd" stroke="#9a32cd" points="868.561,-121.942 860.254,-128.519 870.849,-128.558 868.561,-121.942"/>
<text text-anchor="middle" x="1042" y="-99" font-family="Helvetica,sans-Serif" font-size="10.00"> disk_files</text>
</g>
<!-- Node12&#45;&gt;Node13 -->
<g id="edge38" class="edge"><title>Node12&#45;&gt;Node13</title>
<path fill="none" stroke="#9a32cd" stroke-dasharray="5,2" d="M870.49,-136.984C903.525,-135.253 951.491,-132.741 988.303,-130.813"/>
<polygon fill="#9a32cd" stroke="#9a32cd" points="870.125,-133.498 860.322,-137.516 870.491,-140.489 870.125,-133.498"/>
<text text-anchor="middle" x="924" y="-141" font-family="Helvetica,sans-Serif" font-size="10.00"> storage</text>
</g>
<!-- Node13&#45;&gt;Node9 -->
<g id="edge34" class="edge"><title>Node13&#45;&gt;Node9</title>
<path fill="none" stroke="#9a32cd" stroke-dasharray="5,2" d="M1105.8,-118.184C1137.4,-113.323 1175.25,-107.501 1205.88,-102.787"/>
<polygon fill="#9a32cd" stroke="#9a32cd" points="1105.13,-114.746 1095.78,-119.726 1106.2,-121.665 1105.13,-114.746"/>
<text text-anchor="middle" x="1151" y="-121" font-family="Helvetica,sans-Serif" font-size="10.00"> disk_allocators</text>
</g>
</g>
</svg>
