<?xml version="1.0" encoding="UTF-8" standalone="no"?>
<!DOCTYPE svg PUBLIC "-//W3C//DTD SVG 1.1//EN"
 "http://www.w3.org/Graphics/SVG/1.1/DTD/svg11.dtd">
<!-- Generated by graphviz version 2.26.3 (20100126.1600)
 -->
<!-- Title: stxxl::hash_map::hash_map&lt; KeyType, MappedType, HashType, KeyCompareType, SubBlockSize, SubBlocksPerBlock, AllocatorType &gt;::Cmp Pages: 1 -->
<svg width="574pt" height="82pt"
 viewBox="0.00 0.00 574.00 82.00" xmlns="http://www.w3.org/2000/svg" xmlns:xlink="http://www.w3.org/1999/xlink">
<g id="graph1" class="graph" transform="scale(1 1) rotate(0) translate(4 78)">
<title>stxxl::hash_map::hash_map&lt; KeyType, MappedType, HashType, KeyCompareType, SubBlockSize, SubBlocksPerBlock, AllocatorType &gt;::Cmp</title>
<!-- Node1 -->
<g id="node1" class="node"><title>Node1</title>
<polygon fill="#bfbfbf" stroke="black" points="386,-0.5 386,-73.5 566,-73.5 566,-0.5 386,-0.5"/>
<text text-anchor="start" x="394" y="-60.5" font-family="Helvetica,sans-Serif" font-size="10.00">stxxl::hash_map::hash</text>
<text text-anchor="start" x="394" y="-47.5" font-family="Helvetica,sans-Serif" font-size="10.00">_map&lt; KeyType, MappedType,</text>
<text text-anchor="start" x="394" y="-34.5" font-family="Helvetica,sans-Serif" font-size="10.00"> HashType, KeyCompareType,</text>
<text text-anchor="start" x="394" y="-21.5" font-family="Helvetica,sans-Serif" font-size="10.00"> SubBlockSize, SubBlocksPerBlock,</text>
<text text-anchor="middle" x="476" y="-8.5" font-family="Helvetica,sans-Serif" font-size="10.00"> AllocatorType &gt;::Cmp</text>
</g>
<!-- Node2 -->
<g id="node2" class="node"><title>Node2</title>
<a xlink:href="classstxxl_1_1hash__map_1_1hash__map.html" target="_top" xlink:title="Main implementation of external memory hash map. ">
<polygon fill="none" stroke="black" points="140,-0.5 140,-73.5 320,-73.5 320,-0.5 140,-0.5"/>
<text text-anchor="start" x="148" y="-60.5" font-family="Helvetica,sans-Serif" font-size="10.00">stxxl::hash_map::hash</text>
<text text-anchor="start" x="148" y="-47.5" font-family="Helvetica,sans-Serif" font-size="10.00">_map&lt; KeyType, MappedType,</text>
<text text-anchor="start" x="148" y="-34.5" font-family="Helvetica,sans-Serif" font-size="10.00"> HashType, KeyCompareType,</text>
<text text-anchor="start" x="148" y="-21.5" font-family="Helvetica,sans-Serif" font-size="10.00"> SubBlockSize, SubBlocksPerBlock,</text>
<text text-anchor="middle" x="230" y="-8.5" font-family="Helvetica,sans-Serif" font-size="10.00"> AllocatorType &gt;</text>
</a>
</g>
<!-- Node2&#45;&gt;Node1 -->
<g id="edge2" class="edge"><title>Node2&#45;&gt;Node1</title>
<path fill="none" stroke="#9a32cd" stroke-dasharray="5,2" d="M330.325,-37C348.692,-37 367.758,-37 385.806,-37"/>
<polygon fill="#9a32cd" stroke="#9a32cd" points="330.204,-33.5001 320.204,-37 330.204,-40.5001 330.204,-33.5001"/>
<text text-anchor="middle" x="353" y="-41" font-family="Helvetica,sans-Serif" font-size="10.00"> map_</text>
</g>
<!-- Node3 -->
<g id="node4" class="node"><title>Node3</title>
<a xlink:href="classstxxl_1_1noncopyable.html" target="_top" xlink:title="stxxl::noncopyable">
<polygon fill="none" stroke="black" points="0,-26.5 0,-47.5 102,-47.5 102,-26.5 0,-26.5"/>
<text text-anchor="middle" x="51" y="-34.5" font-family="Helvetica,sans-Serif" font-size="10.00">stxxl::noncopyable</text>
</a>
</g>
<!-- Node3&#45;&gt;Node2 -->
<g id="edge4" class="edge"><title>Node3&#45;&gt;Node2</title>
<path fill="none" stroke="#8b1a1a" d="M112.465,-37C121.309,-37 130.558,-37 139.818,-37"/>
<polygon fill="#8b1a1a" stroke="#8b1a1a" points="112.294,-33.5001 102.294,-37 112.294,-40.5001 112.294,-33.5001"/>
</g>
</g>
</svg>
