<?xml version="1.0" encoding="UTF-8" standalone="no"?>
<!DOCTYPE svg PUBLIC "-//W3C//DTD SVG 1.1//EN"
 "http://www.w3.org/Graphics/SVG/1.1/DTD/svg11.dtd">
<!-- Generated by graphviz version 2.26.3 (20100126.1600)
 -->
<!-- Title: stxxl::btree::iterator_map&lt; BTreeType &gt;::Key Pages: 1 -->
<svg width="175pt" height="216pt"
 viewBox="0.00 0.00 175.00 216.00" xmlns="http://www.w3.org/2000/svg" xmlns:xlink="http://www.w3.org/1999/xlink">
<g id="graph1" class="graph" transform="scale(1 1) rotate(0) translate(4 212)">
<title>stxxl::btree::iterator_map&lt; BTreeType &gt;::Key</title>
<!-- Node1 -->
<g id="node1" class="node"><title>Node1</title>
<polygon fill="#bfbfbf" stroke="black" points="-0.5,-1 -0.5,-35 136.5,-35 136.5,-1 -0.5,-1"/>
<text text-anchor="start" x="7.5" y="-22" font-family="Helvetica,sans-Serif" font-size="10.00">stxxl::btree::iterator</text>
<text text-anchor="middle" x="68" y="-9" font-family="Helvetica,sans-Serif" font-size="10.00">_map&lt; BTreeType &gt;::Key</text>
</g>
<!-- Node2 -->
<g id="node2" class="node"><title>Node2</title>
<a xlink:href="structstxxl_1_1choose__int__types.html" target="_top" xlink:title="stxxl::choose_int_types\l\&lt; my_pointer_size \&gt;">
<polygon fill="none" stroke="black" points="5.5,-87 5.5,-121 130.5,-121 130.5,-87 5.5,-87"/>
<text text-anchor="start" x="13.5" y="-108" font-family="Helvetica,sans-Serif" font-size="10.00">stxxl::choose_int_types</text>
<text text-anchor="middle" x="68" y="-95" font-family="Helvetica,sans-Serif" font-size="10.00">&lt; my_pointer_size &gt;</text>
</a>
</g>
<!-- Node2&#45;&gt;Node1 -->
<g id="edge2" class="edge"><title>Node2&#45;&gt;Node1</title>
<path fill="none" stroke="#9a32cd" stroke-dasharray="5,2" d="M68,-76.342C68,-62.7741 68,-46.8607 68,-35.084"/>
<polygon fill="#9a32cd" stroke="#9a32cd" points="64.5001,-76.5966 68,-86.5966 71.5001,-76.5967 64.5001,-76.5966"/>
<text text-anchor="middle" x="78.5" y="-58.5" font-family="Helvetica,sans-Serif" font-size="10.00"> pos</text>
</g>
<!-- Node3 -->
<g id="node4" class="node"><title>Node3</title>
<a xlink:href="structstxxl_1_1choose__int__types.html" target="_top" xlink:title="stxxl::choose_int_types\l\&lt; PtrSize \&gt;">
<polygon fill="none" stroke="black" points="5.5,-173 5.5,-207 130.5,-207 130.5,-173 5.5,-173"/>
<text text-anchor="start" x="13.5" y="-194" font-family="Helvetica,sans-Serif" font-size="10.00">stxxl::choose_int_types</text>
<text text-anchor="middle" x="68" y="-181" font-family="Helvetica,sans-Serif" font-size="10.00">&lt; PtrSize &gt;</text>
</a>
</g>
<!-- Node3&#45;&gt;Node2 -->
<g id="edge4" class="edge"><title>Node3&#45;&gt;Node2</title>
<path fill="none" stroke="orange" stroke-dasharray="5,2" d="M68,-162.342C68,-148.774 68,-132.861 68,-121.084"/>
<polygon fill="orange" stroke="orange" points="64.5001,-162.597 68,-172.597 71.5001,-162.597 64.5001,-162.597"/>
<text text-anchor="middle" x="117.5" y="-144.5" font-family="Helvetica,sans-Serif" font-size="10.00"> &lt; my_pointer_size &gt;</text>
</g>
</g>
</svg>
