<?xml version="1.0" encoding="UTF-8" standalone="no"?>
<!DOCTYPE svg PUBLIC "-//W3C//DTD SVG 1.1//EN"
 "http://www.w3.org/Graphics/SVG/1.1/DTD/svg11.dtd">
<!-- Generated by graphviz version 2.26.3 (20100126.1600)
 -->
<!-- Title: stxxl::matrix_operation_statistic Pages: 1 -->
<svg width="846pt" height="185pt"
 viewBox="0.00 0.00 846.00 184.93" xmlns="http://www.w3.org/2000/svg" xmlns:xlink="http://www.w3.org/1999/xlink">
<g id="graph1" class="graph" transform="scale(1 1) rotate(0) translate(4 180.927)">
<title>stxxl::matrix_operation_statistic</title>
<!-- Node1 -->
<g id="node1" class="node"><title>Node1</title>
<polygon fill="#bfbfbf" stroke="black" points="716,-79 716,-113 838,-113 838,-79 716,-79"/>
<text text-anchor="start" x="724" y="-100" font-family="Helvetica,sans-Serif" font-size="10.00">stxxl::matrix_operation</text>
<text text-anchor="middle" x="777" y="-87" font-family="Helvetica,sans-Serif" font-size="10.00">_statistic</text>
</g>
<!-- Node2 -->
<g id="node2" class="node"><title>Node2</title>
<a xlink:href="classstxxl_1_1singleton.html" target="_top" xlink:title="stxxl::singleton\&lt; matrix\l_operation_statistic \&gt;">
<polygon fill="none" stroke="black" points="556,-114 556,-148 678,-148 678,-114 556,-114"/>
<text text-anchor="start" x="564" y="-135" font-family="Helvetica,sans-Serif" font-size="10.00">stxxl::singleton&lt; matrix</text>
<text text-anchor="middle" x="617" y="-122" font-family="Helvetica,sans-Serif" font-size="10.00">_operation_statistic &gt;</text>
</a>
</g>
<!-- Node2&#45;&gt;Node1 -->
<g id="edge2" class="edge"><title>Node2&#45;&gt;Node1</title>
<path fill="none" stroke="midnightblue" d="M688.271,-115.409C697.443,-113.403 706.77,-111.363 715.762,-109.396"/>
<polygon fill="midnightblue" stroke="midnightblue" points="687.424,-112.012 678.403,-117.568 688.92,-118.85 687.424,-112.012"/>
</g>
<!-- Node3 -->
<g id="node4" class="node"><title>Node3</title>
<a xlink:href="classstxxl_1_1noncopyable.html" target="_top" xlink:title="stxxl::noncopyable">
<polygon fill="none" stroke="black" points="12,-150.5 12,-171.5 114,-171.5 114,-150.5 12,-150.5"/>
<text text-anchor="middle" x="63" y="-158.5" font-family="Helvetica,sans-Serif" font-size="10.00">stxxl::noncopyable</text>
</a>
</g>
<!-- Node3&#45;&gt;Node2 -->
<g id="edge4" class="edge"><title>Node3&#45;&gt;Node2</title>
<path fill="none" stroke="#8b1a1a" d="M124.278,-167.622C215.352,-175.948 391.44,-186.21 538,-160 551.663,-157.557 566.065,-152.933 578.775,-148.084"/>
<polygon fill="#8b1a1a" stroke="#8b1a1a" points="124.417,-164.12 114.134,-166.67 123.763,-171.089 124.417,-164.12"/>
</g>
<!-- Node4 -->
<g id="node6" class="node"><title>Node4</title>
<a xlink:href="classstxxl_1_1singleton.html" target="_top" xlink:title="stxxl::singleton\&lt; INSTANCE,\l destroy_on_exit \&gt;">
<polygon fill="none" stroke="black" points="262.5,-112 262.5,-146 411.5,-146 411.5,-112 262.5,-112"/>
<text text-anchor="start" x="270.5" y="-133" font-family="Helvetica,sans-Serif" font-size="10.00">stxxl::singleton&lt; INSTANCE,</text>
<text text-anchor="middle" x="337" y="-120" font-family="Helvetica,sans-Serif" font-size="10.00"> destroy_on_exit &gt;</text>
</a>
</g>
<!-- Node3&#45;&gt;Node4 -->
<g id="edge8" class="edge"><title>Node3&#45;&gt;Node4</title>
<path fill="none" stroke="#8b1a1a" d="M124.291,-153.842C165.085,-149.078 218.933,-142.789 262.242,-137.731"/>
<polygon fill="#8b1a1a" stroke="#8b1a1a" points="123.742,-150.382 114.216,-155.019 124.554,-157.335 123.742,-150.382"/>
</g>
<!-- Node4&#45;&gt;Node2 -->
<g id="edge6" class="edge"><title>Node4&#45;&gt;Node2</title>
<path fill="none" stroke="orange" stroke-dasharray="5,2" d="M421.876,-129.606C465.037,-129.915 516.515,-130.282 555.757,-130.563"/>
<polygon fill="orange" stroke="orange" points="421.692,-126.105 411.667,-129.533 421.642,-133.105 421.692,-126.105"/>
<text text-anchor="start" x="438" y="-147" font-family="Helvetica,sans-Serif" font-size="10.00"> &lt; matrix_operation</text>
<text text-anchor="middle" x="484" y="-134" font-family="Helvetica,sans-Serif" font-size="10.00">_statistic &gt;</text>
</g>
<!-- Node5 -->
<g id="node9" class="node"><title>Node5</title>
<a xlink:href="structstxxl_1_1matrix__operation__statistic__dataset.html" target="_top" xlink:title="stxxl::matrix_operation\l_statistic_dataset">
<polygon fill="none" stroke="black" points="556,-31 556,-65 678,-65 678,-31 556,-31"/>
<text text-anchor="start" x="564" y="-52" font-family="Helvetica,sans-Serif" font-size="10.00">stxxl::matrix_operation</text>
<text text-anchor="middle" x="617" y="-39" font-family="Helvetica,sans-Serif" font-size="10.00">_statistic_dataset</text>
</a>
</g>
<!-- Node5&#45;&gt;Node1 -->
<g id="edge10" class="edge"><title>Node5&#45;&gt;Node1</title>
<path fill="none" stroke="midnightblue" d="M683.547,-67.9642C695.77,-71.6309 708.423,-75.427 720.323,-78.9968"/>
<polygon fill="midnightblue" stroke="midnightblue" points="684.445,-64.5793 673.861,-65.0582 682.433,-71.2841 684.445,-64.5793"/>
</g>
<!-- Node6 -->
<g id="node11" class="node"><title>Node6</title>
<a xlink:href="structstxxl_1_1choose__int__types.html" target="_top" xlink:title="stxxl::choose_int_types\l\&lt; my_pointer_size \&gt;">
<polygon fill="none" stroke="black" points="274.5,-0 274.5,-34 399.5,-34 399.5,-0 274.5,-0"/>
<text text-anchor="start" x="282.5" y="-21" font-family="Helvetica,sans-Serif" font-size="10.00">stxxl::choose_int_types</text>
<text text-anchor="middle" x="337" y="-8" font-family="Helvetica,sans-Serif" font-size="10.00">&lt; my_pointer_size &gt;</text>
</a>
</g>
<!-- Node6&#45;&gt;Node5 -->
<g id="edge12" class="edge"><title>Node6&#45;&gt;Node5</title>
<path fill="none" stroke="#9a32cd" stroke-dasharray="5,2" d="M409.654,-21.5425C447.929,-24.3399 495.604,-28.4622 538,-34 543.801,-34.7577 549.825,-35.6436 555.842,-36.5953"/>
<polygon fill="#9a32cd" stroke="#9a32cd" points="409.854,-18.0479 399.629,-20.8243 409.353,-25.03 409.854,-18.0479"/>
<text text-anchor="start" x="430" y="-116" font-family="Helvetica,sans-Serif" font-size="10.00"> block_multiplications</text>
<text text-anchor="middle" x="484" y="-103" font-family="Helvetica,sans-Serif" font-size="10.00">_saved_through_zero</text>
<text text-anchor="start" x="430" y="-90" font-family="Helvetica,sans-Serif" font-size="10.00">block_multiplication</text>
<text text-anchor="middle" x="484" y="-77" font-family="Helvetica,sans-Serif" font-size="10.00">_calls</text>
<text text-anchor="start" x="430" y="-64" font-family="Helvetica,sans-Serif" font-size="10.00">block_additions_saved</text>
<text text-anchor="middle" x="484" y="-51" font-family="Helvetica,sans-Serif" font-size="10.00">_through_zero</text>
<text text-anchor="middle" x="484" y="-38" font-family="Helvetica,sans-Serif" font-size="10.00">block_addition_calls</text>
</g>
<!-- Node7 -->
<g id="node13" class="node"><title>Node7</title>
<a xlink:href="structstxxl_1_1choose__int__types.html" target="_top" xlink:title="stxxl::choose_int_types\l\&lt; PtrSize \&gt;">
<polygon fill="none" stroke="black" points="0.5,-0 0.5,-34 125.5,-34 125.5,-0 0.5,-0"/>
<text text-anchor="start" x="8.5" y="-21" font-family="Helvetica,sans-Serif" font-size="10.00">stxxl::choose_int_types</text>
<text text-anchor="middle" x="63" y="-8" font-family="Helvetica,sans-Serif" font-size="10.00">&lt; PtrSize &gt;</text>
</a>
</g>
<!-- Node7&#45;&gt;Node6 -->
<g id="edge14" class="edge"><title>Node7&#45;&gt;Node6</title>
<path fill="none" stroke="orange" stroke-dasharray="5,2" d="M135.672,-17C178.827,-17 232.999,-17 274.277,-17"/>
<polygon fill="orange" stroke="orange" points="135.518,-13.5001 125.518,-17 135.518,-20.5001 135.518,-13.5001"/>
<text text-anchor="middle" x="194" y="-21" font-family="Helvetica,sans-Serif" font-size="10.00"> &lt; my_pointer_size &gt;</text>
</g>
</g>
</svg>
