<?xml version="1.0" encoding="UTF-8" standalone="no"?>
<!DOCTYPE svg PUBLIC "-//W3C//DTD SVG 1.1//EN"
 "http://www.w3.org/Graphics/SVG/1.1/DTD/svg11.dtd">
<!-- Generated by graphviz version 2.26.3 (20100126.1600)
 -->
<!-- Title: stxxl::compat_unique_ptr&lt; Type &gt; Pages: 1 -->
<svg width="394pt" height="174pt"
 viewBox="0.00 0.00 394.00 174.00" xmlns="http://www.w3.org/2000/svg" xmlns:xlink="http://www.w3.org/1999/xlink">
<g id="graph1" class="graph" transform="scale(1 1) rotate(0) translate(4 170)">
<title>stxxl::compat_unique_ptr&lt; Type &gt;</title>
<!-- Node1 -->
<g id="node1" class="node"><title>Node1</title>
<polygon fill="#bfbfbf" stroke="black" points="0.5,-66 0.5,-100 113.5,-100 113.5,-66 0.5,-66"/>
<text text-anchor="start" x="8.5" y="-87" font-family="Helvetica,sans-Serif" font-size="10.00">stxxl::compat_unique</text>
<text text-anchor="middle" x="57" y="-74" font-family="Helvetica,sans-Serif" font-size="10.00">_ptr&lt; Type &gt;</text>
</g>
<!-- Node2 -->
<g id="node3" class="node"><title>Node2</title>
<a xlink:href="structstxxl_1_1compat__unique__ptr.html" target="_top" xlink:title="stxxl::compat_unique\l_ptr\&lt; stxxl::stxxl::io\l_error \&gt;">
<polygon fill="none" stroke="black" points="262.5,-118.5 262.5,-165.5 375.5,-165.5 375.5,-118.5 262.5,-118.5"/>
<text text-anchor="start" x="270.5" y="-152.5" font-family="Helvetica,sans-Serif" font-size="10.00">stxxl::compat_unique</text>
<text text-anchor="start" x="270.5" y="-139.5" font-family="Helvetica,sans-Serif" font-size="10.00">_ptr&lt; stxxl::stxxl::io</text>
<text text-anchor="middle" x="319" y="-126.5" font-family="Helvetica,sans-Serif" font-size="10.00">_error &gt;</text>
</a>
</g>
<!-- Node1&#45;&gt;Node2 -->
<g id="edge2" class="edge"><title>Node1&#45;&gt;Node2</title>
<path fill="none" stroke="orange" stroke-dasharray="5,2" d="M123.428,-98.0643C126.325,-98.7189 129.192,-99.3664 132,-100 175.656,-109.85 225.058,-120.944 262.117,-129.255"/>
<polygon fill="orange" stroke="orange" points="124.037,-94.6138 113.511,-95.8218 122.493,-101.441 124.037,-94.6138"/>
<text text-anchor="start" x="147" y="-139" font-family="Helvetica,sans-Serif" font-size="10.00"> &lt; stxxl::stxxl::io</text>
<text text-anchor="middle" x="183" y="-126" font-family="Helvetica,sans-Serif" font-size="10.00">_error &gt;</text>
</g>
<!-- Node3 -->
<g id="node5" class="node"><title>Node3</title>
<a xlink:href="structstxxl_1_1compat__unique__ptr.html" target="_top" xlink:title="stxxl::compat_unique\l_ptr\&lt; buf_istream_type \&gt;">
<polygon fill="none" stroke="black" points="252,-66 252,-100 386,-100 386,-66 252,-66"/>
<text text-anchor="start" x="260" y="-87" font-family="Helvetica,sans-Serif" font-size="10.00">stxxl::compat_unique</text>
<text text-anchor="middle" x="319" y="-74" font-family="Helvetica,sans-Serif" font-size="10.00">_ptr&lt; buf_istream_type &gt;</text>
</a>
</g>
<!-- Node1&#45;&gt;Node3 -->
<g id="edge4" class="edge"><title>Node1&#45;&gt;Node3</title>
<path fill="none" stroke="orange" stroke-dasharray="5,2" d="M123.547,-83C162.862,-83 212.494,-83 251.905,-83"/>
<polygon fill="orange" stroke="orange" points="123.528,-79.5001 113.528,-83 123.528,-86.5001 123.528,-79.5001"/>
<text text-anchor="middle" x="183" y="-87" font-family="Helvetica,sans-Serif" font-size="10.00"> &lt; buf_istream_type &gt;</text>
</g>
<!-- Node4 -->
<g id="node7" class="node"><title>Node4</title>
<a xlink:href="structstxxl_1_1compat__unique__ptr.html" target="_top" xlink:title="stxxl::compat_unique\l_ptr\&lt; stxxl::completion\l_handler_impl \&gt;">
<polygon fill="none" stroke="black" points="258.5,-0.5 258.5,-47.5 379.5,-47.5 379.5,-0.5 258.5,-0.5"/>
<text text-anchor="start" x="266.5" y="-34.5" font-family="Helvetica,sans-Serif" font-size="10.00">stxxl::compat_unique</text>
<text text-anchor="start" x="266.5" y="-21.5" font-family="Helvetica,sans-Serif" font-size="10.00">_ptr&lt; stxxl::completion</text>
<text text-anchor="middle" x="319" y="-8.5" font-family="Helvetica,sans-Serif" font-size="10.00">_handler_impl &gt;</text>
</a>
</g>
<!-- Node1&#45;&gt;Node4 -->
<g id="edge6" class="edge"><title>Node1&#45;&gt;Node4</title>
<path fill="none" stroke="orange" stroke-dasharray="5,2" d="M104.528,-62.119C113.53,-58.7012 122.961,-55.4743 132,-53 173.511,-41.6374 221.505,-34.3099 258.477,-29.8632"/>
<polygon fill="orange" stroke="orange" points="102.994,-58.9612 94.9668,-65.8762 105.554,-65.4762 102.994,-58.9612"/>
<text text-anchor="start" x="138.5" y="-70" font-family="Helvetica,sans-Serif" font-size="10.00"> &lt; stxxl::completion</text>
<text text-anchor="middle" x="183" y="-57" font-family="Helvetica,sans-Serif" font-size="10.00">_handler_impl &gt;</text>
</g>
</g>
</svg>
