<?xml version="1.0" encoding="UTF-8" standalone="no"?>
<!DOCTYPE svg PUBLIC "-//W3C//DTD SVG 1.1//EN"
 "http://www.w3.org/Graphics/SVG/1.1/DTD/svg11.dtd">
<!-- Generated by graphviz version 2.26.3 (20100126.1600)
 -->
<!-- Title: stxxl::random_number&lt; UniformRGen &gt; Pages: 1 -->
<svg width="420pt" height="108pt"
 viewBox="0.00 0.00 420.00 108.00" xmlns="http://www.w3.org/2000/svg" xmlns:xlink="http://www.w3.org/1999/xlink">
<g id="graph1" class="graph" transform="scale(1 1) rotate(0) translate(4 104)">
<title>stxxl::random_number&lt; UniformRGen &gt;</title>
<!-- Node1 -->
<g id="node1" class="node"><title>Node1</title>
<polygon fill="#bfbfbf" stroke="black" points="0.5,-29 0.5,-63 119.5,-63 119.5,-29 0.5,-29"/>
<text text-anchor="start" x="8.5" y="-50" font-family="Helvetica,sans-Serif" font-size="10.00">stxxl::random_number</text>
<text text-anchor="middle" x="60" y="-37" font-family="Helvetica,sans-Serif" font-size="10.00">&lt; UniformRGen &gt;</text>
</g>
<!-- Node2 -->
<g id="node3" class="node"><title>Node2</title>
<a xlink:href="structstxxl_1_1random__number.html" target="_top" xlink:title="stxxl::random_number\l\&lt; stxxl::random_uniform\l_fast \&gt;">
<polygon fill="none" stroke="black" points="281,-52.5 281,-99.5 409,-99.5 409,-52.5 281,-52.5"/>
<text text-anchor="start" x="289" y="-86.5" font-family="Helvetica,sans-Serif" font-size="10.00">stxxl::random_number</text>
<text text-anchor="start" x="289" y="-73.5" font-family="Helvetica,sans-Serif" font-size="10.00">&lt; stxxl::random_uniform</text>
<text text-anchor="middle" x="345" y="-60.5" font-family="Helvetica,sans-Serif" font-size="10.00">_fast &gt;</text>
</a>
</g>
<!-- Node1&#45;&gt;Node2 -->
<g id="edge2" class="edge"><title>Node1&#45;&gt;Node2</title>
<path fill="none" stroke="orange" stroke-dasharray="5,2" d="M129.958,-53.364C176.068,-58.2177 235.998,-64.5261 280.875,-69.25"/>
<polygon fill="orange" stroke="orange" points="130.057,-49.8551 119.745,-52.289 129.324,-56.8167 130.057,-49.8551"/>
<text text-anchor="start" x="141.5" y="-83" font-family="Helvetica,sans-Serif" font-size="10.00"> &lt; stxxl::random_uniform</text>
<text text-anchor="middle" x="199" y="-70" font-family="Helvetica,sans-Serif" font-size="10.00">_fast &gt;</text>
</g>
<!-- Node3 -->
<g id="node5" class="node"><title>Node3</title>
<a xlink:href="structstxxl_1_1random__number.html" target="_top" xlink:title="stxxl::random_number\l\&lt; random_uniform_fast \&gt;">
<polygon fill="none" stroke="black" points="278,-0 278,-34 412,-34 412,-0 278,-0"/>
<text text-anchor="start" x="286" y="-21" font-family="Helvetica,sans-Serif" font-size="10.00">stxxl::random_number</text>
<text text-anchor="middle" x="345" y="-8" font-family="Helvetica,sans-Serif" font-size="10.00">&lt; random_uniform_fast &gt;</text>
</a>
</g>
<!-- Node1&#45;&gt;Node3 -->
<g id="edge4" class="edge"><title>Node1&#45;&gt;Node3</title>
<path fill="none" stroke="orange" stroke-dasharray="5,2" d="M129.741,-38.9036C174.851,-34.3134 233.257,-28.3703 277.847,-23.8331"/>
<polygon fill="orange" stroke="orange" points="129.34,-35.4262 119.745,-39.9206 130.048,-42.3903 129.34,-35.4262"/>
<text text-anchor="middle" x="199" y="-41" font-family="Helvetica,sans-Serif" font-size="10.00"> &lt; random_uniform_fast &gt;</text>
</g>
</g>
</svg>
