<?xml version="1.0" encoding="UTF-8" standalone="no"?>
<!DOCTYPE svg PUBLIC "-//W3C//DTD SVG 1.1//EN"
 "http://www.w3.org/Graphics/SVG/1.1/DTD/svg11.dtd">
<!-- Generated by graphviz version 2.26.3 (20100126.1600)
 -->
<!-- Title: stxxl::FR Pages: 1 -->
<svg width="822pt" height="143pt"
 viewBox="0.00 0.00 822.00 143.00" xmlns="http://www.w3.org/2000/svg" xmlns:xlink="http://www.w3.org/1999/xlink">
<g id="graph1" class="graph" transform="scale(1 1) rotate(0) translate(4 139)">
<title>stxxl::FR</title>
<!-- Node1 -->
<g id="node1" class="node"><title>Node1</title>
<polygon fill="#bfbfbf" stroke="black" points="758,-77.5 758,-98.5 814,-98.5 814,-77.5 758,-77.5"/>
<text text-anchor="middle" x="786" y="-85.5" font-family="Helvetica,sans-Serif" font-size="10.00">stxxl::FR</text>
</g>
<!-- Node2 -->
<g id="node2" class="node"><title>Node2</title>
<a xlink:href="structstxxl_1_1striping.html" target="_top" xlink:title="Striping disk allocation scheme functor. ">
<polygon fill="none" stroke="black" points="596.5,-98.5 596.5,-119.5 673.5,-119.5 673.5,-98.5 596.5,-98.5"/>
<text text-anchor="middle" x="635" y="-106.5" font-family="Helvetica,sans-Serif" font-size="10.00">stxxl::striping</text>
</a>
</g>
<!-- Node2&#45;&gt;Node1 -->
<g id="edge2" class="edge"><title>Node2&#45;&gt;Node1</title>
<path fill="none" stroke="midnightblue" d="M684.046,-102.179C708.436,-98.787 737.043,-94.8086 757.736,-91.9307"/>
<polygon fill="midnightblue" stroke="midnightblue" points="683.309,-98.7478 673.886,-103.592 684.273,-105.681 683.309,-98.7478"/>
</g>
<!-- Node3 -->
<g id="node4" class="node"><title>Node3</title>
<a xlink:href="structstxxl_1_1choose__int__types.html" target="_top" xlink:title="stxxl::choose_int_types\l\&lt; my_pointer_size \&gt;">
<polygon fill="none" stroke="black" points="276.5,-92 276.5,-126 401.5,-126 401.5,-92 276.5,-92"/>
<text text-anchor="start" x="284.5" y="-113" font-family="Helvetica,sans-Serif" font-size="10.00">stxxl::choose_int_types</text>
<text text-anchor="middle" x="339" y="-100" font-family="Helvetica,sans-Serif" font-size="10.00">&lt; my_pointer_size &gt;</text>
</a>
</g>
<!-- Node3&#45;&gt;Node2 -->
<g id="edge4" class="edge"><title>Node3&#45;&gt;Node2</title>
<path fill="none" stroke="#9a32cd" stroke-dasharray="5,2" d="M412.031,-109C470.307,-109 549.655,-109 596.294,-109"/>
<polygon fill="#9a32cd" stroke="#9a32cd" points="411.774,-105.5 401.774,-109 411.774,-112.5 411.774,-105.5"/>
<text text-anchor="middle" x="489" y="-126" font-family="Helvetica,sans-Serif" font-size="10.00"> begin</text>
<text text-anchor="middle" x="489" y="-113" font-family="Helvetica,sans-Serif" font-size="10.00">diff</text>
</g>
<!-- Node4 -->
<g id="node6" class="node"><title>Node4</title>
<a xlink:href="structstxxl_1_1choose__int__types.html" target="_top" xlink:title="stxxl::choose_int_types\l\&lt; PtrSize \&gt;">
<polygon fill="none" stroke="black" points="3.5,-92 3.5,-126 128.5,-126 128.5,-92 3.5,-92"/>
<text text-anchor="start" x="11.5" y="-113" font-family="Helvetica,sans-Serif" font-size="10.00">stxxl::choose_int_types</text>
<text text-anchor="middle" x="66" y="-100" font-family="Helvetica,sans-Serif" font-size="10.00">&lt; PtrSize &gt;</text>
</a>
</g>
<!-- Node4&#45;&gt;Node3 -->
<g id="edge6" class="edge"><title>Node4&#45;&gt;Node3</title>
<path fill="none" stroke="orange" stroke-dasharray="5,2" d="M138.714,-109C181.55,-109 235.198,-109 276.188,-109"/>
<polygon fill="orange" stroke="orange" points="138.632,-105.5 128.632,-109 138.632,-112.5 138.632,-105.5"/>
<text text-anchor="middle" x="200" y="-113" font-family="Helvetica,sans-Serif" font-size="10.00"> &lt; my_pointer_size &gt;</text>
</g>
<!-- Node5 -->
<g id="node8" class="node"><title>Node5</title>
<a xlink:href="structstxxl_1_1random__number.html" target="_top" xlink:title="stxxl::random_number\l\&lt; random_uniform_fast \&gt;">
<polygon fill="none" stroke="black" points="568,-46 568,-80 702,-80 702,-46 568,-46"/>
<text text-anchor="start" x="576" y="-67" font-family="Helvetica,sans-Serif" font-size="10.00">stxxl::random_number</text>
<text text-anchor="middle" x="635" y="-54" font-family="Helvetica,sans-Serif" font-size="10.00">&lt; random_uniform_fast &gt;</text>
</a>
</g>
<!-- Node5&#45;&gt;Node1 -->
<g id="edge8" class="edge"><title>Node5&#45;&gt;Node1</title>
<path fill="none" stroke="#9a32cd" stroke-dasharray="5,2" d="M712.23,-72.3813C721.608,-73.7904 731.037,-75.3353 740,-77 745.813,-78.0796 751.994,-79.422 757.878,-80.7941"/>
<polygon fill="#9a32cd" stroke="#9a32cd" points="712.498,-68.8835 702.098,-70.9063 711.49,-75.8104 712.498,-68.8835"/>
<text text-anchor="middle" x="730" y="-81" font-family="Helvetica,sans-Serif" font-size="10.00"> rnd</text>
</g>
<!-- Node6 -->
<g id="node10" class="node"><title>Node6</title>
<a xlink:href="structstxxl_1_1random__uniform__fast.html" target="_top" xlink:title="Fast uniform [0.0, 1.0) pseudo&#45;random generator. ">
<polygon fill="none" stroke="black" points="268,-52.5 268,-73.5 410,-73.5 410,-52.5 268,-52.5"/>
<text text-anchor="middle" x="339" y="-60.5" font-family="Helvetica,sans-Serif" font-size="10.00">stxxl::random_uniform_fast</text>
</a>
</g>
<!-- Node6&#45;&gt;Node5 -->
<g id="edge10" class="edge"><title>Node6&#45;&gt;Node5</title>
<path fill="none" stroke="#9a32cd" stroke-dasharray="5,2" d="M420.297,-63C466.676,-63 524.106,-63 567.897,-63"/>
<polygon fill="#9a32cd" stroke="#9a32cd" points="420.276,-59.5001 410.276,-63 420.276,-66.5001 420.276,-59.5001"/>
<text text-anchor="middle" x="489" y="-67" font-family="Helvetica,sans-Serif" font-size="10.00"> uniform</text>
</g>
<!-- Node7 -->
<g id="node12" class="node"><title>Node7</title>
<a xlink:href="structstxxl_1_1random__number32.html" target="_top" xlink:title="Fast uniform [0, 2^32) pseudo&#45;random generator with period 2^32, random bits: 32. ...">
<polygon fill="none" stroke="black" points="0.5,-52.5 0.5,-73.5 131.5,-73.5 131.5,-52.5 0.5,-52.5"/>
<text text-anchor="middle" x="66" y="-60.5" font-family="Helvetica,sans-Serif" font-size="10.00">stxxl::random_number32</text>
</a>
</g>
<!-- Node7&#45;&gt;Node6 -->
<g id="edge12" class="edge"><title>Node7&#45;&gt;Node6</title>
<path fill="none" stroke="#9a32cd" stroke-dasharray="5,2" d="M141.808,-63C181.147,-63 228.932,-63 267.61,-63"/>
<polygon fill="#9a32cd" stroke="#9a32cd" points="141.738,-59.5001 131.738,-63 141.738,-66.5001 141.738,-59.5001"/>
<text text-anchor="middle" x="200" y="-67" font-family="Helvetica,sans-Serif" font-size="10.00"> rnd32</text>
</g>
<!-- Node8 -->
<g id="node14" class="node"><title>Node8</title>
<a xlink:href="structstxxl_1_1random__number.html" target="_top" xlink:title="Uniform [0, N) pseudo&#45;random generator. ">
<polygon fill="none" stroke="black" points="279.5,-0 279.5,-34 398.5,-34 398.5,-0 279.5,-0"/>
<text text-anchor="start" x="287.5" y="-21" font-family="Helvetica,sans-Serif" font-size="10.00">stxxl::random_number</text>
<text text-anchor="middle" x="339" y="-8" font-family="Helvetica,sans-Serif" font-size="10.00">&lt; UniformRGen &gt;</text>
</a>
</g>
<!-- Node8&#45;&gt;Node5 -->
<g id="edge14" class="edge"><title>Node8&#45;&gt;Node5</title>
<path fill="none" stroke="orange" stroke-dasharray="5,2" d="M408.657,-25.4919C449.858,-30.7841 503.01,-38.0794 550,-46 555.788,-46.9755 561.784,-48.0484 567.793,-49.1663"/>
<polygon fill="orange" stroke="orange" points="409.081,-22.0178 398.719,-24.2244 408.196,-28.9615 409.081,-22.0178"/>
<text text-anchor="middle" x="489" y="-50" font-family="Helvetica,sans-Serif" font-size="10.00"> &lt; random_uniform_fast &gt;</text>
</g>
</g>
</svg>
