<?xml version="1.0" encoding="UTF-8" standalone="no"?>
<!DOCTYPE svg PUBLIC "-//W3C//DTD SVG 1.1//EN"
 "http://www.w3.org/Graphics/SVG/1.1/DTD/svg11.dtd">
<!-- Generated by graphviz version 2.26.3 (20100126.1600)
 -->
<!-- Title: stxxl::matrix_operation_statistic_dataset Pages: 1 -->
<svg width="270pt" height="116pt"
 viewBox="0.00 0.00 270.00 116.00" xmlns="http://www.w3.org/2000/svg" xmlns:xlink="http://www.w3.org/1999/xlink">
<g id="graph1" class="graph" transform="scale(1 1) rotate(0) translate(4 112)">
<title>stxxl::matrix_operation_statistic_dataset</title>
<!-- Node1 -->
<g id="node1" class="node"><title>Node1</title>
<polygon fill="#bfbfbf" stroke="black" points="70,-73 70,-107 192,-107 192,-73 70,-73"/>
<text text-anchor="start" x="78" y="-94" font-family="Helvetica,sans-Serif" font-size="10.00">stxxl::matrix_operation</text>
<text text-anchor="middle" x="131" y="-81" font-family="Helvetica,sans-Serif" font-size="10.00">_statistic_dataset</text>
</g>
<!-- Node2 -->
<g id="node3" class="node"><title>Node2</title>
<a xlink:href="structstxxl_1_1matrix__operation__statistic.html" target="_top" xlink:title="stxxl::matrix_operation\l_statistic">
<polygon fill="none" stroke="black" points="0,-1 0,-35 122,-35 122,-1 0,-1"/>
<text text-anchor="start" x="8" y="-22" font-family="Helvetica,sans-Serif" font-size="10.00">stxxl::matrix_operation</text>
<text text-anchor="middle" x="61" y="-9" font-family="Helvetica,sans-Serif" font-size="10.00">_statistic</text>
</a>
</g>
<!-- Node1&#45;&gt;Node2 -->
<g id="edge2" class="edge"><title>Node1&#45;&gt;Node2</title>
<path fill="none" stroke="midnightblue" d="M107.346,-65.6706C97.7063,-55.7551 86.7786,-44.5151 77.9562,-35.4407"/>
<polygon fill="midnightblue" stroke="midnightblue" points="104.931,-68.2068 114.411,-72.937 109.95,-63.3272 104.931,-68.2068"/>
</g>
<!-- Node3 -->
<g id="node5" class="node"><title>Node3</title>
<a xlink:href="structstxxl_1_1matrix__operation__statistic__data.html" target="_top" xlink:title="stxxl::matrix_operation\l_statistic_data">
<polygon fill="none" stroke="black" points="140,-1 140,-35 262,-35 262,-1 140,-1"/>
<text text-anchor="start" x="148" y="-22" font-family="Helvetica,sans-Serif" font-size="10.00">stxxl::matrix_operation</text>
<text text-anchor="middle" x="201" y="-9" font-family="Helvetica,sans-Serif" font-size="10.00">_statistic_data</text>
</a>
</g>
<!-- Node1&#45;&gt;Node3 -->
<g id="edge4" class="edge"><title>Node1&#45;&gt;Node3</title>
<path fill="none" stroke="midnightblue" d="M154.654,-65.6706C164.294,-55.7551 175.221,-44.5151 184.044,-35.4407"/>
<polygon fill="midnightblue" stroke="midnightblue" points="152.05,-63.3272 147.589,-72.937 157.069,-68.2068 152.05,-63.3272"/>
</g>
</g>
</svg>
