<?xml version="1.0" encoding="UTF-8" standalone="no"?>
<!DOCTYPE svg PUBLIC "-//W3C//DTD SVG 1.1//EN"
 "http://www.w3.org/Graphics/SVG/1.1/DTD/svg11.dtd">
<!-- Generated by graphviz version 2.26.3 (20100126.1600)
 -->
<!-- Title: stxxl::runs2bid_array_adaptor2&lt; BlockSize, RunType, PosType &gt; Pages: 1 -->
<svg width="232pt" height="280pt"
 viewBox="0.00 0.00 232.00 280.00" xmlns="http://www.w3.org/2000/svg" xmlns:xlink="http://www.w3.org/1999/xlink">
<g id="graph1" class="graph" transform="scale(1 1) rotate(0) translate(4 276)">
<title>stxxl::runs2bid_array_adaptor2&lt; BlockSize, RunType, PosType &gt;</title>
<!-- Node1 -->
<g id="node1" class="node"><title>Node1</title>
<polygon fill="#bfbfbf" stroke="black" points="22,-0.5 22,-47.5 144,-47.5 144,-0.5 22,-0.5"/>
<text text-anchor="start" x="30" y="-34.5" font-family="Helvetica,sans-Serif" font-size="10.00">stxxl::runs2bid_array</text>
<text text-anchor="start" x="30" y="-21.5" font-family="Helvetica,sans-Serif" font-size="10.00">_adaptor2&lt; BlockSize,</text>
<text text-anchor="middle" x="83" y="-8.5" font-family="Helvetica,sans-Serif" font-size="10.00"> RunType, PosType &gt;</text>
</g>
<!-- Node2 -->
<g id="node2" class="node"><title>Node2</title>
<a xlink:href="structstxxl_1_1two2one__dim__array__adapter__base.html" target="_top" xlink:title="stxxl::two2one_dim\l_array_adapter_base\l\&lt; RunType *, BID\&lt; BlockSize\l \&gt;, PosType \&gt;">
<polygon fill="none" stroke="black" points="6,-87 6,-147 160,-147 160,-87 6,-87"/>
<text text-anchor="start" x="14" y="-134" font-family="Helvetica,sans-Serif" font-size="10.00">stxxl::two2one_dim</text>
<text text-anchor="start" x="14" y="-121" font-family="Helvetica,sans-Serif" font-size="10.00">_array_adapter_base</text>
<text text-anchor="start" x="14" y="-108" font-family="Helvetica,sans-Serif" font-size="10.00">&lt; RunType *, BID&lt; BlockSize</text>
<text text-anchor="middle" x="83" y="-95" font-family="Helvetica,sans-Serif" font-size="10.00"> &gt;, PosType &gt;</text>
</a>
</g>
<!-- Node2&#45;&gt;Node1 -->
<g id="edge2" class="edge"><title>Node2&#45;&gt;Node1</title>
<path fill="none" stroke="midnightblue" d="M83,-76.6661C83,-66.7288 83,-56.4089 83,-47.5655"/>
<polygon fill="midnightblue" stroke="midnightblue" points="79.5001,-76.8055 83,-86.8056 86.5001,-76.8056 79.5001,-76.8055"/>
</g>
<!-- Node3 -->
<g id="node4" class="node"><title>Node3</title>
<a xlink:href="structstxxl_1_1two2one__dim__array__adapter__base.html" target="_top" xlink:title="stxxl::two2one_dim\l_array_adapter_base\l\&lt; OneDimArrayType, DataType,\l PosType \&gt;">
<polygon fill="none" stroke="black" points="-0.5,-211 -0.5,-271 166.5,-271 166.5,-211 -0.5,-211"/>
<text text-anchor="start" x="7.5" y="-258" font-family="Helvetica,sans-Serif" font-size="10.00">stxxl::two2one_dim</text>
<text text-anchor="start" x="7.5" y="-245" font-family="Helvetica,sans-Serif" font-size="10.00">_array_adapter_base</text>
<text text-anchor="start" x="7.5" y="-232" font-family="Helvetica,sans-Serif" font-size="10.00">&lt; OneDimArrayType, DataType,</text>
<text text-anchor="middle" x="83" y="-219" font-family="Helvetica,sans-Serif" font-size="10.00"> PosType &gt;</text>
</a>
</g>
<!-- Node3&#45;&gt;Node2 -->
<g id="edge4" class="edge"><title>Node3&#45;&gt;Node2</title>
<path fill="none" stroke="orange" stroke-dasharray="5,2" d="M83,-200.555C83,-183.178 83,-163.222 83,-147.17"/>
<polygon fill="orange" stroke="orange" points="79.5001,-200.983 83,-210.983 86.5001,-200.983 79.5001,-200.983"/>
<text text-anchor="start" x="83" y="-183" font-family="Helvetica,sans-Serif" font-size="10.00"> &lt; RunType *, BID&lt; BlockSize</text>
<text text-anchor="middle" x="153.5" y="-170" font-family="Helvetica,sans-Serif" font-size="10.00"> &gt;, PosType &gt;</text>
</g>
</g>
</svg>
