<?xml version="1.0" encoding="UTF-8" standalone="no"?>
<!DOCTYPE svg PUBLIC "-//W3C//DTD SVG 1.1//EN"
 "http://www.w3.org/Graphics/SVG/1.1/DTD/svg11.dtd">
<!-- Generated by graphviz version 2.26.3 (20100126.1600)
 -->
<!-- Title: stxxl::striping Pages: 1 -->
<svg width="212pt" height="146pt"
 viewBox="0.00 0.00 212.00 146.00" xmlns="http://www.w3.org/2000/svg" xmlns:xlink="http://www.w3.org/1999/xlink">
<g id="graph1" class="graph" transform="scale(1 1) rotate(0) translate(4 142)">
<title>stxxl::striping</title>
<!-- Node1 -->
<g id="node1" class="node"><title>Node1</title>
<polygon fill="#bfbfbf" stroke="black" points="63.5,-116.5 63.5,-137.5 140.5,-137.5 140.5,-116.5 63.5,-116.5"/>
<text text-anchor="middle" x="102" y="-124.5" font-family="Helvetica,sans-Serif" font-size="10.00">stxxl::striping</text>
</g>
<!-- Node2 -->
<g id="node3" class="node"><title>Node2</title>
<a xlink:href="structstxxl_1_1FR.html" target="_top" xlink:title="Fully randomized disk allocation scheme functor. ">
<polygon fill="none" stroke="black" points="0,-58.5 0,-79.5 56,-79.5 56,-58.5 0,-58.5"/>
<text text-anchor="middle" x="28" y="-66.5" font-family="Helvetica,sans-Serif" font-size="10.00">stxxl::FR</text>
</a>
</g>
<!-- Node1&#45;&gt;Node2 -->
<g id="edge2" class="edge"><title>Node1&#45;&gt;Node2</title>
<path fill="none" stroke="midnightblue" d="M80.2789,-109.975C67.7195,-100.132 52.311,-88.0545 41.4867,-79.5707"/>
<polygon fill="midnightblue" stroke="midnightblue" points="78.3976,-112.948 88.4273,-116.362 82.7158,-107.438 78.3976,-112.948"/>
</g>
<!-- Node3 -->
<g id="node5" class="node"><title>Node3</title>
<a xlink:href="structstxxl_1_1RC.html" target="_top" xlink:title="Randomized cycling disk allocation scheme functor. ">
<polygon fill="none" stroke="black" points="73.5,-58.5 73.5,-79.5 130.5,-79.5 130.5,-58.5 73.5,-58.5"/>
<text text-anchor="middle" x="102" y="-66.5" font-family="Helvetica,sans-Serif" font-size="10.00">stxxl::RC</text>
</a>
</g>
<!-- Node1&#45;&gt;Node3 -->
<g id="edge4" class="edge"><title>Node1&#45;&gt;Node3</title>
<path fill="none" stroke="midnightblue" d="M102,-106.191C102,-97.1684 102,-86.9941 102,-79.5707"/>
<polygon fill="midnightblue" stroke="midnightblue" points="98.5001,-106.362 102,-116.362 105.5,-106.362 98.5001,-106.362"/>
</g>
<!-- Node6 -->
<g id="node11" class="node"><title>Node6</title>
<a xlink:href="structstxxl_1_1SR.html" target="_top" xlink:title="Simple randomized disk allocation scheme functor. ">
<polygon fill="none" stroke="black" points="148,-58.5 148,-79.5 204,-79.5 204,-58.5 148,-58.5"/>
<text text-anchor="middle" x="176" y="-66.5" font-family="Helvetica,sans-Serif" font-size="10.00">stxxl::SR</text>
</a>
</g>
<!-- Node1&#45;&gt;Node6 -->
<g id="edge10" class="edge"><title>Node1&#45;&gt;Node6</title>
<path fill="none" stroke="midnightblue" d="M123.721,-109.975C136.28,-100.132 151.689,-88.0545 162.513,-79.5707"/>
<polygon fill="midnightblue" stroke="midnightblue" points="121.284,-107.438 115.573,-116.362 125.602,-112.948 121.284,-107.438"/>
</g>
<!-- Node4 -->
<g id="node7" class="node"><title>Node4</title>
<a xlink:href="structstxxl_1_1RC__disk.html" target="_top" xlink:title="stxxl::RC_disk">
<polygon fill="none" stroke="black" points="10,-0.5 10,-21.5 92,-21.5 92,-0.5 10,-0.5"/>
<text text-anchor="middle" x="51" y="-8.5" font-family="Helvetica,sans-Serif" font-size="10.00">stxxl::RC_disk</text>
</a>
</g>
<!-- Node3&#45;&gt;Node4 -->
<g id="edge6" class="edge"><title>Node3&#45;&gt;Node4</title>
<path fill="none" stroke="midnightblue" d="M86.0229,-50.8299C77.5621,-41.2078 67.4679,-29.7282 60.2949,-21.5707"/>
<polygon fill="midnightblue" stroke="midnightblue" points="83.414,-53.1634 92.6458,-58.3619 88.6708,-48.541 83.414,-53.1634"/>
</g>
<!-- Node5 -->
<g id="node9" class="node"><title>Node5</title>
<a xlink:href="structstxxl_1_1RC__flash.html" target="_top" xlink:title="stxxl::RC_flash">
<polygon fill="none" stroke="black" points="110,-0.5 110,-21.5 196,-21.5 196,-0.5 110,-0.5"/>
<text text-anchor="middle" x="153" y="-8.5" font-family="Helvetica,sans-Serif" font-size="10.00">stxxl::RC_flash</text>
</a>
</g>
<!-- Node3&#45;&gt;Node5 -->
<g id="edge8" class="edge"><title>Node3&#45;&gt;Node5</title>
<path fill="none" stroke="midnightblue" d="M117.977,-50.8299C126.438,-41.2078 136.532,-29.7282 143.705,-21.5707"/>
<polygon fill="midnightblue" stroke="midnightblue" points="115.329,-48.541 111.354,-58.3619 120.586,-53.1634 115.329,-48.541"/>
</g>
</g>
</svg>
