<?xml version="1.0" encoding="UTF-8" standalone="no"?>
<!DOCTYPE svg PUBLIC "-//W3C//DTD SVG 1.1//EN"
 "http://www.w3.org/Graphics/SVG/1.1/DTD/svg11.dtd">
<!-- Generated by graphviz version 2.26.3 (20100126.1600)
 -->
<!-- Title: stxxl::matrix_operation_statistic Pages: 1 -->
<svg width="708pt" height="94pt"
 viewBox="0.00 0.00 708.00 94.00" xmlns="http://www.w3.org/2000/svg" xmlns:xlink="http://www.w3.org/1999/xlink">
<g id="graph1" class="graph" transform="scale(1 1) rotate(0) translate(4 90)">
<title>stxxl::matrix_operation_statistic</title>
<!-- Node1 -->
<g id="node1" class="node"><title>Node1</title>
<polygon fill="#bfbfbf" stroke="black" points="578,-19 578,-53 700,-53 700,-19 578,-19"/>
<text text-anchor="start" x="586" y="-40" font-family="Helvetica,sans-Serif" font-size="10.00">stxxl::matrix_operation</text>
<text text-anchor="middle" x="639" y="-27" font-family="Helvetica,sans-Serif" font-size="10.00">_statistic</text>
</g>
<!-- Node2 -->
<g id="node2" class="node"><title>Node2</title>
<a xlink:href="classstxxl_1_1singleton.html" target="_top" xlink:title="stxxl::singleton\&lt; matrix\l_operation_statistic \&gt;">
<polygon fill="none" stroke="black" points="418,-52 418,-86 540,-86 540,-52 418,-52"/>
<text text-anchor="start" x="426" y="-73" font-family="Helvetica,sans-Serif" font-size="10.00">stxxl::singleton&lt; matrix</text>
<text text-anchor="middle" x="479" y="-60" font-family="Helvetica,sans-Serif" font-size="10.00">_operation_statistic &gt;</text>
</a>
</g>
<!-- Node2&#45;&gt;Node1 -->
<g id="edge2" class="edge"><title>Node2&#45;&gt;Node1</title>
<path fill="none" stroke="midnightblue" d="M550.271,-54.3003C559.443,-52.4086 568.77,-50.4849 577.762,-48.6304"/>
<polygon fill="midnightblue" stroke="midnightblue" points="549.489,-50.8878 540.403,-56.3357 550.903,-57.7435 549.489,-50.8878"/>
</g>
<!-- Node3 -->
<g id="node4" class="node"><title>Node3</title>
<a xlink:href="classstxxl_1_1noncopyable.html" target="_top" xlink:title="stxxl::noncopyable">
<polygon fill="none" stroke="black" points="0,-62.5 0,-83.5 102,-83.5 102,-62.5 0,-62.5"/>
<text text-anchor="middle" x="51" y="-70.5" font-family="Helvetica,sans-Serif" font-size="10.00">stxxl::noncopyable</text>
</a>
</g>
<!-- Node3&#45;&gt;Node2 -->
<g id="edge4" class="edge"><title>Node3&#45;&gt;Node2</title>
<path fill="none" stroke="#8b1a1a" d="M112.553,-76.0055C182.315,-78.8771 299.41,-82.0802 400,-77 405.783,-76.708 411.794,-76.2964 417.804,-75.8124"/>
<polygon fill="#8b1a1a" stroke="#8b1a1a" points="112.332,-72.4931 102.193,-75.567 112.036,-79.4868 112.332,-72.4931"/>
</g>
<!-- Node4 -->
<g id="node6" class="node"><title>Node4</title>
<a xlink:href="classstxxl_1_1singleton.html" target="_top" xlink:title="stxxl::singleton\&lt; INSTANCE,\l destroy_on_exit \&gt;">
<polygon fill="none" stroke="black" points="140.5,-29 140.5,-63 289.5,-63 289.5,-29 140.5,-29"/>
<text text-anchor="start" x="148.5" y="-50" font-family="Helvetica,sans-Serif" font-size="10.00">stxxl::singleton&lt; INSTANCE,</text>
<text text-anchor="middle" x="215" y="-37" font-family="Helvetica,sans-Serif" font-size="10.00"> destroy_on_exit &gt;</text>
</a>
</g>
<!-- Node3&#45;&gt;Node4 -->
<g id="edge8" class="edge"><title>Node3&#45;&gt;Node4</title>
<path fill="none" stroke="#8b1a1a" d="M112.508,-62.8737C121.582,-61.3798 131.013,-59.8271 140.318,-58.2951"/>
<polygon fill="#8b1a1a" stroke="#8b1a1a" points="111.739,-59.453 102.441,-64.5311 112.876,-66.3601 111.739,-59.453"/>
</g>
<!-- Node4&#45;&gt;Node2 -->
<g id="edge6" class="edge"><title>Node4&#45;&gt;Node2</title>
<path fill="none" stroke="orange" stroke-dasharray="5,2" d="M299.612,-44.7913C331.218,-45.2567 367.353,-46.8804 400,-51 405.862,-51.7396 411.926,-52.7211 417.97,-53.8451"/>
<polygon fill="orange" stroke="orange" points="299.557,-41.2906 289.519,-44.6792 299.48,-48.2902 299.557,-41.2906"/>
<text text-anchor="start" x="308" y="-68" font-family="Helvetica,sans-Serif" font-size="10.00"> &lt; matrix_operation</text>
<text text-anchor="middle" x="354" y="-55" font-family="Helvetica,sans-Serif" font-size="10.00">_statistic &gt;</text>
</g>
<!-- Node5 -->
<g id="node9" class="node"><title>Node5</title>
<a xlink:href="structstxxl_1_1matrix__operation__statistic__dataset.html" target="_top" xlink:title="stxxl::matrix_operation\l_statistic_dataset">
<polygon fill="none" stroke="black" points="418,-0 418,-34 540,-34 540,-0 418,-0"/>
<text text-anchor="start" x="426" y="-21" font-family="Helvetica,sans-Serif" font-size="10.00">stxxl::matrix_operation</text>
<text text-anchor="middle" x="479" y="-8" font-family="Helvetica,sans-Serif" font-size="10.00">_statistic_dataset</text>
</a>
</g>
<!-- Node5&#45;&gt;Node1 -->
<g id="edge10" class="edge"><title>Node5&#45;&gt;Node1</title>
<path fill="none" stroke="midnightblue" d="M550.564,-25.4982C559.642,-26.5762 568.866,-27.6715 577.762,-28.728"/>
<polygon fill="midnightblue" stroke="midnightblue" points="550.746,-21.9953 540.403,-24.2916 549.92,-28.9464 550.746,-21.9953"/>
</g>
</g>
</svg>
