<?xml version="1.0" encoding="UTF-8" standalone="no"?>
<!DOCTYPE svg PUBLIC "-//W3C//DTD SVG 1.1//EN"
 "http://www.w3.org/Graphics/SVG/1.1/DTD/svg11.dtd">
<!-- Generated by graphviz version 2.26.3 (20100126.1600)
 -->
<!-- Title: stxxl::RC Pages: 1 -->
<svg width="169pt" height="274pt"
 viewBox="0.00 0.00 169.00 274.00" xmlns="http://www.w3.org/2000/svg" xmlns:xlink="http://www.w3.org/1999/xlink">
<g id="graph1" class="graph" transform="scale(1 1) rotate(0) translate(4 270)">
<title>stxxl::RC</title>
<!-- Node1 -->
<g id="node1" class="node"><title>Node1</title>
<polygon fill="#bfbfbf" stroke="black" points="33.5,-0.5 33.5,-21.5 90.5,-21.5 90.5,-0.5 33.5,-0.5"/>
<text text-anchor="middle" x="62" y="-8.5" font-family="Helvetica,sans-Serif" font-size="10.00">stxxl::RC</text>
</g>
<!-- Node2 -->
<g id="node2" class="node"><title>Node2</title>
<a xlink:href="structstxxl_1_1striping.html" target="_top" xlink:title="Striping disk allocation scheme functor. ">
<polygon fill="none" stroke="black" points="23.5,-60.5 23.5,-81.5 100.5,-81.5 100.5,-60.5 23.5,-60.5"/>
<text text-anchor="middle" x="62" y="-68.5" font-family="Helvetica,sans-Serif" font-size="10.00">stxxl::striping</text>
</a>
</g>
<!-- Node2&#45;&gt;Node1 -->
<g id="edge2" class="edge"><title>Node2&#45;&gt;Node1</title>
<path fill="none" stroke="midnightblue" d="M62,-50.2312C62,-40.5922 62,-29.5444 62,-21.6339"/>
<polygon fill="midnightblue" stroke="midnightblue" points="58.5001,-50.2732 62,-60.2732 65.5001,-50.2732 58.5001,-50.2732"/>
</g>
<!-- Node3 -->
<g id="node4" class="node"><title>Node3</title>
<a xlink:href="structstxxl_1_1choose__int__types.html" target="_top" xlink:title="stxxl::choose_int_types\l\&lt; my_pointer_size \&gt;">
<polygon fill="none" stroke="black" points="-0.5,-145 -0.5,-179 124.5,-179 124.5,-145 -0.5,-145"/>
<text text-anchor="start" x="7.5" y="-166" font-family="Helvetica,sans-Serif" font-size="10.00">stxxl::choose_int_types</text>
<text text-anchor="middle" x="62" y="-153" font-family="Helvetica,sans-Serif" font-size="10.00">&lt; my_pointer_size &gt;</text>
</a>
</g>
<!-- Node3&#45;&gt;Node2 -->
<g id="edge4" class="edge"><title>Node3&#45;&gt;Node2</title>
<path fill="none" stroke="#9a32cd" stroke-dasharray="5,2" d="M62,-134.712C62,-116.817 62,-94.4224 62,-81.5097"/>
<polygon fill="#9a32cd" stroke="#9a32cd" points="58.5001,-134.884 62,-144.884 65.5001,-134.884 58.5001,-134.884"/>
<text text-anchor="middle" x="76.5" y="-117" font-family="Helvetica,sans-Serif" font-size="10.00"> begin</text>
<text text-anchor="middle" x="76.5" y="-104" font-family="Helvetica,sans-Serif" font-size="10.00">diff</text>
</g>
<!-- Node4 -->
<g id="node6" class="node"><title>Node4</title>
<a xlink:href="structstxxl_1_1choose__int__types.html" target="_top" xlink:title="stxxl::choose_int_types\l\&lt; PtrSize \&gt;">
<polygon fill="none" stroke="black" points="-0.5,-231 -0.5,-265 124.5,-265 124.5,-231 -0.5,-231"/>
<text text-anchor="start" x="7.5" y="-252" font-family="Helvetica,sans-Serif" font-size="10.00">stxxl::choose_int_types</text>
<text text-anchor="middle" x="62" y="-239" font-family="Helvetica,sans-Serif" font-size="10.00">&lt; PtrSize &gt;</text>
</a>
</g>
<!-- Node4&#45;&gt;Node3 -->
<g id="edge6" class="edge"><title>Node4&#45;&gt;Node3</title>
<path fill="none" stroke="orange" stroke-dasharray="5,2" d="M62,-220.342C62,-206.774 62,-190.861 62,-179.084"/>
<polygon fill="orange" stroke="orange" points="58.5001,-220.597 62,-230.597 65.5001,-220.597 58.5001,-220.597"/>
<text text-anchor="middle" x="111.5" y="-202.5" font-family="Helvetica,sans-Serif" font-size="10.00"> &lt; my_pointer_size &gt;</text>
</g>
</g>
</svg>
