<?xml version="1.0" encoding="UTF-8" standalone="no"?>
<!DOCTYPE svg PUBLIC "-//W3C//DTD SVG 1.1//EN"
 "http://www.w3.org/Graphics/SVG/1.1/DTD/svg11.dtd">
<!-- Generated by graphviz version 2.26.3 (20100126.1600)
 -->
<!-- Title: stxxl::BID&lt; 0 &gt; Pages: 1 -->
<svg width="351pt" height="360pt"
 viewBox="0.00 0.00 351.00 360.00" xmlns="http://www.w3.org/2000/svg" xmlns:xlink="http://www.w3.org/1999/xlink">
<g id="graph1" class="graph" transform="scale(1 1) rotate(0) translate(4 356)">
<title>stxxl::BID&lt; 0 &gt;</title>
<!-- Node1 -->
<g id="node1" class="node"><title>Node1</title>
<polygon fill="#bfbfbf" stroke="black" points="16.5,-0.5 16.5,-21.5 99.5,-21.5 99.5,-0.5 16.5,-0.5"/>
<text text-anchor="middle" x="58" y="-8.5" font-family="Helvetica,sans-Serif" font-size="10.00">stxxl::BID&lt; 0 &gt;</text>
</g>
<!-- Node2 -->
<g id="node2" class="node"><title>Node2</title>
<a xlink:href="classstxxl_1_1file.html" target="_top" xlink:title="Defines interface of file. ">
<polygon fill="none" stroke="black" points="30,-72.5 30,-93.5 86,-93.5 86,-72.5 30,-72.5"/>
<text text-anchor="middle" x="58" y="-80.5" font-family="Helvetica,sans-Serif" font-size="10.00">stxxl::file</text>
</a>
</g>
<!-- Node2&#45;&gt;Node1 -->
<g id="edge2" class="edge"><title>Node2&#45;&gt;Node1</title>
<path fill="none" stroke="#9a32cd" stroke-dasharray="5,2" d="M58,-62.2348C58,-48.969 58,-32.3188 58,-21.6674"/>
<polygon fill="#9a32cd" stroke="#9a32cd" points="54.5001,-62.3761 58,-72.3762 61.5001,-62.3762 54.5001,-62.3761"/>
<text text-anchor="middle" x="78" y="-44.5" font-family="Helvetica,sans-Serif" font-size="10.00"> storage</text>
</g>
<!-- Node3 -->
<g id="node4" class="node"><title>Node3</title>
<a xlink:href="classstxxl_1_1noncopyable.html" target="_top" xlink:title="stxxl::noncopyable">
<polygon fill="none" stroke="black" points="0,-323.5 0,-344.5 102,-344.5 102,-323.5 0,-323.5"/>
<text text-anchor="middle" x="51" y="-331.5" font-family="Helvetica,sans-Serif" font-size="10.00">stxxl::noncopyable</text>
</a>
</g>
<!-- Node3&#45;&gt;Node2 -->
<g id="edge4" class="edge"><title>Node3&#45;&gt;Node2</title>
<path fill="none" stroke="#8b1a1a" d="M49.3318,-312.856C46.8594,-277.728 43.0208,-205.152 48,-144 49.4457,-126.244 53.2212,-105.867 55.6972,-93.7334"/>
<polygon fill="#8b1a1a" stroke="#8b1a1a" points="45.8735,-313.549 50.1032,-323.263 52.8543,-313.032 45.8735,-313.549"/>
</g>
<!-- Node5 -->
<g id="node8" class="node"><title>Node5</title>
<a xlink:href="classstxxl_1_1mutex.html" target="_top" xlink:title="stxxl::mutex">
<polygon fill="none" stroke="black" points="57,-237.5 57,-258.5 127,-258.5 127,-237.5 57,-237.5"/>
<text text-anchor="middle" x="92" y="-245.5" font-family="Helvetica,sans-Serif" font-size="10.00">stxxl::mutex</text>
</a>
</g>
<!-- Node3&#45;&gt;Node5 -->
<g id="edge10" class="edge"><title>Node3&#45;&gt;Node5</title>
<path fill="none" stroke="#8b1a1a" d="M60.4235,-314.234C68.6694,-296.937 80.3324,-272.474 86.9315,-258.632"/>
<polygon fill="#8b1a1a" stroke="#8b1a1a" points="57.1715,-312.922 56.0274,-323.455 63.4902,-315.934 57.1715,-312.922"/>
</g>
<!-- Node4 -->
<g id="node6" class="node"><title>Node4</title>
<a xlink:href="classstxxl_1_1atomic__counted__object.html" target="_top" xlink:title="Provides reference counting abilities for use with counting_ptr with mutex locking. ">
<polygon fill="none" stroke="black" points="57,-145 57,-179 173,-179 173,-145 57,-145"/>
<text text-anchor="start" x="65" y="-166" font-family="Helvetica,sans-Serif" font-size="10.00">stxxl::atomic_counted</text>
<text text-anchor="middle" x="115" y="-153" font-family="Helvetica,sans-Serif" font-size="10.00">_object</text>
</a>
</g>
<!-- Node4&#45;&gt;Node2 -->
<g id="edge6" class="edge"><title>Node4&#45;&gt;Node2</title>
<path fill="none" stroke="#9a32cd" stroke-dasharray="5,2" d="M96.7356,-136.686C86.2112,-122.1 73.5393,-104.537 65.6244,-93.5672"/>
<polygon fill="#9a32cd" stroke="#9a32cd" points="93.9423,-138.797 102.632,-144.858 99.619,-134.701 93.9423,-138.797"/>
<text text-anchor="middle" x="125" y="-116.5" font-family="Helvetica,sans-Serif" font-size="10.00"> m_request_ref</text>
</g>
<!-- Node5&#45;&gt;Node4 -->
<g id="edge8" class="edge"><title>Node5&#45;&gt;Node4</title>
<path fill="none" stroke="#9a32cd" stroke-dasharray="5,2" d="M90.0069,-227.277C89.7373,-218.134 90.2648,-207.361 93,-198 94.931,-191.391 98.4101,-184.782 102.04,-179.064"/>
<polygon fill="#9a32cd" stroke="#9a32cd" points="86.5234,-227.653 90.636,-237.417 93.5099,-227.219 86.5234,-227.653"/>
<text text-anchor="middle" x="157.5" y="-202.5" font-family="Helvetica,sans-Serif" font-size="10.00"> m_reference_count_mutex</text>
</g>
<!-- Node6 -->
<g id="node11" class="node"><title>Node6</title>
<a xlink:href="structstxxl_1_1choose__int__types.html" target="_top" xlink:title="stxxl::choose_int_types\l\&lt; my_pointer_size \&gt;">
<polygon fill="none" stroke="black" points="181.5,-231 181.5,-265 306.5,-265 306.5,-231 181.5,-231"/>
<text text-anchor="start" x="189.5" y="-252" font-family="Helvetica,sans-Serif" font-size="10.00">stxxl::choose_int_types</text>
<text text-anchor="middle" x="244" y="-239" font-family="Helvetica,sans-Serif" font-size="10.00">&lt; my_pointer_size &gt;</text>
</a>
</g>
<!-- Node6&#45;&gt;Node4 -->
<g id="edge12" class="edge"><title>Node6&#45;&gt;Node4</title>
<path fill="none" stroke="#9a32cd" stroke-dasharray="5,2" d="M236.869,-221.099C233.526,-212.764 228.743,-204.162 222,-198 208.472,-185.638 190.553,-177.503 173.254,-172.158"/>
<polygon fill="#9a32cd" stroke="#9a32cd" points="233.58,-222.297 240.164,-230.598 240.194,-220.003 233.58,-222.297"/>
<text text-anchor="middle" x="278.5" y="-202.5" font-family="Helvetica,sans-Serif" font-size="10.00"> m_reference_count</text>
</g>
<!-- Node7 -->
<g id="node13" class="node"><title>Node7</title>
<a xlink:href="structstxxl_1_1choose__int__types.html" target="_top" xlink:title="stxxl::choose_int_types\l\&lt; PtrSize \&gt;">
<polygon fill="none" stroke="black" points="181.5,-317 181.5,-351 306.5,-351 306.5,-317 181.5,-317"/>
<text text-anchor="start" x="189.5" y="-338" font-family="Helvetica,sans-Serif" font-size="10.00">stxxl::choose_int_types</text>
<text text-anchor="middle" x="244" y="-325" font-family="Helvetica,sans-Serif" font-size="10.00">&lt; PtrSize &gt;</text>
</a>
</g>
<!-- Node7&#45;&gt;Node6 -->
<g id="edge14" class="edge"><title>Node7&#45;&gt;Node6</title>
<path fill="none" stroke="orange" stroke-dasharray="5,2" d="M244,-306.342C244,-292.774 244,-276.861 244,-265.084"/>
<polygon fill="orange" stroke="orange" points="240.5,-306.597 244,-316.597 247.5,-306.597 240.5,-306.597"/>
<text text-anchor="middle" x="293.5" y="-288.5" font-family="Helvetica,sans-Serif" font-size="10.00"> &lt; my_pointer_size &gt;</text>
</g>
</g>
</svg>
