<?xml version="1.0" encoding="UTF-8" standalone="no"?>
<!DOCTYPE svg PUBLIC "-//W3C//DTD SVG 1.1//EN"
 "http://www.w3.org/Graphics/SVG/1.1/DTD/svg11.dtd">
<!-- Generated by graphviz version 2.26.3 (20100126.1600)
 -->
<!-- Title: stxxl::BID&lt; Size &gt; Pages: 1 -->
<svg width="270pt" height="102pt"
 viewBox="0.00 0.00 270.00 102.00" xmlns="http://www.w3.org/2000/svg" xmlns:xlink="http://www.w3.org/1999/xlink">
<g id="graph1" class="graph" transform="scale(1 1) rotate(0) translate(4 98)">
<title>stxxl::BID&lt; Size &gt;</title>
<!-- Node1 -->
<g id="node1" class="node"><title>Node1</title>
<polygon fill="#bfbfbf" stroke="black" points="84,-72.5 84,-93.5 182,-93.5 182,-72.5 84,-72.5"/>
<text text-anchor="middle" x="133" y="-80.5" font-family="Helvetica,sans-Serif" font-size="10.00">stxxl::BID&lt; Size &gt;</text>
</g>
<!-- Node2 -->
<g id="node3" class="node"><title>Node2</title>
<a xlink:href="structstxxl_1_1BID.html" target="_top" xlink:title="stxxl::BID\&lt; block_size \&gt;">
<polygon fill="none" stroke="black" points="0,-0.5 0,-21.5 126,-21.5 126,-0.5 0,-0.5"/>
<text text-anchor="middle" x="63" y="-8.5" font-family="Helvetica,sans-Serif" font-size="10.00">stxxl::BID&lt; block_size &gt;</text>
</a>
</g>
<!-- Node1&#45;&gt;Node2 -->
<g id="edge2" class="edge"><title>Node1&#45;&gt;Node2</title>
<path fill="none" stroke="orange" stroke-dasharray="5,2" d="M115.469,-64.9677C102.209,-51.3294 84.4515,-33.0644 73.3711,-21.6674"/>
<polygon fill="orange" stroke="orange" points="113.191,-67.646 122.671,-72.3762 118.21,-62.7664 113.191,-67.646"/>
<text text-anchor="middle" x="140" y="-44.5" font-family="Helvetica,sans-Serif" font-size="10.00"> &lt; block_size &gt;</text>
</g>
<!-- Node3 -->
<g id="node5" class="node"><title>Node3</title>
<a xlink:href="structstxxl_1_1BID.html" target="_top" xlink:title="stxxl::BID\&lt; raw_size \&gt;">
<polygon fill="none" stroke="black" points="143.5,-0.5 143.5,-21.5 262.5,-21.5 262.5,-0.5 143.5,-0.5"/>
<text text-anchor="middle" x="203" y="-8.5" font-family="Helvetica,sans-Serif" font-size="10.00">stxxl::BID&lt; raw_size &gt;</text>
</a>
</g>
<!-- Node1&#45;&gt;Node3 -->
<g id="edge4" class="edge"><title>Node1&#45;&gt;Node3</title>
<path fill="none" stroke="orange" stroke-dasharray="5,2" d="M163.468,-66.8436C169.023,-63.0832 174.482,-58.7661 179,-54 187.94,-44.569 194.725,-31.1781 198.762,-21.8545"/>
<polygon fill="orange" stroke="orange" points="161.402,-64.0076 154.78,-72.2788 165.114,-69.9419 161.402,-64.0076"/>
<text text-anchor="middle" x="221" y="-44.5" font-family="Helvetica,sans-Serif" font-size="10.00"> &lt; raw_size &gt;</text>
</g>
</g>
</svg>
