<?xml version="1.0" encoding="UTF-8" standalone="no"?>
<!DOCTYPE svg PUBLIC "-//W3C//DTD SVG 1.1//EN"
 "http://www.w3.org/Graphics/SVG/1.1/DTD/svg11.dtd">
<!-- Generated by graphviz version 2.26.3 (20100126.1600)
 -->
<!-- Title: stxxl::two2one_dim_array_adapter_base&lt; OneDimArrayType, DataType, PosType &gt; Pages: 1 -->
<svg width="668pt" height="122pt"
 viewBox="0.00 0.00 668.00 122.00" xmlns="http://www.w3.org/2000/svg" xmlns:xlink="http://www.w3.org/1999/xlink">
<g id="graph1" class="graph" transform="scale(1 1) rotate(0) translate(4 118)">
<title>stxxl::two2one_dim_array_adapter_base&lt; OneDimArrayType, DataType, PosType &gt;</title>
<!-- Node1 -->
<g id="node1" class="node"><title>Node1</title>
<polygon fill="#bfbfbf" stroke="black" points="0.5,-27 0.5,-87 167.5,-87 167.5,-27 0.5,-27"/>
<text text-anchor="start" x="8.5" y="-74" font-family="Helvetica,sans-Serif" font-size="10.00">stxxl::two2one_dim</text>
<text text-anchor="start" x="8.5" y="-61" font-family="Helvetica,sans-Serif" font-size="10.00">_array_adapter_base</text>
<text text-anchor="start" x="8.5" y="-48" font-family="Helvetica,sans-Serif" font-size="10.00">&lt; OneDimArrayType, DataType,</text>
<text text-anchor="middle" x="84" y="-35" font-family="Helvetica,sans-Serif" font-size="10.00"> PosType &gt;</text>
</g>
<!-- Node2 -->
<g id="node3" class="node"><title>Node2</title>
<a xlink:href="structstxxl_1_1two2one__dim__array__adapter__base.html" target="_top" xlink:title="stxxl::two2one_dim\l_array_adapter_base\l\&lt; RunType *, BID\&lt; BlockSize\l \&gt;, PosType \&gt;">
<polygon fill="none" stroke="black" points="346,-27 346,-87 500,-87 500,-27 346,-27"/>
<text text-anchor="start" x="354" y="-74" font-family="Helvetica,sans-Serif" font-size="10.00">stxxl::two2one_dim</text>
<text text-anchor="start" x="354" y="-61" font-family="Helvetica,sans-Serif" font-size="10.00">_array_adapter_base</text>
<text text-anchor="start" x="354" y="-48" font-family="Helvetica,sans-Serif" font-size="10.00">&lt; RunType *, BID&lt; BlockSize</text>
<text text-anchor="middle" x="423" y="-35" font-family="Helvetica,sans-Serif" font-size="10.00"> &gt;, PosType &gt;</text>
</a>
</g>
<!-- Node1&#45;&gt;Node2 -->
<g id="edge2" class="edge"><title>Node1&#45;&gt;Node2</title>
<path fill="none" stroke="orange" stroke-dasharray="5,2" d="M177.868,-57C230.785,-57 296.074,-57 345.963,-57"/>
<polygon fill="orange" stroke="orange" points="177.798,-53.5001 167.798,-57 177.798,-60.5001 177.798,-53.5001"/>
<text text-anchor="start" x="186.5" y="-74" font-family="Helvetica,sans-Serif" font-size="10.00"> &lt; RunType *, BID&lt; BlockSize</text>
<text text-anchor="middle" x="257" y="-61" font-family="Helvetica,sans-Serif" font-size="10.00"> &gt;, PosType &gt;</text>
</g>
<!-- Node3 -->
<g id="node5" class="node"><title>Node3</title>
<a xlink:href="structstxxl_1_1runs2bid__array__adaptor.html" target="_top" xlink:title="stxxl::runs2bid_array\l_adaptor\&lt; BlockSize,\l RunType, PosType \&gt;">
<polygon fill="none" stroke="black" points="539.5,-66.5 539.5,-113.5 658.5,-113.5 658.5,-66.5 539.5,-66.5"/>
<text text-anchor="start" x="547.5" y="-100.5" font-family="Helvetica,sans-Serif" font-size="10.00">stxxl::runs2bid_array</text>
<text text-anchor="start" x="547.5" y="-87.5" font-family="Helvetica,sans-Serif" font-size="10.00">_adaptor&lt; BlockSize,</text>
<text text-anchor="middle" x="599" y="-74.5" font-family="Helvetica,sans-Serif" font-size="10.00"> RunType, PosType &gt;</text>
</a>
</g>
<!-- Node2&#45;&gt;Node3 -->
<g id="edge4" class="edge"><title>Node2&#45;&gt;Node3</title>
<path fill="none" stroke="midnightblue" d="M510.075,-73.3266C519.978,-75.1833 529.896,-77.043 539.328,-78.8115"/>
<polygon fill="midnightblue" stroke="midnightblue" points="510.67,-69.8772 500.196,-71.4743 509.38,-76.7573 510.67,-69.8772"/>
</g>
<!-- Node4 -->
<g id="node7" class="node"><title>Node4</title>
<a xlink:href="structstxxl_1_1runs2bid__array__adaptor2.html" target="_top" xlink:title="stxxl::runs2bid_array\l_adaptor2\&lt; BlockSize,\l RunType, PosType \&gt;">
<polygon fill="none" stroke="black" points="538,-0.5 538,-47.5 660,-47.5 660,-0.5 538,-0.5"/>
<text text-anchor="start" x="546" y="-34.5" font-family="Helvetica,sans-Serif" font-size="10.00">stxxl::runs2bid_array</text>
<text text-anchor="start" x="546" y="-21.5" font-family="Helvetica,sans-Serif" font-size="10.00">_adaptor2&lt; BlockSize,</text>
<text text-anchor="middle" x="599" y="-8.5" font-family="Helvetica,sans-Serif" font-size="10.00"> RunType, PosType &gt;</text>
</a>
</g>
<!-- Node2&#45;&gt;Node4 -->
<g id="edge6" class="edge"><title>Node2&#45;&gt;Node4</title>
<path fill="none" stroke="midnightblue" d="M510.025,-40.6828C519.479,-38.9101 528.949,-37.1346 537.996,-35.4382"/>
<polygon fill="midnightblue" stroke="midnightblue" points="509.38,-37.2427 500.196,-42.5257 510.67,-44.1228 509.38,-37.2427"/>
</g>
</g>
</svg>
