<?xml version="1.0" encoding="UTF-8" standalone="no"?>
<!DOCTYPE svg PUBLIC "-//W3C//DTD SVG 1.1//EN"
 "http://www.w3.org/Graphics/SVG/1.1/DTD/svg11.dtd">
<!-- Generated by graphviz version 2.26.3 (20100126.1600)
 -->
<!-- Title: stxxl::btree::normal_node&lt; KeyType, KeyCmp, RawSize, BTreeType &gt;::metainfo_type Pages: 1 -->
<svg width="351pt" height="544pt"
 viewBox="0.00 0.00 351.00 544.00" xmlns="http://www.w3.org/2000/svg" xmlns:xlink="http://www.w3.org/1999/xlink">
<g id="graph1" class="graph" transform="scale(1 1) rotate(0) translate(4 540)">
<title>stxxl::btree::normal_node&lt; KeyType, KeyCmp, RawSize, BTreeType &gt;::metainfo_type</title>
<!-- Node1 -->
<g id="node1" class="node"><title>Node1</title>
<polygon fill="#bfbfbf" stroke="black" points="4.5,-1 4.5,-61 149.5,-61 149.5,-1 4.5,-1"/>
<text text-anchor="start" x="12.5" y="-48" font-family="Helvetica,sans-Serif" font-size="10.00">stxxl::btree::normal</text>
<text text-anchor="start" x="12.5" y="-35" font-family="Helvetica,sans-Serif" font-size="10.00">_node&lt; KeyType, KeyCmp,</text>
<text text-anchor="start" x="12.5" y="-22" font-family="Helvetica,sans-Serif" font-size="10.00"> RawSize, BTreeType &gt;::</text>
<text text-anchor="middle" x="77" y="-9" font-family="Helvetica,sans-Serif" font-size="10.00">metainfo_type</text>
</g>
<!-- Node2 -->
<g id="node2" class="node"><title>Node2</title>
<a xlink:href="structstxxl_1_1BID.html" target="_top" xlink:title="stxxl::BID\&lt; raw_size \&gt;">
<polygon fill="none" stroke="black" points="17.5,-112.5 17.5,-133.5 136.5,-133.5 136.5,-112.5 17.5,-112.5"/>
<text text-anchor="middle" x="77" y="-120.5" font-family="Helvetica,sans-Serif" font-size="10.00">stxxl::BID&lt; raw_size &gt;</text>
</a>
</g>
<!-- Node2&#45;&gt;Node1 -->
<g id="edge2" class="edge"><title>Node2&#45;&gt;Node1</title>
<path fill="none" stroke="#9a32cd" stroke-dasharray="5,2" d="M77,-102.394C77,-90.2154 77,-74.5784 77,-61.0447"/>
<polygon fill="#9a32cd" stroke="#9a32cd" points="73.5001,-102.446 77,-112.446 80.5001,-102.446 73.5001,-102.446"/>
<text text-anchor="middle" x="86" y="-84.5" font-family="Helvetica,sans-Serif" font-size="10.00"> me</text>
</g>
<!-- Node3 -->
<g id="node4" class="node"><title>Node3</title>
<a xlink:href="classstxxl_1_1file.html" target="_top" xlink:title="Defines interface of file. ">
<polygon fill="none" stroke="black" points="30,-256.5 30,-277.5 86,-277.5 86,-256.5 30,-256.5"/>
<text text-anchor="middle" x="58" y="-264.5" font-family="Helvetica,sans-Serif" font-size="10.00">stxxl::file</text>
</a>
</g>
<!-- Node3&#45;&gt;Node2 -->
<g id="edge4" class="edge"><title>Node3&#45;&gt;Node2</title>
<path fill="none" stroke="#9a32cd" stroke-dasharray="5,2" d="M53.059,-246.507C49.7457,-229.591 46.7037,-205.037 51,-184 54.7778,-165.502 64.3857,-145.67 70.8035,-133.805"/>
<polygon fill="#9a32cd" stroke="#9a32cd" points="49.6651,-247.372 55.201,-256.406 56.5068,-245.892 49.6651,-247.372"/>
<text text-anchor="middle" x="71" y="-192.5" font-family="Helvetica,sans-Serif" font-size="10.00"> storage</text>
</g>
<!-- Node9 -->
<g id="node17" class="node"><title>Node9</title>
<a xlink:href="structstxxl_1_1BID.html" target="_top" xlink:title="Block identifier class. ">
<polygon fill="none" stroke="black" points="100,-184.5 100,-205.5 198,-205.5 198,-184.5 100,-184.5"/>
<text text-anchor="middle" x="149" y="-192.5" font-family="Helvetica,sans-Serif" font-size="10.00">stxxl::BID&lt; Size &gt;</text>
</a>
</g>
<!-- Node3&#45;&gt;Node9 -->
<g id="edge20" class="edge"><title>Node3&#45;&gt;Node9</title>
<path fill="none" stroke="#9a32cd" stroke-dasharray="5,2" d="M79.3551,-250.104C96.7268,-236.359 120.709,-217.384 135.518,-205.667"/>
<polygon fill="#9a32cd" stroke="#9a32cd" points="77.0979,-247.427 71.4274,-256.376 81.4413,-252.916 77.0979,-247.427"/>
<text text-anchor="middle" x="132" y="-228.5" font-family="Helvetica,sans-Serif" font-size="10.00"> storage</text>
</g>
<!-- Node4 -->
<g id="node6" class="node"><title>Node4</title>
<a xlink:href="classstxxl_1_1noncopyable.html" target="_top" xlink:title="stxxl::noncopyable">
<polygon fill="none" stroke="black" points="0,-507.5 0,-528.5 102,-528.5 102,-507.5 0,-507.5"/>
<text text-anchor="middle" x="51" y="-515.5" font-family="Helvetica,sans-Serif" font-size="10.00">stxxl::noncopyable</text>
</a>
</g>
<!-- Node4&#45;&gt;Node3 -->
<g id="edge6" class="edge"><title>Node4&#45;&gt;Node3</title>
<path fill="none" stroke="#8b1a1a" d="M49.3318,-496.856C46.8594,-461.728 43.0208,-389.152 48,-328 49.4457,-310.244 53.2212,-289.867 55.6972,-277.733"/>
<polygon fill="#8b1a1a" stroke="#8b1a1a" points="45.8735,-497.549 50.1032,-507.263 52.8543,-497.032 45.8735,-497.549"/>
</g>
<!-- Node6 -->
<g id="node10" class="node"><title>Node6</title>
<a xlink:href="classstxxl_1_1mutex.html" target="_top" xlink:title="stxxl::mutex">
<polygon fill="none" stroke="black" points="57,-421.5 57,-442.5 127,-442.5 127,-421.5 57,-421.5"/>
<text text-anchor="middle" x="92" y="-429.5" font-family="Helvetica,sans-Serif" font-size="10.00">stxxl::mutex</text>
</a>
</g>
<!-- Node4&#45;&gt;Node6 -->
<g id="edge12" class="edge"><title>Node4&#45;&gt;Node6</title>
<path fill="none" stroke="#8b1a1a" d="M60.4235,-498.234C68.6694,-480.937 80.3324,-456.474 86.9315,-442.632"/>
<polygon fill="#8b1a1a" stroke="#8b1a1a" points="57.1715,-496.922 56.0274,-507.455 63.4902,-499.934 57.1715,-496.922"/>
</g>
<!-- Node5 -->
<g id="node8" class="node"><title>Node5</title>
<a xlink:href="classstxxl_1_1atomic__counted__object.html" target="_top" xlink:title="Provides reference counting abilities for use with counting_ptr with mutex locking. ">
<polygon fill="none" stroke="black" points="57,-329 57,-363 173,-363 173,-329 57,-329"/>
<text text-anchor="start" x="65" y="-350" font-family="Helvetica,sans-Serif" font-size="10.00">stxxl::atomic_counted</text>
<text text-anchor="middle" x="115" y="-337" font-family="Helvetica,sans-Serif" font-size="10.00">_object</text>
</a>
</g>
<!-- Node5&#45;&gt;Node3 -->
<g id="edge8" class="edge"><title>Node5&#45;&gt;Node3</title>
<path fill="none" stroke="#9a32cd" stroke-dasharray="5,2" d="M96.7356,-320.686C86.2112,-306.1 73.5393,-288.537 65.6244,-277.567"/>
<polygon fill="#9a32cd" stroke="#9a32cd" points="93.9423,-322.797 102.632,-328.858 99.619,-318.701 93.9423,-322.797"/>
<text text-anchor="middle" x="125" y="-300.5" font-family="Helvetica,sans-Serif" font-size="10.00"> m_request_ref</text>
</g>
<!-- Node6&#45;&gt;Node5 -->
<g id="edge10" class="edge"><title>Node6&#45;&gt;Node5</title>
<path fill="none" stroke="#9a32cd" stroke-dasharray="5,2" d="M90.0069,-411.277C89.7373,-402.134 90.2648,-391.361 93,-382 94.931,-375.391 98.4101,-368.782 102.04,-363.064"/>
<polygon fill="#9a32cd" stroke="#9a32cd" points="86.5234,-411.653 90.636,-421.417 93.5099,-411.219 86.5234,-411.653"/>
<text text-anchor="middle" x="157.5" y="-386.5" font-family="Helvetica,sans-Serif" font-size="10.00"> m_reference_count_mutex</text>
</g>
<!-- Node7 -->
<g id="node13" class="node"><title>Node7</title>
<a xlink:href="structstxxl_1_1choose__int__types.html" target="_top" xlink:title="stxxl::choose_int_types\l\&lt; my_pointer_size \&gt;">
<polygon fill="none" stroke="black" points="181.5,-415 181.5,-449 306.5,-449 306.5,-415 181.5,-415"/>
<text text-anchor="start" x="189.5" y="-436" font-family="Helvetica,sans-Serif" font-size="10.00">stxxl::choose_int_types</text>
<text text-anchor="middle" x="244" y="-423" font-family="Helvetica,sans-Serif" font-size="10.00">&lt; my_pointer_size &gt;</text>
</a>
</g>
<!-- Node7&#45;&gt;Node5 -->
<g id="edge14" class="edge"><title>Node7&#45;&gt;Node5</title>
<path fill="none" stroke="#9a32cd" stroke-dasharray="5,2" d="M236.869,-405.099C233.526,-396.764 228.743,-388.162 222,-382 208.472,-369.638 190.553,-361.503 173.254,-356.158"/>
<polygon fill="#9a32cd" stroke="#9a32cd" points="233.58,-406.297 240.164,-414.598 240.194,-404.003 233.58,-406.297"/>
<text text-anchor="middle" x="278.5" y="-386.5" font-family="Helvetica,sans-Serif" font-size="10.00"> m_reference_count</text>
</g>
<!-- Node8 -->
<g id="node15" class="node"><title>Node8</title>
<a xlink:href="structstxxl_1_1choose__int__types.html" target="_top" xlink:title="stxxl::choose_int_types\l\&lt; PtrSize \&gt;">
<polygon fill="none" stroke="black" points="181.5,-501 181.5,-535 306.5,-535 306.5,-501 181.5,-501"/>
<text text-anchor="start" x="189.5" y="-522" font-family="Helvetica,sans-Serif" font-size="10.00">stxxl::choose_int_types</text>
<text text-anchor="middle" x="244" y="-509" font-family="Helvetica,sans-Serif" font-size="10.00">&lt; PtrSize &gt;</text>
</a>
</g>
<!-- Node8&#45;&gt;Node7 -->
<g id="edge16" class="edge"><title>Node8&#45;&gt;Node7</title>
<path fill="none" stroke="orange" stroke-dasharray="5,2" d="M244,-490.342C244,-476.774 244,-460.861 244,-449.084"/>
<polygon fill="orange" stroke="orange" points="240.5,-490.597 244,-500.597 247.5,-490.597 240.5,-490.597"/>
<text text-anchor="middle" x="293.5" y="-472.5" font-family="Helvetica,sans-Serif" font-size="10.00"> &lt; my_pointer_size &gt;</text>
</g>
<!-- Node9&#45;&gt;Node2 -->
<g id="edge18" class="edge"><title>Node9&#45;&gt;Node2</title>
<path fill="none" stroke="orange" stroke-dasharray="5,2" d="M130.968,-176.968C117.329,-163.329 99.0644,-145.064 87.6674,-133.667"/>
<polygon fill="orange" stroke="orange" points="128.83,-179.78 138.376,-184.376 133.78,-174.83 128.83,-179.78"/>
<text text-anchor="middle" x="152" y="-156.5" font-family="Helvetica,sans-Serif" font-size="10.00"> &lt; raw_size &gt;</text>
</g>
</g>
</svg>
