<?xml version="1.0" encoding="UTF-8" standalone="no"?>
<!DOCTYPE svg PUBLIC "-//W3C//DTD SVG 1.1//EN"
 "http://www.w3.org/Graphics/SVG/1.1/DTD/svg11.dtd">
<!-- Generated by graphviz version 2.26.3 (20100126.1600)
 -->
<!-- Title: stxxl::cmdline_parser::argument Pages: 1 -->
<svg width="276pt" height="354pt"
 viewBox="0.00 0.00 276.00 354.00" xmlns="http://www.w3.org/2000/svg" xmlns:xlink="http://www.w3.org/1999/xlink">
<g id="graph1" class="graph" transform="scale(1 1) rotate(0) translate(4 350)">
<title>stxxl::cmdline_parser::argument</title>
<!-- Node1 -->
<g id="node1" class="node"><title>Node1</title>
<polygon fill="#bfbfbf" stroke="black" points="0.5,-156 0.5,-190 115.5,-190 115.5,-156 0.5,-156"/>
<text text-anchor="start" x="8.5" y="-177" font-family="Helvetica,sans-Serif" font-size="10.00">stxxl::cmdline_parser</text>
<text text-anchor="middle" x="58" y="-164" font-family="Helvetica,sans-Serif" font-size="10.00">::argument</text>
</g>
<!-- Node2 -->
<g id="node3" class="node"><title>Node2</title>
<a xlink:href="structstxxl_1_1cmdline__parser_1_1argument__bytes32.html" target="_top" xlink:title="specialization of argument for SI/IEC suffixes byte size options or parameters ">
<polygon fill="none" stroke="black" points="152.5,-312 152.5,-346 267.5,-346 267.5,-312 152.5,-312"/>
<text text-anchor="start" x="160.5" y="-333" font-family="Helvetica,sans-Serif" font-size="10.00">stxxl::cmdline_parser</text>
<text text-anchor="middle" x="210" y="-320" font-family="Helvetica,sans-Serif" font-size="10.00">::argument_bytes32</text>
</a>
</g>
<!-- Node1&#45;&gt;Node2 -->
<g id="edge2" class="edge"><title>Node1&#45;&gt;Node2</title>
<path fill="none" stroke="midnightblue" d="M71.5866,-199.443C87.501,-228.201 116.289,-273.939 152,-303 156.023,-306.274 160.523,-309.222 165.191,-311.853"/>
<polygon fill="midnightblue" stroke="midnightblue" points="74.5266,-197.521 66.6917,-190.389 68.3691,-200.851 74.5266,-197.521"/>
</g>
<!-- Node3 -->
<g id="node5" class="node"><title>Node3</title>
<a xlink:href="structstxxl_1_1cmdline__parser_1_1argument__bytes64.html" target="_top" xlink:title="specialization of argument for SI/IEC suffixes byte size options or parameters ">
<polygon fill="none" stroke="black" points="152.5,-260 152.5,-294 267.5,-294 267.5,-260 152.5,-260"/>
<text text-anchor="start" x="160.5" y="-281" font-family="Helvetica,sans-Serif" font-size="10.00">stxxl::cmdline_parser</text>
<text text-anchor="middle" x="210" y="-268" font-family="Helvetica,sans-Serif" font-size="10.00">::argument_bytes64</text>
</a>
</g>
<!-- Node1&#45;&gt;Node3 -->
<g id="edge4" class="edge"><title>Node1&#45;&gt;Node3</title>
<path fill="none" stroke="midnightblue" d="M83.3756,-197.309C101.509,-213.838 127.024,-235.445 152,-251 157.058,-254.15 162.563,-257.128 168.101,-259.867"/>
<polygon fill="midnightblue" stroke="midnightblue" points="85.3104,-194.331 75.5919,-190.112 80.5581,-199.471 85.3104,-194.331"/>
</g>
<!-- Node4 -->
<g id="node7" class="node"><title>Node4</title>
<a xlink:href="structstxxl_1_1cmdline__parser_1_1argument__flag.html" target="_top" xlink:title="specialization of argument for boolean flags (can only be set to true). ">
<polygon fill="none" stroke="black" points="152.5,-208 152.5,-242 267.5,-242 267.5,-208 152.5,-208"/>
<text text-anchor="start" x="160.5" y="-229" font-family="Helvetica,sans-Serif" font-size="10.00">stxxl::cmdline_parser</text>
<text text-anchor="middle" x="210" y="-216" font-family="Helvetica,sans-Serif" font-size="10.00">::argument_flag</text>
</a>
</g>
<!-- Node1&#45;&gt;Node4 -->
<g id="edge6" class="edge"><title>Node1&#45;&gt;Node4</title>
<path fill="none" stroke="midnightblue" d="M117.399,-193.321C131.528,-198.154 146.463,-203.264 160.118,-207.935"/>
<polygon fill="midnightblue" stroke="midnightblue" points="118.365,-189.952 107.77,-190.027 116.099,-196.575 118.365,-189.952"/>
</g>
<!-- Node5 -->
<g id="node9" class="node"><title>Node5</title>
<a xlink:href="structstxxl_1_1cmdline__parser_1_1argument__int.html" target="_top" xlink:title="specialization of argument for integer options or parameters ">
<polygon fill="none" stroke="black" points="152.5,-156 152.5,-190 267.5,-190 267.5,-156 152.5,-156"/>
<text text-anchor="start" x="160.5" y="-177" font-family="Helvetica,sans-Serif" font-size="10.00">stxxl::cmdline_parser</text>
<text text-anchor="middle" x="210" y="-164" font-family="Helvetica,sans-Serif" font-size="10.00">::argument_int</text>
</a>
</g>
<!-- Node1&#45;&gt;Node5 -->
<g id="edge8" class="edge"><title>Node1&#45;&gt;Node5</title>
<path fill="none" stroke="midnightblue" d="M126.072,-173C134.817,-173 143.704,-173 152.263,-173"/>
<polygon fill="midnightblue" stroke="midnightblue" points="125.898,-169.5 115.898,-173 125.898,-176.5 125.898,-169.5"/>
</g>
<!-- Node6 -->
<g id="node11" class="node"><title>Node6</title>
<a xlink:href="structstxxl_1_1cmdline__parser_1_1argument__string.html" target="_top" xlink:title="specialization of argument for string options or parameters ">
<polygon fill="none" stroke="black" points="152.5,-104 152.5,-138 267.5,-138 267.5,-104 152.5,-104"/>
<text text-anchor="start" x="160.5" y="-125" font-family="Helvetica,sans-Serif" font-size="10.00">stxxl::cmdline_parser</text>
<text text-anchor="middle" x="210" y="-112" font-family="Helvetica,sans-Serif" font-size="10.00">::argument_string</text>
</a>
</g>
<!-- Node1&#45;&gt;Node6 -->
<g id="edge10" class="edge"><title>Node1&#45;&gt;Node6</title>
<path fill="none" stroke="midnightblue" d="M117.399,-152.679C131.528,-147.846 146.463,-142.736 160.118,-138.065"/>
<polygon fill="midnightblue" stroke="midnightblue" points="116.099,-149.425 107.77,-155.973 118.365,-156.048 116.099,-149.425"/>
</g>
<!-- Node7 -->
<g id="node13" class="node"><title>Node7</title>
<a xlink:href="structstxxl_1_1cmdline__parser_1_1argument__stringlist.html" target="_top" xlink:title="specialization of argument for multiple string options or parameters ">
<polygon fill="none" stroke="black" points="152.5,-52 152.5,-86 267.5,-86 267.5,-52 152.5,-52"/>
<text text-anchor="start" x="160.5" y="-73" font-family="Helvetica,sans-Serif" font-size="10.00">stxxl::cmdline_parser</text>
<text text-anchor="middle" x="210" y="-60" font-family="Helvetica,sans-Serif" font-size="10.00">::argument_stringlist</text>
</a>
</g>
<!-- Node1&#45;&gt;Node7 -->
<g id="edge12" class="edge"><title>Node1&#45;&gt;Node7</title>
<path fill="none" stroke="midnightblue" d="M83.3756,-148.691C101.509,-132.162 127.024,-110.555 152,-95 157.058,-91.8498 162.563,-88.8717 168.101,-86.1332"/>
<polygon fill="midnightblue" stroke="midnightblue" points="80.5581,-146.529 75.5919,-155.888 85.3104,-151.669 80.5581,-146.529"/>
</g>
<!-- Node8 -->
<g id="node15" class="node"><title>Node8</title>
<a xlink:href="structstxxl_1_1cmdline__parser_1_1argument__uint.html" target="_top" xlink:title="specialization of argument for unsigned integer options or parameters ">
<polygon fill="none" stroke="black" points="152.5,-0 152.5,-34 267.5,-34 267.5,-0 152.5,-0"/>
<text text-anchor="start" x="160.5" y="-21" font-family="Helvetica,sans-Serif" font-size="10.00">stxxl::cmdline_parser</text>
<text text-anchor="middle" x="210" y="-8" font-family="Helvetica,sans-Serif" font-size="10.00">::argument_uint</text>
</a>
</g>
<!-- Node1&#45;&gt;Node8 -->
<g id="edge14" class="edge"><title>Node1&#45;&gt;Node8</title>
<path fill="none" stroke="midnightblue" d="M71.5866,-146.557C87.501,-117.799 116.289,-72.0611 152,-43 156.023,-39.7264 160.523,-36.7785 165.191,-34.1469"/>
<polygon fill="midnightblue" stroke="midnightblue" points="68.3691,-145.149 66.6917,-155.611 74.5266,-148.479 68.3691,-145.149"/>
</g>
</g>
</svg>
