<?xml version="1.0" encoding="UTF-8" standalone="no"?>
<!DOCTYPE svg PUBLIC "-//W3C//DTD SVG 1.1//EN"
 "http://www.w3.org/Graphics/SVG/1.1/DTD/svg11.dtd">
<!-- Generated by graphviz version 2.26.3 (20100126.1600)
 -->
<!-- Title: stxxl::RC_disk Pages: 1 -->
<svg width="90pt" height="146pt"
 viewBox="0.00 0.00 90.00 146.00" xmlns="http://www.w3.org/2000/svg" xmlns:xlink="http://www.w3.org/1999/xlink">
<g id="graph1" class="graph" transform="scale(1 1) rotate(0) translate(4 142)">
<title>stxxl::RC_disk</title>
<!-- Node1 -->
<g id="node1" class="node"><title>Node1</title>
<polygon fill="#bfbfbf" stroke="black" points="0,-0.5 0,-21.5 82,-21.5 82,-0.5 0,-0.5"/>
<text text-anchor="middle" x="41" y="-8.5" font-family="Helvetica,sans-Serif" font-size="10.00">stxxl::RC_disk</text>
</g>
<!-- Node2 -->
<g id="node2" class="node"><title>Node2</title>
<a xlink:href="structstxxl_1_1RC.html" target="_top" xlink:title="Randomized cycling disk allocation scheme functor. ">
<polygon fill="none" stroke="black" points="12.5,-58.5 12.5,-79.5 69.5,-79.5 69.5,-58.5 12.5,-58.5"/>
<text text-anchor="middle" x="41" y="-66.5" font-family="Helvetica,sans-Serif" font-size="10.00">stxxl::RC</text>
</a>
</g>
<!-- Node2&#45;&gt;Node1 -->
<g id="edge2" class="edge"><title>Node2&#45;&gt;Node1</title>
<path fill="none" stroke="midnightblue" d="M41,-48.1906C41,-39.1684 41,-28.9941 41,-21.5707"/>
<polygon fill="midnightblue" stroke="midnightblue" points="37.5001,-48.3619 41,-58.3619 44.5001,-48.3619 37.5001,-48.3619"/>
</g>
<!-- Node3 -->
<g id="node4" class="node"><title>Node3</title>
<a xlink:href="structstxxl_1_1striping.html" target="_top" xlink:title="Striping disk allocation scheme functor. ">
<polygon fill="none" stroke="black" points="2.5,-116.5 2.5,-137.5 79.5,-137.5 79.5,-116.5 2.5,-116.5"/>
<text text-anchor="middle" x="41" y="-124.5" font-family="Helvetica,sans-Serif" font-size="10.00">stxxl::striping</text>
</a>
</g>
<!-- Node3&#45;&gt;Node2 -->
<g id="edge4" class="edge"><title>Node3&#45;&gt;Node2</title>
<path fill="none" stroke="midnightblue" d="M41,-106.191C41,-97.1684 41,-86.9941 41,-79.5707"/>
<polygon fill="midnightblue" stroke="midnightblue" points="37.5001,-106.362 41,-116.362 44.5001,-106.362 37.5001,-106.362"/>
</g>
</g>
</svg>
