<?xml version="1.0" encoding="UTF-8" standalone="no"?>
<!DOCTYPE svg PUBLIC "-//W3C//DTD SVG 1.1//EN"
 "http://www.w3.org/Graphics/SVG/1.1/DTD/svg11.dtd">
<!-- Generated by graphviz version 2.26.3 (20100126.1600)
 -->
<!-- Title: stxxl::striping Pages: 1 -->
<svg width="169pt" height="214pt"
 viewBox="0.00 0.00 169.00 214.00" xmlns="http://www.w3.org/2000/svg" xmlns:xlink="http://www.w3.org/1999/xlink">
<g id="graph1" class="graph" transform="scale(1 1) rotate(0) translate(4 210)">
<title>stxxl::striping</title>
<!-- Node1 -->
<g id="node1" class="node"><title>Node1</title>
<polygon fill="#bfbfbf" stroke="black" points="23.5,-0.5 23.5,-21.5 100.5,-21.5 100.5,-0.5 23.5,-0.5"/>
<text text-anchor="middle" x="62" y="-8.5" font-family="Helvetica,sans-Serif" font-size="10.00">stxxl::striping</text>
</g>
<!-- Node2 -->
<g id="node2" class="node"><title>Node2</title>
<a xlink:href="structstxxl_1_1choose__int__types.html" target="_top" xlink:title="stxxl::choose_int_types\l\&lt; my_pointer_size \&gt;">
<polygon fill="none" stroke="black" points="-0.5,-85 -0.5,-119 124.5,-119 124.5,-85 -0.5,-85"/>
<text text-anchor="start" x="7.5" y="-106" font-family="Helvetica,sans-Serif" font-size="10.00">stxxl::choose_int_types</text>
<text text-anchor="middle" x="62" y="-93" font-family="Helvetica,sans-Serif" font-size="10.00">&lt; my_pointer_size &gt;</text>
</a>
</g>
<!-- Node2&#45;&gt;Node1 -->
<g id="edge2" class="edge"><title>Node2&#45;&gt;Node1</title>
<path fill="none" stroke="#9a32cd" stroke-dasharray="5,2" d="M62,-74.7116C62,-56.8174 62,-34.4224 62,-21.5097"/>
<polygon fill="#9a32cd" stroke="#9a32cd" points="58.5001,-74.8836 62,-84.8836 65.5001,-74.8836 58.5001,-74.8836"/>
<text text-anchor="middle" x="76.5" y="-57" font-family="Helvetica,sans-Serif" font-size="10.00"> begin</text>
<text text-anchor="middle" x="76.5" y="-44" font-family="Helvetica,sans-Serif" font-size="10.00">diff</text>
</g>
<!-- Node3 -->
<g id="node4" class="node"><title>Node3</title>
<a xlink:href="structstxxl_1_1choose__int__types.html" target="_top" xlink:title="stxxl::choose_int_types\l\&lt; PtrSize \&gt;">
<polygon fill="none" stroke="black" points="-0.5,-171 -0.5,-205 124.5,-205 124.5,-171 -0.5,-171"/>
<text text-anchor="start" x="7.5" y="-192" font-family="Helvetica,sans-Serif" font-size="10.00">stxxl::choose_int_types</text>
<text text-anchor="middle" x="62" y="-179" font-family="Helvetica,sans-Serif" font-size="10.00">&lt; PtrSize &gt;</text>
</a>
</g>
<!-- Node3&#45;&gt;Node2 -->
<g id="edge4" class="edge"><title>Node3&#45;&gt;Node2</title>
<path fill="none" stroke="orange" stroke-dasharray="5,2" d="M62,-160.342C62,-146.774 62,-130.861 62,-119.084"/>
<polygon fill="orange" stroke="orange" points="58.5001,-160.597 62,-170.597 65.5001,-160.597 58.5001,-160.597"/>
<text text-anchor="middle" x="111.5" y="-142.5" font-family="Helvetica,sans-Serif" font-size="10.00"> &lt; my_pointer_size &gt;</text>
</g>
</g>
</svg>
