<?xml version="1.0" encoding="UTF-8" standalone="no"?>
<!DOCTYPE svg PUBLIC "-//W3C//DTD SVG 1.1//EN"
 "http://www.w3.org/Graphics/SVG/1.1/DTD/svg11.dtd">
<!-- Generated by graphviz version 2.26.3 (20100126.1600)
 -->
<!-- Title: stxxl::matrix_local::switch_major_index&lt; BlockSideLength, false &gt; Pages: 1 -->
<svg width="178pt" height="228pt"
 viewBox="0.00 0.00 178.00 228.00" xmlns="http://www.w3.org/2000/svg" xmlns:xlink="http://www.w3.org/1999/xlink">
<g id="graph1" class="graph" transform="scale(1 1) rotate(0) translate(4 224)">
<title>stxxl::matrix_local::switch_major_index&lt; BlockSideLength, false &gt;</title>
<!-- Node1 -->
<g id="node1" class="node"><title>Node1</title>
<polygon fill="#bfbfbf" stroke="black" points="0,-0.5 0,-47.5 142,-47.5 142,-0.5 0,-0.5"/>
<text text-anchor="start" x="8" y="-34.5" font-family="Helvetica,sans-Serif" font-size="10.00">stxxl::matrix_local</text>
<text text-anchor="start" x="8" y="-21.5" font-family="Helvetica,sans-Serif" font-size="10.00">::switch_major_index</text>
<text text-anchor="middle" x="71" y="-8.5" font-family="Helvetica,sans-Serif" font-size="10.00">&lt; BlockSideLength, false &gt;</text>
</g>
<!-- Node2 -->
<g id="node2" class="node"><title>Node2</title>
<a xlink:href="structstxxl_1_1choose__int__types.html" target="_top" xlink:title="stxxl::choose_int_types\l\&lt; my_pointer_size \&gt;">
<polygon fill="none" stroke="black" points="8.5,-99 8.5,-133 133.5,-133 133.5,-99 8.5,-99"/>
<text text-anchor="start" x="16.5" y="-120" font-family="Helvetica,sans-Serif" font-size="10.00">stxxl::choose_int_types</text>
<text text-anchor="middle" x="71" y="-107" font-family="Helvetica,sans-Serif" font-size="10.00">&lt; my_pointer_size &gt;</text>
</a>
</g>
<!-- Node2&#45;&gt;Node1 -->
<g id="edge2" class="edge"><title>Node2&#45;&gt;Node1</title>
<path fill="none" stroke="#9a32cd" stroke-dasharray="5,2" d="M71,-88.4891C71,-75.5472 71,-60.263 71,-47.8232"/>
<polygon fill="#9a32cd" stroke="#9a32cd" points="67.5001,-88.6955 71,-98.6955 74.5001,-88.6955 67.5001,-88.6955"/>
<text text-anchor="middle" x="74" y="-70.5" font-family="Helvetica,sans-Serif" font-size="10.00"> i</text>
</g>
<!-- Node3 -->
<g id="node4" class="node"><title>Node3</title>
<a xlink:href="structstxxl_1_1choose__int__types.html" target="_top" xlink:title="stxxl::choose_int_types\l\&lt; PtrSize \&gt;">
<polygon fill="none" stroke="black" points="8.5,-185 8.5,-219 133.5,-219 133.5,-185 8.5,-185"/>
<text text-anchor="start" x="16.5" y="-206" font-family="Helvetica,sans-Serif" font-size="10.00">stxxl::choose_int_types</text>
<text text-anchor="middle" x="71" y="-193" font-family="Helvetica,sans-Serif" font-size="10.00">&lt; PtrSize &gt;</text>
</a>
</g>
<!-- Node3&#45;&gt;Node2 -->
<g id="edge4" class="edge"><title>Node3&#45;&gt;Node2</title>
<path fill="none" stroke="orange" stroke-dasharray="5,2" d="M71,-174.342C71,-160.774 71,-144.861 71,-133.084"/>
<polygon fill="orange" stroke="orange" points="67.5001,-174.597 71,-184.597 74.5001,-174.597 67.5001,-174.597"/>
<text text-anchor="middle" x="120.5" y="-156.5" font-family="Helvetica,sans-Serif" font-size="10.00"> &lt; my_pointer_size &gt;</text>
</g>
</g>
</svg>
