<?xml version="1.0" encoding="UTF-8" standalone="no"?>
<!DOCTYPE svg PUBLIC "-//W3C//DTD SVG 1.1//EN"
 "http://www.w3.org/Graphics/SVG/1.1/DTD/svg11.dtd">
<!-- Generated by graphviz version 2.26.3 (20100126.1600)
 -->
<!-- Title: stxxl::SR Pages: 1 -->
<svg width="178pt" height="274pt"
 viewBox="0.00 0.00 178.00 274.00" xmlns="http://www.w3.org/2000/svg" xmlns:xlink="http://www.w3.org/1999/xlink">
<g id="graph1" class="graph" transform="scale(1 1) rotate(0) translate(4 270)">
<title>stxxl::SR</title>
<!-- Node1 -->
<g id="node1" class="node"><title>Node1</title>
<polygon fill="#bfbfbf" stroke="black" points="45,-0.5 45,-21.5 101,-21.5 101,-0.5 45,-0.5"/>
<text text-anchor="middle" x="73" y="-8.5" font-family="Helvetica,sans-Serif" font-size="10.00">stxxl::SR</text>
</g>
<!-- Node2 -->
<g id="node2" class="node"><title>Node2</title>
<a xlink:href="structstxxl_1_1striping.html" target="_top" xlink:title="Striping disk allocation scheme functor. ">
<polygon fill="none" stroke="black" points="93.5,-60.5 93.5,-81.5 170.5,-81.5 170.5,-60.5 93.5,-60.5"/>
<text text-anchor="middle" x="132" y="-68.5" font-family="Helvetica,sans-Serif" font-size="10.00">stxxl::striping</text>
</a>
</g>
<!-- Node2&#45;&gt;Node1 -->
<g id="edge2" class="edge"><title>Node2&#45;&gt;Node1</title>
<path fill="none" stroke="midnightblue" d="M114.286,-52.986C104.23,-42.7598 91.9881,-30.3099 83.4567,-21.6339"/>
<polygon fill="midnightblue" stroke="midnightblue" points="111.945,-55.5969 121.452,-60.2732 116.936,-50.6889 111.945,-55.5969"/>
</g>
<!-- Node3 -->
<g id="node4" class="node"><title>Node3</title>
<a xlink:href="structstxxl_1_1choose__int__types.html" target="_top" xlink:title="stxxl::choose_int_types\l\&lt; my_pointer_size \&gt;">
<polygon fill="none" stroke="black" points="-0.5,-145 -0.5,-179 124.5,-179 124.5,-145 -0.5,-145"/>
<text text-anchor="start" x="7.5" y="-166" font-family="Helvetica,sans-Serif" font-size="10.00">stxxl::choose_int_types</text>
<text text-anchor="middle" x="62" y="-153" font-family="Helvetica,sans-Serif" font-size="10.00">&lt; my_pointer_size &gt;</text>
</a>
</g>
<!-- Node3&#45;&gt;Node1 -->
<g id="edge8" class="edge"><title>Node3&#45;&gt;Node1</title>
<path fill="none" stroke="#9a32cd" stroke-dasharray="5,2" d="M56.5768,-134.926C53.2951,-114.258 50.5267,-85.15 55,-60 57.444,-46.259 63.4614,-31.3181 67.8685,-21.5936"/>
<polygon fill="#9a32cd" stroke="#9a32cd" points="53.1488,-135.643 58.3041,-144.899 60.0461,-134.448 53.1488,-135.643"/>
<text text-anchor="middle" x="70" y="-68.5" font-family="Helvetica,sans-Serif" font-size="10.00"> offset</text>
</g>
<!-- Node3&#45;&gt;Node2 -->
<g id="edge4" class="edge"><title>Node3&#45;&gt;Node2</title>
<path fill="none" stroke="#9a32cd" stroke-dasharray="5,2" d="M81.2656,-136.955C95.2871,-118.727 113.563,-94.968 123.916,-81.5097"/>
<polygon fill="#9a32cd" stroke="#9a32cd" points="78.4894,-134.823 75.1665,-144.884 84.0378,-139.091 78.4894,-134.823"/>
<text text-anchor="middle" x="123.5" y="-117" font-family="Helvetica,sans-Serif" font-size="10.00"> begin</text>
<text text-anchor="middle" x="123.5" y="-104" font-family="Helvetica,sans-Serif" font-size="10.00">diff</text>
</g>
<!-- Node4 -->
<g id="node6" class="node"><title>Node4</title>
<a xlink:href="structstxxl_1_1choose__int__types.html" target="_top" xlink:title="stxxl::choose_int_types\l\&lt; PtrSize \&gt;">
<polygon fill="none" stroke="black" points="-0.5,-231 -0.5,-265 124.5,-265 124.5,-231 -0.5,-231"/>
<text text-anchor="start" x="7.5" y="-252" font-family="Helvetica,sans-Serif" font-size="10.00">stxxl::choose_int_types</text>
<text text-anchor="middle" x="62" y="-239" font-family="Helvetica,sans-Serif" font-size="10.00">&lt; PtrSize &gt;</text>
</a>
</g>
<!-- Node4&#45;&gt;Node3 -->
<g id="edge6" class="edge"><title>Node4&#45;&gt;Node3</title>
<path fill="none" stroke="orange" stroke-dasharray="5,2" d="M62,-220.342C62,-206.774 62,-190.861 62,-179.084"/>
<polygon fill="orange" stroke="orange" points="58.5001,-220.597 62,-230.597 65.5001,-220.597 58.5001,-220.597"/>
<text text-anchor="middle" x="111.5" y="-202.5" font-family="Helvetica,sans-Serif" font-size="10.00"> &lt; my_pointer_size &gt;</text>
</g>
</g>
</svg>
