<?xml version="1.0" encoding="UTF-8" standalone="no"?>
<!DOCTYPE svg PUBLIC "-//W3C//DTD SVG 1.1//EN"
 "http://www.w3.org/Graphics/SVG/1.1/DTD/svg11.dtd">
<!-- Generated by graphviz version 2.26.3 (20100126.1600)
 -->
<!-- Title: stxxl::stream::sorted_runs&lt; TriggerEntryType, CompareType &gt; Pages: 1 -->
<svg width="283pt" height="288pt"
 viewBox="0.00 0.00 283.00 288.00" xmlns="http://www.w3.org/2000/svg" xmlns:xlink="http://www.w3.org/1999/xlink">
<g id="graph1" class="graph" transform="scale(1 1) rotate(0) translate(4 284)">
<title>stxxl::stream::sorted_runs&lt; TriggerEntryType, CompareType &gt;</title>
<!-- Node1 -->
<g id="node1" class="node"><title>Node1</title>
<polygon fill="#bfbfbf" stroke="black" points="19.5,-0.5 19.5,-47.5 156.5,-47.5 156.5,-0.5 19.5,-0.5"/>
<text text-anchor="start" x="27.5" y="-34.5" font-family="Helvetica,sans-Serif" font-size="10.00">stxxl::stream::sorted</text>
<text text-anchor="start" x="27.5" y="-21.5" font-family="Helvetica,sans-Serif" font-size="10.00">_runs&lt; TriggerEntryType,</text>
<text text-anchor="middle" x="88" y="-8.5" font-family="Helvetica,sans-Serif" font-size="10.00"> CompareType &gt;</text>
</g>
<!-- Node2 -->
<g id="node2" class="node"><title>Node2</title>
<a xlink:href="classstxxl_1_1noncopyable.html" target="_top" xlink:title="stxxl::noncopyable">
<polygon fill="none" stroke="black" points="0,-86.5 0,-107.5 102,-107.5 102,-86.5 0,-86.5"/>
<text text-anchor="middle" x="51" y="-94.5" font-family="Helvetica,sans-Serif" font-size="10.00">stxxl::noncopyable</text>
</a>
</g>
<!-- Node2&#45;&gt;Node1 -->
<g id="edge2" class="edge"><title>Node2&#45;&gt;Node1</title>
<path fill="none" stroke="#8b1a1a" d="M61.0253,-77.2204C65.6232,-68.1489 71.112,-57.3197 75.9344,-47.8051"/>
<polygon fill="#8b1a1a" stroke="#8b1a1a" points="57.8586,-75.7265 56.4595,-86.2286 64.1024,-78.8912 57.8586,-75.7265"/>
</g>
<!-- Node3 -->
<g id="node4" class="node"><title>Node3</title>
<a xlink:href="classstxxl_1_1counted__object.html" target="_top" xlink:title="Provides reference counting abilities for use with counting_ptr. ">
<polygon fill="none" stroke="black" points="119.5,-86.5 119.5,-107.5 232.5,-107.5 232.5,-86.5 119.5,-86.5"/>
<text text-anchor="middle" x="176" y="-94.5" font-family="Helvetica,sans-Serif" font-size="10.00">stxxl::counted_object</text>
</a>
</g>
<!-- Node3&#45;&gt;Node1 -->
<g id="edge4" class="edge"><title>Node3&#45;&gt;Node1</title>
<path fill="none" stroke="midnightblue" d="M155.236,-79.775C143.735,-70.2347 129.264,-58.2306 116.697,-47.8051"/>
<polygon fill="midnightblue" stroke="midnightblue" points="153.084,-82.5377 163.015,-86.2286 157.553,-77.1501 153.084,-82.5377"/>
</g>
<!-- Node4 -->
<g id="node6" class="node"><title>Node4</title>
<a xlink:href="structstxxl_1_1choose__int__types.html" target="_top" xlink:title="stxxl::choose_int_types\l\&lt; my_pointer_size \&gt;">
<polygon fill="none" stroke="black" points="113.5,-159 113.5,-193 238.5,-193 238.5,-159 113.5,-159"/>
<text text-anchor="start" x="121.5" y="-180" font-family="Helvetica,sans-Serif" font-size="10.00">stxxl::choose_int_types</text>
<text text-anchor="middle" x="176" y="-167" font-family="Helvetica,sans-Serif" font-size="10.00">&lt; my_pointer_size &gt;</text>
</a>
</g>
<!-- Node4&#45;&gt;Node3 -->
<g id="edge6" class="edge"><title>Node4&#45;&gt;Node3</title>
<path fill="none" stroke="#9a32cd" stroke-dasharray="5,2" d="M176,-148.623C176,-134.473 176,-118.024 176,-107.567"/>
<polygon fill="#9a32cd" stroke="#9a32cd" points="172.5,-148.858 176,-158.858 179.5,-148.858 172.5,-148.858"/>
<text text-anchor="middle" x="223.5" y="-130.5" font-family="Helvetica,sans-Serif" font-size="10.00"> m_reference_count</text>
</g>
<!-- Node5 -->
<g id="node8" class="node"><title>Node5</title>
<a xlink:href="structstxxl_1_1choose__int__types.html" target="_top" xlink:title="stxxl::choose_int_types\l\&lt; PtrSize \&gt;">
<polygon fill="none" stroke="black" points="113.5,-245 113.5,-279 238.5,-279 238.5,-245 113.5,-245"/>
<text text-anchor="start" x="121.5" y="-266" font-family="Helvetica,sans-Serif" font-size="10.00">stxxl::choose_int_types</text>
<text text-anchor="middle" x="176" y="-253" font-family="Helvetica,sans-Serif" font-size="10.00">&lt; PtrSize &gt;</text>
</a>
</g>
<!-- Node5&#45;&gt;Node4 -->
<g id="edge8" class="edge"><title>Node5&#45;&gt;Node4</title>
<path fill="none" stroke="orange" stroke-dasharray="5,2" d="M176,-234.342C176,-220.774 176,-204.861 176,-193.084"/>
<polygon fill="orange" stroke="orange" points="172.5,-234.597 176,-244.597 179.5,-234.597 172.5,-234.597"/>
<text text-anchor="middle" x="225.5" y="-216.5" font-family="Helvetica,sans-Serif" font-size="10.00"> &lt; my_pointer_size &gt;</text>
</g>
</g>
</svg>
