<?xml version="1.0" encoding="UTF-8" standalone="no"?>
<!DOCTYPE svg PUBLIC "-//W3C//DTD SVG 1.1//EN"
 "http://www.w3.org/Graphics/SVG/1.1/DTD/svg11.dtd">
<!-- Generated by graphviz version 2.26.3 (20100126.1600)
 -->
<!-- Title: stxxl::block_scheduler_algorithm_offline_lru_prefetching&lt; SwappableBlockType &gt;::scheduled_block_meta Pages: 1 -->
<svg width="1654pt" height="251pt"
 viewBox="0.00 0.00 1654.00 251.00" xmlns="http://www.w3.org/2000/svg" xmlns:xlink="http://www.w3.org/1999/xlink">
<g id="graph1" class="graph" transform="scale(1 1) rotate(0) translate(4 247)">
<title>stxxl::block_scheduler_algorithm_offline_lru_prefetching&lt; SwappableBlockType &gt;::scheduled_block_meta</title>
<!-- Node1 -->
<g id="node1" class="node"><title>Node1</title>
<polygon fill="#bfbfbf" stroke="black" points="1460,-72 1460,-132 1646,-132 1646,-72 1460,-72"/>
<text text-anchor="start" x="1468" y="-119" font-family="Helvetica,sans-Serif" font-size="10.00">stxxl::block_scheduler</text>
<text text-anchor="start" x="1468" y="-106" font-family="Helvetica,sans-Serif" font-size="10.00">_algorithm_offline_lru</text>
<text text-anchor="start" x="1468" y="-93" font-family="Helvetica,sans-Serif" font-size="10.00">_prefetching&lt; SwappableBlockType</text>
<text text-anchor="middle" x="1553" y="-80" font-family="Helvetica,sans-Serif" font-size="10.00"> &gt;::scheduled_block_meta</text>
</g>
<!-- Node2 -->
<g id="node2" class="node"><title>Node2</title>
<a xlink:href="classstxxl_1_1counting__ptr.html" target="_top" xlink:title="stxxl::counting_ptr\l\&lt; request \&gt;">
<polygon fill="none" stroke="black" points="1274.5,-85 1274.5,-119 1375.5,-119 1375.5,-85 1274.5,-85"/>
<text text-anchor="start" x="1282.5" y="-106" font-family="Helvetica,sans-Serif" font-size="10.00">stxxl::counting_ptr</text>
<text text-anchor="middle" x="1325" y="-93" font-family="Helvetica,sans-Serif" font-size="10.00">&lt; request &gt;</text>
</a>
</g>
<!-- Node2&#45;&gt;Node1 -->
<g id="edge2" class="edge"><title>Node2&#45;&gt;Node1</title>
<path fill="none" stroke="#9a32cd" stroke-dasharray="5,2" d="M1385.77,-102C1408.51,-102 1434.89,-102 1459.88,-102"/>
<polygon fill="#9a32cd" stroke="#9a32cd" points="1385.6,-98.5001 1375.6,-102 1385.6,-105.5 1385.6,-98.5001"/>
<text text-anchor="middle" x="1418" y="-106" font-family="Helvetica,sans-Serif" font-size="10.00"> read_req</text>
</g>
<!-- Node3 -->
<g id="node4" class="node"><title>Node3</title>
<a xlink:href="classstxxl_1_1request.html" target="_top" xlink:title="Request object encapsulating basic properties like file and offset. ">
<polygon fill="none" stroke="black" points="1090.5,-117.5 1090.5,-138.5 1167.5,-138.5 1167.5,-117.5 1090.5,-117.5"/>
<text text-anchor="middle" x="1129" y="-125.5" font-family="Helvetica,sans-Serif" font-size="10.00">stxxl::request</text>
</a>
</g>
<!-- Node3&#45;&gt;Node2 -->
<g id="edge4" class="edge"><title>Node3&#45;&gt;Node2</title>
<path fill="none" stroke="#9a32cd" stroke-dasharray="5,2" d="M1177.78,-121.529C1207.23,-117.622 1244.69,-112.653 1274.46,-108.705"/>
<polygon fill="#9a32cd" stroke="#9a32cd" points="1177.18,-118.079 1167.72,-122.863 1178.1,-125.018 1177.18,-118.079"/>
<text text-anchor="middle" x="1227" y="-123" font-family="Helvetica,sans-Serif" font-size="10.00"> m_ptr</text>
</g>
<!-- Node4 -->
<g id="node6" class="node"><title>Node4</title>
<a xlink:href="classstxxl_1_1request__interface.html" target="_top" xlink:title="Functional interface of a request. ">
<polygon fill="none" stroke="black" points="408.5,-221.5 408.5,-242.5 533.5,-242.5 533.5,-221.5 408.5,-221.5"/>
<text text-anchor="middle" x="471" y="-229.5" font-family="Helvetica,sans-Serif" font-size="10.00">stxxl::request_interface</text>
</a>
</g>
<!-- Node4&#45;&gt;Node3 -->
<g id="edge6" class="edge"><title>Node4&#45;&gt;Node3</title>
<path fill="none" stroke="midnightblue" d="M543.753,-228.176C612.086,-224.263 717.129,-217.422 808,-208 876.71,-200.876 893.684,-197.233 962,-187 1005.65,-180.462 1018.69,-186.529 1060,-171 1080.88,-163.153 1102.27,-148.612 1115.58,-138.63"/>
<polygon fill="midnightblue" stroke="midnightblue" points="543.312,-224.695 533.526,-228.755 543.708,-231.684 543.312,-224.695"/>
</g>
<!-- Node5 -->
<g id="node8" class="node"><title>Node5</title>
<a xlink:href="classstxxl_1_1noncopyable.html" target="_top" xlink:title="stxxl::noncopyable">
<polygon fill="none" stroke="black" points="12,-183.5 12,-204.5 114,-204.5 114,-183.5 12,-183.5"/>
<text text-anchor="middle" x="63" y="-191.5" font-family="Helvetica,sans-Serif" font-size="10.00">stxxl::noncopyable</text>
</a>
</g>
<!-- Node5&#45;&gt;Node4 -->
<g id="edge8" class="edge"><title>Node5&#45;&gt;Node4</title>
<path fill="none" stroke="#8b1a1a" d="M124.546,-205.284C131.101,-206.293 137.679,-207.224 144,-208 235.67,-219.259 342.493,-225.887 408.439,-229.231"/>
<polygon fill="#8b1a1a" stroke="#8b1a1a" points="124.734,-201.77 114.307,-203.647 123.629,-208.682 124.734,-201.77"/>
</g>
<!-- Node7 -->
<g id="node12" class="node"><title>Node7</title>
<a xlink:href="classstxxl_1_1mutex.html" target="_top" xlink:title="stxxl::mutex">
<polygon fill="none" stroke="black" points="290,-144.5 290,-165.5 360,-165.5 360,-144.5 290,-144.5"/>
<text text-anchor="middle" x="325" y="-152.5" font-family="Helvetica,sans-Serif" font-size="10.00">stxxl::mutex</text>
</a>
</g>
<!-- Node5&#45;&gt;Node7 -->
<g id="edge14" class="edge"><title>Node5&#45;&gt;Node7</title>
<path fill="none" stroke="#8b1a1a" d="M124.604,-183.128C131.147,-182.041 137.707,-180.978 144,-180 194.623,-172.131 253.409,-164.241 289.912,-159.488"/>
<polygon fill="#8b1a1a" stroke="#8b1a1a" points="123.657,-179.739 114.376,-184.85 124.819,-186.641 123.657,-179.739"/>
</g>
<!-- Node10 -->
<g id="node19" class="node"><title>Node10</title>
<a xlink:href="classstxxl_1_1file.html" target="_top" xlink:title="Defines interface of file. ">
<polygon fill="none" stroke="black" points="866,-156.5 866,-177.5 922,-177.5 922,-156.5 866,-156.5"/>
<text text-anchor="middle" x="894" y="-164.5" font-family="Helvetica,sans-Serif" font-size="10.00">stxxl::file</text>
</a>
</g>
<!-- Node5&#45;&gt;Node10 -->
<g id="edge22" class="edge"><title>Node5&#45;&gt;Node10</title>
<path fill="none" stroke="#8b1a1a" d="M124.39,-193.131C251.839,-191.136 554.394,-185.416 808,-173 827.284,-172.056 848.971,-170.54 865.742,-169.268"/>
<polygon fill="#8b1a1a" stroke="#8b1a1a" points="124.007,-189.636 114.062,-193.29 124.115,-196.635 124.007,-189.636"/>
</g>
<!-- Node6 -->
<g id="node10" class="node"><title>Node6</title>
<a xlink:href="classstxxl_1_1atomic__counted__object.html" target="_top" xlink:title="Provides reference counting abilities for use with counting_ptr with mutex locking. ">
<polygon fill="none" stroke="black" points="557,-119 557,-153 673,-153 673,-119 557,-119"/>
<text text-anchor="start" x="565" y="-140" font-family="Helvetica,sans-Serif" font-size="10.00">stxxl::atomic_counted</text>
<text text-anchor="middle" x="615" y="-127" font-family="Helvetica,sans-Serif" font-size="10.00">_object</text>
</a>
</g>
<!-- Node6&#45;&gt;Node3 -->
<g id="edge10" class="edge"><title>Node6&#45;&gt;Node3</title>
<path fill="none" stroke="midnightblue" d="M683.733,-134.93C793.205,-133.226 1003.63,-129.951 1090.27,-128.603"/>
<polygon fill="midnightblue" stroke="midnightblue" points="683.406,-131.435 673.462,-135.09 683.515,-138.434 683.406,-131.435"/>
</g>
<!-- Node6&#45;&gt;Node10 -->
<g id="edge24" class="edge"><title>Node6&#45;&gt;Node10</title>
<path fill="none" stroke="#9a32cd" stroke-dasharray="5,2" d="M683.435,-143.604C741.985,-150.109 823.325,-159.147 865.73,-163.859"/>
<polygon fill="#9a32cd" stroke="#9a32cd" points="683.473,-140.087 673.148,-142.461 682.7,-147.044 683.473,-140.087"/>
<text text-anchor="middle" x="751" y="-160" font-family="Helvetica,sans-Serif" font-size="10.00"> m_request_ref</text>
</g>
<!-- Node7&#45;&gt;Node6 -->
<g id="edge12" class="edge"><title>Node7&#45;&gt;Node6</title>
<path fill="none" stroke="#9a32cd" stroke-dasharray="5,2" d="M370.523,-152.017C420.866,-148.719 502.096,-143.397 556.97,-139.802"/>
<polygon fill="#9a32cd" stroke="#9a32cd" points="370.02,-148.543 360.27,-152.689 370.477,-155.528 370.02,-148.543"/>
<text text-anchor="middle" x="471" y="-153" font-family="Helvetica,sans-Serif" font-size="10.00"> m_reference_count_mutex</text>
</g>
<!-- Node8 -->
<g id="node15" class="node"><title>Node8</title>
<a xlink:href="structstxxl_1_1choose__int__types.html" target="_top" xlink:title="stxxl::choose_int_types\l\&lt; my_pointer_size \&gt;">
<polygon fill="none" stroke="black" points="262.5,-92 262.5,-126 387.5,-126 387.5,-92 262.5,-92"/>
<text text-anchor="start" x="270.5" y="-113" font-family="Helvetica,sans-Serif" font-size="10.00">stxxl::choose_int_types</text>
<text text-anchor="middle" x="325" y="-100" font-family="Helvetica,sans-Serif" font-size="10.00">&lt; my_pointer_size &gt;</text>
</a>
</g>
<!-- Node8&#45;&gt;Node6 -->
<g id="edge16" class="edge"><title>Node8&#45;&gt;Node6</title>
<path fill="none" stroke="#9a32cd" stroke-dasharray="5,2" d="M398.002,-112.752C438.692,-115.204 490.239,-118.906 536,-124 542.756,-124.752 549.82,-125.656 556.826,-126.626"/>
<polygon fill="#9a32cd" stroke="#9a32cd" points="398.09,-109.251 387.902,-112.155 397.678,-116.239 398.09,-109.251"/>
<text text-anchor="middle" x="471" y="-128" font-family="Helvetica,sans-Serif" font-size="10.00"> m_reference_count</text>
</g>
<!-- Node9 -->
<g id="node17" class="node"><title>Node9</title>
<a xlink:href="structstxxl_1_1choose__int__types.html" target="_top" xlink:title="stxxl::choose_int_types\l\&lt; PtrSize \&gt;">
<polygon fill="none" stroke="black" points="0.5,-92 0.5,-126 125.5,-126 125.5,-92 0.5,-92"/>
<text text-anchor="start" x="8.5" y="-113" font-family="Helvetica,sans-Serif" font-size="10.00">stxxl::choose_int_types</text>
<text text-anchor="middle" x="63" y="-100" font-family="Helvetica,sans-Serif" font-size="10.00">&lt; PtrSize &gt;</text>
</a>
</g>
<!-- Node9&#45;&gt;Node8 -->
<g id="edge18" class="edge"><title>Node9&#45;&gt;Node8</title>
<path fill="none" stroke="orange" stroke-dasharray="5,2" d="M135.913,-109C175.636,-109 224.295,-109 262.303,-109"/>
<polygon fill="orange" stroke="orange" points="135.756,-105.5 125.756,-109 135.755,-112.5 135.756,-105.5"/>
<text text-anchor="middle" x="194" y="-113" font-family="Helvetica,sans-Serif" font-size="10.00"> &lt; my_pointer_size &gt;</text>
</g>
<!-- Node10&#45;&gt;Node3 -->
<g id="edge20" class="edge"><title>Node10&#45;&gt;Node3</title>
<path fill="none" stroke="#9a32cd" stroke-dasharray="5,2" d="M932.601,-161.752C966.303,-157.035 1016.49,-149.685 1060,-142 1069.87,-140.257 1080.5,-138.194 1090.38,-136.195"/>
<polygon fill="#9a32cd" stroke="#9a32cd" points="931.691,-158.344 922.268,-163.188 932.655,-165.278 931.691,-158.344"/>
<text text-anchor="middle" x="1020" y="-158" font-family="Helvetica,sans-Serif" font-size="10.00"> m_file</text>
</g>
<!-- Node11 -->
<g id="node23" class="node"><title>Node11</title>
<a xlink:href="structstxxl_1_1compat__unique__ptr.html" target="_top" xlink:title="stxxl::compat_unique\l_ptr\&lt; stxxl::stxxl::io\l_error \&gt;">
<polygon fill="none" stroke="black" points="694.5,-55.5 694.5,-102.5 807.5,-102.5 807.5,-55.5 694.5,-55.5"/>
<text text-anchor="start" x="702.5" y="-89.5" font-family="Helvetica,sans-Serif" font-size="10.00">stxxl::compat_unique</text>
<text text-anchor="start" x="702.5" y="-76.5" font-family="Helvetica,sans-Serif" font-size="10.00">_ptr&lt; stxxl::stxxl::io</text>
<text text-anchor="middle" x="751" y="-63.5" font-family="Helvetica,sans-Serif" font-size="10.00">_error &gt;</text>
</a>
</g>
<!-- Node11&#45;&gt;Node3 -->
<g id="edge26" class="edge"><title>Node11&#45;&gt;Node3</title>
<path fill="none" stroke="#9a32cd" stroke-dasharray="5,2" d="M817.801,-84.4966C880.579,-90.1509 977.029,-100.096 1060,-114 1069.89,-115.657 1080.52,-117.688 1090.4,-119.685"/>
<polygon fill="#9a32cd" stroke="#9a32cd" points="817.908,-80.9924 807.637,-83.5922 817.288,-87.9648 817.908,-80.9924"/>
<text text-anchor="middle" x="894" y="-104" font-family="Helvetica,sans-Serif" font-size="10.00"> m_error</text>
</g>
<!-- Node12 -->
<g id="node25" class="node"><title>Node12</title>
<a xlink:href="structstxxl_1_1compat__unique__ptr.html" target="_top" xlink:title="stxxl::compat_unique\l_ptr\&lt; Type \&gt;">
<polygon fill="none" stroke="black" points="268.5,-25 268.5,-59 381.5,-59 381.5,-25 268.5,-25"/>
<text text-anchor="start" x="276.5" y="-46" font-family="Helvetica,sans-Serif" font-size="10.00">stxxl::compat_unique</text>
<text text-anchor="middle" x="325" y="-33" font-family="Helvetica,sans-Serif" font-size="10.00">_ptr&lt; Type &gt;</text>
</a>
</g>
<!-- Node12&#45;&gt;Node11 -->
<g id="edge28" class="edge"><title>Node12&#45;&gt;Node11</title>
<path fill="none" stroke="orange" stroke-dasharray="5,2" d="M391.584,-52.2698C396.457,-52.8969 401.302,-53.4825 406,-54 507.327,-65.1612 625.968,-72.5128 694.409,-76.1996"/>
<polygon fill="orange" stroke="orange" points="391.954,-48.7882 381.579,-50.9326 391.027,-55.7265 391.954,-48.7882"/>
<text text-anchor="start" x="435" y="-83" font-family="Helvetica,sans-Serif" font-size="10.00"> &lt; stxxl::stxxl::io</text>
<text text-anchor="middle" x="471" y="-70" font-family="Helvetica,sans-Serif" font-size="10.00">_error &gt;</text>
</g>
<!-- Node14 -->
<g id="node29" class="node"><title>Node14</title>
<a xlink:href="structstxxl_1_1compat__unique__ptr.html" target="_top" xlink:title="stxxl::compat_unique\l_ptr\&lt; stxxl::completion\l_handler_impl \&gt;">
<polygon fill="none" stroke="black" points="554.5,-0.5 554.5,-47.5 675.5,-47.5 675.5,-0.5 554.5,-0.5"/>
<text text-anchor="start" x="562.5" y="-34.5" font-family="Helvetica,sans-Serif" font-size="10.00">stxxl::compat_unique</text>
<text text-anchor="start" x="562.5" y="-21.5" font-family="Helvetica,sans-Serif" font-size="10.00">_ptr&lt; stxxl::completion</text>
<text text-anchor="middle" x="615" y="-8.5" font-family="Helvetica,sans-Serif" font-size="10.00">_handler_impl &gt;</text>
</a>
</g>
<!-- Node12&#45;&gt;Node14 -->
<g id="edge34" class="edge"><title>Node12&#45;&gt;Node14</title>
<path fill="none" stroke="orange" stroke-dasharray="5,2" d="M391.527,-29.671C396.413,-29.0206 401.276,-28.4508 406,-28 455.856,-23.2422 512.694,-22.4516 554.499,-22.7336"/>
<polygon fill="orange" stroke="orange" points="390.903,-26.2245 381.501,-31.1068 391.896,-33.1538 390.903,-26.2245"/>
<text text-anchor="start" x="426.5" y="-45" font-family="Helvetica,sans-Serif" font-size="10.00"> &lt; stxxl::completion</text>
<text text-anchor="middle" x="471" y="-32" font-family="Helvetica,sans-Serif" font-size="10.00">_handler_impl &gt;</text>
</g>
<!-- Node13 -->
<g id="node27" class="node"><title>Node13</title>
<a xlink:href="classstxxl_1_1completion__handler.html" target="_top" xlink:title="Completion handler class (Loki&#45;style). ">
<polygon fill="none" stroke="black" points="826.5,-22.5 826.5,-43.5 961.5,-43.5 961.5,-22.5 826.5,-22.5"/>
<text text-anchor="middle" x="894" y="-30.5" font-family="Helvetica,sans-Serif" font-size="10.00">stxxl::completion_handler</text>
</a>
</g>
<!-- Node13&#45;&gt;Node3 -->
<g id="edge30" class="edge"><title>Node13&#45;&gt;Node3</title>
<path fill="none" stroke="#9a32cd" stroke-dasharray="5,2" d="M972.084,-27.7872C1002.47,-29.6771 1035.74,-37.0761 1060,-57 1078.58,-72.2549 1061.3,-90.7132 1078,-108 1081.7,-111.83 1086.22,-114.942 1091.03,-117.466"/>
<polygon fill="#9a32cd" stroke="#9a32cd" points="972.049,-24.2826 961.907,-27.3474 971.747,-31.276 972.049,-24.2826"/>
<text text-anchor="middle" x="1020" y="-61" font-family="Helvetica,sans-Serif" font-size="10.00"> m_on_complete</text>
</g>
<!-- Node14&#45;&gt;Node13 -->
<g id="edge32" class="edge"><title>Node14&#45;&gt;Node13</title>
<path fill="none" stroke="#9a32cd" stroke-dasharray="5,2" d="M685.674,-26.2798C728.805,-27.6711 783.648,-29.4403 826.237,-30.8141"/>
<polygon fill="#9a32cd" stroke="#9a32cd" points="685.647,-22.7772 675.539,-25.9529 685.421,-29.7736 685.647,-22.7772"/>
<text text-anchor="middle" x="751" y="-35" font-family="Helvetica,sans-Serif" font-size="10.00"> m_ptr</text>
</g>
<!-- Node15 -->
<g id="node32" class="node"><title>Node15</title>
<a xlink:href="classstxxl_1_1counting__ptr.html" target="_top" xlink:title="High&#45;performance smart pointer used as a wrapping reference counting pointer. ">
<polygon fill="none" stroke="black" points="1078.5,-65 1078.5,-99 1179.5,-99 1179.5,-65 1078.5,-65"/>
<text text-anchor="start" x="1086.5" y="-86" font-family="Helvetica,sans-Serif" font-size="10.00">stxxl::counting_ptr</text>
<text text-anchor="middle" x="1129" y="-73" font-family="Helvetica,sans-Serif" font-size="10.00">&lt; Type &gt;</text>
</a>
</g>
<!-- Node15&#45;&gt;Node2 -->
<g id="edge36" class="edge"><title>Node15&#45;&gt;Node2</title>
<path fill="none" stroke="orange" stroke-dasharray="5,2" d="M1189.63,-82.9752C1210.7,-83.8141 1234.45,-85.3202 1256,-88 1261.94,-88.739 1268.14,-89.708 1274.27,-90.7918"/>
<polygon fill="orange" stroke="orange" points="1189.64,-79.4735 1179.52,-82.6148 1189.39,-86.469 1189.64,-79.4735"/>
<text text-anchor="middle" x="1227" y="-92" font-family="Helvetica,sans-Serif" font-size="10.00"> &lt; request &gt;</text>
</g>
</g>
</svg>
