<?xml version="1.0" encoding="UTF-8" standalone="no"?>
<!DOCTYPE svg PUBLIC "-//W3C//DTD SVG 1.1//EN"
 "http://www.w3.org/Graphics/SVG/1.1/DTD/svg11.dtd">
<!-- Generated by graphviz version 2.26.3 (20100126.1600)
 -->
<!-- Title: stxxl::priority_queue_local::ext_merger&lt; BlockType, Cmp, Arity, AllocStr &gt;::sequence_state Pages: 1 -->
<svg width="1394pt" height="312pt"
 viewBox="0.00 0.00 1394.00 312.10" xmlns="http://www.w3.org/2000/svg" xmlns:xlink="http://www.w3.org/1999/xlink">
<g id="graph1" class="graph" transform="scale(1 1) rotate(0) translate(4 308.103)">
<title>stxxl::priority_queue_local::ext_merger&lt; BlockType, Cmp, Arity, AllocStr &gt;::sequence_state</title>
<!-- Node1 -->
<g id="node1" class="node"><title>Node1</title>
<polygon fill="#bfbfbf" stroke="black" points="736.5,-112.5 736.5,-159.5 933.5,-159.5 933.5,-112.5 736.5,-112.5"/>
<text text-anchor="start" x="744.5" y="-146.5" font-family="Helvetica,sans-Serif" font-size="10.00">stxxl::priority_queue</text>
<text text-anchor="start" x="744.5" y="-133.5" font-family="Helvetica,sans-Serif" font-size="10.00">_local::ext_merger&lt; BlockType,</text>
<text text-anchor="middle" x="835" y="-120.5" font-family="Helvetica,sans-Serif" font-size="10.00"> Cmp, Arity, AllocStr &gt;::sequence_state</text>
</g>
<!-- Node3 -->
<g id="node4" class="node"><title>Node3</title>
<a xlink:href="classstxxl_1_1priority__queue__local_1_1ext__merger.html" target="_top" xlink:title="External merger, based on the loser tree data structure. ">
<polygon fill="none" stroke="black" points="1222,-131.5 1222,-178.5 1386,-178.5 1386,-131.5 1222,-131.5"/>
<text text-anchor="start" x="1230" y="-165.5" font-family="Helvetica,sans-Serif" font-size="10.00">stxxl::priority_queue</text>
<text text-anchor="start" x="1230" y="-152.5" font-family="Helvetica,sans-Serif" font-size="10.00">_local::ext_merger&lt; BlockType,</text>
<text text-anchor="middle" x="1304" y="-139.5" font-family="Helvetica,sans-Serif" font-size="10.00"> Cmp, Arity, AllocStr &gt;</text>
</a>
</g>
<!-- Node1&#45;&gt;Node3 -->
<g id="edge34" class="edge"><title>Node1&#45;&gt;Node3</title>
<path fill="none" stroke="#9a32cd" stroke-dasharray="5,2" d="M943.812,-157.09C946.565,-157.421 949.298,-157.725 952,-158 1044.11,-167.368 1150.48,-164.598 1221.97,-160.775"/>
<polygon fill="#9a32cd" stroke="#9a32cd" points="944.138,-153.603 933.77,-155.786 943.236,-160.545 944.138,-153.603"/>
<text text-anchor="middle" x="1032" y="-168" font-family="Helvetica,sans-Serif" font-size="10.00"> states</text>
</g>
<!-- Node2 -->
<g id="node2" class="node"><title>Node2</title>
<a xlink:href="classstxxl_1_1noncopyable.html" target="_top" xlink:title="stxxl::noncopyable">
<polygon fill="none" stroke="black" points="324,-238.5 324,-259.5 426,-259.5 426,-238.5 324,-238.5"/>
<text text-anchor="middle" x="375" y="-246.5" font-family="Helvetica,sans-Serif" font-size="10.00">stxxl::noncopyable</text>
</a>
</g>
<!-- Node2&#45;&gt;Node1 -->
<g id="edge2" class="edge"><title>Node2&#45;&gt;Node1</title>
<path fill="none" stroke="#8b1a1a" d="M435.957,-240.043C520.058,-227.273 667.069,-203.348 718,-185 726.61,-181.898 727.725,-178.908 736,-175 747.359,-169.636 759.668,-164.37 771.622,-159.528"/>
<polygon fill="#8b1a1a" stroke="#8b1a1a" points="435.388,-236.59 426.023,-241.544 436.434,-243.511 435.388,-236.59"/>
</g>
<!-- Node2&#45;&gt;Node3 -->
<g id="edge6" class="edge"><title>Node2&#45;&gt;Node3</title>
<path fill="none" stroke="#8b1a1a" d="M405.341,-263.785C420.26,-270.422 438.712,-277.709 456,-282 499.351,-292.759 511.389,-289.775 556,-292 803.163,-304.327 871.296,-319.473 1112,-262 1154.11,-251.946 1165.78,-250.341 1204,-230 1230.63,-215.827 1257.82,-194.934 1277.12,-178.797"/>
<polygon fill="#8b1a1a" stroke="#8b1a1a" points="406.645,-260.533 396.095,-259.556 403.733,-266.898 406.645,-260.533"/>
</g>
<!-- Node4 -->
<g id="node7" class="node"><title>Node4</title>
<a xlink:href="classstxxl_1_1read__write__pool.html" target="_top" xlink:title="Implements dynamically resizable buffered writing and prefetched reading pool. ">
<polygon fill="none" stroke="black" points="972.5,-219 972.5,-253 1091.5,-253 1091.5,-219 972.5,-219"/>
<text text-anchor="start" x="980.5" y="-240" font-family="Helvetica,sans-Serif" font-size="10.00">stxxl::read_write_pool</text>
<text text-anchor="middle" x="1032" y="-227" font-family="Helvetica,sans-Serif" font-size="10.00">&lt; BlockType &gt;</text>
</a>
</g>
<!-- Node2&#45;&gt;Node4 -->
<g id="edge10" class="edge"><title>Node2&#45;&gt;Node4</title>
<path fill="none" stroke="#8b1a1a" d="M436.307,-260.387C471.239,-266.226 515.909,-272.603 556,-275 723.8,-285.032 768.04,-288.735 934,-262 947.555,-259.816 961.948,-256.55 975.41,-253.063"/>
<polygon fill="#8b1a1a" stroke="#8b1a1a" points="436.706,-256.905 426.26,-258.678 435.532,-263.806 436.706,-256.905"/>
</g>
<!-- Node5 -->
<g id="node10" class="node"><title>Node5</title>
<a xlink:href="classstxxl_1_1prefetch__pool.html" target="_top" xlink:title="Implements dynamically resizable prefetching pool. ">
<polygon fill="none" stroke="black" points="583.5,-142 583.5,-176 690.5,-176 690.5,-142 583.5,-142"/>
<text text-anchor="start" x="591.5" y="-163" font-family="Helvetica,sans-Serif" font-size="10.00">stxxl::prefetch_pool</text>
<text text-anchor="middle" x="637" y="-150" font-family="Helvetica,sans-Serif" font-size="10.00">&lt; BlockType &gt;</text>
</a>
</g>
<!-- Node2&#45;&gt;Node5 -->
<g id="edge14" class="edge"><title>Node2&#45;&gt;Node5</title>
<path fill="none" stroke="#8b1a1a" d="M394.808,-231.74C410.402,-219.078 433.236,-202.498 456,-193 496.868,-175.948 546.494,-167.395 583.439,-163.136"/>
<polygon fill="#8b1a1a" stroke="#8b1a1a" points="392.377,-229.211 386.936,-238.302 396.859,-234.588 392.377,-229.211"/>
</g>
<!-- Node10 -->
<g id="node21" class="node"><title>Node10</title>
<a xlink:href="classstxxl_1_1write__pool.html" target="_top" xlink:title="Implements dynamically resizable buffered writing pool. ">
<polygon fill="none" stroke="black" points="588.5,-232 588.5,-266 685.5,-266 685.5,-232 588.5,-232"/>
<text text-anchor="start" x="596.5" y="-253" font-family="Helvetica,sans-Serif" font-size="10.00">stxxl::write_pool&lt;</text>
<text text-anchor="middle" x="637" y="-240" font-family="Helvetica,sans-Serif" font-size="10.00"> BlockType &gt;</text>
</a>
</g>
<!-- Node2&#45;&gt;Node10 -->
<g id="edge26" class="edge"><title>Node2&#45;&gt;Node10</title>
<path fill="none" stroke="#8b1a1a" d="M436.345,-249C482.638,-249 545.296,-249 588.206,-249"/>
<polygon fill="#8b1a1a" stroke="#8b1a1a" points="436.138,-245.5 426.138,-249 436.138,-252.5 436.138,-245.5"/>
</g>
<!-- Node3&#45;&gt;Node1 -->
<g id="edge4" class="edge"><title>Node3&#45;&gt;Node1</title>
<path fill="none" stroke="#9a32cd" stroke-dasharray="5,2" d="M1211.68,-149.825C1180.08,-148.151 1144.5,-146.374 1112,-145 1052.87,-142.5 986.615,-140.325 933.732,-138.739"/>
<polygon fill="#9a32cd" stroke="#9a32cd" points="1211.62,-153.327 1221.8,-150.365 1212,-146.337 1211.62,-153.327"/>
<text text-anchor="middle" x="1032" y="-149" font-family="Helvetica,sans-Serif" font-size="10.00"> merger</text>
</g>
<!-- Node4&#45;&gt;Node3 -->
<g id="edge8" class="edge"><title>Node4&#45;&gt;Node3</title>
<path fill="none" stroke="#9a32cd" stroke-dasharray="5,2" d="M1101.84,-221.157C1133.32,-213.902 1170.8,-204.476 1204,-194 1218.22,-189.514 1233.31,-184.023 1247.35,-178.593"/>
<polygon fill="#9a32cd" stroke="#9a32cd" points="1100.81,-217.801 1091.84,-223.435 1102.37,-224.626 1100.81,-217.801"/>
<text text-anchor="middle" x="1167" y="-217" font-family="Helvetica,sans-Serif" font-size="10.00"> pool</text>
</g>
<!-- Node5&#45;&gt;Node4 -->
<g id="edge12" class="edge"><title>Node5&#45;&gt;Node4</title>
<path fill="none" stroke="#9a32cd" stroke-dasharray="5,2" d="M700.931,-171.462C775.904,-186.078 899.204,-210.113 972.301,-224.362"/>
<polygon fill="#9a32cd" stroke="#9a32cd" points="701.167,-167.943 690.683,-169.465 699.828,-174.813 701.167,-167.943"/>
<text text-anchor="middle" x="835" y="-219" font-family="Helvetica,sans-Serif" font-size="10.00"> p_pool</text>
</g>
<!-- Node6 -->
<g id="node13" class="node"><title>Node6</title>
<a xlink:href="structstxxl_1_1choose__int__types.html" target="_top" xlink:title="stxxl::choose_int_types\l\&lt; my_pointer_size \&gt;">
<polygon fill="none" stroke="black" points="312.5,-97 312.5,-131 437.5,-131 437.5,-97 312.5,-97"/>
<text text-anchor="start" x="320.5" y="-118" font-family="Helvetica,sans-Serif" font-size="10.00">stxxl::choose_int_types</text>
<text text-anchor="middle" x="375" y="-105" font-family="Helvetica,sans-Serif" font-size="10.00">&lt; my_pointer_size &gt;</text>
</a>
</g>
<!-- Node6&#45;&gt;Node1 -->
<g id="edge36" class="edge"><title>Node6&#45;&gt;Node1</title>
<path fill="none" stroke="#9a32cd" stroke-dasharray="5,2" d="M447.841,-111.175C450.595,-111.108 453.322,-111.05 456,-111 492.438,-110.325 501.588,-109.47 538,-111 604.304,-113.786 678.715,-120.055 736.469,-125.618"/>
<polygon fill="#9a32cd" stroke="#9a32cd" points="447.689,-107.677 437.787,-111.445 447.877,-114.675 447.689,-107.677"/>
<text text-anchor="middle" x="497" y="-115" font-family="Helvetica,sans-Serif" font-size="10.00"> current</text>
</g>
<!-- Node6&#45;&gt;Node3 -->
<g id="edge32" class="edge"><title>Node6&#45;&gt;Node3</title>
<path fill="none" stroke="#9a32cd" stroke-dasharray="5,2" d="M447.607,-101.338C554.377,-84.4975 759.927,-58.8512 934,-77 1034.23,-87.4496 1147.29,-113.411 1221.75,-132.526"/>
<polygon fill="#9a32cd" stroke="#9a32cd" points="446.91,-97.9047 437.587,-102.938 448.014,-104.817 446.91,-97.9047"/>
<text text-anchor="middle" x="835" y="-94" font-family="Helvetica,sans-Serif" font-size="10.00"> k</text>
<text text-anchor="middle" x="835" y="-81" font-family="Helvetica,sans-Serif" font-size="10.00">log_k</text>
</g>
<!-- Node6&#45;&gt;Node5 -->
<g id="edge16" class="edge"><title>Node6&#45;&gt;Node5</title>
<path fill="none" stroke="#9a32cd" stroke-dasharray="5,2" d="M447.843,-126.596C450.597,-127.07 453.323,-127.539 456,-128 498.731,-135.352 547.143,-143.642 583.14,-149.798"/>
<polygon fill="#9a32cd" stroke="#9a32cd" points="448.241,-123.113 437.791,-124.863 447.051,-130.011 448.241,-123.113"/>
<text text-anchor="middle" x="497" y="-145" font-family="Helvetica,sans-Serif" font-size="10.00"> free_blocks_size</text>
</g>
<!-- Node7 -->
<g id="node15" class="node"><title>Node7</title>
<a xlink:href="structstxxl_1_1choose__int__types.html" target="_top" xlink:title="stxxl::choose_int_types\l\&lt; PtrSize \&gt;">
<polygon fill="none" stroke="black" points="19.5,-97 19.5,-131 144.5,-131 144.5,-97 19.5,-97"/>
<text text-anchor="start" x="27.5" y="-118" font-family="Helvetica,sans-Serif" font-size="10.00">stxxl::choose_int_types</text>
<text text-anchor="middle" x="82" y="-105" font-family="Helvetica,sans-Serif" font-size="10.00">&lt; PtrSize &gt;</text>
</a>
</g>
<!-- Node7&#45;&gt;Node6 -->
<g id="edge18" class="edge"><title>Node7&#45;&gt;Node6</title>
<path fill="none" stroke="orange" stroke-dasharray="5,2" d="M154.946,-114C203.312,-114 266.12,-114 312.248,-114"/>
<polygon fill="orange" stroke="orange" points="154.856,-110.5 144.856,-114 154.856,-117.5 154.856,-110.5"/>
<text text-anchor="middle" x="238" y="-118" font-family="Helvetica,sans-Serif" font-size="10.00"> &lt; my_pointer_size &gt;</text>
</g>
<!-- Node8 -->
<g id="node17" class="node"><title>Node8</title>
<a xlink:href="structstxxl_1_1compat__hash__map.html" target="_top" xlink:title="stxxl::compat_hash\l_map\&lt; bid_type, busy\l_entry, bid_hash \&gt;">
<polygon fill="none" stroke="black" points="316,-24.5 316,-71.5 434,-71.5 434,-24.5 316,-24.5"/>
<text text-anchor="start" x="324" y="-58.5" font-family="Helvetica,sans-Serif" font-size="10.00">stxxl::compat_hash</text>
<text text-anchor="start" x="324" y="-45.5" font-family="Helvetica,sans-Serif" font-size="10.00">_map&lt; bid_type, busy</text>
<text text-anchor="middle" x="375" y="-32.5" font-family="Helvetica,sans-Serif" font-size="10.00">_entry, bid_hash &gt;</text>
</a>
</g>
<!-- Node8&#45;&gt;Node5 -->
<g id="edge20" class="edge"><title>Node8&#45;&gt;Node5</title>
<path fill="none" stroke="#9a32cd" stroke-dasharray="5,2" d="M444.03,-53.5359C473.957,-57.8306 508.763,-65.457 538,-79 571.084,-94.3253 602.647,-123.129 620.906,-141.67"/>
<polygon fill="#9a32cd" stroke="#9a32cd" points="444.459,-50.0622 434.083,-52.2034 443.53,-57.0002 444.459,-50.0622"/>
<text text-anchor="middle" x="497" y="-83" font-family="Helvetica,sans-Serif" font-size="10.00"> busy_blocks</text>
</g>
<!-- Node9 -->
<g id="node19" class="node"><title>Node9</title>
<a xlink:href="structstxxl_1_1compat__hash__map.html" target="_top" xlink:title="stxxl::compat_hash\l_map\&lt; KeyType, MappedType,\l HashType \&gt;">
<polygon fill="none" stroke="black" points="0,-24.5 0,-71.5 164,-71.5 164,-24.5 0,-24.5"/>
<text text-anchor="start" x="8" y="-58.5" font-family="Helvetica,sans-Serif" font-size="10.00">stxxl::compat_hash</text>
<text text-anchor="start" x="8" y="-45.5" font-family="Helvetica,sans-Serif" font-size="10.00">_map&lt; KeyType, MappedType,</text>
<text text-anchor="middle" x="82" y="-32.5" font-family="Helvetica,sans-Serif" font-size="10.00"> HashType &gt;</text>
</a>
</g>
<!-- Node9&#45;&gt;Node8 -->
<g id="edge22" class="edge"><title>Node9&#45;&gt;Node8</title>
<path fill="none" stroke="orange" stroke-dasharray="5,2" d="M174.056,-48C220.371,-48 275.149,-48 315.806,-48"/>
<polygon fill="orange" stroke="orange" points="174.006,-44.5001 164.006,-48 174.006,-51.5001 174.006,-44.5001"/>
<text text-anchor="start" x="182.5" y="-65" font-family="Helvetica,sans-Serif" font-size="10.00"> &lt; bid_type, busy_entry,</text>
<text text-anchor="middle" x="238" y="-52" font-family="Helvetica,sans-Serif" font-size="10.00"> bid_hash &gt;</text>
</g>
<!-- Node10&#45;&gt;Node4 -->
<g id="edge24" class="edge"><title>Node10&#45;&gt;Node4</title>
<path fill="none" stroke="#9a32cd" stroke-dasharray="5,2" d="M695.967,-247.059C770.366,-244.611 897.601,-240.423 972.331,-237.964"/>
<polygon fill="#9a32cd" stroke="#9a32cd" points="695.71,-243.566 685.831,-247.393 695.941,-250.562 695.71,-243.566"/>
<text text-anchor="middle" x="835" y="-249" font-family="Helvetica,sans-Serif" font-size="10.00"> w_pool</text>
</g>
<!-- Node11 -->
<g id="node24" class="node"><title>Node11</title>
<a xlink:href="classstxxl_1_1priority__queue__local_1_1internal__bounded__stack.html" target="_top" xlink:title="stxxl::priority_queue\l_local::internal_bounded\l_stack\&lt; unsigned_type, arity \&gt;">
<polygon fill="none" stroke="black" points="952,-0.5 952,-47.5 1112,-47.5 1112,-0.5 952,-0.5"/>
<text text-anchor="start" x="960" y="-34.5" font-family="Helvetica,sans-Serif" font-size="10.00">stxxl::priority_queue</text>
<text text-anchor="start" x="960" y="-21.5" font-family="Helvetica,sans-Serif" font-size="10.00">_local::internal_bounded</text>
<text text-anchor="middle" x="1032" y="-8.5" font-family="Helvetica,sans-Serif" font-size="10.00">_stack&lt; unsigned_type, arity &gt;</text>
</a>
</g>
<!-- Node11&#45;&gt;Node3 -->
<g id="edge28" class="edge"><title>Node11&#45;&gt;Node3</title>
<path fill="none" stroke="#9a32cd" stroke-dasharray="5,2" d="M1122.05,-25.7478C1149.55,-29.2063 1179.08,-36.0457 1204,-49 1240.81,-68.1388 1271.5,-106.258 1288.8,-131.185"/>
<polygon fill="#9a32cd" stroke="#9a32cd" points="1122.35,-22.2597 1112.02,-24.6215 1121.57,-29.216 1122.35,-22.2597"/>
<text text-anchor="middle" x="1167" y="-53" font-family="Helvetica,sans-Serif" font-size="10.00"> free_segments</text>
</g>
<!-- Node12 -->
<g id="node26" class="node"><title>Node12</title>
<a xlink:href="classstxxl_1_1priority__queue__local_1_1internal__bounded__stack.html" target="_top" xlink:title="Similar to std::stack, with the following differences: ">
<polygon fill="none" stroke="black" points="556.5,-0.5 556.5,-47.5 717.5,-47.5 717.5,-0.5 556.5,-0.5"/>
<text text-anchor="start" x="564.5" y="-34.5" font-family="Helvetica,sans-Serif" font-size="10.00">stxxl::priority_queue</text>
<text text-anchor="start" x="564.5" y="-21.5" font-family="Helvetica,sans-Serif" font-size="10.00">_local::internal_bounded</text>
<text text-anchor="middle" x="637" y="-8.5" font-family="Helvetica,sans-Serif" font-size="10.00">_stack&lt; ValueType, MaxSize &gt;</text>
</a>
</g>
<!-- Node12&#45;&gt;Node11 -->
<g id="edge30" class="edge"><title>Node12&#45;&gt;Node11</title>
<path fill="none" stroke="orange" stroke-dasharray="5,2" d="M728.106,-24C795.724,-24 887.059,-24 951.897,-24"/>
<polygon fill="orange" stroke="orange" points="727.887,-20.5001 717.887,-24 727.887,-27.5001 727.887,-20.5001"/>
<text text-anchor="middle" x="835" y="-28" font-family="Helvetica,sans-Serif" font-size="10.00"> &lt; unsigned_type, arity &gt;</text>
</g>
</g>
</svg>
