<?xml version="1.0" encoding="UTF-8" standalone="no"?>
<!DOCTYPE svg PUBLIC "-//W3C//DTD SVG 1.1//EN"
 "http://www.w3.org/Graphics/SVG/1.1/DTD/svg11.dtd">
<!-- Generated by graphviz version 2.26.3 (20100126.1600)
 -->
<!-- Title: stxxl::interleaved_FR Pages: 1 -->
<svg width="880pt" height="159pt"
 viewBox="0.00 0.00 880.00 159.00" xmlns="http://www.w3.org/2000/svg" xmlns:xlink="http://www.w3.org/1999/xlink">
<g id="graph1" class="graph" transform="scale(1 1) rotate(0) translate(4 155)">
<title>stxxl::interleaved_FR</title>
<!-- Node1 -->
<g id="node1" class="node"><title>Node1</title>
<polygon fill="#bfbfbf" stroke="black" points="758,-78.5 758,-99.5 872,-99.5 872,-78.5 758,-78.5"/>
<text text-anchor="middle" x="815" y="-86.5" font-family="Helvetica,sans-Serif" font-size="10.00">stxxl::interleaved_FR</text>
</g>
<!-- Node2 -->
<g id="node2" class="node"><title>Node2</title>
<a xlink:href="structstxxl_1_1interleaved__striping.html" target="_top" xlink:title="stxxl::interleaved\l_striping">
<polygon fill="none" stroke="black" points="587.5,-95 587.5,-129 682.5,-129 682.5,-95 587.5,-95"/>
<text text-anchor="start" x="595.5" y="-116" font-family="Helvetica,sans-Serif" font-size="10.00">stxxl::interleaved</text>
<text text-anchor="middle" x="635" y="-103" font-family="Helvetica,sans-Serif" font-size="10.00">_striping</text>
</a>
</g>
<!-- Node2&#45;&gt;Node1 -->
<g id="edge2" class="edge"><title>Node2&#45;&gt;Node1</title>
<path fill="none" stroke="midnightblue" d="M692.734,-104.623C713.524,-101.966 736.962,-98.9716 757.714,-96.3199"/>
<polygon fill="midnightblue" stroke="midnightblue" points="692.24,-101.157 682.764,-105.897 693.127,-108.101 692.24,-101.157"/>
</g>
<!-- Node3 -->
<g id="node4" class="node"><title>Node3</title>
<a xlink:href="structstxxl_1_1choose__int__types.html" target="_top" xlink:title="stxxl::choose_int_types\l\&lt; my_pointer_size \&gt;">
<polygon fill="none" stroke="black" points="276.5,-95 276.5,-129 401.5,-129 401.5,-95 276.5,-95"/>
<text text-anchor="start" x="284.5" y="-116" font-family="Helvetica,sans-Serif" font-size="10.00">stxxl::choose_int_types</text>
<text text-anchor="middle" x="339" y="-103" font-family="Helvetica,sans-Serif" font-size="10.00">&lt; my_pointer_size &gt;</text>
</a>
</g>
<!-- Node3&#45;&gt;Node2 -->
<g id="edge4" class="edge"><title>Node3&#45;&gt;Node2</title>
<path fill="none" stroke="#9a32cd" stroke-dasharray="5,2" d="M412.109,-112C466.816,-112 540.06,-112 587.391,-112"/>
<polygon fill="#9a32cd" stroke="#9a32cd" points="411.774,-108.5 401.774,-112 411.774,-115.5 411.774,-108.5"/>
<text text-anchor="middle" x="489" y="-142" font-family="Helvetica,sans-Serif" font-size="10.00"> diff</text>
<text text-anchor="middle" x="489" y="-129" font-family="Helvetica,sans-Serif" font-size="10.00">begindisk</text>
<text text-anchor="middle" x="489" y="-116" font-family="Helvetica,sans-Serif" font-size="10.00">nruns</text>
</g>
<!-- Node4 -->
<g id="node6" class="node"><title>Node4</title>
<a xlink:href="structstxxl_1_1choose__int__types.html" target="_top" xlink:title="stxxl::choose_int_types\l\&lt; PtrSize \&gt;">
<polygon fill="none" stroke="black" points="3.5,-95 3.5,-129 128.5,-129 128.5,-95 3.5,-95"/>
<text text-anchor="start" x="11.5" y="-116" font-family="Helvetica,sans-Serif" font-size="10.00">stxxl::choose_int_types</text>
<text text-anchor="middle" x="66" y="-103" font-family="Helvetica,sans-Serif" font-size="10.00">&lt; PtrSize &gt;</text>
</a>
</g>
<!-- Node4&#45;&gt;Node3 -->
<g id="edge6" class="edge"><title>Node4&#45;&gt;Node3</title>
<path fill="none" stroke="orange" stroke-dasharray="5,2" d="M138.714,-112C181.55,-112 235.198,-112 276.188,-112"/>
<polygon fill="orange" stroke="orange" points="138.632,-108.5 128.632,-112 138.632,-115.5 138.632,-108.5"/>
<text text-anchor="middle" x="200" y="-116" font-family="Helvetica,sans-Serif" font-size="10.00"> &lt; my_pointer_size &gt;</text>
</g>
<!-- Node5 -->
<g id="node8" class="node"><title>Node5</title>
<a xlink:href="structstxxl_1_1random__number.html" target="_top" xlink:title="stxxl::random_number\l\&lt; random_uniform_fast \&gt;">
<polygon fill="none" stroke="black" points="568,-43 568,-77 702,-77 702,-43 568,-43"/>
<text text-anchor="start" x="576" y="-64" font-family="Helvetica,sans-Serif" font-size="10.00">stxxl::random_number</text>
<text text-anchor="middle" x="635" y="-51" font-family="Helvetica,sans-Serif" font-size="10.00">&lt; random_uniform_fast &gt;</text>
</a>
</g>
<!-- Node5&#45;&gt;Node1 -->
<g id="edge8" class="edge"><title>Node5&#45;&gt;Node1</title>
<path fill="none" stroke="#9a32cd" stroke-dasharray="5,2" d="M712.053,-72.4141C727.455,-74.8956 743.374,-77.4603 757.954,-79.8093"/>
<polygon fill="#9a32cd" stroke="#9a32cd" points="712.455,-68.9338 702.025,-70.7985 711.341,-75.8447 712.455,-68.9338"/>
<text text-anchor="middle" x="730" y="-80" font-family="Helvetica,sans-Serif" font-size="10.00"> rnd</text>
</g>
<!-- Node6 -->
<g id="node10" class="node"><title>Node6</title>
<a xlink:href="structstxxl_1_1random__uniform__fast.html" target="_top" xlink:title="Fast uniform [0.0, 1.0) pseudo&#45;random generator. ">
<polygon fill="none" stroke="black" points="268,-52.5 268,-73.5 410,-73.5 410,-52.5 268,-52.5"/>
<text text-anchor="middle" x="339" y="-60.5" font-family="Helvetica,sans-Serif" font-size="10.00">stxxl::random_uniform_fast</text>
</a>
</g>
<!-- Node6&#45;&gt;Node5 -->
<g id="edge10" class="edge"><title>Node6&#45;&gt;Node5</title>
<path fill="none" stroke="#9a32cd" stroke-dasharray="5,2" d="M420.297,-62.176C466.676,-61.706 524.106,-61.1239 567.897,-60.6801"/>
<polygon fill="#9a32cd" stroke="#9a32cd" points="420.24,-58.6763 410.276,-62.2776 420.311,-65.676 420.24,-58.6763"/>
<text text-anchor="middle" x="489" y="-67" font-family="Helvetica,sans-Serif" font-size="10.00"> uniform</text>
</g>
<!-- Node7 -->
<g id="node12" class="node"><title>Node7</title>
<a xlink:href="structstxxl_1_1random__number32.html" target="_top" xlink:title="Fast uniform [0, 2^32) pseudo&#45;random generator with period 2^32, random bits: 32. ...">
<polygon fill="none" stroke="black" points="0.5,-52.5 0.5,-73.5 131.5,-73.5 131.5,-52.5 0.5,-52.5"/>
<text text-anchor="middle" x="66" y="-60.5" font-family="Helvetica,sans-Serif" font-size="10.00">stxxl::random_number32</text>
</a>
</g>
<!-- Node7&#45;&gt;Node6 -->
<g id="edge12" class="edge"><title>Node7&#45;&gt;Node6</title>
<path fill="none" stroke="#9a32cd" stroke-dasharray="5,2" d="M141.808,-63C181.147,-63 228.932,-63 267.61,-63"/>
<polygon fill="#9a32cd" stroke="#9a32cd" points="141.738,-59.5001 131.738,-63 141.738,-66.5001 141.738,-59.5001"/>
<text text-anchor="middle" x="200" y="-67" font-family="Helvetica,sans-Serif" font-size="10.00"> rnd32</text>
</g>
<!-- Node8 -->
<g id="node14" class="node"><title>Node8</title>
<a xlink:href="structstxxl_1_1random__number.html" target="_top" xlink:title="Uniform [0, N) pseudo&#45;random generator. ">
<polygon fill="none" stroke="black" points="279.5,-0 279.5,-34 398.5,-34 398.5,-0 279.5,-0"/>
<text text-anchor="start" x="287.5" y="-21" font-family="Helvetica,sans-Serif" font-size="10.00">stxxl::random_number</text>
<text text-anchor="middle" x="339" y="-8" font-family="Helvetica,sans-Serif" font-size="10.00">&lt; UniformRGen &gt;</text>
</a>
</g>
<!-- Node8&#45;&gt;Node5 -->
<g id="edge14" class="edge"><title>Node8&#45;&gt;Node5</title>
<path fill="none" stroke="orange" stroke-dasharray="5,2" d="M408.641,-24.8682C449.837,-29.7824 502.989,-36.5742 550,-44 555.785,-44.9137 561.779,-45.9204 567.786,-46.9705"/>
<polygon fill="orange" stroke="orange" points="409.047,-21.3919 398.705,-23.6916 408.224,-28.3433 409.047,-21.3919"/>
<text text-anchor="middle" x="489" y="-48" font-family="Helvetica,sans-Serif" font-size="10.00"> &lt; random_uniform_fast &gt;</text>
</g>
</g>
</svg>
