<?xml version="1.0" encoding="UTF-8" standalone="no"?>
<!DOCTYPE svg PUBLIC "-//W3C//DTD SVG 1.1//EN"
 "http://www.w3.org/Graphics/SVG/1.1/DTD/svg11.dtd">
<!-- Generated by graphviz version 2.26.3 (20100126.1600)
 -->
<!-- Title: stxxl::stream::sorted_runs&lt; TriggerEntryType, CompareType &gt; Pages: 1 -->
<svg width="240pt" height="114pt"
 viewBox="0.00 0.00 240.00 114.00" xmlns="http://www.w3.org/2000/svg" xmlns:xlink="http://www.w3.org/1999/xlink">
<g id="graph1" class="graph" transform="scale(1 1) rotate(0) translate(4 110)">
<title>stxxl::stream::sorted_runs&lt; TriggerEntryType, CompareType &gt;</title>
<!-- Node1 -->
<g id="node1" class="node"><title>Node1</title>
<polygon fill="#bfbfbf" stroke="black" points="44.5,-0.5 44.5,-47.5 181.5,-47.5 181.5,-0.5 44.5,-0.5"/>
<text text-anchor="start" x="52.5" y="-34.5" font-family="Helvetica,sans-Serif" font-size="10.00">stxxl::stream::sorted</text>
<text text-anchor="start" x="52.5" y="-21.5" font-family="Helvetica,sans-Serif" font-size="10.00">_runs&lt; TriggerEntryType,</text>
<text text-anchor="middle" x="113" y="-8.5" font-family="Helvetica,sans-Serif" font-size="10.00"> CompareType &gt;</text>
</g>
<!-- Node2 -->
<g id="node2" class="node"><title>Node2</title>
<a xlink:href="classstxxl_1_1noncopyable.html" target="_top" xlink:title="stxxl::noncopyable">
<polygon fill="none" stroke="black" points="0,-84.5 0,-105.5 102,-105.5 102,-84.5 0,-84.5"/>
<text text-anchor="middle" x="51" y="-92.5" font-family="Helvetica,sans-Serif" font-size="10.00">stxxl::noncopyable</text>
</a>
</g>
<!-- Node2&#45;&gt;Node1 -->
<g id="edge2" class="edge"><title>Node2&#45;&gt;Node1</title>
<path fill="none" stroke="#8b1a1a" d="M66.9946,-76.6836C74.7497,-67.8028 84.1558,-57.0313 92.437,-47.548"/>
<polygon fill="#8b1a1a" stroke="#8b1a1a" points="64.3577,-74.3821 60.4165,-84.2166 69.6304,-78.9864 64.3577,-74.3821"/>
</g>
<!-- Node3 -->
<g id="node4" class="node"><title>Node3</title>
<a xlink:href="classstxxl_1_1counted__object.html" target="_top" xlink:title="Provides reference counting abilities for use with counting_ptr. ">
<polygon fill="none" stroke="black" points="119.5,-84.5 119.5,-105.5 232.5,-105.5 232.5,-84.5 119.5,-84.5"/>
<text text-anchor="middle" x="176" y="-92.5" font-family="Helvetica,sans-Serif" font-size="10.00">stxxl::counted_object</text>
</a>
</g>
<!-- Node3&#45;&gt;Node1 -->
<g id="edge4" class="edge"><title>Node3&#45;&gt;Node1</title>
<path fill="none" stroke="midnightblue" d="M159.747,-76.6836C151.867,-67.8028 142.309,-57.0313 133.895,-47.548"/>
<polygon fill="midnightblue" stroke="midnightblue" points="157.177,-79.0597 166.432,-84.2166 162.413,-74.4137 157.177,-79.0597"/>
</g>
</g>
</svg>
