<?xml version="1.0" encoding="UTF-8" standalone="no"?>
<!DOCTYPE svg PUBLIC "-//W3C//DTD SVG 1.1//EN"
 "http://www.w3.org/Graphics/SVG/1.1/DTD/svg11.dtd">
<!-- Generated by graphviz version 2.26.3 (20100126.1600)
 -->
<!-- Title: stxxl::matrix_operation_statistic_dataset Pages: 1 -->
<svg width="178pt" height="294pt"
 viewBox="0.00 0.00 178.00 294.00" xmlns="http://www.w3.org/2000/svg" xmlns:xlink="http://www.w3.org/1999/xlink">
<g id="graph1" class="graph" transform="scale(1 1) rotate(0) translate(4 290)">
<title>stxxl::matrix_operation_statistic_dataset</title>
<!-- Node1 -->
<g id="node1" class="node"><title>Node1</title>
<polygon fill="#bfbfbf" stroke="black" points="1,-1 1,-35 123,-35 123,-1 1,-1"/>
<text text-anchor="start" x="9" y="-22" font-family="Helvetica,sans-Serif" font-size="10.00">stxxl::matrix_operation</text>
<text text-anchor="middle" x="62" y="-9" font-family="Helvetica,sans-Serif" font-size="10.00">_statistic_dataset</text>
</g>
<!-- Node2 -->
<g id="node2" class="node"><title>Node2</title>
<a xlink:href="structstxxl_1_1choose__int__types.html" target="_top" xlink:title="stxxl::choose_int_types\l\&lt; my_pointer_size \&gt;">
<polygon fill="none" stroke="black" points="-0.5,-165 -0.5,-199 124.5,-199 124.5,-165 -0.5,-165"/>
<text text-anchor="start" x="7.5" y="-186" font-family="Helvetica,sans-Serif" font-size="10.00">stxxl::choose_int_types</text>
<text text-anchor="middle" x="62" y="-173" font-family="Helvetica,sans-Serif" font-size="10.00">&lt; my_pointer_size &gt;</text>
</a>
</g>
<!-- Node2&#45;&gt;Node1 -->
<g id="edge2" class="edge"><title>Node2&#45;&gt;Node1</title>
<path fill="none" stroke="#9a32cd" stroke-dasharray="5,2" d="M62,-154.566C62,-120.477 62,-63.3501 62,-35.0099"/>
<polygon fill="#9a32cd" stroke="#9a32cd" points="58.5001,-154.759 62,-164.759 65.5001,-154.759 58.5001,-154.759"/>
<text text-anchor="start" x="62" y="-136.5" font-family="Helvetica,sans-Serif" font-size="10.00"> block_multiplications</text>
<text text-anchor="middle" x="116" y="-123.5" font-family="Helvetica,sans-Serif" font-size="10.00">_saved_through_zero</text>
<text text-anchor="start" x="62" y="-110.5" font-family="Helvetica,sans-Serif" font-size="10.00">block_multiplication</text>
<text text-anchor="middle" x="116" y="-97.5" font-family="Helvetica,sans-Serif" font-size="10.00">_calls</text>
<text text-anchor="start" x="62" y="-84.5" font-family="Helvetica,sans-Serif" font-size="10.00">block_additions_saved</text>
<text text-anchor="middle" x="116" y="-71.5" font-family="Helvetica,sans-Serif" font-size="10.00">_through_zero</text>
<text text-anchor="middle" x="116" y="-58.5" font-family="Helvetica,sans-Serif" font-size="10.00">block_addition_calls</text>
</g>
<!-- Node3 -->
<g id="node4" class="node"><title>Node3</title>
<a xlink:href="structstxxl_1_1choose__int__types.html" target="_top" xlink:title="stxxl::choose_int_types\l\&lt; PtrSize \&gt;">
<polygon fill="none" stroke="black" points="-0.5,-251 -0.5,-285 124.5,-285 124.5,-251 -0.5,-251"/>
<text text-anchor="start" x="7.5" y="-272" font-family="Helvetica,sans-Serif" font-size="10.00">stxxl::choose_int_types</text>
<text text-anchor="middle" x="62" y="-259" font-family="Helvetica,sans-Serif" font-size="10.00">&lt; PtrSize &gt;</text>
</a>
</g>
<!-- Node3&#45;&gt;Node2 -->
<g id="edge4" class="edge"><title>Node3&#45;&gt;Node2</title>
<path fill="none" stroke="orange" stroke-dasharray="5,2" d="M62,-240.342C62,-226.774 62,-210.861 62,-199.084"/>
<polygon fill="orange" stroke="orange" points="58.5001,-240.597 62,-250.597 65.5001,-240.597 58.5001,-240.597"/>
<text text-anchor="middle" x="111.5" y="-222.5" font-family="Helvetica,sans-Serif" font-size="10.00"> &lt; my_pointer_size &gt;</text>
</g>
</g>
</svg>
