<?xml version="1.0" encoding="UTF-8" standalone="no"?>
<!DOCTYPE svg PUBLIC "-//W3C//DTD SVG 1.1//EN"
 "http://www.w3.org/Graphics/SVG/1.1/DTD/svg11.dtd">
<!-- Generated by graphviz version 2.26.3 (20100126.1600)
 -->
<!-- Title: stxxl::interleaved_striping Pages: 1 -->
<svg width="256pt" height="150pt"
 viewBox="0.00 0.00 256.00 150.00" xmlns="http://www.w3.org/2000/svg" xmlns:xlink="http://www.w3.org/1999/xlink">
<g id="graph1" class="graph" transform="scale(1 1) rotate(0) translate(4 146)">
<title>stxxl::interleaved_striping</title>
<!-- Node1 -->
<g id="node1" class="node"><title>Node1</title>
<polygon fill="#bfbfbf" stroke="black" points="0.5,-54 0.5,-88 95.5,-88 95.5,-54 0.5,-54"/>
<text text-anchor="start" x="8.5" y="-75" font-family="Helvetica,sans-Serif" font-size="10.00">stxxl::interleaved</text>
<text text-anchor="middle" x="48" y="-62" font-family="Helvetica,sans-Serif" font-size="10.00">_striping</text>
</g>
<!-- Node2 -->
<g id="node3" class="node"><title>Node2</title>
<a xlink:href="structstxxl_1_1first__disk__only.html" target="_top" xlink:title="stxxl::first_disk_only">
<polygon fill="none" stroke="black" points="135,-120.5 135,-141.5 245,-141.5 245,-120.5 135,-120.5"/>
<text text-anchor="middle" x="190" y="-128.5" font-family="Helvetica,sans-Serif" font-size="10.00">stxxl::first_disk_only</text>
</a>
</g>
<!-- Node1&#45;&gt;Node2 -->
<g id="edge2" class="edge"><title>Node1&#45;&gt;Node2</title>
<path fill="none" stroke="midnightblue" d="M90.779,-92.5103C103.871,-98.7832 118.406,-105.44 132,-111 140.084,-114.306 148.94,-117.547 157.244,-120.424"/>
<polygon fill="midnightblue" stroke="midnightblue" points="92.0605,-89.2421 81.5351,-88.0317 89.0084,-95.5417 92.0605,-89.2421"/>
</g>
<!-- Node3 -->
<g id="node5" class="node"><title>Node3</title>
<a xlink:href="structstxxl_1_1interleaved__FR.html" target="_top" xlink:title="stxxl::interleaved_FR">
<polygon fill="none" stroke="black" points="133,-80.5 133,-101.5 247,-101.5 247,-80.5 133,-80.5"/>
<text text-anchor="middle" x="190" y="-88.5" font-family="Helvetica,sans-Serif" font-size="10.00">stxxl::interleaved_FR</text>
</a>
</g>
<!-- Node1&#45;&gt;Node3 -->
<g id="edge4" class="edge"><title>Node1&#45;&gt;Node3</title>
<path fill="none" stroke="midnightblue" d="M105.65,-79.1198C114.621,-80.3833 123.887,-81.6884 132.847,-82.9503"/>
<polygon fill="midnightblue" stroke="midnightblue" points="106.069,-75.6443 95.679,-77.7153 105.093,-82.5759 106.069,-75.6443"/>
</g>
<!-- Node4 -->
<g id="node7" class="node"><title>Node4</title>
<a xlink:href="structstxxl_1_1interleaved__RC.html" target="_top" xlink:title="stxxl::interleaved_RC">
<polygon fill="none" stroke="black" points="132,-40.5 132,-61.5 248,-61.5 248,-40.5 132,-40.5"/>
<text text-anchor="middle" x="190" y="-48.5" font-family="Helvetica,sans-Serif" font-size="10.00">stxxl::interleaved_RC</text>
</a>
</g>
<!-- Node1&#45;&gt;Node4 -->
<g id="edge6" class="edge"><title>Node1&#45;&gt;Node4</title>
<path fill="none" stroke="midnightblue" d="M105.658,-62.8791C114.293,-61.663 123.201,-60.4083 131.846,-59.1907"/>
<polygon fill="midnightblue" stroke="midnightblue" points="105.093,-59.4241 95.679,-64.2847 106.069,-66.3557 105.093,-59.4241"/>
</g>
<!-- Node5 -->
<g id="node9" class="node"><title>Node5</title>
<a xlink:href="structstxxl_1_1interleaved__SR.html" target="_top" xlink:title="stxxl::interleaved_SR">
<polygon fill="none" stroke="black" points="132.5,-0.5 132.5,-21.5 247.5,-21.5 247.5,-0.5 132.5,-0.5"/>
<text text-anchor="middle" x="190" y="-8.5" font-family="Helvetica,sans-Serif" font-size="10.00">stxxl::interleaved_SR</text>
</a>
</g>
<!-- Node1&#45;&gt;Node5 -->
<g id="edge8" class="edge"><title>Node1&#45;&gt;Node5</title>
<path fill="none" stroke="midnightblue" d="M90.779,-49.4897C103.871,-43.2168 118.406,-36.56 132,-31 140.084,-27.6936 148.94,-24.4534 157.244,-21.5762"/>
<polygon fill="midnightblue" stroke="midnightblue" points="89.0084,-46.4583 81.5351,-53.9683 92.0605,-52.7579 89.0084,-46.4583"/>
</g>
</g>
</svg>
